<?xml version="1.0" encoding="utf-8"?>
<!-- Generator: Adobe Illustrator 27.0.0, SVG Export Plug-In . SVG Version: 6.00 Build 0)  -->
<svg version="1.1" id="圖層_1" xmlns="http://www.w3.org/2000/svg" xmlns:xlink="http://www.w3.org/1999/xlink" x="0px" y="0px"
	 viewBox="0 0 32 18.24" style="enable-background:new 0 0 32 18.24;" xml:space="preserve">
<style type="text/css">
	.st0{fill:#FFFFFF;}
</style>
<path class="st0" d="M0,1.93c0.15-0.56,0.38-1.07,0.85-1.44c0.8-0.63,1.95-0.65,2.75-0.01c0.15,0.12,0.3,0.26,0.44,0.4
	c3.89,3.89,7.78,7.78,11.67,11.67c0.09,0.09,0.16,0.19,0.38,0.35c0.06-0.11,0.1-0.24,0.19-0.33c3.92-3.93,7.85-7.85,11.78-11.78
	c0.69-0.69,1.49-0.96,2.45-0.66c1.39,0.45,1.96,2.24,1.09,3.41c-0.1,0.13-0.21,0.26-0.33,0.38c-4.52,4.52-9.04,9.05-13.57,13.57
	c-0.83,0.83-1.88,0.99-2.82,0.43c-0.23-0.14-0.43-0.32-0.62-0.51C9.85,13.01,5.46,8.62,1.07,4.23C0.58,3.75,0.14,3.25,0,2.55
	C0,2.34,0,2.13,0,1.93z"/>
</svg>
