<?xml version="1.0" encoding="utf-8"?>
<!-- Generator: Adobe Illustrator 27.0.0, SVG Export Plug-In . SVG Version: 6.00 Build 0)  -->
<svg version="1.1" id="圖層_1" xmlns="http://www.w3.org/2000/svg" xmlns:xlink="http://www.w3.org/1999/xlink" x="0px" y="0px"
	 viewBox="0 0 65.9 36" style="enable-background:new 0 0 65.9 36;" xml:space="preserve">
<style type="text/css">
	.st0{fill:#FFFFFF;fill-opacity:0;}
	.st1{fill-rule:evenodd;clip-rule:evenodd;fill:#8993BE;}
	.st2{fill-rule:evenodd;clip-rule:evenodd;fill:#232531;}
</style>
<rect y="0" class="st0" width="36" height="36"/>
<g>
	<path class="st1" d="M32.9,35.8C14.5,35.8,0,27.9,0,17.9S14.5,0,32.9,0s32.9,7.9,32.9,17.9S51.4,35.8,32.9,35.8z"/>
	<path class="st2" d="M10.3,28.8l3.5-17.3h7.9c3.5,0.2,5.2,1.9,5.2,5c0,5.2-4,8.1-7.7,7.9h-3.9l-0.8,4.4H10.3z M16.1,21.1l1.2-6.4
		h2.7c1.5,0,2.5,0.6,2.5,1.9c-0.2,3.7-1.9,4.2-3.9,4.4H16.1L16.1,21.1z M26.1,24.4L29.6,7h4l-1,4.4h3.9c3.5,0.2,4.6,1.9,4.2,4
		l-1.5,8.7H35l1.5-7.9c0.2-1.2,0.2-1.7-1.3-1.7h-3.3L30,24.2h-3.9C26.1,24.2,26.1,24.4,26.1,24.4z M39,28.8l3.5-17.3h7.9
		c3.5,0.2,5.2,1.9,5.2,5c0,5.2-4,8.1-7.7,7.9H44l-1,4.4H39z M44.8,21.1l1.2-6.4h2.7c1.5,0,2.5,0.6,2.5,1.9c-0.2,3.7-1.9,4.2-3.9,4.4
		H44.8L44.8,21.1z"/>
</g>
</svg>
