<?xml version="1.0" encoding="utf-8"?>
<!-- Generator: Adobe Illustrator 27.0.0, SVG Export Plug-In . SVG Version: 6.00 Build 0)  -->
<svg version="1.1" id="圖層_1" xmlns="http://www.w3.org/2000/svg" xmlns:xlink="http://www.w3.org/1999/xlink" x="0px" y="0px"
	 viewBox="0 0 36 36" style="enable-background:new 0 0 36 36;" xml:space="preserve">
<style type="text/css">
	.st0{fill:#FFFFFF;}
</style>
<path class="st0" d="M36,10.3c0-0.1-0.1-0.3-0.3-0.3L27,7.6c0,0-0.1,0-0.1,0c0,0-0.1,0-0.1,0L9.5,2.6c0,0-0.1,0-0.1,0
	c0,0-0.1,0-0.1,0L0.5,0C0.4,0,0.2,0,0.1,0.1C0,0.2,0,0.4,0,0.5l4.4,17.6c0,0,0,0,0,0c0,0,0,0,0,0l4.4,17.6c0,0.1,0.1,0.3,0.3,0.3
	c0,0,0.1,0,0.1,0c0.1,0,0.2,0,0.3-0.1l26.4-25.2C36,10.6,36,10.5,36,10.3z M22.6,22.3l-1.9-7.5l7.5,2.1L22.6,22.3z M16.1,28.5
	l-1.8-7.4l7.4,2.1L16.1,28.5z M5.4,18.6l7.4,2.1L7.2,26L5.4,18.6z M3.1,9.7l7.5,2.1L5,17.2L3.1,9.7z M11.2,12.4l1.9,7.5l-7.5-2.1
	L11.2,12.4z M12,12.2l7.4,2.1l-5.5,5.3L12,12.2z M19.9,14.9l1.9,7.5l-7.5-2.1L19.9,14.9z M12.2,11.5l5.5-5.3l1.8,7.4L12.2,11.5z
	 M11.7,10.9L9.8,3.5l7.4,2.1L11.7,10.9z M10.9,11.1L3.5,9L9,3.7L10.9,11.1z M13.4,21.2l1.8,7.4l-7.4-2.1L13.4,21.2z M21,14l5.5-5.3
	l1.8,7.4L21,14z M20.4,13.4L18.6,6l7.4,2.1L20.4,13.4z M8.5,3.1L2.8,8.5L1,1L8.5,3.1z M9.4,34.8l-1.9-7.6l7.6,2.2L9.4,34.8z
	 M29.2,16l-1.9-7.5l7.5,2.1L29.2,16z"/>
</svg>
