<?xml version="1.0" encoding="utf-8"?>
<!-- Generator: Adobe Illustrator 27.0.0, SVG Export Plug-In . SVG Version: 6.00 Build 0)  -->
<svg version="1.1" id="圖層_1" xmlns="http://www.w3.org/2000/svg" xmlns:xlink="http://www.w3.org/1999/xlink" x="0px" y="0px"
	 viewBox="0 0 512 512" style="enable-background:new 0 0 512 512;" xml:space="preserve">
<style type="text/css">
	.st0{fill:#FFFFFF;}
</style>
<g>
	<path class="st0" d="M124,479.5c-26-0.1-46.1-23.1-41.8-48.2c6.6-38.3,13.3-76.7,20.2-115c0.9-5.2-0.3-8.8-4.3-12.5
		c-27.4-25.8-54.6-51.9-82-77.9C2.6,213.1-3.7,198.2,2.6,180c6.3-18.3,20.3-26.7,39.6-29.2c38.4-5,76.7-10.7,115-16.5
		c2.7-0.4,5.9-3.6,7.2-6.3c17.3-33.9,34.6-67.9,51.6-101.9c6.3-12.6,15.5-21.6,29.7-24.9c21-4.9,39.6,4.1,49.8,24.1
		c14,27.4,27.8,55,41.6,82.5c2.1,4.2,5,8.3,6.3,12.8c3.3,11.4,11.4,14.3,22.5,15.7c36.2,4.4,72.2,9.7,108.3,15.1
		c17.6,2.6,29.9,12.4,35.4,29.2c5.4,16.6,0.9,31.1-11.5,43.1c-28.1,27-56.3,53.9-84.6,80.5c-3.8,3.7-4.7,7.1-3.8,11.9
		c6.8,38.3,13.6,76.7,20.2,115c5.3,31-25.7,56.7-55.9,46.3c-6.7-2.3-12.9-5.8-19.1-9.3c-4.5-2.5-6.7-6.4-3.8-11.3
		c2.8-4.6,7-5.4,11.9-3c5,2.6,9.8,5.4,15.1,7.4c9.2,3.7,18.1,2.4,25.9-3.8c7.7-6.2,11.1-14.2,9.4-23.9
		c-7.2-41.1-14.3-82.1-21.7-123.1c-1-5.4,0.8-9,4.7-12.6c29.7-28.2,59.2-56.6,88.9-84.8c6.8-6.5,11-13.8,9.6-23.3
		c-2-13-10.8-20.6-24.8-22.6c-41.1-5.8-82.2-11.9-123.4-17.6c-6-0.8-8.8-3.8-11.2-8.6c-18.2-36.3-36.5-72.5-54.8-108.7
		c-6.9-13.5-18.5-18.9-32.1-15.1c-8.5,2.4-13.5,8.3-17.3,15.8c-17.7,35.1-35.7,70.1-52.9,105.4c-3.8,7.9-9.1,11-17.3,12.1
		c-40.2,5.4-80.3,11-120.4,16.7c-10.7,1.5-18.5,7.2-22,17.4c-3.7,10.6-0.6,19.6,7.4,27.3c29.6,28.2,59.1,56.7,88.9,84.7
		c4.9,4.6,6.3,9,5.1,15.8c-7.4,40.3-14.2,80.6-21.2,120.9c-3.3,19.2,16.2,34.8,34.7,27.8c6.4-2.4,12.4-5.9,18.5-9
		c5.1-2.6,10.1-3.3,13.3,2.2c3.3,5.7-0.2,9.3-5.1,12.1C142.8,476.8,135,479.5,124,479.5z"/>
	<path class="st0" d="M198.1,257c-10.8,9.4-22.7,11.6-36.8,6c0,7.5-0.1,14.2,0,20.7c0.2,17-0.3,34,0.8,51c1,15,9.7,26.2,23.4,32.9
		c9.5,4.6,13.3,11.6,13.3,21.6c-0.2,36.7,0,73.5-0.1,110.2c0,2.5,0.2,5.5-1.1,7.3c-1.7,2.3-4.9,5.1-7.4,5.1s-5.9-2.7-7.4-5.1
		c-1.4-2.3-1.1-5.8-1.1-8.7c-0.1-35.5-0.2-71,0.1-106.5c0-5.1-1.6-7.8-6.3-10.5c-20-11.2-30.5-28.7-30.8-51.1
		c-0.6-39-0.1-78-0.2-117c-0.1-22.5,23.2-40.3,48.4-27.1c5.3-8.4,12.7-14.6,23.1-16.4c10.6-1.8,19.6,1.8,27.3,8.5
		c19.4-11.9,28.5-11.9,43.8-1.2c8.9-2.8,16.6-6.7,24.5-7.3c14.8-1.1,27.6,9.9,30.3,24.2c0.7,3.4,1.1,7,0.9,10.4
		c-0.8,10.3-0.2,18.3,12.6,22.6c9.9,3.4,15.5,13.2,15.6,23.9c0.3,29,1,58-0.5,86.9c-1,19-12.4,33.7-29.4,43.1c-5.6,3-7,6.5-7,12.4
		c0.2,35.8,0.1,71.5,0.2,107.2c0,6.2-1,11.8-8.3,11.8c-7.2-0.1-8.6-5.6-8.5-11.8c0.1-37.2,0.1-74.5,0-111.7c0-9.4,3.8-16,12.6-20.4
		c16.1-8.2,24.5-21.3,24.5-39.3c0-24.2,0.1-48.5,0-72.7c-0.1-12-6.2-18-18.2-18.2c-13-0.1-26.1-0.1-39.1,0
		c-9.8,0.1-16.4,6-16.4,14.2c0.2,7.8,6.5,13.4,16,13.6c6.4,0.2,12.8,0,19.1,0.1c6.8,0.1,10.4,3.4,10.3,10.2c-0.1,9.5,0.1,19,0,28.5
		c-0.1,6.2-3,9.4-9.7,10c-20.3,1.7-32.8,13.8-35.7,33.8c-1.1,8-4.4,11.7-9.8,10.4c-7.1-1.8-7.8-7.1-6.9-13
		c3.3-21.9,15-37.7,36.8-44.5c7.6-2.3,9.8-5.5,8.7-12.4c-0.2-1.7,0-3.4,0-5.6c-6.8-0.5-13.5,0.2-19.2-1.8c-7-2.3-13.1-7-19.6-10.6
		c-2.9-1.6-5.6-3.4-8.6-4.7c-6.2-2.6-12.5-5-19.6-7.8C223.9,269.4,215.9,269.4,198.1,257z M206.9,217.1c0,6.5-0.2,13,0.1,19.4
		c0.3,7.5,6.5,13.2,13.8,13.3c7.3,0.2,13.8-5.4,14.1-13c0.4-12.6,0.3-25.4,0.1-38.1c-0.2-7.6-6.4-13.2-13.7-13.3
		c-7.6-0.1-13.9,5.8-14.2,13.7C206.7,205.1,206.9,211.1,206.9,217.1z M260.7,248.4c6.7-8.2,12.6-15.3,18.3-22.5
		c0.8-1,1.5-2.6,1.5-3.9c0.2-7.7,0.3-15.4-0.1-23.1c-0.4-7.5-6.6-13.2-13.9-13.4c-7.2-0.2-13.8,5.1-14.2,12.9
		c-0.5,12.9-0.4,25.8,0,38.8C252.7,243.4,256.5,247.5,260.7,248.4z M190.1,224L190.1,224c0-4,0.2-8,0-12
		c-0.6-8.2-6.4-14.1-13.8-14.4c-7.4-0.3-14.2,5.4-14.6,13.4c-0.6,8.5-0.6,17,0,25.4c0.5,7.8,7,13.3,14.1,13.4
		c7.4,0.1,13.7-5.8,14.4-13.8C190.3,232,190.1,228,190.1,224z M325.6,221.2c0-8.2,0.5-15.9-0.2-23.5c-0.6-7.3-7-12.3-13.9-12.2
		c-7,0.1-13.4,5.4-13.9,12.5c-0.6,7.6-0.1,15.3-0.1,23.2C307,221.2,315.9,221.2,325.6,221.2z"/>
</g>
</svg>
