<?xml version="1.0" encoding="utf-8"?>
<!-- Generator: Adobe Illustrator 27.0.0, SVG Export Plug-In . SVG Version: 6.00 Build 0)  -->
<svg version="1.1" id="圖層_1" xmlns="http://www.w3.org/2000/svg" xmlns:xlink="http://www.w3.org/1999/xlink" x="0px" y="0px"
	 viewBox="0 0 512 512" style="enable-background:new 0 0 512 512;" xml:space="preserve">
<style type="text/css">
	.st0{fill:#FFFFFF;}
</style>
<g>
	<path class="st0" d="M165,512c-3.8-2.2-5.1-5.5-5-10c0.2-20,0.2-40,0-60c0-4.7,1.4-8,6.3-9.3c1-0.2,2.3-1.7,2.3-2.5
		c-0.2-10.6,0.2-21.4-1.4-31.8c-0.9-5.9-4.4-11.9-8.2-16.7c-18.3-23.1-27.7-49.8-31.8-78.5c-1-6.4-1.5-12.9-1.8-19.4
		c-0.3-5.6,2.7-9.4,7.3-9.6c4.4-0.2,7.8,3.2,8.1,8.9c1,22.6,5.4,44.6,15.5,65c4.3,8.7,9.9,16.9,15.7,24.8
		c7.9,10.9,12.2,22.7,12.2,36.2c0,7.7,0,15.3,0,23.2c44.6,0,88.8,0,133.8,0c0-6.6,0.2-13.1-0.1-19.5c-0.7-13.1,3.1-24.5,12-34.3
		c4-4.4,7.2-9.6,10.8-14.4c3.2-4.3,7.5-5.4,11.2-2.8c3.8,2.6,4.4,6.9,1.3,11.4c-4.6,6.4-9.3,12.6-14.1,18.7
		c-3.8,4.9-5.9,10.3-5.9,16.6c0.1,8,0,15.9,0,23.8c8.1,3.2,8.9,4.3,8.9,12.6c0,19-0.1,38,0.1,57c0,4.5-1.2,8.1-4.9,10.7
		c-32.6,0-65.4,0-98,0c-3.4-2.5-6.2-5.4-4.5-10c1.7-4.6,5.4-5,9.8-5c25.5,0.1,51,0.1,76.5,0.1c1.8,0,3.5,0,5.2,0
		c0-16.7,0-32.6,0-48.6c-50.4,0-100.6,0-150.6,0c0,16.4,0,32.3,0,48.6c2.1,0,3.8,0,5.7,0c10.2,0,20.3-0.1,30.5,0.1
		c5.8,0.1,9.4,5.4,7.1,10.3c-0.8,1.7-2.3,3.1-3.5,4.6C198.3,512,181.7,512,165,512z"/>
	<path class="st0" d="M287.3,255.6c-2.6-1.8-4.9-3.2-7-4.6c-17,22.5-46.9,17.4-57-6.2c-18.9,9.8-34.5,5.8-46.8-12.2
		c-11,7.5-22.8,8.6-35.8,2.1c0,5.4,0.1,10.2,0,14.9c0,2.5,0,5-0.4,7.4c-0.6,3.8-3,5.8-6.9,6c-3.8,0.2-6.4-1.7-7.5-5.3
		c-0.5-1.4-0.6-3-0.6-4.4c0-28-0.2-56,0-84c0.1-18.6,14.8-33,32.8-32.2c5.2,0.2,10.2,2.3,15.8,3.6c2.4-10.2,8.3-18.4,18.8-23
		c10.6-4.7,20.7-2.9,30.4,2.6c11.4-22.4,32.4-24.5,47.6-15.5c0.7-1.4,1.4-3,2.1-4.4c6.5-13.5,21.2-20.6,35.8-17.4
		c13.8,3.2,24.2,15.9,24.5,30.3c0.2,11.8,0.1,23.7,0.1,35.5c0,1.8,0,3.6,0,5.4c5.7,0.6,11,0.8,16.2,2c14.8,3.4,24.2,13.4,29.8,27
		c5.8,13.9,7.4,28.6,7.8,43.4c0.6,24.7-2.5,49.1-6.2,73.5c-2.2,14-4.6,27.8-10.5,40.9c-0.5,1-0.8,2.2-1.4,3.2
		c-2.2,3.8-6.1,5.1-9.8,3.4c-3.8-1.7-5.5-5.3-3.9-9.4c13-34.6,15.4-71,16.4-107.4c0.4-13-0.7-25.9-5.1-38.4
		c-5.8-16.2-14.3-22.3-31.4-22.3c-24.5,0-49,0-73.5,0c-7.9,0-9.5,1.8-8.6,9.4c1.5,12.6,10.3,21.5,23.6,24.2
		c16.9,3.4,33.8,7.2,50.6,10.9c6.9,1.5,8.7,4.6,7,11.5c-1.9,7.6-4,15.1-5.8,22.6c-1,3.8-3.1,5.8-6.8,7.2
		c-31.8,11.4-55.2,32.1-68.9,63.3c-1.8,4-4.2,7-9,6.1c-5.4-1-7.6-5.9-5.2-11.6c9.6-22.4,24.2-40.9,44.1-55
		C283.8,258,285.4,257,287.3,255.6z M221.3,182.5L221.3,182.5c0.1-11.4,0.1-23,0-34.4c-0.1-10.6-6.6-17.5-16.2-17.5
		s-16.2,7-16.2,17.5c-0.1,23.1-0.1,46.2,0,69.4c0,2.2,0.2,4.4,0.9,6.3c2.4,7.3,9.9,11.9,17.1,10.9c8.5-1.2,14.3-7.3,14.5-15.7
		C221.4,206.7,221.3,194.6,221.3,182.5z M173.2,188.4L173.2,188.4c0-6.3,0-12.6,0-19c0-0.3,0-0.6,0-1c-0.3-9-7-15.8-15.9-16
		c-8.8-0.2-16.2,6.2-16.6,15.2c-0.4,13.7-0.4,27.3,0,41c0.2,8.9,8,15.6,16.5,15.4c8.7-0.3,15.7-7.2,15.8-16.1
		C173.3,201.4,173.2,194.9,173.2,188.4z M317.7,154.8c0-11.4,0.1-22.4,0-33.5c0-3.7,0-7.4-0.6-10.9c-1.4-7.8-8.5-12.8-16.8-12.5
		c-7.4,0.2-14.8,6.2-15,13.4c-0.5,14.4-0.2,28.8-0.2,43.4C296,154.8,306.6,154.8,317.7,154.8z M237.6,183c-0.4,0.6-0.6,0.9-0.6,1.1
		c0,17.1-0.2,34.3,0.1,51.4c0.2,7.8,7.4,14.2,15.2,14.4c8.4,0.3,15.7-5.2,16.9-13.1c0.5-3.1,0.1-6.3,0.5-9.4
		c0.8-6.2-0.2-11-7.6-12.2c-1.7-0.3-3.3-1.5-4.8-2.6C246.4,205.8,240.2,195.8,237.6,183z M269.3,155.2c0.1-2.2,0.2-3.4,0.2-4.8
		c0-6.6,0.2-13.4-0.2-19.9c-0.6-9-8-15.6-16.6-15.3c-9,0.3-15.8,7.3-15.9,16.6c-0.2,12-0.1,23.9,0,35.9c0,1,0.2,2,0.2,3
		C242.6,154.9,255.4,154.2,269.3,155.2z M317.1,228.2c-10.7-2.2-21.2-4.5-31.7-6.7c-1.7,11.8,3.8,20.3,13.1,21.5
		C308.4,244.3,316.2,238.2,317.1,228.2z"/>
	<path class="st0" d="M248.2,29.2c0-6.6-0.1-13.4,0-20c0.1-5.8,2.9-9.1,7.6-9.2c4.8-0.1,7.8,3.2,7.8,9c0.1,13.7,0.1,27.4,0,41
		c-0.1,5.8-3.1,9-7.8,9c-4.7-0.1-7.5-3.4-7.6-9.3C248.2,42.9,248.2,36,248.2,29.2z"/>
	<path class="st0" d="M129,112.8c-2.6-1.6-5-2.4-6.5-3.9c-10-9.8-19.8-19.7-29.7-29.6c-3.7-3.8-3.8-8.3-0.6-11.4c3-3,7.6-3,11.1,0.5
		c10.1,9.9,20.1,20,30.1,30c2.6,2.6,3.8,5.8,1.8,9C133.9,109.4,131.3,110.9,129,112.8z"/>
	<path class="st0" d="M383.3,112.9c-2.3-2-5.6-3.5-6.3-5.8c-0.7-2.5,0-6.5,1.7-8.5c5.5-6.4,11.8-12.2,17.8-18.2c4-4,7.9-8.1,12-12
		c3.8-3.7,8.4-3.8,11.5-0.6c3.1,3.1,2.9,7.7-0.9,11.4c-9.7,9.8-19.4,19.6-29.4,29.3C388.2,110.2,386,111.1,383.3,112.9z"/>
	<path class="st0" d="M53.6,239.2c-7,0-14,0.1-21,0c-5-0.1-8.3-3-8.5-7.3c-0.2-4.4,3.4-7.8,8.5-7.8c14.2-0.1,28.3-0.1,42.5,0
		c5,0,8.1,3.2,8.1,7.6c0,4.6-3,7.4-8.1,7.4C67.9,239.3,60.7,239.2,53.6,239.2z"/>
	<path class="st0" d="M458.4,224.1c6.8,0,13.7-0.1,20.5,0c5.5,0.1,9.1,3.3,9,7.8c-0.2,4.4-3.5,7.3-9,7.3c-13.8,0.1-27.7,0.1-41.4,0
		c-5.6,0-8.6-2.7-8.6-7.4c0-4.6,3.2-7.5,8.6-7.6C444.4,224,451.4,224.1,458.4,224.1z"/>
	<path class="st0" d="M185.9,40.8c1,0.9,3.8,2.2,4.9,4.3c2.6,5.3,4.6,10.9,6.6,16.6c1.4,4.1-0.6,7.3-4.2,9c-3.7,1.7-7.5,1-9.4-3
		c-2.6-5.8-5.1-11.8-7-18C175.4,44.8,179.3,40.7,185.9,40.8z"/>
	<path class="st0" d="M323.4,71.3c-6.5,0.2-10.5-4.6-8.9-9.4c1.8-5.7,4.2-11.1,6.5-16.6c1.8-4.2,5.4-5.3,9.5-4.1
		c3.8,1,5.8,5.1,4.5,9.3c-1.8,5.7-3.8,11.3-6.5,16.6C327.4,69.2,324.5,70.4,323.4,71.3z"/>
	<path class="st0" d="M95.8,164.3c0.1,6.2-4.6,10.2-9.1,8.9c-6-1.8-11.9-4.1-17.6-6.9c-3.6-1.8-4.9-5.5-3-9.4c1.8-3.7,4.9-5.5,9-4.1
		c5.4,1.9,11,3.8,16.2,6.4C93.5,160.3,94.9,163.2,95.8,164.3z"/>
	<path class="st0" d="M422.9,174.7c-2.2-2.5-5.4-4.5-6-7c-0.5-2.4,1.1-6.7,3.1-7.8c5.6-3.1,11.8-5.3,17.9-7.2c3.5-1.1,7,1,7.8,4.4
		c0.6,2.6-0.1,7.3-1.8,8.2C437.7,168.9,430.7,171.4,422.9,174.7z"/>
</g>
</svg>
