<?xml version="1.0" encoding="utf-8"?>
<!-- Generator: Adobe Illustrator 27.0.0, SVG Export Plug-In . SVG Version: 6.00 Build 0)  -->
<svg version="1.1" id="圖層_1" xmlns="http://www.w3.org/2000/svg" xmlns:xlink="http://www.w3.org/1999/xlink" x="0px" y="0px"
	 viewBox="0 0 64 64" style="enable-background:new 0 0 64 64;" xml:space="preserve">
<style type="text/css">
	.st0{fill:#CDCDCD;}
</style>
<g>
	<path class="st0" d="M24.56,61.78c0-5,0-9.9,0-14.86c0.7,0,1.37,0,2.09,0c0,5.64,0,11.28,0,17.07c-1.49-0.08-3,0.01-4.43-0.26
		c-2.4-0.46-4.04-2.65-4.04-5.1c-0.01-3.57-0.03-7.14,0.02-10.72c0.01-1.01,0.23-2.01,0.36-3.07c-0.02-0.01-0.14-0.07-0.26-0.07
		c-3.11,0.01-6.22-0.12-9.31,0.08c-3.75,0.25-6.51,3.16-6.74,6.92c-0.11,1.9-0.08,3.82,0.12,5.71c0.21,2.07,2.13,3.87,4.09,4.11
		c0-3.82,0-7.63,0-11.49c0.71,0,1.38,0,2.11,0c0,3.85,0,7.7,0,11.63c3.21,0,6.37,0,9.57,0c0,0.75,0,1.42,0,2.11
		c-0.07,0.02-0.13,0.06-0.19,0.06c-3.62,0-7.23,0.06-10.85-0.02c-3.59-0.08-6.75-3.05-6.97-6.63c-0.14-2.23-0.13-4.49,0.12-6.7
		c0.45-3.94,4.03-7.39,7.97-7.8c1.82-0.19,3.67-0.14,5.51-0.14c1.91,0,3.81,0.08,5.72,0.1c0.16,0,0.37-0.13,0.47-0.26
		c2.08-2.85,4.9-4.16,8.41-4.11c2.6,0.04,5.19,0,7.79,0.01c3.3,0.01,5.96,1.34,7.93,3.99c0.23,0.31,0.43,0.42,0.82,0.35
		c0.5-0.08,1.01-0.09,1.52-0.09c2.62-0.01,5.24-0.01,7.85,0c5.51,0.01,9.73,4.23,9.74,9.73c0,1.42,0.01,2.84,0,4.26
		c-0.02,3.87-3.16,7.21-7.02,7.3c-3.66,0.08-7.32,0.02-11.03,0.02c0-0.69,0-1.36,0-2.11c3.14,0,6.3,0,9.51,0c0-3.93,0-7.78,0-11.68
		c0.72,0,1.39,0,2.13,0c0,3.83,0,7.65,0,11.49c1.89-0.21,3.87-1.89,4.07-3.91c0.23-2.34,0.31-4.77-0.06-7.08
		c-0.55-3.45-3.45-5.71-7.03-5.83c-2.88-0.09-5.77-0.02-8.65-0.02c-0.15,0-0.3,0.05-0.4,0.06c0.73,4.69,0.27,9.39,0.35,14.07
		c0.04,2.57-2.29,4.89-4.86,5c-1.17,0.05-2.35,0.01-3.58,0.01c0-5.65,0-11.29,0-16.98c0.65,0,1.33,0,2.05,0c0,4.93,0,9.84,0,14.74
		c2.23,0.59,4.26-0.88,4.28-3.11c0.03-3.57,0.05-7.15-0.01-10.72c-0.06-3.95-3.03-7.07-7.11-7.28c-3.14-0.16-6.3-0.14-9.44,0.04
		c-3.84,0.22-6.72,3.25-6.83,7.11c-0.11,3.66-0.06,7.32-0.02,10.98c0.02,1.79,1.45,3.08,3.25,3.1
		C23.88,61.78,24.18,61.78,24.56,61.78z"/>
	<path class="st0" d="M6.44,33.1c0,0.66,0,1.32,0,1.97c-1.49,0.23-3.12-1.16-3.15-2.79c-0.05-2.33-0.04-4.66,0-6.99
		c0.03-1.57,1.49-2.9,3.15-2.92c1.35-0.02,2.7,0,4.05,0c0.6-1.42,1.18-2.82,1.8-4.29c-0.86-0.85-1.78-1.75-2.68-2.66
		c-1.53-1.54-1.52-3.38,0.02-4.92c1.36-1.37,2.73-2.73,4.09-4.09c1.55-1.54,3.43-1.54,4.99,0c0.77,0.76,1.55,1.53,2.3,2.31
		c0.26,0.28,0.47,0.34,0.85,0.17c1.08-0.51,2.18-0.97,3.3-1.39c0.39-0.15,0.5-0.32,0.49-0.71c-0.02-1.2-0.01-2.4-0.01-3.59
		c0.01-1.76,1.39-3.16,3.16-3.18c2.15-0.02,4.3-0.02,6.46,0c1.77,0.02,3.14,1.42,3.15,3.19c0.01,1.22,0.01,2.44-0.01,3.66
		c-0.01,0.34,0.11,0.49,0.44,0.61c1.15,0.45,2.3,0.92,3.42,1.43C42.6,9.07,42.77,9,43,8.76c0.79-0.81,1.59-1.61,2.4-2.4
		c1.5-1.47,3.4-1.47,4.89,0.01c1.42,1.4,2.83,2.81,4.23,4.24c1.41,1.43,1.41,3.29,0,4.73c-0.92,0.93-1.86,1.84-2.77,2.75
		c0.6,1.44,1.19,2.84,1.8,4.3c1.25,0,2.56,0,3.87,0c1.99,0.01,3.35,1.36,3.35,3.33c0,2.13,0.01,4.26,0,6.39
		c-0.01,1.71-1.46,3.09-3.15,3.03c0-0.66,0-1.32,0-2.04c0.93-0.2,1.06-0.9,1.04-1.75c-0.03-1.8-0.01-3.59-0.01-5.39
		c0-1.03-0.37-1.41-1.4-1.42c-1.64-0.01-3.28,0.01-4.92-0.02c-0.2,0-0.54-0.18-0.58-0.33c-0.57-2.25-1.46-4.36-2.76-6.39
		c1.13-1.11,2.24-2.21,3.35-3.32c1.44-1.44,1.44-1.55,0.02-2.97c-1.19-1.19-2.38-2.39-3.57-3.58c-0.69-0.68-1.2-0.69-1.88-0.01
		c-1.18,1.17-2.36,2.34-3.53,3.53c-0.26,0.26-0.45,0.34-0.79,0.13c-1.93-1.22-4.02-2.04-6.31-2.57c0-0.39,0-0.78,0-1.17
		c0-1.46,0.01-2.93,0-4.39c-0.01-0.83-0.4-1.26-1.21-1.27c-2.04-0.02-4.08-0.02-6.12,0c-0.8,0.01-1.18,0.45-1.19,1.28
		c-0.01,1.6,0,3.19,0,4.79c0,0.24,0,0.48,0,0.67c-1.22,0.41-2.39,0.75-3.5,1.21c-1.1,0.46-2.14,1.05-3.3,1.63
		c-0.71-0.72-1.45-1.48-2.2-2.23c-0.58-0.58-1.15-1.17-1.75-1.74c-0.52-0.5-1.09-0.52-1.59-0.03c-1.49,1.46-2.96,2.94-4.42,4.42
		c-0.51,0.52-0.48,1.09,0.06,1.64c1.14,1.15,2.28,2.3,3.44,3.43c0.17,0.17,0.39,0.29,0.49,0.36c-0.72,1.59-1.4,3-2.01,4.44
		c-0.27,0.63-0.45,1.3-0.6,1.96c-0.09,0.42-0.28,0.52-0.67,0.52c-1.6-0.02-3.19-0.01-4.79-0.01c-1.17,0-1.51,0.35-1.51,1.5
		c0,1.84,0,3.68,0,5.52C5.39,32.51,5.54,32.73,6.44,33.1z"/>
	<path class="st0" d="M46.97,28.77c-0.78,0-1.43,0-2.15,0c-0.18-4.38-1.95-7.94-5.56-10.49c-2.32-1.63-4.94-2.35-7.77-2.25
		c-6.32,0.23-12.07,5.31-12.31,12.71c-0.65,0-1.31,0-2.09,0c0.11-4.8,1.99-8.73,5.74-11.71c4.7-3.74,11.28-4.26,16.48-1.25
		C44.25,18.63,46.71,23.01,46.97,28.77z"/>
	<path class="st0" d="M31.97,37.3c-3.6-0.03-6.37-2.88-6.34-6.53c0.03-3.46,2.97-6.3,6.5-6.26c3.51,0.04,6.3,2.95,6.28,6.55
		C38.38,34.52,35.48,37.33,31.97,37.3z M31.97,35.16c2.36,0.01,4.29-1.88,4.31-4.23c0.01-2.3-1.89-4.22-4.21-4.27
		c-2.31-0.05-4.3,1.91-4.31,4.24C27.75,33.21,29.67,35.14,31.97,35.16z"/>
	<path class="st0" d="M13.86,41.56c-3.6-0.03-6.36-2.89-6.34-6.54c0.03-3.46,2.98-6.3,6.51-6.25c3.51,0.04,6.3,2.96,6.27,6.55
		C20.27,38.78,17.37,41.59,13.86,41.56z M13.88,39.42c2.36,0.01,4.29-1.9,4.29-4.24c0-2.3-1.91-4.22-4.23-4.25
		c-2.32-0.03-4.29,1.93-4.29,4.26C9.66,37.49,11.57,39.41,13.88,39.42z"/>
	<path class="st0" d="M50.07,41.56c-3.63-0.04-6.37-2.91-6.33-6.61c0.04-3.41,3.01-6.23,6.51-6.18c3.54,0.05,6.31,2.98,6.26,6.63
		C56.47,38.8,53.55,41.59,50.07,41.56z M50.07,39.42c2.36,0.02,4.3-1.87,4.31-4.22c0.02-2.32-1.95-4.29-4.27-4.27
		c-2.31,0.01-4.23,1.93-4.24,4.23C45.85,37.46,47.77,39.4,50.07,39.42z"/>
	<path class="st0" d="M36.25,61.83c0,0.71,0,1.37,0,2.06c-2.81,0-5.6,0-8.43,0c0-0.66,0-1.34,0-2.06
		C30.6,61.83,33.4,61.83,36.25,61.83z"/>
</g>
</svg>
