<?xml version="1.0" encoding="UTF-8"?>
<svg id="_圖層_1" data-name="圖層 1" xmlns="http://www.w3.org/2000/svg" xmlns:xlink="http://www.w3.org/1999/xlink" viewBox="0 0 256 256">
  <defs>
    <style>
      .cls-1 {
        fill: #fff;
      }

      .cls-2 {
        fill: #235d84;
      }

      .cls-3 {
        isolation: isolate;
      }

      .cls-4 {
        clip-path: url(#clippath-1);
      }

      .cls-5 {
        clip-path: url(#clippath);
      }

      .cls-6 {
        fill: #256599;
      }
    </style>
    <clipPath id="clippath">
      <path class="cls-2" d="M128,174.02v49.88C57.31,223.9,0,195.25,0,159.9v-49.88c0,35.35,57.31,64,128,64Z"/>
    </clipPath>
    <clipPath id="clippath-1">
      <path class="cls-2" d="M256,110.02v49.88c0,35.35-57.31,64-128,64v-49.88c70.69,0,128-28.65,128-64Z"/>
    </clipPath>
  </defs>
  <g class="cls-3">
    <g>
      <path class="cls-2" d="M128,174.02v49.88C57.31,223.9,0,195.25,0,159.9v-49.88c0,35.35,57.31,64,128,64Z"/>
      <g class="cls-5">
        <g class="cls-3">
          <path class="cls-2" d="M128,174.02v49.88c-1.1,0-2.2,0-3.29-.02v-49.88c1.09,.01,2.19,.02,3.29,.02"/>
          <path class="cls-2" d="M124.71,174v49.88c-3.68-.05-7.33-.17-10.92-.37v-49.88c3.6,.2,7.24,.32,10.92,.37"/>
          <path class="cls-2" d="M113.79,173.63v49.88c-3.53-.2-7.02-.46-10.46-.8v-49.88c3.44,.34,6.93,.6,10.46,.8"/>
          <path class="cls-2" d="M103.33,172.83v49.88c-3.47-.34-6.89-.75-10.26-1.22v-49.88c3.37,.48,6.79,.89,10.26,1.22"/>
          <path class="cls-2" d="M93.07,171.61v49.88c-3.5-.5-6.95-1.06-10.32-1.7v-49.88c3.37,.64,6.82,1.21,10.32,1.7"/>
          <path class="cls-2" d="M82.75,169.91v49.88c-3.63-.69-7.19-1.45-10.66-2.3v-49.88c3.47,.84,7.02,1.61,10.66,2.3"/>
          <path class="cls-2" d="M72.09,167.61v49.88c-3.9-.95-7.69-1.99-11.35-3.13v-49.88c3.66,1.13,7.45,2.18,11.35,3.13"/>
          <path class="cls-2" d="M60.74,164.48v49.88c-4.69-1.45-9.18-3.05-13.45-4.79v-49.88c4.26,1.73,8.75,3.33,13.45,4.79"/>
          <path class="cls-2" d="M47.29,159.7v49.88C18.44,197.84,0,179.95,0,159.9v-49.88c0,20.05,18.44,37.94,47.29,49.68"/>
        </g>
      </g>
    </g>
    <g>
      <path class="cls-2" d="M256,110.02v49.88c0,35.35-57.31,64-128,64v-49.88c70.69,0,128-28.65,128-64Z"/>
      <g class="cls-4">
        <g class="cls-3">
          <path class="cls-2" d="M256,110.02v49.88c0,.25,0,.5,0,.75v-49.88c0-.25,0-.5,0-.75"/>
          <path class="cls-2" d="M255.99,110.77v49.88c-.04,1.86-.24,3.7-.6,5.52v-49.88c.35-1.82,.56-3.66,.6-5.52"/>
          <path class="cls-2" d="M255.39,116.29v49.88c-.34,1.77-.83,3.52-1.46,5.25v-49.88c.63-1.73,1.12-3.48,1.46-5.25"/>
          <path class="cls-2" d="M253.93,121.54v49.88c-.63,1.74-1.4,3.45-2.31,5.13v-49.88c.91-1.68,1.68-3.4,2.31-5.13"/>
          <path class="cls-2" d="M251.62,126.68v49.88c-.94,1.75-2.02,3.46-3.24,5.15v-49.88c1.22-1.68,2.3-3.4,3.24-5.15"/>
          <path class="cls-2" d="M248.38,131.83v49.88c-1.31,1.81-2.77,3.57-4.39,5.3v-49.88c1.62-1.73,3.08-3.49,4.39-5.3"/>
          <path class="cls-2" d="M243.99,137.12v49.88c-1.81,1.93-3.8,3.81-5.98,5.63v-49.88c2.17-1.82,4.17-3.7,5.98-5.63"/>
          <path class="cls-2" d="M238.01,142.76v49.88c-2.68,2.25-5.63,4.41-8.83,6.47v-49.88c3.2-2.06,6.14-4.22,8.83-6.47"/>
          <path class="cls-2" d="M229.19,149.22v49.88c-5.23,3.37-11.12,6.47-17.58,9.26v-49.88c6.45-2.79,12.34-5.89,17.58-9.26"/>
          <path class="cls-2" d="M211.61,158.48v49.88c-7.39,3.19-15.52,5.97-24.25,8.25v-49.88c8.72-2.29,16.85-5.06,24.25-8.25"/>
          <path class="cls-2" d="M187.36,166.74v49.88c-7.35,1.93-15.12,3.51-23.23,4.7v-49.88c8.11-1.19,15.88-2.77,23.23-4.7"/>
          <path class="cls-2" d="M164.14,171.44v49.88c-4.94,.73-10,1.31-15.17,1.73v-49.88c5.17-.43,10.23-1.01,15.17-1.73"/>
          <path class="cls-2" d="M148.97,173.17v49.88c-4.14,.34-8.34,.58-12.6,.72v-49.88c4.26-.14,8.46-.38,12.6-.72"/>
          <path class="cls-2" d="M136.37,173.89v49.88c-2.77,.09-5.56,.13-8.37,.13v-49.88c2.81,0,5.6-.05,8.37-.13"/>
        </g>
      </g>
    </g>
    <path class="cls-6" d="M128,174.02v-64s0,64,0,64c-70.69,0-128-28.65-128-64s57.31-64,128-64c70.69,0,128,28.65,128,64s-57.31,64-128,64Z"/>
  </g>
  <g>
    <path class="cls-1" d="M110.14,120.39h-11.74v-2.01h4.75v-16.44l-4.87,1.47v-2.17l7.13-2.23v19.37h4.74v2.01Z"/>
    <path class="cls-1" d="M113.12,110.36c0-3.69,.6-6.48,1.8-8.38s2.94-2.85,5.2-2.85c4.35,0,6.52,3.57,6.52,10.72,0,3.47-.6,6.16-1.79,8.05s-2.93,2.84-5.2,2.84c-2.12,0-3.74-.91-4.86-2.73s-1.67-4.37-1.67-7.65Zm2.29-.12c0,5.72,1.49,8.59,4.48,8.59s4.44-2.9,4.44-8.71-1.44-9.06-4.33-9.06c-3.06,0-4.59,3.06-4.59,9.18Z"/>
    <path class="cls-1" d="M129.15,110.36c0-3.69,.6-6.48,1.8-8.38s2.94-2.85,5.2-2.85c4.35,0,6.52,3.57,6.52,10.72,0,3.47-.6,6.16-1.79,8.05s-2.93,2.84-5.2,2.84c-2.12,0-3.74-.91-4.86-2.73s-1.67-4.37-1.67-7.65Zm2.29-.12c0,5.72,1.49,8.59,4.48,8.59s4.44-2.9,4.44-8.71-1.44-9.06-4.33-9.06c-3.06,0-4.59,3.06-4.59,9.18Z"/>
    <path class="cls-1" d="M145.05,104.73c0-1.71,.45-3.06,1.36-4.06s2.12-1.5,3.65-1.5,2.63,.47,3.45,1.4,1.24,2.22,1.24,3.87-.46,2.97-1.37,3.99-2.12,1.53-3.61,1.53-2.58-.48-3.44-1.44-1.28-2.22-1.28-3.79Zm1.88-.13c0,1.2,.27,2.13,.8,2.8s1.26,1.01,2.18,1.01,1.66-.34,2.19-1.03,.78-1.64,.78-2.87-.26-2.14-.78-2.81-1.23-1-2.14-1-1.66,.36-2.21,1.07-.82,1.66-.82,2.83Zm16.75-5.12l-13.39,21.07h-2l13.39-21.07h2Zm-6.2,16.01c0-1.7,.45-3.06,1.35-4.08s2.11-1.53,3.63-1.53,2.61,.47,3.44,1.42,1.24,2.25,1.24,3.93-.46,2.97-1.38,3.98-2.12,1.51-3.58,1.51-2.55-.48-3.41-1.43-1.29-2.22-1.29-3.79Zm1.85-.12c0,1.17,.27,2.09,.82,2.77s1.27,1.01,2.17,1.01,1.66-.35,2.19-1.05,.78-1.65,.78-2.87-.26-2.15-.77-2.79-1.22-.97-2.13-.97c-.95,0-1.7,.35-2.24,1.05s-.81,1.65-.81,2.85Z"/>
  </g>
</svg>