<?xml version="1.0" encoding="utf-8"?>
<!-- Generator: Adobe Illustrator 27.0.0, SVG Export Plug-In . SVG Version: 6.00 Build 0)  -->
<svg version="1.1" id="圖層_1" xmlns="http://www.w3.org/2000/svg" xmlns:xlink="http://www.w3.org/1999/xlink" x="0px" y="0px"
	 viewBox="0 0 256 256" style="enable-background:new 0 0 256 256;" xml:space="preserve">
<style type="text/css">
	.st0{fill:#798E99;}
	.st1{fill:#89A1AF;}
	.st2{enable-background:new    ;}
	.st3{clip-path:url(#SVGID_00000131368569421142371110000006689320881333811854_);enable-background:new    ;}
	.st4{clip-path:url(#SVGID_00000068672438494865547290000001636054330348724651_);enable-background:new    ;}
	.st5{fill:#235D84;}
	.st6{clip-path:url(#SVGID_00000058575146993139867930000015153681986592738207_);enable-background:new    ;}
	.st7{fill:#256599;}
	.st8{fill:#FFFFFF;}
	.st9{clip-path:url(#SVGID_00000171682382233124105620000011430531126345709965_);enable-background:new    ;}
	.st10{clip-path:url(#SVGID_00000124876441440872317540000010790326460106872458_);enable-background:new    ;}
	.st11{clip-path:url(#SVGID_00000152944450454105987580000016615506010426875556_);enable-background:new    ;}
	.st12{clip-path:url(#SVGID_00000124123819591064421040000000527243511315304376_);enable-background:new    ;}
	.st13{clip-path:url(#SVGID_00000111190135787950570850000018163642571657573774_);enable-background:new    ;}
	.st14{fill:#2E7EAA;}
	.st15{fill:#3387C1;}
	.st16{clip-path:url(#SVGID_00000081648732661505670260000015251702495951324601_);enable-background:new    ;}
	.st17{clip-path:url(#SVGID_00000172406863613933286530000011302399033439125406_);enable-background:new    ;}
	.st18{fill:#C4BE49;}
	.st19{fill:#D8D84A;}
	.st20{fill:#25628C;}
	.st21{clip-path:url(#SVGID_00000178925869800117118450000017142490767505821060_);enable-background:new    ;}
	.st22{clip-path:url(#SVGID_00000124874799481388190640000008398768846287063938_);enable-background:new    ;}
	.st23{clip-path:url(#SVGID_00000146489678846177101700000002239640490961754813_);enable-background:new    ;}
	.st24{clip-path:url(#SVGID_00000060014511558880007510000017842127697318834581_);enable-background:new    ;}
	.st25{clip-path:url(#SVGID_00000155121981312731675360000018098514909945234337_);enable-background:new    ;}
	.st26{clip-path:url(#SVGID_00000055683247126056585150000010153034001335111835_);enable-background:new    ;}
	.st27{fill:#54B244;}
	.st28{fill:#59C64A;}
	.st29{clip-path:url(#SVGID_00000067237262508431832510000013812003576270378641_);enable-background:new    ;}
	.st30{clip-path:url(#SVGID_00000022546745709249023760000007233270622658802852_);enable-background:new    ;}
	.st31{clip-path:url(#SVGID_00000137820359198543414130000008355419560220602028_);enable-background:new    ;}
	.st32{clip-path:url(#SVGID_00000023241563236047785800000004019350304715794620_);enable-background:new    ;}
	.st33{clip-path:url(#SVGID_00000050658529915125489350000011438378919297667497_);enable-background:new    ;}
	.st34{clip-path:url(#SVGID_00000059304243876847543200000011781381284795730611_);enable-background:new    ;}
</style>
<g>
	<g>
		<polygon class="st0" points="-128.12,-897 -128.12,-847.07 -167.67,-908.01 -167.67,-957.94 		"/>
	</g>
	<g>
		<path class="st1" d="M-128.12-961.08V-897l-39.55-60.94C-154.23-960.13-142.26-961.08-128.12-961.08z"/>
	</g>
</g>
<g>
	<g>
		<path class="st1" d="M-469.1-732.94c31,0,56.18,4.47,80.28,14.25l-80.28,49.71V-732.94z"/>
	</g>
	<g>
		<polygon class="st0" points="-388.83,-718.69 -388.83,-668.94 -469.1,-619.23 -469.1,-668.98 		"/>
	</g>
</g>
<g>
	<g>
		<polygon class="st0" points="-804.69,-713.32 -810.16,-663.05 -866.23,-718.7 -860.76,-768.98 		"/>
	</g>
	<g class="st2">
		<defs>
			<path id="SVGID_1_" class="st2" d="M-679.56-699.78l-5.47,50.28c-2.13,19.64-27.15,36.21-69.06,42.1
				c-2.48,0.35-3.41,0.46-5.94,0.75l5.47-50.28c2.53-0.28,3.46-0.4,5.94-0.75C-706.71-663.57-681.69-680.14-679.56-699.78z"/>
		</defs>
		<use xlink:href="#SVGID_1_"  style="overflow:visible;fill:#798E99;"/>
		<clipPath id="SVGID_00000011020210431261595720000001390399074761729943_">
			<use xlink:href="#SVGID_1_"  style="overflow:visible;"/>
		</clipPath>
		<g style="clip-path:url(#SVGID_00000011020210431261595720000001390399074761729943_);enable-background:new    ;">
			<path class="st0" d="M-679.56-699.78l-5.47,50.28c-0.16,1.44-0.44,2.86-0.84,4.26l5.47-50.28
				C-680-696.92-679.72-698.34-679.56-699.78"/>
			<path class="st0" d="M-680.4-695.51l-5.47,50.28c-0.45,1.58-1.06,3.14-1.81,4.67l5.47-50.28
				C-681.45-692.37-680.85-693.93-680.4-695.51"/>
			<path class="st0" d="M-682.2-690.84l-5.47,50.28c-0.73,1.49-1.61,2.95-2.63,4.38l5.47-50.28
				C-683.82-687.89-682.94-689.35-682.2-690.84"/>
			<path class="st0" d="M-684.83-686.46l-5.47,50.28c-1.02,1.43-2.17,2.83-3.46,4.19l5.47-50.28
				C-687-683.64-685.85-685.03-684.83-686.46"/>
			<path class="st0" d="M-688.29-682.27l-5.47,50.28c-1.32,1.4-2.79,2.75-4.39,4.07l5.47-50.28
				C-691.08-679.52-689.62-680.88-688.29-682.27"/>
			<path class="st0" d="M-692.68-678.2l-5.47,50.28c-1.69,1.39-3.54,2.73-5.54,4.03l5.47-50.28
				C-696.22-675.47-694.38-676.81-692.68-678.2"/>
			<path class="st0" d="M-698.22-674.18l-5.47,50.28c-2.24,1.45-4.66,2.83-7.27,4.14l5.47-50.28
				C-702.88-671.35-700.46-672.73-698.22-674.18"/>
			<path class="st0" d="M-705.49-670.04l-5.47,50.28c-3.11,1.56-6.47,3.02-10.09,4.37l5.47-50.28
				C-711.96-667.02-708.6-668.48-705.49-670.04"/>
			<path class="st0" d="M-715.58-665.67l-5.47,50.28c-6.45,2.4-13.69,4.44-21.68,6.06l5.47-50.28
				C-729.27-661.23-722.03-663.27-715.58-665.67"/>
			<path class="st0" d="M-737.26-659.61l-5.47,50.28c-3.64,0.74-7.42,1.38-11.36,1.94c-2.48,0.35-3.41,0.46-5.94,0.75l5.47-50.28
				c2.53-0.28,3.46-0.4,5.94-0.75C-744.69-658.23-740.9-658.88-737.26-659.61"/>
		</g>
	</g>
	<g>
		<path class="st1" d="M-860.76-768.98c61.86-8.69,137.1,9.18,168.07,39.91c30.96,30.73,5.92,62.69-55.94,71.39
			c-2.48,0.35-3.41,0.46-5.94,0.75l-50.13-56.4L-860.76-768.98z"/>
	</g>
	<g>
		<polygon class="st0" points="-754.56,-656.93 -760.03,-606.65 -810.16,-663.05 -804.69,-713.32 		"/>
	</g>
</g>
<g>
	<g>
		<g class="st2">
			<g>
				<defs>
					<path id="SVGID_00000096042076617270015440000014459508836037857703_" d="M-513.72-886.06v49.88c-70.69,0-128-28.65-128-64
						l0-49.88C-641.72-914.72-584.42-886.06-513.72-886.06z"/>
				</defs>
				<use xlink:href="#SVGID_00000096042076617270015440000014459508836037857703_"  style="overflow:visible;fill:#235D84;"/>
				<clipPath id="SVGID_00000007416506543860818750000014820743177666177167_">
					<use xlink:href="#SVGID_00000096042076617270015440000014459508836037857703_"  style="overflow:visible;"/>
				</clipPath>
				<g style="clip-path:url(#SVGID_00000007416506543860818750000014820743177666177167_);enable-background:new    ;">
					<path class="st5" d="M-513.72-886.06v49.88c-1.1,0-2.2-0.01-3.29-0.02v-49.88C-515.92-886.07-514.82-886.06-513.72-886.06"/>
					<path class="st5" d="M-517.02-886.08v49.88c-3.68-0.05-7.33-0.17-10.92-0.37v-49.88C-524.34-886.25-520.7-886.13-517.02-886.08
						"/>
					<path class="st5" d="M-527.94-886.45v49.88c-3.53-0.2-7.02-0.46-10.46-0.8v-49.88C-534.96-886.92-531.47-886.65-527.94-886.45"
						/>
					<path class="st5" d="M-538.4-887.25v49.88c-3.47-0.34-6.89-0.75-10.26-1.22v-49.88C-545.29-888-541.87-887.59-538.4-887.25"/>
					<path class="st5" d="M-548.66-888.48v49.88c-3.5-0.5-6.95-1.06-10.32-1.7v-49.88C-555.6-889.54-552.16-888.97-548.66-888.48"/>
					<path class="st5" d="M-558.98-890.18v49.88c-3.63-0.69-7.19-1.45-10.66-2.3v-49.88C-566.17-891.63-562.61-890.86-558.98-890.18
						"/>
					<path class="st5" d="M-569.63-892.48v49.88c-3.9-0.95-7.69-1.99-11.35-3.13v-49.88C-577.32-894.47-573.53-893.42-569.63-892.48
						"/>
					<path class="st5" d="M-580.98-895.6v49.88c-4.69-1.45-9.18-3.05-13.45-4.79v-49.88C-590.17-898.65-585.68-897.05-580.98-895.6"
						/>
					<path class="st5" d="M-594.43-900.39v49.88c-28.86-11.73-47.29-29.63-47.29-49.68v-49.88
						C-641.72-930.02-623.29-912.12-594.43-900.39"/>
				</g>
			</g>
			<g>
				<defs>
					<path id="SVGID_00000017493480476448135570000017402295054689788837_" d="M-385.72-950.06v49.88c0,35.35-57.31,64-128,64
						v-49.88C-443.03-886.06-385.72-914.72-385.72-950.06z"/>
				</defs>
				<use xlink:href="#SVGID_00000017493480476448135570000017402295054689788837_"  style="overflow:visible;fill:#235D84;"/>
				<clipPath id="SVGID_00000122702842492761911800000010357430623306700733_">
					<use xlink:href="#SVGID_00000017493480476448135570000017402295054689788837_"  style="overflow:visible;"/>
				</clipPath>
				<g style="clip-path:url(#SVGID_00000122702842492761911800000010357430623306700733_);enable-background:new    ;">
					<path class="st5" d="M-385.72-950.06v49.88c0,0.25,0,0.5-0.01,0.75v-49.88C-385.73-949.56-385.72-949.81-385.72-950.06"/>
					<path class="st5" d="M-385.73-949.31v49.88c-0.04,1.86-0.24,3.7-0.6,5.52v-49.88C-385.98-945.61-385.78-947.45-385.73-949.31"
						/>
					<path class="st5" d="M-386.33-943.79v49.88c-0.34,1.77-0.83,3.52-1.46,5.25v-49.88C-387.17-940.27-386.68-942.02-386.33-943.79
						"/>
					<path class="st5" d="M-387.79-938.54v49.88c-0.63,1.74-1.4,3.45-2.31,5.13v-49.88C-389.2-935.09-388.43-936.8-387.79-938.54"/>
					<path class="st5" d="M-390.1-933.41v49.88c-0.94,1.75-2.02,3.46-3.24,5.15v-49.88C-392.12-929.94-391.04-931.66-390.1-933.41"
						/>
					<path class="st5" d="M-393.34-928.26v49.88c-1.31,1.81-2.77,3.57-4.39,5.3v-49.88C-396.12-924.69-394.65-926.45-393.34-928.26"
						/>
					<path class="st5" d="M-397.73-922.96v49.88c-1.81,1.93-3.8,3.81-5.98,5.63v-49.88C-401.54-919.15-399.54-921.03-397.73-922.96"
						/>
					<path class="st5" d="M-403.71-917.33v49.88c-2.68,2.25-5.63,4.41-8.83,6.47v-49.88C-409.34-912.92-406.39-915.08-403.71-917.33
						"/>
					<path class="st5" d="M-412.54-910.86v49.88c-5.23,3.37-11.12,6.47-17.58,9.26v-49.88
						C-423.66-904.39-417.77-907.49-412.54-910.86"/>
					<path class="st5" d="M-430.11-901.6v49.88c-7.39,3.19-15.52,5.97-24.25,8.25v-49.88C-445.64-895.64-437.51-898.41-430.11-901.6
						"/>
					<path class="st5" d="M-454.36-893.35v49.88c-7.35,1.93-15.12,3.51-23.23,4.7v-49.88
						C-469.48-889.84-461.71-891.42-454.36-893.35"/>
					<path class="st5" d="M-477.59-888.65v49.88c-4.94,0.73-10,1.31-15.17,1.73v-49.88C-487.59-887.34-482.53-887.92-477.59-888.65"
						/>
					<path class="st5" d="M-492.76-886.92v49.88c-4.14,0.34-8.34,0.58-12.6,0.72v-49.88C-501.1-886.34-496.89-886.58-492.76-886.92"
						/>
					<path class="st5" d="M-505.36-886.2v49.88c-2.77,0.09-5.56,0.13-8.37,0.13v-49.88C-510.91-886.06-508.12-886.11-505.36-886.2"
						/>
				</g>
			</g>
			<g>
				<path class="st7" d="M-513.72-886.06v-64V-886.06c-70.69,0-128-28.65-128-64c0-35.35,57.31-64,128-64s128,28.65,128,64
					C-385.72-914.72-443.03-886.06-513.72-886.06z"/>
			</g>
		</g>
	</g>
	<g>
		<path class="st8" d="M-531.58-939.7h-11.74v-2.01h4.75v-16.44l-4.87,1.47v-2.17l7.13-2.23v19.37h4.74V-939.7z"/>
		<path class="st8" d="M-528.6-949.72c0-3.69,0.6-6.48,1.8-8.38c1.2-1.9,2.94-2.85,5.2-2.85c4.35,0,6.52,3.57,6.52,10.72
			c0,3.47-0.6,6.16-1.79,8.05s-2.93,2.84-5.2,2.84c-2.12,0-3.74-0.91-4.86-2.73C-528.04-943.89-528.6-946.44-528.6-949.72z
			 M-526.31-949.85c0,5.72,1.49,8.59,4.48,8.59c2.96,0,4.44-2.9,4.44-8.71c0-6.04-1.44-9.06-4.33-9.06
			C-524.78-959.03-526.31-955.97-526.31-949.85z"/>
		<path class="st8" d="M-512.58-949.72c0-3.69,0.6-6.48,1.8-8.38c1.2-1.9,2.94-2.85,5.2-2.85c4.35,0,6.52,3.57,6.52,10.72
			c0,3.47-0.6,6.16-1.79,8.05c-1.19,1.89-2.93,2.84-5.2,2.84c-2.12,0-3.74-0.91-4.86-2.73
			C-512.02-943.89-512.58-946.44-512.58-949.72z M-510.28-949.85c0,5.72,1.49,8.59,4.48,8.59c2.96,0,4.44-2.9,4.44-8.71
			c0-6.04-1.44-9.06-4.33-9.06C-508.75-959.03-510.28-955.97-510.28-949.85z"/>
		<path class="st8" d="M-496.68-955.35c0-1.71,0.45-3.06,1.36-4.06c0.9-1,2.12-1.5,3.65-1.5c1.48,0,2.63,0.47,3.45,1.4
			s1.24,2.22,1.24,3.87c0,1.64-0.46,2.97-1.37,3.99c-0.91,1.02-2.12,1.53-3.61,1.53c-1.44,0-2.58-0.48-3.44-1.44
			C-496.25-952.53-496.68-953.79-496.68-955.35z M-494.8-955.49c0,1.2,0.27,2.13,0.8,2.8c0.54,0.67,1.26,1.01,2.18,1.01
			c0.94,0,1.66-0.34,2.19-1.03c0.52-0.69,0.78-1.64,0.78-2.87c0-1.21-0.26-2.14-0.78-2.81c-0.52-0.67-1.23-1-2.14-1
			c-0.93,0-1.66,0.36-2.21,1.07C-494.53-957.61-494.8-956.67-494.8-955.49z M-478.05-960.6l-13.39,21.07h-2l13.39-21.07H-478.05z
			 M-484.25-944.6c0-1.7,0.45-3.06,1.35-4.08c0.9-1.02,2.11-1.53,3.63-1.53c1.47,0,2.61,0.47,3.44,1.42s1.24,2.25,1.24,3.93
			c0,1.65-0.46,2.97-1.38,3.98s-2.12,1.51-3.58,1.51c-1.41,0-2.55-0.48-3.41-1.43S-484.25-943.02-484.25-944.6z M-482.4-944.72
			c0,1.17,0.27,2.09,0.82,2.77s1.27,1.01,2.17,1.01c0.94,0,1.66-0.35,2.19-1.05c0.52-0.7,0.78-1.65,0.78-2.87
			c0-1.21-0.26-2.15-0.77-2.79c-0.51-0.65-1.22-0.97-2.13-0.97c-0.95,0-1.7,0.35-2.24,1.05
			C-482.13-946.87-482.4-945.92-482.4-944.72z"/>
	</g>
</g>
<g>
	<g>
		<g class="st2">
			<g class="st2">
				<defs>
					<path id="SVGID_00000042002079968041981770000016152840197141566109_" class="st2" d="M-117.37-605.2l0,43.3
						c-61.37,0-111.13-24.88-111.13-55.56l0-43.3C-228.5-630.08-178.74-605.2-117.37-605.2z"/>
				</defs>
				<use xlink:href="#SVGID_00000042002079968041981770000016152840197141566109_"  style="overflow:visible;fill:#235D84;"/>
				<clipPath id="SVGID_00000097502611667143125050000015751935438157540224_">
					<use xlink:href="#SVGID_00000042002079968041981770000016152840197141566109_"  style="overflow:visible;"/>
				</clipPath>
				<g style="clip-path:url(#SVGID_00000097502611667143125050000015751935438157540224_);enable-background:new    ;">
					<path class="st5" d="M-117.37-605.2v43.3c-0.96,0-1.91-0.01-2.86-0.02v-43.3C-119.28-605.21-118.33-605.2-117.37-605.2"/>
					<path class="st5" d="M-120.23-605.22v43.3c-3.2-0.04-6.36-0.15-9.48-0.32v-43.3C-126.59-605.37-123.43-605.26-120.23-605.22"/>
					<path class="st5" d="M-129.71-605.54v43.3c-3.07-0.17-6.09-0.4-9.08-0.69v-43.3C-135.81-605.94-132.78-605.71-129.71-605.54"/>
					<path class="st5" d="M-138.79-606.24v43.3c-3.01-0.29-5.99-0.65-8.91-1.06v-43.3C-144.78-606.89-141.81-606.53-138.79-606.24"
						/>
					<path class="st5" d="M-147.7-607.3v43.3c-3.04-0.43-6.03-0.92-8.96-1.48v-43.3C-153.73-608.22-150.74-607.73-147.7-607.3"/>
					<path class="st5" d="M-156.66-608.78v43.3c-3.16-0.6-6.24-1.26-9.25-1.99v-43.3C-162.9-610.04-159.82-609.37-156.66-608.78"/>
					<path class="st5" d="M-165.91-610.77v43.3c-3.38-0.82-6.67-1.73-9.86-2.71v-43.3C-172.59-612.5-169.3-611.59-165.91-610.77"/>
					<path class="st5" d="M-175.77-613.49v43.3c-4.07-1.26-7.97-2.65-11.68-4.15v-43.3C-183.74-616.14-179.84-614.75-175.77-613.49"
						/>
					<path class="st5" d="M-187.45-617.64v43.3c-25.05-10.19-41.06-25.72-41.06-43.13v-43.3
						C-228.5-643.36-212.5-627.83-187.45-617.64"/>
				</g>
			</g>
			<g class="st2">
				<defs>
					<path id="SVGID_00000155147441529302415400000010469147186477950634_" class="st2" d="M-6.25-660.77v43.3
						c0,30.69-49.75,55.56-111.12,55.56l0-43.3C-56-605.2-6.25-630.08-6.25-660.77z"/>
				</defs>
				<use xlink:href="#SVGID_00000155147441529302415400000010469147186477950634_"  style="overflow:visible;fill:#235D84;"/>
				<clipPath id="SVGID_00000142137632842079709660000001760321773548050608_">
					<use xlink:href="#SVGID_00000155147441529302415400000010469147186477950634_"  style="overflow:visible;"/>
				</clipPath>
				<g style="clip-path:url(#SVGID_00000142137632842079709660000001760321773548050608_);enable-background:new    ;">
					<path class="st5" d="M-6.25-660.77v43.3c0,0.22,0,0.44-0.01,0.65v-43.3C-6.25-660.33-6.25-660.55-6.25-660.77"/>
					<path class="st5" d="M-6.26-660.11v43.3c-0.04,1.61-0.21,3.21-0.52,4.79v-43.3C-6.47-656.9-6.29-658.5-6.26-660.11"/>
					<path class="st5" d="M-6.78-655.32v43.3c-0.3,1.54-0.72,3.06-1.27,4.56v-43.3C-7.5-652.26-7.07-653.78-6.78-655.32"/>
					<path class="st5" d="M-8.05-650.76v43.3c-0.55,1.51-1.22,2.99-2,4.46v-43.3C-9.26-647.77-8.59-649.25-8.05-650.76"/>
					<path class="st5" d="M-10.05-646.31v43.3c-0.82,1.52-1.76,3.01-2.81,4.47v-43.3C-11.8-643.3-10.86-644.79-10.05-646.31"/>
					<path class="st5" d="M-12.86-641.84v43.3c-1.14,1.57-2.41,3.1-3.81,4.6v-43.3C-15.27-638.74-14-640.27-12.86-641.84"/>
					<path class="st5" d="M-16.68-637.24v43.3c-1.57,1.68-3.3,3.31-5.19,4.89v-43.3C-19.98-633.93-18.25-635.56-16.68-637.24"/>
					<path class="st5" d="M-21.86-632.35v43.3c-2.33,1.95-4.89,3.83-7.66,5.61v-43.3C-26.75-628.52-24.19-630.4-21.86-632.35"/>
					<path class="st5" d="M-29.53-626.73v43.3c-4.54,2.93-9.66,5.62-15.26,8.04v-43.3C-39.18-621.11-34.07-623.81-29.53-626.73"/>
					<path class="st5" d="M-44.79-618.7v43.3c-6.42,2.77-13.48,5.18-21.05,7.17v-43.3C-58.26-613.51-51.2-615.92-44.79-618.7"/>
					<path class="st5" d="M-65.84-611.53v43.3c-6.38,1.67-13.13,3.05-20.17,4.08v-43.3C-78.96-608.48-72.22-609.86-65.84-611.53"/>
					<path class="st5" d="M-86-607.45v43.3c-4.29,0.63-8.68,1.13-13.17,1.5v-43.3C-94.68-606.32-90.29-606.82-86-607.45"/>
					<path class="st5" d="M-99.17-605.95v43.3c-3.59,0.3-7.24,0.51-10.94,0.62v-43.3C-106.41-605.44-102.76-605.65-99.17-605.95"/>
					<path class="st5" d="M-110.11-605.32v43.3c-2.4,0.08-4.82,0.12-7.26,0.12v-43.3C-114.93-605.2-112.51-605.24-110.11-605.32"/>
				</g>
			</g>
			<g>
				<path class="st7" d="M-117.37-605.2v-55.56V-605.2c-61.37,0-111.13-24.88-111.13-55.56c0-30.69,49.76-55.57,111.13-55.57
					S-6.25-691.46-6.25-660.77C-6.25-630.08-56-605.2-117.37-605.2z"/>
			</g>
		</g>
	</g>
	<g>
		<path class="st8" d="M-130.71-649.45h-10.2v-1.75h4.12v-14.27l-4.23,1.28v-1.89l6.19-1.93v16.82h4.11V-649.45z"/>
		<path class="st8" d="M-128.12-658.16c0-3.2,0.52-5.63,1.56-7.28s2.55-2.47,4.52-2.47c3.77,0,5.66,3.1,5.66,9.3
			c0,3.02-0.52,5.35-1.55,6.99s-2.54,2.47-4.52,2.47c-1.84,0-3.25-0.79-4.22-2.37S-128.12-655.31-128.12-658.16z M-126.13-658.27
			c0,4.97,1.3,7.45,3.89,7.45c2.57,0,3.86-2.52,3.86-7.56c0-5.24-1.25-7.86-3.76-7.86C-124.8-666.24-126.13-663.58-126.13-658.27z"
			/>
		<path class="st8" d="M-114.21-658.16c0-3.2,0.52-5.63,1.56-7.28s2.55-2.47,4.52-2.47c3.77,0,5.66,3.1,5.66,9.3
			c0,3.02-0.52,5.35-1.55,6.99s-2.54,2.47-4.52,2.47c-1.84,0-3.25-0.79-4.22-2.37S-114.21-655.31-114.21-658.16z M-112.22-658.27
			c0,4.97,1.3,7.45,3.89,7.45c2.57,0,3.86-2.52,3.86-7.56c0-5.24-1.25-7.86-3.76-7.86C-110.89-666.24-112.22-663.58-112.22-658.27z"
			/>
		<path class="st8" d="M-100.41-663.05c0-1.48,0.39-2.66,1.18-3.53s1.84-1.3,3.17-1.3c1.28,0,2.28,0.4,2.99,1.21
			s1.07,1.93,1.07,3.36c0,1.42-0.4,2.58-1.19,3.46s-1.84,1.33-3.13,1.33c-1.25,0-2.24-0.42-2.98-1.25S-100.41-661.69-100.41-663.05z
			 M-98.78-663.17c0,1.04,0.23,1.85,0.7,2.43s1.1,0.87,1.89,0.87c0.81,0,1.45-0.3,1.9-0.9s0.68-1.43,0.68-2.49
			c0-1.05-0.22-1.86-0.67-2.44s-1.07-0.87-1.86-0.87c-0.8,0-1.45,0.31-1.92,0.93S-98.78-664.19-98.78-663.17z M-84.24-667.61
			l-11.62,18.29h-1.73l11.62-18.29H-84.24z M-89.62-653.71c0-1.48,0.39-2.66,1.17-3.54s1.83-1.33,3.15-1.33
			c1.27,0,2.27,0.41,2.99,1.23s1.08,1.96,1.08,3.41c0,1.43-0.4,2.58-1.2,3.46s-1.84,1.31-3.11,1.31c-1.23,0-2.21-0.41-2.96-1.24
			S-89.62-652.34-89.62-653.71z M-88.01-653.81c0,1.02,0.24,1.82,0.71,2.4s1.1,0.88,1.88,0.88c0.81,0,1.45-0.3,1.9-0.91
			s0.68-1.44,0.68-2.49s-0.22-1.86-0.67-2.43s-1.06-0.84-1.85-0.84c-0.83,0-1.48,0.3-1.95,0.91S-88.01-654.86-88.01-653.81z"/>
	</g>
</g>
<g>
	<g>
		<g>
			<defs>
				<path id="SVGID_00000173858024098705831560000011322261534966622384_" d="M-0.12-897v49.93c0,35.39-57.31,64.07-128,64.07
					s-128-28.69-128-64.07V-897c0,35.39,57.31,64.07,128,64.07S-0.12-861.62-0.12-897z"/>
			</defs>
			<use xlink:href="#SVGID_00000173858024098705831560000011322261534966622384_"  style="overflow:visible;fill:#235D84;"/>
			<clipPath id="SVGID_00000162320577778146733410000013980205978440148648_">
				<use xlink:href="#SVGID_00000173858024098705831560000011322261534966622384_"  style="overflow:visible;"/>
			</clipPath>
			<g style="clip-path:url(#SVGID_00000162320577778146733410000013980205978440148648_);enable-background:new    ;">
				<path class="st5" d="M-0.12-897v49.93c0,0.25,0,0.5-0.01,0.75v-49.93C-0.13-896.5-0.12-896.75-0.12-897"/>
				<path class="st5" d="M-0.13-896.25v49.93c-0.04,1.86-0.24,3.7-0.6,5.53v-49.93C-0.38-892.55-0.18-894.39-0.13-896.25"/>
				<path class="st5" d="M-0.73-890.73v49.93c-0.34,1.77-0.83,3.53-1.46,5.26v-49.93C-1.56-887.2-1.08-888.95-0.73-890.73"/>
				<path class="st5" d="M-2.19-885.47v49.93c-0.63,1.74-1.4,3.45-2.31,5.14v-49.93C-3.6-882.02-2.82-883.73-2.19-885.47"/>
				<path class="st5" d="M-4.5-880.33v49.93c-0.94,1.75-2.02,3.47-3.24,5.15v-49.93C-6.52-876.86-5.44-878.58-4.5-880.33"/>
				<path class="st5" d="M-7.74-875.18v49.93c-1.31,1.81-2.77,3.58-4.39,5.31v-49.93C-10.52-871.6-9.05-873.37-7.74-875.18"/>
				<path class="st5" d="M-12.13-869.87v49.93c-1.81,1.93-3.8,3.81-5.98,5.64v-49.93C-15.94-866.06-13.94-867.94-12.13-869.87"/>
				<path class="st5" d="M-18.11-864.23v49.93c-2.68,2.25-5.63,4.41-8.83,6.47v-49.93C-23.74-859.82-20.79-861.98-18.11-864.23"/>
				<path class="st5" d="M-26.94-857.76v49.93c-5.23,3.38-11.12,6.48-17.58,9.27v-49.93C-38.06-851.28-32.17-854.38-26.94-857.76"/>
				<path class="st5" d="M-44.51-848.49v49.93c-7.39,3.2-15.52,5.97-24.25,8.26v-49.93C-60.04-842.51-51.91-845.29-44.51-848.49"/>
				<path class="st5" d="M-68.76-840.22v49.93c-7.35,1.93-15.12,3.51-23.23,4.7v-49.93C-83.88-836.71-76.11-838.29-68.76-840.22"/>
				<path class="st5" d="M-91.99-835.52v49.93c-4.94,0.73-10,1.31-15.17,1.73v-49.93C-101.99-834.21-96.93-834.79-91.99-835.52"/>
				<path class="st5" d="M-107.16-833.79v49.93c-4.14,0.34-8.34,0.58-12.6,0.72v-49.93C-115.5-833.2-111.29-833.45-107.16-833.79"/>
				<path class="st5" d="M-119.76-833.07v49.93c-2.77,0.09-5.56,0.13-8.37,0.13c-1.1,0-2.2-0.01-3.29-0.02v-49.93
					c1.09,0.01,2.19,0.02,3.29,0.02C-125.31-832.93-122.52-832.98-119.76-833.07"/>
				<path class="st5" d="M-131.42-832.95v49.93c-3.68-0.05-7.33-0.17-10.92-0.37v-49.93C-138.74-833.12-135.1-833-131.42-832.95"/>
				<path class="st5" d="M-142.34-833.32v49.93c-3.53-0.2-7.02-0.46-10.46-0.8v-49.93C-149.36-833.79-145.87-833.52-142.34-833.32"
					/>
				<path class="st5" d="M-152.8-834.12v49.93c-3.47-0.34-6.89-0.75-10.26-1.23v-49.93C-159.69-834.87-156.27-834.46-152.8-834.12"
					/>
				<path class="st5" d="M-163.06-835.35v49.93c-3.5-0.5-6.95-1.07-10.32-1.7v-49.93C-170-836.41-166.56-835.84-163.06-835.35"/>
				<path class="st5" d="M-173.38-837.05v49.93c-3.63-0.69-7.19-1.46-10.66-2.3v-49.93C-180.57-838.51-177.01-837.74-173.38-837.05"
					/>
				<path class="st5" d="M-184.03-839.35v49.93c-3.9-0.95-7.69-1.99-11.35-3.13v-49.93C-191.72-841.35-187.93-840.3-184.03-839.35"
					/>
				<path class="st5" d="M-195.38-842.48v49.93c-4.69-1.45-9.18-3.05-13.45-4.79v-49.93C-204.57-845.54-200.08-843.93-195.38-842.48
					"/>
				<path class="st5" d="M-208.83-847.27v49.93c-28.86-11.75-47.29-29.66-47.29-49.73V-897
					C-256.12-876.93-237.69-859.02-208.83-847.27"/>
			</g>
		</g>
		<g>
			<path class="st7" d="M-128.12-961.08c70.69,0,128,28.69,128,64.07c0,35.39-57.31,64.07-128,64.07s-128-28.69-128-64.07
				c0-28.31,34.66-52.19,88.45-60.94l39.55,60.94V-961.08z"/>
		</g>
	</g>
	<g>
		<path class="st8" d="M-140.41-860.94c1.18,0.66,2.41,0.99,3.69,0.99c1.9,0,3.38-0.78,4.45-2.33c1.07-1.55,1.61-3.76,1.61-6.63
			c-0.02,0.02-0.04,0.02-0.05,0c-0.9,1.82-2.47,2.73-4.7,2.73c-1.8,0-3.27-0.62-4.41-1.85c-1.14-1.23-1.71-2.79-1.71-4.66
			c0-1.99,0.61-3.65,1.83-4.98c1.22-1.33,2.83-1.99,4.84-1.99c2.1,0,3.7,0.82,4.82,2.47c1.12,1.64,1.67,4.01,1.67,7.09
			c0,3.8-0.73,6.77-2.19,8.89c-1.46,2.13-3.54,3.19-6.24,3.19c-1.39,0-2.59-0.23-3.59-0.7V-860.94z M-139.24-873.03
			c0,1.46,0.38,2.63,1.15,3.51s1.82,1.32,3.16,1.32c1.19,0,2.17-0.39,2.95-1.18c0.78-0.79,1.17-1.74,1.17-2.86
			c0-1.56-0.39-2.86-1.17-3.91s-1.82-1.57-3.11-1.57c-1.21,0-2.21,0.46-2.98,1.37C-138.85-875.45-139.24-874.34-139.24-873.03z"/>
		<path class="st8" d="M-124.53-861.34c1.42,0.93,2.87,1.39,4.35,1.39c1.48,0,2.68-0.43,3.6-1.28c0.93-0.85,1.39-1.98,1.39-3.39
			c0-1.41-0.46-2.51-1.39-3.28c-0.93-0.77-2.26-1.16-4.01-1.16c-0.55,0-1.64,0.05-3.28,0.16v-10.42h10.02v2.05h-7.87v6.27
			c0.78-0.05,1.38-0.07,1.78-0.07c2.2,0,3.92,0.55,5.16,1.66c1.25,1.1,1.87,2.66,1.87,4.66c0,2.08-0.67,3.72-2.02,4.92
			c-1.35,1.2-3.12,1.8-5.32,1.8c-1.93,0-3.35-0.29-4.28-0.86V-861.34z"/>
		<path class="st8" d="M-109.74-874.06c0-1.71,0.45-3.07,1.36-4.07c0.9-1,2.12-1.5,3.65-1.5c1.48,0,2.63,0.47,3.45,1.4
			c0.82,0.93,1.24,2.22,1.24,3.87c0,1.64-0.46,2.97-1.37,3.99c-0.91,1.02-2.12,1.53-3.61,1.53c-1.44,0-2.58-0.48-3.44-1.44
			C-109.32-871.23-109.74-872.49-109.74-874.06z M-107.87-874.2c0,1.2,0.27,2.13,0.8,2.8c0.54,0.67,1.26,1.01,2.18,1.01
			c0.94,0,1.66-0.34,2.19-1.03c0.52-0.69,0.78-1.65,0.78-2.87c0-1.21-0.26-2.14-0.78-2.81c-0.52-0.67-1.23-1-2.14-1
			c-0.93,0-1.66,0.36-2.21,1.07S-107.87-875.38-107.87-874.2z M-91.12-879.32l-13.39,21.1h-2l13.39-21.1H-91.12z M-97.31-863.29
			c0-1.7,0.45-3.07,1.35-4.09c0.9-1.02,2.11-1.53,3.63-1.53c1.47,0,2.61,0.47,3.44,1.42c0.83,0.95,1.24,2.26,1.24,3.93
			c0,1.65-0.46,2.98-1.38,3.99c-0.92,1.01-2.12,1.51-3.58,1.51c-1.41,0-2.55-0.48-3.41-1.43
			C-96.88-860.45-97.31-861.71-97.31-863.29z M-95.46-863.41c0,1.17,0.27,2.09,0.82,2.77s1.27,1.01,2.17,1.01
			c0.94,0,1.66-0.35,2.19-1.05c0.52-0.7,0.78-1.66,0.78-2.87s-0.26-2.15-0.77-2.8c-0.51-0.65-1.22-0.97-2.13-0.97
			c-0.95,0-1.7,0.35-2.24,1.05C-95.19-865.57-95.46-864.62-95.46-863.41z"/>
	</g>
</g>
<g>
	<g>
		<g>
			<defs>
				<path id="SVGID_00000067930380773872084230000006179651516924431780_" d="M-341.54-668.94l0,49.75
					c0,14.14-9.3,28.37-28.43,40.21c-25.21,15.61-62.05,23.71-99.21,23.71c-28.2,0-56.57-4.66-80.19-14.26
					c-31.13-12.64-47.29-31.11-47.29-49.74v-49.75c0,18.63,16.16,37.11,47.29,49.74c23.62,9.59,51.99,14.26,80.19,14.26
					c37.16,0,74.01-8.1,99.21-23.71C-350.84-640.57-341.54-654.8-341.54-668.94z"/>
			</defs>
			<use xlink:href="#SVGID_00000067930380773872084230000006179651516924431780_"  style="overflow:visible;fill:#235D84;"/>
			<clipPath id="SVGID_00000089547503883623844510000015874856276121269937_">
				<use xlink:href="#SVGID_00000067930380773872084230000006179651516924431780_"  style="overflow:visible;"/>
			</clipPath>
			<g style="clip-path:url(#SVGID_00000089547503883623844510000015874856276121269937_);enable-background:new    ;">
				<path class="st5" d="M-341.54-668.94v49.75c0,0.24,0,0.48-0.01,0.72v-49.75C-341.54-668.46-341.54-668.7-341.54-668.94"/>
				<path class="st5" d="M-341.55-668.22v49.75c-0.04,1.83-0.24,3.66-0.59,5.48v-49.75C-341.79-664.57-341.59-666.4-341.55-668.22"
					/>
				<path class="st5" d="M-342.14-662.74V-613c-0.34,1.76-0.82,3.51-1.46,5.25v-49.75C-342.96-659.24-342.48-660.99-342.14-662.74"
					/>
				<path class="st5" d="M-343.59-657.49v49.75c-0.62,1.72-1.39,3.44-2.3,5.14v-49.75C-344.99-654.05-344.22-655.77-343.59-657.49"
					/>
				<path class="st5" d="M-345.9-652.35v49.75c-0.93,1.73-2,3.44-3.22,5.14v-49.75C-347.9-648.91-346.82-650.62-345.9-652.35"/>
				<path class="st5" d="M-349.12-647.21v49.75c-1.28,1.78-2.73,3.53-4.34,5.26v-49.75C-351.85-643.68-350.4-645.44-349.12-647.21"
					/>
				<path class="st5" d="M-353.46-641.95v49.75c-1.79,1.92-3.79,3.82-5.99,5.67v-49.75C-357.25-638.14-355.25-640.03-353.46-641.95"
					/>
				<path class="st5" d="M-359.45-636.28v49.75c-2.64,2.22-5.58,4.39-8.82,6.48v-49.75C-365.03-631.9-362.1-634.06-359.45-636.28"/>
				<path class="st5" d="M-368.27-629.8v49.75c-0.56,0.36-1.12,0.72-1.7,1.07c-4.88,3.02-10.2,5.76-15.86,8.22v-49.75
					c5.67-2.45,10.99-5.19,15.86-8.22C-369.4-629.09-368.83-629.44-368.27-629.8"/>
				<path class="st5" d="M-385.84-620.51v49.75c-7.48,3.24-15.58,5.98-24.1,8.21v-49.75C-401.41-614.53-393.32-617.28-385.84-620.51
					"/>
				<path class="st5" d="M-409.94-612.3v49.75c-7.48,1.96-15.29,3.53-23.31,4.7v-49.75C-425.23-608.77-417.42-610.34-409.94-612.3"
					/>
				<path class="st5" d="M-433.25-607.6v49.75c-4.95,0.72-9.98,1.3-15.06,1.72v-49.75C-443.23-606.3-438.2-606.87-433.25-607.6"/>
				<path class="st5" d="M-448.3-605.88v49.75c-4.19,0.35-8.42,0.59-12.66,0.73v-49.75C-456.72-605.29-452.5-605.53-448.3-605.88"/>
				<path class="st5" d="M-460.96-605.15v49.75c-2.73,0.09-5.48,0.13-8.22,0.13c-1.09,0-2.19-0.01-3.28-0.02v-49.75
					c1.09,0.01,2.19,0.02,3.28,0.02C-466.44-605.02-463.7-605.06-460.96-605.15"/>
				<path class="st5" d="M-472.46-605.04v49.75c-3.6-0.05-7.2-0.17-10.79-0.37v-49.75C-479.66-605.21-476.06-605.09-472.46-605.04"
					/>
				<path class="st5" d="M-483.25-605.41v49.75c-3.48-0.19-6.95-0.46-10.4-0.8v-49.75C-490.2-605.87-486.73-605.6-483.25-605.41"/>
				<path class="st5" d="M-493.65-606.2v49.75c-3.43-0.34-6.84-0.74-10.22-1.22v-49.75C-500.49-606.95-497.08-606.54-493.65-606.2"
					/>
				<path class="st5" d="M-503.87-607.43v49.75c-3.45-0.49-6.87-1.05-10.26-1.69v-49.75C-510.74-608.48-507.32-607.91-503.87-607.43
					"/>
				<path class="st5" d="M-514.13-609.12v49.75c-3.58-0.68-7.11-1.44-10.59-2.29v-49.75C-521.24-610.56-517.7-609.8-514.13-609.12"
					/>
				<path class="st5" d="M-524.72-611.4v49.75c-3.87-0.94-7.67-1.99-11.38-3.14v-49.75C-532.38-613.39-528.58-612.35-524.72-611.4"
					/>
				<path class="st5" d="M-536.1-614.55v49.75c-4.56-1.42-8.99-2.99-13.27-4.73c0,0,0,0,0,0v-49.75c0,0,0,0,0,0
					C-545.09-617.54-540.66-615.96-536.1-614.55"/>
				<path class="st5" d="M-549.37-619.28v49.75c-31.13-12.64-47.29-31.11-47.29-49.74v-49.75
					C-596.66-650.39-580.5-631.92-549.37-619.28"/>
			</g>
		</g>
		<g>
			<path class="st7" d="M-469.1-732.94v63.96l80.28-49.71c54.75,22.23,63.19,62.5,18.86,89.96c-25.21,15.61-62.05,23.71-99.21,23.71
				c-28.2,0-56.57-4.66-80.19-14.26c-54.75-22.23-63.19-62.5-18.86-89.96C-543.4-724.61-508.55-732.94-469.1-732.94z"/>
		</g>
	</g>
	<g>
		<path class="st8" d="M-494.82-640.34c-2.51-1.18-3.76-2.88-3.76-5.09c0-1.53,0.58-2.76,1.75-3.71s2.6-1.42,4.32-1.42
			c1.54,0,2.84,0.44,3.91,1.33c1.07,0.88,1.6,2.04,1.6,3.48c0,2.32-1.29,4.12-3.87,5.41v0.05c3.03,1.15,4.55,3.03,4.55,5.65
			c0,1.78-0.63,3.16-1.89,4.15c-1.26,0.99-2.95,1.48-5.06,1.48c-1.73,0-3.17-0.5-4.33-1.5c-1.16-1-1.74-2.31-1.74-3.92
			c0-2.67,1.51-4.63,4.52-5.86V-640.34z M-493-639.2c-2.69,1.08-4.04,2.63-4.04,4.66c0,1.12,0.4,2,1.21,2.65
			c0.81,0.64,1.83,0.96,3.07,0.96c1.2,0,2.19-0.32,2.97-0.96c0.78-0.64,1.17-1.49,1.17-2.55C-488.62-636.56-490.08-638.15-493-639.2
			z M-489.33-645.46c0-0.99-0.31-1.76-0.93-2.32c-0.62-0.56-1.45-0.84-2.48-0.84c-0.95,0-1.77,0.29-2.47,0.88s-1.05,1.33-1.05,2.23
			c0,1.85,1.14,3.24,3.42,4.19C-490.5-642.31-489.33-643.69-489.33-645.46z"/>
		<path class="st8" d="M-482.36-631.9c1.17,0.66,2.39,0.98,3.67,0.98c1.89,0,3.37-0.77,4.43-2.32c1.07-1.55,1.6-3.75,1.6-6.6
			c-0.02,0.02-0.04,0.02-0.05,0c-0.9,1.81-2.45,2.72-4.67,2.72c-1.79,0-3.25-0.61-4.39-1.84c-1.14-1.23-1.7-2.78-1.7-4.64
			c0-1.98,0.61-3.64,1.82-4.96c1.21-1.32,2.82-1.99,4.81-1.99c2.09,0,3.68,0.82,4.79,2.46s1.66,3.99,1.66,7.06
			c0,3.79-0.73,6.74-2.18,8.86c-1.45,2.12-3.52,3.18-6.21,3.18c-1.39,0-2.58-0.23-3.57-0.7V-631.9z M-481.2-643.95
			c0,1.45,0.38,2.62,1.14,3.49s1.81,1.31,3.14,1.31c1.18,0,2.16-0.39,2.93-1.18s1.16-1.73,1.16-2.85c0-1.55-0.39-2.85-1.16-3.9
			s-1.81-1.57-3.09-1.57c-1.21,0-2.2,0.46-2.97,1.37S-481.2-645.25-481.2-643.95z"/>
		<path class="st8" d="M-467.8-644.97c0-1.71,0.45-3.06,1.35-4.05s2.11-1.49,3.63-1.49c1.47,0,2.61,0.46,3.43,1.39
			c0.82,0.93,1.23,2.21,1.23,3.86c0,1.63-0.45,2.96-1.36,3.98s-2.11,1.53-3.59,1.53c-1.43,0-2.57-0.48-3.42-1.43
			S-467.8-643.41-467.8-644.97z M-465.93-645.11c0,1.19,0.27,2.12,0.8,2.79c0.53,0.67,1.26,1,2.17,1c0.93,0,1.66-0.34,2.17-1.03
			c0.52-0.69,0.78-1.64,0.78-2.86c0-1.2-0.26-2.14-0.77-2.8s-1.22-1-2.13-1c-0.92,0-1.66,0.35-2.2,1.06
			C-465.66-647.23-465.93-646.28-465.93-645.11z M-449.27-650.21l-13.32,21.02h-1.99l13.32-21.02H-449.27z M-455.43-634.24
			c0-1.7,0.45-3.05,1.34-4.07c0.89-1.02,2.1-1.53,3.61-1.53c1.46,0,2.6,0.47,3.42,1.41c0.82,0.94,1.24,2.25,1.24,3.92
			c0,1.64-0.46,2.97-1.38,3.97c-0.92,1.01-2.11,1.51-3.56,1.51c-1.41,0-2.54-0.48-3.39-1.43
			C-455.01-631.41-455.43-632.67-455.43-634.24z M-453.59-634.36c0,1.17,0.27,2.09,0.81,2.76s1.26,1.01,2.15,1.01
			c0.93,0,1.66-0.35,2.17-1.04c0.52-0.7,0.78-1.65,0.78-2.86c0-1.21-0.26-2.14-0.77-2.79c-0.51-0.65-1.22-0.97-2.12-0.97
			c-0.95,0-1.69,0.35-2.23,1.04S-453.59-635.57-453.59-634.36z"/>
	</g>
</g>
<g>
	<g>
		<g>
			<defs>
				<path id="SVGID_00000111185028353474410610000017345871607405863086_" d="M-935.22-676.51l5.47-50.28
					c-0.91,8.39,2.34,17.34,10.27,26.26c27.68,31.15,101.52,50.67,164.91,43.59l-5.47,50.28c-63.4,7.07-137.23-12.45-164.91-43.59
					C-932.87-659.17-936.13-668.12-935.22-676.51z"/>
			</defs>
			<use xlink:href="#SVGID_00000111185028353474410610000017345871607405863086_"  style="overflow:visible;fill:#235D84;"/>
			<clipPath id="SVGID_00000169516144060092911740000011917725774123951261_">
				<use xlink:href="#SVGID_00000111185028353474410610000017345871607405863086_"  style="overflow:visible;"/>
			</clipPath>
			<g style="clip-path:url(#SVGID_00000169516144060092911740000011917725774123951261_);enable-background:new    ;">
				<path class="st5" d="M-754.56-656.93l-5.47,50.28c-0.54,0.06-1.09,0.12-1.63,0.18l5.47-50.28
					C-755.65-656.81-755.1-656.87-754.56-656.93"/>
				<path class="st5" d="M-756.19-656.75l-5.47,50.28c-8.61,0.9-17.4,1.31-26.23,1.27l5.47-50.28
					C-773.59-655.45-764.8-655.86-756.19-656.75"/>
				<path class="st5" d="M-782.42-655.48l-5.47,50.28c-5-0.02-10.02-0.19-15.02-0.49l5.47-50.28
					C-792.44-655.67-787.43-655.5-782.42-655.48"/>
				<path class="st5" d="M-797.45-655.97l-5.47,50.28c-4.19-0.25-8.38-0.6-12.54-1.04l5.47-50.28
					C-805.82-656.57-801.64-656.22-797.45-655.97"/>
				<path class="st5" d="M-809.99-657.01l-5.47,50.28c-3.78-0.4-7.55-0.88-11.28-1.43l5.47-50.28
					C-817.54-657.89-813.77-657.42-809.99-657.01"/>
				<path class="st5" d="M-821.27-658.44l-5.47,50.28c-3.54-0.52-7.05-1.11-10.53-1.76l5.47-50.28
					C-828.32-659.55-824.81-658.97-821.27-658.44"/>
				<path class="st5" d="M-831.8-660.21l-5.47,50.28c-3.41-0.64-6.78-1.34-10.1-2.1l5.47-50.28
					C-838.57-661.54-835.21-660.84-831.8-660.21"/>
				<path class="st5" d="M-841.9-662.3l-5.47,50.28c-3.34-0.76-6.64-1.58-9.88-2.46l5.47-50.28
					C-848.54-663.88-845.24-663.06-841.9-662.3"/>
				<path class="st5" d="M-851.78-664.76l-5.47,50.28c-3.34-0.9-6.63-1.87-9.85-2.89l5.47-50.28
					C-858.41-666.63-855.12-665.66-851.78-664.76"/>
				<path class="st5" d="M-861.63-667.65l-5.47,50.28c-3.42-1.09-6.77-2.24-10.03-3.45l5.47-50.28
					C-868.4-669.89-865.05-668.74-861.63-667.65"/>
				<path class="st5" d="M-871.66-671.11l-5.47,50.28c-3.61-1.35-7.11-2.77-10.49-4.26l5.47-50.28
					C-878.77-673.88-875.27-672.45-871.66-671.11"/>
				<path class="st5" d="M-882.15-675.37l-5.47,50.28c-4.18-1.85-8.17-3.81-11.94-5.88l5.47-50.28
					C-890.32-679.18-886.33-677.22-882.15-675.37"/>
				<path class="st5" d="M-894.08-681.25l-5.47,50.28c-10.41-5.71-19.09-12.19-25.39-19.28c-7.93-8.92-11.19-17.87-10.27-26.26
					l5.47-50.28c-0.91,8.39,2.34,17.34,10.27,26.26C-913.18-693.44-904.49-686.95-894.08-681.25"/>
			</g>
		</g>
		<g>
			<path class="st7" d="M-860.76-768.98l56.07,55.65l50.13,56.4c-63.4,7.07-137.23-12.45-164.91-43.59
				C-946.05-730.42-920.14-760.63-860.76-768.98z"/>
		</g>
	</g>
	<g>
		<path class="st8" d="M-870.01-704.95h-2.65v5.52h-2.2v-5.52h-9.71v-1.46l9.18-13.57h2.73v13.2h2.65V-704.95z M-874.86-706.79
			v-9.05c0-0.63,0.02-1.34,0.05-2.14h-0.05c-0.07,0.19-0.33,0.72-0.78,1.58l-6.46,9.61H-874.86z"/>
		<path class="st8" d="M-866.51-701.94c1.16,0.65,2.37,0.97,3.62,0.97c1.87,0,3.33-0.76,4.38-2.29c1.05-1.53,1.58-3.7,1.58-6.51
			c-0.02,0.02-0.04,0.02-0.05,0c-0.88,1.79-2.42,2.68-4.62,2.68c-1.77,0-3.22-0.61-4.34-1.82c-1.12-1.21-1.69-2.74-1.69-4.58
			c0-1.95,0.6-3.58,1.8-4.89c1.2-1.3,2.78-1.96,4.76-1.96c2.06,0,3.64,0.81,4.74,2.42s1.65,3.93,1.65,6.96
			c0,3.73-0.72,6.64-2.16,8.73c-1.44,2.09-3.48,3.13-6.14,3.13c-1.37,0-2.55-0.23-3.53-0.69V-701.94z M-865.36-713.82
			c0,1.43,0.38,2.58,1.13,3.44s1.79,1.29,3.11,1.29c1.17,0,2.13-0.39,2.9-1.16s1.15-1.71,1.15-2.81c0-1.53-0.38-2.81-1.15-3.84
			s-1.78-1.55-3.06-1.55c-1.19,0-2.17,0.45-2.93,1.35C-864.98-716.19-865.36-715.1-865.36-713.82z"/>
		<path class="st8" d="M-852.12-714.83c0-1.68,0.44-3.01,1.33-3.99c0.89-0.98,2.09-1.47,3.59-1.47c1.45,0,2.58,0.46,3.39,1.37
			c0.81,0.92,1.21,2.18,1.21,3.8c0,1.61-0.45,2.92-1.35,3.92c-0.9,1-2.08,1.51-3.55,1.51c-1.42,0-2.54-0.47-3.38-1.41
			C-851.7-712.05-852.12-713.29-852.12-714.83z M-850.27-714.96c0,1.18,0.26,2.09,0.79,2.75c0.53,0.66,1.24,0.99,2.14,0.99
			c0.92,0,1.64-0.34,2.15-1.02s0.77-1.62,0.77-2.82c0-1.19-0.25-2.11-0.76-2.76c-0.51-0.65-1.21-0.98-2.1-0.98
			c-0.91,0-1.64,0.35-2.18,1.05C-850-717.05-850.27-716.12-850.27-714.96z M-833.8-719.99l-13.16,20.71h-1.96l13.16-20.71H-833.8z
			 M-839.89-704.25c0-1.67,0.44-3.01,1.33-4.01s2.07-1.51,3.57-1.51c1.44,0,2.57,0.46,3.38,1.39c0.81,0.93,1.22,2.22,1.22,3.86
			c0,1.62-0.45,2.92-1.36,3.91c-0.91,0.99-2.08,1.49-3.52,1.49c-1.39,0-2.51-0.47-3.35-1.41S-839.89-702.7-839.89-704.25z
			 M-838.08-704.37c0,1.15,0.27,2.06,0.8,2.72c0.54,0.66,1.25,1,2.13,1c0.92,0,1.64-0.34,2.15-1.03c0.51-0.69,0.77-1.63,0.77-2.82
			s-0.25-2.11-0.76-2.75s-1.2-0.96-2.1-0.96c-0.94,0-1.67,0.34-2.2,1.03C-837.81-706.49-838.08-705.56-838.08-704.37z"/>
	</g>
</g>
<g>
	<g>
		<g>
			<polygon class="st14" points="-526.45,-377.88 -526.45,-328.11 -645.92,-351.04 -645.92,-400.82 			"/>
		</g>
		<g>
			<g>
				<path class="st15" d="M-413.44-347.84l-113.01-30.04l-119.47-22.93c19.53-25.45,68.05-41.08,119.5-41.08
					c15.25,0,30.76,1.37,45.84,4.27c65.99,12.67,98.95,49.68,73.61,82.67C-408.89-352.44-410.92-350.21-413.44-347.84z"/>
			</g>
			<g>
				<defs>
					<path id="SVGID_00000026864780004936291770000011286612076838323374_" d="M-398.43-377.87v49.77c0,7.62-2.75,15.38-8.54,22.92
						c-1.92,2.51-3.95,4.74-6.48,7.11v-49.77c2.52-2.37,4.55-4.6,6.48-7.11C-401.17-362.5-398.43-370.25-398.43-377.87z"/>
				</defs>
				<use xlink:href="#SVGID_00000026864780004936291770000011286612076838323374_"  style="overflow:visible;fill:#2E7EAA;"/>
				<clipPath id="SVGID_00000080924246208272573070000016112015990471000488_">
					<use xlink:href="#SVGID_00000026864780004936291770000011286612076838323374_"  style="overflow:visible;"/>
				</clipPath>
				<g style="clip-path:url(#SVGID_00000080924246208272573070000016112015990471000488_);enable-background:new    ;">
					<path class="st14" d="M-398.43-377.87v49.77c0,0.23,0,0.47-0.01,0.7v-49.77C-398.43-377.4-398.43-377.64-398.43-377.87"/>
					<path class="st14" d="M-398.44-377.17v49.77c-0.04,1.8-0.23,3.61-0.59,5.42v-49.77C-398.67-373.56-398.48-375.36-398.44-377.17
						"/>
					<path class="st14" d="M-399.02-371.74v49.77c-0.34,1.74-0.82,3.48-1.45,5.22v-49.77C-399.84-368.26-399.36-370-399.02-371.74"
						/>
					<path class="st14" d="M-400.47-366.52v49.77c-0.63,1.72-1.4,3.44-2.32,5.16v-49.77C-401.87-363.08-401.1-364.8-400.47-366.52"
						/>
					<path class="st14" d="M-402.79-361.36v49.77c-0.94,1.75-2.04,3.5-3.29,5.23v-49.77C-404.83-357.86-403.73-359.61-402.79-361.36
						"/>
					<path class="st14" d="M-406.09-356.13v49.77c-0.28,0.39-0.58,0.78-0.88,1.18c-1.11,1.45-2.25,2.8-3.51,4.14v-49.77
						c1.25-1.34,2.4-2.69,3.51-4.14C-406.66-355.34-406.37-355.74-406.09-356.13"/>
					<path class="st14" d="M-410.47-350.81v49.77c-0.92,0.99-1.9,1.97-2.97,2.97v-49.77C-412.37-348.85-411.39-349.83-410.47-350.81
						"/>
				</g>
			</g>
		</g>
		<g>
			<polygon class="st14" points="-413.44,-347.84 -413.44,-298.07 -526.45,-328.11 -526.45,-377.88 			"/>
		</g>
	</g>
	<g>
		<path class="st8" d="M-507.5-400.49c1.42,0.92,2.86,1.39,4.34,1.39c1.47,0,2.67-0.42,3.6-1.27c0.92-0.85,1.39-1.97,1.39-3.37
			c0-1.41-0.46-2.5-1.39-3.27c-0.92-0.77-2.26-1.16-4-1.16c-0.55,0-1.64,0.05-3.27,0.16v-10.39h9.99v2.05h-7.85v6.25
			c0.78-0.04,1.37-0.07,1.78-0.07c2.19,0,3.91,0.55,5.15,1.65c1.24,1.1,1.87,2.65,1.87,4.64c0,2.07-0.67,3.71-2.02,4.9
			c-1.35,1.19-3.12,1.79-5.31,1.79c-1.92,0-3.35-0.29-4.27-0.86V-400.49z"/>
		<path class="st8" d="M-479.62-397.54h-11.72v-2.01h4.74v-16.41l-4.86,1.47v-2.17l7.11-2.22v19.33h4.73V-397.54z"/>
		<path class="st8" d="M-476.29-398.79c0-0.44,0.16-0.81,0.47-1.12s0.68-0.46,1.09-0.46c0.43,0,0.8,0.15,1.1,0.46
			c0.31,0.31,0.46,0.68,0.46,1.12c0,0.43-0.15,0.8-0.46,1.11s-0.68,0.46-1.1,0.46c-0.41,0-0.78-0.15-1.09-0.45
			C-476.14-397.96-476.29-398.34-476.29-398.79z"/>
		<path class="st8" d="M-469.03-400.08c1.18,0.66,2.4,0.98,3.68,0.98c1.89,0,3.38-0.77,4.45-2.32c1.07-1.55,1.6-3.75,1.6-6.61
			c-0.02,0.02-0.04,0.02-0.05,0c-0.9,1.81-2.46,2.72-4.69,2.72c-1.8,0-3.26-0.62-4.4-1.85s-1.71-2.78-1.71-4.65
			c0-1.98,0.61-3.64,1.83-4.96s2.83-1.99,4.83-1.99c2.09,0,3.7,0.82,4.81,2.46s1.67,3.99,1.67,7.07c0,3.79-0.73,6.74-2.19,8.86
			s-3.54,3.18-6.23,3.18c-1.39,0-2.59-0.23-3.58-0.7V-400.08z M-467.86-412.14c0,1.45,0.38,2.62,1.14,3.5s1.81,1.31,3.15,1.31
			c1.19,0,2.17-0.39,2.94-1.18c0.78-0.79,1.17-1.74,1.17-2.85c0-1.55-0.39-2.85-1.17-3.9s-1.81-1.57-3.1-1.57
			c-1.21,0-2.2,0.46-2.98,1.37C-467.47-414.55-467.86-413.44-467.86-412.14z"/>
		<path class="st8" d="M-454.42-413.16c0-1.71,0.45-3.06,1.35-4.05c0.9-1,2.12-1.5,3.64-1.5c1.47,0,2.62,0.46,3.44,1.39
			c0.82,0.93,1.23,2.22,1.23,3.86c0,1.63-0.46,2.96-1.37,3.98s-2.11,1.53-3.6,1.53c-1.44,0-2.58-0.48-3.43-1.43
			C-453.99-410.34-454.42-411.6-454.42-413.16z M-452.55-413.3c0,1.19,0.27,2.13,0.8,2.8c0.53,0.67,1.26,1,2.18,1
			c0.93,0,1.66-0.34,2.18-1.03s0.78-1.64,0.78-2.86c0-1.2-0.26-2.14-0.77-2.8s-1.23-1-2.14-1c-0.92,0-1.66,0.35-2.21,1.06
			C-452.27-415.42-452.55-414.47-452.55-413.3z M-435.83-418.4l-13.36,21.03h-1.99l13.36-21.03H-435.83z M-442.01-402.43
			c0-1.7,0.45-3.06,1.35-4.07c0.9-1.02,2.11-1.53,3.62-1.53c1.46,0,2.61,0.47,3.43,1.41c0.83,0.94,1.24,2.25,1.24,3.92
			c0,1.64-0.46,2.97-1.38,3.97c-0.92,1.01-2.11,1.51-3.58,1.51c-1.41,0-2.54-0.48-3.4-1.43
			C-441.58-399.59-442.01-400.85-442.01-402.43z M-440.17-402.55c0,1.17,0.27,2.09,0.81,2.76c0.54,0.67,1.26,1.01,2.16,1.01
			c0.93,0,1.66-0.35,2.18-1.04s0.78-1.65,0.78-2.86c0-1.21-0.26-2.14-0.77-2.79c-0.51-0.65-1.22-0.97-2.13-0.97
			c-0.95,0-1.7,0.35-2.24,1.04C-439.9-404.7-440.17-403.75-440.17-402.55z"/>
	</g>
</g>
<g>
	<g>
		<g>
			<defs>
				<path id="SVGID_00000007399552231037013000000014536576228609546396_" d="M-413.44-347.84v49.77
					c-17.26,16.23-44.38,27.01-79.88,31.77v-49.77C-457.82-320.83-430.7-331.61-413.44-347.84z"/>
			</defs>
			<use xlink:href="#SVGID_00000007399552231037013000000014536576228609546396_"  style="overflow:visible;fill:#C4BE49;"/>
			<clipPath id="SVGID_00000160162453187886145410000000256851182999945384_">
				<use xlink:href="#SVGID_00000007399552231037013000000014536576228609546396_"  style="overflow:visible;"/>
			</clipPath>
			<g style="clip-path:url(#SVGID_00000160162453187886145410000000256851182999945384_);enable-background:new    ;">
				<path class="st18" d="M-413.44-347.84v49.77c-1.09,1.03-2.22,2.03-3.39,3.01v-49.77C-415.66-345.81-414.53-346.81-413.44-347.84
					"/>
				<path class="st18" d="M-416.83-344.83v49.77c-2.81,2.36-5.85,4.6-9.11,6.71v-49.77C-422.68-340.23-419.65-342.46-416.83-344.83"
					/>
				<path class="st18" d="M-425.94-338.12v49.77c-5.08,3.28-10.69,6.25-16.82,8.9v-49.77
					C-436.63-331.87-431.02-334.84-425.94-338.12"/>
				<path class="st18" d="M-442.76-329.22v49.77c-6.98,3.02-14.64,5.62-22.93,7.8v-49.77C-457.4-323.6-449.75-326.2-442.76-329.22"
					/>
				<path class="st18" d="M-465.69-321.42v49.77c-7.65,2.01-15.85,3.65-24.57,4.92v-49.77
					C-481.54-317.77-473.35-319.42-465.69-321.42"/>
				<path class="st18" d="M-490.26-316.5v49.77c-1.01,0.15-2.03,0.29-3.06,0.43v-49.77C-492.3-316.21-491.28-316.35-490.26-316.5"/>
			</g>
		</g>
		<g>
			<path class="st19" d="M-493.32-316.07l-33.12-61.81l113.01,30.04C-430.7-331.61-457.82-320.83-493.32-316.07z"/>
		</g>
		<g>
			<polygon class="st18" points="-493.32,-316.07 -493.32,-266.3 -526.45,-328.11 -526.45,-377.88 			"/>
		</g>
	</g>
	<g>
		<path class="st8" d="M-470.34-329.54h-11.72v-2.01h4.74v-16.41l-4.86,1.47v-2.17l7.11-2.22v19.33h4.73V-329.54z"/>
		<path class="st8" d="M-466.74-332.8c1.43,1.13,3.04,1.7,4.82,1.7c1.44,0,2.61-0.36,3.51-1.09c0.9-0.73,1.35-1.73,1.35-3
			c0-2.78-1.96-4.18-5.89-4.18h-1.72v-1.93h1.64c3.48,0,5.23-1.3,5.23-3.91c0-2.42-1.33-3.62-3.99-3.62c-1.47,0-2.86,0.51-4.15,1.52
			v-2.25c1.33-0.8,2.9-1.2,4.71-1.2c1.65,0,3.02,0.45,4.1,1.36s1.62,2.11,1.62,3.61c0,2.73-1.4,4.5-4.19,5.31v0.05
			c1.48,0.13,2.67,0.65,3.58,1.56c0.9,0.92,1.35,2.06,1.35,3.42c0,1.9-0.68,3.42-2.05,4.55s-3.12,1.7-5.25,1.7
			c-1.96,0-3.52-0.37-4.69-1.12V-332.8z"/>
		<path class="st8" d="M-451.49-345.16c0-1.71,0.45-3.06,1.35-4.05c0.9-1,2.12-1.5,3.64-1.5c1.47,0,2.62,0.46,3.44,1.39
			c0.82,0.93,1.23,2.22,1.23,3.86c0,1.63-0.46,2.96-1.37,3.98c-0.91,1.02-2.11,1.53-3.6,1.53c-1.44,0-2.58-0.48-3.43-1.43
			C-451.07-342.34-451.49-343.6-451.49-345.16z M-449.62-345.3c0,1.19,0.27,2.13,0.8,2.8c0.53,0.67,1.26,1,2.18,1
			c0.93,0,1.66-0.34,2.18-1.03c0.52-0.69,0.78-1.64,0.78-2.86c0-1.2-0.26-2.14-0.77-2.8s-1.23-1-2.14-1c-0.92,0-1.66,0.35-2.21,1.06
			C-449.35-347.42-449.62-346.47-449.62-345.3z M-432.91-350.4l-13.36,21.03h-1.99l13.36-21.03H-432.91z M-439.09-334.43
			c0-1.7,0.45-3.06,1.35-4.07s2.11-1.53,3.62-1.53c1.46,0,2.61,0.47,3.43,1.41c0.83,0.94,1.24,2.25,1.24,3.92
			c0,1.64-0.46,2.97-1.38,3.97c-0.92,1.01-2.11,1.51-3.58,1.51c-1.41,0-2.54-0.48-3.4-1.43
			C-438.66-331.59-439.09-332.86-439.09-334.43z M-437.24-334.55c0,1.17,0.27,2.09,0.81,2.76c0.54,0.67,1.26,1.01,2.16,1.01
			c0.93,0,1.66-0.35,2.18-1.04s0.78-1.65,0.78-2.86s-0.26-2.14-0.77-2.79c-0.51-0.65-1.22-0.97-2.13-0.97
			c-0.95,0-1.7,0.35-2.24,1.04C-436.97-336.7-437.24-335.75-437.24-334.55z"/>
	</g>
</g>
<g>
	<g>
		<g>
			<polygon class="st20" points="171.7,43.09 171.7,92.8 127.98,152.85 127.98,103.14 			"/>
		</g>
		<g>
			<g>
				<path class="st7" d="M127.98,167.05c-70.58,0-127.81-28.61-127.81-63.91c0-35.29,57.23-63.9,127.81-63.9
					c16.1,0,28.6,1.1,43.72,3.85l-43.72,60.05V167.05z"/>
			</g>
			<g class="st2">
				<defs>
					<path id="SVGID_00000042709076058329878580000006020423308406246071_" class="st2" d="M127.98,167.05l0,49.71
						c-70.58,0-127.81-28.61-127.81-63.91l0-49.71C0.17,138.44,57.39,167.05,127.98,167.05z"/>
				</defs>
				<use xlink:href="#SVGID_00000042709076058329878580000006020423308406246071_"  style="overflow:visible;fill:#25628C;"/>
				<clipPath id="SVGID_00000165957106338843004550000015984779538468401833_">
					<use xlink:href="#SVGID_00000042709076058329878580000006020423308406246071_"  style="overflow:visible;"/>
				</clipPath>
				<g style="clip-path:url(#SVGID_00000165957106338843004550000015984779538468401833_);enable-background:new    ;">
					<path class="st20" d="M127.98,167.05v49.71c-1.1,0-2.19-0.01-3.29-0.02v-49.71C125.78,167.05,126.88,167.05,127.98,167.05"/>
					<path class="st20" d="M124.69,167.03v49.71c-3.68-0.05-7.31-0.17-10.91-0.37v-49.71C117.38,166.86,121.01,166.99,124.69,167.03
						"/>
					<path class="st20" d="M113.78,166.66v49.71c-3.53-0.19-7.01-0.46-10.44-0.8v-49.71C106.78,166.2,110.26,166.47,113.78,166.66"
						/>
					<path class="st20" d="M103.34,165.87v49.71c-3.47-0.34-6.88-0.75-10.24-1.22v-49.71C96.46,165.12,99.87,165.53,103.34,165.87"
						/>
					<path class="st20" d="M93.1,164.64v49.71c-3.5-0.5-6.93-1.06-10.3-1.7v-49.71C86.16,163.58,89.6,164.15,93.1,164.64"/>
					<path class="st20" d="M82.79,162.95v49.71c-3.63-0.69-7.18-1.45-10.64-2.29v-49.71C75.62,161.49,79.17,162.26,82.79,162.95"/>
					<path class="st20" d="M72.15,160.65v49.71c-3.89-0.95-7.67-1.99-11.33-3.12v-49.71C64.48,158.66,68.26,159.7,72.15,160.65"/>
					<path class="st20" d="M60.82,157.53v49.71c-4.69-1.45-9.17-3.05-13.43-4.78v-49.71C51.65,154.48,56.13,156.08,60.82,157.53"/>
					<path class="st20" d="M47.39,152.75v49.71c-28.82-11.72-47.23-29.59-47.23-49.61v-49.71C0.17,123.16,18.58,141.03,47.39,152.75
						"/>
				</g>
			</g>
		</g>
	</g>
	<g>
		<path class="st8" d="M14.6,95.03c1.42,0.92,2.86,1.39,4.33,1.39c1.47,0,2.67-0.42,3.59-1.27c0.92-0.85,1.39-1.97,1.39-3.37
			c0-1.41-0.46-2.5-1.39-3.27c-0.92-0.77-2.26-1.16-4-1.16c-0.55,0-1.64,0.05-3.27,0.16V77.13h9.98v2.04h-7.84v6.24
			c0.78-0.04,1.37-0.07,1.78-0.07c2.19,0,3.9,0.55,5.15,1.65c1.24,1.1,1.86,2.64,1.86,4.63c0,2.07-0.67,3.7-2.02,4.9
			c-1.35,1.19-3.11,1.79-5.3,1.79c-1.92,0-3.34-0.29-4.26-0.86V95.03z"/>
		<path class="st8" d="M30.56,95.03c1.42,0.92,2.86,1.39,4.33,1.39c1.47,0,2.67-0.42,3.59-1.27c0.92-0.85,1.39-1.97,1.39-3.37
			c0-1.41-0.46-2.5-1.39-3.27c-0.92-0.77-2.26-1.16-4-1.16c-0.55,0-1.64,0.05-3.27,0.16V77.13h9.98v2.04h-7.84v6.24
			c0.78-0.04,1.37-0.07,1.78-0.07c2.19,0,3.9,0.55,5.15,1.65c1.24,1.1,1.86,2.64,1.86,4.63c0,2.07-0.67,3.7-2.02,4.9
			c-1.35,1.19-3.11,1.79-5.3,1.79c-1.92,0-3.34-0.29-4.26-0.86V95.03z"/>
		<path class="st8" d="M45.76,96.72c0-0.44,0.16-0.81,0.47-1.12c0.31-0.31,0.68-0.46,1.09-0.46c0.43,0,0.8,0.15,1.1,0.46
			c0.3,0.31,0.46,0.68,0.46,1.12c0,0.43-0.15,0.8-0.46,1.11c-0.31,0.31-0.67,0.46-1.1,0.46c-0.41,0-0.78-0.15-1.09-0.45
			S45.76,97.17,45.76,96.72z"/>
		<path class="st8" d="M65.09,77.79l-8.31,20.18h-2.31l7.83-18.79H51.74v-2.04h13.36V77.79z"/>
		<path class="st8" d="M67.61,82.37c0-1.7,0.45-3.05,1.35-4.05c0.9-1,2.11-1.49,3.64-1.49c1.47,0,2.62,0.46,3.44,1.39
			c0.82,0.93,1.23,2.21,1.23,3.85c0,1.63-0.46,2.96-1.37,3.98c-0.91,1.02-2.11,1.53-3.6,1.53c-1.43,0-2.58-0.48-3.42-1.43
			S67.61,83.93,67.61,82.37z M69.48,82.23c0,1.19,0.27,2.12,0.8,2.79c0.53,0.67,1.26,1,2.17,1c0.93,0,1.66-0.34,2.18-1.03
			c0.52-0.69,0.78-1.64,0.78-2.86c0-1.2-0.26-2.13-0.77-2.8s-1.23-1-2.13-1c-0.92,0-1.66,0.35-2.21,1.06
			C69.75,80.12,69.48,81.06,69.48,82.23z M86.17,77.13l-13.34,21h-1.99l13.34-21H86.17z M80,93.09c0-1.69,0.45-3.05,1.35-4.07
			s2.1-1.53,3.62-1.53c1.46,0,2.61,0.47,3.43,1.41c0.83,0.94,1.24,2.25,1.24,3.91c0,1.64-0.46,2.96-1.38,3.97
			c-0.92,1-2.11,1.51-3.57,1.51c-1.41,0-2.54-0.48-3.4-1.43C80.43,95.92,80,94.66,80,93.09z M81.84,92.97
			c0,1.17,0.27,2.09,0.81,2.76c0.54,0.67,1.26,1.01,2.16,1.01c0.93,0,1.66-0.35,2.18-1.04c0.52-0.7,0.78-1.65,0.78-2.86
			c0-1.21-0.26-2.14-0.77-2.78s-1.22-0.97-2.13-0.97c-0.95,0-1.69,0.35-2.23,1.04S81.84,91.77,81.84,92.97z"/>
	</g>
</g>
<g>
	<g>
		<g>
			<polygon class="st14" points="249.54,83.4 249.54,133.1 127.98,152.85 127.98,103.14 			"/>
		</g>
		<g>
			<path class="st15" d="M127.98,103.14l43.72-60.05c37.94,6.91,65.37,21.1,77.85,40.3L127.98,103.14z"/>
		</g>
	</g>
	<g>
		<path class="st8" d="M177.92,78h-11.7v-2h4.74V59.61l-4.86,1.47v-2.17l7.1-2.22v19.3h4.72V78z"/>
		<path class="st8" d="M194.57,72.4h-2.69V78h-2.23v-5.6h-9.85v-1.48l9.31-13.76h2.77v13.38h2.69V72.4z M189.65,70.54v-9.17
			c0-0.64,0.02-1.36,0.05-2.17h-0.05c-0.07,0.2-0.34,0.73-0.79,1.6l-6.55,9.74H189.65z"/>
		<path class="st8" d="M197.21,76.74c0-0.44,0.16-0.81,0.47-1.12s0.68-0.46,1.09-0.46c0.43,0,0.8,0.15,1.1,0.46s0.46,0.68,0.46,1.12
			c0,0.43-0.15,0.8-0.46,1.11s-0.67,0.46-1.1,0.46c-0.41,0-0.78-0.15-1.09-0.45C197.36,77.57,197.21,77.19,197.21,76.74z"/>
		<path class="st8" d="M203.83,74.74c1.43,1.13,3.03,1.69,4.82,1.69c1.43,0,2.6-0.36,3.5-1.09c0.9-0.73,1.35-1.73,1.35-3
			c0-2.78-1.96-4.17-5.88-4.17h-1.72v-1.92h1.64c3.48,0,5.22-1.3,5.22-3.9c0-2.41-1.33-3.62-3.98-3.62c-1.47,0-2.85,0.51-4.14,1.52
			v-2.25c1.33-0.8,2.9-1.2,4.71-1.2c1.65,0,3.02,0.45,4.1,1.36s1.62,2.11,1.62,3.61c0,2.73-1.39,4.49-4.18,5.3v0.05
			c1.48,0.13,2.67,0.65,3.57,1.56c0.9,0.91,1.35,2.05,1.35,3.42c0,1.9-0.68,3.42-2.05,4.55c-1.37,1.13-3.11,1.69-5.24,1.69
			c-1.96,0-3.52-0.37-4.68-1.12V74.74z"/>
		<path class="st8" d="M219.05,62.39c0-1.7,0.45-3.05,1.35-4.05c0.9-1,2.11-1.49,3.64-1.49c1.47,0,2.62,0.46,3.44,1.39
			c0.82,0.93,1.23,2.21,1.23,3.85c0,1.63-0.46,2.96-1.37,3.98s-2.11,1.53-3.6,1.53c-1.43,0-2.58-0.48-3.42-1.43
			S219.05,63.95,219.05,62.39z M220.92,62.26c0,1.19,0.27,2.12,0.8,2.79c0.53,0.67,1.26,1,2.17,1c0.93,0,1.66-0.34,2.18-1.03
			c0.52-0.69,0.78-1.64,0.78-2.86c0-1.2-0.26-2.13-0.77-2.8s-1.23-1-2.13-1c-0.92,0-1.66,0.35-2.21,1.06
			C221.2,60.14,220.92,61.08,220.92,62.26z M237.62,57.16l-13.34,21h-1.99l13.34-21H237.62z M231.44,73.11
			c0-1.69,0.45-3.05,1.35-4.07c0.9-1.02,2.1-1.53,3.62-1.53c1.46,0,2.61,0.47,3.43,1.41c0.83,0.94,1.24,2.25,1.24,3.91
			c0,1.64-0.46,2.96-1.38,3.97c-0.92,1-2.11,1.51-3.57,1.51c-1.41,0-2.54-0.48-3.4-1.43C231.87,75.94,231.44,74.68,231.44,73.11z
			 M233.29,72.99c0,1.17,0.27,2.09,0.81,2.76c0.54,0.67,1.26,1.01,2.16,1.01c0.93,0,1.66-0.35,2.18-1.04s0.78-1.65,0.78-2.86
			c0-1.21-0.26-2.14-0.77-2.78s-1.22-0.97-2.13-0.97c-0.95,0-1.69,0.35-2.23,1.04C233.56,70.84,233.29,71.79,233.29,72.99z"/>
	</g>
</g>
<g>
	<g>
		<g>
			<polygon class="st20" points="-31.44,-90.8 -31.44,-47.49 -137.34,-64.7 -137.34,-108 			"/>
		</g>
		<g>
			<g class="st2">
				<defs>
					<path id="SVGID_00000156564722585661827330000015592982408717523897_" class="st2" d="M-26-108l0,43.3
						c0,6.15-1.65,11.35-5.44,17.2v-43.3C-27.65-96.65-26-101.85-26-108z"/>
				</defs>
				<use xlink:href="#SVGID_00000156564722585661827330000015592982408717523897_"  style="overflow:visible;fill:#256599;"/>
				<clipPath id="SVGID_00000155119070247187630540000007209654949799083935_">
					<use xlink:href="#SVGID_00000156564722585661827330000015592982408717523897_"  style="overflow:visible;"/>
				</clipPath>
				<g style="clip-path:url(#SVGID_00000155119070247187630540000007209654949799083935_);enable-background:new    ;">
					<path class="st7" d="M-26-108v43.3c0,0.26,0,0.53-0.01,0.79v-43.3C-26-107.47-26-107.74-26-108"/>
					<path class="st7" d="M-26.01-107.21v43.3c-0.04,1.69-0.21,3.31-0.52,4.9v-43.3C-26.22-103.9-26.05-105.52-26.01-107.21"/>
					<path class="st7" d="M-26.53-102.31v43.3c-0.27,1.4-0.66,2.78-1.16,4.16v-43.3C-27.18-99.53-26.8-100.91-26.53-102.31"/>
					<path class="st7" d="M-27.68-98.15v43.3c-0.52,1.42-1.16,2.83-1.93,4.27v-43.3C-28.84-95.32-28.2-96.73-27.68-98.15"/>
					<path class="st7" d="M-29.61-93.88v43.3c-0.54,1.01-1.15,2.04-1.83,3.08v-43.3C-30.77-91.84-30.16-92.87-29.61-93.88"/>
				</g>
			</g>
			<g>
				<defs>
					<path id="SVGID_00000131360288472984153490000009782743855999607457_" d="M-137.34-52.33l0,43.3
						c-61.5,0-111.35-24.93-111.35-55.67V-108C-248.69-77.25-198.83-52.33-137.34-52.33z"/>
				</defs>
				<use xlink:href="#SVGID_00000131360288472984153490000009782743855999607457_"  style="overflow:visible;fill:#25628C;"/>
				<clipPath id="SVGID_00000096760127323413556210000005747610034469057152_">
					<use xlink:href="#SVGID_00000131360288472984153490000009782743855999607457_"  style="overflow:visible;"/>
				</clipPath>
				<g style="clip-path:url(#SVGID_00000096760127323413556210000005747610034469057152_);enable-background:new    ;">
					<path class="st20" d="M-137.34-52.33v43.3c-0.96,0-1.91-0.01-2.86-0.02v-43.3C-139.25-52.33-138.29-52.33-137.34-52.33"/>
					<path class="st20" d="M-140.2-52.34v43.3c-3.2-0.04-6.37-0.15-9.5-0.32v-43.3C-146.57-52.49-143.4-52.38-140.2-52.34"/>
					<path class="st20" d="M-149.7-52.66v43.3c-3.07-0.17-6.11-0.4-9.1-0.69v-43.3C-155.81-53.07-152.78-52.83-149.7-52.66"/>
					<path class="st20" d="M-158.8-53.36v43.3c-3.02-0.29-6-0.65-8.93-1.07v-43.3C-164.8-54.01-161.82-53.65-158.8-53.36"/>
					<path class="st20" d="M-167.73-54.42v43.3c-3.05-0.43-6.04-0.93-8.98-1.48v-43.3C-173.77-55.35-170.78-54.86-167.73-54.42"/>
					<path class="st20" d="M-176.71-55.9v43.3c-3.16-0.6-6.25-1.26-9.27-2v-43.3C-182.96-57.17-179.87-56.5-176.71-55.9"/>
					<path class="st20" d="M-185.98-57.9v43.3c-3.39-0.82-6.69-1.73-9.87-2.72v-43.3C-192.66-59.64-189.37-58.73-185.98-57.9"/>
					<path class="st20" d="M-195.85-60.62v43.3c-4.08-1.26-7.99-2.65-11.7-4.16v-43.3C-203.84-63.28-199.93-61.89-195.85-60.62"/>
					<path class="st20" d="M-207.55-64.78v43.3c-25.1-10.21-41.14-25.77-41.14-43.21V-108C-248.69-90.56-232.65-74.99-207.55-64.78"
						/>
				</g>
			</g>
			<g>
				<path class="st7" d="M-137.34-52.33c-61.5,0-111.35-24.93-111.35-55.67s49.85-55.67,111.35-55.67S-26-138.75-26-108
					c0,6.15-1.65,11.35-5.44,17.2L-137.34-108V-52.33z"/>
			</g>
		</g>
	</g>
	<g>
		<path class="st8" d="M-159.89-143.35c-2.19-1.03-3.28-2.51-3.28-4.43c0-1.33,0.51-2.4,1.52-3.23s2.27-1.24,3.77-1.24
			c1.34,0,2.48,0.38,3.41,1.15s1.39,1.78,1.39,3.03c0,2.02-1.12,3.59-3.38,4.71v0.05c2.65,1,3.97,2.64,3.97,4.92
			c0,1.55-0.55,2.75-1.65,3.61s-2.57,1.29-4.42,1.29c-1.51,0-2.77-0.44-3.78-1.31s-1.52-2.01-1.52-3.42c0-2.33,1.32-4.03,3.95-5.1
			V-143.35z M-158.3-142.36c-2.35,0.94-3.53,2.29-3.53,4.05c0,0.98,0.35,1.74,1.05,2.3s1.6,0.84,2.68,0.84
			c1.05,0,1.91-0.28,2.59-0.84s1.02-1.3,1.02-2.22C-154.48-140.06-155.75-141.44-158.3-142.36z M-155.1-147.8
			c0-0.86-0.27-1.53-0.81-2.02s-1.26-0.73-2.16-0.73c-0.83,0-1.55,0.26-2.16,0.77s-0.91,1.16-0.91,1.94c0,1.61,1,2.82,2.99,3.64
			C-156.12-145.07-155.1-146.27-155.1-147.8z"/>
		<path class="st8" d="M-150.11-142.5c0-3.2,0.52-5.63,1.56-7.28s2.55-2.47,4.52-2.47c3.77,0,5.66,3.1,5.66,9.3
			c0,3.02-0.52,5.35-1.55,6.99s-2.54,2.47-4.52,2.47c-1.84,0-3.25-0.79-4.22-2.37S-150.11-139.64-150.11-142.5z M-148.12-142.6
			c0,4.97,1.3,7.45,3.89,7.45c2.57,0,3.86-2.52,3.86-7.56c0-5.24-1.25-7.86-3.76-7.86C-146.79-150.57-148.12-147.91-148.12-142.6z"
			/>
		<path class="st8" d="M-136.3-147.38c0-1.48,0.39-2.66,1.18-3.53s1.84-1.3,3.17-1.3c1.28,0,2.28,0.4,2.99,1.21s1.07,1.93,1.07,3.36
			c0,1.42-0.4,2.58-1.19,3.46s-1.84,1.33-3.13,1.33c-1.25,0-2.24-0.42-2.98-1.25S-136.3-146.02-136.3-147.38z M-134.68-147.5
			c0,1.04,0.23,1.85,0.7,2.43s1.1,0.87,1.89,0.87c0.81,0,1.45-0.3,1.9-0.9s0.68-1.43,0.68-2.49c0-1.05-0.22-1.86-0.67-2.44
			s-1.07-0.87-1.86-0.87c-0.8,0-1.45,0.31-1.92,0.93S-134.68-148.52-134.68-147.5z M-120.13-151.94l-11.62,18.29h-1.73l11.62-18.29
			H-120.13z M-125.51-138.04c0-1.48,0.39-2.66,1.17-3.54s1.83-1.33,3.15-1.33c1.27,0,2.27,0.41,2.99,1.23s1.08,1.96,1.08,3.41
			c0,1.43-0.4,2.58-1.2,3.46s-1.84,1.31-3.11,1.31c-1.23,0-2.21-0.41-2.96-1.24S-125.51-136.68-125.51-138.04z M-123.91-138.15
			c0,1.02,0.24,1.82,0.71,2.4s1.1,0.88,1.88,0.88c0.81,0,1.45-0.3,1.9-0.91s0.68-1.44,0.68-2.49s-0.22-1.86-0.67-2.43
			s-1.06-0.84-1.85-0.84c-0.83,0-1.48,0.3-1.95,0.91S-123.91-139.2-123.91-138.15z"/>
	</g>
</g>
<g>
	<g>
		<g class="st2">
			<defs>
				<path id="SVGID_00000120533978406027782760000005200897128780014215_" class="st2" d="M-31.44-90.8l0,43.3
					c-6.84,10.53-17.36,18.33-34.33,25.44l0-43.3C-48.8-72.47-38.28-80.27-31.44-90.8z"/>
			</defs>
			<use xlink:href="#SVGID_00000120533978406027782760000005200897128780014215_"  style="overflow:visible;fill:#2E7EAA;"/>
			<clipPath id="SVGID_00000147921522413328033360000007964873719276529818_">
				<use xlink:href="#SVGID_00000120533978406027782760000005200897128780014215_"  style="overflow:visible;"/>
			</clipPath>
			<g style="clip-path:url(#SVGID_00000147921522413328033360000007964873719276529818_);enable-background:new    ;">
				<path class="st14" d="M-31.44-90.8v43.3c-0.46,0.71-0.94,1.41-1.44,2.1v-43.3C-32.39-89.38-31.91-90.08-31.44-90.8"/>
				<path class="st14" d="M-32.89-88.69v43.3c-1.24,1.71-2.59,3.35-4.06,4.93v-43.3C-35.48-85.34-34.13-86.98-32.89-88.69"/>
				<path class="st14" d="M-36.95-83.76v43.3c-1.49,1.59-3.1,3.12-4.86,4.6v-43.3C-40.05-80.64-38.44-82.17-36.95-83.76"/>
				<path class="st14" d="M-41.81-79.16v43.3c-2.06,1.73-4.31,3.38-6.77,4.97v-43.3C-46.11-75.78-43.87-77.43-41.81-79.16"/>
				<path class="st14" d="M-48.58-74.19v43.3c-4.47,2.89-9.64,5.58-15.65,8.18v-43.3C-58.22-68.6-53.05-71.3-48.58-74.19"/>
				<path class="st14" d="M-64.23-66.01v43.3c-0.51,0.22-1.02,0.44-1.54,0.66v-43.3C-65.25-65.57-64.74-65.79-64.23-66.01"/>
			</g>
		</g>
		<g>
			<polygon class="st14" points="-65.77,-65.35 -65.77,-22.05 -137.34,-64.7 -137.34,-108 			"/>
		</g>
		<g>
			<path class="st15" d="M-65.77-65.35L-137.34-108l105.89,17.2C-38.28-80.27-48.8-72.47-65.77-65.35z"/>
		</g>
	</g>
	<g>
		<path class="st8" d="M-70.02-79.96c1.02,0.57,2.09,0.86,3.2,0.86c1.65,0,2.94-0.67,3.87-2.02s1.39-3.26,1.39-5.75
			c-0.02,0.02-0.03,0.02-0.05,0c-0.78,1.58-2.14,2.37-4.08,2.37c-1.56,0-2.84-0.54-3.83-1.61s-1.49-2.42-1.49-4.04
			c0-1.73,0.53-3.17,1.59-4.32s2.46-1.73,4.2-1.73c1.82,0,3.21,0.71,4.18,2.14s1.45,3.47,1.45,6.15c0,3.3-0.63,5.87-1.9,7.71
			s-3.08,2.77-5.42,2.77c-1.21,0-2.25-0.2-3.12-0.61V-79.96z M-69-90.45c0,1.27,0.33,2.28,1,3.04s1.58,1.14,2.74,1.14
			c1.03,0,1.88-0.34,2.56-1.03s1.01-1.51,1.01-2.48c0-1.35-0.34-2.48-1.01-3.39s-1.58-1.37-2.7-1.37c-1.05,0-1.92,0.4-2.59,1.19
			S-69-91.58-69-90.45z"/>
		<path class="st8" d="M-57.31-91.34c0-1.48,0.39-2.66,1.18-3.53s1.84-1.3,3.17-1.3c1.28,0,2.28,0.4,2.99,1.21s1.07,1.93,1.07,3.36
			c0,1.42-0.4,2.58-1.19,3.46s-1.84,1.33-3.13,1.33c-1.25,0-2.24-0.42-2.98-1.25S-57.31-89.98-57.31-91.34z M-55.68-91.46
			c0,1.04,0.23,1.85,0.7,2.43s1.1,0.87,1.89,0.87c0.81,0,1.45-0.3,1.9-0.9s0.68-1.43,0.68-2.49c0-1.05-0.22-1.86-0.67-2.44
			s-1.07-0.87-1.86-0.87c-0.8,0-1.45,0.31-1.92,0.93S-55.68-92.48-55.68-91.46z M-41.14-95.9l-11.62,18.29h-1.73l11.62-18.29H-41.14
			z M-46.51-82c0-1.48,0.39-2.66,1.17-3.54s1.83-1.33,3.15-1.33c1.27,0,2.27,0.41,2.99,1.23s1.08,1.96,1.08,3.41
			c0,1.43-0.4,2.58-1.2,3.46s-1.84,1.31-3.11,1.31c-1.23,0-2.21-0.41-2.96-1.24S-46.51-80.63-46.51-82z M-44.91-82.11
			c0,1.02,0.24,1.82,0.71,2.4s1.1,0.88,1.88,0.88c0.81,0,1.45-0.3,1.9-0.91s0.68-1.44,0.68-2.49s-0.22-1.86-0.67-2.43
			s-1.06-0.84-1.85-0.84c-0.83,0-1.48,0.3-1.95,0.91S-44.91-83.15-44.91-82.11z"/>
	</g>
</g>
<g>
	<g>
		<g>
			<polygon class="st18" points="-121.84,-52.87 -121.84,-9.57 -137.34,-64.7 -137.34,-108 			"/>
		</g>
		<g>
			<path class="st19" d="M-121.84-52.87l-15.5-55.13l71.57,42.65C-82.73-58.24-99.92-54.41-121.84-52.87z"/>
		</g>
		<g>
			<defs>
				<path id="SVGID_00000141424719646017402790000012711454599430861750_" d="M-65.77-65.35l0,43.3
					c-16.96,7.11-34.15,10.94-56.07,12.48l0-43.3C-99.92-54.41-82.73-58.24-65.77-65.35z"/>
			</defs>
			<use xlink:href="#SVGID_00000141424719646017402790000012711454599430861750_"  style="overflow:visible;fill:#C4BE49;"/>
			<clipPath id="SVGID_00000166651983040962590730000011891903067302843281_">
				<use xlink:href="#SVGID_00000141424719646017402790000012711454599430861750_"  style="overflow:visible;"/>
			</clipPath>
			<g style="clip-path:url(#SVGID_00000166651983040962590730000011891903067302843281_);enable-background:new    ;">
				<path class="st18" d="M-65.77-65.35v43.3c-6.72,2.82-13.48,5.13-20.56,6.98v-43.3C-79.25-60.23-72.49-62.53-65.77-65.35"/>
				<path class="st18" d="M-86.33-58.38v43.3c-5.89,1.54-12,2.76-18.49,3.71v-43.3C-98.33-55.61-92.22-56.84-86.33-58.38"/>
				<path class="st18" d="M-104.82-54.67v43.3c-4.41,0.64-9,1.16-13.81,1.55v-43.3C-113.82-53.51-109.23-54.02-104.82-54.67"/>
				<path class="st18" d="M-118.63-53.11v43.3c-1.06,0.09-2.13,0.17-3.21,0.24v-43.3C-120.76-52.95-119.69-53.03-118.63-53.11"/>
			</g>
		</g>
	</g>
	<g>
		<path class="st8" d="M-111.65-45.75c1.02,0.57,2.09,0.86,3.2,0.86c1.65,0,2.94-0.67,3.87-2.02s1.39-3.26,1.39-5.75
			c-0.02,0.02-0.03,0.02-0.05,0c-0.78,1.58-2.14,2.37-4.08,2.37c-1.56,0-2.84-0.54-3.83-1.61s-1.49-2.42-1.49-4.04
			c0-1.73,0.53-3.17,1.59-4.32s2.46-1.73,4.2-1.73c1.82,0,3.21,0.71,4.18,2.14s1.45,3.47,1.45,6.15c0,3.3-0.63,5.87-1.9,7.71
			s-3.08,2.77-5.42,2.77c-1.21,0-2.25-0.2-3.12-0.61V-45.75z M-110.63-56.24c0,1.27,0.33,2.28,1,3.04s1.58,1.14,2.74,1.14
			c1.03,0,1.88-0.34,2.56-1.03s1.01-1.51,1.01-2.48c0-1.35-0.34-2.48-1.01-3.39s-1.58-1.37-2.7-1.37c-1.05,0-1.92,0.4-2.59,1.19
			S-110.63-57.37-110.63-56.24z"/>
		<path class="st8" d="M-98.94-57.13c0-1.48,0.39-2.66,1.18-3.53s1.84-1.3,3.17-1.3c1.28,0,2.28,0.4,2.99,1.21s1.07,1.93,1.07,3.36
			c0,1.42-0.4,2.58-1.19,3.46s-1.84,1.33-3.13,1.33c-1.25,0-2.24-0.42-2.98-1.25S-98.94-55.77-98.94-57.13z M-97.31-57.24
			c0,1.04,0.23,1.85,0.7,2.43s1.1,0.87,1.89,0.87c0.81,0,1.45-0.3,1.9-0.9s0.68-1.43,0.68-2.49c0-1.05-0.22-1.86-0.67-2.44
			s-1.07-0.87-1.86-0.87c-0.8,0-1.45,0.31-1.92,0.93S-97.31-58.27-97.31-57.24z M-82.77-61.68l-11.62,18.29h-1.73l11.62-18.29
			H-82.77z M-88.15-47.79c0-1.48,0.39-2.66,1.17-3.54s1.83-1.33,3.15-1.33c1.27,0,2.27,0.41,2.99,1.23s1.08,1.96,1.08,3.41
			c0,1.43-0.4,2.58-1.2,3.46s-1.84,1.31-3.11,1.31c-1.23,0-2.21-0.41-2.96-1.24S-88.15-46.42-88.15-47.79z M-86.54-47.89
			c0,1.02,0.24,1.82,0.71,2.4s1.1,0.88,1.88,0.88c0.81,0,1.45-0.3,1.9-0.91s0.68-1.44,0.68-2.49s-0.22-1.86-0.67-2.43
			s-1.06-0.84-1.85-0.84c-0.83,0-1.48,0.3-1.95,0.91S-86.54-48.94-86.54-47.89z"/>
	</g>
</g>
<g>
	<g>
		<g class="st2">
			<defs>
				<path id="SVGID_00000121979232120148323500000010575003925729472176_" class="st2" d="M-121.84-52.87l0,43.3
					c-4.88,0.34-10.57,0.54-15.5,0.54l0-43.3C-132.41-52.33-126.72-52.53-121.84-52.87z"/>
			</defs>
			<use xlink:href="#SVGID_00000121979232120148323500000010575003925729472176_"  style="overflow:visible;fill:#54B244;"/>
			<clipPath id="SVGID_00000016784681576941987190000007324385412411517321_">
				<use xlink:href="#SVGID_00000121979232120148323500000010575003925729472176_"  style="overflow:visible;"/>
			</clipPath>
			<g style="clip-path:url(#SVGID_00000016784681576941987190000007324385412411517321_);enable-background:new    ;">
				<path class="st27" d="M-121.84-52.87v43.3c-2.68,0.19-5.62,0.33-8.53,0.43v-43.3C-127.46-52.54-124.52-52.68-121.84-52.87"/>
				<path class="st27" d="M-130.37-52.44v43.3c-2.38,0.08-4.75,0.12-6.97,0.12v-43.3C-135.12-52.33-132.75-52.37-130.37-52.44"/>
			</g>
		</g>
		<g>
			<path class="st28" d="M-137.34-52.33V-108l15.5,55.13C-126.72-52.53-132.41-52.33-137.34-52.33z"/>
		</g>
	</g>
	<g>
		<path class="st8" d="M-133.63,1.88h-10.86V0.11l5.29-5.32c1.75-1.77,2.83-3.04,3.23-3.84s0.6-1.63,0.6-2.53
			c0-1.07-0.3-1.89-0.91-2.47s-1.47-0.87-2.61-0.87c-1.62,0-3.17,0.7-4.66,2.1v-2.09c1.4-1.12,3.04-1.68,4.92-1.68
			c1.56,0,2.81,0.43,3.76,1.3s1.41,2.04,1.41,3.53c0,1.14-0.31,2.26-0.93,3.37s-1.79,2.52-3.52,4.25l-4.23,4.18V0.1h8.52V1.88z"/>
		<path class="st8" d="M-130.8-11.71c0-1.48,0.39-2.66,1.18-3.53s1.84-1.3,3.17-1.3c1.28,0,2.28,0.4,2.99,1.21s1.07,1.93,1.07,3.36
			c0,1.42-0.4,2.58-1.19,3.46s-1.84,1.33-3.13,1.33c-1.25,0-2.24-0.42-2.98-1.25S-130.8-10.35-130.8-11.71z M-129.17-11.83
			c0,1.04,0.23,1.85,0.7,2.43s1.1,0.87,1.89,0.87c0.81,0,1.45-0.3,1.9-0.9s0.68-1.43,0.68-2.49c0-1.05-0.22-1.86-0.67-2.44
			s-1.07-0.87-1.86-0.87c-0.8,0-1.45,0.31-1.92,0.93S-129.17-12.85-129.17-11.83z M-114.63-16.27l-11.62,18.29h-1.73l11.62-18.29
			H-114.63z M-120.01-2.37c0-1.48,0.39-2.66,1.17-3.54s1.83-1.33,3.15-1.33c1.27,0,2.27,0.41,2.99,1.23s1.08,1.96,1.08,3.41
			c0,1.43-0.4,2.58-1.2,3.46s-1.84,1.31-3.11,1.31c-1.23,0-2.21-0.41-2.96-1.24S-120.01-1-120.01-2.37z M-118.4-2.48
			c0,1.02,0.24,1.82,0.71,2.4s1.1,0.88,1.88,0.88c0.81,0,1.45-0.3,1.9-0.91s0.68-1.44,0.68-2.49s-0.22-1.86-0.67-2.43
			s-1.06-0.84-1.85-0.84c-0.83,0-1.48,0.3-1.95,0.91S-118.4-3.52-118.4-2.48z"/>
	</g>
</g>
<g>
	<g>
		<g>
			<defs>
				<path id="SVGID_00000012449466941270379870000003052612466140655752_" d="M-392.13-93.04l0,43.3c0,18.45-16.05,34.2-45.9,45.04
					v-43.3C-408.17-58.85-392.13-74.6-392.13-93.04z"/>
			</defs>
			<use xlink:href="#SVGID_00000012449466941270379870000003052612466140655752_"  style="overflow:visible;fill:#25628C;"/>
			<clipPath id="SVGID_00000047746446138730913550000000360359694548291462_">
				<use xlink:href="#SVGID_00000012449466941270379870000003052612466140655752_"  style="overflow:visible;"/>
			</clipPath>
			<g style="clip-path:url(#SVGID_00000047746446138730913550000000360359694548291462_);enable-background:new    ;">
				<path class="st20" d="M-392.13-93.04v43.3c0,0.24,0,0.49-0.01,0.73v-43.3C-392.13-92.55-392.13-92.8-392.13-93.04"/>
				<path class="st20" d="M-392.14-92.31v43.3c-0.04,1.76-0.23,3.49-0.56,5.2v-43.3C-392.36-88.82-392.18-90.55-392.14-92.31"/>
				<path class="st20" d="M-392.7-87.11v43.3c-0.31,1.6-0.75,3.17-1.31,4.72v-43.3C-393.44-83.94-393.01-85.52-392.7-87.11"/>
				<path class="st20" d="M-394.01-82.39v43.3c-0.55,1.5-1.21,2.99-1.99,4.44v-43.3C-395.22-79.41-394.55-80.89-394.01-82.39"/>
				<path class="st20" d="M-396-77.95v43.3c-0.79,1.47-1.7,2.91-2.72,4.33v-43.3C-397.7-75.04-396.79-76.48-396-77.95"/>
				<path class="st20" d="M-398.72-73.63v43.3c-1.07,1.48-2.28,2.94-3.6,4.36v-43.3C-401-70.69-399.79-72.14-398.72-73.63"/>
				<path class="st20" d="M-402.32-69.27v43.3c-1.47,1.58-3.1,3.11-4.89,4.61v-43.3C-405.43-66.15-403.8-67.69-402.32-69.27"/>
				<path class="st20" d="M-407.21-64.66v43.3c-2.18,1.83-4.58,3.59-7.21,5.29v-43.3C-411.79-61.06-409.39-62.83-407.21-64.66"/>
				<path class="st20" d="M-414.42-59.36v43.3c-4.51,2.91-9.68,5.64-15.48,8.14v-43.3C-424.1-53.73-418.93-56.45-414.42-59.36"/>
				<path class="st20" d="M-429.91-51.22v43.3c-2.58,1.11-5.29,2.19-8.12,3.22v-43.3C-435.2-49.03-432.49-50.11-429.91-51.22"/>
			</g>
		</g>
		<g>
			<path class="st7" d="M-503.48-148.72c61.5,0,111.35,24.93,111.35,55.67c0,18.45-16.05,34.2-45.9,45.04l-65.45-45.04V-148.72z"/>
		</g>
		<g>
			<polygon class="st20" points="-438.03,-48.01 -438.03,-4.7 -503.48,-49.74 -503.48,-93.04 			"/>
		</g>
	</g>
	<g>
		<path class="st8" d="M-432.83-95.67h-2.34v4.88h-1.95v-4.88h-8.58v-1.29l8.11-11.99h2.41v11.66h2.34V-95.67z M-437.12-97.29v-7.99
			c0-0.55,0.02-1.18,0.05-1.89h-0.05c-0.06,0.17-0.29,0.64-0.69,1.39l-5.71,8.48H-437.12z"/>
		<path class="st8" d="M-430.84-99.5c0-3.2,0.52-5.63,1.56-7.28s2.55-2.47,4.52-2.47c3.77,0,5.66,3.1,5.66,9.3
			c0,3.02-0.52,5.35-1.55,6.99s-2.54,2.47-4.52,2.47c-1.84,0-3.25-0.79-4.22-2.37S-430.84-96.65-430.84-99.5z M-428.85-99.61
			c0,4.97,1.3,7.45,3.89,7.45c2.57,0,3.86-2.52,3.86-7.56c0-5.24-1.25-7.86-3.76-7.86C-427.52-107.58-428.85-104.92-428.85-99.61z"
			/>
		<path class="st8" d="M-417.03-104.39c0-1.48,0.39-2.66,1.18-3.53s1.84-1.3,3.17-1.3c1.28,0,2.28,0.4,2.99,1.21
			s1.07,1.93,1.07,3.36c0,1.42-0.4,2.58-1.19,3.46s-1.84,1.33-3.13,1.33c-1.25,0-2.24-0.42-2.98-1.25S-417.03-103.03-417.03-104.39z
			 M-415.4-104.51c0,1.04,0.23,1.85,0.7,2.43s1.1,0.87,1.89,0.87c0.81,0,1.45-0.3,1.9-0.9s0.68-1.43,0.68-2.49
			c0-1.05-0.22-1.86-0.67-2.44s-1.07-0.87-1.86-0.87c-0.8,0-1.45,0.31-1.92,0.93S-415.4-105.53-415.4-104.51z M-400.86-108.95
			l-11.62,18.29h-1.73l11.62-18.29H-400.86z M-406.24-95.05c0-1.48,0.39-2.66,1.17-3.54s1.83-1.33,3.15-1.33
			c1.27,0,2.27,0.41,2.99,1.23s1.08,1.96,1.08,3.41c0,1.43-0.4,2.58-1.2,3.46s-1.84,1.31-3.11,1.31c-1.23,0-2.21-0.41-2.96-1.24
			S-406.24-93.68-406.24-95.05z M-404.63-95.16c0,1.02,0.24,1.82,0.71,2.4s1.1,0.88,1.88,0.88c0.81,0,1.45-0.3,1.9-0.91
			s0.68-1.44,0.68-2.49s-0.22-1.86-0.67-2.43s-1.06-0.84-1.85-0.84c-0.83,0-1.48,0.3-1.95,0.91S-404.63-96.2-404.63-95.16z"/>
	</g>
</g>
<g>
	<g>
		<g>
			<polygon class="st18" points="-503.48,-93.04 -503.48,-49.74 -568.92,-94.78 -568.92,-138.08 			"/>
		</g>
		<g>
			<path class="st19" d="M-503.48-148.72v55.67l-65.45-45.04C-549.02-145.31-528.07-148.72-503.48-148.72z"/>
		</g>
	</g>
	<g>
		<path class="st8" d="M-539.95-136.35h-10.2v-1.75h4.12v-14.27l-4.23,1.28v-1.89l6.19-1.93v16.82h4.11V-136.35z"/>
		<path class="st8" d="M-537.37-145.06c0-3.2,0.52-5.63,1.56-7.28s2.55-2.47,4.52-2.47c3.77,0,5.66,3.1,5.66,9.3
			c0,3.02-0.52,5.35-1.55,6.99s-2.54,2.47-4.52,2.47c-1.84,0-3.25-0.79-4.22-2.37S-537.37-142.21-537.37-145.06z M-535.37-145.17
			c0,4.97,1.3,7.45,3.89,7.45c2.57,0,3.86-2.52,3.86-7.56c0-5.24-1.25-7.86-3.76-7.86C-534.04-153.14-535.37-150.48-535.37-145.17z"
			/>
		<path class="st8" d="M-523.56-149.95c0-1.48,0.39-2.66,1.18-3.53s1.84-1.3,3.17-1.3c1.28,0,2.28,0.4,2.99,1.21
			s1.07,1.93,1.07,3.36c0,1.42-0.4,2.58-1.19,3.46s-1.84,1.33-3.13,1.33c-1.25,0-2.24-0.42-2.98-1.25S-523.56-148.59-523.56-149.95z
			 M-521.93-150.07c0,1.04,0.23,1.85,0.7,2.43s1.1,0.87,1.89,0.87c0.81,0,1.45-0.3,1.9-0.9s0.68-1.43,0.68-2.49
			c0-1.05-0.22-1.86-0.67-2.44s-1.07-0.87-1.86-0.87c-0.8,0-1.45,0.31-1.92,0.93S-521.93-151.09-521.93-150.07z M-507.39-154.51
			l-11.62,18.29h-1.73l11.62-18.29H-507.39z M-512.77-140.61c0-1.48,0.39-2.66,1.17-3.54s1.83-1.33,3.15-1.33
			c1.27,0,2.27,0.41,2.99,1.23s1.08,1.96,1.08,3.41c0,1.43-0.4,2.58-1.2,3.46s-1.84,1.31-3.11,1.31c-1.23,0-2.21-0.41-2.96-1.24
			S-512.77-139.24-512.77-140.61z M-511.16-140.71c0,1.02,0.24,1.82,0.71,2.4s1.1,0.88,1.88,0.88c0.81,0,1.45-0.3,1.9-0.91
			s0.68-1.44,0.68-2.49s-0.22-1.86-0.67-2.43s-1.06-0.84-1.85-0.84c-0.83,0-1.48,0.3-1.95,0.91S-511.16-141.76-511.16-140.71z"/>
	</g>
</g>
<g>
	<g>
		<g>
			<defs>
				<path id="SVGID_00000030479274573343764120000003837655752673882255_" d="M-614.83-49.69V-93c0,11.35,6.91,22.79,21.27,32.67
					c21.79,14.99,55.74,22.95,90.17,22.95c22.69,0,45.59-3.46,65.36-10.64v43.3c-19.76,7.18-42.67,10.64-65.36,10.64
					c-34.43,0-68.38-7.96-90.17-22.95C-607.91-26.9-614.83-38.35-614.83-49.69z"/>
			</defs>
			<use xlink:href="#SVGID_00000030479274573343764120000003837655752673882255_"  style="overflow:visible;fill:#2E7EAA;"/>
			<clipPath id="SVGID_00000104669939680539838370000003315740466406797708_">
				<use xlink:href="#SVGID_00000030479274573343764120000003837655752673882255_"  style="overflow:visible;"/>
			</clipPath>
			<g style="clip-path:url(#SVGID_00000104669939680539838370000003315740466406797708_);enable-background:new    ;">
				<path class="st14" d="M-438.03-48.01v43.3c-4.48,1.63-9.12,3.06-13.89,4.31v-43.3C-447.15-44.94-442.51-46.38-438.03-48.01"/>
				<path class="st14" d="M-451.92-43.69v43.3c-6.6,1.73-13.43,3.09-20.39,4.11v-43.3C-465.34-40.6-458.51-41.97-451.92-43.69"/>
				<path class="st14" d="M-472.3-39.58v43.3c-4.28,0.62-8.62,1.12-12.98,1.47v-43.3C-480.92-38.47-476.59-38.96-472.3-39.58"/>
				<path class="st14" d="M-485.28-38.11v43.3c-3.65,0.3-7.31,0.51-10.98,0.63v-43.3C-492.59-37.6-488.93-37.81-485.28-38.11"/>
				<path class="st14" d="M-496.26-37.48v43.3c-2.37,0.08-4.75,0.11-7.12,0.11c-0.95,0-1.9-0.01-2.84-0.02v-43.3
					c0.95,0.01,1.89,0.02,2.84,0.02C-501.01-37.37-498.63-37.41-496.26-37.48"/>
				<path class="st14" d="M-506.23-37.39v43.3c-3.16-0.04-6.32-0.15-9.46-0.32v-43.3C-512.54-37.54-509.39-37.43-506.23-37.39"/>
				<path class="st14" d="M-515.68-37.71v43.3c-3.07-0.17-6.12-0.4-9.15-0.7v-43.3C-521.8-38.11-518.75-37.88-515.68-37.71"/>
				<path class="st14" d="M-524.83-38.41v43.3c-3.03-0.3-6.03-0.65-9.01-1.07v-43.3C-530.86-39.06-527.86-38.7-524.83-38.41"/>
				<path class="st14" d="M-533.84-39.48v43.3c-3.06-0.43-6.08-0.93-9.05-1.49v-43.3C-539.91-40.41-536.89-39.91-533.84-39.48"/>
				<path class="st14" d="M-542.89-40.97v43.3c-3.16-0.6-6.26-1.26-9.31-2v-43.3C-549.15-42.24-546.05-41.57-542.89-40.97"/>
				<path class="st14" d="M-552.2-42.98v43.3c-3.38-0.82-6.69-1.73-9.91-2.73v-43.3C-558.89-44.71-555.58-43.8-552.2-42.98"/>
				<path class="st14" d="M-562.11-45.7v43.3c-3.97-1.23-7.8-2.59-11.47-4.08v-43.3C-569.91-48.29-566.08-46.93-562.11-45.7"/>
				<path class="st14" d="M-573.59-49.78v43.3c-7.38-2.99-14.12-6.52-19.97-10.54c-14.36-9.88-21.27-21.33-21.27-32.67V-93
					c0,11.35,6.91,22.79,21.27,32.67C-587.7-56.29-580.97-52.77-573.59-49.78"/>
			</g>
		</g>
		<g>
			<path class="st15" d="M-568.92-138.08l65.45,45.04l65.45,45.04c-19.76,7.18-42.67,10.64-65.36,10.64
				c-34.43,0-68.38-7.96-90.17-22.95C-629.7-85.19-618.67-120.01-568.92-138.08z"/>
		</g>
	</g>
	<g>
		<path class="st8" d="M-561-58.99c1.23,0.8,2.49,1.21,3.77,1.21s2.32-0.37,3.13-1.11s1.21-1.72,1.21-2.94
			c0-1.23-0.4-2.18-1.21-2.85s-1.96-1.01-3.48-1.01c-0.48,0-1.43,0.05-2.85,0.14v-9.04h8.7v1.78h-6.83v5.44
			c0.68-0.04,1.2-0.06,1.55-0.06c1.91,0,3.4,0.48,4.48,1.44s1.62,2.3,1.62,4.04c0,1.8-0.59,3.23-1.76,4.27s-2.71,1.56-4.62,1.56
			c-1.67,0-2.91-0.25-3.71-0.75V-58.99z"/>
		<path class="st8" d="M-548.06-65.13c0-3.2,0.52-5.63,1.56-7.28s2.55-2.47,4.52-2.47c3.77,0,5.66,3.1,5.66,9.3
			c0,3.02-0.52,5.35-1.55,6.99s-2.54,2.47-4.52,2.47c-1.84,0-3.25-0.79-4.22-2.37S-548.06-62.28-548.06-65.13z M-546.07-65.24
			c0,4.97,1.3,7.45,3.89,7.45c2.57,0,3.86-2.52,3.86-7.56c0-5.24-1.25-7.86-3.76-7.86C-544.74-73.2-546.07-70.55-546.07-65.24z"/>
		<path class="st8" d="M-534.26-70.02c0-1.48,0.39-2.66,1.18-3.53s1.84-1.3,3.17-1.3c1.28,0,2.28,0.4,2.99,1.21s1.07,1.93,1.07,3.36
			c0,1.42-0.4,2.58-1.19,3.46s-1.84,1.33-3.13,1.33c-1.25,0-2.24-0.42-2.98-1.25S-534.26-68.66-534.26-70.02z M-532.63-70.13
			c0,1.04,0.23,1.85,0.7,2.43s1.1,0.87,1.89,0.87c0.81,0,1.45-0.3,1.9-0.9s0.68-1.43,0.68-2.49c0-1.05-0.22-1.86-0.67-2.44
			s-1.07-0.87-1.86-0.87c-0.8,0-1.45,0.31-1.92,0.93S-532.63-71.16-532.63-70.13z M-518.09-74.58l-11.62,18.29h-1.73l11.62-18.29
			H-518.09z M-523.47-60.68c0-1.48,0.39-2.66,1.17-3.54s1.83-1.33,3.15-1.33c1.27,0,2.27,0.41,2.99,1.23s1.08,1.96,1.08,3.41
			c0,1.43-0.4,2.58-1.2,3.46s-1.84,1.31-3.11,1.31c-1.23,0-2.21-0.41-2.96-1.24S-523.47-59.31-523.47-60.68z M-521.86-60.78
			c0,1.02,0.24,1.82,0.71,2.4s1.1,0.88,1.88,0.88c0.81,0,1.45-0.3,1.9-0.91s0.68-1.44,0.68-2.49s-0.22-1.86-0.67-2.43
			s-1.06-0.84-1.85-0.84c-0.83,0-1.48,0.3-1.95,0.91S-521.86-61.83-521.86-60.78z"/>
	</g>
</g>
<g>
	<g>
		<g>
			<polygon class="st14" points="-857.08,-387.53 -857.08,-337.98 -932.33,-389.53 -932.33,-439.08 			"/>
		</g>
		<g>
			<path class="st15" d="M-857.08-451.24v63.71l-75.25-51.54C-909.92-447.19-884.8-451.24-857.08-451.24z"/>
		</g>
	</g>
	<g>
		<path class="st8" d="M-918.63-438.51c1.18,0.65,2.4,0.98,3.68,0.98c1.9,0,3.38-0.77,4.45-2.31c1.07-1.54,1.6-3.73,1.6-6.58
			c-0.02,0.02-0.04,0.02-0.05,0c-0.9,1.81-2.46,2.71-4.69,2.71c-1.8,0-3.27-0.61-4.41-1.84s-1.71-2.77-1.71-4.63
			c0-1.98,0.61-3.62,1.83-4.94s2.83-1.98,4.83-1.98c2.09,0,3.7,0.82,4.81,2.45c1.11,1.63,1.67,3.98,1.67,7.03
			c0,3.77-0.73,6.71-2.19,8.82s-3.54,3.16-6.23,3.16c-1.39,0-2.59-0.23-3.58-0.7V-438.51z M-917.46-450.51
			c0,1.45,0.38,2.61,1.15,3.48c0.76,0.87,1.81,1.31,3.15,1.31c1.19,0,2.17-0.39,2.94-1.17c0.78-0.78,1.17-1.73,1.17-2.84
			c0-1.55-0.39-2.84-1.17-3.88c-0.78-1.04-1.81-1.56-3.11-1.56c-1.21,0-2.21,0.45-2.98,1.36
			C-917.07-452.91-917.46-451.81-917.46-450.51z"/>
		<path class="st8" d="M-903.54-437.22c0-0.44,0.16-0.81,0.47-1.12c0.31-0.31,0.68-0.46,1.09-0.46c0.43,0,0.8,0.15,1.1,0.46
			c0.31,0.31,0.46,0.68,0.46,1.12c0,0.43-0.15,0.8-0.46,1.11c-0.31,0.31-0.68,0.46-1.1,0.46c-0.41,0-0.78-0.15-1.09-0.45
			C-903.38-436.4-903.54-436.77-903.54-437.22z"/>
		<path class="st8" d="M-884.92-435.97h-12.49V-438l6.08-6.09c2.01-2.02,3.25-3.48,3.71-4.39c0.46-0.91,0.69-1.87,0.69-2.89
			c0-1.22-0.35-2.17-1.04-2.83c-0.7-0.66-1.7-0.99-3-0.99c-1.86,0-3.65,0.8-5.36,2.4v-2.39c1.61-1.28,3.49-1.92,5.66-1.92
			c1.8,0,3.24,0.5,4.32,1.49c1.08,0.99,1.62,2.34,1.62,4.04c0,1.31-0.36,2.59-1.07,3.86c-0.71,1.27-2.06,2.89-4.05,4.86l-4.86,4.79
			v0.05h9.8V-435.97z"/>
		<path class="st8" d="M-881.66-451.53c0-1.7,0.45-3.04,1.35-4.04c0.9-0.99,2.12-1.49,3.65-1.49c1.47,0,2.62,0.46,3.44,1.39
			c0.82,0.93,1.23,2.21,1.23,3.84c0,1.63-0.46,2.95-1.37,3.96c-0.91,1.01-2.11,1.52-3.6,1.52c-1.44,0-2.58-0.48-3.43-1.43
			C-881.23-448.72-881.66-449.97-881.66-451.53z M-879.78-451.66c0,1.19,0.27,2.12,0.8,2.78c0.53,0.67,1.26,1,2.18,1
			c0.93,0,1.66-0.34,2.18-1.03c0.52-0.68,0.78-1.63,0.78-2.85c0-1.2-0.26-2.13-0.77-2.79c-0.52-0.66-1.23-0.99-2.14-0.99
			c-0.93,0-1.66,0.35-2.21,1.06C-879.51-453.77-879.78-452.83-879.78-451.66z M-863.06-456.74l-13.37,20.93h-1.99l13.37-20.93
			H-863.06z M-869.24-440.84c0-1.69,0.45-3.04,1.35-4.06c0.9-1.01,2.11-1.52,3.62-1.52c1.46,0,2.61,0.47,3.44,1.41
			c0.83,0.94,1.24,2.24,1.24,3.9c0,1.64-0.46,2.95-1.38,3.96c-0.92,1-2.11,1.5-3.58,1.5c-1.41,0-2.54-0.47-3.4-1.42
			C-868.82-438.02-869.24-439.28-869.24-440.84z M-867.4-440.96c0,1.16,0.27,2.08,0.82,2.75s1.26,1.01,2.16,1.01
			c0.93,0,1.66-0.35,2.18-1.04c0.52-0.69,0.78-1.64,0.78-2.85s-0.26-2.13-0.77-2.78c-0.51-0.64-1.22-0.97-2.13-0.97
			c-0.95,0-1.7,0.35-2.24,1.04C-867.13-443.1-867.4-442.16-867.4-440.96z"/>
	</g>
</g>
<g>
	<g>
		<g class="st2">
			<defs>
				<path id="SVGID_00000073713954943866617690000009600815141742985095_" class="st2" d="M-729.04-387.53v49.55
					c0,35.18-57.32,63.7-128.04,63.7c-70.71,0-128.03-28.52-128.03-63.7v-49.55c0,35.18,57.32,63.7,128.03,63.7
					C-786.37-323.83-729.04-352.35-729.04-387.53z"/>
			</defs>
			<use xlink:href="#SVGID_00000073713954943866617690000009600815141742985095_"  style="overflow:visible;fill:#256599;"/>
			<clipPath id="SVGID_00000153688982864550217060000005174724782810530193_">
				<use xlink:href="#SVGID_00000073713954943866617690000009600815141742985095_"  style="overflow:visible;"/>
			</clipPath>
			<g style="clip-path:url(#SVGID_00000153688982864550217060000005174724782810530193_);enable-background:new    ;">
				<path class="st7" d="M-729.04-387.53v49.55c0,0.25,0,0.5-0.01,0.75v-49.55C-729.05-387.04-729.04-387.29-729.04-387.53"/>
				<path class="st7" d="M-729.05-386.79v49.55c-0.04,1.85-0.24,3.68-0.6,5.49v-49.55C-729.3-383.1-729.1-384.94-729.05-386.79"/>
				<path class="st7" d="M-729.65-381.29v49.55c-0.34,1.76-0.83,3.51-1.46,5.23v-49.55C-730.48-377.79-730-379.53-729.65-381.29"/>
				<path class="st7" d="M-731.11-376.07v49.55c-0.63,1.73-1.4,3.43-2.31,5.11v-49.55C-732.52-372.63-731.74-374.34-731.11-376.07"
					/>
				<path class="st7" d="M-733.42-370.96v49.55c-0.94,1.74-2.02,3.45-3.24,5.12v-49.55C-735.44-367.51-734.36-369.22-733.42-370.96"
					/>
				<path class="st7" d="M-736.67-365.83v49.55c-1.31,1.8-2.78,3.56-4.39,5.27v-49.55C-739.44-362.28-737.97-364.04-736.67-365.83"
					/>
				<path class="st7" d="M-741.06-360.56v49.55c-1.81,1.92-3.8,3.79-5.98,5.6v-49.55C-744.86-356.77-742.87-358.64-741.06-360.56"/>
				<path class="st7" d="M-747.03-354.95v49.55c-2.68,2.24-5.63,4.39-8.83,6.44v-49.55C-752.67-350.57-749.72-352.72-747.03-354.95"
					/>
				<path class="st7" d="M-755.86-348.52v49.55c-5.23,3.36-11.13,6.45-17.58,9.22v-49.55C-766.99-342.07-761.1-345.16-755.86-348.52
					"/>
				<path class="st7" d="M-773.44-339.3v49.55c-7.39,3.18-15.53,5.94-24.25,8.22v-49.55C-788.97-333.36-780.84-336.12-773.44-339.3"
					/>
				<path class="st7" d="M-797.7-331.08v49.55c-7.35,1.92-15.13,3.49-23.24,4.68v-49.55C-812.83-327.59-805.05-329.16-797.7-331.08"
					/>
				<path class="st7" d="M-820.94-326.4v49.55c-4.94,0.72-10,1.3-15.17,1.72v-49.55C-830.94-325.1-825.88-325.68-820.94-326.4"/>
				<path class="st7" d="M-836.11-324.68v49.55c-4.14,0.34-8.34,0.58-12.6,0.72v-49.55C-844.45-324.1-840.25-324.34-836.11-324.68"
					/>
				<path class="st7" d="M-848.71-323.96v49.55c-2.77,0.09-5.56,0.13-8.37,0.13c-1.1,0-2.2-0.01-3.29-0.02v-49.55
					c1.09,0.01,2.19,0.02,3.29,0.02C-854.27-323.83-851.48-323.88-848.71-323.96"/>
				<path class="st7" d="M-860.38-323.85v49.55c-3.68-0.05-7.33-0.17-10.92-0.37v-49.55C-867.7-324.02-864.06-323.9-860.38-323.85"
					/>
				<path class="st7" d="M-871.3-324.22v49.55c-3.53-0.19-7.02-0.46-10.46-0.79v-49.55C-878.32-324.68-874.83-324.41-871.3-324.22"
					/>
				<path class="st7" d="M-881.76-325.01v49.55c-3.47-0.34-6.9-0.74-10.26-1.22v-49.55C-888.66-325.76-885.24-325.35-881.76-325.01"
					/>
				<path class="st7" d="M-892.02-326.23v49.55c-3.5-0.49-6.95-1.06-10.32-1.69v-49.55C-898.97-327.29-895.53-326.73-892.02-326.23"
					/>
				<path class="st7" d="M-902.35-327.93v49.55c-3.63-0.68-7.19-1.45-10.66-2.29v-49.55C-909.54-329.37-905.98-328.61-902.35-327.93
					"/>
				<path class="st7" d="M-913-330.21v49.55c-3.9-0.94-7.69-1.98-11.35-3.11v-49.55C-920.69-332.2-916.9-331.16-913-330.21"/>
				<path class="st7" d="M-924.36-333.32v49.55c-4.69-1.45-9.19-3.04-13.45-4.76v-49.55C-933.54-336.36-929.05-334.77-924.36-333.32
					"/>
				<path class="st7" d="M-937.81-338.09v49.55c-28.86-11.68-47.31-29.49-47.31-49.45v-49.55
					C-985.11-367.58-966.67-349.77-937.81-338.09"/>
			</g>
		</g>
		<g>
			<path class="st7" d="M-857.08-451.24c70.72,0,128.04,28.52,128.04,63.71c0,35.18-57.32,63.7-128.04,63.7
				c-70.71,0-128.03-28.52-128.03-63.7c0-21.4,18-38.97,52.78-51.54l75.25,51.54V-451.24z"/>
		</g>
	</g>
	<g>
		<path class="st8" d="M-861.09-359.04c1.18,0.65,2.4,0.98,3.68,0.98c1.9,0,3.38-0.77,4.45-2.31c1.07-1.54,1.6-3.73,1.6-6.58
			c-0.02,0.02-0.04,0.02-0.05,0c-0.9,1.81-2.46,2.71-4.69,2.71c-1.8,0-3.27-0.61-4.41-1.84c-1.14-1.22-1.71-2.77-1.71-4.63
			c0-1.98,0.61-3.62,1.83-4.94s2.83-1.98,4.83-1.98c2.09,0,3.7,0.82,4.81,2.45c1.11,1.63,1.67,3.98,1.67,7.03
			c0,3.77-0.73,6.71-2.19,8.82c-1.46,2.11-3.54,3.16-6.23,3.16c-1.39,0-2.59-0.23-3.58-0.7V-359.04z M-859.92-371.04
			c0,1.45,0.38,2.61,1.15,3.48c0.76,0.87,1.81,1.31,3.15,1.31c1.19,0,2.17-0.39,2.94-1.17s1.17-1.73,1.17-2.84
			c0-1.55-0.39-2.84-1.17-3.88s-1.81-1.56-3.11-1.56c-1.21,0-2.21,0.45-2.98,1.36C-859.53-373.44-859.92-372.34-859.92-371.04z"/>
		<path class="st8" d="M-846.35-366.47c0-3.67,0.6-6.44,1.8-8.33s2.93-2.83,5.19-2.83c4.34,0,6.51,3.55,6.51,10.65
			c0,3.45-0.6,6.12-1.79,8c-1.19,1.88-2.92,2.82-5.19,2.82c-2.12,0-3.74-0.9-4.85-2.71C-845.79-360.67-846.35-363.2-846.35-366.47z
			 M-844.05-366.59c0,5.69,1.49,8.53,4.47,8.53c2.96,0,4.43-2.88,4.43-8.65c0-6-1.44-9-4.33-9
			C-842.53-375.71-844.05-372.67-844.05-366.59z"/>
		<path class="st8" d="M-830-357.75c0-0.44,0.16-0.81,0.47-1.12c0.31-0.31,0.68-0.46,1.09-0.46c0.43,0,0.8,0.15,1.1,0.46
			s0.46,0.68,0.46,1.12c0,0.43-0.15,0.8-0.46,1.11c-0.31,0.31-0.68,0.46-1.1,0.46c-0.41,0-0.78-0.15-1.09-0.45
			C-829.84-356.93-830-357.3-830-357.75z"/>
		<path class="st8" d="M-819.25-367.44c-2.52-1.18-3.77-2.87-3.77-5.07c0-1.52,0.58-2.75,1.75-3.69c1.17-0.94,2.61-1.41,4.34-1.41
			c1.55,0,2.85,0.44,3.92,1.32c1.07,0.88,1.6,2.04,1.6,3.47c0,2.31-1.29,4.1-3.88,5.39v0.05c3.05,1.14,4.57,3.02,4.57,5.63
			c0,1.77-0.63,3.15-1.9,4.13s-2.96,1.48-5.08,1.48c-1.73,0-3.18-0.5-4.35-1.5s-1.75-2.3-1.75-3.91c0-2.66,1.51-4.61,4.54-5.83
			V-367.44z M-817.41-366.31c-2.7,1.07-4.06,2.62-4.06,4.64c0,1.12,0.4,2,1.21,2.64s1.84,0.96,3.09,0.96c1.2,0,2.2-0.32,2.98-0.96
			c0.78-0.64,1.17-1.49,1.17-2.54C-813.02-363.68-814.48-365.26-817.41-366.31z M-813.73-372.54c0-0.98-0.31-1.75-0.94-2.31
			c-0.62-0.56-1.45-0.84-2.49-0.84c-0.95,0-1.78,0.29-2.48,0.88c-0.7,0.59-1.05,1.33-1.05,2.22c0,1.84,1.15,3.23,3.44,4.17
			C-814.91-369.41-813.73-370.78-813.73-372.54z"/>
		<path class="st8" d="M-808.12-372.06c0-1.7,0.45-3.04,1.35-4.04c0.9-0.99,2.12-1.49,3.65-1.49c1.47,0,2.62,0.46,3.44,1.39
			c0.82,0.93,1.23,2.21,1.23,3.84c0,1.63-0.46,2.95-1.37,3.96c-0.91,1.01-2.11,1.52-3.6,1.52c-1.44,0-2.58-0.48-3.43-1.43
			C-807.69-369.25-808.12-370.5-808.12-372.06z M-806.24-372.19c0,1.19,0.27,2.12,0.8,2.78s1.26,1,2.18,1
			c0.93,0,1.66-0.34,2.18-1.03s0.78-1.63,0.78-2.85c0-1.2-0.26-2.13-0.77-2.79s-1.23-0.99-2.14-0.99c-0.93,0-1.66,0.35-2.21,1.06
			C-805.97-374.3-806.24-373.36-806.24-372.19z M-789.52-377.27l-13.37,20.93h-1.99l13.37-20.93H-789.52z M-795.7-361.37
			c0-1.69,0.45-3.04,1.35-4.06s2.11-1.52,3.62-1.52c1.46,0,2.61,0.47,3.44,1.41c0.83,0.94,1.24,2.24,1.24,3.9
			c0,1.64-0.46,2.95-1.38,3.96c-0.92,1-2.11,1.5-3.58,1.5c-1.41,0-2.54-0.47-3.4-1.42C-795.28-358.55-795.7-359.81-795.7-361.37z
			 M-793.86-361.49c0,1.16,0.27,2.08,0.82,2.75s1.26,1.01,2.16,1.01c0.93,0,1.66-0.35,2.18-1.04c0.52-0.69,0.78-1.64,0.78-2.85
			c0-1.21-0.26-2.13-0.77-2.78c-0.51-0.64-1.22-0.97-2.13-0.97c-0.95,0-1.7,0.35-2.24,1.04
			C-793.59-363.63-793.86-362.69-793.86-361.49z"/>
	</g>
</g>
<g>
	<g>
		<g>
			<path class="st7" d="M-526.45-313.89c-70.68,0-127.98-28.65-127.98-63.99c0-8.48,2.42-15.02,8.5-22.93l119.47,22.93V-313.89z"/>
		</g>
		<g>
			<defs>
				<path id="SVGID_00000022542963315726634110000000601349378347035053_" d="M-526.45-313.89v49.77
					c-70.68,0-127.98-28.65-127.98-63.99v-49.77C-654.43-342.54-597.13-313.89-526.45-313.89z"/>
			</defs>
			<use xlink:href="#SVGID_00000022542963315726634110000000601349378347035053_"  style="overflow:visible;fill:#25628C;"/>
			<clipPath id="SVGID_00000129194635287903374340000009734750785424704183_">
				<use xlink:href="#SVGID_00000022542963315726634110000000601349378347035053_"  style="overflow:visible;"/>
			</clipPath>
			<g style="clip-path:url(#SVGID_00000129194635287903374340000009734750785424704183_);enable-background:new    ;">
				<path class="st20" d="M-526.45-313.89v49.77c-1.1,0-2.2-0.01-3.29-0.02v-49.77C-528.65-313.9-527.55-313.89-526.45-313.89"/>
				<path class="st20" d="M-529.74-313.91v49.77c-3.68-0.05-7.32-0.17-10.92-0.37v-49.77
					C-537.06-314.08-533.42-313.96-529.74-313.91"/>
				<path class="st20" d="M-540.66-314.28v49.77c-3.53-0.2-7.02-0.46-10.46-0.8v-49.77C-547.68-314.75-544.19-314.48-540.66-314.28"
					/>
				<path class="st20" d="M-551.12-315.08v49.77c-3.47-0.34-6.89-0.75-10.26-1.22v-49.77
					C-558.01-315.83-554.59-315.42-551.12-315.08"/>
				<path class="st20" d="M-561.38-316.31v49.77c-3.5-0.5-6.94-1.06-10.32-1.7v-49.77C-568.32-317.37-564.88-316.8-561.38-316.31"/>
				<path class="st20" d="M-571.69-318.01v49.77c-3.63-0.69-7.19-1.45-10.65-2.3v-49.77C-578.88-319.46-575.33-318.69-571.69-318.01
					"/>
				<path class="st20" d="M-582.35-320.3v49.77c-3.9-0.95-7.68-1.99-11.35-3.13v-49.77C-590.03-322.3-586.24-321.25-582.35-320.3"/>
				<path class="st20" d="M-593.7-323.43v49.77c-4.69-1.45-9.18-3.05-13.45-4.78v-49.77C-602.88-326.48-598.39-324.88-593.7-323.43"
					/>
				<path class="st20" d="M-607.14-328.21v49.77c-28.85-11.73-47.29-29.62-47.29-49.67v-49.77
					C-654.43-357.84-635.99-339.95-607.14-328.21"/>
			</g>
		</g>
	</g>
	<g>
		<path class="st8" d="M-618.95-355.01c1.43,1.13,3.04,1.7,4.82,1.7c1.44,0,2.61-0.36,3.51-1.09c0.9-0.73,1.35-1.73,1.35-3
			c0-2.78-1.96-4.18-5.89-4.18h-1.72v-1.93h1.64c3.48,0,5.23-1.3,5.23-3.91c0-2.42-1.33-3.62-3.99-3.62c-1.47,0-2.86,0.51-4.15,1.52
			v-2.25c1.33-0.8,2.9-1.2,4.71-1.2c1.65,0,3.02,0.45,4.1,1.36s1.62,2.11,1.62,3.61c0,2.73-1.4,4.5-4.19,5.31v0.05
			c1.48,0.13,2.67,0.65,3.58,1.56c0.9,0.92,1.35,2.06,1.35,3.42c0,1.9-0.68,3.42-2.05,4.55c-1.37,1.13-3.12,1.7-5.25,1.7
			c-1.96,0-3.52-0.37-4.69-1.12V-355.01z"/>
		<path class="st8" d="M-590.57-351.75h-11.72v-2.01h4.74v-16.41l-4.86,1.47v-2.17l7.11-2.22v19.33h4.73V-351.75z"/>
		<path class="st8" d="M-587.71-367.38c0-1.71,0.45-3.06,1.35-4.05c0.9-1,2.12-1.5,3.64-1.5c1.47,0,2.62,0.46,3.44,1.39
			c0.82,0.93,1.23,2.22,1.23,3.86c0,1.63-0.46,2.96-1.37,3.98c-0.91,1.02-2.11,1.53-3.6,1.53c-1.44,0-2.58-0.48-3.43-1.43
			C-587.29-364.56-587.71-365.82-587.71-367.38z M-585.84-367.51c0,1.19,0.27,2.13,0.8,2.8s1.26,1,2.18,1
			c0.93,0,1.66-0.34,2.18-1.03c0.52-0.69,0.78-1.64,0.78-2.86c0-1.2-0.26-2.14-0.77-2.8c-0.52-0.66-1.23-1-2.13-1
			c-0.92,0-1.66,0.35-2.21,1.06C-585.57-369.63-585.84-368.69-585.84-367.51z M-569.12-372.62l-13.36,21.03h-1.99l13.36-21.03
			H-569.12z M-575.31-356.64c0-1.7,0.45-3.06,1.35-4.07s2.11-1.53,3.62-1.53c1.46,0,2.61,0.47,3.43,1.41s1.24,2.25,1.24,3.92
			c0,1.64-0.46,2.97-1.38,3.97c-0.92,1.01-2.11,1.51-3.58,1.51c-1.41,0-2.54-0.48-3.4-1.43S-575.31-355.07-575.31-356.64z
			 M-573.46-356.77c0,1.17,0.27,2.09,0.81,2.76c0.54,0.67,1.26,1.01,2.16,1.01c0.93,0,1.66-0.35,2.18-1.04
			c0.52-0.7,0.78-1.65,0.78-2.86s-0.26-2.14-0.77-2.79c-0.51-0.65-1.22-0.97-2.13-0.97c-0.95,0-1.7,0.35-2.24,1.04
			C-573.19-358.92-573.46-357.97-573.46-356.77z"/>
	</g>
</g>
<g>
	<g>
		<g>
			<defs>
				<path id="SVGID_00000176031904571888556940000010591876377106850213_" d="M-493.32-316.07v49.77
					c-11.19,1.5-21.53,2.18-33.12,2.18v-49.77C-514.85-313.89-504.52-314.57-493.32-316.07z"/>
			</defs>
			<use xlink:href="#SVGID_00000176031904571888556940000010591876377106850213_"  style="overflow:visible;fill:#54B244;"/>
			<clipPath id="SVGID_00000116210583212161308110000015451909670832940435_">
				<use xlink:href="#SVGID_00000176031904571888556940000010591876377106850213_"  style="overflow:visible;"/>
			</clipPath>
			<g style="clip-path:url(#SVGID_00000116210583212161308110000015451909670832940435_);enable-background:new    ;">
				<path class="st27" d="M-493.32-316.07v49.77c-4.27,0.57-8.42,1.03-12.56,1.37v-49.77C-501.74-315.05-497.6-315.5-493.32-316.07"
					/>
				<path class="st27" d="M-505.88-314.7v49.77c-3.94,0.32-7.88,0.55-11.91,0.68v-49.77C-513.76-314.16-509.83-314.38-505.88-314.7"
					/>
				<path class="st27" d="M-517.8-314.03v49.77c-2.83,0.09-5.7,0.13-8.65,0.13v-49.77C-523.49-313.89-520.62-313.94-517.8-314.03"/>
			</g>
		</g>
		<g>
			<path class="st28" d="M-526.45-313.89v-63.99l33.12,61.81C-504.52-314.57-514.85-313.89-526.45-313.89z"/>
		</g>
	</g>
	<g>
		<path class="st8" d="M-522.82-286.13h-2.69v5.6h-2.24v-5.6h-9.86v-1.48l9.32-13.78h2.77v13.4h2.69V-286.13z M-527.75-287.99v-9.19
			c0-0.64,0.02-1.36,0.05-2.17h-0.05c-0.07,0.2-0.34,0.73-0.79,1.6l-6.56,9.75H-527.75z"/>
		<path class="st8" d="M-520.18-281.78c0-0.44,0.16-0.81,0.47-1.12c0.31-0.31,0.68-0.46,1.09-0.46c0.43,0,0.8,0.15,1.1,0.46
			s0.46,0.68,0.46,1.12c0,0.43-0.15,0.8-0.46,1.11s-0.68,0.46-1.1,0.46c-0.41,0-0.78-0.15-1.09-0.45
			C-520.03-280.96-520.18-281.33-520.18-281.78z"/>
		<path class="st8" d="M-501.16-280.53h-11.72v-2.01h4.74v-16.41l-4.86,1.47v-2.17l7.11-2.22v19.33h4.73V-280.53z"/>
		<path class="st8" d="M-498.31-296.15c0-1.71,0.45-3.06,1.35-4.05c0.9-1,2.12-1.5,3.64-1.5c1.47,0,2.62,0.46,3.44,1.39
			c0.82,0.93,1.23,2.22,1.23,3.86c0,1.63-0.46,2.96-1.37,3.98c-0.91,1.02-2.11,1.53-3.6,1.53c-1.44,0-2.58-0.48-3.43-1.43
			C-497.88-293.33-498.31-294.59-498.31-296.15z M-496.44-296.29c0,1.19,0.27,2.13,0.8,2.8s1.26,1,2.18,1
			c0.93,0,1.66-0.34,2.18-1.03c0.52-0.69,0.78-1.64,0.78-2.86c0-1.2-0.26-2.14-0.77-2.8s-1.23-1-2.14-1c-0.92,0-1.66,0.35-2.21,1.06
			C-496.16-298.41-496.44-297.46-496.44-296.29z M-479.72-301.39l-13.36,21.03h-1.99l13.36-21.03H-479.72z M-485.9-285.42
			c0-1.7,0.45-3.06,1.35-4.07s2.11-1.53,3.62-1.53c1.46,0,2.61,0.47,3.43,1.41c0.83,0.94,1.24,2.25,1.24,3.92
			c0,1.64-0.46,2.97-1.38,3.97c-0.92,1.01-2.11,1.51-3.58,1.51c-1.41,0-2.54-0.48-3.4-1.43S-485.9-283.85-485.9-285.42z
			 M-484.06-285.54c0,1.17,0.27,2.09,0.81,2.76c0.54,0.67,1.26,1.01,2.16,1.01c0.93,0,1.66-0.35,2.18-1.04
			c0.52-0.7,0.78-1.65,0.78-2.86s-0.26-2.14-0.77-2.79c-0.51-0.65-1.22-0.97-2.13-0.97c-0.95,0-1.7,0.35-2.24,1.04
			C-483.79-287.69-484.06-286.74-484.06-285.54z"/>
	</g>
</g>
<g>
	<g>
		<g>
			<defs>
				<path id="SVGID_00000120523134400480863820000001416104917549403292_" d="M255.83,103.16l0,49.71
					c0,26.94-34.34,51.99-88.35,60.77c-13.43,2.19-25.38,3.13-39.51,3.13l0-49.71c14.12,0,26.08-0.95,39.51-3.13
					C221.5,155.15,255.83,130.1,255.83,103.16z"/>
			</defs>
			<use xlink:href="#SVGID_00000120523134400480863820000001416104917549403292_"  style="overflow:visible;fill:#C4BE49;"/>
			<clipPath id="SVGID_00000007394011392674332930000012146757729789181106_">
				<use xlink:href="#SVGID_00000120523134400480863820000001416104917549403292_"  style="overflow:visible;"/>
			</clipPath>
			<g style="clip-path:url(#SVGID_00000007394011392674332930000012146757729789181106_);enable-background:new    ;">
				<path class="st18" d="M255.83,103.16v49.71c0,0.25,0,0.49-0.01,0.74V103.9C255.83,103.65,255.83,103.4,255.83,103.16"/>
				<path class="st18" d="M255.82,103.9v49.71c-0.04,1.81-0.24,3.62-0.59,5.41V109.3C255.58,107.51,255.78,105.71,255.82,103.9"/>
				<path class="st18" d="M255.24,109.3v49.71c-0.34,1.75-0.83,3.5-1.46,5.22v-49.71C254.41,112.8,254.89,111.06,255.24,109.3"/>
				<path class="st18" d="M253.78,114.52v49.71c-0.63,1.74-1.41,3.46-2.32,5.15v-49.71C252.37,117.98,253.15,116.26,253.78,114.52"
					/>
				<path class="st18" d="M251.46,119.68v49.71c-0.94,1.76-2.04,3.49-3.27,5.19v-49.71C249.43,123.17,250.52,121.44,251.46,119.68"
					/>
				<path class="st18" d="M248.19,124.87v49.71c-1.32,1.82-2.8,3.6-4.43,5.35v-49.71C245.4,128.47,246.87,126.69,248.19,124.87"/>
				<path class="st18" d="M243.76,130.22v49.71c-1.81,1.93-3.81,3.82-6,5.66v-49.71C239.95,134.05,241.95,132.16,243.76,130.22"/>
				<path class="st18" d="M237.76,135.88v49.71c-2.68,2.25-5.64,4.42-8.86,6.5v-49.71C232.12,140.3,235.08,138.13,237.76,135.88"/>
				<path class="st18" d="M228.9,142.38v49.71c-5.14,3.31-10.94,6.38-17.35,9.15v-49.71C217.96,148.75,223.76,145.68,228.9,142.38"
					/>
				<path class="st18" d="M211.55,151.53v49.71c-7.23,3.12-15.23,5.87-23.93,8.16v-49.71C196.31,157.4,204.32,154.65,211.55,151.53"
					/>
				<path class="st18" d="M187.62,159.68v49.71c-6.35,1.67-13.08,3.09-20.13,4.24c-1.48,0.24-2.94,0.47-4.39,0.68V164.6
					c1.45-0.21,2.91-0.44,4.39-0.68C174.54,162.78,181.26,161.35,187.62,159.68"/>
				<path class="st18" d="M163.09,164.6v49.71c-4.89,0.71-9.63,1.26-14.41,1.65v-49.71C153.47,165.86,158.21,165.31,163.09,164.6"/>
				<path class="st18" d="M148.69,166.25v49.71c-3.85,0.32-7.73,0.54-11.73,0.66v-49.71C140.96,166.79,144.84,166.57,148.69,166.25"
					/>
				<path class="st18" d="M136.95,166.92v49.71c-2.91,0.09-5.89,0.14-8.98,0.14v-49.71C131.06,167.05,134.04,167.01,136.95,166.92"
					/>
			</g>
		</g>
		<g>
			<path class="st19" d="M127.98,167.05v-63.91L249.54,83.4c21.81,33.57-14.93,69.62-82.06,80.53
				C154.05,166.11,142.1,167.05,127.98,167.05z"/>
		</g>
	</g>
	<g>
		<path class="st8" d="M162.15,132.39c1.43,1.13,3.03,1.69,4.82,1.69c1.43,0,2.6-0.36,3.5-1.09c0.9-0.73,1.35-1.73,1.35-3
			c0-2.78-1.96-4.17-5.88-4.17h-1.72v-1.92h1.64c3.48,0,5.22-1.3,5.22-3.9c0-2.41-1.33-3.62-3.98-3.62c-1.47,0-2.85,0.51-4.14,1.52
			v-2.25c1.33-0.8,2.9-1.2,4.71-1.2c1.65,0,3.02,0.45,4.1,1.36c1.08,0.91,1.62,2.11,1.62,3.61c0,2.73-1.39,4.49-4.18,5.3v0.05
			c1.48,0.13,2.67,0.65,3.57,1.56c0.9,0.91,1.35,2.05,1.35,3.42c0,1.9-0.68,3.42-2.05,4.55c-1.37,1.13-3.11,1.69-5.24,1.69
			c-1.96,0-3.52-0.37-4.68-1.12V132.39z"/>
		<path class="st8" d="M177.5,125.65c0-3.68,0.6-6.46,1.8-8.35c1.2-1.89,2.93-2.84,5.19-2.84c4.33,0,6.5,3.56,6.5,10.68
			c0,3.46-0.59,6.14-1.78,8.02c-1.19,1.89-2.92,2.83-5.19,2.83c-2.12,0-3.73-0.91-4.84-2.72
			C178.06,131.46,177.5,128.92,177.5,125.65z M179.79,125.53c0,5.7,1.49,8.56,4.47,8.56c2.95,0,4.43-2.89,4.43-8.68
			c0-6.02-1.44-9.03-4.32-9.03C181.31,116.38,179.79,119.43,179.79,125.53z"/>
		<path class="st8" d="M193.35,120.04c0-1.7,0.45-3.05,1.35-4.05c0.9-1,2.11-1.49,3.64-1.49c1.47,0,2.62,0.46,3.44,1.39
			c0.82,0.93,1.23,2.21,1.23,3.85c0,1.63-0.46,2.96-1.37,3.98s-2.11,1.53-3.6,1.53c-1.43,0-2.58-0.48-3.42-1.43
			C193.77,122.86,193.35,121.6,193.35,120.04z M195.22,119.9c0,1.19,0.27,2.12,0.8,2.79c0.53,0.67,1.26,1,2.17,1
			c0.93,0,1.66-0.34,2.18-1.03c0.52-0.69,0.78-1.64,0.78-2.86c0-1.2-0.26-2.13-0.77-2.8s-1.23-1-2.13-1c-0.92,0-1.66,0.35-2.21,1.06
			S195.22,118.73,195.22,119.9z M211.91,114.81l-13.34,21h-1.99l13.34-21H211.91z M205.74,130.76c0-1.69,0.45-3.05,1.35-4.07
			c0.9-1.02,2.1-1.53,3.62-1.53c1.46,0,2.61,0.47,3.43,1.41c0.83,0.94,1.24,2.25,1.24,3.91c0,1.64-0.46,2.96-1.38,3.97
			s-2.11,1.51-3.57,1.51c-1.41,0-2.54-0.48-3.4-1.43S205.74,132.33,205.74,130.76z M207.58,130.64c0,1.17,0.27,2.09,0.81,2.76
			s1.26,1.01,2.16,1.01c0.93,0,1.66-0.35,2.18-1.04c0.52-0.7,0.78-1.65,0.78-2.86c0-1.21-0.26-2.14-0.77-2.78
			c-0.51-0.65-1.22-0.97-2.13-0.97c-0.95,0-1.69,0.35-2.23,1.04S207.58,129.44,207.58,130.64z"/>
	</g>
</g>
</svg>
