<?xml version="1.0" encoding="utf-8"?>
<!-- Generator: Adobe Illustrator 27.0.0, SVG Export Plug-In . SVG Version: 6.00 Build 0)  -->
<svg version="1.1" id="圖層_1" xmlns="http://www.w3.org/2000/svg" xmlns:xlink="http://www.w3.org/1999/xlink" x="0px" y="0px"
	 viewBox="0 0 256 256" style="enable-background:new 0 0 256 256;" xml:space="preserve">
<style type="text/css">
	.st0{fill:#798E99;}
	.st1{fill:#89A1AF;}
	.st2{enable-background:new    ;}
	.st3{clip-path:url(#SVGID_00000054232596978789172230000015204035214124459948_);enable-background:new    ;}
	.st4{clip-path:url(#SVGID_00000019662400467167603810000013243532875571175342_);enable-background:new    ;}
	.st5{fill:#235D84;}
	.st6{clip-path:url(#SVGID_00000152968664802718254680000006960512458244710787_);enable-background:new    ;}
	.st7{fill:#256599;}
	.st8{fill:#FFFFFF;}
	.st9{clip-path:url(#SVGID_00000085951475687571700220000009827085549764082849_);enable-background:new    ;}
	.st10{clip-path:url(#SVGID_00000026858450471519949350000015295970939429595033_);enable-background:new    ;}
	.st11{clip-path:url(#SVGID_00000090257678396000934700000006501635582174117510_);enable-background:new    ;}
	.st12{clip-path:url(#SVGID_00000069377504724918756290000016217955592422254772_);enable-background:new    ;}
	.st13{clip-path:url(#SVGID_00000137095995845789241020000013284708649389282952_);enable-background:new    ;}
	.st14{fill:#2E7EAA;}
	.st15{fill:#3387C1;}
	.st16{clip-path:url(#SVGID_00000072270592572459450370000015068893560340459402_);enable-background:new    ;}
	.st17{clip-path:url(#SVGID_00000083050793571305911490000014489501078287815100_);enable-background:new    ;}
	.st18{fill:#C4BE49;}
	.st19{fill:#D8D84A;}
	.st20{fill:#25628C;}
	.st21{clip-path:url(#SVGID_00000178187902157372344410000006905713713394194827_);enable-background:new    ;}
	.st22{clip-path:url(#SVGID_00000098206763522796679920000005076328010540777373_);enable-background:new    ;}
	.st23{clip-path:url(#SVGID_00000003077850354405175300000017980009873649086626_);enable-background:new    ;}
	.st24{clip-path:url(#SVGID_00000005946177068920324430000014814110935261792416_);enable-background:new    ;}
	.st25{clip-path:url(#SVGID_00000158708651964285025650000012039270383996095668_);enable-background:new    ;}
	.st26{clip-path:url(#SVGID_00000086649478457747668390000007638803318062816142_);enable-background:new    ;}
	.st27{clip-path:url(#SVGID_00000064315457735935155730000008062138965260148391_);enable-background:new    ;}
	.st28{fill:#54B244;}
	.st29{fill:#59C64A;}
	.st30{clip-path:url(#SVGID_00000091694396434172368410000002871364243572560537_);enable-background:new    ;}
	.st31{clip-path:url(#SVGID_00000061445830425628887320000002704012190771018682_);enable-background:new    ;}
	.st32{clip-path:url(#SVGID_00000059989324976312033810000006170386872167103891_);enable-background:new    ;}
	.st33{clip-path:url(#SVGID_00000105389787725055849110000013356180797343471018_);enable-background:new    ;}
	.st34{clip-path:url(#SVGID_00000035513018881107555530000017159068219707963800_);enable-background:new    ;}
</style>
<g>
	<g>
		<g>
			<polygon class="st14" points="128.03,117.53 128.03,167.08 52.78,115.54 52.78,65.99 			"/>
		</g>
		<g>
			<path class="st15" d="M128.03,53.82v63.71L52.78,65.99C75.2,57.88,100.32,53.82,128.03,53.82z"/>
		</g>
	</g>
	<g>
		<path class="st8" d="M66.48,66.56c1.18,0.65,2.4,0.98,3.68,0.98c1.9,0,3.38-0.77,4.45-2.31s1.6-3.73,1.6-6.58
			c-0.02,0.02-0.04,0.02-0.05,0c-0.9,1.81-2.46,2.71-4.69,2.71c-1.8,0-3.27-0.61-4.41-1.84c-1.14-1.22-1.71-2.77-1.71-4.63
			c0-1.98,0.61-3.62,1.83-4.94c1.22-1.32,2.83-1.98,4.83-1.98c2.09,0,3.7,0.82,4.81,2.45c1.11,1.63,1.67,3.98,1.67,7.03
			c0,3.77-0.73,6.71-2.19,8.82c-1.46,2.11-3.54,3.16-6.23,3.16c-1.39,0-2.59-0.23-3.58-0.7V66.56z M67.66,54.56
			c0,1.45,0.38,2.61,1.15,3.48c0.76,0.87,1.81,1.31,3.15,1.31c1.19,0,2.17-0.39,2.94-1.17c0.78-0.78,1.17-1.73,1.17-2.84
			c0-1.55-0.39-2.84-1.17-3.88c-0.78-1.04-1.81-1.56-3.11-1.56c-1.21,0-2.21,0.45-2.98,1.36S67.66,53.26,67.66,54.56z"/>
		<path class="st8" d="M81.58,67.85c0-0.44,0.16-0.81,0.47-1.12s0.68-0.46,1.09-0.46c0.43,0,0.8,0.15,1.1,0.46
			c0.31,0.31,0.46,0.68,0.46,1.12c0,0.43-0.15,0.8-0.46,1.11s-0.68,0.46-1.1,0.46c-0.41,0-0.78-0.15-1.09-0.45
			C81.73,68.67,81.58,68.29,81.58,67.85z"/>
		<path class="st8" d="M100.2,69.09H87.71v-2.02l6.08-6.09c2.01-2.02,3.25-3.48,3.71-4.39s0.69-1.87,0.69-2.89
			c0-1.22-0.35-2.17-1.04-2.83s-1.7-0.99-3-0.99c-1.86,0-3.65,0.8-5.36,2.4v-2.39c1.61-1.28,3.49-1.92,5.66-1.92
			c1.8,0,3.24,0.5,4.32,1.49c1.08,0.99,1.62,2.34,1.62,4.04c0,1.31-0.36,2.59-1.07,3.86c-0.71,1.27-2.06,2.89-4.05,4.86L90.4,67
			v0.05h9.8V69.09z"/>
		<path class="st8" d="M103.46,53.54c0-1.7,0.45-3.04,1.35-4.04s2.12-1.49,3.65-1.49c1.47,0,2.62,0.46,3.44,1.39
			c0.82,0.93,1.23,2.21,1.23,3.84c0,1.63-0.46,2.95-1.37,3.96c-0.91,1.01-2.11,1.52-3.6,1.52c-1.44,0-2.58-0.48-3.43-1.43
			S103.46,55.09,103.46,53.54z M105.33,53.4c0,1.19,0.27,2.12,0.8,2.78c0.53,0.67,1.26,1,2.18,1c0.93,0,1.66-0.34,2.18-1.03
			c0.52-0.68,0.78-1.63,0.78-2.85c0-1.2-0.26-2.13-0.77-2.79c-0.52-0.66-1.23-0.99-2.14-0.99c-0.93,0-1.66,0.35-2.21,1.06
			C105.61,51.29,105.33,52.23,105.33,53.4z M122.06,48.32l-13.37,20.93h-1.99l13.37-20.93H122.06z M115.87,64.23
			c0-1.69,0.45-3.04,1.35-4.06s2.11-1.52,3.62-1.52c1.46,0,2.61,0.47,3.44,1.41c0.83,0.94,1.24,2.24,1.24,3.9
			c0,1.64-0.46,2.95-1.38,3.96c-0.92,1-2.11,1.5-3.58,1.5c-1.41,0-2.54-0.47-3.4-1.42C116.3,67.05,115.87,65.79,115.87,64.23z
			 M117.72,64.11c0,1.16,0.27,2.08,0.82,2.75c0.54,0.67,1.26,1.01,2.16,1.01c0.93,0,1.66-0.35,2.18-1.04
			c0.52-0.69,0.78-1.64,0.78-2.85s-0.26-2.13-0.77-2.78c-0.51-0.64-1.22-0.97-2.13-0.97c-0.95,0-1.7,0.35-2.24,1.04
			C117.99,61.96,117.72,62.91,117.72,64.11z"/>
	</g>
</g>
<g>
	<g>
		<g class="st2">
			<defs>
				<path id="SVGID_00000017492393244602868560000000475349774965807031_" class="st2" d="M256.07,117.53v49.55
					c0,35.18-57.32,63.7-128.04,63.7C57.32,230.79,0,202.26,0,167.08l0-49.55c0,35.18,57.32,63.7,128.03,63.7
					C198.75,181.24,256.07,152.71,256.07,117.53z"/>
			</defs>
			<use xlink:href="#SVGID_00000017492393244602868560000000475349774965807031_"  style="overflow:visible;fill:#256599;"/>
			<clipPath id="SVGID_00000000207278000561867920000016635616396881637004_">
				<use xlink:href="#SVGID_00000017492393244602868560000000475349774965807031_"  style="overflow:visible;"/>
			</clipPath>
			<g style="clip-path:url(#SVGID_00000000207278000561867920000016635616396881637004_);enable-background:new    ;">
				<path class="st7" d="M256.06,118.28v49.55c-0.04,1.85-0.24,3.68-0.6,5.49v-49.55C255.82,121.96,256.02,120.13,256.06,118.28"/>
				<path class="st7" d="M255.46,123.77v49.55c-0.34,1.76-0.83,3.51-1.46,5.23V129C254.63,127.28,255.12,125.54,255.46,123.77"/>
				<path class="st7" d="M254,129v49.55c-0.63,1.73-1.4,3.43-2.31,5.11v-49.55C252.6,132.43,253.37,130.73,254,129"/>
				<path class="st7" d="M251.69,134.11v49.55c-0.94,1.74-2.02,3.45-3.24,5.12v-49.55C249.67,137.56,250.75,135.85,251.69,134.11"/>
				<path class="st7" d="M248.45,139.23v49.55c-1.31,1.8-2.78,3.56-4.39,5.27v-49.55C245.67,142.79,247.14,141.03,248.45,139.23"/>
				<path class="st7" d="M244.06,144.51v49.55c-1.81,1.92-3.81,3.79-5.98,5.6v-49.55C240.25,148.3,242.25,146.43,244.06,144.51"/>
				<path class="st7" d="M238.08,150.11v49.55c-2.68,2.24-5.63,4.39-8.83,6.44v-49.55C232.45,154.5,235.4,152.35,238.08,150.11"/>
				<path class="st7" d="M229.25,156.55v49.55c-5.23,3.36-11.13,6.45-17.58,9.22v-49.55C218.13,162.99,224.02,159.9,229.25,156.55"
					/>
				<path class="st7" d="M211.67,165.77v49.55c-7.39,3.18-15.53,5.94-24.25,8.22v-49.55C196.14,171.71,204.28,168.94,211.67,165.77"
					/>
				<path class="st7" d="M187.42,173.98v49.55c-7.35,1.92-15.13,3.49-23.24,4.68v-49.55C172.29,177.48,180.06,175.9,187.42,173.98"
					/>
				<path class="st7" d="M164.18,178.66v49.55c-4.94,0.72-10,1.3-15.17,1.72v-49.55C154.18,179.96,159.24,179.38,164.18,178.66"/>
				<path class="st7" d="M149.01,180.39v49.55c-4.14,0.34-8.34,0.58-12.6,0.72V181.1C140.66,180.97,144.87,180.72,149.01,180.39"/>
				<path class="st7" d="M136.4,181.1v49.55c-2.77,0.09-5.56,0.13-8.37,0.13c-1.1,0-2.2-0.01-3.29-0.02v-49.55
					c1.09,0.01,2.19,0.02,3.29,0.02C130.84,181.24,133.63,181.19,136.4,181.1"/>
				<path class="st7" d="M124.74,181.22v49.55c-3.68-0.05-7.33-0.17-10.92-0.37v-49.55C117.41,181.05,121.06,181.17,124.74,181.22"
					/>
				<path class="st7" d="M113.81,180.85v49.55c-3.53-0.19-7.02-0.46-10.46-0.79v-49.55C106.79,180.39,110.28,180.65,113.81,180.85"
					/>
				<path class="st7" d="M103.35,180.05v49.55c-3.47-0.34-6.9-0.74-10.26-1.22v-49.55C96.46,179.31,99.88,179.72,103.35,180.05"/>
				<path class="st7" d="M93.09,178.83v49.55c-3.5-0.49-6.95-1.06-10.32-1.69v-49.55C86.14,177.78,89.59,178.34,93.09,178.83"/>
				<path class="st7" d="M82.77,177.14v49.55c-3.63-0.68-7.19-1.45-10.66-2.29v-49.55C75.58,175.69,79.13,176.46,82.77,177.14"/>
				<path class="st7" d="M72.11,174.85v49.55c-3.9-0.94-7.69-1.98-11.35-3.11v-49.55C64.42,172.87,68.21,173.91,72.11,174.85"/>
				<path class="st7" d="M60.76,171.74v49.55c-4.69-1.45-9.19-3.04-13.45-4.76v-49.55C51.57,168.71,56.06,170.3,60.76,171.74"/>
				<path class="st7" d="M47.31,166.98v49.55C18.44,204.85,0,187.04,0,167.08v-49.55C0,137.49,18.44,155.3,47.31,166.98"/>
			</g>
		</g>
		<g>
			<path class="st7" d="M128.03,53.82c70.72,0,128.04,28.52,128.04,63.71c0,35.18-57.32,63.7-128.04,63.7
				C57.32,181.24,0,152.71,0,117.53c0-21.4,18-38.97,52.78-51.54l75.25,51.54V53.82z"/>
		</g>
	</g>
	<g>
		<path class="st8" d="M124.03,146.03c1.18,0.65,2.4,0.98,3.68,0.98c1.9,0,3.38-0.77,4.45-2.31c1.07-1.54,1.6-3.73,1.6-6.58
			c-0.02,0.02-0.04,0.02-0.05,0c-0.9,1.81-2.46,2.71-4.69,2.71c-1.8,0-3.27-0.61-4.41-1.84s-1.71-2.77-1.71-4.63
			c0-1.98,0.61-3.62,1.83-4.94s2.83-1.98,4.83-1.98c2.09,0,3.7,0.82,4.81,2.45c1.11,1.63,1.67,3.98,1.67,7.03
			c0,3.77-0.73,6.71-2.19,8.82s-3.54,3.16-6.23,3.16c-1.39,0-2.59-0.23-3.58-0.7V146.03z M125.2,134.03c0,1.45,0.38,2.61,1.15,3.48
			c0.76,0.87,1.81,1.31,3.15,1.31c1.19,0,2.17-0.39,2.94-1.17c0.78-0.78,1.17-1.73,1.17-2.84c0-1.55-0.39-2.84-1.17-3.88
			c-0.78-1.04-1.81-1.56-3.11-1.56c-1.21,0-2.21,0.45-2.98,1.36C125.59,131.63,125.2,132.73,125.2,134.03z"/>
		<path class="st8" d="M138.77,138.6c0-3.67,0.6-6.44,1.8-8.33c1.2-1.89,2.93-2.83,5.19-2.83c4.34,0,6.51,3.55,6.51,10.65
			c0,3.45-0.6,6.12-1.79,8c-1.19,1.88-2.92,2.82-5.19,2.82c-2.12,0-3.74-0.9-4.85-2.71C139.33,144.4,138.77,141.86,138.77,138.6z
			 M141.06,138.48c0,5.69,1.49,8.53,4.47,8.53c2.96,0,4.43-2.88,4.43-8.65c0-6-1.44-9-4.33-9
			C142.59,129.36,141.06,132.4,141.06,138.48z"/>
		<path class="st8" d="M155.12,147.32c0-0.44,0.16-0.81,0.47-1.12c0.31-0.31,0.68-0.46,1.09-0.46c0.43,0,0.8,0.15,1.1,0.46
			c0.31,0.31,0.46,0.68,0.46,1.12c0,0.43-0.15,0.8-0.46,1.11c-0.31,0.31-0.68,0.46-1.1,0.46c-0.41,0-0.78-0.15-1.09-0.45
			C155.27,148.14,155.12,147.76,155.12,147.32z"/>
		<path class="st8" d="M165.87,137.62c-2.52-1.18-3.77-2.87-3.77-5.07c0-1.52,0.58-2.75,1.75-3.69c1.17-0.94,2.61-1.41,4.34-1.41
			c1.55,0,2.85,0.44,3.92,1.32s1.6,2.04,1.6,3.47c0,2.31-1.29,4.1-3.88,5.39v0.05c3.05,1.14,4.57,3.02,4.57,5.63
			c0,1.77-0.63,3.15-1.9,4.13c-1.27,0.98-2.96,1.48-5.08,1.48c-1.73,0-3.18-0.5-4.35-1.5s-1.75-2.3-1.75-3.91
			c0-2.66,1.51-4.61,4.54-5.83V137.62z M167.7,138.76c-2.7,1.07-4.06,2.62-4.06,4.64c0,1.12,0.4,2,1.21,2.64
			c0.81,0.64,1.84,0.96,3.09,0.96c1.2,0,2.2-0.32,2.98-0.96c0.78-0.64,1.17-1.49,1.17-2.54
			C172.09,141.39,170.63,139.81,167.7,138.76z M171.38,132.53c0-0.98-0.31-1.75-0.94-2.31c-0.62-0.56-1.45-0.84-2.49-0.84
			c-0.95,0-1.78,0.29-2.48,0.88s-1.05,1.33-1.05,2.22c0,1.84,1.15,3.23,3.44,4.17C170.21,135.66,171.38,134.29,171.38,132.53z"/>
		<path class="st8" d="M177,133.01c0-1.7,0.45-3.04,1.35-4.04s2.12-1.49,3.65-1.49c1.47,0,2.62,0.46,3.44,1.39
			c0.82,0.93,1.23,2.21,1.23,3.84c0,1.63-0.46,2.95-1.37,3.96c-0.91,1.01-2.11,1.52-3.6,1.52c-1.44,0-2.58-0.48-3.43-1.43
			C177.42,135.82,177,134.56,177,133.01z M178.87,132.87c0,1.19,0.27,2.12,0.8,2.78c0.53,0.67,1.26,1,2.18,1
			c0.93,0,1.66-0.34,2.18-1.03s0.78-1.63,0.78-2.85c0-1.2-0.26-2.13-0.77-2.79c-0.52-0.66-1.23-0.99-2.14-0.99
			c-0.93,0-1.66,0.35-2.21,1.06S178.87,131.7,178.87,132.87z M195.6,127.79l-13.37,20.93h-1.99l13.37-20.93H195.6z M189.41,143.7
			c0-1.69,0.45-3.04,1.35-4.06c0.9-1.01,2.11-1.52,3.62-1.52c1.46,0,2.61,0.47,3.44,1.41c0.83,0.94,1.24,2.24,1.24,3.9
			c0,1.64-0.46,2.95-1.38,3.96c-0.92,1-2.11,1.5-3.58,1.5c-1.41,0-2.54-0.47-3.4-1.42S189.41,145.26,189.41,143.7z M191.26,143.58
			c0,1.16,0.27,2.08,0.82,2.75c0.54,0.67,1.26,1.01,2.16,1.01c0.93,0,1.66-0.35,2.18-1.04c0.52-0.69,0.78-1.64,0.78-2.85
			c0-1.21-0.26-2.13-0.77-2.78c-0.51-0.64-1.22-0.97-2.13-0.97c-0.95,0-1.7,0.35-2.24,1.04
			C191.53,141.43,191.26,142.38,191.26,143.58z"/>
	</g>
</g>
</svg>
