<?xml version="1.0" encoding="utf-8"?>
<!-- Generator: Adobe Illustrator 27.0.0, SVG Export Plug-In . SVG Version: 6.00 Build 0)  -->
<svg version="1.1" id="圖層_1" xmlns="http://www.w3.org/2000/svg" xmlns:xlink="http://www.w3.org/1999/xlink" x="0px" y="0px"
	 viewBox="0 0 256 256" style="enable-background:new 0 0 256 256;" xml:space="preserve">
<style type="text/css">
	.st0{fill:#798E99;}
	.st1{fill:#89A1AF;}
	.st2{enable-background:new    ;}
	.st3{clip-path:url(#SVGID_00000021094270416502107720000014615857128789682081_);enable-background:new    ;}
	.st4{clip-path:url(#SVGID_00000079486688084784082980000018423595066786580148_);enable-background:new    ;}
	.st5{fill:#235D84;}
	.st6{clip-path:url(#SVGID_00000149361355826327054660000000321519222930720147_);enable-background:new    ;}
	.st7{fill:#256599;}
	.st8{fill:#FFFFFF;}
	.st9{clip-path:url(#SVGID_00000037691222456409111260000018130314506880523659_);enable-background:new    ;}
	.st10{clip-path:url(#SVGID_00000103247620853894972920000009162921400357766549_);enable-background:new    ;}
	.st11{clip-path:url(#SVGID_00000168091363981756412050000009179811180939944383_);enable-background:new    ;}
	.st12{clip-path:url(#SVGID_00000073002282897102106830000002351489176233251767_);enable-background:new    ;}
	.st13{clip-path:url(#SVGID_00000044881145373059916770000011109738120334155654_);enable-background:new    ;}
	.st14{fill:#2E7EAA;}
	.st15{fill:#3387C1;}
	.st16{clip-path:url(#SVGID_00000038392065133013320370000014537832654251429278_);enable-background:new    ;}
	.st17{clip-path:url(#SVGID_00000072271576513562707620000002163740524005134497_);enable-background:new    ;}
	.st18{fill:#C4BE49;}
	.st19{fill:#D8D84A;}
	.st20{fill:#25628C;}
	.st21{clip-path:url(#SVGID_00000073680601367244297800000011432420192509325456_);enable-background:new    ;}
	.st22{clip-path:url(#SVGID_00000119838205952415485770000004420514618900793488_);enable-background:new    ;}
	.st23{clip-path:url(#SVGID_00000164473375261825316350000005543798230889043388_);enable-background:new    ;}
	.st24{clip-path:url(#SVGID_00000067916664151071367740000011068188341188602541_);enable-background:new    ;}
	.st25{clip-path:url(#SVGID_00000062880535390792425530000000223172785650604706_);enable-background:new    ;}
	.st26{clip-path:url(#SVGID_00000093174269725834887700000003339263731410976921_);enable-background:new    ;}
	.st27{clip-path:url(#SVGID_00000011028008056181391350000015503025655781432710_);enable-background:new    ;}
	.st28{fill:#54B244;}
	.st29{fill:#59C64A;}
	.st30{clip-path:url(#SVGID_00000152233717994917581980000016505595784602769813_);enable-background:new    ;}
	.st31{clip-path:url(#SVGID_00000082343502971888061460000016656480943960523164_);enable-background:new    ;}
	.st32{clip-path:url(#SVGID_00000111901543955304433340000005084633461407300524_);enable-background:new    ;}
	.st33{clip-path:url(#SVGID_00000099646606537321750990000010926985812483194241_);enable-background:new    ;}
	.st34{clip-path:url(#SVGID_00000165221464052443224360000010550040505809461412_);enable-background:new    ;}
</style>
<g>
	<g>
		<g>
			<polygon class="st14" points="127.98,108.51 127.98,158.28 8.5,135.34 8.5,85.57 			"/>
		</g>
		<g>
			<g>
				<path class="st15" d="M240.99,138.55l-113.01-30.04L8.5,85.57C28.04,60.12,76.55,44.5,128,44.5c15.25,0,30.76,1.37,45.84,4.27
					c65.99,12.67,98.95,49.68,73.61,82.67C245.54,133.95,243.51,136.17,240.99,138.55z"/>
			</g>
			<g>
				<defs>
					<path id="SVGID_00000085966814875405672100000014608140912246906022_" d="M256,108.52l0,49.77c0,7.62-2.75,15.38-8.54,22.92
						c-1.92,2.51-3.95,4.74-6.48,7.11l0-49.77c2.52-2.37,4.55-4.6,6.48-7.11C253.25,123.89,256,116.14,256,108.52z"/>
				</defs>
				<use xlink:href="#SVGID_00000085966814875405672100000014608140912246906022_"  style="overflow:visible;fill:#2E7EAA;"/>
				<clipPath id="SVGID_00000054250204213338438870000003290933117053974692_">
					<use xlink:href="#SVGID_00000085966814875405672100000014608140912246906022_"  style="overflow:visible;"/>
				</clipPath>
				<g style="clip-path:url(#SVGID_00000054250204213338438870000003290933117053974692_);enable-background:new    ;">
					<path class="st14" d="M256,108.52v49.77c0,0.23,0,0.47-0.01,0.7v-49.77C256,108.99,256,108.75,256,108.52"/>
					<path class="st14" d="M255.99,109.22v49.77c-0.04,1.8-0.23,3.61-0.59,5.42v-49.77C255.76,112.83,255.95,111.02,255.99,109.22"
						/>
					<path class="st14" d="M255.41,114.65v49.77c-0.34,1.74-0.82,3.48-1.45,5.22v-49.77C254.59,118.13,255.07,116.39,255.41,114.65"
						/>
					<path class="st14" d="M253.95,119.87v49.77c-0.63,1.72-1.4,3.44-2.32,5.16v-49.77C252.56,123.31,253.33,121.59,253.95,119.87"
						/>
					<path class="st14" d="M251.63,125.03v49.77c-0.94,1.75-2.04,3.5-3.29,5.23v-49.77C249.6,128.53,250.69,126.78,251.63,125.03"/>
					<path class="st14" d="M248.34,130.26v49.77c-0.28,0.39-0.58,0.78-0.88,1.18c-1.11,1.45-2.25,2.8-3.51,4.14v-49.77
						c1.25-1.34,2.4-2.69,3.51-4.14C247.76,131.05,248.06,130.65,248.34,130.26"/>
					<path class="st14" d="M243.96,135.58v49.77c-0.92,0.99-1.9,1.97-2.97,2.97v-49.77C242.06,137.54,243.04,136.56,243.96,135.58"
						/>
				</g>
			</g>
		</g>
		<g>
			<polygon class="st14" points="240.99,138.55 240.99,188.32 127.98,158.28 127.98,108.51 			"/>
		</g>
	</g>
	<g>
		<path class="st8" d="M146.92,85.9c1.42,0.92,2.86,1.39,4.34,1.39c1.47,0,2.67-0.42,3.6-1.27c0.92-0.85,1.39-1.97,1.39-3.37
			c0-1.41-0.46-2.5-1.39-3.27c-0.92-0.77-2.26-1.16-4-1.16c-0.55,0-1.64,0.05-3.27,0.16V67.99h9.99v2.05h-7.85v6.25
			c0.78-0.04,1.37-0.07,1.78-0.07c2.19,0,3.91,0.55,5.15,1.65c1.24,1.1,1.87,2.65,1.87,4.64c0,2.07-0.67,3.71-2.02,4.9
			c-1.35,1.19-3.12,1.79-5.31,1.79c-1.92,0-3.35-0.29-4.27-0.86V85.9z"/>
		<path class="st8" d="M174.81,88.85h-11.72v-2.01h4.74V70.44l-4.86,1.47v-2.17l7.11-2.22v19.33h4.73V88.85z"/>
		<path class="st8" d="M178.13,87.6c0-0.44,0.16-0.81,0.47-1.12c0.31-0.31,0.68-0.46,1.09-0.46c0.43,0,0.8,0.15,1.1,0.46
			c0.31,0.31,0.46,0.68,0.46,1.12c0,0.43-0.15,0.8-0.46,1.11c-0.31,0.31-0.68,0.46-1.1,0.46c-0.41,0-0.78-0.15-1.09-0.45
			C178.29,88.42,178.13,88.05,178.13,87.6z"/>
		<path class="st8" d="M185.39,86.31c1.18,0.66,2.4,0.98,3.68,0.98c1.89,0,3.38-0.77,4.45-2.32c1.07-1.55,1.6-3.75,1.6-6.61
			c-0.02,0.02-0.04,0.02-0.05,0c-0.9,1.81-2.46,2.72-4.69,2.72c-1.8,0-3.26-0.62-4.4-1.85c-1.14-1.23-1.71-2.78-1.71-4.65
			c0-1.98,0.61-3.64,1.83-4.96c1.22-1.32,2.83-1.99,4.83-1.99c2.09,0,3.7,0.82,4.81,2.46s1.67,3.99,1.67,7.07
			c0,3.79-0.73,6.74-2.19,8.86c-1.46,2.12-3.54,3.18-6.23,3.18c-1.39,0-2.59-0.23-3.58-0.7V86.31z M186.57,74.25
			c0,1.45,0.38,2.62,1.14,3.5c0.76,0.88,1.81,1.31,3.15,1.31c1.19,0,2.17-0.39,2.94-1.18c0.78-0.79,1.17-1.74,1.17-2.85
			c0-1.55-0.39-2.85-1.17-3.9s-1.81-1.57-3.1-1.57c-1.21,0-2.2,0.46-2.98,1.37C186.95,71.84,186.57,72.95,186.57,74.25z"/>
		<path class="st8" d="M200.01,73.23c0-1.71,0.45-3.06,1.35-4.05c0.9-1,2.12-1.5,3.64-1.5c1.47,0,2.62,0.46,3.44,1.39
			s1.23,2.22,1.23,3.86c0,1.63-0.46,2.96-1.37,3.98s-2.11,1.53-3.6,1.53c-1.44,0-2.58-0.48-3.43-1.43
			C200.43,76.05,200.01,74.79,200.01,73.23z M201.88,73.09c0,1.19,0.27,2.13,0.8,2.8c0.53,0.67,1.26,1,2.18,1
			c0.93,0,1.66-0.34,2.18-1.03c0.52-0.69,0.78-1.64,0.78-2.86c0-1.2-0.26-2.14-0.77-2.8c-0.52-0.66-1.23-1-2.13-1
			c-0.92,0-1.66,0.35-2.21,1.06C202.16,70.97,201.88,71.92,201.88,73.09z M218.6,67.99l-13.36,21.03h-1.99l13.36-21.03H218.6z
			 M212.42,83.96c0-1.7,0.45-3.06,1.35-4.07c0.9-1.02,2.11-1.53,3.62-1.53c1.46,0,2.61,0.47,3.43,1.41
			c0.83,0.94,1.24,2.25,1.24,3.92c0,1.64-0.46,2.97-1.38,3.97s-2.11,1.51-3.58,1.51c-1.41,0-2.54-0.48-3.4-1.43
			S212.42,85.54,212.42,83.96z M214.26,83.84c0,1.17,0.27,2.09,0.81,2.76s1.26,1.01,2.16,1.01c0.93,0,1.66-0.35,2.18-1.04
			s0.78-1.65,0.78-2.86s-0.26-2.14-0.77-2.79c-0.51-0.65-1.22-0.97-2.13-0.97c-0.95,0-1.7,0.35-2.24,1.04
			C214.53,81.69,214.26,82.64,214.26,83.84z"/>
	</g>
</g>
<g>
	<g>
		<g>
			<defs>
				<path id="SVGID_00000121275644939639739300000003326701098151369625_" d="M240.99,138.55l0,49.77
					c-17.26,16.23-44.38,27.01-79.88,31.77l0-49.77C196.61,165.56,223.73,154.77,240.99,138.55z"/>
			</defs>
			<use xlink:href="#SVGID_00000121275644939639739300000003326701098151369625_"  style="overflow:visible;fill:#C4BE49;"/>
			<clipPath id="SVGID_00000116220312825214781950000003714103990781601942_">
				<use xlink:href="#SVGID_00000121275644939639739300000003326701098151369625_"  style="overflow:visible;"/>
			</clipPath>
			<g style="clip-path:url(#SVGID_00000116220312825214781950000003714103990781601942_);enable-background:new    ;">
				<path class="st18" d="M240.99,138.55v49.77c-1.09,1.03-2.22,2.03-3.39,3.01v-49.77C238.76,140.58,239.9,139.57,240.99,138.55"/>
				<path class="st18" d="M237.59,141.56v49.77c-2.81,2.36-5.85,4.6-9.11,6.71v-49.77C231.74,146.16,234.78,143.92,237.59,141.56"/>
				<path class="st18" d="M228.48,148.27v49.77c-5.08,3.28-10.69,6.25-16.82,8.9v-49.77C217.79,154.52,223.41,151.55,228.48,148.27"
					/>
				<path class="st18" d="M211.67,157.17v49.77c-6.98,3.02-14.64,5.62-22.93,7.8v-49.77C197.03,162.79,204.68,160.19,211.67,157.17"
					/>
				<path class="st18" d="M188.73,164.97v49.77c-7.65,2.01-15.85,3.65-24.57,4.92v-49.77C172.88,168.62,181.08,166.97,188.73,164.97
					"/>
				<path class="st18" d="M164.16,169.89v49.77c-1.01,0.15-2.03,0.29-3.06,0.43v-49.77C162.13,170.18,163.15,170.04,164.16,169.89"
					/>
			</g>
		</g>
		<g>
			<path class="st19" d="M161.1,170.32l-33.12-61.81l113.01,30.04C223.73,154.77,196.61,165.56,161.1,170.32z"/>
		</g>
		<g>
			<polygon class="st18" points="161.1,170.32 161.1,220.09 127.98,158.28 127.98,108.51 			"/>
		</g>
	</g>
	<g>
		<path class="st8" d="M184.09,156.85h-11.72v-2.01h4.74v-16.41l-4.86,1.47v-2.17l7.11-2.22v19.33h4.73V156.85z"/>
		<path class="st8" d="M187.69,153.59c1.43,1.13,3.04,1.7,4.82,1.7c1.44,0,2.61-0.36,3.51-1.09c0.9-0.73,1.35-1.73,1.35-3
			c0-2.78-1.96-4.18-5.89-4.18h-1.72v-1.93h1.64c3.48,0,5.23-1.3,5.23-3.91c0-2.42-1.33-3.62-3.99-3.62c-1.47,0-2.86,0.51-4.15,1.52
			v-2.25c1.33-0.8,2.9-1.2,4.71-1.2c1.65,0,3.02,0.45,4.1,1.36s1.62,2.11,1.62,3.61c0,2.73-1.4,4.5-4.19,5.31v0.05
			c1.48,0.13,2.67,0.65,3.58,1.56c0.9,0.92,1.35,2.06,1.35,3.42c0,1.9-0.68,3.42-2.05,4.55c-1.37,1.13-3.12,1.7-5.25,1.7
			c-1.96,0-3.52-0.37-4.69-1.12V153.59z"/>
		<path class="st8" d="M202.93,141.23c0-1.71,0.45-3.06,1.35-4.05c0.9-1,2.12-1.5,3.64-1.5c1.47,0,2.62,0.46,3.44,1.39
			s1.23,2.22,1.23,3.86c0,1.63-0.46,2.96-1.37,3.98c-0.91,1.02-2.11,1.53-3.6,1.53c-1.44,0-2.58-0.48-3.43-1.43
			C203.36,144.05,202.93,142.79,202.93,141.23z M204.81,141.09c0,1.19,0.27,2.13,0.8,2.8c0.53,0.67,1.26,1,2.18,1
			c0.93,0,1.66-0.34,2.18-1.03c0.52-0.69,0.78-1.64,0.78-2.86c0-1.2-0.26-2.14-0.77-2.8c-0.52-0.66-1.23-1-2.14-1
			c-0.92,0-1.66,0.35-2.21,1.06C205.08,138.97,204.81,139.91,204.81,141.09z M221.52,135.99l-13.36,21.03h-1.99l13.36-21.03H221.52z
			 M215.34,151.96c0-1.7,0.45-3.06,1.35-4.07c0.9-1.02,2.11-1.53,3.62-1.53c1.46,0,2.61,0.47,3.43,1.41
			c0.83,0.94,1.24,2.25,1.24,3.92c0,1.64-0.46,2.97-1.38,3.97c-0.92,1.01-2.11,1.51-3.58,1.51c-1.41,0-2.54-0.48-3.4-1.43
			C215.77,154.79,215.34,153.53,215.34,151.96z M217.18,151.84c0,1.17,0.27,2.09,0.81,2.76c0.54,0.67,1.26,1.01,2.16,1.01
			c0.93,0,1.66-0.35,2.18-1.04c0.52-0.7,0.78-1.65,0.78-2.86c0-1.21-0.26-2.14-0.77-2.79c-0.51-0.65-1.22-0.97-2.13-0.97
			c-0.95,0-1.7,0.35-2.24,1.04C217.45,149.69,217.18,150.64,217.18,151.84z"/>
	</g>
</g>
<g>
	<g>
		<g>
			<path class="st7" d="M127.98,172.5C57.3,172.5,0,143.85,0,108.51c0-8.48,2.42-15.02,8.5-22.93l119.47,22.93V172.5z"/>
		</g>
		<g>
			<defs>
				<path id="SVGID_00000070823051393496106920000002658472102910518422_" d="M127.98,172.5l0,49.77C57.3,222.27,0,193.62,0,158.28
					l0-49.77C0,143.85,57.3,172.5,127.98,172.5z"/>
			</defs>
			<use xlink:href="#SVGID_00000070823051393496106920000002658472102910518422_"  style="overflow:visible;fill:#25628C;"/>
			<clipPath id="SVGID_00000005950989819375007070000014731837497308271517_">
				<use xlink:href="#SVGID_00000070823051393496106920000002658472102910518422_"  style="overflow:visible;"/>
			</clipPath>
			<g style="clip-path:url(#SVGID_00000005950989819375007070000014731837497308271517_);enable-background:new    ;">
				<path class="st20" d="M127.98,172.5v49.77c-1.1,0-2.2-0.01-3.29-0.02v-49.77C125.78,172.49,126.88,172.5,127.98,172.5"/>
				<path class="st20" d="M124.69,172.48v49.77c-3.68-0.05-7.32-0.17-10.92-0.37v-49.77C117.36,172.3,121.01,172.43,124.69,172.48"
					/>
				<path class="st20" d="M113.77,172.11v49.77c-3.53-0.2-7.02-0.46-10.46-0.8v-49.77C106.75,171.64,110.24,171.91,113.77,172.11"/>
				<path class="st20" d="M103.31,171.31v49.77c-3.47-0.34-6.89-0.75-10.26-1.22v-49.77C96.42,170.56,99.84,170.97,103.31,171.31"/>
				<path class="st20" d="M93.05,170.08v49.77c-3.5-0.5-6.94-1.06-10.32-1.7v-49.77C86.11,169.02,89.55,169.59,93.05,170.08"/>
				<path class="st20" d="M82.74,168.38v49.77c-3.63-0.69-7.19-1.45-10.65-2.3v-49.77C75.55,166.93,79.1,167.7,82.74,168.38"/>
				<path class="st20" d="M72.08,166.09v49.77c-3.9-0.95-7.68-1.99-11.35-3.13v-49.77C64.4,164.09,68.18,165.14,72.08,166.09"/>
				<path class="st20" d="M60.73,162.96v49.77c-4.69-1.45-9.18-3.05-13.45-4.78v-49.77C51.55,159.91,56.04,161.51,60.73,162.96"/>
				<path class="st20" d="M47.29,158.18v49.77C18.43,196.21,0,178.32,0,158.28l0-49.77C0,128.55,18.43,146.44,47.29,158.18"/>
			</g>
		</g>
	</g>
	<g>
		<path class="st8" d="M35.48,131.37c1.43,1.13,3.04,1.7,4.82,1.7c1.44,0,2.61-0.36,3.51-1.09s1.35-1.73,1.35-3
			c0-2.78-1.96-4.18-5.89-4.18h-1.72v-1.93h1.64c3.48,0,5.23-1.3,5.23-3.91c0-2.42-1.33-3.62-3.99-3.62c-1.47,0-2.86,0.51-4.15,1.52
			v-2.25c1.33-0.8,2.9-1.2,4.71-1.2c1.65,0,3.02,0.45,4.1,1.36c1.08,0.91,1.62,2.11,1.62,3.61c0,2.73-1.4,4.5-4.19,5.31v0.05
			c1.48,0.13,2.67,0.65,3.58,1.56s1.35,2.06,1.35,3.42c0,1.9-0.68,3.42-2.05,4.55c-1.37,1.13-3.12,1.7-5.25,1.7
			c-1.96,0-3.52-0.37-4.69-1.12V131.37z"/>
		<path class="st8" d="M63.86,134.63H52.14v-2.01h4.74v-16.41l-4.86,1.47v-2.17l7.11-2.22v19.33h4.73V134.63z"/>
		<path class="st8" d="M66.71,119.01c0-1.71,0.45-3.06,1.35-4.05c0.9-1,2.12-1.5,3.64-1.5c1.47,0,2.62,0.46,3.44,1.39
			c0.82,0.93,1.23,2.22,1.23,3.86c0,1.63-0.46,2.96-1.37,3.98c-0.91,1.02-2.11,1.53-3.6,1.53c-1.44,0-2.58-0.48-3.43-1.43
			C67.14,121.83,66.71,120.57,66.71,119.01z M68.59,118.87c0,1.19,0.27,2.13,0.8,2.8s1.26,1,2.18,1c0.93,0,1.66-0.34,2.18-1.03
			s0.78-1.64,0.78-2.86c0-1.2-0.26-2.14-0.77-2.8c-0.52-0.66-1.23-1-2.14-1c-0.92,0-1.66,0.35-2.21,1.06S68.59,117.7,68.59,118.87z
			 M85.3,113.77L71.94,134.8h-1.99l13.36-21.03H85.3z M79.12,129.74c0-1.7,0.45-3.06,1.35-4.07s2.11-1.53,3.62-1.53
			c1.46,0,2.61,0.47,3.43,1.41c0.83,0.94,1.24,2.25,1.24,3.92c0,1.64-0.46,2.97-1.38,3.97c-0.92,1.01-2.11,1.51-3.58,1.51
			c-1.41,0-2.54-0.48-3.4-1.43C79.55,132.58,79.12,131.32,79.12,129.74z M80.97,129.62c0,1.17,0.27,2.09,0.81,2.76
			c0.54,0.67,1.26,1.01,2.16,1.01c0.93,0,1.66-0.35,2.18-1.04s0.78-1.65,0.78-2.86s-0.26-2.14-0.77-2.79
			c-0.51-0.65-1.22-0.97-2.13-0.97c-0.95,0-1.7,0.35-2.24,1.04S80.97,128.42,80.97,129.62z"/>
	</g>
</g>
<g>
	<g>
		<g>
			<defs>
				<path id="SVGID_00000136371705787089961730000008526238079884438698_" d="M161.1,170.32l0,49.77
					c-11.19,1.5-21.53,2.18-33.12,2.18l0-49.77C139.57,172.5,149.91,171.82,161.1,170.32z"/>
			</defs>
			<use xlink:href="#SVGID_00000136371705787089961730000008526238079884438698_"  style="overflow:visible;fill:#54B244;"/>
			<clipPath id="SVGID_00000183229722598455304710000008225214361920973463_">
				<use xlink:href="#SVGID_00000136371705787089961730000008526238079884438698_"  style="overflow:visible;"/>
			</clipPath>
			<g style="clip-path:url(#SVGID_00000183229722598455304710000008225214361920973463_);enable-background:new    ;">
				<path class="st28" d="M161.1,170.32v49.77c-4.27,0.57-8.42,1.03-12.56,1.37v-49.77C152.68,171.34,156.83,170.89,161.1,170.32"/>
				<path class="st28" d="M148.54,171.68v49.77c-3.94,0.32-7.88,0.55-11.91,0.68v-49.77C140.66,172.23,144.6,172.01,148.54,171.68"
					/>
				<path class="st28" d="M136.63,172.36v49.77c-2.83,0.09-5.7,0.13-8.65,0.13V172.5C130.93,172.5,133.81,172.45,136.63,172.36"/>
			</g>
		</g>
		<g>
			<path class="st29" d="M127.98,172.5v-63.99l33.12,61.81C149.91,171.82,139.57,172.5,127.98,172.5z"/>
		</g>
	</g>
	<g>
		<path class="st8" d="M131.6,200.26h-2.69v5.6h-2.24v-5.6h-9.86v-1.48l9.32-13.78h2.77v13.4h2.69V200.26z M126.67,198.4v-9.19
			c0-0.64,0.02-1.36,0.05-2.17h-0.05c-0.07,0.2-0.34,0.73-0.79,1.6l-6.56,9.75H126.67z"/>
		<path class="st8" d="M134.24,204.61c0-0.44,0.16-0.81,0.47-1.12s0.68-0.46,1.09-0.46c0.43,0,0.8,0.15,1.1,0.46
			c0.31,0.31,0.46,0.68,0.46,1.12c0,0.43-0.15,0.8-0.46,1.11c-0.31,0.31-0.68,0.46-1.1,0.46c-0.41,0-0.78-0.15-1.09-0.45
			S134.24,205.06,134.24,204.61z"/>
		<path class="st8" d="M153.26,205.86h-11.72v-2.01h4.74v-16.41l-4.86,1.47v-2.17l7.11-2.22v19.33h4.73V205.86z"/>
		<path class="st8" d="M156.12,190.24c0-1.71,0.45-3.06,1.35-4.05c0.9-1,2.12-1.5,3.64-1.5c1.47,0,2.62,0.46,3.44,1.39
			c0.82,0.93,1.23,2.22,1.23,3.86c0,1.63-0.46,2.96-1.37,3.98c-0.91,1.02-2.11,1.53-3.6,1.53c-1.44,0-2.58-0.48-3.43-1.43
			C156.54,193.06,156.12,191.8,156.12,190.24z M157.99,190.1c0,1.19,0.27,2.13,0.8,2.8c0.53,0.67,1.26,1,2.18,1
			c0.93,0,1.66-0.34,2.18-1.03c0.52-0.69,0.78-1.64,0.78-2.86c0-1.2-0.26-2.14-0.77-2.8c-0.52-0.66-1.23-1-2.13-1
			c-0.92,0-1.66,0.35-2.21,1.06S157.99,188.93,157.99,190.1z M174.71,185l-13.36,21.03h-1.99L172.72,185H174.71z M168.53,200.97
			c0-1.7,0.45-3.06,1.35-4.07c0.9-1.02,2.11-1.53,3.62-1.53c1.46,0,2.61,0.47,3.43,1.41c0.83,0.94,1.24,2.25,1.24,3.92
			c0,1.64-0.46,2.97-1.38,3.97c-0.92,1.01-2.11,1.51-3.58,1.51c-1.41,0-2.54-0.48-3.4-1.43
			C168.95,203.81,168.53,202.54,168.53,200.97z M170.37,200.85c0,1.17,0.27,2.09,0.81,2.76c0.54,0.67,1.26,1.01,2.16,1.01
			c0.93,0,1.66-0.35,2.18-1.04s0.78-1.65,0.78-2.86c0-1.21-0.26-2.14-0.77-2.79c-0.51-0.65-1.22-0.97-2.13-0.97
			c-0.95,0-1.7,0.35-2.24,1.04C170.64,198.7,170.37,199.65,170.37,200.85z"/>
	</g>
</g>
</svg>
