<?xml version="1.0" encoding="utf-8"?>
<!-- Generator: Adobe Illustrator 27.0.0, SVG Export Plug-In . SVG Version: 6.00 Build 0)  -->
<svg version="1.1" id="圖層_1" xmlns="http://www.w3.org/2000/svg" xmlns:xlink="http://www.w3.org/1999/xlink" x="0px" y="0px"
	 viewBox="0 0 256 256" style="enable-background:new 0 0 256 256;" xml:space="preserve">
<style type="text/css">
	.st0{fill:#798E99;}
	.st1{fill:#89A1AF;}
	.st2{enable-background:new    ;}
	.st3{clip-path:url(#SVGID_00000006672746795767865670000018341915232520090799_);enable-background:new    ;}
	.st4{clip-path:url(#SVGID_00000157267114332049426920000003854290113395814821_);enable-background:new    ;}
	.st5{fill:#235D84;}
	.st6{clip-path:url(#SVGID_00000129200121189833805770000015630678394827798936_);enable-background:new    ;}
	.st7{fill:#256599;}
	.st8{fill:#FFFFFF;}
	.st9{clip-path:url(#SVGID_00000062191241677460360300000001036767633843098555_);enable-background:new    ;}
	.st10{clip-path:url(#SVGID_00000051367906894614824020000003975430457926123966_);enable-background:new    ;}
	.st11{clip-path:url(#SVGID_00000089558192096027455670000013862481879343131045_);enable-background:new    ;}
	.st12{clip-path:url(#SVGID_00000092431779895377548970000011219499456285946298_);enable-background:new    ;}
	.st13{clip-path:url(#SVGID_00000042731918931686674480000003861631784301109439_);enable-background:new    ;}
	.st14{fill:#2E7EAA;}
	.st15{fill:#3387C1;}
	.st16{clip-path:url(#SVGID_00000177457316960081547920000017234501613083635632_);enable-background:new    ;}
	.st17{clip-path:url(#SVGID_00000023991686032987477970000005896592869608102573_);enable-background:new    ;}
	.st18{fill:#C4BE49;}
	.st19{fill:#D8D84A;}
	.st20{fill:#25628C;}
	.st21{clip-path:url(#SVGID_00000169523462733951177970000012628614401573782144_);enable-background:new    ;}
	.st22{clip-path:url(#SVGID_00000017483198678178610580000006540907952513872274_);enable-background:new    ;}
	.st23{clip-path:url(#SVGID_00000091713300637809747470000014636987425180799149_);enable-background:new    ;}
	.st24{clip-path:url(#SVGID_00000097460941646216845420000013828391783122801560_);enable-background:new    ;}
	.st25{clip-path:url(#SVGID_00000082341110377911216640000014877710028644618926_);enable-background:new    ;}
	.st26{clip-path:url(#SVGID_00000021802454318693938390000002841678478397299627_);enable-background:new    ;}
	.st27{fill:#54B244;}
	.st28{fill:#59C64A;}
	.st29{clip-path:url(#SVGID_00000171694069913262130380000014606644309430170558_);enable-background:new    ;}
	.st30{clip-path:url(#SVGID_00000150090926288125199980000013537018966350673594_);enable-background:new    ;}
	.st31{clip-path:url(#SVGID_00000023281513131266799690000012367215038590860207_);enable-background:new    ;}
	.st32{clip-path:url(#SVGID_00000081642686041295877690000002855324975705997710_);enable-background:new    ;}
	.st33{clip-path:url(#SVGID_00000075157881183526207670000010407328706679724672_);enable-background:new    ;}
	.st34{clip-path:url(#SVGID_00000142881296035716768130000011792285258109764491_);enable-background:new    ;}
</style>
<g>
	<g>
		<g>
			<polygon class="st20" points="249.82,122.37 249.82,172.18 128.01,152.39 128.01,102.58 			"/>
		</g>
		<g>
			<g class="st2">
				<defs>
					<path id="SVGID_00000029751439229959300150000013384768547196701615_" class="st2" d="M256.08,102.58v49.81
						c0,7.08-1.89,13.06-6.26,19.79v-49.81C254.18,115.64,256.08,109.66,256.08,102.58z"/>
				</defs>
				<use xlink:href="#SVGID_00000029751439229959300150000013384768547196701615_"  style="overflow:visible;fill:#256599;"/>
				<clipPath id="SVGID_00000155104327817848767120000016125675810571891860_">
					<use xlink:href="#SVGID_00000029751439229959300150000013384768547196701615_"  style="overflow:visible;"/>
				</clipPath>
				<g style="clip-path:url(#SVGID_00000155104327817848767120000016125675810571891860_);enable-background:new    ;">
					<path class="st7" d="M256.07,103.49v49.81c-0.05,1.95-0.24,3.81-0.6,5.64v-49.81C255.83,107.3,256.02,105.43,256.07,103.49"/>
					<path class="st7" d="M255.47,109.13v49.81c-0.31,1.62-0.75,3.2-1.33,4.78v-49.81C254.72,112.33,255.16,110.74,255.47,109.13"/>
					<path class="st7" d="M254.14,113.91v49.81c-0.59,1.63-1.33,3.26-2.22,4.92v-49.81C252.81,117.17,253.55,115.54,254.14,113.91"
						/>
					<path class="st7" d="M251.92,118.83v49.81c-0.63,1.17-1.33,2.34-2.11,3.55v-49.81C250.6,121.17,251.3,119.99,251.92,118.83"/>
				</g>
			</g>
			<g>
				<defs>
					<path id="SVGID_00000046314431526818088860000010494598594312591250_" d="M128.01,166.62l0,49.81
						c-70.74,0-128.08-28.67-128.08-64.04v-49.81C-0.08,137.95,57.27,166.62,128.01,166.62z"/>
				</defs>
				<use xlink:href="#SVGID_00000046314431526818088860000010494598594312591250_"  style="overflow:visible;fill:#25628C;"/>
				<clipPath id="SVGID_00000034082035085779204190000013221782984125547940_">
					<use xlink:href="#SVGID_00000046314431526818088860000010494598594312591250_"  style="overflow:visible;"/>
				</clipPath>
				<g style="clip-path:url(#SVGID_00000034082035085779204190000013221782984125547940_);enable-background:new    ;">
					<path class="st20" d="M128.01,166.62v49.81c-1.1,0-2.2-0.01-3.29-0.02V166.6C125.81,166.62,126.9,166.62,128.01,166.62"/>
					<path class="st20" d="M124.71,166.6v49.81c-3.68-0.05-7.33-0.17-10.93-0.37v-49.81C117.38,166.43,121.03,166.56,124.71,166.6"
						/>
					<path class="st20" d="M113.78,166.23v49.81c-3.53-0.2-7.02-0.46-10.47-0.8v-49.81C106.76,165.77,110.25,166.04,113.78,166.23"
						/>
					<path class="st20" d="M103.31,165.44v49.81c-3.47-0.34-6.9-0.75-10.27-1.23v-49.81C96.41,164.69,99.84,165.1,103.31,165.44"/>
					<path class="st20" d="M93.05,164.21v49.81c-3.51-0.5-6.95-1.07-10.33-1.7v-49.81C86.1,163.14,89.54,163.71,93.05,164.21"/>
					<path class="st20" d="M82.72,162.51v49.81c-3.64-0.69-7.19-1.46-10.66-2.3v-49.81C75.53,161.05,79.08,161.82,82.72,162.51"/>
					<path class="st20" d="M72.06,160.21v49.81c-3.9-0.95-7.69-1.99-11.36-3.13v-49.81C64.37,158.21,68.16,159.26,72.06,160.21"/>
					<path class="st20" d="M60.7,157.08v49.81c-4.7-1.45-9.19-3.05-13.46-4.79v-49.81C51.51,154.03,56,155.63,60.7,157.08"/>
					<path class="st20" d="M47.24,152.29v49.81c-28.88-11.74-47.32-29.65-47.32-49.71v-49.81
						C-0.08,122.64,18.37,140.55,47.24,152.29"/>
				</g>
			</g>
			<g>
				<path class="st7" d="M128.01,166.62c-70.74,0-128.08-28.67-128.08-64.04s57.34-64.04,128.08-64.04s128.07,28.67,128.07,64.04
					c0,7.08-1.89,13.06-6.26,19.79l-121.81-19.79V166.62z"/>
			</g>
		</g>
	</g>
	<g>
		<path class="st8" d="M102.06,61.92c-2.52-1.19-3.77-2.88-3.77-5.1c0-1.53,0.58-2.77,1.75-3.71c1.17-0.95,2.62-1.42,4.34-1.42
			c1.55,0,2.85,0.44,3.92,1.33s1.6,2.05,1.6,3.48c0,2.32-1.29,4.12-3.88,5.42v0.05c3.05,1.15,4.57,3.04,4.57,5.66
			c0,1.78-0.63,3.16-1.9,4.15c-1.27,0.99-2.96,1.48-5.08,1.48c-1.73,0-3.18-0.5-4.35-1.5s-1.75-2.31-1.75-3.93
			c0-2.68,1.51-4.63,4.54-5.86V61.92z M103.89,63.06c-2.71,1.08-4.06,2.63-4.06,4.66c0,1.12,0.4,2.01,1.21,2.65
			c0.81,0.64,1.84,0.96,3.09,0.96c1.2,0,2.2-0.32,2.98-0.96c0.78-0.64,1.17-1.49,1.17-2.55C108.29,65.7,106.82,64.11,103.89,63.06z
			 M107.57,56.79c0-0.99-0.31-1.76-0.94-2.33c-0.62-0.56-1.45-0.84-2.49-0.84c-0.95,0-1.78,0.29-2.48,0.88s-1.05,1.33-1.05,2.23
			c0,1.85,1.15,3.25,3.44,4.19C106.4,59.94,107.57,58.56,107.57,56.79z"/>
		<path class="st8" d="M113.31,62.9c0-3.68,0.6-6.47,1.8-8.37c1.2-1.9,2.93-2.84,5.2-2.84c4.34,0,6.51,3.57,6.51,10.7
			c0,3.47-0.6,6.15-1.79,8.04c-1.19,1.89-2.92,2.84-5.2,2.84c-2.12,0-3.74-0.91-4.85-2.72C113.87,68.73,113.31,66.18,113.31,62.9z
			 M115.61,62.78c0,5.72,1.49,8.57,4.48,8.57c2.96,0,4.43-2.9,4.43-8.69c0-6.03-1.44-9.05-4.33-9.05
			C117.13,53.61,115.61,56.67,115.61,62.78z"/>
		<path class="st8" d="M129.19,57.28c0-1.71,0.45-3.06,1.35-4.06c0.9-1,2.12-1.5,3.65-1.5c1.47,0,2.62,0.47,3.44,1.4
			c0.82,0.93,1.23,2.22,1.23,3.86c0,1.64-0.46,2.96-1.37,3.98c-0.91,1.02-2.11,1.53-3.61,1.53c-1.44,0-2.58-0.48-3.43-1.44
			C129.62,60.1,129.19,58.84,129.19,57.28z M131.07,57.14c0,1.2,0.27,2.13,0.8,2.8c0.53,0.67,1.26,1,2.18,1
			c0.93,0,1.66-0.34,2.18-1.03c0.52-0.69,0.78-1.64,0.78-2.86c0-1.2-0.26-2.14-0.78-2.8c-0.52-0.67-1.23-1-2.14-1
			c-0.93,0-1.66,0.35-2.21,1.06C131.34,55.02,131.07,55.97,131.07,57.14z M147.8,52.04l-13.37,21.04h-2l13.37-21.04H147.8z
			 M141.61,68.02c0-1.7,0.45-3.06,1.35-4.08c0.9-1.02,2.11-1.53,3.63-1.53c1.46,0,2.61,0.47,3.44,1.42
			c0.83,0.94,1.24,2.25,1.24,3.92c0,1.64-0.46,2.97-1.38,3.98s-2.11,1.51-3.58,1.51c-1.41,0-2.55-0.48-3.4-1.43
			S141.61,69.6,141.61,68.02z M143.45,67.9c0,1.17,0.27,2.09,0.82,2.76s1.26,1.01,2.16,1.01c0.93,0,1.66-0.35,2.18-1.04
			c0.52-0.7,0.78-1.65,0.78-2.86c0-1.21-0.26-2.14-0.77-2.79c-0.51-0.65-1.22-0.97-2.13-0.97c-0.95,0-1.7,0.35-2.24,1.04
			S143.45,66.7,143.45,67.9z"/>
	</g>
</g>
<g>
	<g>
		<g class="st2">
			<defs>
				<path id="SVGID_00000045577085471881930170000005689842294195458218_" class="st2" d="M249.82,122.37l0,49.81
					c-7.87,12.11-19.97,21.08-39.49,29.27l0-49.81C229.84,143.45,241.95,134.48,249.82,122.37z"/>
			</defs>
			<use xlink:href="#SVGID_00000045577085471881930170000005689842294195458218_"  style="overflow:visible;fill:#2E7EAA;"/>
			<clipPath id="SVGID_00000183968567499161672560000005705150897665015226_">
				<use xlink:href="#SVGID_00000045577085471881930170000005689842294195458218_"  style="overflow:visible;"/>
			</clipPath>
			<g style="clip-path:url(#SVGID_00000183968567499161672560000005705150897665015226_);enable-background:new    ;">
				<path class="st14" d="M249.82,122.37v49.81c-0.53,0.82-1.09,1.63-1.66,2.42v-49.81C248.73,124,249.28,123.19,249.82,122.37"/>
				<path class="st14" d="M248.16,124.79v49.81c-1.43,1.97-2.98,3.86-4.67,5.67v-49.81C245.18,128.65,246.73,126.76,248.16,124.79"
					/>
				<path class="st14" d="M243.48,130.46v49.81c-1.71,1.83-3.57,3.59-5.59,5.29v-49.81C239.91,134.06,241.77,132.3,243.48,130.46"/>
				<path class="st14" d="M237.89,135.75v49.81c-2.37,1.99-4.95,3.89-7.79,5.72v-49.81C232.94,139.64,235.53,137.74,237.89,135.75"
					/>
				<path class="st14" d="M230.11,141.47v49.81c-5.14,3.32-11.09,6.42-18,9.41v-49.81C219.01,147.9,224.97,144.8,230.11,141.47"/>
				<path class="st14" d="M212.1,150.88v49.81c-0.58,0.25-1.17,0.5-1.77,0.75v-49.81C210.93,151.39,211.52,151.14,212.1,150.88"/>
			</g>
		</g>
		<g>
			<polygon class="st14" points="210.33,151.64 210.33,201.45 128.01,152.39 128.01,102.58 			"/>
		</g>
		<g>
			<path class="st15" d="M210.33,151.64l-82.32-49.06l121.81,19.79C241.95,134.48,229.84,143.45,210.33,151.64z"/>
		</g>
	</g>
	<g>
		<path class="st8" d="M205.44,134.83c1.18,0.66,2.4,0.98,3.68,0.98c1.9,0,3.38-0.78,4.45-2.33c1.07-1.55,1.6-3.75,1.6-6.61
			c-0.02,0.02-0.04,0.02-0.05,0c-0.9,1.82-2.46,2.72-4.69,2.72c-1.8,0-3.27-0.62-4.41-1.85c-1.14-1.23-1.71-2.78-1.71-4.65
			c0-1.99,0.61-3.64,1.83-4.97c1.22-1.33,2.83-1.99,4.83-1.99c2.09,0,3.7,0.82,4.81,2.46c1.11,1.64,1.67,4,1.67,7.07
			c0,3.79-0.73,6.75-2.19,8.87s-3.54,3.18-6.23,3.18c-1.39,0-2.59-0.23-3.59-0.7V134.83z M206.61,122.77c0,1.46,0.38,2.62,1.15,3.5
			s1.82,1.31,3.15,1.31c1.19,0,2.17-0.39,2.95-1.18c0.78-0.79,1.17-1.74,1.17-2.85c0-1.55-0.39-2.86-1.17-3.9
			c-0.78-1.05-1.81-1.57-3.11-1.57c-1.21,0-2.21,0.46-2.98,1.37S206.61,121.47,206.61,122.77z"/>
		<path class="st8" d="M220.06,121.74c0-1.71,0.45-3.06,1.35-4.06c0.9-1,2.12-1.5,3.65-1.5c1.47,0,2.62,0.47,3.44,1.4
			c0.82,0.93,1.23,2.22,1.23,3.86c0,1.64-0.46,2.96-1.37,3.98c-0.91,1.02-2.11,1.53-3.61,1.53c-1.44,0-2.58-0.48-3.43-1.44
			C220.49,124.57,220.06,123.31,220.06,121.74z M221.94,121.61c0,1.2,0.27,2.13,0.8,2.8c0.53,0.67,1.26,1,2.18,1
			c0.93,0,1.66-0.34,2.18-1.03c0.52-0.69,0.78-1.64,0.78-2.86c0-1.2-0.26-2.14-0.78-2.8s-1.23-1-2.14-1c-0.93,0-1.66,0.35-2.21,1.06
			S221.94,120.43,221.94,121.61z M238.67,116.5l-13.37,21.04h-2l13.37-21.04H238.67z M232.48,132.49c0-1.7,0.45-3.06,1.35-4.08
			c0.9-1.02,2.11-1.53,3.63-1.53c1.46,0,2.61,0.47,3.44,1.42c0.83,0.94,1.24,2.25,1.24,3.92c0,1.64-0.46,2.97-1.38,3.98
			s-2.11,1.51-3.58,1.51c-1.41,0-2.55-0.48-3.4-1.43S232.48,134.06,232.48,132.49z M234.33,132.37c0,1.17,0.27,2.09,0.82,2.76
			c0.54,0.67,1.26,1.01,2.16,1.01c0.93,0,1.66-0.35,2.18-1.04c0.52-0.7,0.78-1.65,0.78-2.86c0-1.21-0.26-2.14-0.77-2.79
			c-0.51-0.65-1.22-0.97-2.13-0.97c-0.95,0-1.7,0.35-2.24,1.04C234.59,130.21,234.33,131.16,234.33,132.37z"/>
	</g>
</g>
<g>
	<g>
		<g>
			<polygon class="st18" points="145.83,166 145.83,215.81 128.01,152.39 128.01,102.58 			"/>
		</g>
		<g>
			<path class="st19" d="M145.83,166l-17.83-63.42l82.32,49.06C190.83,159.82,171.05,164.23,145.83,166z"/>
		</g>
		<g>
			<defs>
				<path id="SVGID_00000026152482950607324000000013293615758714008973_" d="M210.33,151.64l0,49.81
					c-19.5,8.18-39.28,12.59-64.5,14.36l0-49.81C171.05,164.23,190.83,159.82,210.33,151.64z"/>
			</defs>
			<use xlink:href="#SVGID_00000026152482950607324000000013293615758714008973_"  style="overflow:visible;fill:#C4BE49;"/>
			<clipPath id="SVGID_00000082357970698981395670000000502764920488747698_">
				<use xlink:href="#SVGID_00000026152482950607324000000013293615758714008973_"  style="overflow:visible;"/>
			</clipPath>
			<g style="clip-path:url(#SVGID_00000082357970698981395670000000502764920488747698_);enable-background:new    ;">
				<path class="st18" d="M210.33,151.64v49.81c-7.73,3.24-15.51,5.9-23.65,8.02v-49.81C194.82,157.53,202.6,154.88,210.33,151.64"
					/>
				<path class="st18" d="M186.68,159.66v49.81c-6.77,1.77-13.8,3.18-21.27,4.27v-49.81C172.88,162.84,179.91,161.43,186.68,159.66"
					/>
				<path class="st18" d="M165.41,163.93v49.81c-5.07,0.74-10.35,1.33-15.89,1.79v-49.81C155.06,165.26,160.34,164.67,165.41,163.93
					"/>
				<path class="st18" d="M149.53,165.72v49.81c-1.22,0.1-2.45,0.19-3.69,0.28V166C147.08,165.91,148.31,165.82,149.53,165.72"/>
			</g>
		</g>
	</g>
	<g>
		<path class="st8" d="M157.55,174.19c1.18,0.66,2.4,0.98,3.68,0.98c1.9,0,3.38-0.78,4.45-2.33c1.07-1.55,1.6-3.75,1.6-6.61
			c-0.02,0.02-0.04,0.02-0.05,0c-0.9,1.82-2.46,2.72-4.69,2.72c-1.8,0-3.27-0.62-4.41-1.85c-1.14-1.23-1.71-2.78-1.71-4.65
			c0-1.99,0.61-3.64,1.83-4.97c1.22-1.33,2.83-1.99,4.83-1.99c2.09,0,3.7,0.82,4.81,2.46c1.11,1.64,1.67,4,1.67,7.07
			c0,3.79-0.73,6.75-2.19,8.87c-1.46,2.12-3.54,3.18-6.23,3.18c-1.39,0-2.59-0.23-3.59-0.7V174.19z M158.72,162.13
			c0,1.46,0.38,2.62,1.15,3.5s1.82,1.31,3.15,1.31c1.19,0,2.17-0.39,2.95-1.18c0.78-0.79,1.17-1.74,1.17-2.85
			c0-1.55-0.39-2.86-1.17-3.9c-0.78-1.05-1.81-1.57-3.11-1.57c-1.21,0-2.21,0.46-2.98,1.37S158.72,160.82,158.72,162.13z"/>
		<path class="st8" d="M172.18,161.1c0-1.71,0.45-3.06,1.35-4.06c0.9-1,2.12-1.5,3.65-1.5c1.47,0,2.62,0.47,3.44,1.4
			c0.82,0.93,1.23,2.22,1.23,3.86c0,1.64-0.46,2.96-1.37,3.98c-0.91,1.02-2.11,1.53-3.61,1.53c-1.44,0-2.58-0.48-3.43-1.44
			C172.6,163.93,172.18,162.67,172.18,161.1z M174.05,160.97c0,1.2,0.27,2.13,0.8,2.8c0.53,0.67,1.26,1,2.18,1
			c0.93,0,1.66-0.34,2.18-1.03c0.52-0.69,0.78-1.64,0.78-2.86c0-1.2-0.26-2.14-0.78-2.8c-0.52-0.67-1.23-1-2.14-1
			c-0.93,0-1.66,0.35-2.21,1.06C174.32,158.85,174.05,159.79,174.05,160.97z M190.78,155.86l-13.37,21.04h-2l13.37-21.04H190.78z
			 M184.59,171.85c0-1.7,0.45-3.06,1.35-4.08c0.9-1.02,2.11-1.53,3.63-1.53c1.46,0,2.61,0.47,3.44,1.42
			c0.83,0.94,1.24,2.25,1.24,3.92c0,1.64-0.46,2.97-1.38,3.98s-2.11,1.51-3.58,1.51c-1.41,0-2.55-0.48-3.4-1.43
			C185.02,174.68,184.59,173.42,184.59,171.85z M186.44,171.72c0,1.17,0.27,2.09,0.82,2.76c0.54,0.67,1.26,1.01,2.16,1.01
			c0.93,0,1.66-0.35,2.18-1.04c0.52-0.7,0.78-1.65,0.78-2.86c0-1.21-0.26-2.14-0.77-2.79c-0.51-0.65-1.22-0.97-2.13-0.97
			c-0.95,0-1.7,0.35-2.24,1.04S186.44,170.52,186.44,171.72z"/>
	</g>
</g>
<g>
	<g>
		<g class="st2">
			<defs>
				<path id="SVGID_00000031916798843446956780000004752282124359016887_" class="st2" d="M145.83,166l0,49.81
					c-5.61,0.39-12.16,0.63-17.83,0.63l0-49.81C133.67,166.62,140.22,166.39,145.83,166z"/>
			</defs>
			<use xlink:href="#SVGID_00000031916798843446956780000004752282124359016887_"  style="overflow:visible;fill:#54B244;"/>
			<clipPath id="SVGID_00000024684888560094029370000017999627081155798677_">
				<use xlink:href="#SVGID_00000031916798843446956780000004752282124359016887_"  style="overflow:visible;"/>
			</clipPath>
			<g style="clip-path:url(#SVGID_00000024684888560094029370000017999627081155798677_);enable-background:new    ;">
				<path class="st27" d="M145.83,166v49.81c-3.09,0.22-6.46,0.38-9.81,0.49v-49.81C139.37,166.38,142.75,166.21,145.83,166"/>
				<path class="st27" d="M136.02,166.49v49.81c-2.74,0.09-5.47,0.13-8.01,0.13v-49.81C130.55,166.62,133.28,166.58,136.02,166.49"
					/>
			</g>
		</g>
		<g>
			<path class="st28" d="M128.01,166.62v-64.04L145.83,166C140.22,166.39,133.67,166.62,128.01,166.62z"/>
		</g>
	</g>
	<g>
		<path class="st8" d="M132.27,228.98h-12.5v-2.04l6.08-6.12c2.01-2.03,3.25-3.5,3.71-4.41c0.46-0.91,0.69-1.88,0.69-2.9
			c0-1.23-0.35-2.18-1.04-2.84c-0.7-0.67-1.7-1-3-1c-1.86,0-3.65,0.8-5.37,2.41v-2.4c1.61-1.29,3.5-1.93,5.66-1.93
			c1.8,0,3.24,0.5,4.32,1.5s1.62,2.35,1.62,4.06c0,1.31-0.36,2.6-1.07,3.88s-2.06,2.9-4.05,4.89l-4.87,4.81v0.05h9.8V228.98z"/>
		<path class="st8" d="M135.53,213.34c0-1.71,0.45-3.06,1.35-4.06s2.12-1.5,3.65-1.5c1.47,0,2.62,0.47,3.44,1.4
			c0.82,0.93,1.23,2.22,1.23,3.86c0,1.64-0.46,2.96-1.37,3.98c-0.91,1.02-2.11,1.53-3.61,1.53c-1.44,0-2.58-0.48-3.43-1.44
			C135.95,216.17,135.53,214.91,135.53,213.34z M137.4,213.21c0,1.2,0.27,2.13,0.8,2.8c0.53,0.67,1.26,1,2.18,1
			c0.93,0,1.66-0.34,2.18-1.03s0.78-1.64,0.78-2.86c0-1.2-0.26-2.14-0.78-2.8s-1.23-1-2.14-1c-0.93,0-1.66,0.35-2.21,1.06
			C137.68,211.09,137.4,212.03,137.4,213.21z M154.13,208.1l-13.37,21.04h-2l13.37-21.04H154.13z M147.94,224.09
			c0-1.7,0.45-3.06,1.35-4.08c0.9-1.02,2.11-1.53,3.63-1.53c1.46,0,2.61,0.47,3.44,1.42s1.24,2.25,1.24,3.92
			c0,1.64-0.46,2.97-1.38,3.98s-2.11,1.51-3.58,1.51c-1.41,0-2.55-0.48-3.4-1.43C148.37,226.92,147.94,225.66,147.94,224.09z
			 M149.79,223.97c0,1.17,0.27,2.09,0.82,2.76c0.54,0.67,1.26,1.01,2.16,1.01c0.93,0,1.66-0.35,2.18-1.04s0.78-1.65,0.78-2.86
			s-0.26-2.14-0.77-2.79c-0.51-0.65-1.22-0.97-2.13-0.97c-0.95,0-1.7,0.35-2.24,1.04S149.79,222.76,149.79,223.97z"/>
	</g>
</g>
</svg>
