<?xml version="1.0" encoding="utf-8"?>
<!-- Generator: Adobe Illustrator 27.0.0, SVG Export Plug-In . SVG Version: 6.00 Build 0)  -->
<svg version="1.1" id="圖層_1" xmlns="http://www.w3.org/2000/svg" xmlns:xlink="http://www.w3.org/1999/xlink" x="0px" y="0px"
	 viewBox="0 0 256 256" style="enable-background:new 0 0 256 256;" xml:space="preserve">
<style type="text/css">
	.st0{fill:#798E99;}
	.st1{fill:#89A1AF;}
	.st2{enable-background:new    ;}
	.st3{clip-path:url(#SVGID_00000111884469265179528250000002221629284343886465_);enable-background:new    ;}
	.st4{clip-path:url(#SVGID_00000039107097788697394360000007487112418794136749_);enable-background:new    ;}
	.st5{fill:#235D84;}
	.st6{clip-path:url(#SVGID_00000064337579108134657790000007059292839925817760_);enable-background:new    ;}
	.st7{fill:#256599;}
	.st8{fill:#FFFFFF;}
	.st9{clip-path:url(#SVGID_00000023978538306179567030000012278689221434728608_);enable-background:new    ;}
	.st10{clip-path:url(#SVGID_00000012461323652482835930000008173164781584763817_);enable-background:new    ;}
	.st11{clip-path:url(#SVGID_00000029748519772921849340000002774422615197533362_);enable-background:new    ;}
	.st12{clip-path:url(#SVGID_00000037678179218391182190000016921183273430208175_);enable-background:new    ;}
	.st13{clip-path:url(#SVGID_00000139995630699350370940000015444004142377879194_);enable-background:new    ;}
	.st14{fill:#2E7EAA;}
	.st15{fill:#3387C1;}
	.st16{clip-path:url(#SVGID_00000077288802402969265680000014838835100607614853_);enable-background:new    ;}
	.st17{clip-path:url(#SVGID_00000008136094291965320640000015673916513512884896_);enable-background:new    ;}
	.st18{fill:#C4BE49;}
	.st19{fill:#D8D84A;}
	.st20{fill:#25628C;}
	.st21{clip-path:url(#SVGID_00000124866255319976760990000011038353224223571861_);enable-background:new    ;}
	.st22{clip-path:url(#SVGID_00000100384450760122310190000004111310782246200503_);enable-background:new    ;}
	.st23{clip-path:url(#SVGID_00000139260934307523192230000018104238375915063184_);enable-background:new    ;}
	.st24{clip-path:url(#SVGID_00000093138963847601723680000016583928825714571156_);enable-background:new    ;}
	.st25{clip-path:url(#SVGID_00000048467058684328049870000005998827176239828387_);enable-background:new    ;}
	.st26{clip-path:url(#SVGID_00000075135587377471721940000013456798990210352560_);enable-background:new    ;}
	.st27{clip-path:url(#SVGID_00000094601796976564092640000014201078759902633625_);enable-background:new    ;}
	.st28{fill:#54B244;}
	.st29{fill:#59C64A;}
	.st30{clip-path:url(#SVGID_00000180360019521941625590000003033521792596404881_);enable-background:new    ;}
	.st31{clip-path:url(#SVGID_00000036933213961726296050000015093199126157907590_);enable-background:new    ;}
	.st32{clip-path:url(#SVGID_00000085937325540031858820000000018324522561277060_);enable-background:new    ;}
	.st33{clip-path:url(#SVGID_00000069373936289346841360000001303200306409432491_);enable-background:new    ;}
	.st34{clip-path:url(#SVGID_00000173878515051746343120000002556879225241301183_);enable-background:new    ;}
</style>
<g>
	<g>
		<polygon class="st0" points="130.67,106.84 125.21,157.11 69.14,101.46 74.6,51.19 		"/>
	</g>
	<g class="st2">
		<defs>
			<path id="SVGID_1_" class="st2" d="M255.8,120.38l-5.47,50.28c-2.13,19.64-27.15,36.21-69.06,42.1
				c-2.48,0.35-3.41,0.46-5.94,0.75l5.47-50.28c2.53-0.28,3.46-0.4,5.94-0.75C228.66,156.6,253.67,140.02,255.8,120.38z"/>
		</defs>
		<use xlink:href="#SVGID_1_"  style="overflow:visible;fill:#798E99;"/>
		<clipPath id="SVGID_00000139260397871373762280000016155677084311996062_">
			<use xlink:href="#SVGID_1_"  style="overflow:visible;"/>
		</clipPath>
		<g style="clip-path:url(#SVGID_00000139260397871373762280000016155677084311996062_);enable-background:new    ;">
			<path class="st0" d="M255.8,120.38l-5.47,50.28c-0.16,1.44-0.44,2.86-0.84,4.26l5.47-50.28
				C255.37,123.24,255.65,121.82,255.8,120.38"/>
			<path class="st0" d="M254.97,124.65l-5.47,50.28c-0.45,1.58-1.06,3.14-1.81,4.67l5.47-50.28
				C253.91,127.79,254.52,126.23,254.97,124.65"/>
			<path class="st0" d="M253.16,129.32l-5.47,50.28c-0.73,1.49-1.61,2.95-2.63,4.38l5.47-50.28
				C251.55,132.27,252.42,130.81,253.16,129.32"/>
			<path class="st0" d="M250.53,133.7l-5.47,50.28c-1.02,1.43-2.17,2.83-3.46,4.19l5.47-50.28
				C248.36,136.53,249.52,135.13,250.53,133.7"/>
			<path class="st0" d="M247.07,137.89l-5.47,50.28c-1.32,1.4-2.79,2.75-4.39,4.07l5.47-50.28
				C244.28,140.64,245.75,139.28,247.07,137.89"/>
			<path class="st0" d="M242.68,141.96l-5.47,50.28c-1.69,1.39-3.54,2.73-5.54,4.03l5.47-50.28
				C239.14,144.69,240.99,143.35,242.68,141.96"/>
			<path class="st0" d="M237.14,145.99l-5.47,50.28c-2.24,1.45-4.66,2.83-7.27,4.14l5.47-50.28
				C232.48,148.81,234.91,147.43,237.14,145.99"/>
			<path class="st0" d="M229.87,150.12l-5.47,50.28c-3.11,1.56-6.47,3.02-10.09,4.37l5.47-50.28
				C223.4,153.14,226.77,151.68,229.87,150.12"/>
			<path class="st0" d="M219.78,154.49l-5.47,50.28c-6.45,2.4-13.69,4.44-21.68,6.06l5.47-50.28
				C206.09,158.93,213.34,156.89,219.78,154.49"/>
			<path class="st0" d="M198.1,160.55l-5.47,50.28c-3.63,0.74-7.42,1.38-11.36,1.94c-2.48,0.35-3.41,0.46-5.94,0.75l5.47-50.28
				c2.53-0.28,3.46-0.4,5.94-0.75C190.68,161.93,194.47,161.29,198.1,160.55"/>
		</g>
	</g>
	<g>
		<path class="st1" d="M74.6,51.19c61.86-8.69,137.1,9.18,168.07,39.91c30.96,30.73,5.92,62.69-55.94,71.39
			c-2.48,0.35-3.41,0.46-5.94,0.75l-50.13-56.4L74.6,51.19z"/>
	</g>
	<g>
		<polygon class="st0" points="180.8,163.23 175.34,213.51 125.21,157.11 130.67,106.84 		"/>
	</g>
</g>
<g>
	<g>
		<g>
			<defs>
				<path id="SVGID_00000016774714065060965250000006702195586250415509_" d="M0.15,143.65l5.47-50.28
					c-0.91,8.39,2.34,17.34,10.27,26.26c27.68,31.15,101.52,50.67,164.91,43.59l-5.47,50.28c-63.4,7.07-137.23-12.45-164.91-43.59
					C2.49,160.99-0.76,152.04,0.15,143.65z"/>
			</defs>
			<use xlink:href="#SVGID_00000016774714065060965250000006702195586250415509_"  style="overflow:visible;fill:#235D84;"/>
			<clipPath id="SVGID_00000013891788002213438480000002082157056337591450_">
				<use xlink:href="#SVGID_00000016774714065060965250000006702195586250415509_"  style="overflow:visible;"/>
			</clipPath>
			<g style="clip-path:url(#SVGID_00000013891788002213438480000002082157056337591450_);enable-background:new    ;">
				<path class="st5" d="M180.8,163.23l-5.47,50.28c-0.54,0.06-1.09,0.12-1.63,0.18l5.47-50.28
					C179.72,163.35,180.26,163.29,180.8,163.23"/>
				<path class="st5" d="M179.17,163.41l-5.47,50.28c-8.61,0.9-17.4,1.31-26.23,1.27l5.47-50.28
					C161.77,164.72,170.56,164.3,179.17,163.41"/>
				<path class="st5" d="M152.94,164.68l-5.47,50.28c-5-0.02-10.02-0.19-15.02-0.49l5.47-50.28
					C142.92,164.49,147.94,164.66,152.94,164.68"/>
				<path class="st5" d="M137.92,164.19l-5.47,50.28c-4.19-0.25-8.38-0.6-12.54-1.04l5.47-50.28
					C129.54,163.59,133.72,163.94,137.92,164.19"/>
				<path class="st5" d="M125.38,163.15l-5.47,50.28c-3.78-0.4-7.55-0.88-11.28-1.43l5.47-50.28
					C117.83,162.27,121.59,162.75,125.38,163.15"/>
				<path class="st5" d="M114.09,161.72l-5.47,50.28c-3.54-0.52-7.05-1.11-10.53-1.76l5.47-50.28
					C107.04,160.61,110.55,161.2,114.09,161.72"/>
				<path class="st5" d="M103.56,159.96l-5.47,50.28c-3.41-0.64-6.78-1.34-10.1-2.1l5.47-50.28
					C96.79,158.62,100.16,159.32,103.56,159.96"/>
				<path class="st5" d="M93.46,157.86L88,208.14c-3.34-0.76-6.64-1.58-9.88-2.46l5.47-50.28C86.83,156.28,90.12,157.1,93.46,157.86
					"/>
				<path class="st5" d="M83.58,155.4l-5.47,50.28c-3.34-0.9-6.63-1.87-9.85-2.89l5.47-50.28C76.95,153.53,80.24,154.5,83.58,155.4"
					/>
				<path class="st5" d="M73.74,152.51l-5.47,50.28c-3.42-1.09-6.77-2.24-10.03-3.45l5.47-50.28
					C66.97,150.27,70.31,151.42,73.74,152.51"/>
				<path class="st5" d="M63.71,149.06l-5.47,50.28c-3.61-1.35-7.11-2.77-10.49-4.26l5.47-50.28
					C56.6,146.29,60.1,147.71,63.71,149.06"/>
				<path class="st5" d="M53.22,144.79l-5.47,50.28c-4.18-1.85-8.17-3.81-11.94-5.88l5.47-50.28
					C45.04,140.98,49.03,142.94,53.22,144.79"/>
				<path class="st5" d="M41.28,138.91l-5.47,50.28c-10.41-5.71-19.09-12.19-25.39-19.28c-7.93-8.92-11.19-17.87-10.27-26.26
					l5.47-50.28c-0.91,8.39,2.34,17.34,10.27,26.26C22.19,126.72,30.87,133.21,41.28,138.91"/>
			</g>
		</g>
		<g>
			<path class="st7" d="M74.6,51.19l56.07,55.65l50.13,56.4c-63.4,7.07-137.23-12.45-164.91-43.59
				C-10.68,89.74,15.22,59.53,74.6,51.19z"/>
		</g>
	</g>
	<g>
		<path class="st8" d="M65.36,115.21h-2.65v5.52h-2.2v-5.52h-9.71v-1.46l9.18-13.57h2.73v13.2h2.65V115.21z M60.5,113.38v-9.05
			c0-0.63,0.02-1.34,0.05-2.14H60.5c-0.07,0.19-0.33,0.72-0.78,1.58l-6.46,9.61H60.5z"/>
		<path class="st8" d="M68.85,118.22c1.16,0.65,2.37,0.97,3.62,0.97c1.87,0,3.33-0.76,4.38-2.29s1.58-3.7,1.58-6.51
			c-0.02,0.02-0.04,0.02-0.05,0c-0.88,1.79-2.42,2.68-4.62,2.68c-1.77,0-3.22-0.61-4.34-1.82c-1.12-1.21-1.69-2.74-1.69-4.58
			c0-1.95,0.6-3.58,1.8-4.89c1.2-1.3,2.78-1.96,4.76-1.96c2.06,0,3.64,0.81,4.74,2.42c1.1,1.61,1.65,3.93,1.65,6.96
			c0,3.73-0.72,6.64-2.16,8.73c-1.44,2.09-3.48,3.13-6.14,3.13c-1.37,0-2.55-0.23-3.53-0.69V118.22z M70,106.34
			c0,1.43,0.38,2.58,1.13,3.44c0.75,0.86,1.79,1.29,3.11,1.29c1.17,0,2.13-0.39,2.9-1.16c0.77-0.77,1.15-1.71,1.15-2.81
			c0-1.53-0.38-2.81-1.15-3.84c-0.77-1.03-1.78-1.55-3.06-1.55c-1.19,0-2.17,0.45-2.93,1.35C70.38,103.97,70,105.06,70,106.34z"/>
		<path class="st8" d="M83.25,105.34c0-1.68,0.44-3.01,1.33-3.99c0.89-0.98,2.09-1.47,3.59-1.47c1.45,0,2.58,0.46,3.39,1.37
			c0.81,0.92,1.21,2.18,1.21,3.8c0,1.61-0.45,2.92-1.35,3.92c-0.9,1-2.08,1.51-3.55,1.51c-1.42,0-2.54-0.47-3.38-1.41
			S83.25,106.87,83.25,105.34z M85.09,105.2c0,1.18,0.26,2.09,0.79,2.75s1.24,0.99,2.14,0.99c0.92,0,1.64-0.34,2.15-1.02
			c0.51-0.68,0.77-1.62,0.77-2.82c0-1.19-0.25-2.11-0.76-2.76c-0.51-0.65-1.21-0.98-2.1-0.98c-0.91,0-1.64,0.35-2.18,1.05
			C85.36,103.12,85.09,104.04,85.09,105.2z M101.56,100.17L88.4,120.89h-1.96l13.16-20.71H101.56z M95.47,115.91
			c0-1.67,0.44-3.01,1.33-4.01c0.88-1,2.07-1.51,3.57-1.51c1.44,0,2.57,0.46,3.38,1.39s1.22,2.22,1.22,3.86
			c0,1.62-0.45,2.92-1.36,3.91c-0.91,0.99-2.08,1.49-3.52,1.49c-1.39,0-2.51-0.47-3.35-1.41S95.47,117.46,95.47,115.91z
			 M97.29,115.79c0,1.15,0.27,2.06,0.8,2.72c0.54,0.66,1.25,1,2.13,1c0.92,0,1.64-0.34,2.15-1.03c0.51-0.69,0.77-1.63,0.77-2.82
			s-0.25-2.11-0.76-2.75s-1.2-0.96-2.1-0.96c-0.94,0-1.67,0.34-2.2,1.03C97.55,113.67,97.29,114.61,97.29,115.79z"/>
	</g>
</g>
</svg>
