<?xml version="1.0" encoding="utf-8"?>
<!-- Generator: Adobe Illustrator 27.0.0, SVG Export Plug-In . SVG Version: 6.00 Build 0)  -->
<svg version="1.1" id="圖層_1" xmlns="http://www.w3.org/2000/svg" xmlns:xlink="http://www.w3.org/1999/xlink" x="0px" y="0px"
	 viewBox="0 0 256 256" style="enable-background:new 0 0 256 256;" xml:space="preserve">
<style type="text/css">
	.st0{fill:#798E99;}
	.st1{fill:#89A1AF;}
	.st2{enable-background:new    ;}
	.st3{clip-path:url(#SVGID_00000129917684557551866450000008898390958392139685_);enable-background:new    ;}
	.st4{clip-path:url(#SVGID_00000157303360888275786230000016254047202774912175_);enable-background:new    ;}
	.st5{fill:#235D84;}
	.st6{clip-path:url(#SVGID_00000118399208520275883330000011983555653451478450_);enable-background:new    ;}
	.st7{fill:#256599;}
	.st8{fill:#FFFFFF;}
	.st9{clip-path:url(#SVGID_00000164488114699437669020000016735345263134182279_);enable-background:new    ;}
	.st10{clip-path:url(#SVGID_00000007392568772683776840000002319955252719535755_);enable-background:new    ;}
	.st11{clip-path:url(#SVGID_00000152984526163640475870000010114303011148535192_);enable-background:new    ;}
	.st12{clip-path:url(#SVGID_00000016055310218323653500000018066791459752535172_);enable-background:new    ;}
	.st13{clip-path:url(#SVGID_00000103978228647497343340000003551491682089711503_);enable-background:new    ;}
	.st14{fill:#2E7EAA;}
	.st15{fill:#3387C1;}
	.st16{clip-path:url(#SVGID_00000171696419066283993680000003248545462718948540_);enable-background:new    ;}
	.st17{clip-path:url(#SVGID_00000129206442513980380330000004890806424130414748_);enable-background:new    ;}
	.st18{fill:#C4BE49;}
	.st19{fill:#D8D84A;}
	.st20{fill:#25628C;}
	.st21{clip-path:url(#SVGID_00000093883021708383135760000005728762175906149267_);enable-background:new    ;}
	.st22{clip-path:url(#SVGID_00000080926231482847130950000000234758750622952336_);enable-background:new    ;}
	.st23{clip-path:url(#SVGID_00000147205816877685309700000007649621888995875492_);enable-background:new    ;}
	.st24{clip-path:url(#SVGID_00000075146196275008185210000018336952767362265483_);enable-background:new    ;}
	.st25{clip-path:url(#SVGID_00000082357774542452759230000010606071355687917496_);enable-background:new    ;}
	.st26{clip-path:url(#SVGID_00000138572330444311722850000000574566468558052031_);enable-background:new    ;}
	.st27{clip-path:url(#SVGID_00000012447635485349530270000001048337141625061311_);enable-background:new    ;}
	.st28{fill:#54B244;}
	.st29{fill:#59C64A;}
	.st30{clip-path:url(#SVGID_00000157271190775740103050000003770540380629105339_);enable-background:new    ;}
	.st31{clip-path:url(#SVGID_00000057114851791886875990000018167075430663052935_);enable-background:new    ;}
	.st32{clip-path:url(#SVGID_00000011725747056962479380000016259429168113747367_);enable-background:new    ;}
	.st33{clip-path:url(#SVGID_00000079445890998628076800000006840168564685638042_);enable-background:new    ;}
	.st34{clip-path:url(#SVGID_00000062186598101546207270000010896505383173354406_);enable-background:new    ;}
</style>
<g>
	<g>
		<path class="st1" d="M127.55,47.5c31,0,56.18,4.47,80.28,14.25l-80.28,49.71V47.5z"/>
	</g>
	<g>
		<polygon class="st0" points="207.83,61.76 207.83,111.5 127.55,161.21 127.55,111.46 		"/>
	</g>
</g>
<g>
	<g>
		<g>
			<defs>
				<path id="SVGID_00000143589834480889017080000003814108218215702683_" d="M255.12,111.5l0,49.75c0,14.14-9.3,28.37-28.43,40.21
					c-25.21,15.61-62.05,23.71-99.21,23.71c-28.2,0-56.57-4.66-80.19-14.26C16.16,198.27,0,179.8,0,161.17l0-49.75
					c0,18.63,16.16,37.11,47.29,49.74c23.62,9.59,51.99,14.26,80.19,14.26c37.16,0,74.01-8.1,99.21-23.71
					C245.81,139.87,255.12,125.64,255.12,111.5z"/>
			</defs>
			<use xlink:href="#SVGID_00000143589834480889017080000003814108218215702683_"  style="overflow:visible;fill:#235D84;"/>
			<clipPath id="SVGID_00000132057364496373964760000017773820623706614709_">
				<use xlink:href="#SVGID_00000143589834480889017080000003814108218215702683_"  style="overflow:visible;"/>
			</clipPath>
			<g style="clip-path:url(#SVGID_00000132057364496373964760000017773820623706614709_);enable-background:new    ;">
				<path class="st5" d="M255.12,111.5v49.75c0,0.24,0,0.48-0.01,0.72v-49.75C255.12,111.98,255.12,111.74,255.12,111.5"/>
				<path class="st5" d="M255.11,112.22v49.75c-0.04,1.83-0.24,3.66-0.59,5.48V117.7C254.87,115.88,255.07,114.05,255.11,112.22"/>
				<path class="st5" d="M254.52,117.7v49.75c-0.34,1.76-0.82,3.51-1.46,5.25v-49.75C253.69,121.21,254.18,119.46,254.52,117.7"/>
				<path class="st5" d="M253.06,122.95v49.75c-0.62,1.72-1.39,3.44-2.3,5.14v-49.75C251.67,126.39,252.44,124.67,253.06,122.95"/>
				<path class="st5" d="M250.76,128.09v49.75c-0.93,1.73-2,3.44-3.22,5.14v-49.75C248.76,131.53,249.83,129.82,250.76,128.09"/>
				<path class="st5" d="M247.54,133.23v49.75c-1.28,1.78-2.73,3.53-4.34,5.26v-49.75C244.81,136.76,246.25,135.01,247.54,133.23"/>
				<path class="st5" d="M243.2,138.49v49.75c-1.79,1.92-3.79,3.82-5.99,5.67v-49.75C239.41,142.31,241.4,140.41,243.2,138.49"/>
				<path class="st5" d="M237.2,144.16v49.75c-2.64,2.22-5.58,4.39-8.82,6.48v-49.75C231.62,148.54,234.56,146.38,237.2,144.16"/>
				<path class="st5" d="M228.39,150.64v49.75c-0.56,0.36-1.12,0.72-1.7,1.07c-4.88,3.02-10.2,5.76-15.86,8.22v-49.75
					c5.67-2.45,10.99-5.19,15.86-8.22C227.26,151.36,227.83,151,228.39,150.64"/>
				<path class="st5" d="M210.82,159.93v49.75c-7.48,3.24-15.58,5.98-24.1,8.21v-49.75C195.24,165.91,203.34,163.17,210.82,159.93"
					/>
				<path class="st5" d="M186.72,168.14v49.75c-7.48,1.96-15.29,3.53-23.31,4.7v-49.75C171.43,171.67,179.24,170.1,186.72,168.14"/>
				<path class="st5" d="M163.41,172.85v49.75c-4.95,0.72-9.98,1.3-15.06,1.72v-49.75C153.43,174.15,158.46,173.57,163.41,172.85"/>
				<path class="st5" d="M148.36,174.57v49.75c-4.19,0.35-8.42,0.59-12.66,0.73v-49.75C139.94,175.15,144.16,174.91,148.36,174.57"
					/>
				<path class="st5" d="M135.7,175.29v49.75c-2.73,0.09-5.48,0.13-8.22,0.13c-1.09,0-2.19-0.01-3.28-0.02V175.4
					c1.09,0.01,2.19,0.02,3.28,0.02C130.22,175.42,132.96,175.38,135.7,175.29"/>
				<path class="st5" d="M124.19,175.4v49.75c-3.6-0.05-7.2-0.17-10.79-0.37v-49.75C117,175.23,120.6,175.36,124.19,175.4"/>
				<path class="st5" d="M113.41,175.03v49.75c-3.48-0.19-6.95-0.46-10.4-0.8v-49.75C106.46,174.58,109.93,174.84,113.41,175.03"/>
				<path class="st5" d="M103.01,174.24v49.75c-3.43-0.34-6.84-0.74-10.22-1.22v-49.75C96.17,173.5,99.58,173.9,103.01,174.24"/>
				<path class="st5" d="M92.79,173.02v49.75c-3.45-0.49-6.87-1.05-10.26-1.69v-49.75C85.92,171.96,89.34,172.53,92.79,173.02"/>
				<path class="st5" d="M82.53,171.32v49.75c-3.58-0.68-7.11-1.44-10.59-2.29v-49.75C75.42,169.88,78.95,170.65,82.53,171.32"/>
				<path class="st5" d="M71.94,169.04v49.75c-3.87-0.94-7.67-1.99-11.38-3.14V165.9C64.28,167.05,68.08,168.1,71.94,169.04"/>
				<path class="st5" d="M60.56,165.9v49.75c-4.56-1.42-8.99-2.99-13.27-4.73c0,0,0,0,0,0v-49.75c0,0,0,0,0,0
					C51.57,162.9,56,164.48,60.56,165.9"/>
				<path class="st5" d="M47.29,161.17v49.75C16.16,198.27,0,179.8,0,161.17v-49.75C0,130.05,16.16,148.53,47.29,161.17"/>
			</g>
		</g>
		<g>
			<path class="st7" d="M127.55,47.5v63.96l80.28-49.71c54.75,22.23,63.19,62.5,18.86,89.96c-25.21,15.61-62.05,23.71-99.21,23.71
				c-28.2,0-56.57-4.66-80.19-14.26c-54.75-22.23-63.19-62.5-18.86-89.96C53.26,55.84,88.11,47.5,127.55,47.5z"/>
		</g>
	</g>
	<g>
		<path class="st8" d="M101.84,140.1c-2.51-1.18-3.76-2.88-3.76-5.09c0-1.53,0.58-2.76,1.75-3.71c1.16-0.95,2.6-1.42,4.32-1.42
			c1.54,0,2.84,0.44,3.91,1.33c1.07,0.88,1.6,2.04,1.6,3.48c0,2.32-1.29,4.12-3.87,5.41v0.05c3.03,1.15,4.55,3.03,4.55,5.65
			c0,1.78-0.63,3.16-1.89,4.15c-1.26,0.99-2.95,1.48-5.06,1.48c-1.73,0-3.17-0.5-4.33-1.5c-1.16-1-1.74-2.31-1.74-3.92
			c0-2.67,1.51-4.63,4.52-5.86V140.1z M103.66,141.24c-2.69,1.08-4.04,2.63-4.04,4.66c0,1.12,0.4,2,1.21,2.65
			c0.81,0.64,1.83,0.96,3.07,0.96c1.2,0,2.19-0.32,2.97-0.96c0.78-0.64,1.17-1.49,1.17-2.55
			C108.04,143.88,106.58,142.29,103.66,141.24z M107.33,134.98c0-0.99-0.31-1.76-0.93-2.32c-0.62-0.56-1.45-0.84-2.48-0.84
			c-0.95,0-1.77,0.29-2.47,0.88c-0.7,0.59-1.05,1.33-1.05,2.23c0,1.85,1.14,3.24,3.42,4.19
			C106.16,138.13,107.33,136.75,107.33,134.98z"/>
		<path class="st8" d="M114.3,148.54c1.17,0.66,2.39,0.98,3.67,0.98c1.89,0,3.37-0.77,4.43-2.32s1.6-3.75,1.6-6.6
			c-0.02,0.02-0.04,0.02-0.05,0c-0.89,1.81-2.45,2.72-4.67,2.72c-1.79,0-3.25-0.61-4.39-1.84c-1.14-1.23-1.7-2.78-1.7-4.64
			c0-1.98,0.61-3.64,1.82-4.96c1.21-1.32,2.82-1.99,4.81-1.99c2.09,0,3.68,0.82,4.79,2.46c1.11,1.64,1.66,3.99,1.66,7.06
			c0,3.79-0.73,6.74-2.18,8.86c-1.45,2.12-3.52,3.18-6.21,3.18c-1.39,0-2.58-0.23-3.57-0.7V148.54z M115.46,136.49
			c0,1.45,0.38,2.62,1.14,3.49s1.81,1.31,3.14,1.31c1.18,0,2.16-0.39,2.93-1.18s1.16-1.73,1.16-2.85c0-1.55-0.39-2.85-1.16-3.9
			c-0.77-1.05-1.81-1.57-3.09-1.57c-1.21,0-2.2,0.46-2.97,1.37C115.85,134.08,115.46,135.19,115.46,136.49z"/>
		<path class="st8" d="M128.86,135.47c0-1.71,0.45-3.06,1.35-4.05c0.9-1,2.11-1.49,3.63-1.49c1.47,0,2.61,0.46,3.43,1.39
			c0.82,0.93,1.23,2.21,1.23,3.86c0,1.63-0.45,2.96-1.36,3.98c-0.91,1.02-2.11,1.53-3.59,1.53c-1.43,0-2.57-0.48-3.42-1.43
			C129.28,138.29,128.86,137.03,128.86,135.47z M130.73,135.33c0,1.19,0.27,2.12,0.8,2.79s1.26,1,2.17,1c0.93,0,1.66-0.34,2.17-1.03
			c0.52-0.69,0.78-1.64,0.78-2.86c0-1.2-0.26-2.14-0.77-2.8s-1.22-1-2.13-1c-0.92,0-1.66,0.35-2.2,1.06S130.73,134.16,130.73,135.33
			z M147.39,130.23l-13.32,21.02h-1.99l13.32-21.02H147.39z M141.23,146.2c0-1.7,0.45-3.05,1.34-4.07c0.89-1.02,2.1-1.53,3.61-1.53
			c1.46,0,2.6,0.47,3.42,1.41s1.24,2.25,1.24,3.92c0,1.64-0.46,2.97-1.38,3.97c-0.92,1.01-2.11,1.51-3.56,1.51
			c-1.41,0-2.54-0.48-3.39-1.43C141.65,149.03,141.23,147.77,141.23,146.2z M143.06,146.08c0,1.17,0.27,2.09,0.81,2.76
			c0.54,0.67,1.26,1.01,2.15,1.01c0.93,0,1.66-0.35,2.17-1.04c0.52-0.7,0.78-1.65,0.78-2.86c0-1.21-0.26-2.14-0.77-2.79
			c-0.51-0.65-1.22-0.97-2.12-0.97c-0.95,0-1.69,0.35-2.23,1.04C143.33,143.93,143.06,144.88,143.06,146.08z"/>
	</g>
</g>
</svg>
