<?xml version="1.0" encoding="utf-8"?>
<!-- Generator: Adobe Illustrator 27.0.0, SVG Export Plug-In . SVG Version: 6.00 Build 0)  -->
<svg version="1.1" id="圖層_1" xmlns="http://www.w3.org/2000/svg" xmlns:xlink="http://www.w3.org/1999/xlink" x="0px" y="0px"
	 viewBox="0 0 256 256" style="enable-background:new 0 0 256 256;" xml:space="preserve">
<style type="text/css">
	.st0{fill:#798E99;}
	.st1{fill:#89A1AF;}
	.st2{enable-background:new    ;}
	.st3{clip-path:url(#SVGID_00000140731398957396109300000011799006668851042454_);enable-background:new    ;}
	.st4{clip-path:url(#SVGID_00000149373887251383761200000007563013973331193010_);enable-background:new    ;}
	.st5{fill:#235D84;}
	.st6{clip-path:url(#SVGID_00000019667130902886897160000003645954458817771190_);enable-background:new    ;}
	.st7{fill:#256599;}
	.st8{fill:#FFFFFF;}
	.st9{clip-path:url(#SVGID_00000026136261111083488650000009820579613538784419_);enable-background:new    ;}
	.st10{clip-path:url(#SVGID_00000097470899571066151700000018037119136728013222_);enable-background:new    ;}
	.st11{clip-path:url(#SVGID_00000106858532416941554650000015333656587498772153_);enable-background:new    ;}
	.st12{clip-path:url(#SVGID_00000101811106633842990130000006077712060235872439_);enable-background:new    ;}
	.st13{clip-path:url(#SVGID_00000116228000205781213390000008758745925266681525_);enable-background:new    ;}
	.st14{fill:#2E7EAA;}
	.st15{fill:#3387C1;}
	.st16{clip-path:url(#SVGID_00000155131023494218971390000005722448126732172695_);enable-background:new    ;}
	.st17{clip-path:url(#SVGID_00000165224616729401310320000012724346943631137462_);enable-background:new    ;}
	.st18{fill:#C4BE49;}
	.st19{fill:#D8D84A;}
	.st20{fill:#25628C;}
	.st21{clip-path:url(#SVGID_00000039133382997653122290000007777476895004779399_);enable-background:new    ;}
	.st22{clip-path:url(#SVGID_00000136403265359130240290000010674677702349618861_);enable-background:new    ;}
	.st23{clip-path:url(#SVGID_00000115488000756082578750000013491039737606911410_);enable-background:new    ;}
	.st24{clip-path:url(#SVGID_00000122689822483221982520000013390259024855679925_);enable-background:new    ;}
	.st25{clip-path:url(#SVGID_00000059299568402771045470000001231866145221981365_);enable-background:new    ;}
	.st26{clip-path:url(#SVGID_00000053539859721016454820000016614897167132734628_);enable-background:new    ;}
	.st27{clip-path:url(#SVGID_00000066483171274858745720000011599835695914467734_);enable-background:new    ;}
	.st28{fill:#54B244;}
	.st29{fill:#59C64A;}
	.st30{clip-path:url(#SVGID_00000013182220533868111360000000865076429692733088_);enable-background:new    ;}
	.st31{clip-path:url(#SVGID_00000055676984850365941260000015705880369232722816_);enable-background:new    ;}
	.st32{clip-path:url(#SVGID_00000048491845850090402540000006571116512250254988_);enable-background:new    ;}
	.st33{clip-path:url(#SVGID_00000165225149126592340030000006429358721218580379_);enable-background:new    ;}
	.st34{clip-path:url(#SVGID_00000173880452606022044840000012158639244383034788_);enable-background:new    ;}
</style>
<g>
	<g>
		<polygon class="st0" points="128,106.7 128,156.63 88.45,95.69 88.45,45.76 		"/>
	</g>
	<g>
		<path class="st1" d="M128,42.63v64.07L88.45,45.76C101.9,43.58,113.86,42.63,128,42.63z"/>
	</g>
</g>
<g>
	<g>
		<g>
			<defs>
				<path id="SVGID_00000010271240842607937870000015259402586357110406_" d="M256,106.7v49.93c0,35.39-57.31,64.07-128,64.07
					S0,192.02,0,156.63V106.7c0,35.39,57.31,64.07,128,64.07S256,142.08,256,106.7z"/>
			</defs>
			<use xlink:href="#SVGID_00000010271240842607937870000015259402586357110406_"  style="overflow:visible;fill:#235D84;"/>
			<clipPath id="SVGID_00000129178342660248175210000001595718989610771892_">
				<use xlink:href="#SVGID_00000010271240842607937870000015259402586357110406_"  style="overflow:visible;"/>
			</clipPath>
			<g style="clip-path:url(#SVGID_00000129178342660248175210000001595718989610771892_);enable-background:new    ;">
				<path class="st5" d="M256,106.7v49.93c0,0.25,0,0.5-0.01,0.75v-49.93C256,107.2,256,106.95,256,106.7"/>
				<path class="st5" d="M255.99,107.45v49.93c-0.04,1.86-0.24,3.7-0.6,5.53v-49.93C255.75,111.16,255.95,109.31,255.99,107.45"/>
				<path class="st5" d="M255.39,112.98v49.93c-0.34,1.77-0.83,3.53-1.46,5.26v-49.93C254.56,116.5,255.05,114.75,255.39,112.98"/>
				<path class="st5" d="M253.93,118.23v49.93c-0.63,1.74-1.4,3.45-2.31,5.14v-49.93C252.53,121.69,253.3,119.97,253.93,118.23"/>
				<path class="st5" d="M251.62,123.37v49.93c-0.94,1.75-2.02,3.47-3.24,5.15v-49.93C249.6,126.84,250.68,125.12,251.62,123.37"/>
				<path class="st5" d="M248.38,128.53v49.93c-1.31,1.81-2.77,3.58-4.39,5.31v-49.93C245.61,132.1,247.07,130.33,248.38,128.53"/>
				<path class="st5" d="M243.99,133.83v49.93c-1.81,1.93-3.8,3.81-5.98,5.64v-49.93C240.19,137.65,242.18,135.77,243.99,133.83"/>
				<path class="st5" d="M238.01,139.47v49.93c-2.68,2.25-5.63,4.41-8.83,6.47v-49.93C232.38,143.88,235.33,141.72,238.01,139.47"/>
				<path class="st5" d="M229.19,145.94v49.93c-5.23,3.38-11.12,6.48-17.58,9.27v-49.93C218.06,152.42,223.96,149.32,229.19,145.94"
					/>
				<path class="st5" d="M211.61,155.21v49.93c-7.39,3.2-15.52,5.97-24.25,8.26v-49.93C196.09,161.19,204.22,158.41,211.61,155.21"
					/>
				<path class="st5" d="M187.36,163.48v49.93c-7.35,1.93-15.12,3.51-23.23,4.7v-49.93C172.24,166.99,180.01,165.41,187.36,163.48"
					/>
				<path class="st5" d="M164.14,168.18v49.93c-4.94,0.73-10,1.31-15.17,1.73v-49.93C154.13,169.49,159.2,168.91,164.14,168.18"/>
				<path class="st5" d="M148.97,169.92v49.93c-4.14,0.34-8.34,0.58-12.6,0.72v-49.93C140.63,170.5,144.83,170.26,148.97,169.92"/>
				<path class="st5" d="M136.37,170.64v49.93c-2.77,0.09-5.56,0.13-8.37,0.13c-1.1,0-2.2-0.01-3.29-0.02v-49.93
					c1.09,0.01,2.19,0.02,3.29,0.02C130.81,170.77,133.6,170.73,136.37,170.64"/>
				<path class="st5" d="M124.71,170.75v49.93c-3.68-0.05-7.33-0.17-10.92-0.37v-49.93C117.38,170.58,121.03,170.7,124.71,170.75"/>
				<path class="st5" d="M113.79,170.38v49.93c-3.53-0.2-7.02-0.46-10.46-0.8v-49.93C106.77,169.92,110.25,170.19,113.79,170.38"/>
				<path class="st5" d="M103.33,169.58v49.93c-3.47-0.34-6.89-0.75-10.26-1.23v-49.93C96.43,168.83,99.85,169.24,103.33,169.58"/>
				<path class="st5" d="M93.07,168.36v49.93c-3.5-0.5-6.95-1.07-10.32-1.7v-49.93C86.12,167.29,89.56,167.86,93.07,168.36"/>
				<path class="st5" d="M82.75,166.65v49.93c-3.63-0.69-7.19-1.46-10.66-2.3v-49.93C75.56,165.2,79.11,165.96,82.75,166.65"/>
				<path class="st5" d="M72.09,164.35v49.93c-3.9-0.95-7.69-1.99-11.35-3.13v-49.93C64.4,162.36,68.19,163.4,72.09,164.35"/>
				<path class="st5" d="M60.74,161.22v49.93c-4.69-1.45-9.18-3.05-13.45-4.79v-49.93C51.56,158.17,56.05,159.77,60.74,161.22"/>
				<path class="st5" d="M47.29,156.43v49.93C18.44,194.62,0,176.7,0,156.63V106.7C0,126.77,18.44,144.68,47.29,156.43"/>
			</g>
		</g>
		<g>
			<path class="st7" d="M128,42.63c70.69,0,128,28.69,128,64.07c0,35.39-57.31,64.07-128,64.07S0,142.08,0,106.7
				c0-28.31,34.66-52.19,88.45-60.94L128,106.7V42.63z"/>
		</g>
	</g>
	<g>
		<path class="st8" d="M115.71,142.77c1.18,0.66,2.41,0.99,3.69,0.99c1.9,0,3.38-0.78,4.45-2.33s1.61-3.76,1.61-6.63
			c-0.02,0.02-0.04,0.02-0.05,0c-0.9,1.82-2.47,2.73-4.7,2.73c-1.8,0-3.27-0.62-4.41-1.85s-1.71-2.79-1.71-4.66
			c0-1.99,0.61-3.65,1.83-4.98s2.83-1.99,4.84-1.99c2.1,0,3.7,0.82,4.82,2.47c1.12,1.64,1.67,4.01,1.67,7.09
			c0,3.8-0.73,6.77-2.19,8.89c-1.46,2.13-3.54,3.19-6.24,3.19c-1.39,0-2.59-0.23-3.59-0.7V142.77z M116.88,130.67
			c0,1.46,0.38,2.63,1.15,3.51c0.76,0.88,1.82,1.32,3.16,1.32c1.19,0,2.17-0.39,2.95-1.18c0.78-0.79,1.17-1.74,1.17-2.86
			c0-1.56-0.39-2.86-1.17-3.91c-0.78-1.05-1.82-1.57-3.11-1.57c-1.21,0-2.21,0.46-2.98,1.37S116.88,129.36,116.88,130.67z"/>
		<path class="st8" d="M131.6,142.36c1.42,0.93,2.87,1.39,4.35,1.39s2.68-0.43,3.6-1.28c0.93-0.85,1.39-1.98,1.39-3.39
			c0-1.41-0.46-2.51-1.39-3.28s-2.26-1.16-4.01-1.16c-0.55,0-1.64,0.05-3.28,0.16v-10.42h10.02v2.05h-7.87v6.27
			c0.78-0.05,1.38-0.07,1.78-0.07c2.2,0,3.92,0.55,5.16,1.66s1.87,2.66,1.87,4.66c0,2.08-0.67,3.72-2.02,4.92
			c-1.35,1.2-3.12,1.8-5.32,1.8c-1.93,0-3.35-0.29-4.28-0.86V142.36z"/>
		<path class="st8" d="M146.38,129.64c0-1.71,0.45-3.07,1.36-4.07c0.9-1,2.12-1.5,3.65-1.5c1.48,0,2.63,0.47,3.45,1.4
			s1.24,2.22,1.24,3.87c0,1.64-0.46,2.97-1.37,3.99s-2.12,1.53-3.61,1.53c-1.44,0-2.58-0.48-3.44-1.44
			C146.8,132.47,146.38,131.21,146.38,129.64z M148.26,129.51c0,1.2,0.27,2.13,0.8,2.8s1.26,1.01,2.18,1.01
			c0.94,0,1.66-0.34,2.19-1.03s0.78-1.65,0.78-2.87c0-1.21-0.26-2.14-0.78-2.81c-0.52-0.67-1.23-1-2.14-1
			c-0.93,0-1.66,0.36-2.21,1.07C148.53,127.38,148.26,128.33,148.26,129.51z M165.01,124.39l-13.39,21.1h-2l13.39-21.1H165.01z
			 M158.81,140.41c0-1.7,0.45-3.07,1.35-4.09s2.11-1.53,3.63-1.53c1.47,0,2.61,0.47,3.44,1.42s1.24,2.26,1.24,3.93
			c0,1.65-0.46,2.98-1.38,3.99c-0.92,1.01-2.12,1.51-3.58,1.51c-1.41,0-2.55-0.48-3.41-1.43
			C159.24,143.26,158.81,141.99,158.81,140.41z M160.66,140.29c0,1.17,0.27,2.09,0.82,2.77c0.54,0.68,1.27,1.01,2.17,1.01
			c0.94,0,1.66-0.35,2.19-1.05c0.52-0.7,0.78-1.66,0.78-2.87s-0.26-2.15-0.77-2.8c-0.51-0.65-1.22-0.97-2.13-0.97
			c-0.95,0-1.7,0.35-2.24,1.05C160.93,138.13,160.66,139.08,160.66,140.29z"/>
	</g>
</g>
</svg>
