<?xml version="1.0" encoding="utf-8"?>
<!-- Generator: Adobe Illustrator 27.0.0, SVG Export Plug-In . SVG Version: 6.00 Build 0)  -->
<svg version="1.1" id="_圖層_1" xmlns="http://www.w3.org/2000/svg" xmlns:xlink="http://www.w3.org/1999/xlink" x="0px" y="0px"
	 viewBox="0 0 512 512" style="enable-background:new 0 0 512 512;" xml:space="preserve">
<style type="text/css">
	.st0{fill:#FFFFFF;}
</style>
<path class="st0" d="M295.9,394.4c-39.6,15.5-64.7-8.2-90.9-29.9c-21.3-17.7-44-33.7-64.6-52.2c-18.1-16.2-37.8-24.6-62.3-24.8
	c-21.1-0.2-42.2-3.5-63.2-6.1c-14.1-1.8-18.5-6.9-11.7-22.5c18.3-42.2,34.4-85.3,50.4-128.4c6.4-17.2,14-22.4,32.3-13.9
	c34,15.6,68.2,32.9,107.7,29.2c11.1-1,22.5-1.2,33.2-3.7c38.6-9,74.8,0.6,110.7,12.9c14.8,5.1,27.6,4.8,41.3-3.5
	c13.4-8.2,28.4-14,42.3-21.5c12.5-6.8,20.9-4.3,27,8.8c19.6,42.3,40,84.3,59.4,126.7c8.9,19.4,5.6,24.4-15,26.9
	c-22.3,2.6-44.6,5.5-67.1,8c-15.1,1.6-24.8,8.2-25.1,24.5c-0.2,14.1-7.3,23.1-20.8,27.9c-3.8,1.4-8.2,4.9-9.6,8.6
	c-5.6,13.7-15.6,18.2-29.7,18.1c-5,0-10.4,3.7-15.2,6.3 M343.6,359.2c7,1.8,7.7-4.1,7.3-6.3c-3.4-5.4-7.5-10.7-11.9-15.1
	c-14.4-14.4-30.3-27.5-44.2-42.4c-4.7-5.1,8.8-19.8,14-15.5c15.2,12.5,28.5,27.5,43.6,40.1c6.2,5.2,19.7,10.2,22.5,9.1
	c10.9-3.9,0.5-18.7-6.9-26.4c-18.2-19-36.6-38-54.5-57.2c-33.5-35.7-42.6-35.6-72.4-5.9c-0.9,0.9-2.1,1.6-3.1,2.4
	c-25.3,17-52.3,7.3-56-22.8c-2.1-16.8,3.5-34.5,5.7-52c-21.2-2.5-34.3,7.3-39.3,29.3c-4.8,21.8-10.7,43.4-14,65.4
	c-1.1,7.3,2.2,18.3,7.6,22.9c33.7,28.5,68.6,55.8,103.3,83c6.1,4.7,13.3,12.2,22.2,11.4c-0.9-12.9-17.1-19.6-24.4-28.8
	c-3.6-4.5,9.6-18.8,13.9-15.5c12.9,10.1,23.2,23.6,36.8,33c5.7,3.9,9,8,14.6,7.1c2.6-0.8,4.1-2.4,2.2-8
	c-14.5-13.1-28.1-25.6-41.5-39.7c-5-5.4,7.7-20,13.3-15.7c14.1,10.8,26.5,23.8,40.2,35.1C328.5,352,336,356.8,343.6,359.2
	L343.6,359.2z M26.1,260.4c29.8,2.8,55.9,5.3,83.2,7.9c8.4-36.6,16.5-71.6,24.7-108c-20-8.3-39.1-16.1-59.5-24.5
	C58,178.5,42.5,218.1,26.1,260.4z M384.5,289.1c2.8,2.9,7.9,1.3,8.3-2.7c0.1-0.8,0-1.3-0.2-1.8c-12.7-31.7-25.6-63.3-38.9-94.8
	c-1.8-4.3-6.3-9.4-10.5-10.5c-32.8-9-64.2-24.5-100.3-17.6c-18.2,3.5-37.4,20.5-40.6,38.4c-5.3,28.7,23.1,24.9,31.4,17.9
	c0,0,6.8-6.2,10.4-9c20.8-15.5,38.4-16.9,58.2-2.2c12.6,9.3,23.4,21.1,34.4,32.4C352.2,254.8,367.1,270.8,384.5,289.1L384.5,289.1z
	 M373.3,177.9c13.2,32.7,25.6,63.7,38.7,94.2c1.5,3.5,7.9,7.4,11.6,7c20-1.9,40-5,62.5-8.1c-19.4-41.4-37.6-80.2-56.5-120.6
	C409.4,160.2,391.9,168.8,373.3,177.9L373.3,177.9z"/>
</svg>
