<?xml version="1.0" encoding="utf-8"?>
<!-- Generator: Adobe Illustrator 27.0.0, SVG Export Plug-In . SVG Version: 6.00 Build 0)  -->
<svg version="1.1" id="圖層_1" xmlns="http://www.w3.org/2000/svg" xmlns:xlink="http://www.w3.org/1999/xlink" x="0px" y="0px"
	 viewBox="0 0 512 512" style="enable-background:new 0 0 512 512;" xml:space="preserve">
<style type="text/css">
	.st0{fill:#FFFFFF;}
</style>
<path class="st0" d="M0,499c2.9-5.5,7.5-7.5,13.6-7c4.3,0.4,8.6,0.1,13.7,0.1c0-2.1,0-3.8,0-5.6c0-12.2,0-24.3,0-36.5
	c0-8,2.4-11.1,10.1-13.1c13.2-3.4,26.4-6.7,39.6-9.9c3.2-0.8,5-2.2,6.2-5.4c4.2-10.8,8.8-21.5,13.4-32.2c1.2-2.8,0.9-4.8-0.7-7.3
	c-7.2-11.6-14.1-23.3-21.1-35.1c-4.2-7.1-3.8-10.6,1.9-16.4c11.8-11.8,23.5-23.6,35.3-35.4c5.5-5.5,9.4-5.9,16-2
	c11.7,7,23.4,14,35.1,21.1c2.6,1.6,4.8,2,7.8,0.7c10.7-4.6,21.4-9,32.2-13.3c2.9-1.2,4.3-2.9,5-6c3.1-13.1,6.5-26.1,9.7-39.1
	c2-8.1,5-10.6,13.2-10.6c16.5,0,33,0,49.5,0c8.2,0,11.2,2.5,13.2,10.6c3.3,13.2,6.5,26.5,10,39.6c0.5,2,2.5,4.4,4.3,5.2
	c10.9,4.8,22,9.4,33.2,13.7c1.9,0.7,4.9,0.5,6.7-0.6c11.8-6.8,23.5-14,35.2-21c7.3-4.3,10.9-3.9,16.8,2
	c11.6,11.5,23.1,23.1,34.6,34.6c6.2,6.2,6.6,9.5,2,17.2c-6.9,11.6-13.8,23.2-20.9,34.6c-1.6,2.5-1.9,4.5-0.7,7.3
	c4.6,10.7,9.1,21.4,13.4,32.2c1.2,3.2,3.1,4.6,6.2,5.4c13.2,3.2,26.4,6.5,39.6,9.9c7.7,2,10.1,5,10.2,13.1c0.1,12,0,24,0,36
	c0,1.8,0,3.6,0,6.1c4.8,0,9.3,0.3,13.7-0.1c6.1-0.5,10.7,1.5,13.6,7.1c0,4.3,0,8.7,0,13c-170.7,0-341.3,0-512,0
	C0,507.7,0,503.3,0,499z M123.2,313.9c-9.4,9.5-18.5,18.7-27.8,28c7.1,11.7,14.3,23.9,21.7,35.9c2.6,4.2,2.9,8.2,1,12.8
	c-6.4,15.1-12.7,30.3-18.9,45.6c-1.9,4.8-5.1,7.5-10.1,8.7c-11.2,2.6-22.3,5.4-33.4,8.2c-2.7,0.7-5.3,1.5-7.6,2.2
	c0,12.5,0,24.5,0,36.5c33.9,0,67.5,0,101.3,0c-0.4-5.1-1.2-9.9-1.2-14.7c0-33.9,12.5-62.2,38.1-84.5c9.2-8.1,19.7-14.1,31.2-18.5
	c4.4-1.7,8.3-0.8,11.4,2.5c2.9,3.1,3.8,7.2,1.6,10.6c-1.9,2.8-5.1,5.3-8.3,6.7c-17.2,7.4-30.8,19-40.6,34.9
	c-12,19.5-15.4,40.6-11.3,63c57.5,0,114.5,0,171.6,0c3.3-19.4,1.4-37.8-7.2-55.3c-10-20.3-25.6-34.5-46.4-43.3
	c-6.6-2.8-8.9-8.2-6.6-13.6c2.4-5.5,8.1-7.4,14.7-4.8c41.8,16.9,69.2,59,67.4,103.8c-0.2,4.4-0.8,8.8-1.2,13.1
	c34.2,0,67.8,0,101.6,0c0-11-0.2-21.6,0.1-32.3c0.1-3.7-1.4-4.8-4.6-5.5c-12.3-2.9-24.5-6-36.8-9c-4.9-1.2-8.1-3.8-10.1-8.6
	c-5.9-14.8-12-29.6-18.4-44.2c-2.4-5.6-2.1-10.3,1.2-15.5c7.3-11.6,14.2-23.5,21-34.8c-9.4-9.4-18.5-18.5-27.9-27.8
	c-11.7,7-23.8,14.2-35.9,21.6c-4.4,2.7-8.5,3-13.2,1c-15.1-6.4-30.4-12.7-45.6-18.9c-4.5-1.9-7.1-4.9-8.3-9.7
	c-3-12.8-6.5-25.4-9.5-38.2c-0.7-2.9-1.8-3.7-4.7-3.7c-10.5,0.1-21,0.1-31.5,0c-2.8,0-4,0.8-4.7,3.7c-3,12.6-6.5,25.1-9.3,37.7
	c-1.2,5.5-4.3,8.6-9.3,10.6c-14.5,5.8-29,11.7-43.3,18c-5.8,2.5-10.6,2.1-15.9-1.2C146.2,327.5,134.4,320.7,123.2,313.9z"/>
<path class="st0" d="M0,182c3.1-3.4,6.1-7,9.4-10.2C44.2,136.8,79.1,102,113.9,67.1c8-8,12.5-8,20.5,0.1
	c36.3,36.3,72.6,72.6,108.8,108.9c1.3,1.3,2.4,2.8,3.2,3.8c42.2-42.2,84-84,126.1-126.1c-9.5-9.4-19.5-19.4-29.5-29.4
	c-1.6-1.6-3.3-3.3-4.9-4.9C330.7,11.8,331.2,6,340,0c57.3,0,114.7,0,172,0c0,57.3,0,114.7,0,172c-6,8.7-11.9,9.3-19.5,1.7
	c-11.5-11.5-23-23.1-35.6-35.7c-1.4,1.9-2.3,3.7-3.7,5.1c-31.3,31.4-62.7,62.7-94,94.1c-6.6,6.6-12.6,7.6-17.2,2.9
	c-4.8-4.8-3.8-10.6,2.9-17.3c31.3-31.4,62.7-62.7,94-94c1.3-1.3,2.8-2.4,3.7-3.2c-18.8-18.8-37.2-37.2-55.4-55.4
	c-41.1,41.1-82.9,82.9-125.3,125.2c4.8,4.6,10.2,9.4,15.1,14.6c6.1,6.6,3.5,15.8-4.9,17.2c-2.2,0.4-4.9-0.4-7-1.4
	c-1.9-0.9-3.4-2.6-4.9-4.1c-43.9-43.8-87.7-87.7-131.5-131.5c-1.4-1.4-2.6-3-5.6-6.3c-1.3,2.4-1.8,4.3-3.1,5.6
	C86.6,123,53,156.6,19.4,190.2c-3.4,3.4-7,6.3-11.8,4.6c-2.9-1-5.1-3.8-7.6-5.8C0,186.7,0,184.3,0,182z M491.8,20.4
	c-41.3,0-82.3,0-122.3,0C410.1,61.1,451,102,491.8,142.7C491.8,102.4,491.8,61.6,491.8,20.4z"/>
<path class="st0" d="M0,322c3-3.3,5.8-6.8,9-9.9C51.5,269.5,94,227,136.6,184.4c1.5-1.5,3.1-3.1,4.8-4.4c4.3-3.1,9.7-2.7,13.2,0.9
	c3.5,3.6,3.9,9.6,0.1,13.6c-5.1,5.4-10.7,10.4-16.6,16c1.8,1.8,2.9,3.1,4.2,4.4c15.9,15.9,31.8,31.8,47.7,47.8
	c1.9,1.9,3.9,4,4.7,6.3c1.5,4.2,0.6,8.2-3.2,11.1c-3.7,2.8-7.7,3-11.6,0.4c-1.8-1.2-3.4-2.7-4.9-4.2c-16.9-16.8-33.7-33.7-52.1-52.1
	c-1,1.9-1.6,3.9-2.8,5.1C86.6,263,53,296.5,19.4,330.2c-3.4,3.4-7,6.3-11.8,4.6c-2.8-1-5.1-3.8-7.6-5.7C0,326.7,0,324.3,0,322z"/>
<path class="st0" d="M324.3,247.9c5.5,0,9.8,4.2,9.8,9.7c0.1,5.5-4.5,10.3-9.9,10.3c-5.1,0-9.9-4.8-10-9.9
	C314,252.6,318.8,247.9,324.3,247.9z"/>
<path class="st0" d="M256.4,367c5.8,0.1,10.1,4.5,10,10.2c-0.1,5.4-4.6,9.7-10,9.7c-5.6,0-10.2-4.5-10.2-10.1
	C246.1,371.2,250.6,366.9,256.4,367z"/>
</svg>
