<?xml version="1.0" encoding="UTF-8"?>
<svg id="_圖層_1" data-name=" 圖層 1" xmlns="http://www.w3.org/2000/svg" viewBox="0 0 512 462.84">
  <defs>
    <style>
      .cls-1 {
        fill: #fff;
      }
    </style>
  </defs>
  <path class="cls-1" d="M0,452.33c2.83-3.87,6.75-4.73,11.34-4.63,9.5,.2,19,.04,28.5,0,.49,0,.98-.15,2.2-.34,0-1.67,0-3.44,0-5.2,0-25.17-.02-50.35,0-75.52,.01-12.63,6.78-19.57,19.36-19.65,16.33-.1,32.67-.07,49-.02,13.58,.04,20.3,6.75,20.32,20.27,.03,24.67,0,49.35,0,74.02,0,1.96,0,3.91,0,6.18h24.38c0-5.92,0-11.71,0-17.49,0-7.5-.04-15,.02-22.51,.05-5.9,2.78-9.22,7.47-9.27,4.78-.05,7.5,3.15,7.53,9.1,.05,11.5,.01,23.01,.02,34.51,0,1.79,0,3.58,0,5.67h58.44c.08-1.85,.23-3.6,.23-5.36,.01-42.68,.01-85.35,0-128.03,0-6.76-.02-6.77-6.59-6.78-15.33,0-30.67,.19-46-.11-4.98-.1-6.23,1.67-6.18,6.36,.21,19.17,.09,38.34,.08,57.51,0,1.33,.04,2.67-.02,4-.24,4.72-3.12,7.86-7.26,7.95-4.08,.1-7.62-3.06-7.64-7.63-.12-22.34-.32-44.68,.12-67.01,.18-9.4,8.09-16.03,17.76-16.08,17.33-.1,34.67-.08,52-.02,11.4,.04,18.66,7.28,18.74,18.82,.11,17.5,.03,35.01,.03,52.51,0,26.01,0,52.01,0,78.02v5.77h24.35v-6.31c0-60.68,0-121.36,0-182.05,0-15.13,6.46-21.58,21.61-21.59,15.67,0,31.33-.02,47,0,13.09,.02,20.12,7.01,20.12,20.04,.02,61.18,0,122.36,0,183.55,0,1.98,0,3.95,0,6.32h24.38c0-2.01,0-4.1,0-6.19,0-79.19,0-158.37-.02-237.56,0-5.29,.61-10.32,4.23-14.51,3.33-3.85,7.49-6.14,12.62-6.16,18.33-.07,36.67-.28,54.99,.06,9.86,.18,16.76,7.63,16.81,17.53,.13,25.01,.07,50.01,.03,75.02,0,5.56-2.78,8.76-7.33,8.86-4.78,.11-7.64-3.15-7.65-8.99-.04-23.84-.12-47.68,.08-71.52,.04-4.58-1.3-6.14-5.94-6.07-15.66,.23-31.33,.21-47,0-4.27-.05-5.87,1.19-5.86,5.65,.1,79.85,.07,159.71,.08,239.56,0,2.29-.54,4.77,3.23,4.74,18-.13,35.99-.14,53.99-.2,.29,0,.58-.26,1.41-.65,0-1.7,0-3.66,0-5.62,0-43.34,0-86.69,0-130.03,0-1.67-.12-3.36,.1-5,.54-4.01,3.05-6.4,6.97-6.59,4.19-.21,6.91,2.16,7.77,6.29,.33,1.61,.17,3.32,.17,4.99,0,43.34,0,86.69,0,130.03v6.48c2.04,.1,3.79,.26,5.54,.27,9.33,.03,18.67-.08,28,.07,5.21,.08,8.34,2.98,8.44,7.3,.11,4.48-3.18,7.4-8.6,7.63-1.16,.05-2.33,.02-3.5,.02-162.67,0-325.34-.01-488.01,.07-4.72,0-8.84-.57-11.88-4.51v-6Zm341.62-4.91c.11-1.6,.28-2.89,.28-4.19,.01-61.64-.03-123.27,.09-184.91,0-4.72-1.73-6-6.17-5.94-15.32,.19-30.64,.07-45.97,.08-6.45,0-6.63,.19-6.63,6.84,0,60.97,0,121.94,0,182.91,0,1.62,0,3.25,0,5.21h58.39Zm-226.39,.04c.19-1.05,.41-1.69,.41-2.32,.02-26.15-.02-52.3,.08-78.44,.01-3.88-1.78-4.72-5.23-4.69-15.82,.11-31.64,.23-47.45-.05-5-.09-6.13,1.77-6.09,6.4,.19,24.65,.09,49.3,.09,73.95,0,1.62,0,3.25,0,5.17h58.18Z"/>
  <path class="cls-1" d="M413.98,96.27c-2.74-27.14-5.36-53.11-8.02-79.5-25.77,6.71-50.97,13.27-77.3,20.12,5.8,4.08,10.77,7.55,15.72,11.06,5.93,4.21,6.67,7.22,2.96,13.46-10.97,18.47-24.94,34.55-40.06,49.67-3.53,3.53-8.11,3.47-11.12,.33-3.02-3.15-2.67-7.19,.68-11.14,10.87-12.82,21.68-25.68,32.48-38.56,.95-1.13,1.64-2.49,2.64-4.04-8.03-5.61-15.88-11.18-23.84-16.6-3.13-2.13-5.32-4.57-4.55-8.62,.76-4.01,3.57-5.51,7.29-6.47,32.06-8.26,64.09-16.66,96.13-25,9.39-2.45,12.34-.59,13.31,8.85,3.41,33.31,6.7,66.64,10.1,99.95,.38,3.69-.27,7.22-3.85,8.28-2.62,.77-6.4,.51-8.66-.9-8.19-5.09-15.96-10.85-24.78-16.98-.59,.98-1.09,2.02-1.78,2.91-49.48,63.72-113.7,106.11-189.88,131.13-38.48,12.64-78.04,19.76-118.36,22.86-9.83,.76-17.33-4.42-19.14-13.03-1.98-9.4,2.57-17.07,12.59-20.23,36.4-11.48,71.89-25.21,105.91-42.61,31.99-16.36,62.15-35.52,89.82-58.52,1.74-1.45,4.1-3.45,5.9-3.21,2.74,.37,6.1,1.86,7.67,4,2.57,3.49,.66,7.1-2.54,9.54-12.45,9.49-24.65,19.36-37.55,28.19-48.91,33.44-102.56,56.98-158.78,75.03-1.9,.61-3.88,1.06-5.66,1.91-1,.48-1.67,1.63-2.49,2.48,1.08,.48,2.2,1.45,3.24,1.37,6.81-.5,13.61-1.11,20.4-1.9,47.24-5.52,92.92-16.91,136.43-36.45,57.05-25.62,104.92-62.84,142.84-112.7,1.21-1.59,2.36-3.24,3.64-4.77,3.48-4.18,6.82-4.77,11.37-1.77,5.53,3.65,10.93,7.5,17.26,11.87Z"/>
</svg>