<?xml version="1.0" encoding="utf-8"?>
<!-- Generator: Adobe Illustrator 27.0.0, SVG Export Plug-In . SVG Version: 6.00 Build 0)  -->
<svg version="1.1" id="圖層_1" xmlns="http://www.w3.org/2000/svg" xmlns:xlink="http://www.w3.org/1999/xlink" x="0px" y="0px"
	 viewBox="0 0 150 150" style="enable-background:new 0 0 150 150;" xml:space="preserve">
<style type="text/css">
	.st0{fill:#FFFFFF;}
</style>
<g id="quickmark" transform="translate(40,40)">
	<rect x="-40" y="-40" class="st0" width="4.5" height="4.5"/>
	<rect x="-35.5" y="-40" class="st0" width="4.5" height="4.5"/>
	<rect x="-30.9" y="-40" class="st0" width="4.5" height="4.5"/>
	<rect x="-26.4" y="-40" class="st0" width="4.5" height="4.5"/>
	<rect x="-21.8" y="-40" class="st0" width="4.5" height="4.5"/>
	<rect x="-17.3" y="-40" class="st0" width="4.5" height="4.5"/>
	<rect x="-12.7" y="-40" class="st0" width="4.5" height="4.5"/>
	<rect x="-3.6" y="-40" class="st0" width="4.5" height="4.5"/>
	<rect x="0.9" y="-40" class="st0" width="4.5" height="4.5"/>
	<rect x="5.5" y="-40" class="st0" width="4.5" height="4.5"/>
	<rect x="28.2" y="-40" class="st0" width="4.5" height="4.5"/>
	<rect x="37.3" y="-40" class="st0" width="4.5" height="4.5"/>
	<rect x="41.8" y="-40" class="st0" width="4.5" height="4.5"/>
	<rect x="50.9" y="-40" class="st0" width="4.5" height="4.5"/>
	<rect x="55.5" y="-40" class="st0" width="4.5" height="4.5"/>
	<rect x="64.5" y="-40" class="st0" width="4.5" height="4.5"/>
	<rect x="78.2" y="-40" class="st0" width="4.5" height="4.5"/>
	<rect x="82.7" y="-40" class="st0" width="4.5" height="4.5"/>
	<rect x="87.3" y="-40" class="st0" width="4.5" height="4.5"/>
	<rect x="91.8" y="-40" class="st0" width="4.5" height="4.5"/>
	<rect x="96.4" y="-40" class="st0" width="4.5" height="4.5"/>
	<rect x="100.9" y="-40" class="st0" width="4.5" height="4.5"/>
	<rect x="105.5" y="-40" class="st0" width="4.5" height="4.5"/>
	<rect x="-40" y="-35.5" class="st0" width="4.5" height="4.5"/>
	<rect x="-12.7" y="-35.5" class="st0" width="4.5" height="4.5"/>
	<rect x="0.9" y="-35.5" class="st0" width="4.5" height="4.5"/>
	<rect x="5.5" y="-35.5" class="st0" width="4.5" height="4.5"/>
	<rect x="10" y="-35.5" class="st0" width="4.5" height="4.5"/>
	<rect x="14.5" y="-35.5" class="st0" width="4.5" height="4.5"/>
	<rect x="32.7" y="-35.5" class="st0" width="4.5" height="4.5"/>
	<rect x="37.3" y="-35.5" class="st0" width="4.5" height="4.5"/>
	<rect x="46.4" y="-35.5" class="st0" width="4.5" height="4.5"/>
	<rect x="55.5" y="-35.5" class="st0" width="4.5" height="4.5"/>
	<rect x="78.2" y="-35.5" class="st0" width="4.5" height="4.5"/>
	<rect x="105.5" y="-35.5" class="st0" width="4.5" height="4.5"/>
	<rect x="-40" y="-30.9" class="st0" width="4.5" height="4.5"/>
	<rect x="-30.9" y="-30.9" class="st0" width="4.5" height="4.5"/>
	<rect x="-26.4" y="-30.9" class="st0" width="4.5" height="4.5"/>
	<rect x="-21.8" y="-30.9" class="st0" width="4.5" height="4.5"/>
	<rect x="-12.7" y="-30.9" class="st0" width="4.5" height="4.5"/>
	<rect x="10" y="-30.9" class="st0" width="4.5" height="4.5"/>
	<rect x="19.1" y="-30.9" class="st0" width="4.5" height="4.5"/>
	<rect x="28.2" y="-30.9" class="st0" width="4.5" height="4.5"/>
	<rect x="32.7" y="-30.9" class="st0" width="4.5" height="4.5"/>
	<rect x="50.9" y="-30.9" class="st0" width="4.5" height="4.5"/>
	<rect x="55.5" y="-30.9" class="st0" width="4.5" height="4.5"/>
	<rect x="60" y="-30.9" class="st0" width="4.5" height="4.5"/>
	<rect x="64.5" y="-30.9" class="st0" width="4.5" height="4.5"/>
	<rect x="78.2" y="-30.9" class="st0" width="4.5" height="4.5"/>
	<rect x="87.3" y="-30.9" class="st0" width="4.5" height="4.5"/>
	<rect x="91.8" y="-30.9" class="st0" width="4.5" height="4.5"/>
	<rect x="96.4" y="-30.9" class="st0" width="4.5" height="4.5"/>
	<rect x="105.5" y="-30.9" class="st0" width="4.5" height="4.5"/>
	<rect x="-40" y="-26.4" class="st0" width="4.5" height="4.5"/>
	<rect x="-30.9" y="-26.4" class="st0" width="4.5" height="4.5"/>
	<rect x="-26.4" y="-26.4" class="st0" width="4.5" height="4.5"/>
	<rect x="-21.8" y="-26.4" class="st0" width="4.5" height="4.5"/>
	<rect x="-12.7" y="-26.4" class="st0" width="4.5" height="4.5"/>
	<rect x="-3.6" y="-26.4" class="st0" width="4.5" height="4.5"/>
	<rect x="23.6" y="-26.4" class="st0" width="4.5" height="4.5"/>
	<rect x="37.3" y="-26.4" class="st0" width="4.5" height="4.5"/>
	<rect x="41.8" y="-26.4" class="st0" width="4.5" height="4.5"/>
	<rect x="46.4" y="-26.4" class="st0" width="4.5" height="4.5"/>
	<rect x="50.9" y="-26.4" class="st0" width="4.5" height="4.5"/>
	<rect x="64.5" y="-26.4" class="st0" width="4.5" height="4.5"/>
	<rect x="69.1" y="-26.4" class="st0" width="4.5" height="4.5"/>
	<rect x="78.2" y="-26.4" class="st0" width="4.5" height="4.5"/>
	<rect x="87.3" y="-26.4" class="st0" width="4.5" height="4.5"/>
	<rect x="91.8" y="-26.4" class="st0" width="4.5" height="4.5"/>
	<rect x="96.4" y="-26.4" class="st0" width="4.5" height="4.5"/>
	<rect x="105.5" y="-26.4" class="st0" width="4.5" height="4.5"/>
	<rect x="-40" y="-21.8" class="st0" width="4.5" height="4.5"/>
	<rect x="-30.9" y="-21.8" class="st0" width="4.5" height="4.5"/>
	<rect x="-26.4" y="-21.8" class="st0" width="4.5" height="4.5"/>
	<rect x="-21.8" y="-21.8" class="st0" width="4.5" height="4.5"/>
	<rect x="-12.7" y="-21.8" class="st0" width="4.5" height="4.5"/>
	<rect x="-3.6" y="-21.8" class="st0" width="4.5" height="4.5"/>
	<rect x="10" y="-21.8" class="st0" width="4.5" height="4.5"/>
	<rect x="19.1" y="-21.8" class="st0" width="4.5" height="4.5"/>
	<rect x="23.6" y="-21.8" class="st0" width="4.5" height="4.5"/>
	<rect x="37.3" y="-21.8" class="st0" width="4.5" height="4.5"/>
	<rect x="41.8" y="-21.8" class="st0" width="4.5" height="4.5"/>
	<rect x="46.4" y="-21.8" class="st0" width="4.5" height="4.5"/>
	<rect x="50.9" y="-21.8" class="st0" width="4.5" height="4.5"/>
	<rect x="78.2" y="-21.8" class="st0" width="4.5" height="4.5"/>
	<rect x="87.3" y="-21.8" class="st0" width="4.5" height="4.5"/>
	<rect x="91.8" y="-21.8" class="st0" width="4.5" height="4.5"/>
	<rect x="96.4" y="-21.8" class="st0" width="4.5" height="4.5"/>
	<rect x="105.5" y="-21.8" class="st0" width="4.5" height="4.5"/>
	<rect x="-40" y="-17.3" class="st0" width="4.5" height="4.5"/>
	<rect x="-12.7" y="-17.3" class="st0" width="4.5" height="4.5"/>
	<rect x="-3.6" y="-17.3" class="st0" width="4.5" height="4.5"/>
	<rect x="0.9" y="-17.3" class="st0" width="4.5" height="4.5"/>
	<rect x="5.5" y="-17.3" class="st0" width="4.5" height="4.5"/>
	<rect x="19.1" y="-17.3" class="st0" width="4.5" height="4.5"/>
	<rect x="32.7" y="-17.3" class="st0" width="4.5" height="4.5"/>
	<rect x="37.3" y="-17.3" class="st0" width="4.5" height="4.5"/>
	<rect x="46.4" y="-17.3" class="st0" width="4.5" height="4.5"/>
	<rect x="55.5" y="-17.3" class="st0" width="4.5" height="4.5"/>
	<rect x="60" y="-17.3" class="st0" width="4.5" height="4.5"/>
	<rect x="69.1" y="-17.3" class="st0" width="4.5" height="4.5"/>
	<rect x="78.2" y="-17.3" class="st0" width="4.5" height="4.5"/>
	<rect x="105.5" y="-17.3" class="st0" width="4.5" height="4.5"/>
	<rect x="-40" y="-12.7" class="st0" width="4.5" height="4.5"/>
	<rect x="-35.5" y="-12.7" class="st0" width="4.5" height="4.5"/>
	<rect x="-30.9" y="-12.7" class="st0" width="4.5" height="4.5"/>
	<rect x="-26.4" y="-12.7" class="st0" width="4.5" height="4.5"/>
	<rect x="-21.8" y="-12.7" class="st0" width="4.5" height="4.5"/>
	<rect x="-17.3" y="-12.7" class="st0" width="4.5" height="4.5"/>
	<rect x="-12.7" y="-12.7" class="st0" width="4.5" height="4.5"/>
	<rect x="-3.6" y="-12.7" class="st0" width="4.5" height="4.5"/>
	<rect x="5.5" y="-12.7" class="st0" width="4.5" height="4.5"/>
	<rect x="14.5" y="-12.7" class="st0" width="4.5" height="4.5"/>
	<rect x="23.6" y="-12.7" class="st0" width="4.5" height="4.5"/>
	<rect x="32.7" y="-12.7" class="st0" width="4.5" height="4.5"/>
	<rect x="41.8" y="-12.7" class="st0" width="4.5" height="4.5"/>
	<rect x="50.9" y="-12.7" class="st0" width="4.5" height="4.5"/>
	<rect x="60" y="-12.7" class="st0" width="4.5" height="4.5"/>
	<rect x="69.1" y="-12.7" class="st0" width="4.5" height="4.5"/>
	<rect x="78.2" y="-12.7" class="st0" width="4.5" height="4.5"/>
	<rect x="82.7" y="-12.7" class="st0" width="4.5" height="4.5"/>
	<rect x="87.3" y="-12.7" class="st0" width="4.5" height="4.5"/>
	<rect x="91.8" y="-12.7" class="st0" width="4.5" height="4.5"/>
	<rect x="96.4" y="-12.7" class="st0" width="4.5" height="4.5"/>
	<rect x="100.9" y="-12.7" class="st0" width="4.5" height="4.5"/>
	<rect x="105.5" y="-12.7" class="st0" width="4.5" height="4.5"/>
	<rect x="-3.6" y="-8.2" class="st0" width="4.5" height="4.5"/>
	<rect x="28.2" y="-8.2" class="st0" width="4.5" height="4.5"/>
	<rect x="32.7" y="-8.2" class="st0" width="4.5" height="4.5"/>
	<rect x="37.3" y="-8.2" class="st0" width="4.5" height="4.5"/>
	<rect x="41.8" y="-8.2" class="st0" width="4.5" height="4.5"/>
	<rect x="55.5" y="-8.2" class="st0" width="4.5" height="4.5"/>
	<rect x="64.5" y="-8.2" class="st0" width="4.5" height="4.5"/>
	<rect x="69.1" y="-8.2" class="st0" width="4.5" height="4.5"/>
	<rect x="-40" y="-3.6" class="st0" width="4.5" height="4.5"/>
	<rect x="-21.8" y="-3.6" class="st0" width="4.5" height="4.5"/>
	<rect x="-12.7" y="-3.6" class="st0" width="4.5" height="4.5"/>
	<rect x="-8.2" y="-3.6" class="st0" width="4.5" height="4.5"/>
	<rect x="-3.6" y="-3.6" class="st0" width="4.5" height="4.5"/>
	<rect x="0.9" y="-3.6" class="st0" width="4.5" height="4.5"/>
	<rect x="10" y="-3.6" class="st0" width="4.5" height="4.5"/>
	<rect x="23.6" y="-3.6" class="st0" width="4.5" height="4.5"/>
	<rect x="32.7" y="-3.6" class="st0" width="4.5" height="4.5"/>
	<rect x="37.3" y="-3.6" class="st0" width="4.5" height="4.5"/>
	<rect x="46.4" y="-3.6" class="st0" width="4.5" height="4.5"/>
	<rect x="50.9" y="-3.6" class="st0" width="4.5" height="4.5"/>
	<rect x="55.5" y="-3.6" class="st0" width="4.5" height="4.5"/>
	<rect x="60" y="-3.6" class="st0" width="4.5" height="4.5"/>
	<rect x="69.1" y="-3.6" class="st0" width="4.5" height="4.5"/>
	<rect x="73.6" y="-3.6" class="st0" width="4.5" height="4.5"/>
	<rect x="78.2" y="-3.6" class="st0" width="4.5" height="4.5"/>
	<rect x="82.7" y="-3.6" class="st0" width="4.5" height="4.5"/>
	<rect x="87.3" y="-3.6" class="st0" width="4.5" height="4.5"/>
	<rect x="91.8" y="-3.6" class="st0" width="4.5" height="4.5"/>
	<rect x="105.5" y="-3.6" class="st0" width="4.5" height="4.5"/>
	<rect x="-40" y="0.9" class="st0" width="4.5" height="4.5"/>
	<rect x="-30.9" y="0.9" class="st0" width="4.5" height="4.5"/>
	<rect x="-26.4" y="0.9" class="st0" width="4.5" height="4.5"/>
	<rect x="-8.2" y="0.9" class="st0" width="4.5" height="4.5"/>
	<rect x="5.5" y="0.9" class="st0" width="4.5" height="4.5"/>
	<rect x="14.5" y="0.9" class="st0" width="4.5" height="4.5"/>
	<rect x="19.1" y="0.9" class="st0" width="4.5" height="4.5"/>
	<rect x="28.2" y="0.9" class="st0" width="4.5" height="4.5"/>
	<rect x="41.8" y="0.9" class="st0" width="4.5" height="4.5"/>
	<rect x="55.5" y="0.9" class="st0" width="4.5" height="4.5"/>
	<rect x="60" y="0.9" class="st0" width="4.5" height="4.5"/>
	<rect x="64.5" y="0.9" class="st0" width="4.5" height="4.5"/>
	<rect x="73.6" y="0.9" class="st0" width="4.5" height="4.5"/>
	<rect x="91.8" y="0.9" class="st0" width="4.5" height="4.5"/>
	<rect x="96.4" y="0.9" class="st0" width="4.5" height="4.5"/>
	<rect x="-40" y="5.5" class="st0" width="4.5" height="4.5"/>
	<rect x="-35.5" y="5.5" class="st0" width="4.5" height="4.5"/>
	<rect x="-26.4" y="5.5" class="st0" width="4.5" height="4.5"/>
	<rect x="-12.7" y="5.5" class="st0" width="4.5" height="4.5"/>
	<rect x="-3.6" y="5.5" class="st0" width="4.5" height="4.5"/>
	<rect x="0.9" y="5.5" class="st0" width="4.5" height="4.5"/>
	<rect x="10" y="5.5" class="st0" width="4.5" height="4.5"/>
	<rect x="14.5" y="5.5" class="st0" width="4.5" height="4.5"/>
	<rect x="28.2" y="5.5" class="st0" width="4.5" height="4.5"/>
	<rect x="37.3" y="5.5" class="st0" width="4.5" height="4.5"/>
	<rect x="50.9" y="5.5" class="st0" width="4.5" height="4.5"/>
	<rect x="55.5" y="5.5" class="st0" width="4.5" height="4.5"/>
	<rect x="60" y="5.5" class="st0" width="4.5" height="4.5"/>
	<rect x="64.5" y="5.5" class="st0" width="4.5" height="4.5"/>
	<rect x="78.2" y="5.5" class="st0" width="4.5" height="4.5"/>
	<rect x="91.8" y="5.5" class="st0" width="4.5" height="4.5"/>
	<rect x="100.9" y="5.5" class="st0" width="4.5" height="4.5"/>
	<rect x="-35.5" y="10" class="st0" width="4.5" height="4.5"/>
	<rect x="-30.9" y="10" class="st0" width="4.5" height="4.5"/>
	<rect x="-26.4" y="10" class="st0" width="4.5" height="4.5"/>
	<rect x="-21.8" y="10" class="st0" width="4.5" height="4.5"/>
	<rect x="-17.3" y="10" class="st0" width="4.5" height="4.5"/>
	<rect x="-3.6" y="10" class="st0" width="4.5" height="4.5"/>
	<rect x="5.5" y="10" class="st0" width="4.5" height="4.5"/>
	<rect x="10" y="10" class="st0" width="4.5" height="4.5"/>
	<rect x="14.5" y="10" class="st0" width="4.5" height="4.5"/>
	<rect x="23.6" y="10" class="st0" width="4.5" height="4.5"/>
	<rect x="28.2" y="10" class="st0" width="4.5" height="4.5"/>
	<rect x="32.7" y="10" class="st0" width="4.5" height="4.5"/>
	<rect x="37.3" y="10" class="st0" width="4.5" height="4.5"/>
	<rect x="41.8" y="10" class="st0" width="4.5" height="4.5"/>
	<rect x="46.4" y="10" class="st0" width="4.5" height="4.5"/>
	<rect x="50.9" y="10" class="st0" width="4.5" height="4.5"/>
	<rect x="55.5" y="10" class="st0" width="4.5" height="4.5"/>
	<rect x="64.5" y="10" class="st0" width="4.5" height="4.5"/>
	<rect x="69.1" y="10" class="st0" width="4.5" height="4.5"/>
	<rect x="78.2" y="10" class="st0" width="4.5" height="4.5"/>
	<rect x="100.9" y="10" class="st0" width="4.5" height="4.5"/>
	<rect x="105.5" y="10" class="st0" width="4.5" height="4.5"/>
	<rect x="-40" y="14.5" class="st0" width="4.5" height="4.5"/>
	<rect x="-35.5" y="14.5" class="st0" width="4.5" height="4.5"/>
	<rect x="-26.4" y="14.5" class="st0" width="4.5" height="4.5"/>
	<rect x="-17.3" y="14.5" class="st0" width="4.5" height="4.5"/>
	<rect x="-12.7" y="14.5" class="st0" width="4.5" height="4.5"/>
	<rect x="-8.2" y="14.5" class="st0" width="4.5" height="4.5"/>
	<rect x="-3.6" y="14.5" class="st0" width="4.5" height="4.5"/>
	<rect x="0.9" y="14.5" class="st0" width="4.5" height="4.5"/>
	<rect x="5.5" y="14.5" class="st0" width="4.5" height="4.5"/>
	<rect x="10" y="14.5" class="st0" width="4.5" height="4.5"/>
	<rect x="19.1" y="14.5" class="st0" width="4.5" height="4.5"/>
	<rect x="23.6" y="14.5" class="st0" width="4.5" height="4.5"/>
	<rect x="28.2" y="14.5" class="st0" width="4.5" height="4.5"/>
	<rect x="41.8" y="14.5" class="st0" width="4.5" height="4.5"/>
	<rect x="50.9" y="14.5" class="st0" width="4.5" height="4.5"/>
	<rect x="60" y="14.5" class="st0" width="4.5" height="4.5"/>
	<rect x="78.2" y="14.5" class="st0" width="4.5" height="4.5"/>
	<rect x="82.7" y="14.5" class="st0" width="4.5" height="4.5"/>
	<rect x="91.8" y="14.5" class="st0" width="4.5" height="4.5"/>
	<rect x="105.5" y="14.5" class="st0" width="4.5" height="4.5"/>
	<rect x="-35.5" y="19.1" class="st0" width="4.5" height="4.5"/>
	<rect x="-30.9" y="19.1" class="st0" width="4.5" height="4.5"/>
	<rect x="-26.4" y="19.1" class="st0" width="4.5" height="4.5"/>
	<rect x="-21.8" y="19.1" class="st0" width="4.5" height="4.5"/>
	<rect x="-8.2" y="19.1" class="st0" width="4.5" height="4.5"/>
	<rect x="-3.6" y="19.1" class="st0" width="4.5" height="4.5"/>
	<rect x="10" y="19.1" class="st0" width="4.5" height="4.5"/>
	<rect x="14.5" y="19.1" class="st0" width="4.5" height="4.5"/>
	<rect x="32.7" y="19.1" class="st0" width="4.5" height="4.5"/>
	<rect x="46.4" y="19.1" class="st0" width="4.5" height="4.5"/>
	<rect x="73.6" y="19.1" class="st0" width="4.5" height="4.5"/>
	<rect x="78.2" y="19.1" class="st0" width="4.5" height="4.5"/>
	<rect x="82.7" y="19.1" class="st0" width="4.5" height="4.5"/>
	<rect x="96.4" y="19.1" class="st0" width="4.5" height="4.5"/>
	<rect x="-40" y="23.6" class="st0" width="4.5" height="4.5"/>
	<rect x="-35.5" y="23.6" class="st0" width="4.5" height="4.5"/>
	<rect x="-30.9" y="23.6" class="st0" width="4.5" height="4.5"/>
	<rect x="-12.7" y="23.6" class="st0" width="4.5" height="4.5"/>
	<rect x="19.1" y="23.6" class="st0" width="4.5" height="4.5"/>
	<rect x="23.6" y="23.6" class="st0" width="4.5" height="4.5"/>
	<rect x="32.7" y="23.6" class="st0" width="4.5" height="4.5"/>
	<rect x="46.4" y="23.6" class="st0" width="4.5" height="4.5"/>
	<rect x="60" y="23.6" class="st0" width="4.5" height="4.5"/>
	<rect x="64.5" y="23.6" class="st0" width="4.5" height="4.5"/>
	<rect x="73.6" y="23.6" class="st0" width="4.5" height="4.5"/>
	<rect x="78.2" y="23.6" class="st0" width="4.5" height="4.5"/>
	<rect x="87.3" y="23.6" class="st0" width="4.5" height="4.5"/>
	<rect x="96.4" y="23.6" class="st0" width="4.5" height="4.5"/>
	<rect x="100.9" y="23.6" class="st0" width="4.5" height="4.5"/>
	<rect x="-40" y="28.2" class="st0" width="4.5" height="4.5"/>
	<rect x="-30.9" y="28.2" class="st0" width="4.5" height="4.5"/>
	<rect x="-21.8" y="28.2" class="st0" width="4.5" height="4.5"/>
	<rect x="-8.2" y="28.2" class="st0" width="4.5" height="4.5"/>
	<rect x="-3.6" y="28.2" class="st0" width="4.5" height="4.5"/>
	<rect x="5.5" y="28.2" class="st0" width="4.5" height="4.5"/>
	<rect x="23.6" y="28.2" class="st0" width="4.5" height="4.5"/>
	<rect x="37.3" y="28.2" class="st0" width="4.5" height="4.5"/>
	<rect x="41.8" y="28.2" class="st0" width="4.5" height="4.5"/>
	<rect x="46.4" y="28.2" class="st0" width="4.5" height="4.5"/>
	<rect x="50.9" y="28.2" class="st0" width="4.5" height="4.5"/>
	<rect x="55.5" y="28.2" class="st0" width="4.5" height="4.5"/>
	<rect x="60" y="28.2" class="st0" width="4.5" height="4.5"/>
	<rect x="69.1" y="28.2" class="st0" width="4.5" height="4.5"/>
	<rect x="73.6" y="28.2" class="st0" width="4.5" height="4.5"/>
	<rect x="78.2" y="28.2" class="st0" width="4.5" height="4.5"/>
	<rect x="-26.4" y="32.7" class="st0" width="4.5" height="4.5"/>
	<rect x="-21.8" y="32.7" class="st0" width="4.5" height="4.5"/>
	<rect x="-17.3" y="32.7" class="st0" width="4.5" height="4.5"/>
	<rect x="-12.7" y="32.7" class="st0" width="4.5" height="4.5"/>
	<rect x="10" y="32.7" class="st0" width="4.5" height="4.5"/>
	<rect x="23.6" y="32.7" class="st0" width="4.5" height="4.5"/>
	<rect x="28.2" y="32.7" class="st0" width="4.5" height="4.5"/>
	<rect x="32.7" y="32.7" class="st0" width="4.5" height="4.5"/>
	<rect x="37.3" y="32.7" class="st0" width="4.5" height="4.5"/>
	<rect x="50.9" y="32.7" class="st0" width="4.5" height="4.5"/>
	<rect x="55.5" y="32.7" class="st0" width="4.5" height="4.5"/>
	<rect x="60" y="32.7" class="st0" width="4.5" height="4.5"/>
	<rect x="64.5" y="32.7" class="st0" width="4.5" height="4.5"/>
	<rect x="78.2" y="32.7" class="st0" width="4.5" height="4.5"/>
	<rect x="87.3" y="32.7" class="st0" width="4.5" height="4.5"/>
	<rect x="100.9" y="32.7" class="st0" width="4.5" height="4.5"/>
	<rect x="-26.4" y="37.3" class="st0" width="4.5" height="4.5"/>
	<rect x="-21.8" y="37.3" class="st0" width="4.5" height="4.5"/>
	<rect x="-17.3" y="37.3" class="st0" width="4.5" height="4.5"/>
	<rect x="-3.6" y="37.3" class="st0" width="4.5" height="4.5"/>
	<rect x="10" y="37.3" class="st0" width="4.5" height="4.5"/>
	<rect x="28.2" y="37.3" class="st0" width="4.5" height="4.5"/>
	<rect x="37.3" y="37.3" class="st0" width="4.5" height="4.5"/>
	<rect x="55.5" y="37.3" class="st0" width="4.5" height="4.5"/>
	<rect x="64.5" y="37.3" class="st0" width="4.5" height="4.5"/>
	<rect x="73.6" y="37.3" class="st0" width="4.5" height="4.5"/>
	<rect x="91.8" y="37.3" class="st0" width="4.5" height="4.5"/>
	<rect x="96.4" y="37.3" class="st0" width="4.5" height="4.5"/>
	<rect x="100.9" y="37.3" class="st0" width="4.5" height="4.5"/>
	<rect x="-35.5" y="41.8" class="st0" width="4.5" height="4.5"/>
	<rect x="-30.9" y="41.8" class="st0" width="4.5" height="4.5"/>
	<rect x="-26.4" y="41.8" class="st0" width="4.5" height="4.5"/>
	<rect x="-21.8" y="41.8" class="st0" width="4.5" height="4.5"/>
	<rect x="-17.3" y="41.8" class="st0" width="4.5" height="4.5"/>
	<rect x="-12.7" y="41.8" class="st0" width="4.5" height="4.5"/>
	<rect x="-8.2" y="41.8" class="st0" width="4.5" height="4.5"/>
	<rect x="0.9" y="41.8" class="st0" width="4.5" height="4.5"/>
	<rect x="14.5" y="41.8" class="st0" width="4.5" height="4.5"/>
	<rect x="28.2" y="41.8" class="st0" width="4.5" height="4.5"/>
	<rect x="41.8" y="41.8" class="st0" width="4.5" height="4.5"/>
	<rect x="50.9" y="41.8" class="st0" width="4.5" height="4.5"/>
	<rect x="64.5" y="41.8" class="st0" width="4.5" height="4.5"/>
	<rect x="69.1" y="41.8" class="st0" width="4.5" height="4.5"/>
	<rect x="73.6" y="41.8" class="st0" width="4.5" height="4.5"/>
	<rect x="82.7" y="41.8" class="st0" width="4.5" height="4.5"/>
	<rect x="91.8" y="41.8" class="st0" width="4.5" height="4.5"/>
	<rect x="100.9" y="41.8" class="st0" width="4.5" height="4.5"/>
	<rect x="-35.5" y="46.4" class="st0" width="4.5" height="4.5"/>
	<rect x="-30.9" y="46.4" class="st0" width="4.5" height="4.5"/>
	<rect x="-26.4" y="46.4" class="st0" width="4.5" height="4.5"/>
	<rect x="-8.2" y="46.4" class="st0" width="4.5" height="4.5"/>
	<rect x="0.9" y="46.4" class="st0" width="4.5" height="4.5"/>
	<rect x="5.5" y="46.4" class="st0" width="4.5" height="4.5"/>
	<rect x="10" y="46.4" class="st0" width="4.5" height="4.5"/>
	<rect x="28.2" y="46.4" class="st0" width="4.5" height="4.5"/>
	<rect x="32.7" y="46.4" class="st0" width="4.5" height="4.5"/>
	<rect x="46.4" y="46.4" class="st0" width="4.5" height="4.5"/>
	<rect x="55.5" y="46.4" class="st0" width="4.5" height="4.5"/>
	<rect x="60" y="46.4" class="st0" width="4.5" height="4.5"/>
	<rect x="82.7" y="46.4" class="st0" width="4.5" height="4.5"/>
	<rect x="100.9" y="46.4" class="st0" width="4.5" height="4.5"/>
	<rect x="-35.5" y="50.9" class="st0" width="4.5" height="4.5"/>
	<rect x="-26.4" y="50.9" class="st0" width="4.5" height="4.5"/>
	<rect x="-21.8" y="50.9" class="st0" width="4.5" height="4.5"/>
	<rect x="-17.3" y="50.9" class="st0" width="4.5" height="4.5"/>
	<rect x="-12.7" y="50.9" class="st0" width="4.5" height="4.5"/>
	<rect x="-3.6" y="50.9" class="st0" width="4.5" height="4.5"/>
	<rect x="0.9" y="50.9" class="st0" width="4.5" height="4.5"/>
	<rect x="10" y="50.9" class="st0" width="4.5" height="4.5"/>
	<rect x="14.5" y="50.9" class="st0" width="4.5" height="4.5"/>
	<rect x="23.6" y="50.9" class="st0" width="4.5" height="4.5"/>
	<rect x="32.7" y="50.9" class="st0" width="4.5" height="4.5"/>
	<rect x="46.4" y="50.9" class="st0" width="4.5" height="4.5"/>
	<rect x="50.9" y="50.9" class="st0" width="4.5" height="4.5"/>
	<rect x="60" y="50.9" class="st0" width="4.5" height="4.5"/>
	<rect x="69.1" y="50.9" class="st0" width="4.5" height="4.5"/>
	<rect x="78.2" y="50.9" class="st0" width="4.5" height="4.5"/>
	<rect x="82.7" y="50.9" class="st0" width="4.5" height="4.5"/>
	<rect x="87.3" y="50.9" class="st0" width="4.5" height="4.5"/>
	<rect x="91.8" y="50.9" class="st0" width="4.5" height="4.5"/>
	<rect x="100.9" y="50.9" class="st0" width="4.5" height="4.5"/>
	<rect x="-21.8" y="55.5" class="st0" width="4.5" height="4.5"/>
	<rect x="-8.2" y="55.5" class="st0" width="4.5" height="4.5"/>
	<rect x="-3.6" y="55.5" class="st0" width="4.5" height="4.5"/>
	<rect x="23.6" y="55.5" class="st0" width="4.5" height="4.5"/>
	<rect x="37.3" y="55.5" class="st0" width="4.5" height="4.5"/>
	<rect x="41.8" y="55.5" class="st0" width="4.5" height="4.5"/>
	<rect x="46.4" y="55.5" class="st0" width="4.5" height="4.5"/>
	<rect x="50.9" y="55.5" class="st0" width="4.5" height="4.5"/>
	<rect x="60" y="55.5" class="st0" width="4.5" height="4.5"/>
	<rect x="73.6" y="55.5" class="st0" width="4.5" height="4.5"/>
	<rect x="100.9" y="55.5" class="st0" width="4.5" height="4.5"/>
	<rect x="-40" y="60" class="st0" width="4.5" height="4.5"/>
	<rect x="-35.5" y="60" class="st0" width="4.5" height="4.5"/>
	<rect x="-17.3" y="60" class="st0" width="4.5" height="4.5"/>
	<rect x="-12.7" y="60" class="st0" width="4.5" height="4.5"/>
	<rect x="-3.6" y="60" class="st0" width="4.5" height="4.5"/>
	<rect x="0.9" y="60" class="st0" width="4.5" height="4.5"/>
	<rect x="19.1" y="60" class="st0" width="4.5" height="4.5"/>
	<rect x="28.2" y="60" class="st0" width="4.5" height="4.5"/>
	<rect x="37.3" y="60" class="st0" width="4.5" height="4.5"/>
	<rect x="50.9" y="60" class="st0" width="4.5" height="4.5"/>
	<rect x="55.5" y="60" class="st0" width="4.5" height="4.5"/>
	<rect x="60" y="60" class="st0" width="4.5" height="4.5"/>
	<rect x="64.5" y="60" class="st0" width="4.5" height="4.5"/>
	<rect x="69.1" y="60" class="st0" width="4.5" height="4.5"/>
	<rect x="78.2" y="60" class="st0" width="4.5" height="4.5"/>
	<rect x="82.7" y="60" class="st0" width="4.5" height="4.5"/>
	<rect x="87.3" y="60" class="st0" width="4.5" height="4.5"/>
	<rect x="91.8" y="60" class="st0" width="4.5" height="4.5"/>
	<rect x="100.9" y="60" class="st0" width="4.5" height="4.5"/>
	<rect x="-40" y="64.5" class="st0" width="4.5" height="4.5"/>
	<rect x="-35.5" y="64.5" class="st0" width="4.5" height="4.5"/>
	<rect x="-26.4" y="64.5" class="st0" width="4.5" height="4.5"/>
	<rect x="-8.2" y="64.5" class="st0" width="4.5" height="4.5"/>
	<rect x="-3.6" y="64.5" class="st0" width="4.5" height="4.5"/>
	<rect x="0.9" y="64.5" class="st0" width="4.5" height="4.5"/>
	<rect x="5.5" y="64.5" class="st0" width="4.5" height="4.5"/>
	<rect x="14.5" y="64.5" class="st0" width="4.5" height="4.5"/>
	<rect x="19.1" y="64.5" class="st0" width="4.5" height="4.5"/>
	<rect x="23.6" y="64.5" class="st0" width="4.5" height="4.5"/>
	<rect x="28.2" y="64.5" class="st0" width="4.5" height="4.5"/>
	<rect x="32.7" y="64.5" class="st0" width="4.5" height="4.5"/>
	<rect x="37.3" y="64.5" class="st0" width="4.5" height="4.5"/>
	<rect x="41.8" y="64.5" class="st0" width="4.5" height="4.5"/>
	<rect x="50.9" y="64.5" class="st0" width="4.5" height="4.5"/>
	<rect x="55.5" y="64.5" class="st0" width="4.5" height="4.5"/>
	<rect x="73.6" y="64.5" class="st0" width="4.5" height="4.5"/>
	<rect x="87.3" y="64.5" class="st0" width="4.5" height="4.5"/>
	<rect x="105.5" y="64.5" class="st0" width="4.5" height="4.5"/>
	<rect x="-26.4" y="69.1" class="st0" width="4.5" height="4.5"/>
	<rect x="-21.8" y="69.1" class="st0" width="4.5" height="4.5"/>
	<rect x="-12.7" y="69.1" class="st0" width="4.5" height="4.5"/>
	<rect x="-8.2" y="69.1" class="st0" width="4.5" height="4.5"/>
	<rect x="5.5" y="69.1" class="st0" width="4.5" height="4.5"/>
	<rect x="14.5" y="69.1" class="st0" width="4.5" height="4.5"/>
	<rect x="32.7" y="69.1" class="st0" width="4.5" height="4.5"/>
	<rect x="37.3" y="69.1" class="st0" width="4.5" height="4.5"/>
	<rect x="50.9" y="69.1" class="st0" width="4.5" height="4.5"/>
	<rect x="55.5" y="69.1" class="st0" width="4.5" height="4.5"/>
	<rect x="60" y="69.1" class="st0" width="4.5" height="4.5"/>
	<rect x="64.5" y="69.1" class="st0" width="4.5" height="4.5"/>
	<rect x="69.1" y="69.1" class="st0" width="4.5" height="4.5"/>
	<rect x="73.6" y="69.1" class="st0" width="4.5" height="4.5"/>
	<rect x="78.2" y="69.1" class="st0" width="4.5" height="4.5"/>
	<rect x="82.7" y="69.1" class="st0" width="4.5" height="4.5"/>
	<rect x="87.3" y="69.1" class="st0" width="4.5" height="4.5"/>
	<rect x="100.9" y="69.1" class="st0" width="4.5" height="4.5"/>
	<rect x="105.5" y="69.1" class="st0" width="4.5" height="4.5"/>
	<rect x="-3.6" y="73.6" class="st0" width="4.5" height="4.5"/>
	<rect x="0.9" y="73.6" class="st0" width="4.5" height="4.5"/>
	<rect x="5.5" y="73.6" class="st0" width="4.5" height="4.5"/>
	<rect x="14.5" y="73.6" class="st0" width="4.5" height="4.5"/>
	<rect x="19.1" y="73.6" class="st0" width="4.5" height="4.5"/>
	<rect x="23.6" y="73.6" class="st0" width="4.5" height="4.5"/>
	<rect x="28.2" y="73.6" class="st0" width="4.5" height="4.5"/>
	<rect x="41.8" y="73.6" class="st0" width="4.5" height="4.5"/>
	<rect x="64.5" y="73.6" class="st0" width="4.5" height="4.5"/>
	<rect x="69.1" y="73.6" class="st0" width="4.5" height="4.5"/>
	<rect x="87.3" y="73.6" class="st0" width="4.5" height="4.5"/>
	<rect x="96.4" y="73.6" class="st0" width="4.5" height="4.5"/>
	<rect x="100.9" y="73.6" class="st0" width="4.5" height="4.5"/>
	<rect x="-40" y="78.2" class="st0" width="4.5" height="4.5"/>
	<rect x="-35.5" y="78.2" class="st0" width="4.5" height="4.5"/>
	<rect x="-30.9" y="78.2" class="st0" width="4.5" height="4.5"/>
	<rect x="-26.4" y="78.2" class="st0" width="4.5" height="4.5"/>
	<rect x="-21.8" y="78.2" class="st0" width="4.5" height="4.5"/>
	<rect x="-17.3" y="78.2" class="st0" width="4.5" height="4.5"/>
	<rect x="-12.7" y="78.2" class="st0" width="4.5" height="4.5"/>
	<rect x="-3.6" y="78.2" class="st0" width="4.5" height="4.5"/>
	<rect x="0.9" y="78.2" class="st0" width="4.5" height="4.5"/>
	<rect x="19.1" y="78.2" class="st0" width="4.5" height="4.5"/>
	<rect x="23.6" y="78.2" class="st0" width="4.5" height="4.5"/>
	<rect x="28.2" y="78.2" class="st0" width="4.5" height="4.5"/>
	<rect x="37.3" y="78.2" class="st0" width="4.5" height="4.5"/>
	<rect x="55.5" y="78.2" class="st0" width="4.5" height="4.5"/>
	<rect x="69.1" y="78.2" class="st0" width="4.5" height="4.5"/>
	<rect x="78.2" y="78.2" class="st0" width="4.5" height="4.5"/>
	<rect x="87.3" y="78.2" class="st0" width="4.5" height="4.5"/>
	<rect x="91.8" y="78.2" class="st0" width="4.5" height="4.5"/>
	<rect x="100.9" y="78.2" class="st0" width="4.5" height="4.5"/>
	<rect x="-40" y="82.7" class="st0" width="4.5" height="4.5"/>
	<rect x="-12.7" y="82.7" class="st0" width="4.5" height="4.5"/>
	<rect x="0.9" y="82.7" class="st0" width="4.5" height="4.5"/>
	<rect x="5.5" y="82.7" class="st0" width="4.5" height="4.5"/>
	<rect x="14.5" y="82.7" class="st0" width="4.5" height="4.5"/>
	<rect x="23.6" y="82.7" class="st0" width="4.5" height="4.5"/>
	<rect x="28.2" y="82.7" class="st0" width="4.5" height="4.5"/>
	<rect x="37.3" y="82.7" class="st0" width="4.5" height="4.5"/>
	<rect x="41.8" y="82.7" class="st0" width="4.5" height="4.5"/>
	<rect x="46.4" y="82.7" class="st0" width="4.5" height="4.5"/>
	<rect x="50.9" y="82.7" class="st0" width="4.5" height="4.5"/>
	<rect x="55.5" y="82.7" class="st0" width="4.5" height="4.5"/>
	<rect x="60" y="82.7" class="st0" width="4.5" height="4.5"/>
	<rect x="69.1" y="82.7" class="st0" width="4.5" height="4.5"/>
	<rect x="87.3" y="82.7" class="st0" width="4.5" height="4.5"/>
	<rect x="100.9" y="82.7" class="st0" width="4.5" height="4.5"/>
	<rect x="105.5" y="82.7" class="st0" width="4.5" height="4.5"/>
	<rect x="-40" y="87.3" class="st0" width="4.5" height="4.5"/>
	<rect x="-30.9" y="87.3" class="st0" width="4.5" height="4.5"/>
	<rect x="-26.4" y="87.3" class="st0" width="4.5" height="4.5"/>
	<rect x="-21.8" y="87.3" class="st0" width="4.5" height="4.5"/>
	<rect x="-12.7" y="87.3" class="st0" width="4.5" height="4.5"/>
	<rect x="-3.6" y="87.3" class="st0" width="4.5" height="4.5"/>
	<rect x="0.9" y="87.3" class="st0" width="4.5" height="4.5"/>
	<rect x="14.5" y="87.3" class="st0" width="4.5" height="4.5"/>
	<rect x="23.6" y="87.3" class="st0" width="4.5" height="4.5"/>
	<rect x="28.2" y="87.3" class="st0" width="4.5" height="4.5"/>
	<rect x="41.8" y="87.3" class="st0" width="4.5" height="4.5"/>
	<rect x="60" y="87.3" class="st0" width="4.5" height="4.5"/>
	<rect x="69.1" y="87.3" class="st0" width="4.5" height="4.5"/>
	<rect x="73.6" y="87.3" class="st0" width="4.5" height="4.5"/>
	<rect x="78.2" y="87.3" class="st0" width="4.5" height="4.5"/>
	<rect x="82.7" y="87.3" class="st0" width="4.5" height="4.5"/>
	<rect x="87.3" y="87.3" class="st0" width="4.5" height="4.5"/>
	<rect x="91.8" y="87.3" class="st0" width="4.5" height="4.5"/>
	<rect x="-40" y="91.8" class="st0" width="4.5" height="4.5"/>
	<rect x="-30.9" y="91.8" class="st0" width="4.5" height="4.5"/>
	<rect x="-26.4" y="91.8" class="st0" width="4.5" height="4.5"/>
	<rect x="-21.8" y="91.8" class="st0" width="4.5" height="4.5"/>
	<rect x="-12.7" y="91.8" class="st0" width="4.5" height="4.5"/>
	<rect x="14.5" y="91.8" class="st0" width="4.5" height="4.5"/>
	<rect x="32.7" y="91.8" class="st0" width="4.5" height="4.5"/>
	<rect x="37.3" y="91.8" class="st0" width="4.5" height="4.5"/>
	<rect x="50.9" y="91.8" class="st0" width="4.5" height="4.5"/>
	<rect x="55.5" y="91.8" class="st0" width="4.5" height="4.5"/>
	<rect x="78.2" y="91.8" class="st0" width="4.5" height="4.5"/>
	<rect x="82.7" y="91.8" class="st0" width="4.5" height="4.5"/>
	<rect x="87.3" y="91.8" class="st0" width="4.5" height="4.5"/>
	<rect x="-40" y="96.4" class="st0" width="4.5" height="4.5"/>
	<rect x="-30.9" y="96.4" class="st0" width="4.5" height="4.5"/>
	<rect x="-26.4" y="96.4" class="st0" width="4.5" height="4.5"/>
	<rect x="-21.8" y="96.4" class="st0" width="4.5" height="4.5"/>
	<rect x="-12.7" y="96.4" class="st0" width="4.5" height="4.5"/>
	<rect x="5.5" y="96.4" class="st0" width="4.5" height="4.5"/>
	<rect x="10" y="96.4" class="st0" width="4.5" height="4.5"/>
	<rect x="14.5" y="96.4" class="st0" width="4.5" height="4.5"/>
	<rect x="32.7" y="96.4" class="st0" width="4.5" height="4.5"/>
	<rect x="37.3" y="96.4" class="st0" width="4.5" height="4.5"/>
	<rect x="50.9" y="96.4" class="st0" width="4.5" height="4.5"/>
	<rect x="55.5" y="96.4" class="st0" width="4.5" height="4.5"/>
	<rect x="69.1" y="96.4" class="st0" width="4.5" height="4.5"/>
	<rect x="78.2" y="96.4" class="st0" width="4.5" height="4.5"/>
	<rect x="82.7" y="96.4" class="st0" width="4.5" height="4.5"/>
	<rect x="87.3" y="96.4" class="st0" width="4.5" height="4.5"/>
	<rect x="-40" y="100.9" class="st0" width="4.5" height="4.5"/>
	<rect x="-12.7" y="100.9" class="st0" width="4.5" height="4.5"/>
	<rect x="5.5" y="100.9" class="st0" width="4.5" height="4.5"/>
	<rect x="10" y="100.9" class="st0" width="4.5" height="4.5"/>
	<rect x="19.1" y="100.9" class="st0" width="4.5" height="4.5"/>
	<rect x="37.3" y="100.9" class="st0" width="4.5" height="4.5"/>
	<rect x="41.8" y="100.9" class="st0" width="4.5" height="4.5"/>
	<rect x="50.9" y="100.9" class="st0" width="4.5" height="4.5"/>
	<rect x="55.5" y="100.9" class="st0" width="4.5" height="4.5"/>
	<rect x="64.5" y="100.9" class="st0" width="4.5" height="4.5"/>
	<rect x="69.1" y="100.9" class="st0" width="4.5" height="4.5"/>
	<rect x="73.6" y="100.9" class="st0" width="4.5" height="4.5"/>
	<rect x="-40" y="105.5" class="st0" width="4.5" height="4.5"/>
	<rect x="-35.5" y="105.5" class="st0" width="4.5" height="4.5"/>
	<rect x="-30.9" y="105.5" class="st0" width="4.5" height="4.5"/>
	<rect x="-26.4" y="105.5" class="st0" width="4.5" height="4.5"/>
	<rect x="-21.8" y="105.5" class="st0" width="4.5" height="4.5"/>
	<rect x="-17.3" y="105.5" class="st0" width="4.5" height="4.5"/>
	<rect x="-12.7" y="105.5" class="st0" width="4.5" height="4.5"/>
	<rect x="-3.6" y="105.5" class="st0" width="4.5" height="4.5"/>
	<rect x="10" y="105.5" class="st0" width="4.5" height="4.5"/>
	<rect x="14.5" y="105.5" class="st0" width="4.5" height="4.5"/>
	<rect x="23.6" y="105.5" class="st0" width="4.5" height="4.5"/>
	<rect x="28.2" y="105.5" class="st0" width="4.5" height="4.5"/>
	<rect x="37.3" y="105.5" class="st0" width="4.5" height="4.5"/>
	<rect x="50.9" y="105.5" class="st0" width="4.5" height="4.5"/>
	<rect x="55.5" y="105.5" class="st0" width="4.5" height="4.5"/>
	<rect x="64.5" y="105.5" class="st0" width="4.5" height="4.5"/>
	<rect x="69.1" y="105.5" class="st0" width="4.5" height="4.5"/>
	<rect x="73.6" y="105.5" class="st0" width="4.5" height="4.5"/>
	<rect x="78.2" y="105.5" class="st0" width="4.5" height="4.5"/>
	<rect x="105.5" y="105.5" class="st0" width="4.5" height="4.5"/>
</g>
</svg>
