<?xml version="1.0" encoding="UTF-8"?>
<svg id="logo-svg" xmlns="http://www.w3.org/2000/svg" viewBox="0 0 256 256">
  <defs>
    <style>
      .cls-1 {
        fill: #fff;
      }
    </style>
  </defs>
  <g id="dr">
    <path id="dr-item-4" class="cls-1" d="M83.3,202.3v24.7c0,1.1-.9,2-2,2-.4,0-.8-.1-1.1-.3l-62.3-36c-.6-.4-1-1-1-1.7V65.3c0-.7,.4-1.4,1-1.7L127.5,.3c.6-.4,1.4-.4,2,0l22.9,13.3c.6,.4,1,1,1,1.7V92c0,.8-.4,1.4-1.1,1.8l-17.4,9.5c-1,.6-2.2,.2-2.7-.8-.2-.3-.3-.6-.3-1V29.8c0-1.1-.9-2-2-2-.4,0-.7,.1-1,.3L43.3,76.5c-.6,.4-1,1-1,1.7l-.4,99.8c0,.8,.4,1.4,1.1,1.8l39.3,20.7c.6,.4,1,1.1,1,1.8Z"/>
    <path id="dr-item-3" class="cls-1" d="M132.6,122.1v88.5c0,1.1,.9,2,2,2,.4,0,.8-.1,1.1-.4l17-11.2c.6-.4,.9-1,.9-1.7v-49.2c0-1.1,.9-2,2-2,.7,0,1.4,.4,1.8,1.1l12.6,22.6c.6,1,1.8,1.3,2.8,.8,.4-.3,.7-.6,.9-1l7.8-19.7c.4-1,1.6-1.5,2.6-1.1,.8,.3,1.3,1.1,1.3,1.9v28.3c0,1.1,1,2,2.1,2,.4,0,.7-.1,1-.3l16.9-10.2c.6-.4,1-1,1-1.7V86.2c0-1.1-.9-2-2-2-.4,0-.7,.1-1,.3l-17.7,9.1c-.5,.3-.8,.7-1,1.2l-11.1,33.2c-.4,1.1-1.5,1.6-2.6,1.3-.4-.1-.7-.3-.9-.6l-15.6-17.7c-.6-.7-1.7-.9-2.5-.5l-18.5,9.9c-.5,.3-.9,1-.9,1.7Z"/>
    <path id="dr-item-2" class="cls-1" d="M78.5,76.7l37.1,18.5c.5,.3,1.1,.1,1.4-.5,.1-.2,.1-.3,.1-.5v-18.4h-39.1c0,.4,.2,.7,.5,.9Z"/>
    <path id="dr-item-1" class="cls-1" d="M169.2,86.2l17-9.9c.2-.1,.3-.3,.3-.5h-18v10c0,.3,.2,.5,.5,.5,0,0,.1-.1,.2-.1Z"/>
  </g>
  <g id="br">
    <path id="br-item-4" class="cls-1" d="M97.8,108.4V237.7c0,.7,.4,1.4,1,1.7l28.3,16.4c.6,.4,1.4,.4,2,0l108.9-62.9c.6-.4,1-1,1-1.7V64.7c0-.7-.4-1.4-1-1.7L171.4,24.5c-1-.6-2.2-.3-2.8,.8-.2,.3-.3,.7-.3,1v21.4c0,.8,.4,1.4,1.1,1.8l48,25.9c.7,.4,1.1,1,1.1,1.8v100.1c0,.7-.4,1.4-1,1.7l-86,50.2c-.6,.4-1.3,.4-1.9,.1l-11.3-5.4c-.7-.4-1.2-1.1-1.2-1.8V114.5c0-.8-.5-1.6-1.3-1.9l-15.4-6.1c-1-.4-2.2,.1-2.6,1.1,.1,.3,0,.5,0,.8Z"/>
    <path id="br-item-3" class="cls-1" d="M117,55.4c0-.6-.5-1-1.1-1-.2,0-.3,.1-.5,.1l-36.9,20.4c-.4,.2-.6,.6-.5,.9h39v-20.4h0Z"/>
    <path id="br-item-2" class="cls-1" d="M186.1,75.4l-17-7.9c-.3-.1-.6,0-.7,.3,0,.1-.1,.2-.1,.2v7.9h18c.1-.3,0-.5-.2-.5Z"/>
    <path id="br-item-1" class="cls-1" d="M81.8,103c0-.8-.1-.9-.4-1.3s-.7-.8-1.1-.9l-18.3-10.1c-1.2-.5-2.6,.1-3.1,1.3-.1,.1-.1,.3-.1,.4l-.1-.1c0,.1,.1,.2,.1,.3s-.1,.2-.1,.3v76.3l.1,.1v3.1c0,1,.6,1.9,1.5,2.2l18.4,10.1c1.2,.5,2.6-.1,3.1-1.3,.1-.1,.1-.3,.1-.4l.1,.1c0-.1-.1-.2-.1-.3s.1-.2,.1-.3l-.1-67.9h0l-.1-11.6h0Z"/>
  </g>
</svg>