<?xml version="1.0" encoding="utf-8"?>
<!-- Generator: Adobe Illustrator 27.0.0, SVG Export Plug-In . SVG Version: 6.00 Build 0)  -->
<svg version="1.1" id="logo-svg" xmlns="http://www.w3.org/2000/svg" xmlns:xlink="http://www.w3.org/1999/xlink" x="0px" y="0px"
	 viewBox="0 0 256 256" style="enable-background:new 0 0 256 256;" xml:space="preserve">
<style type="text/css">
	.st0{fill:#801D27;}
	.st1{fill:#DD2526;}
</style>
<g>
	<g id="dr">
		<path id="dr-item-4" class="st0" d="M83.3,202.3V227c0,1.1-0.9,2-2,2c-0.4,0-0.8-0.1-1.1-0.3l-62.3-36c-0.6-0.4-1-1-1-1.7V65.3
			c0-0.7,0.4-1.4,1-1.7L127.5,0.3c0.6-0.4,1.4-0.4,2,0l22.9,13.3c0.6,0.4,1,1,1,1.7V92c0,0.8-0.4,1.4-1.1,1.8l-17.4,9.5
			c-1,0.6-2.2,0.2-2.7-0.8c-0.2-0.3-0.3-0.6-0.3-1V29.8c0-1.1-0.9-2-2-2c-0.4,0-0.7,0.1-1,0.3L43.3,76.5c-0.6,0.4-1,1-1,1.7
			L41.9,178c0,0.8,0.4,1.4,1.1,1.8l39.3,20.7C82.9,200.9,83.3,201.6,83.3,202.3z"/>
		<path id="dr-item-3" class="st0" d="M132.6,122.1v88.5c0,1.1,0.9,2,2,2c0.4,0,0.8-0.1,1.1-0.4l17-11.2c0.6-0.4,0.9-1,0.9-1.7
			v-49.2c0-1.1,0.9-2,2-2c0.7,0,1.4,0.4,1.8,1.1l12.6,22.6c0.6,1,1.8,1.3,2.8,0.8c0.4-0.3,0.7-0.6,0.9-1l7.8-19.7
			c0.4-1,1.6-1.5,2.6-1.1c0.8,0.3,1.3,1.1,1.3,1.9V181c0,1.1,1,2,2.1,2c0.4,0,0.7-0.1,1-0.3l16.9-10.2c0.6-0.4,1-1,1-1.7V86.2
			c0-1.1-0.9-2-2-2c-0.4,0-0.7,0.1-1,0.3l-17.7,9.1c-0.5,0.3-0.8,0.7-1,1.2l-11.1,33.2c-0.4,1.1-1.5,1.6-2.6,1.3
			c-0.4-0.1-0.7-0.3-0.9-0.6L154.5,111c-0.6-0.7-1.7-0.9-2.5-0.5l-18.5,9.9C133,120.7,132.6,121.4,132.6,122.1z"/>
		<path id="dr-item-2" class="st0" d="M78.5,76.7l37.1,18.5c0.5,0.3,1.1,0.1,1.4-0.5c0.1-0.2,0.1-0.3,0.1-0.5V75.8H78
			C78,76.2,78.2,76.5,78.5,76.7z"/>
		<path id="dr-item-1" class="st0" d="M169.2,86.2l17-9.9c0.2-0.1,0.3-0.3,0.3-0.5h-18v10c0,0.3,0.2,0.5,0.5,0.5
			C169,86.3,169.1,86.2,169.2,86.2z"/>
	</g>
	<g id="br">
		<path id="br-item-4" class="st1" d="M97.8,108.4v129.3c0,0.7,0.4,1.4,1,1.7l28.3,16.4c0.6,0.4,1.4,0.4,2,0L238,192.9
			c0.6-0.4,1-1,1-1.7V64.7c0-0.7-0.4-1.4-1-1.7l-66.6-38.5c-1-0.6-2.2-0.3-2.8,0.8c-0.2,0.3-0.3,0.7-0.3,1v21.4
			c0,0.8,0.4,1.4,1.1,1.8l48,25.9c0.7,0.4,1.1,1,1.1,1.8v100.1c0,0.7-0.4,1.4-1,1.7l-86,50.2c-0.6,0.4-1.3,0.4-1.9,0.1l-11.3-5.4
			c-0.7-0.4-1.2-1.1-1.2-1.8V114.5c0-0.8-0.5-1.6-1.3-1.9l-15.4-6.1c-1-0.4-2.2,0.1-2.6,1.1C97.9,107.9,97.8,108.1,97.8,108.4z"/>
		<path id="br-item-3" class="st1" d="M117,55.4c0-0.6-0.5-1-1.1-1c-0.2,0-0.3,0.1-0.5,0.1L78.5,74.9c-0.4,0.2-0.6,0.6-0.5,0.9H117
			V55.4L117,55.4z"/>
		<path id="br-item-2" class="st1" d="M186.1,75.4l-17-7.9c-0.3-0.1-0.6,0-0.7,0.3c0,0.1-0.1,0.2-0.1,0.2v7.9h18
			C186.4,75.6,186.3,75.4,186.1,75.4z"/>
		<path id="br-item-1" class="st1" d="M81.8,103c0-0.8-0.1-0.9-0.4-1.3c-0.3-0.4-0.7-0.8-1.1-0.9L62,90.7c-1.2-0.5-2.6,0.1-3.1,1.3
			c-0.1,0.1-0.1,0.3-0.1,0.4l-0.1-0.1c0,0.1,0.1,0.2,0.1,0.3s-0.1,0.2-0.1,0.3v76.3l0.1,0.1v3.1c0,1,0.6,1.9,1.5,2.2l18.4,10.1
			c1.2,0.5,2.6-0.1,3.1-1.3c0.1-0.1,0.1-0.3,0.1-0.4l0.1,0.1c0-0.1-0.1-0.2-0.1-0.3c0-0.1,0.1-0.2,0.1-0.3l-0.1-67.9l0,0L81.8,103
			L81.8,103z"/>
	</g>
</g>
</svg>
