<?xml version="1.0" encoding="utf-8"?>
<!-- Generator: Adobe Illustrator 27.0.0, SVG Export Plug-In . SVG Version: 6.00 Build 0)  -->
<svg version="1.1" id="_圖層_1" xmlns="http://www.w3.org/2000/svg" xmlns:xlink="http://www.w3.org/1999/xlink" x="0px" y="0px"
	 viewBox="0 0 512 512" style="enable-background:new 0 0 512 512;" xml:space="preserve">
<style type="text/css">
	.st0{fill:#FFFFFF;}
</style>
<path class="st0" d="M0,248.1c0.7-1.3,1.5-2.6,2.2-4.1C8,232.4,16.9,225.9,29,225c9.2-0.7,18.4-1.3,27.4-2.3c1.6-0.2,3.9-2,4.6-3.9
	c5.1-13.1,10-26.3,14.7-39.6c0.6-1.8,0-5.1-1.1-6.6c-5.8-7.7-12-15.3-18.2-22.8c-11.9-14.9-11.7-34.4,0.8-48.6
	c10.5-11.6,20.8-23,31.4-34.3c12.7-13.5,30.3-14,43.8-1.2c6.7,6.3,13.5,12.5,20.1,19c2.4,2.4,4.4,2.6,7.5,1.2
	c12.1-5.9,24.4-11.6,36.8-16.8c3.4-1.4,4.6-3.2,4.8-7c0.7-11.7,1-23.6,3-35c2.8-16.3,15.4-26.9,30.5-27c15,0,30.1-0.1,45.1,0
	c15.6,0.1,28.8,12.7,30.5,29.6c1.1,10.9,1.5,22,1.9,33c0.2,4.1,1.4,6.1,5,7.5c11.3,4.8,22.4,10.2,33.5,15.6c3.1,1.5,5.1,1.3,7.5-1.1
	c6.7-6.6,13.6-13,20.5-19.4c13.4-12.4,30.8-12,43.4,1.4c10.7,11.3,21.2,22.9,31.5,34.7c12.1,13.8,12.3,33.3,0.9,47.8
	c-6,7.6-12.1,15.3-18.3,22.7c-2.1,2.5-2.5,4.7-1.1,8.1c5,12.3,9.6,24.9,13.9,37.6c1.2,3.5,2.7,4.8,6,5.1c10.8,0.8,21.7,1.2,32.3,3.4
	c14.5,3,24.2,17.1,24.2,33.2c0,16.5,0,33.1,0,49.6c-0.1,17.5-11.3,31.9-27.1,33.9c-9.8,1.2-19.6,1.7-29.5,2.1
	c-3.9,0.1-5.8,1.5-7.2,5.7c-4.3,12.2-9.1,24.3-14,36.3c-1.4,3.6-1.4,5.8,1,8.8c5.9,7.2,11.6,14.7,17.3,22.1
	c11.5,15,11.1,34.2-1.3,48.2c-10.2,11.6-20.7,23-31.2,34.2c-2.5,2.8-5.7,5.2-9,6.8c-6.4,3.5-11.5-0.4-11.5-8.4
	c0-13,0.4-26.2-0.6-39.1c-1-13.5-8.4-22.8-19.9-28c-6.9-3.2-13.8-6.8-20.9-8.7c-4-1-8.6,1.2-13.4,2.1c4.6,16.3,8.9,32,13.7,47.4
	c1.9,6.3,0.9,10.8-3.5,15.2c-4.6,4.5-8.8,9.7-13.2,14.4c-5.5,6.1-9.1,5.9-14.3-0.2c-4.3-5.2-8.4-10.6-12.7-15.5
	c-3.2-3.6-3.8-7.4-2.5-12.1c4.2-16.2,8.4-32.4,12.4-48.5c-7-2.6-13.6-3.2-20.3,0.8c-4.9,3-10.6,4.2-15.8,6.7
	c-1.3,0.7-2.8,3.3-2.7,4.8c0.5,9.6,1.7,18.9,2,28.4c0.4,11.6,0.1,23.1,0.1,34.7c0,6.7-3,10.8-7.5,10.8c-4.7,0-7.6-4.2-7.6-10.8
	c0-15.3,0-30.5,0-45.8c-0.1-19.7-10.3-35.8-26.9-42.8c-8.6-3.6-16.9-7.5-25.4-11.1c-0.9-0.4-2.2-0.1-3.3,0.1c-5,1.2-10,2.5-15.6,4.2
	c3.5,12.2,6.9,24.5,10.4,36.9c2.4,8.5,4.8,17.2,7.4,25.8c1.5,5,0.6,8.9-2.8,12.4c-6.3,6.7-12.4,13.8-18.8,20.7
	c-4.8,5.3-8.8,5.2-13.3-0.2c-5.6-6.7-11.1-13.6-16.7-20.5c-3.2-3.7-3.9-7.6-2.5-12.5c5-18.9,9.8-38.1,14.7-57.1
	c0.4-1.7,0.8-3.5,1.1-5.1c-5.3-1.2-10.1-2.4-15-3.6c-1-0.2-2.3-0.2-3.3,0.2c-7.1,3-14.2,6.3-21.4,9c-19,7.3-29.5,23.1-29.7,45.2
	c-0.1,13.5,0,27.2,0,40.7c0,9.7-5.5,13.2-13.2,8.4c-3-1.9-5.8-4.4-8.3-7c-10-10.8-19.9-21.8-29.8-32.7c-13-14.4-13.5-33.7-1.5-49.1
	c5.7-7.4,11.4-15,17.3-22.1c2.3-2.8,2.1-5.1,0.8-8.3c-5-12.2-9.8-24.4-14.2-36.9c-1.3-3.7-3-5.2-6.4-5.4c-9.7-0.4-19.4-0.9-29-1.9
	c-12.5-1.3-21.2-9-26.2-21.6c-0.2-0.7-0.7-1.1-1-1.8C0,295.9,0,272,0,248.1L0,248.1z M414.4,481.6c0.5,0,0.9,0,1.3,0
	c7.7-8.5,15.5-17.2,23.2-25.8c8.3-9.1,8.6-18.2,0.9-28.2c-6-7.8-12.2-15.6-18.3-23.4c-5-6.5-5.6-13.8-2.5-21.6
	c5.3-13.5,10.6-27.3,15.7-40.9c3.1-8,8.6-12.4,16.4-13c9.7-0.7,19.3-1.3,29-2c10.4-0.8,16.5-7.7,16.6-19.1c0.1-15.5,0.1-30.8,0-46.3
	c-0.1-11.1-6-18.4-16-19.5c-9.2-1-18.3-1.7-27.4-2.3c-9.7-0.7-14.8-5.1-18.3-15c-4.4-12.8-9.1-25.5-14.1-38.2
	c-3.8-9.6-3.2-16.4,3.2-24.2c6.2-7.7,12.4-15.4,18.6-23.1c7.1-9.1,6.7-18.3-1-26.9c-9.5-10.6-19.1-21.1-28.7-31.6
	c-8.4-9.2-16.6-9.6-25.6-1.2c-7.2,6.7-14.4,13.6-21.7,20.5c-5.8,5.3-12.3,5.8-19.2,2.5c-12.3-5.8-24.8-11.7-37.2-17.3
	c-7.3-3.4-11.4-9.2-11.9-17.9c-0.7-10.8-1.2-21.7-1.9-32.5c-0.6-11-7.1-17.8-17.2-17.8c-14.2-0.1-28.3-0.1-42.5,0
	c-9.9,0.1-16.6,6.9-17.4,17.9c-0.8,10.1-1.4,20.1-2,30.2c-0.6,10.5-4.9,16.2-13.9,19.8c-12.4,5.2-24.7,10.8-36.8,16.7
	c-8.1,4-15.1,3.7-21.8-2.6c-7.2-6.8-14.4-13.6-21.7-20.5c-7.9-7.2-16.5-6.7-23.7,1.1c-10,10.9-19.9,21.8-29.8,32.8
	c-7.4,8.3-7.9,17.6-0.9,26.4c6.3,8,12.8,16,19.2,24c5.3,6.7,6.4,14,3.3,22.5c-5.3,13.5-10.2,27.4-15.2,41.2c-3.1,7.9-8.4,12.3-16,13
	c-9.5,0.8-19,1.5-28.5,2.3c-9.9,0.8-16.5,7.7-16.7,18.2c-0.2,16.4-0.2,32.7,0,49.1c0.1,9.5,6.3,16.9,14.3,17.6
	c9.8,0.9,19.6,1.7,29.5,2.1c9.9,0.6,15.2,4.8,18.8,15c4.5,12.5,9.3,25.1,14.5,37.4c3.8,9,3.4,16.9-2.5,24.4
	c-6.3,8-12.7,16.1-18.9,24.2c-5.9,7.8-5.4,17.5,1.1,24.8c7.4,8.4,15.1,16.6,22.6,24.9c0.7,0.8,1.6,1.3,2.9,2.2c0-9,0-17.3,0-25.5
	c0.1-27.1,14.8-50,37.7-59c5.3-2.1,10.8-3.9,16.1-5.9c7.7-3.2,12.2-9.4,12.6-18.6c0.2-4.7-0.1-9.6,0.2-14.4c0.3-4.4-1-6.9-4.6-9.2
	c-10.9-6.8-16.2-17.4-16-31.4c0.1-18.9-0.1-37.9,0.1-56.8c0.1-19.4,14.4-35.4,32-35.9c11.8-0.3,23.7-0.3,35.6,0
	c16.1,0.4,30.5,14,31.4,31.7c1,22.3,0.6,44.8,0.2,67.1c-0.1,9.1-4.1,17.6-11.2,21.7c-9,5.1-9.3,12.4-9.1,21.6
	c0.4,15.5,3.5,21,17,25.5c15.5,5.3,30.2,12,39.4,27.7c5.2-2.2,9.9-4.5,14.8-6.4c17.2-6.5,17.8-7.5,17.8-27.4c0-3.6-1-5.6-3.8-7.4
	c-8.8-5.8-13.2-14.6-13.1-26.2c0.1-15.3,0-30.5,0-45.8c0.1-17.6,12.5-31.5,28.6-31.6c8.2-0.1,16.3,0,24.6,0
	c18.6,0,30.7,13.2,30.8,33.7c0.1,13.8-0.1,27.6,0,41.3c0.1,12.5-4.1,22.5-14.1,29.1c-1.1,0.8-2.7,2.2-2.7,3.5
	c-0.3,5.4-0.1,10.9-0.1,17.6c2.2-2.3,3.6-3.6,4.7-5.1c13.8-16.2,24.2-34.6,31.3-55.2c5.3-15.4,8.6-31.1,9.4-47.5
	c0.4-6.9,3.5-10.2,8.5-9.8c4.6,0.3,7.3,4.4,6.9,10.1c-2.3,35-12.5,67-31.3,95.5c-5.2,7.9-11.2,15.4-17.1,23.3
	C406.1,421.2,417.7,445.9,414.4,481.6L414.4,481.6z M157.4,306.5c0,4.3-0.1,8.4,0,12.7c0.2,6.3,2.5,11.3,7.4,14.7
	c6.5,4.5,13.1,8.9,19.6,13.1c5.2,3.4,10.5,3.3,15.6-0.1c6.5-4.4,13.2-8.7,19.6-13.2c4.5-3.2,6.9-7.7,6.9-13.8
	c0-6.9-0.2-13.9,0.1-20.9c0.1-3.5-1.1-4.7-3.9-5.7c-11.6-4-23.2-7.6-34.6-12.3c-6.6-2.8-11.8-1.5-18.2,1.7
	C160.2,287.7,153.7,293.4,157.4,306.5L157.4,306.5z M309,344.1c-3.1,12.8,2.2,20.6,12.3,25.3c0.3,0.1,0.6,0.3,0.8,0.6
	c8.8,8.4,16.8,6.9,26.5,0.3c9.7-6.5,15.3-13.5,13.2-26.4c-0.1-0.7-0.1-1.4,0-2.2c0.8-5.1-1-7.5-5.6-8.9c-8.5-2.5-16.9-5.5-25.1-8.9
	c-4.6-1.9-8.3-0.9-12.5,1.1C310.8,329.1,305.9,334,309,344.1L309,344.1z M226.6,277c0-5.4,0.1-10.1,0-14.9
	c-0.2-12.2-7.9-20.7-19-20.8c-9.3-0.1-18.7,0.6-27.9-0.1c-14.4-1.1-25.2,10.5-21.7,29.6c2.8-1.4,5.6-2.5,8-4.5
	c7.7-6.3,15.4-6.3,24.3-2.4C201.9,269,214.1,272.6,226.6,277L226.6,277z M361.9,317.5c0-4,0.1-6.8,0-9.8
	c-0.3-9.4-5.3-15.2-13.8-15.5c-8.5-0.3-17-0.3-25.5,0c-9.8,0.3-15.4,8.8-13.5,19.7c2.2-1.2,4.7-2.2,6.6-3.9c5.1-4.1,10.2-3.9,16-1.5
	C341.6,310.6,351.4,313.8,361.9,317.5L361.9,317.5z M176,388.2c10.7,2.1,21.7,2.3,31.9-1.1c-0.8-8.7-1.5-16.3-2.2-24.4
	c-9,4.8-17.9,4.4-26.6,0.3C178,371.2,177,379.4,176,388.2L176,388.2z M191.9,429.4c-0.6,0.8-1.1,1.1-1.2,1.5
	c-3.3,12.7-6.5,25.3-9.7,38.1c-0.3,1-0.2,2.6,0.4,3.4c3.2,4.2,6.5,8.1,10.2,12.7c4-4.5,7.4-8.4,10.8-12.4c0.7-0.9,1.1-2.8,0.8-4
	C199.5,455.8,195.7,442.9,191.9,429.4L191.9,429.4z M345.1,392.8H326c-0.6,5.1-1.3,10.5-1.9,15.7h22.5
	C346,402.4,345.5,397.3,345.1,392.8z M335.3,486.7c2.1-2.5,4.2-4.8,5.7-7.3c0.9-1.4,1.7-3.7,1.4-5.2c-2.1-8.4-4.7-16.6-7.4-26.3
	c-2.7,10-5,18.7-7.1,27.5c-0.2,1,0.3,2.5,0.9,3.4C330.6,481.4,332.8,483.6,335.3,486.7L335.3,486.7z"/>
<path class="st0" d="M104.5,276.1c0.2,31.7,7.4,58,22.1,82.3c0.6,1,1.2,1.9,1.8,3c2.3,4.4,1.4,8.7-2.2,10.9
	c-3.7,2.2-8.3,1.3-10.7-3.1c-5.3-9.6-10.9-19.2-14.9-29.4c-35.5-91,15.4-193.1,109.2-220.1c93-26.7,190.1,32.4,208.6,127.1
	c0.3,1.4,0.5,3,0.8,4.4c0.8,4.7-1.4,8.6-5.7,9.6c-4.3,1-7.7-1.3-9.1-6.3c-2.2-8.5-3.7-17.3-6.8-25.5
	c-21.6-56.1-62.1-90.1-121.7-98.6c-77.6-11-148,37.8-167.2,113.9c-1,4.2-1.9,8.5-2.4,12.7C105.4,264.6,104.9,272,104.5,276.1
	L104.5,276.1z"/>
</svg>
