<?xml version="1.0" encoding="utf-8"?>
<!-- Generator: Adobe Illustrator 27.0.0, SVG Export Plug-In . SVG Version: 6.00 Build 0)  -->
<svg version="1.1" id="圖層_1" xmlns="http://www.w3.org/2000/svg" xmlns:xlink="http://www.w3.org/1999/xlink" x="0px" y="0px"
	 viewBox="0 0 512 512" style="enable-background:new 0 0 512 512;" xml:space="preserve">
<style type="text/css">
	.st0{fill:#FFFFFF;}
</style>
<path class="st0" d="M501.4,511.9c3.7-3.7,7.3-7.3,11-11c0,3.7,0,7.3,0,11C508.7,511.9,505,511.9,501.4,511.9z"/>
<g>
	<path class="st0" d="M512,493c0,2.7,0,5.3,0,8c-3.7,3.7-7.3,7.3-11,11c-163.3,0-326.7,0-490,0c-3.7-3.7-7.3-7.3-11-11
		c0-2.7,0-5.3,0-8c0.5-0.8,1-1.6,1.4-2.5C31,421.6,60.6,352.6,90,283.6c3.8-8.8,9.5-12.9,19.1-12.7c14.3,0.4,28.7,0.1,43,0.1
		c3.2,0,6.5,0,10.4,0c-1.2-2.4-2-4-2.8-5.6c-7.8-16-16.1-31.7-23.2-48.1c-14.8-34.3-20.5-69.8-12.5-106.8C136,55,168.1,18.2,224,3.7
		c6.2-1.6,12.6-2.5,19-3.7c8,0,16,0,24,0c1.4,0.3,2.9,0.8,4.3,0.9c37.9,4.8,69.4,21.3,91.7,52.5c28.5,39.8,34.5,84.3,23.2,131.3
		c-6.8,28.5-19.6,54.7-33.7,80.3c-1,1.8-1.9,3.6-3.1,6c18.7,0,36.4,0.2,54-0.1c9.2-0.1,14.8,3.8,18.4,12.2
		c22.3,52.3,44.7,104.6,67.1,156.9C496.6,457.7,504.3,475.4,512,493z M256,352.8c3.1-3.9,5.8-7.2,8.4-10.6
		c29.8-38.5,57.3-78.5,77.8-122.9c13.5-29.3,22.2-59.3,18-92.3c-7.5-58-47.8-93.5-97.3-96.4c-37.4-2.2-69.2,10.6-90.9,42
		c-22.8,33.1-26.3,70.1-16.3,108.5c7.2,27.6,20.2,52.8,34.5,77.2C209.4,291.3,231.6,322.3,256,352.8z M170.3,389.5
		c0.8,1,1.3,1.7,1.8,2.2c29.3,29.3,58.6,58.7,88,87.9c1.3,1.3,3.7,2.1,5.6,2.1c7.5,0.2,15,0.3,22.5,0c3.3-0.2,7-0.9,9.9-2.4
		c44.9-23.2,89.8-46.5,134.6-69.8c2.7-1.4,5.5-2.9,8.3-4.4c-14.6-34.1-29-67.8-43.5-101.3c-0.6-1.4-3.2-2.6-5-2.6
		c-19-0.2-38,0-57-0.2c-3.6,0-5.6,1.2-7.7,4.1c-19.1,26-38.2,52-57.8,77.7c-9.3,12.2-18.6,11.9-28.3,0.4c-5.9-7-11.6-14.1-17.5-21.3
		C206.4,371.1,188.5,380.2,170.3,389.5z M218.7,481.7c-0.5-0.9-0.7-1.4-1-1.7c-24.6-24.6-49.3-49.2-73.8-74
		c-2.2-2.2-3.7-1.1-5.6-0.1c-27.8,14.3-55.7,28.5-83.5,42.8c-1.3,0.7-3,1.4-3.5,2.5c-4.5,10-8.7,20-13.2,30.5
		C98.5,481.7,158.3,481.7,218.7,481.7z M205.9,337.5c-7.7-11.3-15.1-21.9-22.3-32.7c-1.8-2.7-3.6-3.8-6.8-3.7c-19,0.2-38,0.2-56.9,0
		c-3.3,0-4.9,0.9-6.2,4c-13.7,32.4-27.7,64.8-41.6,97.2c-0.5,1.1-0.7,2.3-1.3,4.4C116.3,383.4,160.9,360.5,205.9,337.5z
		 M474.1,481.8c-7.2-16.7-14-32.6-21-48.8c-31.1,16.2-61.7,32.1-92.2,47.9c0.1,0.3,0.3,0.6,0.4,0.9
		C398.6,481.8,435.9,481.8,474.1,481.8z"/>
	<path class="st0" d="M301.1,135.9c-0.1,24.8-20.6,45.1-45.4,44.9c-24.9-0.2-44.9-20.6-44.8-45.5c0.1-24.9,20.7-45.2,45.4-44.9
		C281.3,90.7,301.2,110.9,301.1,135.9z M271,136c0.2-8.2-6.2-15.1-14.4-15.4c-8.2-0.3-15.2,6.1-15.6,14.3
		c-0.3,8.3,6.4,15.5,14.7,15.8C263.7,150.9,270.8,144.1,271,136z"/>
</g>
</svg>
