<?xml version="1.0" encoding="utf-8"?>
<!-- Generator: Adobe Illustrator 27.0.0, SVG Export Plug-In . SVG Version: 6.00 Build 0)  -->
<svg version="1.1" id="_圖層_1" xmlns="http://www.w3.org/2000/svg" xmlns:xlink="http://www.w3.org/1999/xlink" x="0px" y="0px"
	 viewBox="0 0 50 50" style="enable-background:new 0 0 50 50;" xml:space="preserve">
<style type="text/css">
	.st0{enable-background:new    ;}
	.st1{fill:#FFFFFF;}
</style>
<g class="st0">
	<path class="st1" d="M39.9,7.5v11.1c0,2.6-0.8,4.7-2.4,6.3c1.6,1.8,2.5,3.8,2.5,6v11.5c0,1.6-0.6,3-1.8,4.2s-2.6,1.7-4.2,1.7H13.2
		c-0.8,0-1.5-0.3-2.1-0.9c-0.6-0.6-0.9-1.3-0.9-2.1s0.3-1.5,0.9-2.1c0.6-0.6,1.3-0.9,2.1-0.9H34V30.9c0-0.8-0.3-1.5-0.9-2.1
		s-1.3-0.9-2.1-0.9H19.1c-0.8,0-1.5-0.3-2.1-0.8c-0.6-0.6-0.9-1.3-0.9-2.1c0-0.8,0.3-1.5,0.9-2.1c0.6-0.6,1.3-0.9,2.1-0.9h12
		c0.8,0,1.5-0.3,2.1-0.9S34,19.8,34,19V7.5H12.9c-0.8,0-1.5-0.3-2.1-0.9C10.3,6.1,10,5.4,10,4.6s0.3-1.5,0.9-2.1
		c0.6-0.6,1.3-0.9,2.1-0.9H34c1.6,0,3,0.6,4.2,1.7S39.9,5.9,39.9,7.5z"/>
</g>
</svg>
