<?xml version="1.0" encoding="utf-8"?>
<!-- Generator: Adobe Illustrator 27.0.0, SVG Export Plug-In . SVG Version: 6.00 Build 0)  -->
<svg version="1.1" id="_圖層_1" xmlns="http://www.w3.org/2000/svg" xmlns:xlink="http://www.w3.org/1999/xlink" x="0px" y="0px"
	 viewBox="0 0 50 50" style="enable-background:new 0 0 50 50;" xml:space="preserve">
<style type="text/css">
	.st0{enable-background:new    ;}
	.st1{fill:#FFFFFF;}
</style>
<g class="st0">
	<path class="st1" d="M13.2,1.6h3c0.8,0,1.5,0.3,2.1,0.9c0.6,0.6,0.9,1.3,0.9,2.1c0,0.8-0.3,1.5-0.9,2.1c-0.6,0.6-1.3,0.9-2.1,0.9
		v19.5h20.8c0.8,0,1.5,0.3,2.1,0.9c0.6,0.6,0.9,1.3,0.9,2.1v15.3c0,0.8-0.3,1.5-0.9,2.1s-1.3,0.9-2.1,0.9H13.2
		c-0.8,0-1.5-0.3-2.1-0.9s-0.9-1.3-0.9-2.1V4.6c0-0.8,0.3-1.5,0.9-2.1C11.6,1.9,12.3,1.6,13.2,1.6z M16,33v9.4h17.9V33H16z"/>
</g>
</svg>
