<?xml version="1.0" encoding="utf-8"?>
<!-- Generator: Adobe Illustrator 27.0.0, SVG Export Plug-In . SVG Version: 6.00 Build 0)  -->
<svg version="1.1" id="_圖層_1" xmlns="http://www.w3.org/2000/svg" xmlns:xlink="http://www.w3.org/1999/xlink" x="0px" y="0px"
	 viewBox="0 0 50 50" style="enable-background:new 0 0 50 50;" xml:space="preserve">
<style type="text/css">
	.st0{enable-background:new    ;}
	.st1{fill:#FFFFFF;}
</style>
<g class="st0">
	<path class="st1" d="M37.1,48.3H10.2V27.9c0-1.6,0.6-3,1.7-4.2s2.5-1.8,4.2-1.8h17.9V7.5H13c-0.8,0-1.5-0.3-2.1-0.9S10,5.4,10,4.6
		s0.3-1.5,0.8-2.1s1.3-0.9,2.1-0.9h21.1c1.6,0,3,0.6,4.2,1.7c1.2,1.2,1.8,2.5,1.8,4.2v14.4c0,1.7-0.6,3.1-1.8,4.2
		c-1.2,1.2-2.6,1.7-4.2,1.7H16.2v14.5h21c0.8,0,1.5,0.3,2.1,0.9c0.6,0.6,0.9,1.3,0.9,2.1s-0.3,1.5-0.9,2.1
		C38.6,48,37.9,48.3,37.1,48.3z"/>
</g>
</svg>
