<?xml version="1.0" encoding="utf-8"?>
<!-- Generator: Adobe Illustrator 27.0.0, SVG Export Plug-In . SVG Version: 6.00 Build 0)  -->
<svg version="1.1" id="_圖層_1" xmlns="http://www.w3.org/2000/svg" xmlns:xlink="http://www.w3.org/1999/xlink" x="0px" y="0px"
	 viewBox="0 0 50 50" style="enable-background:new 0 0 50 50;" xml:space="preserve">
<style type="text/css">
	.st0{enable-background:new    ;}
	.st1{fill:#FFFFFF;}
</style>
<g class="st0">
	<path class="st1" d="M10.1,7.2V4.7c0-0.8,0.3-1.5,0.9-2.1c0.6-0.6,1.3-0.9,2.1-0.9h26.8v18.1c0,1-0.4,1.8-1.1,2.4l-10.9,9.3v13.7
		c0,0.8-0.3,1.5-0.9,2.1s-1.3,0.9-2.1,0.9c-0.8,0-1.5-0.3-2.1-0.9s-0.9-1.3-0.9-2.1V30.4c0-1.1,0.3-2,1-2.6l10.9-9.2v-11H16
		c-0.4,1.7-1.4,2.5-3,2.5c-0.8,0-1.5-0.3-2.1-0.9C10.4,8.7,10.1,8,10.1,7.2z"/>
</g>
</svg>
