<?xml version="1.0" encoding="utf-8"?>
<!-- Generator: Adobe Illustrator 27.0.0, SVG Export Plug-In . SVG Version: 6.00 Build 0)  -->
<svg version="1.1" id="_圖層_1" xmlns="http://www.w3.org/2000/svg" xmlns:xlink="http://www.w3.org/1999/xlink" x="0px" y="0px"
	 viewBox="0 0 50 50" style="enable-background:new 0 0 50 50;" xml:space="preserve">
<style type="text/css">
	.st0{enable-background:new    ;}
	.st1{fill:#FFFFFF;}
</style>
<g class="st0">
	<path class="st1" d="M10.3,42.3V27.9c0-1.6,0.6-3,1.8-4.2c1.2-1.2,2.6-1.7,4.2-1.7V4.5c0-0.8,0.3-1.5,0.8-2.1s1.3-0.9,2.1-0.9h12
		c0.8,0,1.5,0.3,2.1,0.9s0.9,1.3,0.9,2.1V22c1.6,0,3,0.6,4.1,1.7s1.8,2.5,1.8,4.2v14.5c0,1.6-0.6,3-1.8,4.2s-2.6,1.7-4.1,1.7H16.3
		c-1.7,0-3.1-0.6-4.2-1.8S10.3,43.8,10.3,42.3z M16.3,27.9v14.5h17.9V27.9H16.3z M22.2,7.5V22h6.1V7.5H22.2z"/>
</g>
</svg>
