<?xml version="1.0" encoding="utf-8"?>
<!-- Generator: Adobe Illustrator 27.0.0, SVG Export Plug-In . SVG Version: 6.00 Build 0)  -->
<svg version="1.1" id="_圖層_1" xmlns="http://www.w3.org/2000/svg" xmlns:xlink="http://www.w3.org/1999/xlink" x="0px" y="0px"
	 viewBox="0 0 50 50" style="enable-background:new 0 0 50 50;" xml:space="preserve">
<style type="text/css">
	.st0{fill:#FFFFFF;}
</style>
<path class="st0" d="M36.3,46.1h-2.8c-0.8,0-1.4-0.3-2-0.8c-0.6-0.5-0.8-1.2-0.8-1.9s0.3-1.4,0.8-1.9c0.5-0.5,1.2-0.8,2-0.8V23.1
	H13.7c-0.8,0-1.4-0.3-2-0.8c-0.6-0.5-0.8-1.2-0.8-1.9V6.5c0-0.7,0.3-1.4,0.8-1.9c0.6-0.5,1.2-0.8,2-0.8h22.6c0.8,0,1.4,0.3,2,0.8
	s0.8,1.2,0.8,1.9v37c0,0.7-0.3,1.4-0.8,1.9C37.7,45.9,37.1,46.1,36.3,46.1z M33.6,17.7V9.3H16.5v8.4L33.6,17.7L33.6,17.7z"/>
</svg>
