<?xml version="1.0" encoding="utf-8"?>
<!-- Generator: Adobe Illustrator 27.0.0, SVG Export Plug-In . SVG Version: 6.00 Build 0)  -->
<svg version="1.1" id="_圖層_1" xmlns="http://www.w3.org/2000/svg" xmlns:xlink="http://www.w3.org/1999/xlink" x="0px" y="0px"
	 viewBox="0 0 50 50" style="enable-background:new 0 0 50 50;" xml:space="preserve">
<style type="text/css">
	.st0{enable-background:new    ;}
	.st1{fill:#FFFFFF;}
</style>
<g class="st0">
	<path class="st1" d="M20.3,42.4H34V27.9H16.1V1.6h20.8c0.8,0,1.5,0.3,2.1,0.9s0.9,1.3,0.9,2.1c0,0.8-0.3,1.5-0.9,2.1
		s-1.3,0.9-2.1,0.9H22.1V22H34c1.6,0,3,0.6,4.1,1.8s1.8,2.6,1.8,4.1v14.5c0,1.6-0.6,3-1.7,4.2s-2.5,1.7-4.2,1.7H20.3
		c-1.2,0-2.5-0.3-3.9-0.9l-4.5-1.9c-1.2-0.5-1.8-1.4-1.8-2.8c0-0.8,0.3-1.5,0.8-2.1c0.5-0.6,1.2-0.9,2-0.9c0.6,0,1.3,0.2,2,0.5
		l3.9,1.7C19.3,42.2,19.8,42.4,20.3,42.4z"/>
</g>
</svg>
