<?xml version="1.0" encoding="utf-8"?>
<!-- Generator: Adobe Illustrator 27.0.0, SVG Export Plug-In . SVG Version: 6.00 Build 0)  -->
<svg version="1.1" id="圖層_1" xmlns="http://www.w3.org/2000/svg" xmlns:xlink="http://www.w3.org/1999/xlink" x="0px" y="0px"
	 viewBox="0 0 249.45 161.57" style="enable-background:new 0 0 249.45 161.57;" xml:space="preserve">
<style type="text/css">
	.st0{fill:#002631;}
	.st1{fill:#FFFFFF;}
	.st2{fill:#FDFBF5;}
</style>
<g>
	<g>
		<rect x="0.11" class="st0" width="249.45" height="161.57"/>
	</g>
	<g>
		<path class="st1" d="M43.65,83.44c-0.04,0-0.07-0.01-0.1-0.04c-0.03-0.03-0.04-0.06-0.04-0.1c0-0.04,0.01-0.07,0.04-0.1
			s0.06-0.04,0.1-0.04c0.04,0,0.07,0.01,0.1,0.04s0.04,0.06,0.04,0.1c0,0.04-0.01,0.07-0.04,0.1
			C43.72,83.42,43.68,83.44,43.65,83.44z M43.56,85.74V83.9h0.17v1.84H43.56z"/>
		<path class="st1" d="M46.94,85.74v-1.07c0-0.44-0.16-0.66-0.48-0.66c-0.17,0-0.32,0.06-0.43,0.19c-0.11,0.13-0.17,0.29-0.17,0.48
			v1.06h-0.17V83.9h0.17v0.33h0.01c0.13-0.25,0.34-0.38,0.63-0.38c0.2,0,0.35,0.07,0.46,0.2c0.11,0.13,0.16,0.32,0.16,0.57v1.12
			H46.94z"/>
		<path class="st1" d="M49.84,83.2c-0.04-0.03-0.11-0.05-0.2-0.05c-0.22,0-0.34,0.15-0.34,0.46v0.3h0.48v0.16H49.3v1.68h-0.17v-1.68
			H48.8V83.9h0.33v-0.32c0-0.18,0.05-0.32,0.14-0.43c0.09-0.11,0.22-0.16,0.38-0.16c0.08,0,0.14,0.01,0.2,0.04V83.2z"/>
		<path class="st1" d="M52.15,85.79c-0.17,0-0.33-0.04-0.46-0.12c-0.13-0.08-0.24-0.19-0.31-0.34c-0.07-0.14-0.11-0.31-0.11-0.5
			c0-0.2,0.04-0.37,0.11-0.52c0.07-0.15,0.18-0.26,0.31-0.34c0.14-0.08,0.29-0.12,0.47-0.12c0.26,0,0.47,0.09,0.62,0.26
			c0.15,0.17,0.23,0.41,0.23,0.71c0,0.19-0.04,0.36-0.11,0.5c-0.07,0.15-0.17,0.26-0.3,0.34C52.48,85.75,52.33,85.79,52.15,85.79z
			 M52.17,84.01c-0.22,0-0.39,0.08-0.52,0.22c-0.13,0.15-0.19,0.35-0.19,0.6c0,0.24,0.06,0.43,0.19,0.58
			c0.12,0.14,0.3,0.22,0.51,0.22c0.22,0,0.39-0.07,0.51-0.21c0.12-0.14,0.18-0.34,0.18-0.6c0-0.26-0.06-0.46-0.18-0.6
			C52.55,84.08,52.39,84.01,52.17,84.01z"/>
		<path class="st1" d="M59.53,85.74v-1.11c0-0.22-0.04-0.38-0.11-0.48c-0.07-0.1-0.18-0.14-0.34-0.14c-0.09,0-0.18,0.03-0.26,0.09
			c-0.08,0.06-0.15,0.14-0.19,0.23c-0.05,0.1-0.07,0.21-0.07,0.32v1.08h-0.17v-1.12c0-0.41-0.15-0.61-0.46-0.61
			c-0.15,0-0.27,0.06-0.37,0.19c-0.1,0.12-0.15,0.29-0.15,0.48v1.06h-0.17V83.9h0.17v0.31h0.01c0.13-0.23,0.31-0.35,0.56-0.35
			c0.13,0,0.24,0.04,0.34,0.11s0.16,0.18,0.2,0.3c0.06-0.13,0.14-0.23,0.24-0.31s0.22-0.11,0.35-0.11c0.4,0,0.6,0.25,0.6,0.75v1.14
			H59.53z"/>
		<path class="st1" d="M63.09,85.61c0,0.34-0.08,0.6-0.23,0.76s-0.39,0.24-0.71,0.24c-0.18,0-0.36-0.05-0.55-0.14v-0.18
			c0.2,0.11,0.38,0.16,0.56,0.16c0.5,0,0.76-0.27,0.76-0.8v-0.24h-0.01c-0.15,0.25-0.37,0.37-0.66,0.37c-0.15,0-0.29-0.04-0.4-0.11
			c-0.12-0.08-0.21-0.18-0.27-0.32c-0.06-0.14-0.09-0.31-0.09-0.49c0-0.19,0.04-0.37,0.11-0.52c0.07-0.15,0.17-0.27,0.3-0.35
			c0.13-0.08,0.28-0.13,0.44-0.13c0.27,0,0.46,0.11,0.59,0.33h0.01V83.9h0.17V85.61z M62.92,84.61c0-0.11-0.03-0.21-0.08-0.3
			c-0.05-0.09-0.12-0.17-0.21-0.22s-0.19-0.08-0.3-0.08c-0.2,0-0.36,0.08-0.49,0.23c-0.12,0.15-0.18,0.35-0.18,0.6
			c0,0.24,0.05,0.43,0.16,0.58c0.11,0.14,0.26,0.21,0.45,0.21c0.19,0,0.35-0.06,0.46-0.19c0.12-0.12,0.18-0.28,0.18-0.47V84.61z"/>
		<path class="st1" d="M67.36,85.74v-1.11c0-0.22-0.04-0.38-0.11-0.48c-0.07-0.1-0.18-0.14-0.34-0.14c-0.09,0-0.18,0.03-0.26,0.09
			c-0.08,0.06-0.15,0.14-0.19,0.23c-0.05,0.1-0.07,0.21-0.07,0.32v1.08h-0.17v-1.12c0-0.41-0.15-0.61-0.46-0.61
			c-0.15,0-0.27,0.06-0.37,0.19c-0.1,0.12-0.15,0.29-0.15,0.48v1.06h-0.17V83.9h0.17v0.31h0.01c0.13-0.23,0.31-0.35,0.56-0.35
			c0.13,0,0.24,0.04,0.34,0.11s0.16,0.18,0.2,0.3c0.06-0.13,0.14-0.23,0.24-0.31s0.22-0.11,0.35-0.11c0.4,0,0.6,0.25,0.6,0.75v1.14
			H67.36z"/>
		<path class="st1" d="M70.18,85.72c-0.08,0.04-0.17,0.06-0.25,0.06c-0.27,0-0.41-0.16-0.41-0.49v-1.23h-0.33V83.9h0.33v-0.48
			l0.17-0.06v0.53h0.49v0.16h-0.49v1.21c0,0.13,0.02,0.22,0.06,0.27s0.11,0.08,0.21,0.08c0.07,0,0.14-0.02,0.22-0.07V85.72z"/>
		<path id="left-border_00000135653593876721615870000009421965859293177510_" class="st1" d="M52.05,73.3v3
			c0,0.13-0.1,0.24-0.24,0.24c-0.05,0-0.09-0.01-0.13-0.04l-7.57-4.37c-0.07-0.04-0.12-0.12-0.12-0.21V56.65
			c0-0.09,0.05-0.16,0.12-0.21l13.31-7.69c0.08-0.04,0.17-0.04,0.24,0l2.78,1.61c0.07,0.04,0.12,0.12,0.12,0.21v9.33
			c0,0.09-0.05,0.17-0.13,0.21l-2.11,1.15c-0.12,0.06-0.27,0.02-0.33-0.1c-0.02-0.04-0.03-0.07-0.03-0.11v-8.72
			c0-0.13-0.11-0.24-0.24-0.24c-0.04,0-0.08,0.01-0.11,0.03l-10.43,5.89c-0.07,0.04-0.12,0.12-0.12,0.21l-0.05,12.13
			c0,0.09,0.05,0.17,0.13,0.21l4.78,2.52C52,73.13,52.05,73.21,52.05,73.3z"/>
		<path id="right-border_00000072969513528677529400000003170301766800896667_" class="st1" d="M53.82,61.89v15.72
			c0,0.09,0.05,0.16,0.12,0.21l3.44,1.99c0.08,0.04,0.17,0.04,0.24,0l13.23-7.64c0.07-0.04,0.12-0.12,0.12-0.21V56.58
			c0-0.09-0.05-0.16-0.12-0.21l-8.09-4.68c-0.12-0.07-0.26-0.03-0.33,0.09c-0.02,0.04-0.03,0.08-0.03,0.12v2.59
			c0,0.09,0.05,0.17,0.13,0.21l5.83,3.14c0.08,0.04,0.13,0.12,0.13,0.21v12.16c0,0.09-0.05,0.16-0.12,0.21l-10.45,6.1
			c-0.07,0.04-0.15,0.05-0.22,0.01l-1.37-0.65c-0.08-0.04-0.14-0.13-0.14-0.22V62.64c0-0.1-0.06-0.19-0.15-0.22l-1.87-0.75
			c-0.12-0.05-0.27,0.01-0.32,0.13C53.82,61.83,53.82,61.86,53.82,61.89z"/>
		<path id="word-m_00000032650569739962250670000002648484005523049394_" class="st1" d="M58.03,63.56v10.76
			c0,0.13,0.11,0.24,0.25,0.24c0.05,0,0.09-0.01,0.13-0.04l2.06-1.36c0.07-0.04,0.11-0.12,0.11-0.2v-5.98
			c0-0.13,0.11-0.24,0.25-0.24c0.09,0,0.17,0.05,0.21,0.13l1.53,2.75c0.07,0.12,0.21,0.16,0.33,0.09c0.05-0.03,0.09-0.07,0.11-0.12
			l0.95-2.39c0.05-0.12,0.19-0.18,0.32-0.13c0.09,0.04,0.15,0.13,0.15,0.22v3.44c0,0.13,0.11,0.24,0.25,0.24
			c0.04,0,0.08-0.01,0.12-0.03l2.05-1.24c0.07-0.04,0.12-0.12,0.12-0.21V59.2c0-0.13-0.1-0.24-0.24-0.24
			c-0.04,0-0.08,0.01-0.12,0.03l-2.15,1.1c-0.06,0.03-0.1,0.08-0.12,0.14l-1.34,4.04c-0.04,0.13-0.18,0.2-0.31,0.16
			c-0.04-0.01-0.08-0.04-0.11-0.07l-1.86-2.13c-0.07-0.09-0.2-0.11-0.3-0.05l-2.24,1.19C58.08,63.39,58.03,63.47,58.03,63.56z"/>
		<path class="st1" d="M56.15,55.45c0-0.07-0.06-0.12-0.13-0.12c-0.02,0-0.04,0.01-0.06,0.01l-4.5,2.49
			c-0.04,0.02-0.06,0.06-0.06,0.11h4.75L56.15,55.45L56.15,55.45z"/>
		<path class="st1" d="M51.47,58.04l4.5,2.24c0.06,0.03,0.13,0.01,0.16-0.05c0.01-0.02,0.01-0.04,0.01-0.06v-2.24H51.4
			C51.41,57.98,51.43,58.02,51.47,58.04z"/>
		<path class="st1" d="M64.54,57.88l-2.06-0.96c-0.03-0.01-0.07,0-0.08,0.03c0,0.01,0,0.02-0.01,0.02v0.95h2.18
			C64.57,57.91,64.56,57.89,64.54,57.88z"/>
		<path class="st1" d="M62.48,59.19l2.06-1.2c0.02-0.01,0.03-0.04,0.03-0.06h-2.18v1.21c0,0.03,0.03,0.06,0.06,0.06
			C62.46,59.2,62.47,59.2,62.48,59.19z"/>
		<path class="st1" d="M51.87,61.24c0-0.12-0.07-0.22-0.18-0.27l-2.23-1.23c-0.15-0.06-0.32,0.01-0.38,0.16
			c-0.01,0.01-0.01,0.03-0.01,0.05l-0.01-0.01c0,0.01,0,0.02,0.01,0.04c0,0.01-0.01,0.02-0.01,0.03v9.27l0.01,0v0.38
			c0,0.12,0.07,0.22,0.18,0.27l2.23,1.23c0.15,0.06,0.32-0.01,0.38-0.16c0.01-0.01,0.01-0.03,0.01-0.05l0.01,0.01
			c0-0.01,0-0.02-0.01-0.04c0-0.01,0.01-0.02,0.01-0.03l-0.02-9.27"/>
	</g>
	<path class="st1" d="M69.69,98.3h-24.9c-0.43,0-0.79-0.35-0.79-0.79l0,0c0-0.43,0.35-0.79,0.79-0.79h24.9
		c0.43,0,0.79,0.35,0.79,0.79l0,0C70.47,97.94,70.12,98.3,69.69,98.3z"/>
	<path class="st1" d="M204.99,98.3h-24.9c-0.43,0-0.79-0.35-0.79-0.79l0,0c0-0.43,0.35-0.79,0.79-0.79h24.9
		c0.43,0,0.79,0.35,0.79,0.79l0,0C205.78,97.94,205.43,98.3,204.99,98.3z"/>
	<rect x="-0.11" y="143.02" class="st1" width="249.45" height="18.56"/>
	<g>
		<path class="st1" d="M206.16,78.1c-2.18-0.44-3.55-1.59-4.52-3.3c2.46-0.07,0.68-1.89,1.55-3.14c-1.98,0.78-3.39,1.49-4.77,2.3
			c-0.71,0.42-1.13,1.01-1.15,1.73c-0.06,2.24-1.5,4.03-1.92,6.15c-0.15,0.75-0.63,0.91-1.18,0.35c-0.57-0.58-1.21-0.41-2.25-0.11
			c1.14-2.29,2.13-4.28,3.36-6.74c-1.71,0.89-3.12,1.26-4.7,0.98c0.77-2.38,3.05-2.93,4.85-3.92c1.16-0.64,1.92-1.35,2.44-2.55
			c0.91-2.09,1.98-4.12,3.03-6.15c0.35-0.67,0.27-1.92,1.61-1.54c1.21,0.35,2.49,0.81,2.74,2.19c0.22,1.26-0.24,2.7,0.19,3.85
			c0.4,1.1,2.38,0.14,2.95,1.5c-2.95,1.11-2.96,1.11-2.64,4.6C205.84,75.51,206,76.73,206.16,78.1z M202.35,66.96
			c-1,1.09-1.43,2.45-2.66,3.32C202.33,70.83,203,69.98,202.35,66.96z"/>
		<path class="st1" d="M179.18,80.79c-0.9-0.2-1.75-0.17-1.87-0.45c-0.29-0.71,0.38-1.32,0.89-1.65c0.36-0.24,0.56-1.64,1.44-0.48
			c0.28,0.37,0.7,0.2,1.01,0.03c1.96-1.09,3.82-2.32,5.19-4.12c0.98-1.29,0.5-2.22-1.1-2.38c-1.07-0.11-2.12,0.09-3.1,0.45
			c-1.25,0.46-2.44,0.62-3.74,0.27c-0.54-0.14-1.15-0.07-1.34-0.75c-0.19-0.67-0.28-1.34,0.34-1.88c0.75-0.65,1.44-1.35,2.21-1.96
			c2.04-1.61,4.13-3.15,6.15-4.78c0.71-0.57,1.33-0.74,2.19-0.4c0.51,0.2,0.97,0.47,1,0.97c0.04,0.59-0.55,0.72-1.02,0.9
			c-2.57,0.96-4.43,2.81-6.16,4.86c-0.31,0.37-0.21,0.72-0.12,0.96c0.16,0.45,0.66,0.23,0.97,0.16c1.82-0.37,3.59-0.21,5.26,0.53
			c3.02,1.33,3.49,3.51,0.99,5.7C185.7,79.11,182.08,79.54,179.18,80.79z"/>
		<path class="st1" d="M193.4,55.45c-0.77,1.59-1.27,2.69-1.84,3.76c-0.16,0.3-0.16,0.97-0.84,0.68c-0.48-0.21-0.88-0.46-0.79-1.08
			c0.22-1.38,0.42-2.77,0.64-4.17c1.01,0.27,0.42,1.23,0.92,1.69c0.66-0.47,0.82-1.23,1.21-1.84c0.25-0.39,0.3-1.05,0.93-1
			c0.85,0.07,0.49,0.84,0.64,1.31c0.09,0.28,0.17,0.57,0.37,1.25c0.46-1,0.78-1.66,1.08-2.34c0.16-0.35,0.33-0.7,0.81-0.52
			c0.45,0.17,0.43,0.49,0.28,0.9c-0.63,1.67-1.26,3.34-1.56,5.12c-0.05,0.31-0.19,0.65-0.58,0.54c-0.48-0.13-0.97-0.35-1.03-0.93
			C193.54,57.89,193.5,56.96,193.4,55.45z"/>
		<path class="st1" d="M209.31,56.67c0.47-1.3,0.81-2.28,1.17-3.24c0.16-0.44,0.45-0.82,0.96-0.53c0.45,0.25,0.18,0.61,0.01,0.95
			c-0.79,1.57-1.15,3.24-1.18,4.99c-0.01,0.41,0.12,0.91-0.52,0.98c-0.58,0.06-1.15,0.04-1.35-0.65c-0.32-1.12-0.61-2.25-0.93-3.46
			c-0.77,0.89-0.85,1.96-0.89,2.97c-0.06,1.46-0.74,1.54-1.95,1.06c1.19-1.82,1.64-3.87,2.26-5.85c0.15-0.48,0.27-1.03,0.9-1
			c0.57,0.03,0.5,0.6,0.62,0.99C208.66,54.69,208.93,55.5,209.31,56.67z"/>
		<path class="st1" d="M186.26,58.68c-1.53,0.12-1.53-0.82-1.28-1.91c-1.93-0.05-2.31,1.31-2.81,2.62c-0.14,0.37,0,1.29-0.97,0.94
			c-1-0.35-0.23-0.78-0.09-1.19c0.25-0.7,0.25-0.7-1.52-1.18c2.5-0.95,3.81-2.6,4.66-4.67c0.18-0.44,0.6-0.33,0.96-0.19
			c0.67,0.25,1.32,2.4,0.99,3.07C185.8,56.99,186.34,57.83,186.26,58.68z"/>
		<path class="st1" d="M198,60.18c-0.22-0.81,0.77-1.23,0.65-2.04c-0.46-0.17-0.92,0.4-1.42-0.02c0.04-0.12,0.05-0.38,0.15-0.42
			c1.89-0.75,3.05-2.2,3.81-4.01c0.32-0.76,0.8-0.89,1.46-0.48c0.47,0.28,0.87,2.5,0.68,3.06c-0.12,0.39-0.04,0.85-0.02,1.27
			c0.02,0.36,0.07,0.71,0.12,1.1c-1.47-0.33-1.47-0.33-1.44-1.94c-1.39,0.15-2.08,0.91-2.48,2.23c-0.16,0.54-0.04,2.08-1.53,1.23
			L198,60.18z"/>
		<path class="st1" d="M179.44,53.15c-1.7,1.1-1.68,1.1-2,3.44c-0.11,0.79-0.35,1.56-0.56,2.33c-0.1,0.36,0.07,0.94-0.65,0.87
			c-0.68-0.07-0.8-0.54-0.71-1.06c0.23-1.32,0.53-2.62,0.8-3.97c-0.9-0.37-1.37,0.53-2.07,0.53c-0.27,0-0.67-0.1-0.79-0.3
			c-0.19-0.29,0.08-0.59,0.36-0.74C175.58,53.26,177.49,53.11,179.44,53.15z"/>
		<path class="st1" d="M189.82,54c0.08,2.03-1.18,3.53-0.82,5.34c0.1,0.48-0.46,0.46-0.82,0.45c-0.55-0.02-0.77-0.32-0.67-0.85
			c0.32-1.63,0.61-3.27,0.99-4.88c0.11-0.46,0.12-1.29,0.95-1.05C190.08,53.18,189.81,53.83,189.82,54z"/>
		<polygon class="st2" points="197.98,60.16 197.9,60.22 198,60.18 		"/>
	</g>
	<g>
		<path class="st1" d="M112.09,82.87l8.46-16.31l5.82-14.04h5.84l-8.72,17.12l-5.56,13.23H112.09z M126.37,82.87l-5.58-13.23
			l-8.71-17.12h5.84l5.8,14.04l8.48,16.31H126.37z"/>
	</g>
</g>
</svg>
