<?xml version="1.0" encoding="utf-8"?>
<!-- Generator: Adobe Illustrator 27.0.0, SVG Export Plug-In . SVG Version: 6.00 Build 0)  -->
<svg version="1.1" id="圖層_1" xmlns="http://www.w3.org/2000/svg" xmlns:xlink="http://www.w3.org/1999/xlink" x="0px" y="0px"
	 viewBox="0 0 249.45 161.57" style="enable-background:new 0 0 249.45 161.57;" xml:space="preserve">
<style type="text/css">
	.st0{fill:#002631;}
	.st1{clip-path:url(#SVGID_00000149357875885452062230000011349959885235813251_);fill:#FFFFFF;}
	.st2{clip-path:url(#SVGID_00000081605484001153682380000001476257556438112690_);fill:#FFFFFF;}
	.st3{clip-path:url(#SVGID_00000075148905239497990130000009035179876457009851_);fill:#FFFFFF;}
	.st4{clip-path:url(#SVGID_00000118398664316591662250000010058743081408724383_);fill:#FFFFFF;}
	.st5{clip-path:url(#SVGID_00000064319210469332090880000017136321133899924899_);fill:#FFFFFF;}
	.st6{clip-path:url(#SVGID_00000063606546615076215070000014971109304161460139_);fill:#FFFFFF;}
	.st7{clip-path:url(#SVGID_00000065061406457437874320000010212462454024306308_);fill:#FFFFFF;}
	.st8{clip-path:url(#SVGID_00000101809633756680555410000004918311310205097619_);fill:#FFFFFF;}
	.st9{clip-path:url(#SVGID_00000085238750293406755760000000613288252948681379_);fill:#FFFFFF;}
	.st10{clip-path:url(#SVGID_00000136398064606825246420000008865774320904940184_);fill:#FFFFFF;}
	.st11{clip-path:url(#SVGID_00000133514322420513542790000004170420958925392779_);fill:#FFFFFF;}
	.st12{clip-path:url(#SVGID_00000064325561861484005260000006036397880252347561_);fill:#FFFFFF;}
	.st13{fill:#FFFFFF;}
	.st14{fill:#FDFBF5;}
</style>
<g>
	<g>
		<rect class="st0" width="249.45" height="161.57"/>
	</g>
	<g>
		<g>
			<defs>
				<path id="SVGID_1_" d="M25.95,22.15l-3.38,6.36h1.02l0.79-1.56h4.19l0.79,1.56h1.14l-3.44-6.36H25.95z M24.81,26.13l1.66-3.25
					l1.67,3.25H24.81z"/>
			</defs>
			<use xlink:href="#SVGID_1_"  style="overflow:visible;fill:#FFFFFF;"/>
			<clipPath id="SVGID_00000109745007686751013630000018249374340439832507_">
				<use xlink:href="#SVGID_1_"  style="overflow:visible;"/>
			</clipPath>
			
				<rect x="22.57" y="22.15" style="clip-path:url(#SVGID_00000109745007686751013630000018249374340439832507_);fill:#FFFFFF;" width="118.46" height="6.36"/>
		</g>
		<g>
			<defs>
				<polygon id="SVGID_00000124858977761136327020000009719605494103567519_" points="34.83,22.15 33.87,22.15 33.87,28.5 
					38.79,28.5 38.79,27.54 34.83,27.54 				"/>
			</defs>
			<use xlink:href="#SVGID_00000124858977761136327020000009719605494103567519_"  style="overflow:visible;fill:#FFFFFF;"/>
			<clipPath id="SVGID_00000134210451055850835760000002580860299697709500_">
				<use xlink:href="#SVGID_00000124858977761136327020000009719605494103567519_"  style="overflow:visible;"/>
			</clipPath>
			
				<rect x="22.57" y="20.76" style="clip-path:url(#SVGID_00000134210451055850835760000002580860299697709500_);fill:#FFFFFF;" width="118.46" height="7.74"/>
		</g>
		<g>
			<defs>
				<polygon id="SVGID_00000147910261915534511410000012875735399532401545_" points="43.05,22.15 42.09,22.15 42.09,28.5 
					47.01,28.5 47.01,27.54 43.05,27.54 				"/>
			</defs>
			<use xlink:href="#SVGID_00000147910261915534511410000012875735399532401545_"  style="overflow:visible;fill:#FFFFFF;"/>
			<clipPath id="SVGID_00000145030928307872805300000010773480454260298411_">
				<use xlink:href="#SVGID_00000147910261915534511410000012875735399532401545_"  style="overflow:visible;"/>
			</clipPath>
			
				<rect x="22.57" y="20.76" style="clip-path:url(#SVGID_00000145030928307872805300000010773480454260298411_);fill:#FFFFFF;" width="118.46" height="7.74"/>
		</g>
		<g>
			<defs>
				<rect id="SVGID_00000085252716745725655790000011821538336194946974_" x="50.29" y="22.16" width="0.96" height="6.34"/>
			</defs>
			<use xlink:href="#SVGID_00000085252716745725655790000011821538336194946974_"  style="overflow:visible;fill:#FFFFFF;"/>
			<clipPath id="SVGID_00000138562692533791704820000009951429776064108192_">
				<use xlink:href="#SVGID_00000085252716745725655790000011821538336194946974_"  style="overflow:visible;"/>
			</clipPath>
			
				<rect x="22.57" y="20.76" style="clip-path:url(#SVGID_00000138562692533791704820000009951429776064108192_);fill:#FFFFFF;" width="118.46" height="7.74"/>
		</g>
		<g>
			<defs>
				<path id="SVGID_00000058551155972921179210000000333527125922484135_" d="M57.49,22.15l-2.94,6.36h0.96l0.65-1.49h3.52
					l0.66,1.49h1.04l-3.01-6.36H57.49z M56.56,26.1l1.35-3.02l1.35,3.02H56.56z"/>
			</defs>
			<use xlink:href="#SVGID_00000058551155972921179210000000333527125922484135_"  style="overflow:visible;fill:#FFFFFF;"/>
			<clipPath id="SVGID_00000139980070726090500210000003509398343906763650_">
				<use xlink:href="#SVGID_00000058551155972921179210000000333527125922484135_"  style="overflow:visible;"/>
			</clipPath>
			
				<rect x="22.57" y="20.76" style="clip-path:url(#SVGID_00000139980070726090500210000003509398343906763650_);fill:#FFFFFF;" width="118.46" height="7.74"/>
		</g>
		<g>
			<defs>
				<path id="SVGID_00000076562572699745540940000007718381656574940593_" d="M69.69,25.98c0,0.21,0.01,0.41,0.02,0.61
					s0.03,0.39,0.06,0.58c-0.1-0.18-0.2-0.34-0.3-0.48s-0.2-0.27-0.31-0.39l-3.73-4.15H64.7v6.36h0.88v-3.95
					c0-0.19-0.01-0.38-0.02-0.57s-0.03-0.38-0.05-0.56c0.07,0.15,0.16,0.29,0.25,0.43c0.1,0.14,0.21,0.29,0.34,0.44l3.81,4.21h0.66
					v-6.36h-0.88V25.98z"/>
			</defs>
			<use xlink:href="#SVGID_00000076562572699745540940000007718381656574940593_"  style="overflow:visible;fill:#FFFFFF;"/>
			<clipPath id="SVGID_00000038393558350696500240000015376660947823438755_">
				<use xlink:href="#SVGID_00000076562572699745540940000007718381656574940593_"  style="overflow:visible;"/>
			</clipPath>
			
				<rect x="22.57" y="20.76" style="clip-path:url(#SVGID_00000038393558350696500240000015376660947823438755_);fill:#FFFFFF;" width="118.46" height="7.74"/>
		</g>
		<g>
			<defs>
				<path id="SVGID_00000089536055731694680440000015531389363510887089_" d="M78.83,22.15h-2.99c-0.48,0-0.81,0.1-0.98,0.31
					s-0.26,0.61-0.26,1.2V27c0,0.6,0.08,1,0.25,1.2s0.5,0.3,0.98,0.3h2.99c0.48,0,0.81-0.1,0.99-0.31s0.26-0.61,0.26-1.19v-0.75
					l-0.96-0.23v1.52h-3.55v-4.45h3.55v1.36l0.96-0.2v-0.6c0-0.58-0.09-0.98-0.26-1.19C79.65,22.25,79.32,22.15,78.83,22.15z"/>
			</defs>
			<use xlink:href="#SVGID_00000089536055731694680440000015531389363510887089_"  style="overflow:visible;fill:#FFFFFF;"/>
			<clipPath id="SVGID_00000154423422711796383540000015041155187144703163_">
				<use xlink:href="#SVGID_00000089536055731694680440000015531389363510887089_"  style="overflow:visible;"/>
			</clipPath>
			
				<rect x="22.57" y="20.76" style="clip-path:url(#SVGID_00000154423422711796383540000015041155187144703163_);fill:#FFFFFF;" width="118.46" height="7.74"/>
		</g>
		<g>
			<defs>
				<polygon id="SVGID_00000121278828872330831860000005650881995792432018_" points="84.89,25.67 87.4,25.67 87.4,24.72 
					84.89,24.72 84.89,23.09 89.05,23.09 89.05,22.15 83.93,22.15 83.93,28.5 89.1,28.5 89.1,27.57 84.89,27.57 				"/>
			</defs>
			<use xlink:href="#SVGID_00000121278828872330831860000005650881995792432018_"  style="overflow:visible;fill:#FFFFFF;"/>
			<clipPath id="SVGID_00000067229715054316987120000009445160191305984415_">
				<use xlink:href="#SVGID_00000121278828872330831860000005650881995792432018_"  style="overflow:visible;"/>
			</clipPath>
			
				<rect x="22.57" y="20.76" style="clip-path:url(#SVGID_00000067229715054316987120000009445160191305984415_);fill:#FFFFFF;" width="118.46" height="7.74"/>
		</g>
		<g>
			<defs>
				<path id="SVGID_00000023976236212063659190000012801918358651441030_" d="M110.54,22.15h-3.47c-0.56,0-0.95,0.11-1.15,0.32
					c-0.2,0.21-0.3,0.61-0.3,1.19V27c0,0.58,0.1,0.98,0.3,1.19c0.2,0.21,0.59,0.32,1.15,0.32h3.47c0.56,0,0.94-0.1,1.14-0.31
					s0.3-0.61,0.3-1.19v-0.75l-1.04-0.22v1.59h-4.29v-4.61h4.29v1.44l1.04-0.2v-0.6c0-0.59-0.1-0.98-0.3-1.19
					S111.11,22.15,110.54,22.15z"/>
			</defs>
			<use xlink:href="#SVGID_00000023976236212063659190000012801918358651441030_"  style="overflow:visible;fill:#FFFFFF;"/>
			<clipPath id="SVGID_00000013883830568387546160000000404346592413706887_">
				<use xlink:href="#SVGID_00000023976236212063659190000012801918358651441030_"  style="overflow:visible;"/>
			</clipPath>
			
				<rect x="22.57" y="22.15" style="clip-path:url(#SVGID_00000013883830568387546160000000404346592413706887_);fill:#FFFFFF;" width="118.46" height="6.36"/>
		</g>
		<g>
			<defs>
				<path id="SVGID_00000157279305981953113650000011186256885494521994_" d="M118.19,22.15l-2.94,6.36h0.96l0.65-1.49h3.52
					l0.66,1.49h1.04l-3.01-6.36H118.19z M117.26,26.1l1.35-3.02l1.35,3.02H117.26z"/>
			</defs>
			<use xlink:href="#SVGID_00000157279305981953113650000011186256885494521994_"  style="overflow:visible;fill:#FFFFFF;"/>
			<clipPath id="SVGID_00000100360958050487647840000010497563814726395016_">
				<use xlink:href="#SVGID_00000157279305981953113650000011186256885494521994_"  style="overflow:visible;"/>
			</clipPath>
			
				<rect x="22.57" y="20.76" style="clip-path:url(#SVGID_00000100360958050487647840000010497563814726395016_);fill:#FFFFFF;" width="118.46" height="7.74"/>
		</g>
		<g>
			<defs>
				<path id="SVGID_00000040565730084335469950000005813992061143714442_" d="M129.49,26.01c0.38,0,0.65-0.1,0.82-0.29
					s0.25-0.5,0.25-0.93v-1.42c0-0.43-0.08-0.75-0.25-0.94c-0.17-0.19-0.44-0.29-0.82-0.29h-4.09v6.36h0.96v-2.49h1.39l2.03,2.49
					h1.28l-2.24-2.49H129.49z M126.36,25.13v-2.05h2.71c0.21,0,0.35,0.05,0.43,0.15s0.12,0.26,0.12,0.5v0.76
					c0,0.25-0.04,0.42-0.11,0.51s-0.22,0.13-0.43,0.13H126.36z"/>
			</defs>
			<use xlink:href="#SVGID_00000040565730084335469950000005813992061143714442_"  style="overflow:visible;fill:#FFFFFF;"/>
			<clipPath id="SVGID_00000101097800400481242450000006603224244007815045_">
				<use xlink:href="#SVGID_00000040565730084335469950000005813992061143714442_"  style="overflow:visible;"/>
			</clipPath>
			
				<rect x="22.57" y="20.76" style="clip-path:url(#SVGID_00000101097800400481242450000006603224244007815045_);fill:#FFFFFF;" width="118.46" height="7.74"/>
		</g>
		<g>
			<defs>
				<path id="SVGID_00000139261284373171564280000012880749856006426807_" d="M140.73,23.75c-0.2-0.47-0.47-0.84-0.81-1.12
					c-0.21-0.17-0.49-0.29-0.82-0.37c-0.33-0.08-0.74-0.12-1.22-0.12h-2.93v6.36h2.93c1.06,0,1.85-0.26,2.37-0.79
					c0.52-0.53,0.78-1.33,0.78-2.4C141.02,24.74,140.92,24.23,140.73,23.75z M139.54,27.02c-0.35,0.35-0.94,0.52-1.77,0.52h-1.86
					v-4.45h1.86c0.82,0,1.41,0.17,1.76,0.52c0.35,0.34,0.53,0.91,0.53,1.69C140.06,26.1,139.89,26.67,139.54,27.02z"/>
			</defs>
			<use xlink:href="#SVGID_00000139261284373171564280000012880749856006426807_"  style="overflow:visible;fill:#FFFFFF;"/>
			<clipPath id="SVGID_00000052062084120885256160000006113852069588660652_">
				<use xlink:href="#SVGID_00000139261284373171564280000012880749856006426807_"  style="overflow:visible;"/>
			</clipPath>
			
				<rect x="22.57" y="20.76" style="clip-path:url(#SVGID_00000052062084120885256160000006113852069588660652_);fill:#FFFFFF;" width="118.46" height="7.74"/>
		</g>
	</g>
	<g>
		<path class="st13" d="M233.18,152.88h-73.06c-3.85,0-6.99-3.14-6.99-6.99v-44.68c0-3.85,3.14-6.99,6.99-6.99h73.06
			c3.85,0,6.99,3.14,6.99,6.99v44.68C240.17,149.74,237.03,152.88,233.18,152.88z M160.12,95.22c-3.3,0-5.99,2.69-5.99,5.99v44.68
			c0,3.3,2.69,5.99,5.99,5.99h73.06c3.3,0,5.99-2.69,5.99-5.99v-44.68c0-3.3-2.69-5.99-5.99-5.99H160.12z"/>
	</g>
	<g>
		<path class="st13" d="M210.7,133.98c-2.18-0.44-3.55-1.59-4.52-3.3c2.46-0.07,0.68-1.89,1.55-3.14c-1.98,0.78-3.39,1.49-4.77,2.3
			c-0.71,0.42-1.13,1.01-1.15,1.73c-0.06,2.24-1.5,4.03-1.92,6.15c-0.15,0.75-0.63,0.91-1.18,0.35c-0.57-0.58-1.21-0.41-2.25-0.11
			c1.14-2.29,2.13-4.28,3.36-6.74c-1.71,0.89-3.12,1.26-4.7,0.98c0.77-2.38,3.05-2.93,4.85-3.92c1.16-0.64,1.92-1.35,2.44-2.55
			c0.91-2.09,1.98-4.12,3.03-6.15c0.35-0.67,0.27-1.92,1.61-1.54c1.21,0.35,2.49,0.81,2.74,2.19c0.22,1.26-0.24,2.7,0.19,3.85
			c0.4,1.1,2.38,0.14,2.95,1.5c-2.95,1.11-2.96,1.11-2.64,4.6C210.38,131.4,210.54,132.61,210.7,133.98z M206.88,122.84
			c-1,1.09-1.43,2.45-2.66,3.32C206.87,126.71,207.54,125.87,206.88,122.84z"/>
		<path class="st13" d="M183.71,136.67c-0.9-0.2-1.75-0.17-1.87-0.45c-0.29-0.71,0.38-1.32,0.89-1.65c0.36-0.24,0.56-1.64,1.44-0.48
			c0.28,0.37,0.7,0.2,1.01,0.03c1.96-1.09,3.82-2.32,5.19-4.12c0.98-1.29,0.5-2.22-1.1-2.38c-1.07-0.11-2.12,0.09-3.1,0.45
			c-1.25,0.46-2.44,0.62-3.74,0.27c-0.54-0.14-1.15-0.07-1.34-0.75c-0.19-0.67-0.28-1.34,0.34-1.88c0.75-0.65,1.44-1.35,2.21-1.96
			c2.04-1.61,4.13-3.15,6.15-4.78c0.71-0.57,1.33-0.74,2.19-0.4c0.51,0.2,0.97,0.47,1,0.97c0.04,0.59-0.55,0.72-1.02,0.9
			c-2.57,0.96-4.43,2.81-6.16,4.86c-0.31,0.37-0.21,0.72-0.12,0.96c0.16,0.45,0.66,0.23,0.97,0.16c1.82-0.37,3.59-0.21,5.26,0.53
			c3.02,1.33,3.49,3.51,0.99,5.7C190.23,135,186.61,135.43,183.71,136.67z"/>
		<path class="st13" d="M197.94,111.34c-0.77,1.59-1.27,2.69-1.84,3.76c-0.16,0.3-0.16,0.97-0.84,0.68
			c-0.48-0.21-0.88-0.46-0.79-1.08c0.22-1.38,0.42-2.77,0.64-4.17c1.01,0.27,0.42,1.23,0.92,1.69c0.66-0.47,0.82-1.23,1.21-1.84
			c0.25-0.39,0.3-1.05,0.93-1c0.85,0.07,0.49,0.84,0.64,1.31c0.09,0.28,0.17,0.57,0.37,1.25c0.46-1,0.78-1.66,1.08-2.34
			c0.16-0.35,0.33-0.7,0.81-0.52c0.45,0.17,0.43,0.49,0.28,0.9c-0.63,1.67-1.26,3.34-1.56,5.12c-0.05,0.31-0.19,0.65-0.58,0.54
			c-0.48-0.13-0.97-0.35-1.03-0.93C198.07,113.77,198.04,112.85,197.94,111.34z"/>
		<path class="st13" d="M213.84,112.56c0.47-1.3,0.81-2.28,1.17-3.24c0.16-0.44,0.45-0.82,0.96-0.53c0.45,0.25,0.18,0.61,0.01,0.95
			c-0.79,1.57-1.15,3.24-1.18,4.99c-0.01,0.41,0.12,0.91-0.52,0.98c-0.58,0.06-1.15,0.04-1.35-0.65c-0.32-1.12-0.61-2.25-0.93-3.46
			c-0.77,0.89-0.85,1.96-0.89,2.97c-0.06,1.46-0.74,1.54-1.95,1.06c1.19-1.82,1.64-3.87,2.26-5.85c0.15-0.48,0.27-1.03,0.9-1
			c0.57,0.03,0.5,0.6,0.62,0.99C213.2,110.58,213.47,111.39,213.84,112.56z"/>
		<path class="st13" d="M190.8,114.57c-1.53,0.12-1.53-0.82-1.28-1.91c-1.93-0.05-2.31,1.31-2.81,2.62c-0.14,0.37,0,1.29-0.97,0.94
			c-1-0.35-0.23-0.78-0.09-1.19c0.25-0.7,0.25-0.7-1.52-1.18c2.5-0.95,3.81-2.6,4.66-4.67c0.18-0.44,0.6-0.33,0.96-0.19
			c0.67,0.25,1.32,2.4,0.99,3.07C190.34,112.87,190.87,113.72,190.8,114.57z"/>
		<path class="st13" d="M202.53,116.07c-0.22-0.81,0.77-1.23,0.65-2.04c-0.46-0.17-0.92,0.4-1.42-0.02
			c0.04-0.12,0.05-0.38,0.15-0.42c1.89-0.75,3.05-2.2,3.81-4.01c0.32-0.76,0.8-0.89,1.46-0.48c0.47,0.28,0.87,2.5,0.68,3.06
			c-0.12,0.39-0.04,0.85-0.02,1.27c0.02,0.36,0.07,0.71,0.12,1.1c-1.47-0.33-1.47-0.33-1.44-1.94c-1.39,0.15-2.08,0.91-2.48,2.23
			c-0.16,0.54-0.04,2.08-1.53,1.23L202.53,116.07z"/>
		<path class="st13" d="M183.97,109.04c-1.7,1.1-1.68,1.1-2,3.44c-0.11,0.79-0.35,1.56-0.56,2.33c-0.1,0.36,0.07,0.94-0.65,0.87
			c-0.68-0.07-0.8-0.54-0.71-1.06c0.23-1.32,0.53-2.62,0.8-3.97c-0.9-0.37-1.37,0.53-2.07,0.53c-0.27,0-0.67-0.1-0.79-0.3
			c-0.19-0.29,0.08-0.59,0.36-0.74C180.12,109.14,182.03,109,183.97,109.04z"/>
		<path class="st13" d="M194.36,109.89c0.08,2.03-1.18,3.53-0.82,5.34c0.1,0.48-0.46,0.46-0.82,0.45c-0.55-0.02-0.77-0.32-0.67-0.85
			c0.32-1.63,0.61-3.27,0.99-4.88c0.11-0.46,0.12-1.29,0.95-1.05C194.61,109.07,194.34,109.72,194.36,109.89z"/>
		<polygon class="st14" points="202.51,116.05 202.43,116.11 202.53,116.07 		"/>
	</g>
</g>
</svg>
