<?xml version="1.0" encoding="UTF-8"?>
<svg id="_圖層_1" data-name=" 圖層 1" xmlns="http://www.w3.org/2000/svg" viewBox="0 0 512 404.53">
  <defs>
    <style>
      .cls-1 {
        fill: #fff;
      }
    </style>
  </defs>
  <path class="cls-1" d="M512,399.28c-2.2,4.25-5.78,5.26-10.37,5.25-67.33-.1-134.66-.07-201.98-.07-6.82,0-10.26-2.55-10.2-7.46,.06-4.83,3.68-7.53,10.34-7.53,63.49-.01,126.99,0,190.48,0,1.99,0,3.99,0,6.35,0V110.78h-24.4c-.08,1.71-.22,3.46-.22,5.21-.02,15.5,0,31-.02,46.5-.01,6.21-2.79,9.76-7.52,9.76-4.71,0-7.46-3.53-7.46-9.78-.02-28.83,0-57.66,0-86.49,0-1.8,0-3.61,0-5.77h-48.79v223.21h48.79c0-1.77,0-3.52,0-5.28,0-29-.04-58,.08-86.99,0-2.37,.36-5.48,1.84-6.9,1.75-1.68,5.19-2.99,7.36-2.42,2.2,.57,4,3.47,5.46,5.69,.7,1.07,.25,2.92,.25,4.42,0,32,.06,64-.08,95.99-.01,3.03-.73,6.33-2.08,9.03-9.71,19.52-19.69,38.9-29.52,58.36-1.74,3.45-3.69,6.4-8.08,6.32-4.15-.08-5.98-2.94-7.64-6.22-9.83-19.46-19.82-38.84-29.51-58.37-1.41-2.83-2.06-6.33-2.07-9.53-.12-60.16-.09-120.32-.09-180.49,0-1.97,0-3.93,0-6.24H91.87c-.09,1.94-.24,3.71-.24,5.49-.02,15.83,0,31.66-.04,47.5,0,1.98-.05,4.06-.61,5.92-1.04,3.44-3.71,5.08-7.25,4.92-3.54-.17-6.04-2.03-6.75-5.57-.42-2.1-.34-4.31-.34-6.47-.02-45.5-.08-90.99,.1-136.49,.02-4.3-1.59-6.2-5.21-7.78C44.74,6.64,15.1,26.1,15.05,55.78c-.12,77.33-.04,154.65-.04,231.98,0,7.45,0,14.9,0,23.31,18.08-16.7,38.12-20.92,61.33-13.11,.1-2.09,.27-3.96,.27-5.84,.02-28.83,0-57.66,.02-86.49,0-1.99-.06-4.03,.31-5.97,.67-3.56,3.09-5.49,6.63-5.71,3.76-.23,6.51,1.5,7.51,5.22,.51,1.89,.52,3.96,.52,5.94,.03,34.16,.02,68.33,.03,102.49,0,3.9,.1,7.87-4,10.04-4.04,2.14-7.22-.01-10.55-2.17-14.29-9.25-32.88-8.41-46.35,1.93-13.33,10.23-18.86,27.75-13.85,43.85,5.09,16.33,19.56,27.81,36.79,28.08,25.49,.39,50.99,.19,76.49,.2,42.83,.02,85.66,0,128.49,.02,1.99,0,4.05-.1,5.95,.37,3.9,.97,5.91,3.68,5.6,7.73-.31,4.04-2.67,6.34-6.71,6.73-1.49,.15-3,.08-4.5,.08-66.99,0-133.99,.02-200.98,0C23.45,404.44,.02,380.97,.02,346.38,0,249.88-.02,153.39,.03,56.9,.04,28.06,18.45,5.66,46.33,.84c14.76-2.56,28.4,.81,40.83,9.26,3.66,2.49,4.48,5.86,4.47,9.91-.05,23-.03,46-.03,68.99,0,1.95,0,3.91,0,6.16H392.92c0-1.98,0-3.76,0-5.54,0-20.33-.04-40.66,.01-61,.04-17.19,11.31-28.44,28.46-28.52,7.5-.04,15-.05,22.5,0,16.49,.11,28.01,11.51,28.08,27.96,.09,20.5,.02,41,.02,61.49,0,1.8,0,3.59,0,5.9,10.1,0,19.72,.16,29.33-.07,4.53-.11,8.1,1.12,10.68,4.89V399.28ZM456.89,54.53c0-9.77,.29-19.24-.1-28.68-.25-6.01-5.21-10.5-11.22-10.65-8.81-.22-17.63-.21-26.44,0-5.63,.14-10.64,4.33-10.9,9.8-.46,9.74-.13,19.52-.13,29.51h48.79Zm-24.45,293.23c6.71-13.24,13.07-25.78,19.66-38.78h-39.38c6.66,13.1,13.04,25.63,19.72,38.78Z"/>
  <path class="cls-1" d="M169.3,309.53c0-13.56-.01-26.36,0-39.16,.01-8.72,2.28-11,10.89-11.01,18.32-.01,36.64-.02,54.96,0,7.98,0,10.29,2.38,10.36,10.5,.03,3.28,0,6.57,0,10.38,7.7,0,14.82,0,21.94,0,9.66,0,19.32-.01,28.98,0,7.94,.02,10.28,2.41,10.32,10.53,.03,5.98,0,11.96,0,18.51,2.03,.09,3.79,.23,5.54,.23,14.32,.02,28.65,0,42.97,.01,10.8,0,12.61,1.78,12.62,12.35,0,13.32,.03,26.65-.01,39.97-.02,7.34-2.56,9.96-9.93,9.96-79.95,.03-159.89,.03-239.84,0-7.41,0-9.95-2.6-9.98-9.91-.04-14.16-.04-28.31,0-42.47,.02-7.25,2.65-9.86,10.05-9.89,14.99-.06,29.98-.02,44.97-.02,1.8,0,3.6,0,6.14,0Zm60.77,46.98v-81.84h-45.48v81.84h45.48Zm61.3,.04v-60.92h-45.53v60.92h45.53Zm-167.97-.11h45.46v-31.6h-45.46v31.6Zm229.28-31.49h-45.67v31.56h45.67v-31.56Z"/>
  <path class="cls-1" d="M116.51,183.77c0-13.33-.04-26.65,.02-39.98,.03-7.6,2.31-9.92,9.84-9.93,27.15-.04,54.31-.05,81.46,0,7.22,.01,9.51,2.36,9.52,9.69,.04,27.15,.04,54.31,0,81.46-.01,7.31-2.32,9.67-9.54,9.68-27.15,.05-54.31,.05-81.46,0-7.52-.01-9.79-2.33-9.82-9.95-.06-13.66-.02-27.32-.02-40.98Zm85.55-34.45h-70.24v70.07h70.24v-70.07Z"/>
  <path class="cls-1" d="M424.96,181.26c0-25.31-.09-50.62,.12-75.93,.02-2.71,1.04-6.13,2.86-7.97,3.98-4,10.7-1.26,11.82,4.47,.32,1.61,.19,3.32,.19,4.98,0,49.95,0,99.9,0,149.86,0,.83,.02,1.67,0,2.5-.17,5.36-3.12,8.8-7.52,8.81-4.44,0-7.44-3.4-7.45-8.79-.04-25.97-.02-51.95-.02-77.92Z"/>
  <path class="cls-1" d="M301.49,141.03c15.65,0,31.29,0,46.94,0,1.66,0,3.36-.06,4.98,.23,3.54,.63,5.58,2.9,5.91,6.45,.35,3.75-1.27,6.56-4.93,7.68-1.86,.57-3.93,.61-5.9,.61-31.46,.03-62.91,.03-94.37,.02-1.33,0-2.68,.08-3.99-.1-4.33-.57-7.17-3.71-7.05-7.66,.12-3.94,3.1-7.01,7.49-7.13,7.15-.2,14.31-.1,21.47-.1,9.82,0,19.64,0,29.46,0Z"/>
  <path class="cls-1" d="M301.51,176.84c15.64,0,31.28,0,46.92,.01,1.82,0,3.71-.06,5.46,.34,3.76,.88,5.55,3.56,5.46,7.31-.08,3.53-1.91,6.04-5.44,6.83-1.76,.4-3.63,.35-5.46,.36-31.45,.02-62.9,.01-94.34,.01-1.16,0-2.33,.04-3.49-.05-4.63-.39-7.69-3.49-7.54-7.62,.14-3.96,3.07-6.96,7.52-7.1,6.48-.21,12.98-.09,19.47-.09,10.48,0,20.97,0,31.45,0Z"/>
  <path class="cls-1" d="M280.09,227.52c-9.32,0-18.64,.06-27.97-.02-5.73-.05-9.2-3.08-9.06-7.65,.14-4.42,3.47-7.28,8.98-7.3,18.81-.06,37.62-.07,56.43,0,5.56,.02,8.69,2.87,8.71,7.47,.02,4.68-2.99,7.4-8.63,7.46-9.49,.1-18.98,.03-28.46,.03Z"/>
  <path class="cls-1" d="M160.2,186.67c6.84-6.9,12.53-12.69,18.28-18.41,4.28-4.26,8.39-4.74,11.79-1.51,3.56,3.37,3.15,7.68-1.28,12.15-7.14,7.21-14.31,14.39-21.53,21.52-4.64,4.58-8.32,4.63-12.88,.21-3.47-3.35-6.9-6.75-10.24-10.23-3.86-4.01-4.06-8.15-.74-11.42,3.17-3.11,7.61-2.83,11.44,1.02,1.84,1.86,3.24,4.15,5.16,6.66Z"/>
</svg>