<?xml version="1.0" encoding="utf-8"?>
<!-- Generator: Adobe Illustrator 27.0.0, SVG Export Plug-In . SVG Version: 6.00 Build 0)  -->
<svg version="1.1" id="_圖層_1" xmlns="http://www.w3.org/2000/svg" xmlns:xlink="http://www.w3.org/1999/xlink" x="0px" y="0px"
	 viewBox="0 0 512 512" style="enable-background:new 0 0 512 512;" xml:space="preserve">
<style type="text/css">
	.st0{fill:#FFFFFF;}
</style>
<path class="st0" d="M118.4,237.5c-35.3,0-70.5,0-105.8,0c-10.1,0-13.4-3.5-12-13.2c6.5-51.9,26.9-97.5,61-137c3.6-4.1,5-7.4,3.5-13
	c-4.8-17.7,2.3-36.5,17.1-47.4c15-11.1,34.9-12.3,50.8-2.4c4.1,2.5,6.9,2.2,10.8,0.3c25.8-12.8,53-21,81.5-24.5
	c8.5-1,12.2,2.2,12.2,10.8c0,71.7,0,143.4,0,215.1c0,8.2-3.3,11.3-11.6,11.3C190.1,237.5,154.2,237.5,118.4,237.5L118.4,237.5z
	 M19.8,218.7H219V19.5c-24.5,4-47.3,11.3-69.1,22.5c8.5,18.8,5.7,35.6-6.5,51c21.8,11.1,29.8,24.3,29.8,48.3c0,9.8,0,19.6,0,29.4
	c0,8.3-3.3,11.5-11.4,11.5c-35.3,0-70.5,0-105.8,0c-8.5,0-11.6-3.3-11.6-11.9c0-7.5,0-15.2,0-22.7C31.6,169.8,23.8,193.5,19.8,218.7
	L19.8,218.7z M127.2,163.6c0-8.6,0-16.4,0-24.3c0-1.5-0.1-3.1,0.2-4.6c0.8-4.7,4.8-7.8,9.4-7.6c5,0.2,8.7,4,8.8,9.5
	c0.2,9,0.1,17.9,0.1,26.9h9.2c0-10.2,0.4-20-0.1-29.7c-0.8-13.9-12.6-24.9-26.7-25.2c-12.6-0.2-25.3-0.2-37.9,0
	c-13.7,0.2-25.5,10.2-26.7,23.7c-0.9,10.2-0.2,20.6-0.2,31.1h9c0-9.1-0.1-17.9,0-26.7c0.1-6.2,4.7-10.4,10.3-9.7
	c4.9,0.6,7.9,4.4,8.1,10.2c0.1,8.8,0,17.4,0,26.2L127.2,163.6L127.2,163.6z M108.8,90.2c15.1,0,27.4-12.3,27.5-27.3
	c0.1-15.3-12.3-27.8-27.6-27.8c-15.1,0-27.4,12.3-27.5,27.3C81.1,77.7,93.5,90.2,108.8,90.2L108.8,90.2z"/>
<path class="st0" d="M377.2,485.2c-18.5,6.7-36.5,13.9-54.8,19.6c-11.4,3.6-23.5,5-35.5,7c-8.3,1.4-12.4-2.3-12.5-10.6
	c-0.1-18.4,0-36.8,0-55.2c0-52.7,0-105.5,0-158.2c0-10.6,2.6-13.4,13.1-13.4c70.1,0,140.3,0,210.5,0c12.1,0,14.8,2.9,13.1,14.9
	c-5.3,39.5-18.9,76-40.9,109.4c-2.2,3.5-3.9,7.4-5,11.4c-3.9,13.5-11,24.8-21.6,33.9c-1.8,1.6-2.5,4.6-3.8,6.9c-2,4-4.1,7.9-6.1,12
	c-1.1,2.2-2.4,4.4-3,6.8c-0.5,2.3,0,5-0.1,7.4c-0.4,10.1-7.8,17.7-17.9,18.1c-6.5,0.2-13,0.2-19.6,0
	C385.5,494.9,380.2,490.7,377.2,485.2L377.2,485.2z M372.5,464.7c-2.1-4.8-4.9-8.9-5.7-13.4c-0.7-3.6-1.9-5.7-4.6-7.9
	c-20.8-17.2-28.6-44.6-20.2-70c8.2-24.6,31-42.5,55.9-43.8c28.3-1.5,52.6,12.8,64,37.9c0.7,1.6,1.4,3.3,2.3,5.3
	c12.4-19.2,27.1-61.6,27.6-79.7H293.3v199.2C322,487.7,348.4,478.4,372.5,464.7L372.5,464.7z M421.2,449.1
	c1.4-10.9,2.2-12.3,11-19.5c20.5-16.6,22.8-47.2,5.2-66.6c-17.9-19.8-48.5-20.4-67.1-1.3c-18.3,18.8-17.3,49.5,2.8,66.6
	c6.6,5.6,12.5,11.1,11.9,20.6h8.8v-36.6c-3.2,0-6,0.1-8.9,0c-5.5-0.3-9.2-4.1-9.2-9.1s3.7-9.1,9.1-9.2c12.2-0.2,24.6-0.2,36.8,0
	c5.5,0.1,9.2,4.1,9.2,9.1s-3.7,8.9-9.2,9.2c-3,0.2-6,0-8.8,0V449L421.2,449.1L421.2,449.1z M412.2,467.9h-17.7v8.5h17.7V467.9z"/>
<path class="st0" d="M392.8,237.5c-35.3,0-70.5,0-105.8,0c-9.8,0-12.6-2.9-12.6-12.6c0-70.7,0-141.6,0-212.3
	c0-10.5,3.3-13.4,13.7-12.1c28,3.4,54.6,11.3,79.9,24c3.4,1.6,6,1.9,9.6,0.2c31.8-14.9,68.7-8.4,93.4,16.4
	c24.8,24.8,31.3,61.6,16.4,93.5c-1.6,3.5-1.5,6.2,0.1,9.6c12.7,25.6,20.8,52.7,24.1,81.1c1,8.8-2.2,12.5-11.2,12.5
	C464.6,237.5,428.7,237.5,392.8,237.5L392.8,237.5z M293.3,19.7v199.1h198.5c-0.4-14.2-12.3-52.5-19.3-62.1
	c-34.6,36.6-85.6,33.5-115.7,7.4c-15.4-13.4-25.1-30.1-28-50c-4.3-29.5,5.2-54.5,26.9-75.3C335.3,29.4,315,22.9,293.3,19.7
	L293.3,19.7z M412.4,35c-35.5,0-64.3,28.8-64.4,64.3c0,35.5,28.7,64.4,64.1,64.5c35.7,0.1,64.7-28.9,64.6-64.6
	C476.7,63.8,447.9,35,412.4,35z"/>
<path class="st0" d="M119.2,274.3c35.3,0,70.5,0,105.8,0c9.8,0,12.6,2.9,12.6,12.6c0,70.7,0,141.6,0,212.3
	c0,10.4-3.4,13.5-13.7,12.2c-28-3.4-54.6-11.4-79.9-24c-3.4-1.6-6-1.7-9.6-0.1c-31.8,14.9-68.7,8.3-93.4-16.4
	c-24.8-24.8-31.3-61.8-16.4-93.5c1.6-3.6,1.4-6.2-0.2-9.6c-12.7-25.6-20.8-52.7-24.1-81.1c-1-8.8,2.2-12.4,11.2-12.5
	C47.4,274.3,83.3,274.3,119.2,274.3L119.2,274.3z M39,355.5c37.3-39.1,90.1-32.8,118.6-5.8c14.5,13.7,23.4,30.3,25.9,50
	c3.6,28.7-6.1,53-27.2,73.2c20.4,9.4,40.9,16.1,62.7,19.2V293H19.8C23.1,314.9,29.6,335.3,39,355.5z M163.9,412.5
	c0.1-35.5-28.7-64.4-64.1-64.5c-35.5-0.1-64.4,28.6-64.6,64c-0.2,35.7,28.7,64.8,64.4,64.8C135,476.8,163.9,448,163.9,412.5z"/>
<path class="st0" d="M422,136.3c-1.3,5.2-3.9,9-9.4,9.1c-5.8,0.1-8.5-3.7-9.9-9.1c-2.9,0-5.7,0.1-8.6,0c-5.5-0.3-9.3-4-9.4-8.9
	c-0.1-5.2,3.7-9.3,9.5-9.4c8.8-0.2,17.6-0.1,26.8-0.1v-9.3c-8.1,0-16.2,0-24.4,0c-9,0-11.9-3.1-12-12.1c0-7.2,0-14.6,0-21.8
	c0-9,3.1-12,12.1-12c1.9,0,3.8,0,5.9,0c1.3-5.2,3.9-9.1,9.6-9.1s8.3,4,9.6,9.2c3.1,0,5.9-0.2,8.8,0c5.5,0.3,9.2,4.2,9.2,9.2
	s-3.7,9-9.2,9.1c-9,0.2-17.9,0.1-27.2,0.1v9.3c8.4,0,16.5,0,24.8,0c8.6,0,11.7,3.2,11.7,11.8c0,7.1,0,14.2,0,21.3
	c0,10.1-2.8,12.8-12.9,12.9C425.5,136.2,424,136.2,422,136.3L422,136.3z"/>
<path class="st0" d="M108.8,380.2c0,2.1,0.1,4.2,0,6.3c-0.2,5.5-0.1,10.3,4.8,14.9c5.3,4.9,5.5,12,2.4,18.7
	c-3.2,6.9-8.9,10.8-16.3,10.6c-4.2-0.1-6.7,1.2-9.4,4.1c-3.7,4-7.4,7.7-11.3,11.4c-4.4,4.1-9.6,4.2-13.4,0.6
	c-4-3.8-3.8-9.2,0.4-13.8c2.3-2.5,4.9-4.9,7.2-7.3c4.3-4.4,9.4-7.9,8.4-15.8c-0.4-3.1,2.3-7.4,4.9-9.9c3.2-3.1,4-6,3.9-10
	c-0.2-7.4-0.1-14.9,0-22.4c0.1-6.3,3.8-10.3,9.2-10.3c5.4,0,9.1,4,9.2,10.3C108.9,371.7,108.8,376,108.8,380.2L108.8,380.2z"/>
</svg>
