<?xml version="1.0" encoding="UTF-8"?>
<svg id="_圖層_1" data-name="圖層 1" xmlns="http://www.w3.org/2000/svg" viewBox="0 0 435.92 198.81">
  <defs>
    <style>
      .cls-1 {
        fill: #fff;
      }
    </style>
  </defs>
  <path class="cls-1" d="M435.77,88.03c.66,3.65-.86,6.26-3.45,8.84-32.76,32.62-65.44,65.31-98.08,98.06-2.47,2.48-5.03,3.66-8.57,3.65-20.97-.09-41.94-.02-62.91,0-.5,0-1,0-1.5,0-2.81,0-5.2-.78-6.39-3.6-1.23-2.94-.21-5.27,1.94-7.41,10.72-10.66,21.39-21.37,32.08-32.06,14.84-14.84,29.69-29.69,44.53-44.53l3.25-3.25c-1.16-1.16-2.18-2.18-3.2-3.2-25.13-25.13-50.26-50.26-75.39-75.39-4.86-4.86-4.86-7.32,0-12.18,4.77-4.77,9.42-9.68,14.39-14.23,1.51-1.38,3.89-2.53,5.88-2.55C300.44-.03,322.54,.01,344.63,0c1.09,0,2.18,.11,3.27,.16,29.29,29.29,58.58,58.58,87.86,87.86Zm-144.08,81.63c16.66-.04,32.14-.14,47.61-.05,2.48,.01,4.14-.82,5.83-2.52,24.43-24.52,48.92-48.98,73.4-73.46l2.76-2.76c-.54-.72-.73-1.04-.99-1.3-25.3-25.32-50.6-50.65-75.98-75.89-.99-.98-2.8-1.58-4.23-1.59-14.98-.1-29.96-.05-44.94-.02-.78,0-1.57,.13-2.98,.25,1.43,1.43,2.38,2.38,3.34,3.33,23.02,23.02,46.04,46.04,69.05,69.06,4.82,4.82,4.8,7.28-.11,12.18-23.06,23.07-46.13,46.13-69.19,69.19l-3.58,3.58Zm61.66-78.85c-25.44-25.44-50.68-50.68-75.88-75.88-2.86,2.86-5.54,5.54-8.18,8.18,25.39,25.39,50.57,50.57,75.88,75.88l8.18-8.18Zm-23.29,90.74c-15.67,.02-30.84,.21-46-.05-4.05-.07-6.37,1.63-8.71,4.92,1.59,.06,2.78,.13,3.97,.13,13.82,0,27.64-.18,41.46,.06,4.05,.07,6.91-1.09,9.29-5.07Z"/>
  <path class="cls-1" d="M.16,195.47c-.67-3.66,.85-6.26,3.45-8.84,25.17-25.01,50.23-50.14,75.33-75.23l3.43-3.43-3.29-3.29C53.95,79.55,28.81,54.42,3.68,29.29c-4.72-4.72-4.73-7.26-.09-11.92C8.36,12.59,12.99,7.66,17.99,3.15c1.68-1.51,4.33-2.71,6.55-2.73,21.72-.22,43.44-.24,65.16-.07,2.11,.02,4.74,1.09,6.24,2.57,27.8,27.58,55.47,55.29,83.14,83,3.44,3.45,3.43,6.57-.04,10.05-33.38,33.41-66.77,66.83-100.26,100.13-1.43,1.42-3.9,2.53-5.89,2.55-22.09,.2-44.19,.16-66.29,.17-1.09,0-2.18-.11-3.27-.16l-3.18-3.18Zm37.21-25.57c16.66-.04,32.13-.14,47.61-.06,2.48,.01,4.14-.82,5.84-2.52,24.43-24.52,48.92-48.98,73.4-73.46,.93-.93,1.86-1.86,2.76-2.76-.54-.71-.72-1.04-.98-1.29-25.3-25.32-50.6-50.65-75.98-75.89-.99-.98-2.8-1.59-4.23-1.6-14.98-.1-29.96-.05-44.94-.02-.79,0-1.57,.12-3.01,.23l3.35,3.35c23.02,23.02,46.04,46.04,69.05,69.06,4.83,4.83,4.81,7.28-.09,12.18-23.06,23.07-46.13,46.13-69.19,69.19l-3.59,3.59ZM14.94,23.22c25.44,25.44,50.69,50.69,75.88,75.88l8.18-8.18C73.6,65.53,48.42,40.35,23.11,15.04l-8.18,8.18Zm60.64,158.72c-1.44-.05-2.64-.12-3.84-.12-14.19,0-28.39,.18-42.58-.07-4-.07-5.91,1.95-8.21,5.11,15.39-.03,30.19-.2,44.99-.01,4.08,.05,7.32-.69,9.65-4.91Z"/>
  <path class="cls-1" d="M209.52,107.85l-3.49-3.49c-25.05-25.05-50.1-50.1-75.15-75.15-4.83-4.83-4.81-7.28,.08-12.19,4.68-4.69,9.22-9.54,14.13-13.96,1.68-1.51,4.32-2.75,6.54-2.77,21.72-.22,43.45-.25,65.17-.06,2.21,.02,4.94,1.23,6.52,2.79,27.63,27.41,55.12,54.95,82.63,82.48,3.79,3.8,3.79,6.78-.01,10.59-33.22,33.24-66.42,66.49-99.77,99.6-1.65,1.63-4.56,2.79-6.89,2.81-21.47,.23-42.95,.15-64.43,.2-3.04,0-5.79-.44-7.14-3.61-1.41-3.31,.17-5.66,2.46-7.94,25.3-25.25,50.57-50.53,75.84-75.81l3.49-3.49ZM164.82,12.23l3.48,3.48c23.02,23.02,46.04,46.04,69.05,69.06,4.86,4.86,4.86,7.32,0,12.18-23.15,23.15-46.3,46.3-69.45,69.46l-3.39,3.39c16.62-.05,32.1-.15,47.57-.08,2.46,.01,4.15-.75,5.86-2.47,24.52-24.61,49.1-49.16,73.66-73.73,.85-.85,1.62-1.78,2.37-2.59-.27-.5-.35-.75-.51-.91-25.47-25.5-50.94-51.01-76.47-76.46-.77-.77-2.13-1.35-3.22-1.35-15.97-.06-31.95,0-48.94,.03Zm61.37,78.7c-25.45-25.45-50.7-50.7-75.88-75.88l-8.17,8.17c25.39,25.39,50.58,50.58,75.88,75.88l8.17-8.17Zm-23.29,90.7c-15.56,.03-30.61,.24-45.65-.02-4.15-.07-6.69,1.42-9.04,4.94,1.57,.05,2.77,.13,3.96,.13,13.82,0,27.64-.18,41.46,.06,4.06,.07,6.89-1.13,9.27-5.1Z"/>
</svg>