<?xml version="1.0" encoding="utf-8"?>
<!-- Generator: Adobe Illustrator 27.0.0, SVG Export Plug-In . SVG Version: 6.00 Build 0)  -->
<svg version="1.1" id="_圖層_1" xmlns="http://www.w3.org/2000/svg" xmlns:xlink="http://www.w3.org/1999/xlink" x="0px" y="0px"
	 viewBox="0 0 504.5 504.5" style="enable-background:new 0 0 504.5 504.5;" xml:space="preserve">
<style type="text/css">
	.st0{fill:none;stroke:#DEE337;stroke-miterlimit:10;}
	.st1{fill:none;stroke:#FFFFFF;stroke-miterlimit:10;}
	.st2{enable-background:new    ;}
	.st3{fill:#FFFFFF;}
</style>
<circle class="st0" cx="252.3" cy="252.3" r="251.8"/>
<circle class="st1" cx="252.3" cy="252.3" r="223.6"/>
<g class="st2">
	<path class="st3" d="M221.5,271.5h-52.8v45h-7.9v-45h-53.1v-59.7h53.1v-26.6h7.9v26.6h52.8V271.5z M160.8,263.4v-43.7h-45.2v43.7
		H160.8z M213.4,263.4v-43.7h-44.8v43.7H213.4z"/>
	<path class="st3" d="M351.8,209.2h-13V271h11.4v7.3h-70.7V271h15v-61.8h-12.7v-7.3h12.7v-17h8v17h28.3v-17h7.9v17h13V209.2z
		 M310.3,287.5c-5.7,9.8-13.1,19.1-22.2,27.9l-6.4-5.4c9.1-8.6,16.5-17.6,22.2-27L310.3,287.5z M330.9,224.2v-15h-28.3v15H330.9z
		 M330.9,247.3v-15.6h-28.3v15.6H330.9z M330.9,271v-16.3h-28.3V271H330.9z M340.8,301.9l-6.4,5.1c-3.4-6.3-7.8-12.5-13.2-18.4
		l5.6-5C332.2,289.3,336.9,295.4,340.8,301.9z M403.9,306.1c0,3.3-1.2,5.8-3.6,7.5c-2.4,1.7-6.9,2.6-13.7,2.6c-2.6,0-5.2-0.1-8-0.4
		l-2.9-8.2c5.1,0.4,9.4,0.7,12.8,0.7c5,0,7.5-1.3,7.5-4v-36.2h-30.8c-1.7,18.6-7.3,34.6-16.8,48.3l-6.7-5.2
		c6.2-7.7,10.5-16.6,13-26.7c2.5-10.1,3.8-24.2,3.8-42.4v-53.9h45.3V306.1z M396.1,260.7V232h-29.9c0.3,8.9,0.1,18.5-0.4,28.7H396.1
		z M396.1,224.5v-28.6h-29.7v28.6H396.1z"/>
</g>
</svg>
