<?xml version="1.0" encoding="utf-8"?>
<!-- Generator: Adobe Illustrator 27.0.0, SVG Export Plug-In . SVG Version: 6.00 Build 0)  -->
<svg version="1.1" id="圖層_1" xmlns="http://www.w3.org/2000/svg" xmlns:xlink="http://www.w3.org/1999/xlink" x="0px" y="0px"
	 viewBox="0 0 512 512" style="enable-background:new 0 0 512 512;" xml:space="preserve">
<style type="text/css">
	.st0{fill:#FFFFFF;}
</style>
<path class="st0" d="M511.7,512c-170.7,0-341,0-511.7,0C0,341.6,0,171.2,0,0.1c2.1,0,4.2,0,6.4,0c129.6,0,259.1,0,388.7-0.1
	c4,0,6.9,0.8,9.8,3.2c34.3,28.9,68.9,57.7,103.1,86.7c2.1,1.8,3.8,5,3.8,7.6c0.2,136.4,0.2,272.8,0.1,409.2
	C512,508.4,511.8,510,511.7,512z M485.7,490.4c0-129.7,0-258.9,0-388.8c-31.7,0-63.1,0-95.2,0c0-26.9,0-53.2,0-79.5
	c-122.1,0-243.4,0-364.6,0c0,156.3,0,312.2,0,468.3C179.3,490.4,332.3,490.4,485.7,490.4z"/>
<path class="st0" d="M169.9,209.4c-23.6-0.5-44.7-9-62.4-25.7c-2.2-2.1-3.1-3.9-2.1-7.2c8.7-28,35.4-47.3,65.6-47.3
	c30.2,0,57.1,19.5,65.7,47.3c0.9,3.1,0.3,5-2.1,7.2C216.6,200.4,195.4,209.1,169.9,209.4z"/>
<path class="st0" d="M400.7,233.8c0,7,0,13.7,0,20.9c-98.2,0-196.5,0-295,0c0-6.9,0-13.8,0-20.9
	C204.1,233.8,302.2,233.8,400.7,233.8z"/>
<path class="st0" d="M399.5,297c0,49.4,0,98.3,0,147.6c-12.6,0-24.9,0-37.7,0c0-49.2,0-98.3,0-147.6C374.3,297,386.6,297,399.5,297z
	"/>
<path class="st0" d="M236.7,313.7c12,0,23.3,0,35.1,0c0,43.9,0,87.7,0,131.9c-11.6,0-23.2,0-35.1,0
	C236.7,401.7,236.7,357.9,236.7,313.7z"/>
<path class="st0" d="M301.2,344.9c11.8,0,23.3,0,35,0c0,33.6,0,66.9,0,100.7c-11.6,0-23.2,0-35,0
	C301.2,412.2,301.2,378.8,301.2,344.9z"/>
<path class="st0" d="M107.9,362.9c11.8,0,23.2,0,35,0c0,27.6,0,54.9,0,82.7c-11.6,0-23.2,0-35,0C107.9,418,107.9,390.6,107.9,362.9z
	"/>
<path class="st0" d="M277.4,161.1c0-7.2,0-13.9,0-21c40.8,0,81.4,0,122.2,0c0,7.1,0,13.9,0,21C358.8,161.1,318.4,161.1,277.4,161.1z
	"/>
<path class="st0" d="M399.5,208c-40.9,0-81.3,0-122,0c0-7.1,0-13.9,0-21.1c40.8,0,81.2,0,122,0C399.5,193.9,399.5,200.7,399.5,208z"
	/>
<path class="st0" d="M170.8,117.6c-15.9,0-28.9-12.9-29.1-28.8c-0.1-15.9,13.4-29.2,29.4-29.1c16.1,0.2,28.9,13,29,28.8
	C200.1,104.7,187.1,117.7,170.8,117.6z"/>
<path class="st0" d="M207.2,385.7c0,20.2,0,40,0,60.1c-11.7,0-23.2,0-35,0c0-20,0-39.9,0-60.1C183.7,385.7,195.3,385.7,207.2,385.7z
	"/>
</svg>
