<?xml version="1.0" encoding="utf-8"?>
<!-- Generator: Adobe Illustrator 27.0.0, SVG Export Plug-In . SVG Version: 6.00 Build 0)  -->
<svg version="1.1" id="圖層_1" xmlns="http://www.w3.org/2000/svg" xmlns:xlink="http://www.w3.org/1999/xlink" x="0px" y="0px"
	 viewBox="0 0 512 512" style="enable-background:new 0 0 512 512;" xml:space="preserve">
<style type="text/css">
	.st0{fill:#FFFFFF;}
</style>
<path class="st0" d="M300.4,162.4c-14-13.9-28.2-27.5-41.7-41.8c-9.9-10.6-21.1-18.9-34.3-24.9c-3.7-1.7-7.3-5.2-9.4-8.8
	c-9.3-15.9-18-32-26.9-48.1c-4.1-7.3-3.7-9.8,2-15.5c3.2-3.2,6.3-6.4,9.5-9.5c3.4-3.3,7.2-3.8,11.3-1.5
	c17.8,9.8,35.6,19.6,53.3,29.7c2.1,1.2,4.2,3.6,5.1,5.9c6.3,15.8,16.9,28.2,29.2,39.7C311.6,99.9,324,113,336.8,126
	c5.3-5.3,10.7-10,15.3-15.4c5.1-6,6.7-13.1,5.7-21c-3.7-29.2,5.2-53.9,28.3-72.2c22.9-18.2,48.7-21.7,76.1-11.6
	c8.7,3.2,9.9,9.8,3.3,16.5c-12.1,12.2-24.2,24.3-36.4,36.4c-2.7,2.6-4.4,5-2.7,8.8c0.6,1.3,0.4,2.8,0.8,4.2c1,3.7,1.1,9.5,3.4,10.6
	c5.5,2.5,12,3,18.2,3.8c1.2,0.2,2.9-1.7,4.1-2.9c12-12,24-24,36.1-36c7.8-7.8,14-6.3,17.9,4.1c18.4,49.6-18.4,103.1-71.3,103.6
	c-4.8,0-9.6-0.5-14.4-0.9c-8.1-0.8-15.2,1.5-21.2,6.9c-4.7,4.3-9.2,9-14,13.7c2.9,2.6,5.7,5.1,8.8,7.9c1.5-1.4,3.5-3.4,5.5-5.2
	c9.2-8.4,21.9-9.7,32.1-3.2c9.8,6.2,14,17.7,10.3,29.5c-1,3.3,0.5,4.6,2.2,6.3c16,16.1,32.4,31.9,48,48.2
	c22.5,23.5,12,61.8-19.2,70.8c-16.2,4.7-30.4,0.5-42.3-11.1c-15.8-15.5-31.4-31.2-47-47c-2.2-2.3-4-3.1-7.3-2
	c-11.1,3.5-22.8-1-29-10.6c-6.2-9.7-5.3-22.1,2.3-30.8c2.1-2.4,4.4-4.6,6.5-6.8c-2.8-2.9-5.4-5.6-8.3-8.5c-4.4,4.5-9.3,9-13.7,13.9
	c-5.4,6-7.7,13.2-6.6,21.3c7.2,50.1-30.2,91.9-80.7,89.7c-8.2-0.4-16.5-2.9-24.4-5.4c-7.7-2.5-8.9-9.7-3.1-15.6
	c12.4-12.6,25-25.1,37.5-37.5c2.3-2.2,2.5-4.3,2.4-7.5c-0.2-13-6.5-19.3-19.3-18.9c-2.4,0.1-5.4,0.6-6.9,2.1
	c-12.5,12.1-24.6,24.4-36.9,36.7c-7.4,7.3-13.7,6-17.3-3.7c-19.3-50.8,19-105.2,73.5-104.3c3.9,0.1,7.8,0.5,11.7,0.9
	c7.5,0.8,14.4-0.9,20-5.8C290.4,173.1,295.1,167.7,300.4,162.4z M242.1,318.3c1.4,0.4,1.9,0.6,2.3,0.7c38.2,6.1,73.2-29.2,67.1-67.6
	c-2.4-14.9,1.4-28.1,12-38.9c21-21.2,42.1-42.3,63.3-63.3c10.6-10.5,23.7-14.2,38.3-12.3c22.3,2.9,40.9-4.2,55.3-21.4
	c11.4-13.6,15.5-29.5,12.6-48.3c-11.5,11.6-22.3,22.2-32.8,33.1c-3.5,3.6-7.4,4.6-12.1,3.6c-8.5-1.8-17.1-3.5-25.7-5.1
	c-5.4-1-8.5-3.9-9.5-9.4c-1.6-8.6-3.3-17.1-5.1-25.7c-1-4.7-0.3-8.7,3.5-12.1c5-4.6,9.6-9.6,14.5-14.3c6-6,12.1-11.9,18.6-18.3
	c-39-8-75.9,27.9-69.8,66.4c2.4,15-1.1,28.5-11.9,39.4c-21,21.2-42.1,42.3-63.3,63.3c-10.6,10.5-23.7,14.2-38.3,12.3
	c-22.3-2.9-40.9,4.2-55.3,21.4c-11.4,13.6-15.5,29.5-12.7,48.2c11.5-11.5,22.3-22.1,32.8-33c3.5-3.6,7.4-4.6,12.1-3.7
	c8.5,1.7,17.1,3.6,25.7,5.1c5.4,1,8.5,3.9,9.5,9.3c1.6,8.6,3.4,17.1,5.1,25.7c1,4.9,0,8.9-3.8,12.6
	C263.9,296.4,253.4,307.1,242.1,318.3z M394.9,256.4c16.6,16.7,33.1,33.6,50,50c9.7,9.4,25.3,8.8,34.9-0.5c9.4-9.1,10.9-25,1.9-34.4
	c-16.7-17.4-34.2-34-51.2-50.8C418.9,232.4,407,244.2,394.9,256.4z M324.7,138.2c-14.6-14.6-28.5-29-43-42.7
	c-10.9-10.3-20.2-21.5-25.8-35.6c-0.8-2.1-2.8-4.2-4.8-5.3c-13.3-7.6-26.8-15-40.2-22.3c-1.2-0.7-3.1-0.3-4.6-0.4
	c0.2,1.6-0.1,3.3,0.6,4.6c6.4,11.8,13.1,23.3,19.3,35.2c3,5.8,6.9,10,13.1,12.4c10.2,3.9,18.3,10.6,25.9,18.4
	c14.5,15.1,29.4,29.7,44.2,44.5c1.1,1.1,2.3,2.1,3.4,3.1C316.7,146,320.5,142.3,324.7,138.2z M416.8,187c-1.3,1-4,2.4-6.1,4.4
	c-13.6,13.4-27.1,27-40.6,40.5c-2.4,2.4-4.9,4.7-7,7.4c-2.7,3.4-2.2,7.2,0.6,10.3c2.8,3.1,6.4,3.8,10.2,1.8c0.9-0.5,1.8-1.1,2.6-1.9
	c15.9-15.9,31.9-31.8,47.7-47.7c0.9-0.9,1.6-2,2-3.1C428.6,193.1,424.3,186.8,416.8,187z M374.5,187.9c-4.5,4.1-8.5,7.7-11.8,10.7
	c2.6,2.8,5.1,5.4,6.9,7.3c3.8-3.6,7.8-7.4,11.5-10.9C378.8,192.6,376.4,190,374.5,187.9z"/>
<path class="st0" d="M154.4,491.7c0,4.4,0.1,7.8,0,11.2c-0.2,5.5-3.2,8.9-8.6,8.9c-22.9,0.1-45.7,0.1-68.6,0c-5.4,0-8.4-3.4-8.6-8.9
	c-0.1-2.5,0-5,0-8.2c-2.1,0-4,0-5.9,0c-17.3,0-34.7,0-52,0c-7.9,0-10.7-2.8-10.7-10.5c0-38.8,0-77.6,0-116.3
	c0-7.5,2.8-10.4,10.3-10.4c17.3,0,34.7,0,52,0c1.9,0,3.8,0,6.3,0c0-3.1-0.1-5.7,0-8.3c0.2-5.5,3.2-8.8,8.6-8.8
	c22.9-0.1,45.7-0.1,68.6,0c5.1,0,8.3,3.3,8.5,8.4c0.2,4.6,0,9.3,0,14.7c10.7-2.7,21-4.7,30.9-7.9c18.8-6,37.3-6.7,56.1-0.2
	c7.2,2.5,14.7,4.2,22.1,6.2c30.1,8,60.2,16.1,90.3,24c9.2,2.4,17.3,6.6,23,15.1c14.8-8.5,29.3-16.8,43.7-25.2
	c13-7.5,25.9-15.1,38.9-22.5c23.2-13.1,49.9,0.3,52.2,26.8c1.3,14.9-5.9,26-18.8,33.4c-32.2,18.5-64.3,37.1-96.4,55.7
	c-14.2,8.2-28.5,16.3-42.6,24.7c-11.2,6.6-23,9.9-36.1,9.8c-40.2-0.3-80.4-0.3-120.6,0c-13.2,0.1-25.4-2.5-37-8.8
	C158.7,493.6,156.9,492.9,154.4,491.7z M154.4,381.4c0,29.6,0,58.7,0.1,87.8c0,1.2,0.6,3.1,1.5,3.5c12.7,6.2,24.8,13.7,40,13.5
	c39.8-0.5,79.7-0.3,119.5-0.1c11.2,0.1,21.3-2.7,31-8.4c42.4-24.7,84.9-49.1,127.4-73.7c4.5-2.6,9.1-5,13.3-7.9
	c5.9-4,8.1-9.9,7-16.8c-0.9-6.4-4.8-10.7-10.8-12.8c-5.7-2-11.1-1-16.4,2c-26.8,15.6-53.7,31.1-80.7,46.5c-2.9,1.7-3.7,3.6-3.8,6.8
	c-0.3,19.2-18,34.9-36.9,32.1c-10.7-1.6-21.1-4.9-31.6-7.7c-25-6.6-49.9-13.4-74.8-20c-4.7-1.2-7.9-3.6-8.2-8.5
	c-0.5-6.4,5.5-10.1,12.8-8.2c33,8.8,66,17.7,99.1,26.3c3.6,0.9,7.9,1,11.5,0c7.5-2,11.6-8.8,11.3-16.8c-0.3-7.6-5-13.5-13.1-15.6
	c-42.5-11.5-84.9-23-127.5-34.1c-6-1.6-13-2-19-0.7C189,372.3,172,377,154.4,381.4z M86,494.3c17.3,0,34.1,0,50.8,0
	c0-45.8,0-91.3,0-136.6c-17.2,0-33.9,0-50.8,0C86,403.3,86,448.6,86,494.3z M68.3,477.3c0-34.5,0-68.5,0-102.3
	c-17.2,0-34.1,0-50.8,0c0,34.3,0,68.2,0,102.3C34.5,477.3,51.2,477.3,68.3,477.3z"/>
</svg>
