<?xml version="1.0" encoding="utf-8"?>
<!-- Generator: Adobe Illustrator 27.0.0, SVG Export Plug-In . SVG Version: 6.00 Build 0)  -->
<svg version="1.1" id="圖層_1" xmlns="http://www.w3.org/2000/svg" xmlns:xlink="http://www.w3.org/1999/xlink" x="0px" y="0px" viewBox="0 0 256 256" style="enable-background:new 0 0 256 256;" xml:space="preserve">
<style type="text/css">
	.D_st0{fill:#89A1AF;}
	.D_st1{fill:#798E99;}
	.D_st2{clip-path:url(#SVGID_00000065767863320914126270000014035862904135214762_);enable-background:new    ;}
	.D_st3{fill:#235D84;}
	.D_st4{fill:#256599;}
	.D_st5{fill:#FFFFFF;}
</style>
<g>
	<g>
		<path class="D_st0" d="M127.99,39.17c31,0,56.18,4.47,80.28,14.25l-80.28,49.71V39.17z"/>
	</g>
	<g>
		<polygon class="D_st1" points="208.27,53.42 208.27,103.17 127.99,152.87 127.99,103.13 		"/>
	</g>
</g>
<g>
	<g>
		<g>
			<defs>
				<path id="SVGID_D_" d="M255.56,103.16l0,49.75c0,14.14-9.3,28.37-28.43,40.21c-25.21,15.61-62.05,23.71-99.21,23.71
					c-28.2,0-56.57-4.66-80.19-14.26C16.6,189.94,0.44,171.47,0.44,152.83l0-49.75c0,18.63,16.16,37.11,47.29,49.74
					c23.62,9.59,51.99,14.26,80.19,14.26c37.16,0,74.01-8.1,99.21-23.71C246.26,131.53,255.56,117.3,255.56,103.16z"/>
			</defs>
			<use xlink:href="#SVGID_D_"  style="overflow:visible;fill:#235D84;"/>
			<clipPath id="SVGID_00000075131145720508294860000005094582695120673946_">
				<use xlink:href="#SVGID_D_"  style="overflow:visible;"/>
			</clipPath>
			<g style="clip-path:url(#SVGID_00000075131145720508294860000005094582695120673946_);enable-background:new    ;">
				<path class="D_st3" d="M255.56,103.16v49.75c0,0.24,0,0.48-0.01,0.72v-49.75C255.56,103.64,255.56,103.4,255.56,103.16"/>
				<path class="D_st3" d="M255.55,103.88v49.75c-0.04,1.83-0.24,3.66-0.59,5.48v-49.75C255.31,107.54,255.51,105.71,255.55,103.88"/>
				<path class="D_st3" d="M254.96,109.36v49.75c-0.34,1.76-0.82,3.51-1.46,5.25v-49.75C254.14,112.87,254.62,111.12,254.96,109.36"/>
				<path class="D_st3" d="M253.5,114.61v49.75c-0.62,1.72-1.39,3.44-2.3,5.14v-49.75C252.11,118.05,252.88,116.34,253.5,114.61"/>
				<path class="D_st3" d="M251.2,119.75v49.75c-0.93,1.73-2,3.44-3.22,5.14v-49.75C249.2,123.2,250.28,121.48,251.2,119.75"/>
				<path class="D_st3" d="M247.98,124.89v49.75c-1.28,1.78-2.73,3.53-4.34,5.26v-49.75C245.25,128.42,246.7,126.67,247.98,124.89"/>
				<path class="D_st3" d="M243.64,130.15v49.75c-1.79,1.92-3.79,3.82-5.99,5.67v-49.75C239.85,133.97,241.85,132.08,243.64,130.15"/>
				<path class="D_st3" d="M237.65,135.82v49.75c-2.64,2.22-5.58,4.39-8.82,6.48V142.3C232.06,140.21,235,138.04,237.65,135.82"/>
				<path class="D_st3" d="M228.83,142.3v49.75c-0.56,0.36-1.12,0.72-1.7,1.07c-4.88,3.02-10.2,5.76-15.86,8.22v-49.75
					c5.67-2.45,10.99-5.19,15.86-8.22C227.7,143.02,228.27,142.66,228.83,142.3"/>
				<path class="D_st3" d="M211.26,151.59v49.75c-7.48,3.24-15.58,5.98-24.1,8.21v-49.75C195.69,157.57,203.78,154.83,211.26,151.59"
					/>
				<path class="D_st3" d="M187.16,159.81v49.75c-7.48,1.96-15.29,3.53-23.31,4.7v-49.75C171.87,163.34,179.68,161.77,187.16,159.81"
					/>
				<path class="D_st3" d="M163.85,164.51v49.75c-4.95,0.72-9.98,1.3-15.06,1.72v-49.75C153.87,165.81,158.9,165.24,163.85,164.51"/>
				<path class="D_st3" d="M148.8,166.23v49.75c-4.19,0.35-8.42,0.59-12.66,0.73v-49.75C140.38,166.82,144.6,166.58,148.8,166.23"/>
				<path class="D_st3" d="M136.14,166.95v49.75c-2.73,0.09-5.48,0.13-8.22,0.13c-1.09,0-2.19-0.01-3.28-0.02v-49.75
					c1.09,0.01,2.19,0.02,3.28,0.02C130.66,167.09,133.4,167.04,136.14,166.95"/>
				<path class="D_st3" d="M124.64,167.07v49.75c-3.6-0.05-7.2-0.17-10.79-0.37V166.7C117.44,166.9,121.04,167.02,124.64,167.07"/>
				<path class="D_st3" d="M113.85,166.7v49.75c-3.48-0.19-6.95-0.46-10.4-0.8V165.9C106.9,166.24,110.37,166.51,113.85,166.7"/>
				<path class="D_st3" d="M103.45,165.9v49.75c-3.43-0.34-6.84-0.74-10.22-1.22v-49.75C96.61,165.16,100.02,165.57,103.45,165.9"/>
				<path class="D_st3" d="M93.23,164.68v49.75c-3.45-0.49-6.87-1.05-10.26-1.69v-49.75C86.36,163.63,89.78,164.19,93.23,164.68"/>
				<path class="D_st3" d="M82.97,162.99v49.75c-3.58-0.68-7.11-1.44-10.59-2.29V160.7C75.86,161.55,79.4,162.31,82.97,162.99"/>
				<path class="D_st3" d="M72.38,160.7v49.75c-3.87-0.94-7.67-1.99-11.38-3.14v-49.75C64.72,158.71,68.52,159.76,72.38,160.7"/>
				<path class="D_st3" d="M61,157.56v49.75c-4.56-1.42-8.99-2.99-13.27-4.73c0,0,0,0,0,0v-49.75c0,0,0,0,0,0
					C52.01,154.57,56.44,156.14,61,157.56"/>
				<path class="D_st3" d="M47.73,152.83v49.75C16.6,189.94,0.44,171.47,0.44,152.83v-49.75C0.44,121.72,16.6,140.19,47.73,152.83"/>
			</g>
		</g>
		<g>
			<path class="D_st4" d="M127.99,39.17v63.96l80.28-49.71c54.75,22.23,63.19,62.5,18.86,89.96c-25.21,15.61-62.05,23.71-99.21,23.71
				c-28.2,0-56.57-4.66-80.19-14.26c-54.75-22.23-63.19-62.5-18.86-89.96C53.7,47.5,88.55,39.17,127.99,39.17z"/>
		</g>
	</g>
	<g>
		<path class="D_st5" d="M102.28,131.76c-2.51-1.18-3.76-2.88-3.76-5.09c0-1.53,0.58-2.76,1.75-3.71c1.16-0.95,2.6-1.42,4.32-1.42
			c1.54,0,2.84,0.44,3.91,1.33s1.6,2.04,1.6,3.48c0,2.32-1.29,4.12-3.87,5.41v0.05c3.03,1.15,4.55,3.03,4.55,5.65
			c0,1.78-0.63,3.16-1.89,4.15s-2.95,1.48-5.06,1.48c-1.73,0-3.17-0.5-4.33-1.5c-1.16-1-1.74-2.31-1.74-3.92
			c0-2.67,1.51-4.63,4.52-5.86V131.76z M104.1,132.91c-2.69,1.08-4.04,2.63-4.04,4.66c0,1.12,0.4,2,1.21,2.65
			c0.81,0.64,1.83,0.96,3.07,0.96c1.2,0,2.19-0.32,2.97-0.96c0.78-0.64,1.17-1.49,1.17-2.55
			C108.48,135.54,107.02,133.96,104.1,132.91z M107.77,126.65c0-0.99-0.31-1.76-0.93-2.32c-0.62-0.56-1.45-0.84-2.48-0.84
			c-0.95,0-1.77,0.29-2.47,0.88c-0.7,0.59-1.05,1.33-1.05,2.23c0,1.85,1.14,3.24,3.42,4.19
			C106.6,129.79,107.77,128.42,107.77,126.65z"/>
		<path class="D_st5" d="M114.74,140.21c1.17,0.66,2.39,0.98,3.66,0.98c1.89,0,3.37-0.77,4.43-2.32c1.07-1.55,1.6-3.75,1.6-6.6
			c-0.02,0.02-0.04,0.02-0.05,0c-0.89,1.81-2.45,2.72-4.67,2.72c-1.79,0-3.25-0.61-4.39-1.84c-1.14-1.23-1.7-2.78-1.7-4.64
			c0-1.98,0.61-3.64,1.82-4.96c1.21-1.32,2.82-1.99,4.81-1.99c2.09,0,3.68,0.82,4.79,2.46c1.11,1.64,1.66,3.99,1.66,7.06
			c0,3.79-0.73,6.74-2.18,8.86c-1.45,2.12-3.52,3.18-6.21,3.18c-1.39,0-2.58-0.23-3.57-0.7V140.21z M115.9,128.16
			c0,1.45,0.38,2.62,1.14,3.49c0.76,0.88,1.81,1.31,3.14,1.31c1.18,0,2.16-0.39,2.93-1.18s1.16-1.73,1.16-2.85
			c0-1.55-0.39-2.85-1.16-3.9c-0.77-1.05-1.81-1.57-3.09-1.57c-1.21,0-2.2,0.46-2.97,1.37C116.29,125.75,115.9,126.85,115.9,128.16z
			"/>
		<path class="D_st5" d="M129.3,127.13c0-1.71,0.45-3.06,1.35-4.05c0.9-1,2.11-1.49,3.63-1.49c1.47,0,2.61,0.46,3.43,1.39
			s1.23,2.21,1.23,3.86c0,1.63-0.45,2.96-1.36,3.98c-0.91,1.02-2.11,1.53-3.59,1.53c-1.43,0-2.57-0.48-3.42-1.43
			C129.73,129.95,129.3,128.69,129.3,127.13z M131.17,127c0,1.19,0.27,2.12,0.8,2.79c0.53,0.67,1.26,1,2.17,1
			c0.93,0,1.66-0.34,2.17-1.03c0.52-0.69,0.78-1.64,0.78-2.86c0-1.2-0.26-2.14-0.77-2.8c-0.51-0.66-1.22-1-2.13-1
			c-0.92,0-1.66,0.35-2.2,1.06C131.44,124.88,131.17,125.82,131.17,127z M147.83,121.9l-13.32,21.02h-1.99l13.32-21.02H147.83z
			 M141.67,137.86c0-1.7,0.45-3.05,1.34-4.07c0.89-1.02,2.1-1.53,3.61-1.53c1.46,0,2.6,0.47,3.42,1.41
			c0.82,0.94,1.24,2.25,1.24,3.92c0,1.64-0.46,2.97-1.38,3.97c-0.92,1.01-2.11,1.51-3.56,1.51c-1.41,0-2.54-0.48-3.39-1.43
			C142.09,140.69,141.67,139.43,141.67,137.86z M143.51,137.74c0,1.17,0.27,2.09,0.81,2.76s1.26,1.01,2.15,1.01
			c0.93,0,1.66-0.35,2.17-1.04c0.52-0.7,0.78-1.65,0.78-2.86s-0.26-2.14-0.77-2.79s-1.22-0.97-2.12-0.97
			c-0.95,0-1.69,0.35-2.23,1.04S143.51,136.54,143.51,137.74z"/>
	</g>
</g>
</svg>
