<?xml version="1.0" encoding="utf-8"?>
<!-- Generator: Adobe Illustrator 27.0.0, SVG Export Plug-In . SVG Version: 6.00 Build 0)  -->
<svg version="1.1" id="圖層_1" xmlns="http://www.w3.org/2000/svg" xmlns:xlink="http://www.w3.org/1999/xlink" x="0px" y="0px" viewBox="0 0 256 256" style="enable-background:new 0 0 256 256;" xml:space="preserve">
<style type="text/css">
	.G_st0{fill:#25628C;}
	.G_st1{fill:#256599;}
	.G_st2{enable-background:new    ;}
	.G_st3{clip-path:url(#SVGID_00000142145585426830522220000013172105266773467026_);enable-background:new    ;}
	.G_st4{fill:#FFFFFF;}
	.G_st5{fill:#2E7EAA;}
	.G_st6{fill:#3387C1;}
	.G_st7{clip-path:url(#SVGID_00000181790022484280141690000015945845568520844951_);enable-background:new    ;}
	.G_st8{fill:#C4BE49;}
	.G_st9{fill:#D8D84A;}
</style>
<g>
	<g>
		<g>
			<polygon class="G_st0" points="171.7,43.09 171.7,92.8 127.98,152.85 127.98,103.14 			"/>
		</g>
		<g>
			<g>
				<path class="G_st1" d="M127.98,167.05c-70.58,0-127.81-28.61-127.81-63.91c0-35.29,57.23-63.9,127.81-63.9
					c16.1,0,28.6,1.1,43.72,3.85l-43.72,60.05V167.05z"/>
			</g>
			<g class="G_st2">
				<defs>
					<path id="SVGID_G_" class="G_st2" d="M127.98,167.05l0,49.71c-70.58,0-127.81-28.61-127.81-63.91l0-49.71
						C0.17,138.44,57.39,167.05,127.98,167.05z"/>
				</defs>
				<use xlink:href="#SVGID_G_"  style="overflow:visible;fill:#25628C;"/>
				<clipPath id="SVGID_00000096019155614051368460000009277192392087768494_">
					<use xlink:href="#SVGID_G_"  style="overflow:visible;"/>
				</clipPath>
				<g style="clip-path:url(#SVGID_00000096019155614051368460000009277192392087768494_);enable-background:new    ;">
					<path class="G_st0" d="M127.98,167.05v49.71c-1.1,0-2.19-0.01-3.29-0.02v-49.71C125.78,167.05,126.88,167.05,127.98,167.05"/>
					<path class="G_st0" d="M124.69,167.03v49.71c-3.68-0.05-7.31-0.17-10.91-0.37v-49.71C117.38,166.86,121.01,166.99,124.69,167.03"
						/>
					<path class="G_st0" d="M113.78,166.66v49.71c-3.53-0.19-7.01-0.46-10.44-0.8v-49.71C106.78,166.2,110.26,166.47,113.78,166.66"/>
					<path class="G_st0" d="M103.34,165.87v49.71c-3.47-0.34-6.88-0.75-10.24-1.22v-49.71C96.46,165.12,99.87,165.53,103.34,165.87"/>
					<path class="G_st0" d="M93.1,164.64v49.71c-3.5-0.5-6.93-1.06-10.3-1.7v-49.71C86.16,163.58,89.6,164.15,93.1,164.64"/>
					<path class="G_st0" d="M82.79,162.95v49.71c-3.63-0.69-7.18-1.45-10.64-2.29v-49.71C75.62,161.49,79.17,162.26,82.79,162.95"/>
					<path class="G_st0" d="M72.15,160.65v49.71c-3.89-0.95-7.67-1.99-11.33-3.12v-49.71C64.48,158.66,68.26,159.7,72.15,160.65"/>
					<path class="G_st0" d="M60.82,157.53v49.71c-4.69-1.45-9.17-3.05-13.43-4.78v-49.71C51.65,154.48,56.13,156.08,60.82,157.53"/>
					<path class="G_st0" d="M47.39,152.75v49.71c-28.82-11.72-47.23-29.59-47.23-49.61v-49.71C0.17,123.16,18.58,141.03,47.39,152.75"
						/>
				</g>
			</g>
		</g>
	</g>
	<g>
		<path class="G_st4" d="M14.6,95.03c1.42,0.92,2.86,1.39,4.33,1.39c1.47,0,2.67-0.42,3.59-1.27c0.92-0.85,1.39-1.97,1.39-3.37
			c0-1.41-0.46-2.5-1.39-3.27c-0.92-0.77-2.26-1.16-4-1.16c-0.55,0-1.64,0.05-3.27,0.16V77.13h9.98v2.04h-7.84v6.24
			c0.78-0.04,1.37-0.07,1.78-0.07c2.19,0,3.9,0.55,5.15,1.65c1.24,1.1,1.86,2.64,1.86,4.63c0,2.07-0.67,3.7-2.02,4.9
			c-1.35,1.19-3.11,1.79-5.3,1.79c-1.92,0-3.34-0.29-4.26-0.86V95.03z"/>
		<path class="G_st4" d="M30.56,95.03c1.42,0.92,2.86,1.39,4.33,1.39c1.47,0,2.67-0.42,3.59-1.27c0.92-0.85,1.39-1.97,1.39-3.37
			c0-1.41-0.46-2.5-1.39-3.27c-0.92-0.77-2.26-1.16-4-1.16c-0.55,0-1.64,0.05-3.27,0.16V77.13h9.98v2.04h-7.84v6.24
			c0.78-0.04,1.37-0.07,1.78-0.07c2.19,0,3.9,0.55,5.15,1.65c1.24,1.1,1.86,2.64,1.86,4.63c0,2.07-0.67,3.7-2.02,4.9
			c-1.35,1.19-3.11,1.79-5.3,1.79c-1.92,0-3.34-0.29-4.26-0.86V95.03z"/>
		<path class="G_st4" d="M45.76,96.72c0-0.44,0.16-0.81,0.47-1.12c0.31-0.31,0.68-0.46,1.09-0.46c0.43,0,0.8,0.15,1.1,0.46
			c0.3,0.31,0.46,0.68,0.46,1.12c0,0.43-0.15,0.8-0.46,1.11c-0.31,0.31-0.67,0.46-1.1,0.46c-0.41,0-0.78-0.15-1.09-0.45
			S45.76,97.17,45.76,96.72z"/>
		<path class="G_st4" d="M65.09,77.79l-8.31,20.18h-2.31l7.83-18.79H51.74v-2.04h13.36V77.79z"/>
		<path class="G_st4" d="M67.61,82.37c0-1.7,0.45-3.05,1.35-4.05c0.9-1,2.11-1.49,3.64-1.49c1.47,0,2.62,0.46,3.44,1.39
			c0.82,0.93,1.23,2.21,1.23,3.85c0,1.63-0.46,2.96-1.37,3.98c-0.91,1.02-2.11,1.53-3.6,1.53c-1.43,0-2.58-0.48-3.42-1.43
			S67.61,83.93,67.61,82.37z M69.48,82.23c0,1.19,0.27,2.12,0.8,2.79c0.53,0.67,1.26,1,2.17,1c0.93,0,1.66-0.34,2.18-1.03
			c0.52-0.69,0.78-1.64,0.78-2.86c0-1.2-0.26-2.13-0.77-2.8s-1.23-1-2.13-1c-0.92,0-1.66,0.35-2.21,1.06
			C69.75,80.12,69.48,81.06,69.48,82.23z M86.17,77.13l-13.34,21h-1.99l13.34-21H86.17z M80,93.09c0-1.69,0.45-3.05,1.35-4.07
			s2.1-1.53,3.62-1.53c1.46,0,2.61,0.47,3.43,1.41c0.83,0.94,1.24,2.25,1.24,3.91c0,1.64-0.46,2.96-1.38,3.97
			c-0.92,1-2.11,1.51-3.57,1.51c-1.41,0-2.54-0.48-3.4-1.43C80.43,95.92,80,94.66,80,93.09z M81.84,92.97
			c0,1.17,0.27,2.09,0.81,2.76c0.54,0.67,1.26,1.01,2.16,1.01c0.93,0,1.66-0.35,2.18-1.04c0.52-0.7,0.78-1.65,0.78-2.86
			c0-1.21-0.26-2.14-0.77-2.78s-1.22-0.97-2.13-0.97c-0.95,0-1.69,0.35-2.23,1.04S81.84,91.77,81.84,92.97z"/>
	</g>
</g>
<g>
	<g>
		<g>
			<polygon class="G_st5" points="249.54,83.4 249.54,133.1 127.98,152.85 127.98,103.14 			"/>
		</g>
		<g>
			<path class="G_st6" d="M127.98,103.14l43.72-60.05c37.94,6.91,65.37,21.1,77.85,40.3L127.98,103.14z"/>
		</g>
	</g>
	<g>
		<path class="G_st4" d="M177.92,78h-11.7v-2h4.74V59.61l-4.86,1.47v-2.17l7.1-2.22v19.3h4.72V78z"/>
		<path class="G_st4" d="M194.57,72.4h-2.69V78h-2.23v-5.6h-9.85v-1.48l9.31-13.76h2.77v13.38h2.69V72.4z M189.65,70.54v-9.17
			c0-0.64,0.02-1.36,0.05-2.17h-0.05c-0.07,0.2-0.34,0.73-0.79,1.6l-6.55,9.74H189.65z"/>
		<path class="G_st4" d="M197.21,76.74c0-0.44,0.16-0.81,0.47-1.12s0.68-0.46,1.09-0.46c0.43,0,0.8,0.15,1.1,0.46s0.46,0.68,0.46,1.12
			c0,0.43-0.15,0.8-0.46,1.11s-0.67,0.46-1.1,0.46c-0.41,0-0.78-0.15-1.09-0.45C197.36,77.57,197.21,77.19,197.21,76.74z"/>
		<path class="G_st4" d="M203.83,74.74c1.43,1.13,3.03,1.69,4.82,1.69c1.43,0,2.6-0.36,3.5-1.09c0.9-0.73,1.35-1.73,1.35-3
			c0-2.78-1.96-4.17-5.88-4.17h-1.72v-1.92h1.64c3.48,0,5.22-1.3,5.22-3.9c0-2.41-1.33-3.62-3.98-3.62c-1.47,0-2.85,0.51-4.14,1.52
			v-2.25c1.33-0.8,2.9-1.2,4.71-1.2c1.65,0,3.02,0.45,4.1,1.36s1.62,2.11,1.62,3.61c0,2.73-1.39,4.49-4.18,5.3v0.05
			c1.48,0.13,2.67,0.65,3.57,1.56c0.9,0.91,1.35,2.05,1.35,3.42c0,1.9-0.68,3.42-2.05,4.55c-1.37,1.13-3.11,1.69-5.24,1.69
			c-1.96,0-3.52-0.37-4.68-1.12V74.74z"/>
		<path class="G_st4" d="M219.05,62.39c0-1.7,0.45-3.05,1.35-4.05c0.9-1,2.11-1.49,3.64-1.49c1.47,0,2.62,0.46,3.44,1.39
			c0.82,0.93,1.23,2.21,1.23,3.85c0,1.63-0.46,2.96-1.37,3.98s-2.11,1.53-3.6,1.53c-1.43,0-2.58-0.48-3.42-1.43
			S219.05,63.95,219.05,62.39z M220.92,62.26c0,1.19,0.27,2.12,0.8,2.79c0.53,0.67,1.26,1,2.17,1c0.93,0,1.66-0.34,2.18-1.03
			c0.52-0.69,0.78-1.64,0.78-2.86c0-1.2-0.26-2.13-0.77-2.8s-1.23-1-2.13-1c-0.92,0-1.66,0.35-2.21,1.06
			C221.2,60.14,220.92,61.08,220.92,62.26z M237.62,57.16l-13.34,21h-1.99l13.34-21H237.62z M231.44,73.11
			c0-1.69,0.45-3.05,1.35-4.07c0.9-1.02,2.1-1.53,3.62-1.53c1.46,0,2.61,0.47,3.43,1.41c0.83,0.94,1.24,2.25,1.24,3.91
			c0,1.64-0.46,2.96-1.38,3.97c-0.92,1-2.11,1.51-3.57,1.51c-1.41,0-2.54-0.48-3.4-1.43C231.87,75.94,231.44,74.68,231.44,73.11z
			 M233.29,72.99c0,1.17,0.27,2.09,0.81,2.76c0.54,0.67,1.26,1.01,2.16,1.01c0.93,0,1.66-0.35,2.18-1.04s0.78-1.65,0.78-2.86
			c0-1.21-0.26-2.14-0.77-2.78s-1.22-0.97-2.13-0.97c-0.95,0-1.69,0.35-2.23,1.04C233.56,70.84,233.29,71.79,233.29,72.99z"/>
	</g>
</g>
<g>
	<g>
		<g>
			<defs>
				<path id="SVGID_00000050623169035225401010000016754014638258104488_" d="M255.83,103.16l0,49.71
					c0,26.94-34.34,51.99-88.35,60.77c-13.43,2.19-25.38,3.13-39.51,3.13l0-49.71c14.12,0,26.08-0.95,39.51-3.13
					C221.5,155.15,255.83,130.1,255.83,103.16z"/>
			</defs>
			<use xlink:href="#SVGID_00000050623169035225401010000016754014638258104488_"  style="overflow:visible;fill:#C4BE49;"/>
			<clipPath id="SVGID_00000087406503389143460220000002564283612599732871_">
				<use xlink:href="#SVGID_00000050623169035225401010000016754014638258104488_"  style="overflow:visible;"/>
			</clipPath>
			<g style="clip-path:url(#SVGID_00000087406503389143460220000002564283612599732871_);enable-background:new    ;">
				<path class="G_st8" d="M255.83,103.16v49.71c0,0.25,0,0.49-0.01,0.74V103.9C255.83,103.65,255.83,103.4,255.83,103.16"/>
				<path class="G_st8" d="M255.82,103.9v49.71c-0.04,1.81-0.24,3.62-0.59,5.41V109.3C255.58,107.51,255.78,105.71,255.82,103.9"/>
				<path class="G_st8" d="M255.24,109.3v49.71c-0.34,1.75-0.83,3.5-1.46,5.22v-49.71C254.41,112.8,254.89,111.06,255.24,109.3"/>
				<path class="G_st8" d="M253.78,114.52v49.71c-0.63,1.74-1.41,3.46-2.32,5.15v-49.71C252.37,117.98,253.15,116.26,253.78,114.52"/>
				<path class="G_st8" d="M251.46,119.68v49.71c-0.94,1.76-2.04,3.49-3.27,5.19v-49.71C249.43,123.17,250.52,121.44,251.46,119.68"/>
				<path class="G_st8" d="M248.19,124.87v49.71c-1.32,1.82-2.8,3.6-4.43,5.35v-49.71C245.4,128.47,246.87,126.69,248.19,124.87"/>
				<path class="G_st8" d="M243.76,130.22v49.71c-1.81,1.93-3.81,3.82-6,5.66v-49.71C239.95,134.05,241.95,132.16,243.76,130.22"/>
				<path class="G_st8" d="M237.76,135.88v49.71c-2.68,2.25-5.64,4.42-8.86,6.5v-49.71C232.12,140.3,235.08,138.13,237.76,135.88"/>
				<path class="G_st8" d="M228.9,142.38v49.71c-5.14,3.31-10.94,6.38-17.35,9.15v-49.71C217.96,148.75,223.76,145.68,228.9,142.38"/>
				<path class="G_st8" d="M211.55,151.53v49.71c-7.23,3.12-15.23,5.87-23.93,8.16v-49.71C196.31,157.4,204.32,154.65,211.55,151.53"
					/>
				<path class="G_st8" d="M187.62,159.68v49.71c-6.35,1.67-13.08,3.09-20.13,4.24c-1.48,0.24-2.94,0.47-4.39,0.68V164.6
					c1.45-0.21,2.91-0.44,4.39-0.68C174.54,162.78,181.26,161.35,187.62,159.68"/>
				<path class="G_st8" d="M163.09,164.6v49.71c-4.89,0.71-9.63,1.26-14.41,1.65v-49.71C153.47,165.86,158.21,165.31,163.09,164.6"/>
				<path class="G_st8" d="M148.69,166.25v49.71c-3.85,0.32-7.73,0.54-11.73,0.66v-49.71C140.96,166.79,144.84,166.57,148.69,166.25"
					/>
				<path class="G_st8" d="M136.95,166.92v49.71c-2.91,0.09-5.89,0.14-8.98,0.14v-49.71C131.06,167.05,134.04,167.01,136.95,166.92"/>
			</g>
		</g>
		<g>
			<path class="G_st9" d="M127.98,167.05v-63.91L249.54,83.4c21.81,33.57-14.93,69.62-82.06,80.53
				C154.05,166.11,142.1,167.05,127.98,167.05z"/>
		</g>
	</g>
	<g>
		<path class="G_st4" d="M162.15,132.39c1.43,1.13,3.03,1.69,4.82,1.69c1.43,0,2.6-0.36,3.5-1.09c0.9-0.73,1.35-1.73,1.35-3
			c0-2.78-1.96-4.17-5.88-4.17h-1.72v-1.92h1.64c3.48,0,5.22-1.3,5.22-3.9c0-2.41-1.33-3.62-3.98-3.62c-1.47,0-2.85,0.51-4.14,1.52
			v-2.25c1.33-0.8,2.9-1.2,4.71-1.2c1.65,0,3.02,0.45,4.1,1.36c1.08,0.91,1.62,2.11,1.62,3.61c0,2.73-1.39,4.49-4.18,5.3v0.05
			c1.48,0.13,2.67,0.65,3.57,1.56c0.9,0.91,1.35,2.05,1.35,3.42c0,1.9-0.68,3.42-2.05,4.55c-1.37,1.13-3.11,1.69-5.24,1.69
			c-1.96,0-3.52-0.37-4.68-1.12V132.39z"/>
		<path class="G_st4" d="M177.5,125.65c0-3.68,0.6-6.46,1.8-8.35c1.2-1.89,2.93-2.84,5.19-2.84c4.33,0,6.5,3.56,6.5,10.68
			c0,3.46-0.59,6.14-1.78,8.02c-1.19,1.89-2.92,2.83-5.19,2.83c-2.12,0-3.73-0.91-4.84-2.72
			C178.06,131.46,177.5,128.92,177.5,125.65z M179.79,125.53c0,5.7,1.49,8.56,4.47,8.56c2.95,0,4.43-2.89,4.43-8.68
			c0-6.02-1.44-9.03-4.32-9.03C181.31,116.38,179.79,119.43,179.79,125.53z"/>
		<path class="G_st4" d="M193.35,120.04c0-1.7,0.45-3.05,1.35-4.05c0.9-1,2.11-1.49,3.64-1.49c1.47,0,2.62,0.46,3.44,1.39
			c0.82,0.93,1.23,2.21,1.23,3.85c0,1.63-0.46,2.96-1.37,3.98s-2.11,1.53-3.6,1.53c-1.43,0-2.58-0.48-3.42-1.43
			C193.77,122.86,193.35,121.6,193.35,120.04z M195.22,119.9c0,1.19,0.27,2.12,0.8,2.79c0.53,0.67,1.26,1,2.17,1
			c0.93,0,1.66-0.34,2.18-1.03c0.52-0.69,0.78-1.64,0.78-2.86c0-1.2-0.26-2.13-0.77-2.8s-1.23-1-2.13-1c-0.92,0-1.66,0.35-2.21,1.06
			S195.22,118.73,195.22,119.9z M211.91,114.81l-13.34,21h-1.99l13.34-21H211.91z M205.74,130.76c0-1.69,0.45-3.05,1.35-4.07
			c0.9-1.02,2.1-1.53,3.62-1.53c1.46,0,2.61,0.47,3.43,1.41c0.83,0.94,1.24,2.25,1.24,3.91c0,1.64-0.46,2.96-1.38,3.97
			s-2.11,1.51-3.57,1.51c-1.41,0-2.54-0.48-3.4-1.43S205.74,132.33,205.74,130.76z M207.58,130.64c0,1.17,0.27,2.09,0.81,2.76
			s1.26,1.01,2.16,1.01c0.93,0,1.66-0.35,2.18-1.04c0.52-0.7,0.78-1.65,0.78-2.86c0-1.21-0.26-2.14-0.77-2.78
			c-0.51-0.65-1.22-0.97-2.13-0.97c-0.95,0-1.69,0.35-2.23,1.04S207.58,129.44,207.58,130.64z"/>
	</g>
</g>
</svg>
