<?xml version="1.0" encoding="utf-8"?>
<!-- Generator: Adobe Illustrator 27.0.0, SVG Export Plug-In . SVG Version: 6.00 Build 0)  -->
<svg version="1.1" id="圖層_1" xmlns="http://www.w3.org/2000/svg" xmlns:xlink="http://www.w3.org/1999/xlink" x="0px" y="0px"
	 viewBox="0 0 256 256" style="enable-background:new 0 0 256 256;" xml:space="preserve">
<style type="text/css">
	.F_st0{fill:#2E7EAA;}
	.F_st1{fill:#3387C1;}
	.F_st2{clip-path:url(#SVGID_00000091010240505675361190000018214307174171835026_);enable-background:new    ;}
	.F_st3{fill:#FFFFFF;}
	.F_st4{clip-path:url(#SVGID_00000101783991339179363700000000177122016158039698_);enable-background:new    ;}
	.F_st5{fill:#C4BE49;}
	.F_st6{fill:#D8D84A;}
	.F_st7{fill:#256599;}
	.F_st8{clip-path:url(#SVGID_00000081641358069079795100000011155299258850540986_);enable-background:new    ;}
	.F_st9{fill:#25628C;}
	.F_st10{clip-path:url(#SVGID_00000026127485567836445190000009654759972083998128_);enable-background:new    ;}
	.F_st11{fill:#54B244;}
	.F_st12{fill:#59C64A;}
</style>
<g>
	<g>
		<g>
			<polygon class="F_st0" points="127.98,103.12 127.98,152.9 8.5,129.96 8.5,80.19 			"/>
		</g>
		<g>
			<g>
				<path class="F_st1" d="M240.99,133.17l-113.01-30.04L8.5,80.19C28.04,54.74,76.55,39.11,128,39.11c15.25,0,30.76,1.37,45.84,4.27
					c65.99,12.67,98.95,49.68,73.61,82.67C245.54,128.56,243.51,130.79,240.99,133.17z"/>
			</g>
			<g>
				<defs>
					<path id="SVGID_F_" d="M256,103.14l0,49.77c0,7.62-2.75,15.38-8.54,22.92c-1.92,2.51-3.95,4.74-6.48,7.11l0-49.77
						c2.52-2.37,4.55-4.6,6.48-7.11C253.25,118.51,256,110.76,256,103.14z"/>
				</defs>
				<use xlink:href="#SVGID_F_"  style="overflow:visible;fill:#2E7EAA;"/>
				<clipPath id="SVGID_00000058585858247485387610000001655765793344357049_">
					<use xlink:href="#SVGID_F_"  style="overflow:visible;"/>
				</clipPath>
				<g style="clip-path:url(#SVGID_00000058585858247485387610000001655765793344357049_);enable-background:new    ;">
					<path class="F_st0" d="M256,103.14v49.77c0,0.23,0,0.47-0.01,0.7v-49.77C256,103.6,256,103.37,256,103.14"/>
					<path class="F_st0" d="M255.99,103.84v49.77c-0.04,1.8-0.23,3.61-0.59,5.42v-49.77C255.76,107.45,255.95,105.64,255.99,103.84"/>
					<path class="F_st0" d="M255.41,109.26v49.77c-0.34,1.74-0.82,3.48-1.45,5.22v-49.77C254.59,112.75,255.07,111,255.41,109.26"/>
					<path class="F_st0" d="M253.95,114.49v49.77c-0.63,1.72-1.4,3.44-2.32,5.16v-49.77C252.56,117.93,253.33,116.21,253.95,114.49"/>
					<path class="F_st0" d="M251.63,119.65v49.77c-0.94,1.75-2.04,3.5-3.29,5.23v-49.77C249.6,123.14,250.69,121.4,251.63,119.65"/>
					<path class="F_st0" d="M248.34,124.88v49.77c-0.28,0.39-0.58,0.78-0.88,1.18c-1.11,1.45-2.25,2.8-3.51,4.14V130.2
						c1.25-1.34,2.4-2.69,3.51-4.14C247.76,125.66,248.06,125.27,248.34,124.88"/>
					<path class="F_st0" d="M243.96,130.2v49.77c-0.92,0.99-1.9,1.97-2.97,2.97v-49.77C242.06,132.16,243.04,131.18,243.96,130.2"/>
				</g>
			</g>
		</g>
		<g>
			<polygon class="F_st0" points="240.99,133.17 240.99,182.94 127.98,152.9 127.98,103.12 			"/>
		</g>
	</g>
	<g>
		<path class="F_st3" d="M146.92,80.52c1.42,0.92,2.86,1.39,4.34,1.39c1.47,0,2.67-0.42,3.6-1.27c0.92-0.85,1.39-1.97,1.39-3.37
			c0-1.41-0.46-2.5-1.39-3.27s-2.26-1.16-4-1.16c-0.55,0-1.64,0.05-3.27,0.16V62.61h9.99v2.05h-7.85v6.25
			c0.78-0.04,1.37-0.07,1.78-0.07c2.19,0,3.91,0.55,5.15,1.65c1.24,1.1,1.87,2.65,1.87,4.64c0,2.07-0.67,3.71-2.02,4.9
			c-1.35,1.19-3.12,1.79-5.31,1.79c-1.92,0-3.35-0.29-4.27-0.86V80.52z"/>
		<path class="F_st3" d="M174.81,83.47h-11.72v-2.01h4.74V65.06l-4.86,1.47v-2.17l7.11-2.22v19.33h4.73V83.47z"/>
		<path class="F_st3" d="M178.13,82.22c0-0.44,0.16-0.81,0.47-1.12s0.68-0.46,1.09-0.46c0.43,0,0.8,0.15,1.1,0.46
			c0.31,0.31,0.46,0.68,0.46,1.12c0,0.43-0.15,0.8-0.46,1.11c-0.31,0.31-0.68,0.46-1.1,0.46c-0.41,0-0.78-0.15-1.09-0.45
			C178.29,83.04,178.13,82.67,178.13,82.22z"/>
		<path class="F_st3" d="M185.39,80.93c1.18,0.66,2.4,0.98,3.68,0.98c1.89,0,3.38-0.77,4.45-2.32c1.07-1.55,1.6-3.75,1.6-6.61
			c-0.02,0.02-0.04,0.02-0.05,0c-0.9,1.81-2.46,2.72-4.69,2.72c-1.8,0-3.26-0.62-4.4-1.85c-1.14-1.23-1.71-2.78-1.71-4.65
			c0-1.98,0.61-3.64,1.83-4.96c1.22-1.32,2.83-1.99,4.83-1.99c2.09,0,3.7,0.82,4.81,2.46s1.67,3.99,1.67,7.07
			c0,3.79-0.73,6.74-2.19,8.86c-1.46,2.12-3.54,3.18-6.23,3.18c-1.39,0-2.59-0.23-3.58-0.7V80.93z M186.57,68.87
			c0,1.45,0.38,2.62,1.14,3.5c0.76,0.88,1.81,1.31,3.15,1.31c1.19,0,2.17-0.39,2.94-1.18s1.17-1.74,1.17-2.85
			c0-1.55-0.39-2.85-1.17-3.9s-1.81-1.57-3.1-1.57c-1.21,0-2.2,0.46-2.98,1.37C186.95,66.46,186.57,67.57,186.57,68.87z"/>
		<path class="F_st3" d="M200.01,67.85c0-1.71,0.45-3.06,1.35-4.05c0.9-1,2.12-1.5,3.64-1.5c1.47,0,2.62,0.46,3.44,1.39
			s1.23,2.22,1.23,3.86c0,1.63-0.46,2.96-1.37,3.98s-2.11,1.53-3.6,1.53c-1.44,0-2.58-0.48-3.43-1.43
			C200.43,70.67,200.01,69.41,200.01,67.85z M201.88,67.71c0,1.19,0.27,2.13,0.8,2.8c0.53,0.67,1.26,1,2.18,1
			c0.93,0,1.66-0.34,2.18-1.03c0.52-0.69,0.78-1.64,0.78-2.86c0-1.2-0.26-2.14-0.77-2.8c-0.52-0.66-1.23-1-2.13-1
			c-0.92,0-1.66,0.35-2.21,1.06C202.16,65.59,201.88,66.53,201.88,67.71z M218.6,62.61l-13.36,21.03h-1.99l13.36-21.03H218.6z
			 M212.42,78.58c0-1.7,0.45-3.06,1.35-4.07c0.9-1.02,2.11-1.53,3.62-1.53c1.46,0,2.61,0.47,3.43,1.41
			c0.83,0.94,1.24,2.25,1.24,3.92c0,1.64-0.46,2.97-1.38,3.97c-0.92,1.01-2.11,1.51-3.58,1.51c-1.41,0-2.54-0.48-3.4-1.43
			S212.42,80.15,212.42,78.58z M214.26,78.46c0,1.17,0.27,2.09,0.81,2.76c0.54,0.67,1.26,1.01,2.16,1.01c0.93,0,1.66-0.35,2.18-1.04
			s0.78-1.65,0.78-2.86c0-1.21-0.26-2.14-0.77-2.79c-0.51-0.65-1.22-0.97-2.13-0.97c-0.95,0-1.7,0.35-2.24,1.04
			C214.53,76.31,214.26,77.26,214.26,78.46z"/>
	</g>
</g>
<g>
	<g>
		<g>
			<defs>
				<path id="SVGID_00000088815063668708028680000001955845806265639063_" d="M240.99,133.17l0,49.77
					c-17.26,16.23-44.38,27.01-79.88,31.77l0-49.77C196.61,160.18,223.73,149.39,240.99,133.17z"/>
			</defs>
			<use xlink:href="#SVGID_00000088815063668708028680000001955845806265639063_"  style="overflow:visible;fill:#C4BE49;"/>
			<clipPath id="SVGID_00000057129788788274276610000014042670254049580727_">
				<use xlink:href="#SVGID_00000088815063668708028680000001955845806265639063_"  style="overflow:visible;"/>
			</clipPath>
			<g style="clip-path:url(#SVGID_00000057129788788274276610000014042670254049580727_);enable-background:new    ;">
				<path class="F_st5" d="M240.99,133.17v49.77c-1.09,1.03-2.22,2.03-3.39,3.01v-49.77C238.76,135.2,239.9,134.19,240.99,133.17"/>
				<path class="F_st5" d="M237.59,136.18v49.77c-2.81,2.36-5.85,4.6-9.11,6.71v-49.77C231.74,140.78,234.78,138.54,237.59,136.18"/>
				<path class="F_st5" d="M228.48,142.89v49.77c-5.08,3.28-10.69,6.25-16.82,8.9v-49.77C217.79,149.14,223.41,146.17,228.48,142.89"
					/>
				<path class="F_st5" d="M211.67,151.79v49.77c-6.98,3.02-14.64,5.62-22.93,7.8v-49.77C197.03,157.41,204.68,154.8,211.67,151.79"/>
				<path class="F_st5" d="M188.73,159.58v49.77c-7.65,2.01-15.85,3.65-24.57,4.92v-49.77C172.88,163.24,181.08,161.59,188.73,159.58"
					/>
				<path class="F_st5" d="M164.16,164.51v49.77c-1.01,0.15-2.03,0.29-3.06,0.43v-49.77C162.13,164.8,163.15,164.66,164.16,164.51"/>
			</g>
		</g>
		<g>
			<path class="F_st6" d="M161.1,164.94l-33.12-61.81l113.01,30.04C223.73,149.39,196.61,160.18,161.1,164.94z"/>
		</g>
		<g>
			<polygon class="F_st5" points="161.1,164.94 161.1,214.71 127.98,152.9 127.98,103.12 			"/>
		</g>
	</g>
	<g>
		<path class="F_st3" d="M184.09,151.47h-11.72v-2.01h4.74v-16.41l-4.86,1.47v-2.17l7.11-2.22v19.33h4.73V151.47z"/>
		<path class="F_st3" d="M187.69,148.21c1.43,1.13,3.04,1.7,4.82,1.7c1.44,0,2.61-0.36,3.51-1.09c0.9-0.73,1.35-1.73,1.35-3
			c0-2.78-1.96-4.18-5.89-4.18h-1.72v-1.93h1.64c3.48,0,5.23-1.3,5.23-3.91c0-2.42-1.33-3.62-3.99-3.62c-1.47,0-2.86,0.51-4.15,1.52
			v-2.25c1.33-0.8,2.9-1.2,4.71-1.2c1.65,0,3.02,0.45,4.1,1.36c1.08,0.91,1.62,2.11,1.62,3.61c0,2.73-1.4,4.5-4.19,5.31v0.05
			c1.48,0.13,2.67,0.65,3.58,1.56c0.9,0.92,1.35,2.06,1.35,3.42c0,1.9-0.68,3.42-2.05,4.55c-1.37,1.13-3.12,1.7-5.25,1.7
			c-1.96,0-3.52-0.37-4.69-1.12V148.21z"/>
		<path class="F_st3" d="M202.93,135.84c0-1.71,0.45-3.06,1.35-4.05c0.9-1,2.12-1.5,3.64-1.5c1.47,0,2.62,0.46,3.44,1.39
			c0.82,0.93,1.23,2.22,1.23,3.86c0,1.63-0.46,2.96-1.37,3.98c-0.91,1.02-2.11,1.53-3.6,1.53c-1.44,0-2.58-0.48-3.43-1.43
			C203.36,138.67,202.93,137.41,202.93,135.84z M204.81,135.71c0,1.19,0.27,2.13,0.8,2.8c0.53,0.67,1.26,1,2.18,1
			c0.93,0,1.66-0.34,2.18-1.03c0.52-0.69,0.78-1.64,0.78-2.86c0-1.2-0.26-2.14-0.77-2.8c-0.52-0.66-1.23-1-2.14-1
			c-0.92,0-1.66,0.35-2.21,1.06C205.08,133.59,204.81,134.53,204.81,135.71z M221.52,130.6l-13.36,21.03h-1.99l13.36-21.03H221.52z
			 M215.34,146.58c0-1.7,0.45-3.06,1.35-4.07c0.9-1.02,2.11-1.53,3.62-1.53c1.46,0,2.61,0.47,3.43,1.41
			c0.83,0.94,1.24,2.25,1.24,3.92c0,1.64-0.46,2.97-1.38,3.97c-0.92,1.01-2.11,1.51-3.58,1.51c-1.41,0-2.54-0.48-3.4-1.43
			C215.77,149.41,215.34,148.15,215.34,146.58z M217.18,146.46c0,1.17,0.27,2.09,0.81,2.76c0.54,0.67,1.26,1.01,2.16,1.01
			c0.93,0,1.66-0.35,2.18-1.04c0.52-0.7,0.78-1.65,0.78-2.86c0-1.21-0.26-2.14-0.77-2.79c-0.51-0.65-1.22-0.97-2.13-0.97
			c-0.95,0-1.7,0.35-2.24,1.04C217.45,144.31,217.18,145.25,217.18,146.46z"/>
	</g>
</g>
<g>
	<g>
		<g>
			<path class="F_st7" d="M127.98,167.11C57.3,167.11,0,138.46,0,103.12c0-8.48,2.42-15.02,8.5-22.93l119.47,22.93V167.11z"/>
		</g>
		<g>
			<defs>
				<path id="SVGID_00000131342057449619084840000003499558832225443985_" d="M127.98,167.11l0,49.77C57.3,216.89,0,188.24,0,152.9
					l0-49.77C0,138.46,57.3,167.11,127.98,167.11z"/>
			</defs>
			<use xlink:href="#SVGID_00000131342057449619084840000003499558832225443985_"  style="overflow:visible;fill:#25628C;"/>
			<clipPath id="SVGID_00000178172360199680719750000009867295488851583664_">
				<use xlink:href="#SVGID_00000131342057449619084840000003499558832225443985_"  style="overflow:visible;"/>
			</clipPath>
			<g style="clip-path:url(#SVGID_00000178172360199680719750000009867295488851583664_);enable-background:new    ;">
				<path class="F_st9" d="M127.98,167.11v49.77c-1.1,0-2.2-0.01-3.29-0.02v-49.77C125.78,167.11,126.88,167.11,127.98,167.11"/>
				<path class="F_st9" d="M124.69,167.09v49.77c-3.68-0.05-7.32-0.17-10.92-0.37v-49.77C117.36,166.92,121.01,167.05,124.69,167.09"
					/>
				<path class="F_st9" d="M113.77,166.72v49.77c-3.53-0.2-7.02-0.46-10.46-0.8v-49.77C106.75,166.26,110.24,166.53,113.77,166.72"/>
				<path class="F_st9" d="M103.31,165.93v49.77c-3.47-0.34-6.89-0.75-10.26-1.22V164.7C96.42,165.18,99.84,165.59,103.31,165.93"/>
				<path class="F_st9" d="M93.05,164.7v49.77c-3.5-0.5-6.94-1.06-10.32-1.7V163C86.11,163.64,89.55,164.21,93.05,164.7"/>
				<path class="F_st9" d="M82.74,163v49.77c-3.63-0.69-7.19-1.45-10.65-2.3V160.7C75.55,161.55,79.1,162.31,82.74,163"/>
				<path class="F_st9" d="M72.08,160.7v49.77c-3.9-0.95-7.68-1.99-11.35-3.13v-49.77C64.4,158.71,68.18,159.76,72.08,160.7"/>
				<path class="F_st9" d="M60.73,157.58v49.77c-4.69-1.45-9.18-3.05-13.45-4.78v-49.77C51.55,154.53,56.04,156.13,60.73,157.58"/>
				<path class="F_st9" d="M47.29,152.79v49.77C18.43,190.83,0,172.94,0,152.9l0-49.77C0,123.17,18.43,141.06,47.29,152.79"/>
			</g>
		</g>
	</g>
	<g>
		<path class="F_st3" d="M35.48,125.99c1.43,1.13,3.04,1.7,4.82,1.7c1.44,0,2.61-0.36,3.51-1.09c0.9-0.73,1.35-1.73,1.35-3
			c0-2.78-1.96-4.18-5.89-4.18h-1.72v-1.93h1.64c3.48,0,5.23-1.3,5.23-3.91c0-2.42-1.33-3.62-3.99-3.62c-1.47,0-2.86,0.51-4.15,1.52
			v-2.25c1.33-0.8,2.9-1.2,4.71-1.2c1.65,0,3.02,0.45,4.1,1.36c1.08,0.91,1.62,2.11,1.62,3.61c0,2.73-1.4,4.5-4.19,5.31v0.05
			c1.48,0.13,2.67,0.65,3.58,1.56s1.35,2.06,1.35,3.42c0,1.9-0.68,3.42-2.05,4.55c-1.37,1.13-3.12,1.7-5.25,1.7
			c-1.96,0-3.52-0.37-4.69-1.12V125.99z"/>
		<path class="F_st3" d="M63.86,129.25H52.14v-2.01h4.74v-16.41l-4.86,1.47v-2.17l7.11-2.22v19.33h4.73V129.25z"/>
		<path class="F_st3" d="M66.71,113.63c0-1.71,0.45-3.06,1.35-4.05c0.9-1,2.12-1.5,3.64-1.5c1.47,0,2.62,0.46,3.44,1.39
			c0.82,0.93,1.23,2.22,1.23,3.86c0,1.63-0.46,2.96-1.37,3.98c-0.91,1.02-2.11,1.53-3.6,1.53c-1.44,0-2.58-0.48-3.43-1.43
			C67.14,116.45,66.71,115.19,66.71,113.63z M68.59,113.49c0,1.19,0.27,2.13,0.8,2.8s1.26,1,2.18,1c0.93,0,1.66-0.34,2.18-1.03
			s0.78-1.64,0.78-2.86c0-1.2-0.26-2.14-0.77-2.8c-0.52-0.66-1.23-1-2.14-1c-0.92,0-1.66,0.35-2.21,1.06
			C68.86,111.37,68.59,112.32,68.59,113.49z M85.3,108.39l-13.36,21.03h-1.99l13.36-21.03H85.3z M79.12,124.36
			c0-1.7,0.45-3.06,1.35-4.07s2.11-1.53,3.62-1.53c1.46,0,2.61,0.47,3.43,1.41c0.83,0.94,1.24,2.25,1.24,3.92
			c0,1.64-0.46,2.97-1.38,3.97c-0.92,1.01-2.11,1.51-3.58,1.51c-1.41,0-2.54-0.48-3.4-1.43C79.55,127.2,79.12,125.93,79.12,124.36z
			 M80.97,124.24c0,1.17,0.27,2.09,0.81,2.76c0.54,0.67,1.26,1.01,2.16,1.01c0.93,0,1.66-0.35,2.18-1.04s0.78-1.65,0.78-2.86
			s-0.26-2.14-0.77-2.79c-0.51-0.65-1.22-0.97-2.13-0.97c-0.95,0-1.7,0.35-2.24,1.04C81.23,122.09,80.97,123.04,80.97,124.24z"/>
	</g>
</g>
<g>
	<g>
		<g>
			<defs>
				<path id="SVGID_00000047034744617116072390000006895658674792701827_" d="M161.1,164.94l0,49.77
					c-11.19,1.5-21.53,2.18-33.12,2.18l0-49.77C139.57,167.11,149.91,166.44,161.1,164.94z"/>
			</defs>
			<use xlink:href="#SVGID_00000047034744617116072390000006895658674792701827_"  style="overflow:visible;fill:#54B244;"/>
			<clipPath id="SVGID_00000088838812040170718290000001886851555546178983_">
				<use xlink:href="#SVGID_00000047034744617116072390000006895658674792701827_"  style="overflow:visible;"/>
			</clipPath>
			<g style="clip-path:url(#SVGID_00000088838812040170718290000001886851555546178983_);enable-background:new    ;">
				<path class="F_st11" d="M161.1,164.94v49.77c-4.27,0.57-8.42,1.03-12.56,1.37V166.3C152.68,165.96,156.83,165.51,161.1,164.94"/>
				<path class="F_st11" d="M148.54,166.3v49.77c-3.94,0.32-7.88,0.55-11.91,0.68v-49.77C140.66,166.85,144.6,166.63,148.54,166.3"/>
				<path class="F_st11" d="M136.63,166.98v49.77c-2.83,0.09-5.7,0.13-8.65,0.13v-49.77C130.93,167.11,133.81,167.07,136.63,166.98"/>
			</g>
		</g>
		<g>
			<path class="F_st12" d="M127.98,167.11v-63.99l33.12,61.81C149.91,166.44,139.57,167.11,127.98,167.11z"/>
		</g>
	</g>
	<g>
		<path class="F_st3" d="M131.6,194.88h-2.69v5.6h-2.24v-5.6h-9.86v-1.48l9.32-13.78h2.77v13.4h2.69V194.88z M126.67,193.02v-9.19
			c0-0.64,0.02-1.36,0.05-2.17h-0.05c-0.07,0.2-0.34,0.73-0.79,1.6l-6.56,9.75H126.67z"/>
		<path class="F_st3" d="M134.24,199.23c0-0.44,0.16-0.81,0.47-1.12s0.68-0.46,1.09-0.46c0.43,0,0.8,0.15,1.1,0.46
			c0.31,0.31,0.46,0.68,0.46,1.12c0,0.43-0.15,0.8-0.46,1.11c-0.31,0.31-0.68,0.46-1.1,0.46c-0.41,0-0.78-0.15-1.09-0.45
			S134.24,199.68,134.24,199.23z"/>
		<path class="F_st3" d="M153.26,200.48h-11.72v-2.01h4.74v-16.41l-4.86,1.47v-2.17l7.11-2.22v19.33h4.73V200.48z"/>
		<path class="F_st3" d="M156.12,184.85c0-1.71,0.45-3.06,1.35-4.05c0.9-1,2.12-1.5,3.64-1.5c1.47,0,2.62,0.46,3.44,1.39
			c0.82,0.93,1.23,2.22,1.23,3.86c0,1.63-0.46,2.96-1.37,3.98c-0.91,1.02-2.11,1.53-3.6,1.53c-1.44,0-2.58-0.48-3.43-1.43
			C156.54,187.68,156.12,186.42,156.12,184.85z M157.99,184.72c0,1.19,0.27,2.13,0.8,2.8c0.53,0.67,1.26,1,2.18,1
			c0.93,0,1.66-0.34,2.18-1.03s0.78-1.64,0.78-2.86c0-1.2-0.26-2.14-0.77-2.8c-0.52-0.66-1.23-1-2.13-1c-0.92,0-1.66,0.35-2.21,1.06
			S157.99,183.54,157.99,184.72z M174.71,179.61l-13.36,21.03h-1.99l13.36-21.03H174.71z M168.53,195.59c0-1.7,0.45-3.06,1.35-4.07
			c0.9-1.02,2.11-1.53,3.62-1.53c1.46,0,2.61,0.47,3.43,1.41c0.83,0.94,1.24,2.25,1.24,3.92c0,1.64-0.46,2.97-1.38,3.97
			s-2.11,1.51-3.58,1.51c-1.41,0-2.54-0.48-3.4-1.43C168.95,198.42,168.53,197.16,168.53,195.59z M170.37,195.47
			c0,1.17,0.27,2.09,0.81,2.76s1.26,1.01,2.16,1.01c0.93,0,1.66-0.35,2.18-1.04s0.78-1.65,0.78-2.86s-0.26-2.14-0.77-2.79
			c-0.51-0.65-1.22-0.97-2.13-0.97c-0.95,0-1.7,0.35-2.24,1.04S170.37,194.27,170.37,195.47z"/>
	</g>
</g>
</svg>
