<?xml version="1.0" encoding="utf-8"?>
<!-- Generator: Adobe Illustrator 27.0.0, SVG Export Plug-In . SVG Version: 6.00 Build 0)  -->
<svg version="1.1" id="圖層_1" xmlns="http://www.w3.org/2000/svg" xmlns:xlink="http://www.w3.org/1999/xlink" x="0px" y="0px"
	 viewBox="0 0 256 256" style="enable-background:new 0 0 256 256;" xml:space="preserve">
<style type="text/css">
	.E_st0{fill:#2E7EAA;}
	.E_st1{fill:#3387C1;}
	.E_st2{fill:#FFFFFF;}
	.E_st3{enable-background:new    ;}
	.E_st4{clip-path:url(#SVGID_00000001659350031311179290000014681435222047530430_);enable-background:new    ;}
	.E_st5{fill:#1F5B84;}
	.E_st6{fill:#256599;}
</style>
<g>
	<g>
		<g>
			<polygon class="E_st0" points="127.99,106.15 127.99,155.7 52.75,104.16 52.75,54.61 			"/>
		</g>
		<g>
			<path class="E_st1" d="M127.99,42.44v63.71L52.75,54.61C75.16,46.5,100.28,42.44,127.99,42.44z"/>
		</g>
	</g>
	<g>
		<path class="E_st2" d="M75.93,62.28c0.92,0.51,1.88,0.77,2.88,0.77c1.48,0,2.64-0.61,3.48-1.82c0.84-1.21,1.25-2.93,1.25-5.17
			c-0.01,0.01-0.03,0.01-0.04,0c-0.7,1.42-1.92,2.13-3.67,2.13c-1.4,0-2.55-0.48-3.45-1.44c-0.89-0.96-1.34-2.17-1.34-3.64
			c0-1.55,0.48-2.85,1.43-3.88c0.95-1.04,2.21-1.55,3.78-1.55c1.64,0,2.89,0.64,3.76,1.92c0.87,1.28,1.31,3.12,1.31,5.53
			c0,2.96-0.57,5.28-1.71,6.93s-2.77,2.49-4.87,2.49c-1.09,0-2.02-0.18-2.8-0.55V62.28z M76.85,52.85c0,1.14,0.3,2.05,0.9,2.73
			s1.42,1.03,2.47,1.03c0.93,0,1.69-0.31,2.3-0.92c0.61-0.61,0.91-1.36,0.91-2.23c0-1.22-0.3-2.23-0.91-3.05
			c-0.61-0.82-1.42-1.23-2.43-1.23c-0.95,0-1.72,0.36-2.33,1.07C77.15,50.96,76.85,51.83,76.85,52.85z"/>
		<path class="E_st2" d="M87.73,63.29c0-0.34,0.12-0.64,0.37-0.88c0.25-0.24,0.53-0.36,0.85-0.36c0.34,0,0.63,0.12,0.86,0.36
			c0.24,0.24,0.36,0.54,0.36,0.88c0,0.34-0.12,0.63-0.36,0.87c-0.24,0.24-0.53,0.36-0.86,0.36c-0.32,0-0.61-0.12-0.85-0.35
			C87.86,63.94,87.73,63.64,87.73,63.29z"/>
		<path class="E_st2" d="M96.14,55.67c-1.97-0.93-2.95-2.25-2.95-3.98c0-1.19,0.46-2.16,1.37-2.9s2.04-1.11,3.39-1.11
			c1.21,0,2.23,0.35,3.07,1.04c0.84,0.69,1.25,1.6,1.25,2.72c0,1.81-1.01,3.22-3.03,4.24v0.04c2.38,0.9,3.57,2.37,3.57,4.43
			c0,1.39-0.5,2.47-1.49,3.25c-0.99,0.77-2.31,1.16-3.97,1.16c-1.36,0-2.49-0.39-3.4-1.17c-0.91-0.78-1.36-1.81-1.36-3.07
			c0-2.09,1.18-3.62,3.55-4.58V55.67z M97.57,56.57c-2.11,0.84-3.17,2.06-3.17,3.65c0,0.88,0.32,1.57,0.95,2.07s1.44,0.75,2.41,0.75
			c0.94,0,1.72-0.25,2.33-0.75s0.92-1.17,0.92-2C101.01,58.63,99.86,57.39,97.57,56.57z M100.45,51.67c0-0.77-0.24-1.38-0.73-1.82
			c-0.49-0.44-1.14-0.66-1.94-0.66c-0.74,0-1.39,0.23-1.94,0.69c-0.55,0.46-0.82,1.04-0.82,1.74c0,1.45,0.9,2.54,2.69,3.28
			C99.53,54.13,100.45,53.05,100.45,51.67z"/>
		<path class="E_st2" d="M104.84,52.05c0-1.33,0.35-2.39,1.06-3.17c0.71-0.78,1.66-1.17,2.85-1.17c1.15,0,2.05,0.36,2.69,1.09
			s0.96,1.73,0.96,3.02c0,1.28-0.36,2.32-1.07,3.11c-0.71,0.8-1.65,1.2-2.82,1.2c-1.12,0-2.02-0.37-2.68-1.12
			S104.84,53.27,104.84,52.05z M106.31,51.94c0,0.93,0.21,1.66,0.63,2.19c0.42,0.52,0.99,0.78,1.7,0.78c0.73,0,1.3-0.27,1.71-0.81
			c0.41-0.54,0.61-1.28,0.61-2.24c0-0.94-0.2-1.67-0.61-2.19s-0.96-0.78-1.67-0.78c-0.72,0-1.3,0.28-1.73,0.83
			S106.31,51.02,106.31,51.94z M119.38,47.95L108.93,64.4h-1.56l10.45-16.45H119.38z M114.55,60.45c0-1.33,0.35-2.39,1.05-3.19
			s1.65-1.2,2.83-1.2c1.14,0,2.04,0.37,2.69,1.11c0.65,0.74,0.97,1.76,0.97,3.07c0,1.29-0.36,2.32-1.08,3.11
			c-0.72,0.79-1.65,1.18-2.8,1.18c-1.1,0-1.99-0.37-2.66-1.12C114.88,62.66,114.55,61.68,114.55,60.45z M115.99,60.35
			c0,0.91,0.21,1.63,0.64,2.16s0.99,0.79,1.69,0.79c0.73,0,1.3-0.27,1.71-0.82s0.61-1.29,0.61-2.24s-0.2-1.68-0.6-2.18
			c-0.4-0.51-0.96-0.76-1.66-0.76c-0.74,0-1.33,0.27-1.75,0.82C116.2,58.67,115.99,59.41,115.99,60.35z"/>
	</g>
</g>
<g>
	<g>
		<g class="E_st3">
			<defs>
				<path id="SVGID_E_" class="E_st3" d="M256.04,106.15v49.55c0,35.18-57.32,63.7-128.04,63.7c-70.71,0-128.03-28.52-128.03-63.7
					l0-49.55c0,35.18,57.32,63.7,128.03,63.7C198.71,169.86,256.04,141.33,256.04,106.15z"/>
			</defs>
			<use xlink:href="#SVGID_E_"  style="overflow:visible;fill:#1F5B84;"/>
			<clipPath id="SVGID_00000176750113802642363230000011247124241784514210_">
				<use xlink:href="#SVGID_E_"  style="overflow:visible;"/>
			</clipPath>
			<g style="clip-path:url(#SVGID_00000176750113802642363230000011247124241784514210_);enable-background:new    ;">
				<path class="E_st5" d="M256.04,106.15v49.55c0,0.25,0,0.5-0.01,0.75V106.9C256.03,106.65,256.04,106.4,256.04,106.15"/>
				<path class="E_st5" d="M256.03,106.9v49.55c-0.04,1.85-0.24,3.68-0.6,5.49v-49.55C255.78,110.58,255.98,108.75,256.03,106.9"/>
				<path class="E_st5" d="M255.43,112.39v49.55c-0.34,1.76-0.83,3.51-1.46,5.23v-49.55C254.59,115.9,255.08,114.16,255.43,112.39"/>
				<path class="E_st5" d="M253.97,117.62v49.55c-0.63,1.73-1.4,3.43-2.31,5.11v-49.55C252.56,121.05,253.33,119.35,253.97,117.62"/>
				<path class="E_st5" d="M251.66,122.73v49.55c-0.94,1.74-2.02,3.45-3.24,5.12v-49.55C249.63,126.18,250.72,124.47,251.66,122.73"/>
				<path class="E_st5" d="M248.41,127.85v49.55c-1.31,1.8-2.78,3.56-4.39,5.27v-49.55C245.64,131.41,247.11,129.65,248.41,127.85"/>
				<path class="E_st5" d="M244.02,133.13v49.55c-1.81,1.92-3.81,3.79-5.98,5.6v-49.55C240.22,136.92,242.21,135.05,244.02,133.13"/>
				<path class="E_st5" d="M238.05,138.73v49.55c-2.68,2.24-5.63,4.39-8.83,6.44v-49.55C232.41,143.12,235.36,140.97,238.05,138.73"/>
				<path class="E_st5" d="M229.22,145.17v49.55c-5.23,3.36-11.13,6.45-17.58,9.22v-49.55C218.09,151.61,223.98,148.52,229.22,145.17"
					/>
				<path class="E_st5" d="M211.64,154.39v49.55c-7.39,3.18-15.53,5.94-24.25,8.22V162.6C196.11,160.33,204.24,157.56,211.64,154.39"
					/>
				<path class="E_st5" d="M187.38,162.6v49.55c-7.35,1.92-15.13,3.49-23.24,4.68v-49.55C172.25,166.1,180.03,164.52,187.38,162.6"/>
				<path class="E_st5" d="M164.14,167.28v49.55c-4.94,0.72-10,1.3-15.17,1.72v-49.55C154.14,168.58,159.2,168,164.14,167.28"/>
				<path class="E_st5" d="M148.97,169.01v49.55c-4.14,0.34-8.34,0.58-12.6,0.72v-49.55C140.63,169.59,144.83,169.34,148.97,169.01"/>
				<path class="E_st5" d="M136.37,169.72v49.55c-2.77,0.09-5.56,0.13-8.37,0.13c-1.1,0-2.2-0.01-3.29-0.02v-49.55
					c1.09,0.01,2.19,0.02,3.29,0.02C130.81,169.86,133.6,169.81,136.37,169.72"/>
				<path class="E_st5" d="M124.7,169.84v49.55c-3.68-0.05-7.33-0.17-10.92-0.37v-49.55C117.38,169.67,121.02,169.79,124.7,169.84"/>
				<path class="E_st5" d="M113.78,169.47v49.55c-3.53-0.19-7.02-0.46-10.46-0.79v-49.55C106.76,169.01,110.25,169.27,113.78,169.47"
					/>
				<path class="E_st5" d="M103.32,168.67v49.55c-3.47-0.34-6.9-0.74-10.26-1.22v-49.55C96.42,167.93,99.84,168.34,103.32,168.67"/>
				<path class="E_st5" d="M93.05,167.45v49.55c-3.5-0.49-6.95-1.06-10.32-1.69v-49.55C86.11,166.4,89.55,166.96,93.05,167.45"/>
				<path class="E_st5" d="M82.73,165.76v49.55c-3.63-0.68-7.19-1.45-10.66-2.29v-49.55C75.54,164.31,79.1,165.08,82.73,165.76"/>
				<path class="E_st5" d="M72.07,163.47v49.55c-3.9-0.94-7.69-1.98-11.35-3.11v-49.55C64.39,161.49,68.18,162.53,72.07,163.47"/>
				<path class="E_st5" d="M60.72,160.36v49.55c-4.69-1.45-9.19-3.04-13.45-4.76V155.6C51.53,157.32,56.03,158.92,60.72,160.36"/>
				<path class="E_st5" d="M47.27,155.6v49.55C18.41,193.47-0.04,175.66-0.04,155.7v-49.55C-0.04,126.11,18.41,143.92,47.27,155.6"/>
			</g>
		</g>
		<g>
			<path class="E_st6" d="M127.99,42.44c70.72,0,128.04,28.52,128.04,63.71c0,35.18-57.32,63.7-128.04,63.7
				c-70.71,0-128.03-28.52-128.03-63.7c0-21.4,18-38.97,52.78-51.54l75.25,51.54V42.44z"/>
		</g>
	</g>
	<g>
		<path class="E_st2" d="M147.69,117.98c1.29,0.72,2.64,1.08,4.05,1.08c2.09,0,3.72-0.85,4.89-2.56c1.18-1.7,1.76-4.13,1.76-7.27
			c-0.02,0.02-0.04,0.02-0.06,0c-0.99,2-2.71,2.99-5.16,2.99c-1.98,0-3.59-0.68-4.85-2.03s-1.88-3.06-1.88-5.11
			c0-2.18,0.67-4,2.01-5.46c1.34-1.46,3.11-2.19,5.31-2.19c2.3,0,4.07,0.9,5.29,2.71c1.23,1.8,1.84,4.4,1.84,7.78
			c0,4.17-0.8,7.42-2.41,9.75s-3.89,3.5-6.86,3.5c-1.53,0-2.85-0.26-3.94-0.77V117.98z M148.98,104.71c0,1.6,0.42,2.88,1.26,3.85
			c0.84,0.96,2,1.45,3.47,1.45c1.3,0,2.38-0.43,3.24-1.3s1.28-1.91,1.28-3.14c0-1.71-0.43-3.14-1.28-4.29
			c-0.85-1.15-1.99-1.73-3.42-1.73c-1.33,0-2.43,0.5-3.28,1.5S148.98,103.27,148.98,104.71z"/>
		<path class="E_st2" d="M163.9,109.76c0-4.05,0.66-7.12,1.98-9.21s3.22-3.13,5.71-3.13c4.77,0,7.16,3.92,7.16,11.77
			c0,3.81-0.65,6.76-1.96,8.84c-1.31,2.08-3.21,3.12-5.71,3.12c-2.33,0-4.11-1-5.34-2.99C164.52,116.17,163.9,113.37,163.9,109.76z
			 M166.42,109.63c0,6.29,1.64,9.43,4.92,9.43c3.25,0,4.88-3.19,4.88-9.56c0-6.63-1.59-9.95-4.76-9.95
			C168.1,99.55,166.42,102.91,166.42,109.63z"/>
		<path class="E_st2" d="M181.89,119.4c0-0.48,0.17-0.9,0.52-1.24s0.75-0.51,1.2-0.51c0.47,0,0.88,0.17,1.22,0.51
			c0.34,0.34,0.5,0.75,0.5,1.24c0,0.47-0.17,0.88-0.51,1.22c-0.34,0.34-0.74,0.51-1.21,0.51c-0.45,0-0.85-0.17-1.2-0.5
			C182.06,120.31,181.89,119.89,181.89,119.4z"/>
		<path class="E_st2" d="M202.37,120.78h-13.74v-2.24l6.69-6.73c2.21-2.23,3.58-3.85,4.08-4.85c0.51-1,0.76-2.07,0.76-3.19
			c0-1.35-0.38-2.4-1.15-3.13s-1.87-1.1-3.3-1.1c-2.05,0-4.01,0.88-5.9,2.65v-2.64c1.77-1.41,3.84-2.12,6.23-2.12
			c1.98,0,3.56,0.55,4.75,1.65c1.19,1.1,1.79,2.58,1.79,4.46c0,1.44-0.39,2.86-1.18,4.26c-0.79,1.4-2.27,3.19-4.45,5.37l-5.35,5.29
			v0.06h10.78V120.78z"/>
		<path class="E_st2" d="M205.96,103.58c0-1.88,0.5-3.37,1.49-4.46c0.99-1.1,2.33-1.65,4.01-1.65c1.62,0,2.88,0.51,3.79,1.53
			c0.9,1.02,1.36,2.44,1.36,4.25c0,1.8-0.5,3.26-1.5,4.38c-1,1.12-2.32,1.68-3.97,1.68c-1.58,0-2.84-0.53-3.77-1.58
			C206.43,106.69,205.96,105.3,205.96,103.58z M208.02,103.43c0,1.31,0.29,2.34,0.88,3.08s1.39,1.1,2.39,1.1
			c1.03,0,1.83-0.38,2.4-1.13c0.57-0.76,0.86-1.81,0.86-3.15c0-1.32-0.28-2.35-0.85-3.08c-0.57-0.73-1.35-1.1-2.35-1.1
			c-1.02,0-1.83,0.39-2.43,1.17C208.32,101.1,208.02,102.14,208.02,103.43z M226.42,97.81l-14.71,23.14h-2.19l14.71-23.14H226.42z
			 M219.61,115.4c0-1.87,0.49-3.36,1.48-4.48c0.99-1.12,2.32-1.68,3.99-1.68c1.61,0,2.87,0.52,3.78,1.56s1.36,2.48,1.36,4.31
			c0,1.81-0.51,3.27-1.52,4.37c-1.01,1.11-2.32,1.66-3.94,1.66c-1.55,0-2.8-0.52-3.74-1.57
			C220.08,118.51,219.61,117.13,219.61,115.4z M221.64,115.26c0,1.28,0.3,2.3,0.9,3.04c0.6,0.74,1.39,1.11,2.38,1.11
			c1.03,0,1.83-0.38,2.4-1.15c0.57-0.77,0.86-1.82,0.86-3.15s-0.28-2.36-0.84-3.07c-0.56-0.71-1.34-1.07-2.34-1.07
			c-1.05,0-1.87,0.38-2.46,1.15C221.94,112.89,221.64,113.94,221.64,115.26z"/>
	</g>
</g>
</svg>
