<?xml version="1.0" encoding="utf-8"?>
<!-- Generator: Adobe Illustrator 27.0.0, SVG Export Plug-In . SVG Version: 6.00 Build 0)  -->
<svg version="1.1" id="圖層_1" xmlns="http://www.w3.org/2000/svg" xmlns:xlink="http://www.w3.org/1999/xlink" x="0px" y="0px" viewBox="0 0 256 256" style="enable-background:new 0 0 256 256;" xml:space="preserve">
<style type="text/css">
	.H_st0{clip-path:url(#SVGID_00000032616298456491769240000013312623827494478766_);enable-background:new    ;}
	.H_st1{fill:#25628C;}
	.H_st2{fill:#256599;}
	.H_st3{fill:#FFFFFF;}
	.H_st4{fill:#C4BE49;}
	.H_st5{fill:#D8D84A;}
	.H_st6{clip-path:url(#SVGID_00000074424764426434223490000015337381935955523498_);enable-background:new    ;}
	.H_st7{fill:#2E7EAA;}
	.H_st8{fill:#3387C1;}
</style>
<g>
	<g>
		<g>
			<defs>
				<path id="SVGID_H_" d="M255.58,106.75l0,49.61c0,21.13-18.39,39.18-52.59,51.6v-49.61
					C237.19,145.93,255.58,127.88,255.58,106.75z"/>
			</defs>
			<use xlink:href="#SVGID_H_"  style="overflow:visible;fill:#25628C;"/>
			<clipPath id="SVGID_00000177480737518977427540000000582092270292348076_">
				<use xlink:href="#SVGID_H_"  style="overflow:visible;"/>
			</clipPath>
			<g style="clip-path:url(#SVGID_00000177480737518977427540000000582092270292348076_);enable-background:new    ;">
				<path class="H_st1" d="M255.58,106.75v49.61c0,0.28,0,0.56-0.01,0.84v-49.61C255.58,107.31,255.58,107.03,255.58,106.75"/>
				<path class="H_st1" d="M255.57,107.58v49.61c-0.05,2.01-0.26,4-0.64,5.95v-49.61C255.31,111.58,255.52,109.6,255.57,107.58"/>
				<path class="H_st1" d="M254.93,113.54v49.61c-0.36,1.83-0.86,3.64-1.5,5.41v-49.61C254.07,117.17,254.57,115.37,254.93,113.54"/>
				<path class="H_st1" d="M253.42,118.95v49.61c-0.63,1.72-1.39,3.42-2.28,5.09v-49.61C252.04,122.37,252.8,120.67,253.42,118.95"/>
				<path class="H_st1" d="M251.14,124.04v49.61c-0.9,1.68-1.94,3.33-3.12,4.96v-49.61C249.2,127.37,250.24,125.72,251.14,124.04"/>
				<path class="H_st1" d="M248.02,128.99v49.61c-1.23,1.7-2.61,3.36-4.13,4.99v-49.61C245.42,132.36,246.79,130.69,248.02,128.99"/>
				<path class="H_st1" d="M243.9,133.99v49.61c-1.69,1.81-3.56,3.57-5.6,5.28v-49.61C240.34,137.55,242.21,135.79,243.9,133.99"/>
				<path class="H_st1" d="M238.3,139.27v49.61c-2.49,2.09-5.25,4.12-8.26,6.06v-49.61C233.05,143.39,235.8,141.36,238.3,139.27"/>
				<path class="H_st1" d="M230.03,145.33v49.61c-5.17,3.34-11.09,6.46-17.74,9.33v-49.61C218.95,151.79,224.87,148.67,230.03,145.33"
					/>
				<path class="H_st1" d="M212.29,154.66v49.61c-2.96,1.28-6.06,2.51-9.3,3.68v-49.61C206.23,157.17,209.34,155.94,212.29,154.66"/>
			</g>
		</g>
		<g>
			<path class="H_st2" d="M128,42.96c70.46,0,127.58,28.56,127.58,63.79c0,21.13-18.39,39.18-52.59,51.6L128,106.75V42.96z"/>
		</g>
		<g>
			<polygon class="H_st1" points="202.99,158.35 202.99,207.96 128,156.36 128,106.75 			"/>
		</g>
	</g>
	<g>
		<path class="H_st3" d="M208.94,103.74h-2.69v5.59h-2.23v-5.59h-9.83v-1.48l9.29-13.74h2.77v13.36h2.69V103.74z M204.03,101.88v-9.16
			c0-0.64,0.02-1.36,0.05-2.16h-0.05c-0.07,0.2-0.34,0.73-0.79,1.6l-6.54,9.72H204.03z"/>
		<path class="H_st3" d="M211.23,99.34c0-3.67,0.6-6.45,1.79-8.34c1.19-1.89,2.92-2.83,5.18-2.83c4.32,0,6.49,3.55,6.49,10.66
			c0,3.46-0.59,6.12-1.78,8.01c-1.19,1.88-2.91,2.83-5.18,2.83c-2.11,0-3.72-0.9-4.83-2.71
			C211.78,105.15,211.23,102.61,211.23,99.34z M213.51,99.22c0,5.69,1.49,8.54,4.46,8.54c2.94,0,4.42-2.89,4.42-8.66
			c0-6.01-1.44-9.01-4.31-9.01C215.03,90.09,213.51,93.14,213.51,99.22z"/>
		<path class="H_st3" d="M227.04,93.75c0-1.7,0.45-3.05,1.35-4.04c0.9-0.99,2.11-1.49,3.63-1.49c1.47,0,2.61,0.46,3.43,1.39
			s1.23,2.21,1.23,3.85c0,1.63-0.45,2.95-1.36,3.97c-0.91,1.02-2.11,1.52-3.59,1.52c-1.43,0-2.57-0.48-3.42-1.43
			S227.04,95.3,227.04,93.75z M228.91,93.61c0,1.19,0.27,2.12,0.8,2.79s1.26,1,2.17,1c0.93,0,1.66-0.34,2.18-1.03
			c0.52-0.68,0.78-1.64,0.78-2.85c0-1.2-0.26-2.13-0.77-2.79s-1.22-0.99-2.13-0.99c-0.92,0-1.66,0.35-2.2,1.06
			C229.18,91.5,228.91,92.44,228.91,93.61z M245.57,88.52l-13.32,20.96h-1.99l13.32-20.96H245.57z M239.41,104.45
			c0-1.69,0.45-3.05,1.34-4.06c0.9-1.02,2.1-1.52,3.61-1.52c1.46,0,2.6,0.47,3.42,1.41s1.24,2.24,1.24,3.91
			c0,1.64-0.46,2.96-1.38,3.96c-0.92,1-2.11,1.5-3.56,1.5c-1.41,0-2.54-0.47-3.39-1.42S239.41,106.01,239.41,104.45z M241.25,104.33
			c0,1.16,0.27,2.08,0.81,2.75c0.54,0.67,1.26,1.01,2.15,1.01c0.93,0,1.66-0.35,2.18-1.04c0.52-0.69,0.78-1.64,0.78-2.85
			s-0.26-2.13-0.77-2.78c-0.51-0.64-1.22-0.97-2.12-0.97c-0.95,0-1.69,0.35-2.23,1.04C241.52,102.18,241.25,103.13,241.25,104.33z"
			/>
	</g>
</g>
<g>
	<g>
		<g>
			<polygon class="H_st4" points="128,106.75 128,156.36 53.02,104.75 53.02,55.14 			"/>
		</g>
		<g>
			<path class="H_st5" d="M128,42.96v63.79L53.02,55.14C75.81,46.86,99.82,42.96,128,42.96z"/>
		</g>
	</g>
	<g>
		<path class="H_st3" d="M86.21,67.93H74.52v-2h4.73V49.58l-4.85,1.46v-2.16l7.09-2.22v19.27h4.71V67.93z"/>
		<path class="H_st3" d="M89.17,57.95c0-3.67,0.6-6.45,1.79-8.34c1.19-1.89,2.92-2.83,5.18-2.83c4.32,0,6.49,3.55,6.49,10.66
			c0,3.46-0.59,6.12-1.78,8.01c-1.19,1.88-2.91,2.83-5.18,2.83c-2.11,0-3.72-0.9-4.83-2.71C89.73,63.76,89.17,61.22,89.17,57.95z
			 M91.46,57.83c0,5.69,1.49,8.54,4.46,8.54c2.94,0,4.42-2.89,4.42-8.66c0-6.01-1.44-9.01-4.31-9.01
			C92.98,48.7,91.46,51.75,91.46,57.83z"/>
		<path class="H_st3" d="M104.99,52.36c0-1.7,0.45-3.05,1.35-4.04c0.9-0.99,2.11-1.49,3.63-1.49c1.47,0,2.61,0.46,3.43,1.39
			c0.82,0.93,1.23,2.21,1.23,3.85c0,1.63-0.45,2.95-1.36,3.97c-0.91,1.02-2.11,1.52-3.59,1.52c-1.43,0-2.57-0.48-3.42-1.43
			C105.41,55.17,104.99,53.91,104.99,52.36z M106.86,52.22c0,1.19,0.27,2.12,0.8,2.79c0.53,0.67,1.26,1,2.17,1
			c0.93,0,1.66-0.34,2.18-1.03c0.52-0.68,0.78-1.64,0.78-2.85c0-1.2-0.26-2.13-0.77-2.79s-1.22-0.99-2.13-0.99
			c-0.92,0-1.66,0.35-2.2,1.06S106.86,51.05,106.86,52.22z M123.52,47.13L110.2,68.09h-1.99l13.32-20.96H123.52z M117.36,63.06
			c0-1.69,0.45-3.05,1.34-4.06c0.9-1.02,2.1-1.52,3.61-1.52c1.46,0,2.6,0.47,3.42,1.41c0.82,0.94,1.24,2.24,1.24,3.91
			c0,1.64-0.46,2.96-1.38,3.96c-0.92,1-2.11,1.5-3.56,1.5c-1.41,0-2.54-0.47-3.39-1.42C117.78,65.88,117.36,64.62,117.36,63.06z
			 M119.2,62.94c0,1.16,0.27,2.08,0.81,2.75s1.26,1.01,2.15,1.01c0.93,0,1.66-0.35,2.18-1.04c0.52-0.69,0.78-1.64,0.78-2.85
			c0-1.21-0.26-2.13-0.77-2.78s-1.22-0.97-2.12-0.97c-0.95,0-1.69,0.35-2.23,1.04S119.2,61.74,119.2,62.94z"/>
	</g>
</g>
<g>
	<g>
		<g>
			<defs>
				<path id="SVGID_00000065040671137323402920000017210138728420672695_" d="M0.42,156.41l0-49.61c0,13,7.92,26.12,24.37,37.44
					c24.97,17.18,63.86,26.3,103.31,26.3c26,0,52.24-3.96,74.88-12.19v49.61c-22.64,8.22-48.89,12.19-74.88,12.19
					c-39.45,0-78.35-9.12-103.31-26.3C8.34,182.53,0.42,169.41,0.42,156.41z"/>
			</defs>
			<use xlink:href="#SVGID_00000065040671137323402920000017210138728420672695_"  style="overflow:visible;fill:#2E7EAA;"/>
			<clipPath id="SVGID_00000078036775845252016850000016630281547096495274_">
				<use xlink:href="#SVGID_00000065040671137323402920000017210138728420672695_"  style="overflow:visible;"/>
			</clipPath>
			<g style="clip-path:url(#SVGID_00000078036775845252016850000016630281547096495274_);enable-background:new    ;">
				<path class="H_st7" d="M202.99,158.35v49.61c-5.13,1.87-10.45,3.51-15.91,4.94v-49.61C192.53,161.86,197.85,160.21,202.99,158.35"
					/>
				<path class="H_st7" d="M187.07,163.29v49.61c-7.56,1.98-15.38,3.55-23.36,4.71V168C171.69,166.83,179.52,165.27,187.07,163.29"/>
				<path class="H_st7" d="M163.72,168v49.61c-4.91,0.72-9.87,1.28-14.87,1.69v-49.61C153.84,169.27,158.81,168.71,163.72,168"/>
				<path class="H_st7" d="M148.85,169.69v49.61c-4.18,0.34-8.38,0.58-12.58,0.72V170.4C140.47,170.27,144.67,170.03,148.85,169.69"/>
				<path class="H_st7" d="M136.27,170.4v49.61c-2.72,0.09-5.44,0.13-8.16,0.13c-1.09,0-2.17-0.01-3.26-0.02v-49.61
					c1.09,0.01,2.17,0.02,3.26,0.02C130.83,170.53,133.55,170.49,136.27,170.4"/>
				<path class="H_st7" d="M124.85,170.51v49.61c-3.62-0.05-7.24-0.17-10.83-0.37v-49.61C117.61,170.34,121.23,170.47,124.85,170.51"
					/>
				<path class="H_st7" d="M114.02,170.15v49.61c-3.51-0.19-7.01-0.46-10.48-0.8v-49.61C107,169.68,110.5,169.95,114.02,170.15"/>
				<path class="H_st7" d="M103.53,169.35v49.61c-3.47-0.34-6.91-0.75-10.32-1.23v-49.61C96.62,168.6,100.06,169.01,103.53,169.35"/>
				<path class="H_st7" d="M93.22,168.12v49.61c-3.5-0.49-6.96-1.06-10.37-1.71v-49.61C86.25,167.05,89.72,167.62,93.22,168.12"/>
				<path class="H_st7" d="M82.84,166.41v49.61c-3.62-0.68-7.18-1.45-10.67-2.3v-49.61C75.67,164.96,79.23,165.72,82.84,166.41"/>
				<path class="H_st7" d="M72.17,164.11v49.61c-3.87-0.94-7.66-1.98-11.35-3.12v-49.61C64.51,162.13,68.3,163.17,72.17,164.11"/>
				<path class="H_st7" d="M60.82,160.99v49.61c-4.55-1.41-8.94-2.96-13.15-4.67v-49.61C51.88,158.02,56.27,159.58,60.82,160.99"/>
				<path class="H_st7" d="M47.67,156.32v49.61c-8.46-3.43-16.17-7.47-22.88-12.08C8.34,182.53,0.42,169.41,0.42,156.41V106.8
					c0,13,7.92,26.12,24.37,37.44C31.5,148.85,39.21,152.88,47.67,156.32"/>
			</g>
		</g>
		<g>
			<path class="H_st8" d="M53.02,55.14L128,106.75l74.99,51.6c-22.64,8.22-48.89,12.19-74.88,12.19c-39.45,0-78.35-9.12-103.31-26.3
				C-16.62,115.74-3.98,75.85,53.02,55.14z"/>
		</g>
	</g>
	<g>
		<path class="H_st3" d="M62.09,145.76c1.41,0.92,2.86,1.38,4.32,1.38s2.66-0.42,3.58-1.27c0.92-0.85,1.38-1.97,1.38-3.36
			c0-1.41-0.46-2.49-1.38-3.26c-0.92-0.77-2.25-1.15-3.99-1.15c-0.55,0-1.63,0.05-3.26,0.16V127.9h9.96v2.04h-7.83v6.23
			c0.78-0.04,1.37-0.07,1.77-0.07c2.18,0,3.9,0.55,5.14,1.64s1.86,2.64,1.86,4.63c0,2.07-0.67,3.7-2.01,4.89
			c-1.34,1.19-3.11,1.79-5.29,1.79c-1.92,0-3.33-0.29-4.26-0.86V145.76z"/>
		<path class="H_st3" d="M76.92,138.73c0-3.67,0.6-6.45,1.79-8.34c1.19-1.89,2.92-2.83,5.18-2.83c4.32,0,6.49,3.55,6.49,10.66
			c0,3.46-0.59,6.12-1.78,8.01s-2.91,2.83-5.18,2.83c-2.11,0-3.72-0.9-4.83-2.71C77.47,144.53,76.92,141.99,76.92,138.73z
			 M79.2,138.61c0,5.69,1.49,8.54,4.46,8.54c2.94,0,4.42-2.89,4.42-8.66c0-6.01-1.44-9.01-4.31-9.01
			C80.72,129.48,79.2,132.52,79.2,138.61z"/>
		<path class="H_st3" d="M92.73,133.13c0-1.7,0.45-3.05,1.35-4.04s2.11-1.49,3.63-1.49c1.47,0,2.61,0.46,3.43,1.39
			c0.82,0.93,1.23,2.21,1.23,3.85c0,1.63-0.45,2.95-1.36,3.97c-0.91,1.02-2.11,1.52-3.59,1.52c-1.43,0-2.57-0.48-3.42-1.43
			C93.16,135.94,92.73,134.68,92.73,133.13z M94.6,132.99c0,1.19,0.27,2.12,0.8,2.79s1.26,1,2.17,1c0.93,0,1.66-0.34,2.18-1.03
			s0.78-1.64,0.78-2.85c0-1.2-0.26-2.13-0.77-2.79c-0.51-0.66-1.22-0.99-2.13-0.99c-0.92,0-1.66,0.35-2.2,1.06
			C94.87,130.88,94.6,131.82,94.6,132.99z M111.26,127.9l-13.32,20.96h-1.99l13.32-20.96H111.26z M105.1,143.83
			c0-1.69,0.45-3.05,1.34-4.06c0.9-1.02,2.1-1.52,3.61-1.52c1.46,0,2.6,0.47,3.42,1.41c0.82,0.94,1.24,2.24,1.24,3.91
			c0,1.64-0.46,2.96-1.38,3.96c-0.92,1-2.11,1.5-3.56,1.5c-1.41,0-2.54-0.47-3.39-1.42C105.53,146.65,105.1,145.39,105.1,143.83z
			 M106.94,143.71c0,1.16,0.27,2.08,0.81,2.75c0.54,0.67,1.26,1.01,2.15,1.01c0.93,0,1.66-0.35,2.18-1.04
			c0.52-0.69,0.78-1.64,0.78-2.85s-0.26-2.13-0.77-2.78s-1.22-0.97-2.12-0.97c-0.95,0-1.69,0.35-2.23,1.04
			S106.94,142.51,106.94,143.71z"/>
	</g>
</g>
</svg>
