<?xml version="1.0" encoding="utf-8"?>
<!-- Generator: Adobe Illustrator 27.0.0, SVG Export Plug-In . SVG Version: 6.00 Build 0)  -->
<svg version="1.1" id="圖層_1" xmlns="http://www.w3.org/2000/svg" xmlns:xlink="http://www.w3.org/1999/xlink" x="0px" y="0px" viewBox="0 0 256 256" style="enable-background:new 0 0 256 256;" xml:space="preserve">
<style type="text/css">
	.B_st0{fill:#798E99;}
	.B_st1{fill:#89A1AF;}
	.B_st2{clip-path:url(#SVGID_00000142861292176683946990000010139695377768093095_);enable-background:new    ;}
	.B_st3{fill:#235D84;}
	.B_st4{fill:#256599;}
	.B_st5{fill:#FFFFFF;}
</style>
<g>
	<g>
		<polygon class="B_st0" points="128,103.03 128,152.97 88.45,92.03 88.45,42.09 		"/>
	</g>
	<g>
		<path class="B_st1" d="M128,38.96v64.07L88.45,42.09C101.9,39.91,113.86,38.96,128,38.96z"/>
	</g>
</g>
<g>
	<g>
		<g>
			<defs>
				<path id="SVGID_1_" d="M256,103.03v49.93c0,35.39-57.31,64.07-128,64.07S0,188.35,0,152.97v-49.93
					c0,35.39,57.31,64.07,128,64.07S256,138.42,256,103.03z"/>
			</defs>
			<use xlink:href="#SVGID_1_"  style="overflow:visible;fill:#235D84;"/>
			<clipPath id="SVGID_00000008831404286924203340000004642481826581667215_">
				<use xlink:href="#SVGID_1_"  style="overflow:visible;"/>
			</clipPath>
			<g style="clip-path:url(#SVGID_00000008831404286924203340000004642481826581667215_);enable-background:new    ;">
				<path class="B_st3" d="M256,103.03v49.93c0,0.25,0,0.5-0.01,0.75v-49.93C256,103.53,256,103.28,256,103.03"/>
				<path class="B_st3" d="M255.99,103.79v49.93c-0.04,1.86-0.24,3.7-0.6,5.53v-49.93C255.75,107.49,255.95,105.65,255.99,103.79"/>
				<path class="B_st3" d="M255.39,109.31v49.93c-0.34,1.78-0.83,3.53-1.46,5.26v-49.93C254.56,112.84,255.05,111.09,255.39,109.31"/>
				<path class="B_st3" d="M253.93,114.57v49.93c-0.63,1.74-1.4,3.45-2.31,5.14v-49.93C252.53,118.02,253.3,116.31,253.93,114.57"/>
				<path class="B_st3" d="M251.62,119.71v49.93c-0.94,1.75-2.02,3.47-3.24,5.15v-49.93C249.6,123.18,250.68,121.46,251.62,119.71"/>
				<path class="B_st3" d="M248.38,124.86v49.93c-1.31,1.81-2.77,3.58-4.39,5.31v-49.93C245.61,128.44,247.07,126.67,248.38,124.86"/>
				<path class="B_st3" d="M243.99,130.17v49.93c-1.81,1.93-3.8,3.81-5.98,5.64V135.8C240.19,133.98,242.18,132.1,243.99,130.17"/>
				<path class="B_st3" d="M238.01,135.8v49.93c-2.68,2.25-5.63,4.41-8.83,6.47v-49.93C232.38,140.22,235.33,138.05,238.01,135.8"/>
				<path class="B_st3" d="M229.19,142.28v49.93c-5.23,3.38-11.12,6.48-17.58,9.27v-49.93C218.06,148.76,223.96,145.65,229.19,142.28"
					/>
				<path class="B_st3" d="M211.61,151.55v49.93c-7.39,3.2-15.52,5.97-24.25,8.26v-49.93C196.09,157.52,204.22,154.74,211.61,151.55"
					/>
				<path class="B_st3" d="M187.36,159.81v49.93c-7.35,1.93-15.12,3.51-23.23,4.7v-49.93C172.24,163.32,180.01,161.74,187.36,159.81"
					/>
				<path class="B_st3" d="M164.14,164.52v49.93c-4.94,0.73-10,1.31-15.17,1.73v-49.93C154.13,165.82,159.2,165.24,164.14,164.52"/>
				<path class="B_st3" d="M148.97,166.25v49.93c-4.14,0.34-8.34,0.58-12.6,0.72v-49.93C140.63,166.83,144.83,166.59,148.97,166.25"/>
				<path class="B_st3" d="M136.37,166.97v49.93c-2.77,0.09-5.56,0.13-8.37,0.13c-1.1,0-2.2-0.01-3.29-0.02v-49.93
					c1.09,0.01,2.19,0.02,3.29,0.02C130.81,167.11,133.6,167.06,136.37,166.97"/>
				<path class="B_st3" d="M124.71,167.08v49.93c-3.68-0.05-7.33-0.17-10.92-0.37v-49.93C117.38,166.91,121.03,167.04,124.71,167.08"
					/>
				<path class="B_st3" d="M113.79,166.71v49.93c-3.53-0.2-7.02-0.46-10.46-0.8v-49.93C106.77,166.25,110.25,166.52,113.79,166.71"/>
				<path class="B_st3" d="M103.33,165.92v49.93c-3.47-0.34-6.89-0.75-10.26-1.23v-49.93C96.43,165.17,99.85,165.58,103.33,165.92"/>
				<path class="B_st3" d="M93.07,164.69v49.93c-3.5-0.5-6.95-1.07-10.32-1.7v-49.93C86.12,163.62,89.56,164.19,93.07,164.69"/>
				<path class="B_st3" d="M82.75,162.99v49.93c-3.63-0.69-7.19-1.46-10.66-2.3v-49.93C75.56,161.53,79.11,162.3,82.75,162.99"/>
				<path class="B_st3" d="M72.09,160.69v49.93c-3.9-0.95-7.69-1.99-11.35-3.13v-49.93C64.4,158.69,68.19,159.74,72.09,160.69"/>
				<path class="B_st3" d="M60.74,157.56v49.93c-4.69-1.45-9.18-3.05-13.45-4.79v-49.93C51.56,154.5,56.05,156.1,60.74,157.56"/>
				<path class="B_st3" d="M47.29,152.77v49.93C18.44,190.95,0,173.04,0,152.97v-49.93C0,123.1,18.44,141.02,47.29,152.77"/>
			</g>
		</g>
		<g>
			<path class="B_st4" d="M128,38.96c70.69,0,128,28.69,128,64.07s-57.31,64.07-128,64.07S0,138.42,0,103.03
				c0-28.31,34.66-52.19,88.45-60.94L128,103.03V38.96z"/>
		</g>
	</g>
	<g>
		<path class="B_st5" d="M115.71,139.1c1.18,0.66,2.41,0.99,3.69,0.99c1.9,0,3.38-0.78,4.45-2.33c1.07-1.55,1.61-3.76,1.61-6.63
			c-0.02,0.02-0.04,0.02-0.05,0c-0.9,1.82-2.47,2.73-4.7,2.73c-1.8,0-3.27-0.62-4.41-1.85s-1.71-2.79-1.71-4.66
			c0-1.99,0.61-3.65,1.83-4.98s2.83-1.99,4.84-1.99c2.1,0,3.7,0.82,4.82,2.47c1.12,1.64,1.67,4.01,1.67,7.09
			c0,3.8-0.73,6.77-2.19,8.89c-1.46,2.13-3.54,3.19-6.24,3.19c-1.39,0-2.59-0.23-3.59-0.7V139.1z M116.88,127
			c0,1.46,0.38,2.63,1.15,3.51c0.76,0.88,1.82,1.32,3.16,1.32c1.19,0,2.17-0.39,2.95-1.18c0.78-0.79,1.17-1.74,1.17-2.86
			c0-1.56-0.39-2.86-1.17-3.91c-0.78-1.05-1.82-1.57-3.11-1.57c-1.21,0-2.21,0.46-2.98,1.37C117.27,124.59,116.88,125.7,116.88,127z
			"/>
		<path class="B_st5" d="M131.6,138.69c1.42,0.93,2.87,1.39,4.35,1.39s2.68-0.43,3.6-1.28c0.93-0.85,1.39-1.98,1.39-3.39
			c0-1.41-0.46-2.51-1.39-3.28s-2.26-1.16-4.01-1.16c-0.55,0-1.64,0.05-3.28,0.16v-10.42h10.02v2.05h-7.87v6.27
			c0.78-0.05,1.38-0.07,1.78-0.07c2.2,0,3.92,0.55,5.16,1.66c1.25,1.1,1.87,2.66,1.87,4.66c0,2.08-0.67,3.72-2.02,4.92
			s-3.12,1.8-5.32,1.8c-1.93,0-3.35-0.29-4.28-0.86V138.69z"/>
		<path class="B_st5" d="M146.38,125.98c0-1.71,0.45-3.07,1.36-4.07c0.9-1,2.12-1.5,3.65-1.5c1.48,0,2.63,0.47,3.45,1.4
			s1.24,2.22,1.24,3.87c0,1.64-0.46,2.97-1.37,3.99c-0.91,1.02-2.12,1.53-3.61,1.53c-1.44,0-2.58-0.48-3.44-1.44
			C146.8,128.81,146.38,127.54,146.38,125.98z M148.26,125.84c0,1.2,0.27,2.13,0.8,2.8c0.54,0.67,1.26,1.01,2.18,1.01
			c0.94,0,1.66-0.34,2.19-1.03c0.52-0.69,0.78-1.65,0.78-2.87c0-1.21-0.26-2.14-0.78-2.81c-0.52-0.67-1.23-1-2.14-1
			c-0.93,0-1.66,0.36-2.21,1.07C148.53,123.72,148.26,124.66,148.26,125.84z M165.01,120.72l-13.39,21.1h-2l13.39-21.1H165.01z
			 M158.81,136.75c0-1.7,0.45-3.07,1.35-4.09s2.11-1.53,3.63-1.53c1.47,0,2.61,0.47,3.44,1.42s1.24,2.26,1.24,3.93
			c0,1.65-0.46,2.98-1.38,3.99c-0.92,1.01-2.12,1.51-3.58,1.51c-1.41,0-2.55-0.48-3.41-1.43
			C159.24,139.59,158.81,138.32,158.81,136.75z M160.66,136.63c0,1.17,0.27,2.09,0.82,2.77c0.54,0.68,1.27,1.01,2.17,1.01
			c0.94,0,1.66-0.35,2.19-1.05c0.52-0.7,0.78-1.66,0.78-2.87s-0.26-2.15-0.77-2.8c-0.51-0.65-1.22-0.97-2.13-0.97
			c-0.95,0-1.7,0.35-2.24,1.05C160.93,134.47,160.66,135.42,160.66,136.63z"/>
	</g>
</g>
</svg>
