<?xml version="1.0" encoding="utf-8"?>
<!-- Generator: Adobe Illustrator 27.0.0, SVG Export Plug-In . SVG Version: 6.00 Build 0)  -->
<svg version="1.1" id="圖層_1" xmlns="http://www.w3.org/2000/svg" xmlns:xlink="http://www.w3.org/1999/xlink" x="0px" y="0px" viewBox="0 0 256 256" style="enable-background:new 0 0 256 256;" xml:space="preserve">
<style type="text/css">
	.i_st0{fill:#25628C;}
	.i_st1{enable-background:new    ;}
	.i_st2{clip-path:url(#SVGID_00000088846082306577366690000005842725481455622825_);enable-background:new    ;}
	.i_st3{fill:#256599;}
	.i_st4{clip-path:url(#SVGID_00000030450385536747360180000010278407766233856667_);enable-background:new    ;}
	.i_st5{fill:#FFFFFF;}
	.i_st6{clip-path:url(#SVGID_00000031889952862341048750000006581343469151571592_);enable-background:new    ;}
	.i_st7{fill:#2E7EAA;}
	.i_st8{fill:#3387C1;}
	.i_st9{fill:#C4BE49;}
	.i_st10{fill:#D8D84A;}
	.i_st11{clip-path:url(#SVGID_00000079475288783693321080000016766230127751642547_);enable-background:new    ;}
	.i_st12{clip-path:url(#SVGID_00000141422455727277008440000004685294424680819894_);enable-background:new    ;}
	.i_st13{fill:#54B244;}
	.i_st14{fill:#59C64A;}
</style>
<g>
	<g>
		<g>
			<polygon class="i_st0" points="249.82,116.45 249.82,166.26 128.01,146.47 128.01,96.66 			"/>
		</g>
		<g>
			<g class="i_st1">
				<defs>
					<path id="SVGID_i_" class="i_st1" d="M256.08,96.66v49.81c0,7.08-1.89,13.06-6.26,19.79v-49.81
						C254.18,109.72,256.08,103.74,256.08,96.66z"/>
				</defs>
				<use xlink:href="#SVGID_i_"  style="overflow:visible;fill:#256599;"/>
				<clipPath id="SVGID_00000087396857990145469320000006831617639715369385_">
					<use xlink:href="#SVGID_i_"  style="overflow:visible;"/>
				</clipPath>
				<g style="clip-path:url(#SVGID_00000087396857990145469320000006831617639715369385_);enable-background:new    ;">
					<path class="i_st3" d="M256.08,96.66v49.81c0,0.3,0,0.61-0.01,0.9V97.57C256.08,97.27,256.08,96.96,256.08,96.66"/>
					<path class="i_st3" d="M256.07,97.57v49.81c-0.05,1.95-0.24,3.81-0.6,5.64V103.2C255.83,101.38,256.02,99.51,256.07,97.57"/>
					<path class="i_st3" d="M255.47,103.2v49.81c-0.31,1.62-0.75,3.2-1.33,4.78v-49.81C254.72,106.41,255.16,104.82,255.47,103.2"/>
					<path class="i_st3" d="M254.14,107.99v49.81c-0.59,1.63-1.33,3.26-2.22,4.92V112.9C252.81,111.25,253.55,109.62,254.14,107.99"/>
					<path class="i_st3" d="M251.92,112.9v49.81c-0.63,1.17-1.33,2.34-2.11,3.55v-49.81C250.6,115.25,251.3,114.07,251.92,112.9"/>
				</g>
			</g>
			<g>
				<defs>
					<path id="SVGID_00000108270226577904649740000009262519529098677173_" d="M128.01,160.7l0,49.81
						c-70.74,0-128.08-28.67-128.08-64.04V96.66C-0.08,132.03,57.27,160.7,128.01,160.7z"/>
				</defs>
				<use xlink:href="#SVGID_00000108270226577904649740000009262519529098677173_"  style="overflow:visible;fill:#25628C;"/>
				<clipPath id="SVGID_00000020381841580588497270000013783448569629774766_">
					<use xlink:href="#SVGID_00000108270226577904649740000009262519529098677173_"  style="overflow:visible;"/>
				</clipPath>
				<g style="clip-path:url(#SVGID_00000020381841580588497270000013783448569629774766_);enable-background:new    ;">
					<path class="i_st0" d="M128.01,160.7v49.81c-1.1,0-2.2-0.01-3.29-0.02v-49.81C125.81,160.7,126.9,160.7,128.01,160.7"/>
					<path class="i_st0" d="M124.71,160.68v49.81c-3.68-0.05-7.33-0.17-10.93-0.37v-49.81C117.38,160.51,121.03,160.63,124.71,160.68"
						/>
					<path class="i_st0" d="M113.78,160.31v49.81c-3.53-0.2-7.02-0.46-10.47-0.8v-49.81C106.76,159.85,110.25,160.12,113.78,160.31"/>
					<path class="i_st0" d="M103.31,159.51v49.81c-3.47-0.34-6.9-0.75-10.27-1.23v-49.81C96.41,158.76,99.84,159.17,103.31,159.51"/>
					<path class="i_st0" d="M93.05,158.29v49.81c-3.51-0.5-6.95-1.07-10.33-1.7v-49.81C86.1,157.22,89.54,157.79,93.05,158.29"/>
					<path class="i_st0" d="M82.72,156.58v49.81c-3.64-0.69-7.19-1.45-10.66-2.3v-49.81C75.53,155.13,79.08,155.9,82.72,156.58"/>
					<path class="i_st0" d="M72.06,154.29v49.81c-3.9-0.95-7.69-1.99-11.36-3.13v-49.81C64.37,152.29,68.16,153.34,72.06,154.29"/>
					<path class="i_st0" d="M60.7,151.16v49.81c-4.7-1.45-9.19-3.05-13.46-4.79v-49.81C51.51,148.11,56,149.71,60.7,151.16"/>
					<path class="i_st0" d="M47.24,146.37v49.81c-28.88-11.74-47.32-29.65-47.32-49.71V96.66C-0.08,116.72,18.37,134.63,47.24,146.37"
						/>
				</g>
			</g>
			<g>
				<path class="i_st3" d="M128.01,160.7c-70.74,0-128.08-28.67-128.08-64.04s57.34-64.04,128.08-64.04s128.07,28.67,128.07,64.04
					c0,7.08-1.89,13.06-6.26,19.79L128.01,96.66V160.7z"/>
			</g>
		</g>
	</g>
	<g>
		<path class="i_st5" d="M102.06,55.99c-2.52-1.19-3.77-2.88-3.77-5.1c0-1.53,0.58-2.77,1.75-3.71c1.17-0.95,2.62-1.42,4.34-1.42
			c1.55,0,2.85,0.44,3.92,1.33s1.6,2.05,1.6,3.48c0,2.32-1.29,4.12-3.88,5.42v0.05c3.05,1.15,4.57,3.04,4.57,5.66
			c0,1.78-0.63,3.16-1.9,4.15s-2.96,1.48-5.08,1.48c-1.73,0-3.18-0.5-4.35-1.5s-1.75-2.31-1.75-3.93c0-2.68,1.51-4.63,4.54-5.86
			V55.99z M103.89,57.14c-2.71,1.08-4.06,2.63-4.06,4.66c0,1.12,0.4,2.01,1.21,2.65c0.81,0.64,1.84,0.96,3.09,0.96
			c1.2,0,2.2-0.32,2.98-0.96c0.78-0.64,1.17-1.49,1.17-2.55C108.29,59.78,106.82,58.19,103.89,57.14z M107.57,50.87
			c0-0.99-0.31-1.76-0.94-2.33c-0.62-0.56-1.45-0.84-2.49-0.84c-0.95,0-1.78,0.29-2.48,0.88s-1.05,1.33-1.05,2.23
			c0,1.85,1.15,3.25,3.44,4.19C106.4,54.02,107.57,52.64,107.57,50.87z"/>
		<path class="i_st5" d="M113.31,56.98c0-3.68,0.6-6.47,1.8-8.37c1.2-1.9,2.93-2.84,5.2-2.84c4.34,0,6.51,3.57,6.51,10.7
			c0,3.47-0.6,6.15-1.79,8.04c-1.19,1.89-2.92,2.84-5.2,2.84c-2.12,0-3.74-0.91-4.85-2.72C113.87,62.81,113.31,60.26,113.31,56.98z
			 M115.61,56.86c0,5.72,1.49,8.57,4.48,8.57c2.96,0,4.43-2.9,4.43-8.69c0-6.03-1.44-9.05-4.33-9.05
			C117.13,47.69,115.61,50.75,115.61,56.86z"/>
		<path class="i_st5" d="M129.19,51.36c0-1.71,0.45-3.06,1.35-4.06s2.12-1.5,3.65-1.5c1.47,0,2.62,0.47,3.44,1.4s1.23,2.22,1.23,3.86
			c0,1.64-0.46,2.96-1.37,3.98c-0.91,1.02-2.11,1.53-3.61,1.53c-1.44,0-2.58-0.48-3.43-1.44C129.62,54.18,129.19,52.92,129.19,51.36
			z M131.07,51.22c0,1.2,0.27,2.13,0.8,2.8c0.53,0.67,1.26,1,2.18,1c0.93,0,1.66-0.34,2.18-1.03c0.52-0.69,0.78-1.64,0.78-2.86
			c0-1.2-0.26-2.14-0.78-2.8s-1.23-1-2.14-1c-0.93,0-1.66,0.35-2.21,1.06C131.34,49.1,131.07,50.05,131.07,51.22z M147.8,46.11
			l-13.37,21.04h-2l13.37-21.04H147.8z M141.61,62.1c0-1.7,0.45-3.06,1.35-4.08c0.9-1.02,2.11-1.53,3.63-1.53
			c1.46,0,2.61,0.47,3.44,1.42c0.83,0.94,1.24,2.25,1.24,3.92c0,1.64-0.46,2.97-1.38,3.98c-0.92,1.01-2.11,1.51-3.58,1.51
			c-1.41,0-2.55-0.48-3.4-1.43S141.61,63.67,141.61,62.1z M143.45,61.98c0,1.17,0.27,2.09,0.82,2.76s1.26,1.01,2.16,1.01
			c0.93,0,1.66-0.35,2.18-1.04c0.52-0.7,0.78-1.65,0.78-2.86s-0.26-2.14-0.77-2.79c-0.51-0.65-1.22-0.97-2.13-0.97
			c-0.95,0-1.7,0.35-2.24,1.04C143.72,59.83,143.45,60.78,143.45,61.98z"/>
	</g>
</g>
<g>
	<g>
		<g class="i_st1">
			<defs>
				<path id="SVGID_00000026122567106230791030000000240252445198503068_" class="i_st1" d="M249.82,116.45l0,49.81
					c-7.87,12.11-19.97,21.08-39.49,29.27l0-49.81C229.84,137.53,241.95,128.56,249.82,116.45z"/>
			</defs>
			<use xlink:href="#SVGID_00000026122567106230791030000000240252445198503068_"  style="overflow:visible;fill:#2E7EAA;"/>
			<clipPath id="SVGID_00000130649080370499691170000011049810573221397418_">
				<use xlink:href="#SVGID_00000026122567106230791030000000240252445198503068_"  style="overflow:visible;"/>
			</clipPath>
			<g style="clip-path:url(#SVGID_00000130649080370499691170000011049810573221397418_);enable-background:new    ;">
				<path class="i_st7" d="M249.82,116.45v49.81c-0.53,0.82-1.09,1.63-1.66,2.42v-49.81C248.73,118.08,249.28,117.27,249.82,116.45"/>
				<path class="i_st7" d="M248.16,118.87v49.81c-1.43,1.97-2.98,3.86-4.67,5.67v-49.81C245.18,122.73,246.73,120.84,248.16,118.87"/>
				<path class="i_st7" d="M243.48,124.54v49.81c-1.71,1.83-3.57,3.59-5.59,5.29v-49.81C239.91,128.14,241.77,126.38,243.48,124.54"/>
				<path class="i_st7" d="M237.89,129.83v49.81c-2.37,1.99-4.95,3.89-7.79,5.72v-49.81C232.94,133.72,235.53,131.82,237.89,129.83"/>
				<path class="i_st7" d="M230.11,135.55v49.81c-5.14,3.32-11.09,6.42-18,9.41v-49.81C219.01,141.98,224.97,138.88,230.11,135.55"/>
				<path class="i_st7" d="M212.1,144.96v49.81c-0.58,0.25-1.17,0.5-1.77,0.75v-49.81C210.93,145.47,211.52,145.21,212.1,144.96"/>
			</g>
		</g>
		<g>
			<polygon class="i_st7" points="210.33,145.72 210.33,195.53 128.01,146.47 128.01,96.66 			"/>
		</g>
		<g>
			<path class="i_st8" d="M210.33,145.72l-82.32-49.06l121.81,19.79C241.95,128.56,229.84,137.53,210.33,145.72z"/>
		</g>
	</g>
	<g>
		<path class="i_st5" d="M205.44,128.91c1.18,0.66,2.4,0.98,3.68,0.98c1.9,0,3.38-0.78,4.45-2.33c1.07-1.55,1.6-3.75,1.6-6.61
			c-0.02,0.02-0.04,0.02-0.05,0c-0.9,1.82-2.46,2.72-4.69,2.72c-1.8,0-3.27-0.62-4.41-1.85c-1.14-1.23-1.71-2.78-1.71-4.65
			c0-1.99,0.61-3.64,1.83-4.97c1.22-1.33,2.83-1.99,4.83-1.99c2.09,0,3.7,0.82,4.81,2.46c1.11,1.64,1.67,4,1.67,7.07
			c0,3.79-0.73,6.75-2.19,8.87s-3.54,3.18-6.23,3.18c-1.39,0-2.59-0.23-3.59-0.7V128.91z M206.61,116.85c0,1.46,0.38,2.62,1.15,3.5
			s1.82,1.31,3.15,1.31c1.19,0,2.17-0.39,2.95-1.18c0.78-0.79,1.17-1.74,1.17-2.85c0-1.55-0.39-2.86-1.17-3.9
			c-0.78-1.05-1.81-1.57-3.11-1.57c-1.21,0-2.21,0.46-2.98,1.37C207,114.44,206.61,115.54,206.61,116.85z"/>
		<path class="i_st5" d="M220.06,115.82c0-1.71,0.45-3.06,1.35-4.06s2.12-1.5,3.65-1.5c1.47,0,2.62,0.47,3.44,1.4
			c0.82,0.93,1.23,2.22,1.23,3.86c0,1.64-0.46,2.96-1.37,3.98c-0.91,1.02-2.11,1.53-3.61,1.53c-1.44,0-2.58-0.48-3.43-1.44
			C220.49,118.65,220.06,117.39,220.06,115.82z M221.94,115.69c0,1.2,0.27,2.13,0.8,2.8c0.53,0.67,1.26,1,2.18,1
			c0.93,0,1.66-0.34,2.18-1.03c0.52-0.69,0.78-1.64,0.78-2.86c0-1.2-0.26-2.14-0.78-2.8s-1.23-1-2.14-1c-0.93,0-1.66,0.35-2.21,1.06
			S221.94,114.51,221.94,115.69z M238.67,110.58l-13.37,21.04h-2l13.37-21.04H238.67z M232.48,126.57c0-1.7,0.45-3.06,1.35-4.08
			c0.9-1.02,2.11-1.53,3.63-1.53c1.46,0,2.61,0.47,3.44,1.42c0.83,0.94,1.24,2.25,1.24,3.92c0,1.64-0.46,2.97-1.38,3.98
			s-2.11,1.51-3.58,1.51c-1.41,0-2.55-0.48-3.4-1.43S232.48,128.14,232.48,126.57z M234.33,126.45c0,1.17,0.27,2.09,0.82,2.76
			c0.54,0.67,1.26,1.01,2.16,1.01c0.93,0,1.66-0.35,2.18-1.04c0.52-0.7,0.78-1.65,0.78-2.86c0-1.21-0.26-2.14-0.77-2.79
			c-0.51-0.65-1.22-0.97-2.13-0.97c-0.95,0-1.7,0.35-2.24,1.04C234.59,124.29,234.33,125.24,234.33,126.45z"/>
	</g>
</g>
<g>
	<g>
		<g>
			<polygon class="i_st9" points="145.83,160.08 145.83,209.89 128.01,146.47 128.01,96.66 			"/>
		</g>
		<g>
			<path class="i_st10" d="M145.83,160.08l-17.83-63.42l82.32,49.06C190.83,153.9,171.05,158.31,145.83,160.08z"/>
		</g>
		<g>
			<defs>
				<path id="SVGID_00000035517496578109138760000004742693339584277943_" d="M210.33,145.72l0,49.81
					c-19.5,8.18-39.28,12.59-64.5,14.36l0-49.81C171.05,158.31,190.83,153.9,210.33,145.72z"/>
			</defs>
			<use xlink:href="#SVGID_00000035517496578109138760000004742693339584277943_"  style="overflow:visible;fill:#C4BE49;"/>
			<clipPath id="SVGID_00000146482543412298579200000002074915200033310861_">
				<use xlink:href="#SVGID_00000035517496578109138760000004742693339584277943_"  style="overflow:visible;"/>
			</clipPath>
			<g style="clip-path:url(#SVGID_00000146482543412298579200000002074915200033310861_);enable-background:new    ;">
				<path class="i_st9" d="M210.33,145.72v49.81c-7.73,3.24-15.51,5.9-23.65,8.02v-49.81C194.82,151.61,202.6,148.96,210.33,145.72"/>
				<path class="i_st9" d="M186.68,153.74v49.81c-6.77,1.77-13.8,3.18-21.27,4.27v-49.81C172.88,156.92,179.91,155.51,186.68,153.74"
					/>
				<path class="i_st9" d="M165.41,158.01v49.81c-5.07,0.74-10.35,1.33-15.89,1.79v-49.81C155.06,159.34,160.34,158.75,165.41,158.01"
					/>
				<path class="i_st9" d="M149.53,159.79v49.81c-1.22,0.1-2.45,0.19-3.69,0.28v-49.81C147.08,159.99,148.31,159.89,149.53,159.79"/>
			</g>
		</g>
	</g>
	<g>
		<path class="i_st5" d="M157.55,148.9c1.18,0.66,2.4,0.98,3.68,0.98c1.9,0,3.38-0.78,4.45-2.33c1.07-1.55,1.6-3.75,1.6-6.61
			c-0.02,0.02-0.04,0.02-0.05,0c-0.9,1.82-2.46,2.72-4.69,2.72c-1.8,0-3.27-0.62-4.41-1.85c-1.14-1.23-1.71-2.78-1.71-4.65
			c0-1.99,0.61-3.64,1.83-4.97c1.22-1.33,2.83-1.99,4.83-1.99c2.09,0,3.7,0.82,4.81,2.46c1.11,1.64,1.67,4,1.67,7.07
			c0,3.79-0.73,6.75-2.19,8.87s-3.54,3.18-6.23,3.18c-1.39,0-2.59-0.23-3.59-0.7V148.9z M158.72,136.84c0,1.46,0.38,2.62,1.15,3.5
			s1.82,1.31,3.15,1.31c1.19,0,2.17-0.39,2.95-1.18c0.78-0.79,1.17-1.74,1.17-2.85c0-1.55-0.39-2.86-1.17-3.9
			c-0.78-1.05-1.81-1.57-3.11-1.57c-1.21,0-2.21,0.46-2.98,1.37S158.72,135.54,158.72,136.84z"/>
		<path class="i_st5" d="M172.18,135.81c0-1.71,0.45-3.06,1.35-4.06s2.12-1.5,3.65-1.5c1.47,0,2.62,0.47,3.44,1.4
			c0.82,0.93,1.23,2.22,1.23,3.86c0,1.64-0.46,2.96-1.37,3.98c-0.91,1.02-2.11,1.53-3.61,1.53c-1.44,0-2.58-0.48-3.43-1.44
			C172.6,138.64,172.18,137.38,172.18,135.81z M174.05,135.68c0,1.2,0.27,2.13,0.8,2.8c0.53,0.67,1.26,1,2.18,1
			c0.93,0,1.66-0.34,2.18-1.03c0.52-0.69,0.78-1.64,0.78-2.86c0-1.2-0.26-2.14-0.78-2.8c-0.52-0.67-1.23-1-2.14-1
			c-0.93,0-1.66,0.35-2.21,1.06C174.32,133.56,174.05,134.5,174.05,135.68z M190.78,130.57l-13.37,21.04h-2l13.37-21.04H190.78z
			 M184.59,146.56c0-1.7,0.45-3.06,1.35-4.08c0.9-1.02,2.11-1.53,3.63-1.53c1.46,0,2.61,0.47,3.44,1.42s1.24,2.25,1.24,3.92
			c0,1.64-0.46,2.97-1.38,3.98s-2.11,1.51-3.58,1.51c-1.41,0-2.55-0.48-3.4-1.43S184.59,148.13,184.59,146.56z M186.44,146.44
			c0,1.17,0.27,2.09,0.82,2.76c0.54,0.67,1.26,1.01,2.16,1.01c0.93,0,1.66-0.35,2.18-1.04c0.52-0.7,0.78-1.65,0.78-2.86
			s-0.26-2.14-0.77-2.79c-0.51-0.65-1.22-0.97-2.13-0.97c-0.95,0-1.7,0.35-2.24,1.04S186.44,145.23,186.44,146.44z"/>
	</g>
</g>
<g>
	<g>
		<g class="i_st1">
			<defs>
				<path id="SVGID_00000016065431577480287940000000676616770697978243_" class="i_st1" d="M145.83,160.08l0,49.81
					c-5.61,0.39-12.16,0.63-17.83,0.63l0-49.81C133.67,160.7,140.22,160.47,145.83,160.08z"/>
			</defs>
			<use xlink:href="#SVGID_00000016065431577480287940000000676616770697978243_"  style="overflow:visible;fill:#54B244;"/>
			<clipPath id="SVGID_00000060720468671857404060000012129044327824605325_">
				<use xlink:href="#SVGID_00000016065431577480287940000000676616770697978243_"  style="overflow:visible;"/>
			</clipPath>
			<g style="clip-path:url(#SVGID_00000060720468671857404060000012129044327824605325_);enable-background:new    ;">
				<path class="i_st13" d="M145.83,160.08v49.81c-3.09,0.22-6.46,0.38-9.81,0.49v-49.81C139.37,160.46,142.75,160.29,145.83,160.08"
					/>
				<path class="i_st13" d="M136.02,160.57v49.81c-2.74,0.09-5.47,0.13-8.01,0.13V160.7C130.55,160.7,133.28,160.66,136.02,160.57"/>
			</g>
		</g>
		<g>
			<path class="i_st14" d="M128.01,160.7V96.66l17.83,63.42C140.22,160.47,133.67,160.7,128.01,160.7z"/>
		</g>
	</g>
	<g>
		<path class="i_st5" d="M131.56,158h-7.75v-1.26l3.77-3.79c1.25-1.26,2.02-2.17,2.3-2.74c0.29-0.57,0.43-1.17,0.43-1.8
			c0-0.76-0.22-1.35-0.65-1.76c-0.43-0.41-1.05-0.62-1.86-0.62c-1.15,0-2.26,0.5-3.33,1.5v-1.49c1-0.8,2.17-1.2,3.51-1.2
			c1.11,0,2.01,0.31,2.68,0.93c0.67,0.62,1.01,1.46,1.01,2.52c0,0.81-0.22,1.61-0.66,2.4s-1.28,1.8-2.51,3.03l-3.02,2.98v0.03h6.08
			V158z"/>
		<path class="i_st5" d="M133.59,148.3c0-1.06,0.28-1.9,0.84-2.52c0.56-0.62,1.31-0.93,2.26-0.93c0.91,0,1.63,0.29,2.14,0.87
			c0.51,0.58,0.76,1.38,0.76,2.39c0,1.01-0.28,1.84-0.85,2.47c-0.57,0.63-1.31,0.95-2.24,0.95c-0.89,0-1.6-0.3-2.13-0.89
			C133.85,150.05,133.59,149.27,133.59,148.3z M134.75,148.22c0,0.74,0.17,1.32,0.5,1.73s0.78,0.62,1.35,0.62
			c0.58,0,1.03-0.21,1.35-0.64c0.32-0.43,0.48-1.02,0.48-1.78c0-0.75-0.16-1.33-0.48-1.74c-0.32-0.41-0.76-0.62-1.32-0.62
			c-0.57,0-1.03,0.22-1.37,0.66C134.92,146.9,134.75,147.49,134.75,148.22z M145.12,145.05l-8.29,13.05h-1.24l8.29-13.05H145.12z
			 M141.28,154.96c0-1.05,0.28-1.9,0.84-2.53c0.56-0.63,1.31-0.95,2.25-0.95c0.91,0,1.62,0.29,2.13,0.88
			c0.51,0.59,0.77,1.4,0.77,2.43c0,1.02-0.29,1.84-0.86,2.47c-0.57,0.62-1.31,0.94-2.22,0.94c-0.87,0-1.58-0.3-2.11-0.89
			S141.28,155.94,141.28,154.96z M142.43,154.89c0,0.72,0.17,1.3,0.51,1.71c0.34,0.42,0.78,0.63,1.34,0.63
			c0.58,0,1.03-0.22,1.35-0.65c0.32-0.43,0.48-1.02,0.48-1.78s-0.16-1.33-0.48-1.73s-0.76-0.6-1.32-0.6c-0.59,0-1.05,0.22-1.39,0.65
			C142.6,153.55,142.43,154.14,142.43,154.89z"/>
	</g>
</g>
</svg>
