<?xml version="1.0" encoding="utf-8"?>
<!-- Generator: Adobe Illustrator 27.0.0, SVG Export Plug-In . SVG Version: 6.00 Build 0)  -->
<svg version="1.1" id="圖層_1" xmlns="http://www.w3.org/2000/svg" xmlns:xlink="http://www.w3.org/1999/xlink" x="0px" y="0px" viewBox="0 0 256 256" style="enable-background:new 0 0 256 256;" xml:space="preserve">
<style type="text/css">
	.st0{fill:#798E99;}
	.st1{enable-background:new    ;}
	.st2{clip-path:url(#SVGID_00000137108569954947828780000005302258661891314050_);enable-background:new    ;}
	.st3{fill:#89A1AF;}
	.st4{clip-path:url(#SVGID_00000006670028794891934480000001557028344258690741_);enable-background:new    ;}
	.st5{fill:#235D84;}
	.st6{fill:#256599;}
	.st7{fill:#FFFFFF;}
</style>
<g>
	<g>
		<polygon class="st0" points="130.7,102.87 125.23,153.14 69.16,97.49 74.63,47.21 		"/>
	</g>
	<g class="st1">
		<defs>
			<path id="SVGID_C_" class="st1" d="M255.83,116.41l-5.47,50.28c-2.13,19.64-27.15,36.21-69.06,42.1
				c-2.48,0.35-3.41,0.46-5.94,0.75l5.47-50.28c2.53-0.28,3.46-0.4,5.94-0.75C228.68,152.62,253.69,136.05,255.83,116.41z"/>
		</defs>
		<use xlink:href="#SVGID_C_"  style="overflow:visible;fill:#798E99;"/>
		<clipPath id="SVGID_00000124133944971909445720000018379211500499536276_">
			<use xlink:href="#SVGID_C_"  style="overflow:visible;"/>
		</clipPath>
		<g style="clip-path:url(#SVGID_00000124133944971909445720000018379211500499536276_);enable-background:new    ;">
			<path class="st0" d="M255.83,116.41l-5.47,50.28c-0.16,1.44-0.44,2.86-0.84,4.26l5.47-50.28
				C255.39,119.27,255.67,117.85,255.83,116.41"/>
			<path class="st0" d="M254.99,120.67l-5.47,50.28c-0.45,1.58-1.06,3.14-1.81,4.67l5.47-50.28
				C253.94,123.82,254.54,122.26,254.99,120.67"/>
			<path class="st0" d="M253.18,125.35l-5.47,50.28c-0.73,1.49-1.61,2.95-2.63,4.38l5.47-50.28
				C251.57,128.3,252.45,126.83,253.18,125.35"/>
			<path class="st0" d="M250.55,129.73L245.09,180c-1.02,1.43-2.17,2.83-3.46,4.19l5.47-50.28
				C248.38,132.55,249.54,131.16,250.55,129.73"/>
			<path class="st0" d="M247.09,133.92l-5.47,50.28c-1.32,1.4-2.79,2.75-4.39,4.07l5.47-50.28
				C244.31,136.67,245.77,135.31,247.09,133.92"/>
			<path class="st0" d="M242.7,137.99l-5.47,50.28c-1.69,1.39-3.54,2.73-5.54,4.03l5.47-50.28
				C239.16,140.72,241.01,139.38,242.7,137.99"/>
			<path class="st0" d="M237.16,142.01l-5.47,50.28c-2.24,1.45-4.66,2.83-7.27,4.14l5.47-50.28
				C232.5,144.84,234.93,143.46,237.16,142.01"/>
			<path class="st0" d="M229.89,146.15l-5.47,50.28c-3.11,1.56-6.47,3.02-10.09,4.37l5.47-50.28
				C223.42,149.17,226.79,147.71,229.89,146.15"/>
			<path class="st0" d="M219.81,150.52l-5.47,50.28c-6.45,2.4-13.69,4.44-21.68,6.06l5.47-50.28
				C206.11,154.96,213.36,152.92,219.81,150.52"/>
			<path class="st0" d="M198.13,156.58l-5.47,50.28c-3.63,0.74-7.42,1.38-11.36,1.94c-2.48,0.35-3.41,0.46-5.94,0.75l5.47-50.28
				c2.53-0.28,3.46-0.4,5.94-0.75C190.7,157.96,194.49,157.31,198.13,156.58"/>
		</g>
	</g>
	<g>
		<path class="st3" d="M74.63,47.21c61.86-8.69,137.1,9.18,168.07,39.91c30.96,30.73,5.92,62.69-55.94,71.39
			c-2.48,0.35-3.41,0.46-5.94,0.75l-50.13-56.4L74.63,47.21z"/>
	</g>
	<g>
		<polygon class="st0" points="180.83,159.26 175.36,209.54 125.23,153.14 130.7,102.87 		"/>
	</g>
</g>
<g>
	<g>
		<g>
			<defs>
				<path id="SVGID_00000165197817631965574570000002972977344233211012_" d="M0.17,139.68l5.47-50.28
					c-0.91,8.39,2.34,17.34,10.27,26.26c27.68,31.15,101.52,50.67,164.91,43.59l-5.47,50.28c-63.4,7.07-137.23-12.45-164.91-43.59
					C2.52,157.02-0.74,148.07,0.17,139.68z"/>
			</defs>
			<use xlink:href="#SVGID_00000165197817631965574570000002972977344233211012_"  style="overflow:visible;fill:#235D84;"/>
			<clipPath id="SVGID_00000017486451477746264170000011966482748352489108_">
				<use xlink:href="#SVGID_00000165197817631965574570000002972977344233211012_"  style="overflow:visible;"/>
			</clipPath>
			<g style="clip-path:url(#SVGID_00000017486451477746264170000011966482748352489108_);enable-background:new    ;">
				<path class="st5" d="M180.83,159.26l-5.47,50.28c-0.54,0.06-1.09,0.12-1.63,0.18l5.47-50.28
					C179.74,159.38,180.28,159.32,180.83,159.26"/>
				<path class="st5" d="M179.19,159.44l-5.47,50.28c-8.61,0.9-17.4,1.31-26.23,1.27l5.47-50.28
					C161.8,160.74,170.59,160.33,179.19,159.44"/>
				<path class="st5" d="M152.97,160.71l-5.47,50.28c-5-0.02-10.02-0.19-15.02-0.49l5.47-50.28
					C142.95,160.52,147.96,160.68,152.97,160.71"/>
				<path class="st5" d="M137.94,160.22l-5.47,50.28c-4.19-0.25-8.38-0.6-12.54-1.04l5.47-50.28
					C129.56,159.62,133.75,159.97,137.94,160.22"/>
				<path class="st5" d="M125.4,159.18l-5.47,50.28c-3.78-0.4-7.55-0.88-11.28-1.43l5.47-50.28
					C117.85,158.3,121.62,158.77,125.4,159.18"/>
				<path class="st5" d="M114.12,157.75l-5.47,50.28c-3.54-0.52-7.05-1.11-10.53-1.76l5.47-50.28
					C107.06,156.63,110.58,157.22,114.12,157.75"/>
				<path class="st5" d="M103.59,155.98l-5.47,50.28c-3.41-0.64-6.78-1.34-10.1-2.1l5.47-50.28
					C96.81,154.65,100.18,155.34,103.59,155.98"/>
				<path class="st5" d="M93.49,153.89l-5.47,50.28c-3.34-0.76-6.64-1.58-9.88-2.46l5.47-50.28
					C86.85,152.31,90.15,153.13,93.49,153.89"/>
				<path class="st5" d="M83.61,151.43l-5.47,50.28c-3.34-0.9-6.63-1.87-9.85-2.89l5.47-50.28
					C76.98,149.56,80.26,150.52,83.61,151.43"/>
				<path class="st5" d="M73.76,148.54l-5.47,50.28c-3.42-1.09-6.77-2.24-10.03-3.45l5.47-50.28
					C66.99,146.3,70.34,147.45,73.76,148.54"/>
				<path class="st5" d="M63.73,145.08l-5.47,50.28c-3.61-1.35-7.11-2.77-10.49-4.26l5.47-50.28
					C56.62,142.31,60.12,143.74,63.73,145.08"/>
				<path class="st5" d="M53.24,140.82l-5.47,50.28c-4.18-1.85-8.17-3.81-11.94-5.88l5.47-50.28
					C45.07,137.01,49.06,138.97,53.24,140.82"/>
				<path class="st5" d="M41.3,134.94l-5.47,50.28c-10.41-5.71-19.09-12.19-25.39-19.28c-7.93-8.92-11.19-17.87-10.27-26.26
					l5.47-50.28c-0.91,8.39,2.34,17.34,10.27,26.26C22.21,122.75,30.89,129.24,41.3,134.94"/>
			</g>
		</g>
		<g>
			<path class="st6" d="M74.63,47.21l56.07,55.65l50.13,56.4c-63.4,7.07-137.23-12.45-164.91-43.59
				C-10.66,85.77,15.25,55.56,74.63,47.21z"/>
		</g>
	</g>
	<g>
		<path class="st7" d="M65.38,111.23h-2.65v5.52h-2.2v-5.52h-9.71v-1.46l9.18-13.57h2.73v13.2h2.65V111.23z M60.53,109.4v-9.05
			c0-0.63,0.02-1.34,0.05-2.14h-0.05c-0.07,0.19-0.33,0.72-0.78,1.58l-6.46,9.61H60.53z"/>
		<path class="st7" d="M68.87,114.25c1.16,0.65,2.37,0.97,3.62,0.97c1.87,0,3.33-0.76,4.38-2.29c1.05-1.53,1.58-3.7,1.58-6.51
			c-0.02,0.02-0.04,0.02-0.05,0c-0.88,1.79-2.42,2.68-4.62,2.68c-1.77,0-3.22-0.61-4.34-1.82c-1.12-1.21-1.69-2.74-1.69-4.58
			c0-1.95,0.6-3.58,1.8-4.89c1.2-1.3,2.78-1.96,4.76-1.96c2.06,0,3.64,0.81,4.74,2.42c1.1,1.61,1.65,3.93,1.65,6.96
			c0,3.73-0.72,6.64-2.16,8.73s-3.48,3.13-6.14,3.13c-1.37,0-2.55-0.23-3.53-0.69V114.25z M70.03,102.37c0,1.43,0.38,2.58,1.13,3.44
			c0.75,0.86,1.79,1.29,3.11,1.29c1.17,0,2.13-0.39,2.9-1.16c0.77-0.77,1.15-1.71,1.15-2.81c0-1.53-0.38-2.81-1.15-3.84
			c-0.77-1.03-1.78-1.55-3.06-1.55c-1.19,0-2.17,0.45-2.93,1.35C70.41,100,70.03,101.09,70.03,102.37z"/>
		<path class="st7" d="M83.27,101.36c0-1.68,0.44-3.01,1.33-3.99c0.89-0.98,2.09-1.47,3.59-1.47c1.45,0,2.58,0.46,3.39,1.37
			c0.81,0.92,1.21,2.18,1.21,3.8c0,1.61-0.45,2.92-1.35,3.92c-0.9,1-2.08,1.51-3.55,1.51c-1.42,0-2.54-0.47-3.38-1.41
			S83.27,102.9,83.27,101.36z M85.12,101.23c0,1.18,0.26,2.09,0.79,2.75c0.53,0.66,1.24,0.99,2.14,0.99c0.92,0,1.64-0.34,2.15-1.02
			c0.51-0.68,0.77-1.62,0.77-2.82c0-1.19-0.25-2.11-0.76-2.76C89.7,97.72,89,97.4,88.1,97.4c-0.91,0-1.64,0.35-2.18,1.05
			C85.39,99.14,85.12,100.07,85.12,101.23z M101.59,96.2l-13.16,20.71h-1.96L99.62,96.2H101.59z M95.49,111.94
			c0-1.67,0.44-3.01,1.33-4.01s2.07-1.51,3.57-1.51c1.44,0,2.57,0.46,3.38,1.39s1.22,2.22,1.22,3.86c0,1.62-0.45,2.92-1.36,3.91
			c-0.91,0.99-2.08,1.49-3.52,1.49c-1.39,0-2.51-0.47-3.35-1.41C95.92,114.73,95.49,113.49,95.49,111.94z M97.31,111.82
			c0,1.15,0.27,2.06,0.8,2.72c0.54,0.66,1.25,1,2.13,1c0.92,0,1.64-0.34,2.15-1.03c0.51-0.69,0.77-1.63,0.77-2.82
			s-0.25-2.11-0.76-2.75s-1.2-0.96-2.1-0.96c-0.94,0-1.67,0.34-2.2,1.03C97.58,109.7,97.31,110.63,97.31,111.82z"/>
	</g>
</g>
</svg>
