<?xml version="1.0" encoding="utf-8"?>
<!-- Generator: Adobe Illustrator 27.0.0, SVG Export Plug-In . SVG Version: 6.00 Build 0)  -->
<svg version="1.1" id="圖層_1" xmlns="http://www.w3.org/2000/svg" xmlns:xlink="http://www.w3.org/1999/xlink" x="0px" y="0px" viewBox="0 0 256 256" style="enable-background:new 0 0 256 256;" xml:space="preserve">
<style type="text/css">
	.A_st0{enable-background:new    ;}
	.A_st1{clip-path:url(#SVGID_00000111906287394011774100000008216808432329268409_);enable-background:new    ;}
	.A_st2{fill:#235D84;}
	.A_st3{clip-path:url(#SVGID_00000163760176413770880030000017033496135942331781_);enable-background:new    ;}
	.A_st4{fill:#256599;}
	.A_st5{fill:#FFFFFF;}
</style>
<g>
	<g>
		<g class="A_st0">
			<g>
				<defs>
					<path id="SVGID_1_" d="M128,167.06l0,49.88c-70.69,0-128-28.65-128-64l0-49.88C0,138.41,57.31,167.06,128,167.06z"/>
				</defs>
				<use xlink:href="#SVGID_1_"  style="overflow:visible;fill:#235D84;"/>
				<clipPath id="SVGID_00000072988115452301390270000005907889601740097204_">
					<use xlink:href="#SVGID_1_"  style="overflow:visible;"/>
				</clipPath>
				<g style="clip-path:url(#SVGID_00000072988115452301390270000005907889601740097204_);enable-background:new    ;">
					<path class="A_st2" d="M128,167.06l0,49.88c-1.1,0-2.2-0.01-3.29-0.02v-49.88C125.8,167.05,126.9,167.06,128,167.06"/>
					<path class="A_st2" d="M124.71,167.04l0,49.88c-3.68-0.05-7.33-0.17-10.92-0.37v-49.88
						C117.38,166.87,121.03,166.99,124.71,167.04"/>
					<path class="A_st2" d="M113.79,166.67l0,49.88c-3.53-0.2-7.02-0.46-10.46-0.8v-49.88C106.77,166.21,110.25,166.48,113.79,166.67"
						/>
					<path class="A_st2" d="M103.33,165.87l0,49.88c-3.47-0.34-6.89-0.75-10.26-1.22v-49.88C96.43,165.12,99.85,165.53,103.33,165.87"
						/>
					<path class="A_st2" d="M93.07,164.65l0,49.88c-3.5-0.5-6.95-1.06-10.32-1.7v-49.88C86.12,163.58,89.56,164.15,93.07,164.65"/>
					<path class="A_st2" d="M82.75,162.95l0,49.88c-3.63-0.69-7.19-1.45-10.66-2.3v-49.88C75.56,161.49,79.11,162.26,82.75,162.95"/>
					<path class="A_st2" d="M72.09,160.65v49.88c-3.9-0.95-7.69-1.99-11.35-3.13v-49.88C64.4,158.66,68.19,159.7,72.09,160.65"/>
					<path class="A_st2" d="M60.74,157.52l0,49.88c-4.69-1.45-9.18-3.05-13.45-4.79v-49.88C51.56,154.47,56.05,156.07,60.74,157.52"/>
					<path class="A_st2" d="M47.29,152.74v49.88C18.44,190.88,0,172.99,0,152.94l0-49.88C0,123.11,18.44,141,47.29,152.74"/>
				</g>
			</g>
			<g>
				<defs>
					<path id="SVGID_00000034067615421724077100000016870156598936184222_" d="M256,103.06l0,49.88c0,35.35-57.31,64-128,64l0-49.88
						C198.69,167.06,256,138.41,256,103.06z"/>
				</defs>
				<use xlink:href="#SVGID_00000034067615421724077100000016870156598936184222_"  style="overflow:visible;fill:#235D84;"/>
				<clipPath id="SVGID_00000137131118100528949750000012465405248882042546_">
					<use xlink:href="#SVGID_00000034067615421724077100000016870156598936184222_"  style="overflow:visible;"/>
				</clipPath>
				<g style="clip-path:url(#SVGID_00000137131118100528949750000012465405248882042546_);enable-background:new    ;">
					<path class="A_st2" d="M256,103.06v49.88c0,0.25,0,0.5-0.01,0.75v-49.88C256,103.56,256,103.31,256,103.06"/>
					<path class="A_st2" d="M255.99,103.81v49.88c-0.04,1.86-0.24,3.7-0.6,5.52v-49.88C255.75,107.51,255.95,105.67,255.99,103.81"/>
					<path class="A_st2" d="M255.39,109.33v49.88c-0.34,1.77-0.83,3.52-1.46,5.25v-49.88C254.56,112.86,255.05,111.1,255.39,109.33"/>
					<path class="A_st2" d="M253.93,114.58v49.88c-0.63,1.74-1.4,3.45-2.31,5.13v-49.88C252.53,118.03,253.3,116.32,253.93,114.58"/>
					<path class="A_st2" d="M251.62,119.72v49.88c-0.94,1.75-2.02,3.46-3.24,5.15v-49.88C249.6,123.18,250.68,121.46,251.62,119.72"/>
					<path class="A_st2" d="M248.38,124.86v49.88c-1.31,1.81-2.77,3.57-4.39,5.3v-49.88C245.61,128.44,247.07,126.67,248.38,124.86"/>
					<path class="A_st2" d="M243.99,130.16v49.88c-1.81,1.93-3.8,3.81-5.98,5.63v-49.88C240.19,133.97,242.18,132.1,243.99,130.16"/>
					<path class="A_st2" d="M238.01,135.79v49.88c-2.68,2.25-5.63,4.41-8.83,6.47v-49.88C232.38,140.2,235.33,138.04,238.01,135.79"/>
					<path class="A_st2" d="M229.19,142.26v49.88c-5.23,3.37-11.12,6.47-17.58,9.26v-49.88C218.06,148.74,223.96,145.63,229.19,142.26
						"/>
					<path class="A_st2" d="M211.61,151.52v49.88c-7.39,3.19-15.52,5.97-24.25,8.25v-49.88C196.09,157.49,204.22,154.71,211.61,151.52
						"/>
					<path class="A_st2" d="M187.36,159.78v49.88c-7.35,1.93-15.12,3.51-23.23,4.7v-49.88C172.24,163.28,180.01,161.7,187.36,159.78"
						/>
					<path class="A_st2" d="M164.14,164.48v49.88c-4.94,0.73-10,1.31-15.17,1.73v-49.88C154.13,165.78,159.2,165.2,164.14,164.48"/>
					<path class="A_st2" d="M148.97,166.21v49.88c-4.14,0.34-8.34,0.58-12.6,0.72v-49.88C140.63,166.79,144.83,166.55,148.97,166.21"
						/>
					<path class="A_st2" d="M136.37,166.93v49.88c-2.77,0.09-5.56,0.13-8.37,0.13v-49.88C130.81,167.06,133.6,167.02,136.37,166.93"/>
				</g>
			</g>
			<g>
				<path class="A_st4" d="M128,167.06v-64V167.06c-70.69,0-128-28.65-128-64s57.31-64,128-64s128,28.65,128,64
					S198.69,167.06,128,167.06z"/>
			</g>
		</g>
	</g>
	<g>
		<path class="A_st5" d="M110.14,113.43H98.4v-2.01h4.75V94.98l-4.87,1.47v-2.17l7.13-2.23v19.37h4.74V113.43z"/>
		<path class="A_st5" d="M113.12,103.4c0-3.69,0.6-6.48,1.8-8.38c1.2-1.9,2.94-2.85,5.2-2.85c4.35,0,6.52,3.57,6.52,10.72
			c0,3.47-0.6,6.16-1.79,8.05c-1.19,1.89-2.93,2.84-5.2,2.84c-2.12,0-3.74-0.91-4.86-2.73C113.68,109.24,113.12,106.68,113.12,103.4
			z M115.42,103.28c0,5.72,1.49,8.59,4.48,8.59c2.96,0,4.44-2.9,4.44-8.71c0-6.04-1.44-9.06-4.33-9.06
			C116.95,94.1,115.42,97.16,115.42,103.28z"/>
		<path class="A_st5" d="M129.15,103.4c0-3.69,0.6-6.48,1.8-8.38c1.2-1.9,2.94-2.85,5.2-2.85c4.35,0,6.52,3.57,6.52,10.72
			c0,3.47-0.6,6.16-1.79,8.05c-1.19,1.89-2.93,2.84-5.2,2.84c-2.12,0-3.74-0.91-4.86-2.73C129.7,109.24,129.15,106.68,129.15,103.4z
			 M131.44,103.28c0,5.72,1.49,8.59,4.48,8.59c2.96,0,4.44-2.9,4.44-8.71c0-6.04-1.44-9.06-4.33-9.06
			C132.97,94.1,131.44,97.16,131.44,103.28z"/>
		<path class="A_st5" d="M145.05,97.77c0-1.71,0.45-3.06,1.36-4.06c0.9-1,2.12-1.5,3.65-1.5c1.48,0,2.63,0.47,3.45,1.4
			c0.82,0.93,1.24,2.22,1.24,3.87c0,1.64-0.46,2.97-1.37,3.99c-0.91,1.02-2.12,1.53-3.61,1.53c-1.44,0-2.58-0.48-3.44-1.44
			S145.05,99.34,145.05,97.77z M146.92,97.64c0,1.2,0.27,2.13,0.8,2.8c0.54,0.67,1.26,1.01,2.18,1.01c0.94,0,1.66-0.34,2.19-1.03
			c0.52-0.69,0.78-1.64,0.78-2.87c0-1.21-0.26-2.14-0.78-2.81c-0.52-0.67-1.23-1-2.14-1c-0.93,0-1.66,0.36-2.21,1.07
			C147.2,95.51,146.92,96.46,146.92,97.64z M163.68,92.52l-13.39,21.07h-2l13.39-21.07H163.68z M157.48,108.53
			c0-1.7,0.45-3.06,1.35-4.08c0.9-1.02,2.11-1.53,3.63-1.53c1.47,0,2.61,0.47,3.44,1.42s1.24,2.25,1.24,3.93
			c0,1.65-0.46,2.97-1.38,3.98c-0.92,1.01-2.12,1.51-3.58,1.51c-1.41,0-2.55-0.48-3.41-1.43S157.48,110.1,157.48,108.53z
			 M159.33,108.41c0,1.17,0.27,2.09,0.82,2.77c0.54,0.67,1.27,1.01,2.17,1.01c0.94,0,1.66-0.35,2.19-1.05
			c0.52-0.7,0.78-1.65,0.78-2.87c0-1.21-0.26-2.15-0.77-2.79c-0.51-0.65-1.22-0.97-2.13-0.97c-0.95,0-1.7,0.35-2.24,1.05
			C159.6,106.25,159.33,107.2,159.33,108.41z"/>
	</g>
</g>
</svg>
