<?xml version="1.0" encoding="utf-8"?>
<!-- Generator: Adobe Illustrator 27.0.0, SVG Export Plug-In . SVG Version: 6.00 Build 0)  -->
<svg version="1.1" id="圖層_1" xmlns="http://www.w3.org/2000/svg" xmlns:xlink="http://www.w3.org/1999/xlink" x="0px" y="0px"
	 viewBox="0 0 512 512" style="enable-background:new 0 0 512 512;" xml:space="preserve">
<style type="text/css">
	.st0{fill:#FFFFFF;}
</style>
<path class="st0" d="M0,169c3.9-8.4,10.5-11.2,19.7-11.1c37.8,0.4,75.6,0.1,113.4,0.1c11.8,0,17.7,6,17.7,17.9
	c0,38.3,0,76.6,0,114.9c0,12.1-6.1,18.1-18.1,18.1c-37.5,0-74.9-0.2-112.4,0.1C11,309.1,4.1,306.5,0,298C0,255,0,212,0,169z
	 M30.4,278c30,0,59.7,0,89.6,0c0-29.9,0-59.5,0-89.4c-30,0-59.7,0-89.6,0C30.4,218.6,30.4,248.2,30.4,278z"/>
<path class="st0" d="M512,298c-4.1,8.5-11,11.1-20.3,11c-37.3-0.3-74.6-0.1-111.9-0.1c-12.8,0-18.6-5.9-18.6-18.6
	c0-38,0-75.9,0-113.9c0-12.6,5.8-18.4,18.2-18.4c37.6,0,75.3,0.2,112.9-0.1c9.2-0.1,15.8,2.6,19.7,11.1C512,212,512,255,512,298z
	 M392.2,188.6c0,30.1,0,59.8,0,89.4c30,0,59.6,0,89.4,0c0-29.9,0-59.5,0-89.4C451.8,188.6,422.2,188.6,392.2,188.6z"/>
<path class="st0" d="M0,349c4.6-8.6,11.9-10.5,21.2-10.4c36.8,0.4,73.7,0.1,110.5,0.1c13.9,0,19.2,5.4,19.2,19.4
	c0,37.5,0,75,0,112.5c0,13.2-5.7,18.9-18.8,18.9c-37,0-74-0.2-111,0.1c-9.3,0.1-16.6-2.1-21-10.7C0,435.7,0,392.3,0,349z
	 M30.5,369.2c0,30.1,0,59.8,0,89.5c30.1,0,59.8,0,89.5,0c0-30,0-59.6,0-89.5C90.1,369.2,60.5,369.2,30.5,369.2z"/>
<path class="st0" d="M512,479c-4.4,8.6-11.7,10.8-21,10.7c-36.8-0.3-73.6-0.1-110.4-0.1c-13.9,0-19.4-5.5-19.4-19.3
	c0-37.6,0-75.3,0-112.9c0-13,5.6-18.6,18.4-18.6c37.8,0,75.6,0.2,113.4-0.1c9.1-0.1,15.5,2.9,19,11.3C512,393,512,436,512,479z
	 M392.2,369.2c0,30.1,0,59.9,0,89.5c30.1,0,59.8,0,89.4,0c0-30,0-59.6,0-89.5C451.7,369.2,422.1,369.2,392.2,369.2z"/>
<path class="st0" d="M255.9,158c19.5,0,39,0,58.4,0c10.7,0,16.9,5.8,16.9,16.5c0.1,39.3,0.1,78.6,0,117.9c0,10.3-6.3,16.4-16.6,16.5
	c-39.1,0-78.3,0-117.4,0c-10.3,0-16.6-6.1-16.7-16.4c-0.1-39.5-0.1-78.9,0-118.4c0-10.3,6.3-16.1,16.8-16.1
	C217,158,236.5,158,255.9,158z M300.8,188.7c-30.1,0-59.9,0-89.6,0c0,30,0,59.6,0,89.4c29.9,0,59.6,0,89.6,0
	C300.8,248.2,300.8,218.6,300.8,188.7z"/>
<path class="st0" d="M256.1,338.8c19.2,0,38.3,0,57.5,0c12.1,0,17.7,5.6,17.7,17.7c0,38.5,0,77,0,115.5c0,11.7-5.9,17.6-17.5,17.6
	c-38.5,0-77,0-115.5,0c-11.9,0-17.7-5.9-17.7-17.9c0-38.3,0-76.7,0-115c0-12.4,5.6-17.9,18-17.9C217.8,338.7,237,338.8,256.1,338.8z
	 M211.1,458.7c30.2,0,59.9,0,89.6,0c0-30,0-59.8,0-89.4c-30,0-59.8,0-89.6,0C211.1,399.2,211.1,428.8,211.1,458.7z"/>
<path class="st0" d="M255.9,52.9c-39.5,0-78.9,0-118.4,0c-8.7,0-14.6-4.2-16.5-11.6c-2.1-8.1,2.9-16.5,11.1-18.3
	c2.2-0.5,4.6-0.6,6.9-0.6c78.1,0,156.2,0,234.4,0c2.9,0,6,0.3,8.8,1.3c6.2,2.2,10.4,9.2,9.5,15.4c-1,7.5-6.8,13-14.3,13.7
	c-1.6,0.1-3.3,0.1-5,0.1C333.5,52.9,294.7,52.9,255.9,52.9z"/>
<path class="st0" d="M256.4,75.1c11.8,0,23.6,0,35.5,0c9.8,0,16.9,6.4,17,15.1c0.1,8.8-6.8,15.3-16.8,15.3c-24,0.1-48,0.1-72,0
	c-10,0-16.9-6.3-17-15.1c-0.1-8.9,7.1-15.3,17.3-15.4C232.4,75,244.4,75.1,256.4,75.1z"/>
</svg>
