<?xml version="1.0" encoding="utf-8"?>
<!-- Generator: Adobe Illustrator 27.0.0, SVG Export Plug-In . SVG Version: 6.00 Build 0)  -->
<svg version="1.1" id="圖層_1" xmlns="http://www.w3.org/2000/svg" xmlns:xlink="http://www.w3.org/1999/xlink" x="0px" y="0px"
	 viewBox="0 0 512 512" style="enable-background:new 0 0 512 512;" xml:space="preserve">
<style type="text/css">
	.st0{fill:#FFFFFF;}
</style>
<path class="st0" d="M512,396c0,14.7,0,29.3,0,44c-4.8,11-14,13.5-25.4,12.2c0,2.5,0,4.3,0,6.1c0,10.5-0.4,20.9,0.1,31.4
	c0.5,10.4-2.9,18.1-12.7,22.4c-14.3,0-28.7,0-43,0c-9.8-3.9-13.6-11.2-13.1-21.6c0.5-9,0.1-18,0.1-26.9c0-3.6,0-7.2,0-10.8
	c-28.7,0-56.7,0-85.1,0c0,11.5,0.1,22.6,0,33.7c-0.1,9.5-4.4,16.9-12.5,21.9c-2.3,1.5-5,2.5-7.4,3.7c-38,0-76,0-114,0
	c-11.9-4.7-19.8-12.5-19.9-26.1c-0.1-7.1,0-14.3,0-21.5c0-3.9,0-7.8,0-11.8c-28.8,0-56.8,0-85.1,0c0,12.8-0.4,25.3,0.1,37.7
	c0.4,10.4-3.3,17.6-13.1,21.6c-14.3,0-28.7,0-43,0c-9.8-4.3-13.4-12-12.7-22.4c0.4-5.5,0.1-11,0.1-16.4c0-6.8,0-13.5,0-20.5
	c-1.7-0.2-2.8-0.5-3.9-0.4c-10.1,1-17.2-3.1-21.5-12.4c0-14.7,0-29.3,0-44c4.8-7.3,9.8-14.5,14.3-22c1.5-2.5,2.6-5.8,2.6-8.7
	c0.2-28.3,0.4-56.6,0-85c-0.2-12.5,1.8-23.9,11.4-32.6c-15.1-19.5-15-38.2,0.2-51.8c13.4-11.9,33.8-11.2,46.7,1.3
	c11.2,10.9,16.1,32.6-0.2,49.3c3.9,7.3,7.6,14.3,11.2,21.3c4.2-6.2,9.1-13,13.5-20c1.4-2.2,2.3-5.2,2.3-7.8
	c0.2-29.1,0.3-58.3,0-87.5c-0.1-12.6,1.9-24.1,11.8-32.9c-16.7-16.8-13.6-37.7-1.8-49.9c12.3-12.7,32.5-13.7,46.3-2.4
	c7.1,5.9,11.2,13.6,12.2,22.7c1.3,11.6-3.2,21.3-10.1,28.3c4.1,8.2,7.8,15.5,11.7,23.3c5.6-15.8,19.4-13.9,32.8-13.6
	c0-10-0.1-19.1,0-28.3c0.2-11,4-20.9,11.1-29.3c4.2-4.9,9.5-9,14.3-13.6c-0.3-0.5-0.9-1.2-1.5-2.1c-14.6-20-5.8-46.4,17.9-53.8
	c0.8-0.2,1.5-0.7,2.2-1c4.7,0,9.3,0,14,0c1.2,0.5,2.4,1,3.6,1.4c14.5,5,23.5,17.7,23.5,33c0,8.9-3.6,16.3-8.9,23
	c19.3,13.3,26,26.1,26,49.3c0,6.9,0,13.9,0,21.5c13.8-1.1,27-1.7,32.8,13c3.9-7.7,7.7-15.1,11.6-22.8c-16.2-16.6-11.7-37.4-0.5-48.8
	c12.6-12.8,32.8-13.7,46.6-2c7.1,6,11,13.8,11.9,22.9c1.1,11.4-3.4,21-11.4,29c8.8,8.1,11.8,18.1,11.7,29.4
	c-0.1,30.1-0.1,60.3,0,90.4c0,1.8-0.3,4,0.5,5.4c5.1,8,10.5,15.8,15.3,22.9c3.8-7.1,7.4-14,11.3-21.2c-16.2-16.5-11.6-38.2-0.2-49.3
	c12.7-12.4,33.1-13.1,46.3-1.6c15.5,13.6,15.9,32.2,0.8,51.8c10.3,13.3,11.1,15.6,11.1,32.9c0,22.5,0.8,45-0.3,67.5
	c-0.8,15.6,2,29.1,12.6,40.8C509.3,390.7,510.5,393.5,512,396z M179,400.4c-1.1-35.5,13.5-61.7,45.1-78.1
	c-28.6-25.3-21.6-60.7-4-77.6c19.8-19,50.8-19.5,71-0.6c9.2,8.6,14.6,19.3,15.8,31.9c1.7,18.6-5,33.8-19.4,46.1
	c32.2,16.6,46.6,43.2,45.5,78.5c53.9,0,107.2,0,161,0c-1.1-1.7-1.8-3-2.7-4.2c-55.7-82.5-111.4-165-167-247.6
	c-1.9-2.9-3.9-3.8-7.3-3.8c-40.5,0.1-81,0.1-121.5-0.1c-4,0-6.2,1.3-8.4,4.5C135.1,226.7,82.8,303.9,30.5,381.1
	c-4.2,6.2-8.3,12.4-13,19.3C71.7,400.4,125.1,400.4,179,400.4z M298.9,494.6c14.2,1.2,16.8-1.1,16.8-14.4c0-28.5,0-57,0-85.5
	c0-18.6-6.2-34.7-20.5-46.9c-18.3-15.6-39.3-19.4-61.5-10.4c-21.8,8.9-35.1,25.6-36.6,49.3c-1.5,23.1-0.6,46.3-0.7,69.4
	c-0.1,9.5-0.1,19,0,28.5c0.1,7.2,3.2,10.2,10.5,10.3c1.9,0,3.9,0,6.2,0c0-2.4,0-4.2,0-6c0-22.5,0-45,0-67.5c0-2,0.1-4,0.6-5.9
	c1.2-4.2,4.4-6.2,8.7-5.9c4.1,0.3,6.8,2.6,7.6,6.7c0.4,1.9,0.5,4,0.5,6c0,22.2,0,44.3,0,66.5c0,1.9,0,3.9,0,5.9
	c17.3,0,33.9,0,50.8,0c0-2.3,0-4.3,0-6.3c0-22,0-44,0-66c0-2,0.1-4,0.5-6c0.8-4.1,3.5-6.4,7.6-6.7c4.3-0.3,7.5,1.7,8.7,5.9
	c0.6,1.9,0.6,3.9,0.6,5.9c0,18.8,0,37.6,0,56.5C298.9,483.4,298.9,488.9,298.9,494.6z M255.8,247.7c-18.9,0.1-33.9,15.1-33.9,33.9
	c0,18.8,15.7,34.3,34.5,34c18.8-0.3,33.7-15.6,33.6-34.3C289.9,262.6,274.7,247.6,255.8,247.7z M222.8,127.7c22.2,0,44.6,0,67.2,0
	c0-8.8,0.1-17.3,0-25.8c-0.2-17.6-13.5-31.6-31.5-33.3c-16.7-1.6-32.9,10-35.4,26.9C221.6,105.9,222.8,116.7,222.8,127.7z
	 M17.2,434.7c54.1,0,107.8,0,161.5,0c0-5.6,0-10.9,0-16.2c-54,0-107.7,0-161.5,0C17.2,424,17.2,429.1,17.2,434.7z M494.6,434.9
	c0-5.8,0-11,0-16.4c-54,0-107.7,0-161.4,0c0,5.6,0,10.9,0,16.4C387.1,434.9,440.7,434.9,494.6,434.9z M391.4,217.1
	c0.5-1,0.8-1.3,0.8-1.6c0-24,0.1-48-0.1-72c-0.1-8.1-6.6-14.4-15-15.5c-7.2-1-16.2,3.8-17.3,11.3c-1.5,9.6-0.8,19.5-1,29.3
	c0,0.6,0.5,1.2,0.9,1.7C370.2,185.8,380.7,201.2,391.4,217.1z M119.7,216.3c0.4,0.1,0.8,0.2,1.1,0.4c7-10.3,13.3-21.1,21.1-30.7
	c9.4-11.5,13.4-24,11.5-38.6c-0.1-0.5,0-1,0-1.5c-0.3-10.5-7.3-17.9-16.9-17.9c-9.6,0-16.7,7.5-16.7,17.9c-0.1,17,0,34,0,51
	C119.7,203.4,119.7,209.9,119.7,216.3z M34.2,342.8c0.3,0.1,0.7,0.3,1,0.4c7.2-10.5,13.6-21.6,21.6-31.5
	c9.2-11.4,12.8-23.7,11.4-38.1c-1-9.8-7.4-17.4-16.8-17.6c-9-0.2-17,6.9-17.2,16.6C33.9,296,34.2,319.4,34.2,342.8z M477.6,344.4
	c0.2-2.1,0.3-2.7,0.3-3.3c0-22.3,0-44.6,0-66.9c0-1.6-0.3-3.3-0.6-4.9c-1.8-8.2-9.5-14-17.5-13.3c-8.8,0.7-15.6,7.7-15.8,16.4
	c-0.2,6.6-0.1,13.3,0,20c0,1.3,0.3,2.7,1,3.7C455.5,311.8,466.1,327.5,477.6,344.4z M76.4,494.8c0-14.3,0-28.1,0-42.1
	c-11.3,0-22.2,0-33.2,0c0,14.2,0,28.1,0,42.1C54.4,494.8,65.1,494.8,76.4,494.8z M468.9,452.7c-11.4,0-22.3,0-33.3,0
	c0,14.2,0,28.1,0,42c11.3,0,22.2,0,33.3,0C468.9,480.6,468.9,466.8,468.9,452.7z M256.1,51c9.2-0.1,16.8-7.6,16.9-16.8
	c0.1-9.2-7.9-17.3-17.1-17.2c-9.3,0.1-17.1,8.1-16.9,17.4C239.2,43.6,246.9,51.1,256.1,51z M443.9,221.9c0,9.2,7.5,16.9,16.6,17.1
	c9.2,0.2,17.2-7.8,17.3-17c0-9.1-7.6-16.8-16.7-16.9C451.5,204.9,444,212.3,443.9,221.9z M392.2,94c0-9.5-7.2-16.9-16.5-17
	c-9.6-0.1-17,7.4-17,17c0,9.3,7.6,17,16.8,16.9C384.8,110.9,392.2,103.4,392.2,94z M119.8,93.8c0,9.4,7.4,17,16.6,17.1
	c9.3,0.1,16.8-7.4,16.9-16.8c0.1-9.7-7.3-17.2-16.9-17.2C127.1,77,119.8,84.4,119.8,93.8z M68.1,221.9c0-9.3-7.3-16.9-16.5-17
	c-9.4-0.1-17.2,7.5-17.3,16.9c-0.1,9,7.6,16.9,16.7,17.1C60.1,239.1,68,231.3,68.1,221.9z"/>
</svg>
