<?xml version="1.0" encoding="utf-8"?>
<!-- Generator: Adobe Illustrator 27.0.0, SVG Export Plug-In . SVG Version: 6.00 Build 0)  -->
<svg version="1.1" id="圖層_1" xmlns="http://www.w3.org/2000/svg" xmlns:xlink="http://www.w3.org/1999/xlink" x="0px" y="0px"
	 viewBox="0 0 512 512" style="enable-background:new 0 0 512 512;" xml:space="preserve">
<style type="text/css">
	.st0{fill:#FFFFFF;}
</style>
<path class="st0" d="M352,0c8.5,4.1,9.2,5.4,8,17.1c-2.3,22.7-4.6,45.4-7,68c-0.6,6.1-5.2,9.7-10.9,9.1c-5.5-0.6-9.4-5.4-8.7-11.4
	c2.4-23.7,5.1-47.3,7.3-71c0.6-6.4,3.5-10.1,9.4-11.9C350.7,0,351.3,0,352,0z"/>
<path class="st0" d="M192.4,353.8c7.4,11,14.3,21.1,21.2,31.3c13.9,20.5,27.9,41,41.7,61.6c10.1,15,10.1,33.1,0.4,46.9
	c-13.7,19.6-40.8,22.9-59.2,7.1c-4-3.4-7.5-7.6-10.5-11.9c-22.3-32.5-44.4-65.2-66.6-97.9c-0.9-1.4-1.9-2.7-3-4.2
	c-11.9,7.6-24.6,11-38.6,10.4c-34.1-1.5-55.7-28.5-60.8-52.5c-5.6-26.2,4.6-51.4,26.8-66.7c13.2-9,26.6-17.8,39.6-27
	c3-2.1,5.8-5.1,7.4-8.3c25.3-50.9,50.4-101.9,75.5-152.9c7.9-15.9,23.7-24.1,41.5-22.2c21.3,2.3,39.6,11.7,56,24.5
	c55.2,43.1,92.3,98.4,109.6,166.5c4.3,17.1,5.6,34.6,0.5,51.8c-4.8,16.3-14.6,28.2-32.1,31.2c-8.8,1.5-17.9,1.6-26.9,2.3
	c-27.5,2.2-55.1,4.5-82.6,6.7c-10.3,0.8-20.6,1.5-30.9,2.3C198.8,353.2,196.1,353.5,192.4,353.8z M178.3,123.4
	c-0.3,0.1-0.7,0.2-1,0.3c2.5,12.2,3.9,24.6,7.6,36.4c16.3,52.7,46.2,96.7,87.3,133.2c13.2,11.8,27.9,21.7,45.1,26.9
	c4.8,1.5,10.2,2.7,15,2c11.8-1.8,18.5-10,21.6-21c4.3-15.4,2.7-30.9-1.6-45.8c-16.7-57.9-49.6-105.2-95.6-143.6
	c-13.1-10.9-27.7-19.6-44.7-23.4c-16.6-3.8-29.1,4.4-32.2,21.1C179,114.1,178.8,118.8,178.3,123.4z M160.4,146.9
	c-0.2,0.3-0.6,0.7-0.8,1.1c-16.9,34.3-33.7,68.6-50.4,103.1c-0.7,1.4-0.2,4.2,0.8,5.6c17.1,25.4,34.3,50.7,51.5,76.1
	c1.6,2.4,3.2,3.2,6.1,3c33-2.7,66.1-5.3,99.1-7.9c5.2-0.4,10.4-1,15.8-1.5C220,281,179.5,221.5,160.4,146.9z M144.9,343.9
	c-17.4-25.6-34.3-50.5-51.3-75.6c-13.7,9.4-27,18.1-39.9,27.4c-11.7,8.4-17.5,20.1-17.9,34.5c-0.8,28.6,30.2,60.1,65,42.5
	C116.1,365,129.9,353.8,144.9,343.9z M133.1,375.8c7.4,10.9,14.4,21.2,21.4,31.5c16.5,24.4,33.1,48.7,49.6,73.1
	c5.2,7.7,12.2,12,21.6,10.3c15.8-2.8,22.2-19.4,13-33.1c-22-32.7-44.2-65.2-66.4-97.9c-2.8-4.1-7.3-5.3-11.4-2.7
	C151.7,363,142.7,369.2,133.1,375.8z"/>
<path class="st0" d="M472.8,84.8c-2.5,3.4-3.8,6.7-6.3,8.3c-22.4,15-44.9,29.7-67.5,44.4c-5.3,3.4-11.4,2.1-14.6-2.5
	c-3.2-4.7-1.8-10.7,3.6-14.2c22.3-14.8,44.6-29.6,67.2-43.9c2.7-1.7,7.6-1.9,10.6-0.7C468.6,77.4,470.2,81.4,472.8,84.8z"/>
<path class="st0" d="M408,184.4c12.5,2.2,23.5,4.2,34.4,6.1c15.5,2.8,31,5.7,46.6,8.4c6.7,1.2,10.7,5.7,9.8,11.4
	c-0.9,5.9-6.6,9.5-13.2,8.4c-7.5-1.3-15-2.7-22.6-4.1c-18-3.2-36-6.5-53.9-9.7c-8.8-1.6-13.1-9.6-8.1-15.9
	C402.9,186.7,406.2,185.6,408,184.4z"/>
<path class="st0" d="M249.5,164c24.2,0,44.5,14.6,51.6,37.3c7,21.9-1,46.1-19.5,59.4c-4.5,3.2-9.3,3.5-12.9,0.8
	c-3.8-2.8-5.2-6.8-3.5-11c1-2.4,3.2-4.6,5.3-6.3c10.9-9.1,15.2-20.7,12.1-34.3c-3.1-13.7-12.2-22.3-25.9-25.3
	c-8.6-1.9-16.7-0.1-24.5,4.1c-3,1.6-7.6,2.6-10.6,1.4c-2.7-1-5.6-5.2-5.8-8.2c-0.2-2.9,2.2-7.1,4.8-9
	C229,166.6,238.8,163.8,249.5,164z"/>
</svg>
