<?xml version="1.0" encoding="utf-8"?>
<!-- Generator: Adobe Illustrator 27.0.0, SVG Export Plug-In . SVG Version: 6.00 Build 0)  -->
<svg version="1.1" id="圖層_1" xmlns="http://www.w3.org/2000/svg" xmlns:xlink="http://www.w3.org/1999/xlink" x="0px" y="0px"
	 viewBox="0 0 512 512" style="enable-background:new 0 0 512 512;" xml:space="preserve">
<style type="text/css">
	.st0{fill:#FFFFFF;}
</style>
<path class="st0" d="M445,0c3.8,2.5,5,5.9,5,10.5c-0.1,161.4-0.1,322.9,0,484.3c0,8.5-3.9,13.6-11,17.1c-122,0-244,0-366,0
	c-8.5-3.9-11.1-10.5-11.1-19.6c0.2-160.3,0.1-320.5,0.1-480.8c0-4.8,0.7-8.8,5-11.5c2,0,4,0,6,0c10.9,3.7,21.8,7.4,32.7,11
	c0.7,0.2,1.7,0.2,2.5,0c10.9-3.6,21.9-7.3,32.8-11c2,0,4,0,6,0c10.9,3.7,21.8,7.3,32.8,10.9c1,0.3,2.4,0.3,3.4,0
	c11-3.6,21.9-7.3,32.8-10.9c2,0,4,0,6,0c10.9,3.7,21.8,7.4,32.8,11c0.7,0.2,1.7,0.2,2.5,0c10.9-3.6,21.9-7.3,32.8-11c2,0,4,0,6,0
	c10.9,3.7,21.9,7.3,32.8,10.9c1,0.3,2.4,0.4,3.4,0C343.2,7.3,354.1,3.7,365,0c2,0,4,0,6,0c10.9,3.7,21.9,7.4,32.8,11
	c0.8,0.2,1.7,0.3,2.5,0c10.9-3.6,21.8-7.4,32.7-11C441,0,443,0,445,0z M434.7,496.8c0-159.8,0-319,0-478.8
	c-8.5,2.7-16.8,5.5-25.3,7.9c-2.7,0.7-6,0.8-8.6,0c-9.1-2.6-18.1-5.5-27-8.6c-4.2-1.5-7.9-1.4-12,0.1c-8.9,3.1-18,6-27,8.6
	c-2.5,0.7-5.6,0.7-8.2,0c-9.2-2.7-18.4-5.6-27.5-8.8c-4-1.4-7.6-1.3-11.6,0.1c-8.9,3.1-18,6-27,8.6c-2.7,0.8-6,0.8-8.6,0
	c-9.7-2.8-19.3-6.2-29-9c-2.5-0.7-5.6-0.7-8.1,0c-9.1,2.6-18,6-27.1,8.4c-3.8,1-8.2,1-12,0c-9.3-2.5-18.3-5.9-27.6-8.6
	c-2.4-0.7-5.3-0.6-7.6,0c-9.1,2.6-18,6-27.1,8.4c-3.9,1-8.5,1-12.5,0c-7.9-1.9-15.5-4.8-23.2-7.3c0,159.8,0,319.2,0,478.8
	C196.6,496.8,315.4,496.8,434.7,496.8z"/>
<path class="st0" d="M369.2,434.3c0-8.7,0.1-16.9-0.1-25c0-1.2-1.4-2.9-2.5-3.5c-3.5-1.9-7.4-3.1-10.8-5
	c-10.2-5.7-14.8-14.5-13.5-26.2c1.3-10.9,7.6-17.8,17.6-21.5c2.8-1,5.7-1.6,9-2.6c0.5-3.2,0.6-7.8,5.6-7.1c2.2,0.4,4,3.5,6,5.4
	c-0.3,0.3-0.6,0.6-0.9,0.9c5.8,1.4,11.7,2.4,17.2,4.4c6.3,2.3,7.9,6.8,5.4,12.3c-2.1,4.7-5.2,5.9-10.1,4c-4-1.5-8-3-12.9-4.8
	c0,8.7-0.1,16.3,0.1,23.8c0,0.9,1.5,2,2.5,2.5c3,1.5,6.1,2.6,9,4.2c11,6.1,16.3,16.2,15,28.1c-1.4,13.2-8.4,21.7-21,25.6
	c-1.7,0.5-3.5,1-5.5,1.5c-0.2,3.6,0.3,7.8-5.3,7.6c-4.5-0.1-4.7-3.3-4.9-6.7c-4.7-1.1-9.6-1.6-13.9-3.5c-4.6-2-9-5-12.8-8.3
	c-3.6-3.2-3.6-7.6-1.1-11.9c2.9-5,6.4-5.7,11.2-2.4C357.3,429.8,362,434,369.2,434.3z M378.3,410.9c0,7.9,0,15.4,0,23
	c6.3-1.3,9.3-4.2,9.7-9.3C388.7,418.1,386,414.1,378.3,410.9z M369.9,387c0-6.8,0-13.2,0-19.8c-7.2,1.6-10.3,4.4-10.4,9.2
	C359.4,381.4,362.7,384.9,369.9,387z"/>
<path class="st0" d="M199,161.2c28,0,56,0,83.9,0c1,0,2,0,3,0c7.8,0,11.7,2.7,11.6,7.9c-0.1,5-3.9,7.6-11.4,7.6
	c-25.8,0-51.6,0-77.4,0c-32.5,0-65,0-97.4,0c-7.9,0-11.8-2.5-11.9-7.7c-0.1-5.1,3.9-7.8,11.7-7.8C140.4,161.2,169.7,161.2,199,161.2
	z"/>
<path class="st0" d="M198.5,257.2c28.5,0,57,0,85.4,0c1.2,0,2.3,0,3.5,0c6.5,0.1,10.2,3,10.1,7.9c-0.1,4.7-3.6,7.6-9.9,7.6
	c-59.5,0-118.9,0-178.4,0c-6.2,0-9.8-2.9-9.9-7.6s3.6-7.6,9.6-7.9c1,0,2,0,3,0c13,0,26,0,39,0C166.9,257.2,182.7,257.2,198.5,257.2z
	"/>
<path class="st0" d="M198.3,219.9c-28.8,0-57.6,0-86.4,0c-1.3,0-2.7,0.1-4,0c-5-0.3-8.3-3.3-8.5-7.5c-0.1-4.2,3-7.3,8.1-7.7
	c1.3-0.1,2.7-0.1,4-0.1c58,0,115.9,0,173.9,0c2,0,4,0.1,6,0.4c3.9,0.5,6.4,3.3,5.9,6.8c-0.3,2.6-2.6,5.4-4.8,7.2
	c-1.4,1.2-4.1,0.9-6.2,0.9C256.9,219.9,227.6,219.9,198.3,219.9z"/>
<path class="st0" d="M198.3,315.9c-28.8,0-57.6,0-86.4,0c-1.3,0-2.7,0.1-4,0c-5-0.3-8.3-3.3-8.4-7.5c-0.1-4.2,3.1-7.3,8.1-7.7
	c1.5-0.1,3-0.1,4.5-0.1c57.6,0,115.2,0,172.9,0c2.2,0,4.3,0.1,6.5,0.4c3.9,0.5,6.4,3.3,5.9,6.8c-0.3,2.6-2.6,5.4-4.8,7.2
	c-1.4,1.1-4.1,0.9-6.2,0.9C256.9,315.9,227.6,315.9,198.3,315.9z"/>
<path class="st0" d="M198.5,374.9c29,0,58,0,86.9,0c1.7,0,3.3,0,5,0.1c4.4,0.3,6.6,2.9,7.1,7c0.4,3.8-2.7,7.3-6.8,7.9
	c-1.3,0.2-2.7,0.1-4,0.1c-58.8,0-117.6,0-176.4,0c-1.3,0-2.7,0.1-4-0.1c-4.1-0.6-7.3-4-6.8-7.9c0.5-4.1,2.7-6.7,7.1-7
	c1.7-0.1,3.3-0.1,5-0.1C140.5,374.9,169.5,374.9,198.5,374.9z"/>
<path class="st0" d="M198.2,433c-29.1,0-58.3,0-87.4,0c-1.7,0-3.4,0.1-5-0.1c-4.1-0.6-6.2-3.4-6.3-7.2c-0.1-3.8,2.1-6.6,6.1-7.4
	c1.6-0.3,3.3-0.2,5-0.2c58.6,0,117.3,0,175.9,0c1.5,0,3-0.1,4.5,0.1c4.2,0.7,6.6,3.5,6.5,7.5c-0.1,4-2.5,6.8-6.8,7.3
	c-1.6,0.2-3.3,0.1-5,0.1C256.5,433,227.4,433,198.2,433z"/>
<path class="st0" d="M118.9,92.3c0,5.2-0.2,10.6,0.1,15.8c0.2,4.7-2.2,6.3-6.2,6.6c-4.5,0.2-6.6-1.9-6.6-6.7c0-15.2,0-30.3-0.1-45.4
	c0-4.2,1.7-6.3,5.9-6.2c7,0.2,14,0.3,20.9,0.8c6.3,0.5,11.5,4.9,12.6,11c1.4,7.3,0.8,14.3-5.6,19.5c-0.9,0.7-1.9,1.2-3.2,2.1
	c2.7,4.9,5.4,9.7,8,14.5c2.6,4.8,1.9,7.6-2.4,9.8c-4.1,2.1-6.3,1.2-9-3.9c-2.5-4.9-5-9.8-7.5-14.6C124,91.8,124,91.8,118.9,92.3z
	 M119.1,82c5-0.5,10.6,2.2,13.4-3.2c1.2-2.3,1-6.8-0.5-8.8c-3.2-4.2-8.3-2.1-12.9-2.3C119.1,72.6,119.1,76.9,119.1,82z"/>
<path class="st0" d="M264.2,67.5c0,4.8,0,8.7,0,13.2c3.4,0,6.5,0.1,9.6,0c3.4-0.1,5.6,1.2,5.6,4.7c0.1,3.6-2,5-5.4,4.9
	c-3.1-0.1-6.3,0-9.7,0c0,4.5,0,8.6,0,13.4c5.9,0,11.9,0.1,17.8-0.1c4.2-0.1,6.9,1.1,6.8,5.7c-0.1,4.3-2.8,5.5-6.8,5.4
	c-7.6-0.1-15.3,0-23-0.1c-6.7-0.1-8-1.4-8-7.8c0-14.3,0-28.6,0-42.9c0-6.2,1.3-7.6,7.6-7.7c7.8-0.1,15.6,0,23.5-0.1
	c3.9,0,6.6,1.2,6.6,5.5c0,4.2-2.4,5.8-6.4,5.7C276.5,67.4,270.5,67.5,264.2,67.5z"/>
<path class="st0" d="M335.6,94.3c0,4.8-0.1,9.4,0,14c0.2,4.6-2.4,6.4-6.5,6.3c-4,0-6.3-1.7-6.2-6.4c0.2-15.1,0.2-30.3,0-45.4
	c-0.1-4.6,1.9-6.5,6.1-6.4c6.5,0.1,13,0,19.4,0.7c9.2,1,14.2,7.4,14.4,17.3c0.2,10.2-4.6,17-13.6,18.6
	C345.1,93.7,340.8,93.8,335.6,94.3z M335.9,83.9c4.9-0.3,10.3,1.9,12.9-3.2c1.4-2.8,1.4-7.5,0-10.2c-2.7-4.9-8.1-2.7-12.9-3
	C335.9,73.2,335.9,78.2,335.9,83.9z"/>
<path class="st0" d="M201.7,85.9c0.4-5.6,0.5-11.3,1.4-16.8c0.9-5.7,4.7-9.5,10.2-11.2c6.6-2.1,13.2-1.8,19.4,1.2
	c5.2,2.5,8.2,6.6,8.4,12.6c0.1,3.2-0.2,6.2-4.4,6.5c-3.8,0.3-7.5,0.4-8.2-4.8c-0.6-4.6-3.6-6-7.9-5.5c-4.1,0.5-5.7,3-5.7,6.8
	c0,7.3,0,14.7,0,22c0,4.3,1.8,7.1,6.3,7.4c4.2,0.3,6.7-1.8,7.2-5.9c0.6-4.8,3.5-5.9,7.7-5.6c4.9,0.4,5.5,3.8,4.9,7.5
	c-0.4,2.6-1.2,5.2-2.6,7.4c-4.1,6.4-14.5,9.3-23.5,6.8c-8-2.2-12.3-7.6-12.7-16.4c-0.2-4,0-8,0-12C202,85.9,201.8,85.9,201.7,85.9z"
	/>
<path class="st0" d="M169.3,90.5c0,4.6,0,8.5,0,13.2c6.1,0,12.1,0.1,18,0c4.1-0.1,6.8,1,6.7,5.8c-0.1,4.6-2.9,5.4-6.7,5.3
	c-7.7-0.1-15.3,0-23,0c-6.5-0.1-7.7-1.2-7.7-7.5c0-14.5,0-29,0-43.5c0-6.1,1.1-7.3,7.2-7.4c8-0.1,16,0,24,0c3.7,0,6.1,1.2,6.2,5.4
	c0.1,4.4-2.2,5.9-6.3,5.8c-6.1-0.1-12.2,0-18.5,0c0,4.6,0,8.6,0,13.2c2,0,3.8-0.2,5.5,0c3.9,0.4,10-2,9.9,4.9
	c-0.1,6.8-6.2,4.1-10.1,4.6C172.9,90.5,171.3,90.4,169.3,90.5z"/>
<path class="st0" d="M383.1,67.9c-3.6,0-6.4-0.1-9.2,0c-4,0.1-5.3-2.4-5.4-5.7c-0.1-3.4,1.5-5.8,5.3-5.8c10.5,0,21,0,31.5,0
	c3.9,0,5,2.5,4.9,6c-0.1,3.3-1.4,5.4-5,5.5c-2.8,0-5.6,0-9.1,0c-0.1,1.9-0.2,3.7-0.2,5.4c0,11.5,0,23,0,34.4c0,4.9-1.9,6.9-6.4,6.9
	c-4.5,0-6.3-1.9-6.3-6.9C383,94.7,383.1,81.6,383.1,67.9z"/>
<path class="st0" d="M371.5,161.2c7.7,0,15.3,0,23,0c1.3,0,2.7-0.1,4,0.1c4.2,0.7,7.2,2.8,7.5,7.3c0.2,4.1-2.7,7.7-7.4,7.8
	c-18,0.3-36,0.3-54,0.1c-4.9-0.1-7.6-3.3-7.6-7.6c0-4.4,2.9-7.5,8.1-7.6C353.8,161.1,362.6,161.3,371.5,161.2
	C371.5,161.3,371.5,161.3,371.5,161.2z"/>
<path class="st0" d="M371,272.7c-8.3,0-16.7,0.1-25,0c-6-0.1-9.1-3-9.1-7.7c0-4.4,2.8-7.6,8.1-7.7c17.5-0.2,35-0.2,52.5,0
	c5.4,0,8.6,3.5,8.5,7.9c-0.1,4.4-3.4,7.4-8.9,7.5C388.4,272.9,379.7,272.7,371,272.7z"/>
<path class="st0" d="M371,219.9c-8.5,0-17,0.1-25.5,0c-6.1-0.1-9.5-3.9-8.5-9.1c1-5.2,5-6.1,9.5-6.1c13,0,26,0,39,0
	c3.7,0,7.3-0.1,11,0c6.1,0.2,9.6,3.1,9.5,7.8c-0.2,4.6-3.6,7.4-9.5,7.4C388,219.9,379.5,219.9,371,219.9z"/>
<path class="st0" d="M371,315.9c-8.3,0-16.7,0-25,0c-4.1,0-7.7-1.3-8.9-5.7c-1.4-5.1,1.9-9.4,7.9-9.5c17.5-0.2,35-0.2,52.5,0
	c5.4,0,8.6,3.4,8.4,7.8c-0.2,4.5-3.5,7.3-9,7.4C388.3,316,379.6,315.9,371,315.9z"/>
<path class="st0" d="M298,85.6c0-7.7,0.2-15.3-0.1-23c-0.2-4.6,2.3-6,6.1-6c3.9-0.1,6.7,1.2,6.7,6c-0.1,15.3-0.1,30.6,0,46
	c0,4.7-2.7,6.2-6.7,6.1c-3.7-0.1-6.2-1.6-6.1-6.1C298.2,100.9,298,93.2,298,85.6z"/>
</svg>
