<?xml version="1.0" encoding="utf-8"?>
<!-- Generator: Adobe Illustrator 27.0.0, SVG Export Plug-In . SVG Version: 6.00 Build 0)  -->
<svg version="1.1" id="圖層_1" xmlns="http://www.w3.org/2000/svg" xmlns:xlink="http://www.w3.org/1999/xlink" x="0px" y="0px"
	 viewBox="0 0 512 512" style="enable-background:new 0 0 512 512;" xml:space="preserve">
<style type="text/css">
	.st0{fill:#FFFFFF;}
</style>
<path class="st0" d="M406.6,408.9c-17.2,0-34.3,0-51.5,0c-2.8,0-5.6-0.7-8.4-0.8c-4.5-0.1-9.1-0.2-13.7-0.1
	c-3.5,0.1-6.9,0.8-10.4,0.8c-44.7,0.1-89.3,0-134,0c-3,0-5.9-0.7-8.9-0.8c-4.9-0.1-9.8-0.1-14.7,0c-2.8,0.1-5.6,0.7-8.4,0.7
	c-33.3,0-66.7-0.4-100,0.2c-24.3,0.4-43.6-14.3-48-38c-5.5-30.1,2.1-56.5,25.8-77c8-7,17.8-10,28.6-10.1c4.6,0,8.3,1.2,11.8,4.2
	c11.7,9.9,25.2,14.9,40.2,10.6c7.3-2.1,13.7-7.1,20.6-10.6c3.3-1.6,6.9-2.6,10.3-4.2c1.8-0.8,3.8-1.8,4.9-3.3
	c10.6-14.1,23.8-24.2,41.6-27.1c8.8-1.4,16.7-0.9,24.6,5.5c24.3,19.7,51.7,20.1,76.4,0.8c10.1-7.9,19.9-7.9,30.8-5.2
	c15.6,3.8,27.1,13.6,36.7,26.1c1.3,1.6,3.9,2.3,5.9,3.3c3.2,1.6,6.8,2.5,9.6,4.6c9.4,7.2,19.5,11.9,31.7,11.5
	c9.7-0.4,18.6-3.4,25.6-9.8c8.5-7.8,17.6-7.3,27.5-4.6c13.4,3.8,23.2,12.3,30.3,23.9c13.1,21.5,17.8,44.4,9.5,68.7
	c-6.6,19.3-23.1,30.5-43.5,30.5C440.6,408.9,423.6,408.9,406.6,408.9z M326.5,390.4c2.5-0.4,4.2-0.4,6-0.9
	c13.6-3.4,22.8-12.1,26.4-25.4c8.3-30.8,1.7-58.4-20.8-81.4c-4.5-4.6-11.3-7.5-17.4-10.2c-5.8-2.6-11.2-1.7-17,2.7
	c-29.2,22.2-64.5,22.8-93.9,0.9c-7.9-5.9-14.8-5.9-22.4-2.2c-5.2,2.5-10.4,5.6-14.4,9.6c-18.7,18.9-24.8,42.4-22.7,68.2
	c0.8,9.2,3.7,17.9,9.7,25.3c6.5,8,14.8,12.4,25.7,13.3c0-2.4,0-4.2,0-6c0-13.2-0.1-26.3,0-39.5c0.1-6.5,3.6-10.2,9.2-10.1
	c5.5,0.1,8.9,4,9,10.4c0.1,9,0,18,0,27c0,6,0,11.9,0,18.1c34.9,0,69.4,0,104.2,0c0-2.1,0-3.9,0-5.7c0-12.8,0-25.7,0-38.5
	c0-7.2,3.4-11.2,9.2-11.3c5.8,0,9.1,3.9,9.2,11.2c0.1,12,0,24,0,36C326.5,384.6,326.5,387.2,326.5,390.4z M48.9,389.9
	c0-11-0.3-21.6,0.2-32.3c0.2-3,1.9-7,4.2-8.8c5.9-4.5,13.5,0.3,13.6,8.3c0.1,11,0,21.9,0,33.1c26.8,0,53.1,0,79.9,0
	c-18.3-24.8-17.8-51.7-10.7-79.8c-25.8,12.6-49.4,10.1-71.6-7c-1.1-0.9-3.1-1-4.6-0.9c-8.8,1.1-15.6,5.6-20.9,12.4
	C27.3,330,23,347.2,26.1,366C28.3,379.2,36.7,388,48.9,389.9z M463.1,390.2c12.2-2.5,19.1-9.7,21.8-20.5c5.2-21,0.5-40-13.4-56.4
	c-3.6-4.2-9.2-7-14.3-9.6c-4.3-2.2-8.4-1.7-12.8,1.6c-11.5,8.9-24.7,13.3-39.5,12.9c-10.2-0.3-19.4-3.2-29-8
	c7.5,28.5,7.6,55.3-10.5,80c26.9,0,53.1,0,79.8,0c0-11.1-0.2-21.9,0.2-32.7c0.1-2.8,1.5-6.6,3.6-8.1c2.3-1.6,6.3-1.8,9.2-1.1
	c3.6,0.9,5.1,4.4,5.1,8.3C463,367.6,463.1,378.6,463.1,390.2z"/>
<path class="st0" d="M255.9,242.4c-38.2-0.2-69.2-31.4-69-69.5c0.2-38.9,31.2-69.9,69.9-69.7c38.4,0.2,69.4,31.8,69.1,70.6
	C325.7,211.6,294.1,242.7,255.9,242.4z M256.4,224.1c28.5-0.1,51.5-23.1,51.4-51.4c-0.1-28.2-23.2-51.2-51.2-51.1
	c-28.9,0.1-51.7,22.9-51.6,51.7C205,201.3,228.2,224.2,256.4,224.1z"/>
<path class="st0" d="M49.8,223.7c0.1-30.8,25.3-55.7,56.2-55.5c30.4,0.1,55.4,25.3,55.5,55.9c0.1,30.9-25.3,56.1-56.4,55.9
	C74.3,279.8,49.7,254.7,49.8,223.7z M143.1,224.1c0-20.8-16.5-37.5-37.2-37.6c-21.2-0.1-38.1,16.7-38,37.9
	c0,20.5,17.1,37.5,37.5,37.5C126.3,262,143.2,245,143.1,224.1z"/>
<path class="st0" d="M407,280c-31.1,0-56-25-55.9-56.3c0-30.6,25.5-55.7,56.3-55.5c30.4,0.1,55.5,25.5,55.5,55.9
	C462.9,254.9,437.7,280,407,280z M444.6,224.2c0.1-20.6-16.6-37.6-37.2-37.7c-21.1-0.1-38.3,16.8-38.2,37.8
	c0,20.3,17.2,37.5,37.6,37.6C427.4,262,444.5,245,444.6,224.2z"/>
</svg>
