<?xml version="1.0" encoding="utf-8"?>
<!-- Generator: Adobe Illustrator 27.0.0, SVG Export Plug-In . SVG Version: 6.00 Build 0)  -->
<svg version="1.1" id="圖層_1" xmlns="http://www.w3.org/2000/svg" xmlns:xlink="http://www.w3.org/1999/xlink" x="0px" y="0px"
	 viewBox="0 0 512 512" style="enable-background:new 0 0 512 512;" xml:space="preserve">
<style type="text/css">
	.st0{fill:#FFFFFF;}
</style>
<path class="st0" d="M481,512c-150,0-300,0-450,0c-15.7-5.4-20.9-16.8-20.9-32.8c0.3-94,0.1-188,0.1-282c0-56.2,0-112.3,0-168.5
	c0-8,1.6-15.5,7.8-20.9c3.8-3.3,8.6-5.3,13-7.9c150,0,300,0,450,0c15.7,5.4,21,16.8,20.9,32.8c-0.4,64.8-0.1,129.6-0.1,194.5
	c0,85,0,170,0,255c0,8.3-1.5,16.2-7.8,21.9C490.3,507.4,485.4,509.4,481,512z M248.9,13.9c-1.6-0.1-2.8-0.2-3.9-0.2
	c-68.8,0-137.7,0-206.5,0c-9.8,0-14.5,4.9-14.5,14.9c0,151.5,0,303,0,454.5c0,10.1,4.9,14.9,15.1,14.9c68.2,0,136.3,0,204.5,0
	c1.8,0,3.5,0,5.4,0C248.9,336.4,248.9,175.4,248.9,13.9z M263.1,498.1c2.3,0,4.1,0,5.9,0c67.7,0,135.3,0,203,0
	c11.4,0,15.6-4.2,15.6-15.7c0-151,0-302,0-453c0-11.6-4.1-15.7-15.6-15.7c-67.8,0-135.7,0-203.5,0c-1.8,0-3.5,0-5.4,0
	C263.1,175.4,263.1,336.4,263.1,498.1z"/>
<path class="st0" d="M178.5,196.7c12.7,0,24.4,0,36,0c1.7,0,3.8-0.5,4.9,0.3c2.2,1.6,4.7,3.6,5.5,6c1.1,3.3-0.9,6.2-4.5,7.2
	c-1.9,0.5-3.9,0.5-5.9,0.5c-53.6,0-107.3,0-161,0c-0.7,0-1.3,0-2,0c-5.7-0.1-9.1-2.8-9.1-7.1c0-4.2,3.4-6.9,9.1-7
	c12.3-0.1,24.5,0,38.2,0c-22.4-17.9-33.3-40.1-31.5-67.6c1.3-20.7,10.3-38,25.8-51.8c30.1-26.7,76.8-24.3,105.2,5.2
	C216.6,110.8,220.4,164.3,178.5,196.7z M196.2,135c0.1-34.4-27.4-62.2-61.8-62.6c-33.9-0.3-62.3,27.6-62.4,61.4
	c-0.2,34.8,27.4,62.7,62.1,62.8C168,196.8,196.1,169,196.2,135z"/>
<path class="st0" d="M134,318.1c26.8,0,53.7,0,80.5,0c1.3,0,2.7-0.1,4,0c4.2,0.4,6.9,3.2,6.7,7.2c-0.2,4.2-2.8,6.2-6.8,6.6
	c-1.2,0.1-2.3,0-3.5,0c-53.8,0-107.7,0-161.5,0c-7.3,0-10.8-2.1-10.9-6.7c-0.1-4.8,3.4-7.1,11-7.1C80.3,318.1,107.2,318.1,134,318.1
	z"/>
<path class="st0" d="M133.5,392.8c-26.8,0-53.7,0-80.5,0c-2,0-4.5,0.3-5.8-0.8c-2-1.8-4.2-4.4-4.4-6.9c-0.4-3.4,2.2-5.8,5.9-6.2
	c1.7-0.2,3.3-0.2,5-0.2c53.7,0,107.3,0,161,0c1.5,0,3,0,4.5,0.1c3.7,0.4,5.7,2.5,6,6.2c0.3,3.6-1.3,6.2-4.7,7.3
	c-1.7,0.5-3.6,0.5-5.4,0.5C187.8,392.8,160.7,392.8,133.5,392.8z"/>
<path class="st0" d="M134,453.2c-27,0-54,0-81,0c-1.8,0-4.2,0.5-5.4-0.4c-2.1-1.7-4.7-4.2-4.8-6.5c-0.1-2,2.7-4.5,4.7-6.1
	c1.1-0.9,3.2-0.5,4.9-0.5c54.5,0,108.9,0,163.4,0c1.3,0,2.7,0,4,0.2c3.6,0.7,5.5,3.1,5.3,6.7c-0.1,3.6-1.9,6.1-5.7,6.4
	c-4.5,0.3-9,0.2-13.5,0.2C182,453.2,158,453.2,134,453.2z"/>
<path class="st0" d="M133.5,271.1c-17.5,0-35,0-52.5,0c-5.6,0-8.7-2.4-8.9-6.5c-0.2-4.3,3.1-7,9-7c35.3,0,70.6,0,106,0
	c3.9,0,7.4,0.9,8.6,5.2c1.3,4.5-2.2,8.4-7.8,8.4C169.8,271.2,151.7,271.1,133.5,271.1z"/>
<path class="st0" d="M331,196.7c-40.5-31.5-39.6-83.2-11.9-113.2c28.8-31.2,76-33,107.7-4.8c29.1,26,37.6,83.4-6.8,118
	c6.8,0,12.7,0,18.6,0c6.3,0,12.7-0.1,19,0c5.8,0.1,9.1,2.6,9.2,6.9c0.1,4.5-3.4,7.2-9.5,7.2c-47.5,0-94.9,0-142.4,0
	c-7.5,0-15,0.1-22.5,0c-5.4-0.1-8.5-2.6-8.5-7c0-4.5,2.8-7,8.4-7.1C304.9,196.6,317.3,196.7,331,196.7z M437.4,134.8
	c0-34.5-27.6-62.2-62.1-62.4c-34-0.1-62.3,28.3-62.2,62.4c0.1,33.9,28.4,62,62.2,61.9C409.6,196.6,437.4,168.9,437.4,134.8z"/>
<path class="st0" d="M375.7,378.8c26.5,0,53,0,79.4,0c1.8,0,3.7,0,5.5,0.1c3.7,0.3,5.8,2.7,6.1,6.1c0.4,3.5-1.4,6.2-4.9,7.2
	c-1.5,0.5-3.3,0.5-4.9,0.5c-54.5,0-108.9,0-163.4,0c-2.1,0-4.9,0-6.1-1.2c-1.7-1.8-3.5-4.9-3.1-7.1c0.4-2.1,3.2-4.1,5.4-5.4
	c1.4-0.8,3.6-0.3,5.4-0.3C322.1,378.8,348.9,378.8,375.7,378.8z"/>
<path class="st0" d="M375.2,331.9c-26.8,0-53.6,0-80.4,0c-1.5,0-3,0.2-4.5-0.1c-3.7-0.6-6.1-2.7-6.2-6.6c0-4.1,2.3-6.4,6.3-7.1
	c1.3-0.2,2.7-0.1,4-0.1c54,0,107.9,0,161.9,0c1.2,0,2.3-0.1,3.5,0c4.2,0.3,7.3,3.3,7.1,6.9c-0.3,4.3-3,6.5-7.2,6.8
	c-2.1,0.2-4.3,0-6.5,0C427.2,331.9,401.2,331.9,375.2,331.9z"/>
<path class="st0" d="M375,453.2c-26.8,0-53.6,0-80.4,0c-1.7,0-3.4,0.1-5-0.2c-3.7-0.6-5.5-3-5.5-6.6c0-3.6,1.9-6,5.5-6.5
	c1.6-0.3,3.3-0.2,5-0.2c53.8,0,107.5,0,161.3,0c7.6,0,10.8,1.9,11,6.5c0.2,4.8-3.3,7-11,7C428.9,453.2,402,453.2,375,453.2z"/>
<path class="st0" d="M375,271.1c-17.8,0-35.6,0-53.5,0c-4,0-6.9-1.3-7.9-5.3c-0.9-3.9,0.9-6.5,4.5-7.7c1.7-0.6,3.6-0.5,5.4-0.5
	c34.5,0,69,0,103.4,0c1.2,0,2.3,0,3.5,0.1c4,0.4,6.5,2.5,6.5,6.7c0,4.1-2.5,6.7-7,6.7c-14.2,0.1-28.3,0-42.5,0
	C383.3,271.1,379.2,271.1,375,271.1z"/>
<path class="st0" d="M157.1,152.4c-0.3,7.4-4.2,14.5-12.6,18.6c-3,1.4-3.8,3.1-3.5,6.1c0.2,2,0.2,4,0,6c-0.4,3.9-2.8,5.9-6.7,6.1
	c-3.9,0.2-7.4-2-6.9-5.6c1.1-8.1-2.7-12.3-9-16.4c-5.4-3.6-7.5-10-7.3-16.7c0.1-3.7,2-6,5.6-6.6c3.8-0.6,6.4,1.1,7.6,4.8
	c0.3,1.1,0.4,2.3,0.7,3.4c0.9,4.5,4.8,7.7,9.2,7.7c4.2,0,8.2-3.3,8.9-7.4c0.9-4.8-1.5-9.1-6.1-10.7c-1.4-0.5-2.9-0.6-4.4-0.7
	c-10.3-0.7-18.9-8.1-21.2-18.2c-2.2-9.6,2.5-20.2,11.6-24.8c3.4-1.8,4.6-3.7,4.1-7.3c-0.2-1.5-0.2-3,0-4.5c0.6-4,2.8-6.4,7-6.3
	c4.1,0.1,7.1,2.5,6.7,6.5c-0.7,6.6,1.5,10.3,7.3,13.7c6,3.4,8.9,9.8,8.9,16.9c0.1,4.6-2.5,7.7-6.5,7.9c-3.8,0.2-6.7-2.6-7.5-7.2
	c-1.1-6.3-3.9-8.9-9.4-8.8c-5,0.1-8.6,3.4-8.9,8.2c-0.4,5.1,2.7,9.2,7.7,10c2.8,0.5,5.7,0.6,8.4,1.3
	C150.6,131.2,157.1,140.2,157.1,152.4z"/>
<path class="st0" d="M398.3,117.1c0.1,4.3-1.9,7.3-6.2,7.7c-4.3,0.4-6.7-2.1-7.3-6.5c-0.6-4.9-2.7-8.7-8.1-9.3
	c-4.7-0.6-8.1,1.2-10,5.6c-2.3,5.4,1.1,11.5,6.9,12.5c3,0.5,6,0.6,8.8,1.5c9.2,3.2,14.6,9.6,15.6,19.4c1,10.1-3.1,18.1-12.1,22.7
	c-3.4,1.7-4.2,3.6-4,6.9c0.1,1.6,0,3.3,0,5c-0.2,4.2-2.6,6.4-6.7,6.5c-4.1,0.1-7.4-2.4-7-6.2c0.9-7.4-2.2-11.5-8.3-15.3
	c-5.4-3.4-7.7-9.5-8-15.9c-0.3-4.7,2.2-7.7,6.3-8c4.2-0.4,6.8,2,7.6,6.7c1,5.8,4.4,9.3,9.3,9.3c4.4,0,8.4-3.3,9.2-7.7
	c1.2-6-3.2-10.7-10.3-11.1c-13.3-0.9-23-11.6-22-24.7c0.6-8.6,5.2-15.1,12.9-18.9c2.6-1.3,3.4-2.7,3.2-5.3c-0.2-2.2-0.3-4.4,0.2-6.5
	c0.9-3.8,3.4-6.1,7.6-5.7c3.9,0.4,5.9,2.7,6.1,6.6c0,0.3,0.1,0.7,0,1c-0.8,5.4,0.6,8.9,6.1,11.7C394.9,102.7,398,109.4,398.3,117.1z
	"/>
</svg>
