<?xml version="1.0" encoding="utf-8"?>
<!-- Generator: Adobe Illustrator 27.0.0, SVG Export Plug-In . SVG Version: 6.00 Build 0)  -->
<svg version="1.1" id="圖層_1" xmlns="http://www.w3.org/2000/svg" xmlns:xlink="http://www.w3.org/1999/xlink" x="0px" y="0px"
	 viewBox="0 0 512 512" style="enable-background:new 0 0 512 512;" xml:space="preserve">
<style type="text/css">
	.st0{fill:#FFFFFF;}
</style>
<g>
	<path class="st0" d="M91.8,302.4c0-5.5,4.7-10.3,10.1-10.2c5.4,0.1,10.1,5,10,10.5c-0.1,5.4-4.5,9.9-9.9,10
		C96.6,312.7,91.9,307.9,91.8,302.4z"/>
	<g>
		<path class="st0" d="M121.1,512c-5.4-3.1-11.3-5.6-16-9.5c-7.1-6-8.7-14.6-8.7-23.6c0-26.2-0.1-52.3,0.1-78.5c0-3.9-0.9-5.6-4.9-7
			c-48.8-16.4-78.4-50.1-87-100.9c-9.6-56.6,25.2-115.1,79.1-134.4c43.6-15.6,84.1-9.1,121,18.8c0.8,0.6,1.6,1.1,3.4,2.4
			c0-2.3,0-4,0-5.7c0-48.7,0.3-97.3-0.2-146c-0.1-13.1,3.7-22.6,16.1-27.7c66.3,0,132.7,0,199,0c0.9,1.4,1.7,2.8,2.6,4.2
			c26.9,37.9,53.8,75.7,80.6,113.7c1.6,2.2,2.6,5.4,2.6,8.2c0.2,28.7,0.1,57.3,0.1,86c0,58.1,0,116.3,0,174.4
			c0,9.4-3.5,16.8-12.1,20.6c-4.1,1.8-9,2.4-13.5,2.4c-83.3,0.1-166.6,0.1-249.9,0.1c-2,0-4-0.1-6-0.4c-11.9-1.4-19.3-9.8-19.4-21.9
			c-0.1-5.6,0-11.2,0-17.6c-1.9,1.3-3.1,2-4.2,2.9c-12.1,9.4-25.3,16.6-40.1,20.7c-4.2,1.2-5.6,3-5.6,7.5
			c0.2,27.8,0.1,55.6-0.2,83.5c-0.1,10.7-6,18.4-15.1,23.7c-2.8,1.6-5.9,2.7-8.9,4.1C129.7,512,125.4,512,121.1,512z M488.5,132.9
			c-2.1,0-3.9,0-5.7,0c-19.5,0-39,0-58.5,0c-12.5,0-16.2-3.7-16.2-15.9c0-30.3,0-60.7,0-91c0-1.9,0-3.8,0-5.9c-2.3,0-3.8,0-5.3,0
			c-56.2,0-112.3,0.1-168.5-0.1c-4.8,0-6.2,1.3-6.1,6.1c0.2,56.3,0.1,112.7,0,169c0,4.4,1.3,7.8,3.6,11.5
			c25.2,40.8,27.8,83.1,5.6,125.6c-6.5,12.4-10.3,23.9-9.1,37.6c0.5,6.2,0.1,12.5,0.1,19c87.1,0,173.5,0,260.2,0
			C488.5,303.6,488.5,218.7,488.5,132.9z M127.6,378.6c57.3-0.1,104.7-47.3,104.2-104.3c-0.6-58.5-46.8-104-104.4-104
			c-57.5,0-103.7,46.7-104,104C23.1,331.4,70.4,378.7,127.6,378.6z M425.2,38.5c0,26.7,0,51.9,0,77.1c18.3,0,36.3,0,54.8,0
			C461.7,89.9,443.8,64.8,425.2,38.5z M117.6,398.9c-0.3,0.7-0.6,1-0.6,1.3c0,27.4-0.1,54.9-0.1,82.3c0,4.3,2.7,7.1,6.6,8.5
			c7.7,2.8,14.5-2.1,14.5-10.5c0.1-26.1,0-52.2,0-78.3c0-1.1-0.3-2.1-0.5-3.3C130.8,398.9,124.3,398.9,117.6,398.9z"/>
		<path class="st0" d="M127.8,185.1c49.1,0.2,89.4,40.7,89.1,89.6c-0.2,49-40.8,89.4-89.7,89.1c-49-0.2-89.3-40.8-89.1-89.7
			C38.4,225.1,78.9,184.9,127.8,185.1z M127.4,205.5c-38.2,0.2-68.9,31.1-68.8,69.1c0.2,38.3,30.9,68.9,69,68.7
			c38.2-0.1,68.9-30.9,68.8-69C196.4,236.2,165.4,205.3,127.4,205.5z"/>
		<path class="st0" d="M78.1,274.2c0.6-21.2,13.2-38.8,32.6-46.1c6-2.3,11.7-0.3,13.9,4.9c2.4,5.6,0.3,11.1-6.1,13.7
			c-9.6,3.9-16.3,10.2-18.9,20.3c-0.8,2.9-0.8,5.9-1.2,8.9c-0.8,6.6-4.7,10.8-10.2,10.6c-6.1-0.2-10-4.9-10-12
			C78.1,274.2,78.1,273.8,78.1,274.2z"/>
		<path class="st0" d="M423.1,249.9c-2.8-6.1-5.5-12.3-8.4-18.4c0,0,0,0,0-0.1c-0.1-0.1-0.2-0.2-0.3-0.3c-5.3-7-11.7-12.4-20.4-14.5
			c-6-1.5-11.5-1.5-17.1,2.9c-13.7,10.8-29,10.5-42.5-0.4c-4.4-3.6-8.8-3.8-13.7-3.1c-9.6,1.6-16.8,6.9-22.6,14.4
			c-3.2,6.6-6.5,13.1-9.4,19.8c-3.3,14.6-3,28.7,6.6,41.6h-0.5c0.5,0.3,1,0.8,1.3,1.3c0.5,0.4,1,0.8,1.4,1.3c3,1.7,6,3.5,8.8,5.6
			c1.4,0.3,2.8,0.6,4.2,0.8c0.6,0.1,1.2,0.4,1.6,0.9c0.5,0,1,0,1.5,0c1.7,0,3.3,0.4,5,0.4c24.8,0,49.6,0,74.4,0
			c1.9,0,3.9-0.4,5.8-0.5c0.1,0,0.2,0,0.3,0c6.9-3.4,13.4-7.4,19.2-12.3C426.3,277.2,426.5,264,423.1,249.9z M413.1,277.5
			c-2,7.4-7.1,12.2-14.7,14.1c-1,0.2-1.9,0.3-3.3,0.5c0-1.8,0-3.2,0-4.6c0-6.7,0-13.3,0-20c0-4.1-1.9-6.2-5.1-6.2
			c-3.2,0-5.1,2.3-5.1,6.2c0,7.1,0,14.2,0,21.4v3.2h-57.9v-10c0-5,0-10,0-15c0-3.5-2-5.7-5-5.8c-3.1,0-5,2-5.1,5.6
			c-0.1,7.3,0,14.6,0,21.9v3.4c-6-0.5-10.7-2.9-14.3-7.4c-3.3-4.1-5-8.9-5.4-14c-1.2-14.4,2.2-27.4,12.6-37.9c2.2-2.2,5.1-3.9,8-5.3
			c4.2-2,8.1-2.1,12.5,1.2c16.4,12.1,36,11.9,52.1-0.5c3.2-2.4,6.2-2.9,9.4-1.5c3.4,1.5,7.1,3.1,9.7,5.6
			C414.1,245.1,417.8,260.4,413.1,277.5z"/>
		<path class="st0" d="M356,209.9c-21.2-0.1-38.4-17.5-38.3-38.6c0.1-21.6,17.4-38.8,38.8-38.7c21.3,0.1,38.5,17.7,38.4,39.2
			C394.7,192.8,377.2,210.1,356,209.9z M356.2,199.8c15.8,0,28.6-12.9,28.6-28.6c-0.1-15.6-12.9-28.4-28.5-28.4
			c-16,0-28.7,12.7-28.7,28.7C327.7,187.1,340.5,199.8,356.2,199.8z"/>
	</g>
</g>
</svg>
