<?xml version="1.0" encoding="utf-8"?>
<!-- Generator: Adobe Illustrator 27.0.0, SVG Export Plug-In . SVG Version: 6.00 Build 0)  -->
<svg version="1.1" id="圖層_1" xmlns="http://www.w3.org/2000/svg" xmlns:xlink="http://www.w3.org/1999/xlink" x="0px" y="0px"
	 viewBox="0 0 512 512" style="enable-background:new 0 0 512 512;" xml:space="preserve">
<style type="text/css">
	.st0{fill:#FFFFFF;}
</style>
<path class="st0" d="M389.5,284.7c-89.3,0-177.8,0-266.9,0c0,2.4,0,4.5,0,6.6c0,34.2,0,68.4,0,102.6c0,9.6-2.4,12-12,12.1
	c-11.3,0-22.6,0-33.8,0c-8.5,0-10.8-2.4-10.9-10.8c0-34.6,0-69.1,0-103.7c0-2.1,0-4.2,0-7c-12.1,0-23.6,0-35.2,0
	c-7.3,0-14.7,0.1-22-0.1c-5.3-0.1-8.4-3-8.6-7.6c-0.2-4.7,3.1-8.2,8.4-8.5c3.5-0.2,7.1,0,11.1,0c0-14,0-27.6,0-42.7
	c-1.9,2.1-3.1,3.6-4.4,4.9c-4.5,4.7-8.8,5.3-12.6,1.8c-3.7-3.4-3.4-8.2,0.7-12.7c14.7-16.2,27.6-33.8,38-53.1
	c8.9-16.4,15.8-33.6,19.2-52c1.1-5.8,3.7-7.8,9.6-7.8c14.1-0.1,28.2-0.3,42.4-0.4c6.1-0.1,10.2,3.2,10.2,9.1
	c0.1,18.8,9.3,33.1,22.5,45.2c20.1,18.5,44.6,28.2,70.9,33.2c38,7.1,75.5,5,111.7-9.3c19.8-7.8,37.4-18.8,50.2-36.3
	c7-9.6,11.4-20.1,11.3-32.3c0-6.4,3.9-9.7,10.3-9.6c14.3,0.2,28.6,0.3,42.9,0.3c4.8,0,8,2.4,8.8,7c7.8,41.1,29.7,74.6,56.7,105.3
	c2.6,3,4.7,5.9,3.6,10c-1.5,5.3-8,7.4-12.5,3.8c-2.2-1.7-4-3.9-6.6-6.6c0,14.4,0,28,0,42.2c3.4,0,6.8-0.1,10.1,0
	c5.8,0.1,9.3,3.2,9.4,8.1c0,5-3.3,8-9.2,8.1c-16.6,0.1-33.3,0-49.9,0c-1.9,0-3.9,0-6.6,0c0,2.5,0,4.6,0,6.6c0,34.6,0,69.1,0,103.7
	c0,8.9-2.3,11.2-11,11.2c-11.6,0-23.3,0.1-34.9,0c-8.2,0-10.8-2.8-10.8-11.1c0-34.4,0-68.8,0-103.1
	C389.5,289.5,389.5,287.4,389.5,284.7z M170,268c0.2-1.1,0.4-1.8,0.4-2.5c0-22,0.1-44-0.1-66c0-1.8-1.8-4.1-3.3-5.1
	c-4.5-2.9-9.7-4.8-13.9-8c-10.3-7.7-20.3-16-30-23.7c0,34.3,0,69.7,0,105.3C138.8,268,154.1,268,170,268z M389.1,267.9
	c0-35.8,0-71,0-107.4c-12.9,15.5-28.1,26-45,34.5c-1.4,0.7-2.3,3.8-2.3,5.7c-0.2,19.3-0.1,38.6-0.1,57.9c0,3,0,6,0,9.2
	C357.8,267.9,373.3,267.9,389.1,267.9z M325,203.4c-11.5,2.6-22.4,5.6-33.4,7.3c-11.2,1.8-22.6,2.3-34.2,3.4c0,17.8,0,35.6,0,53.6
	c22.7,0,45.1,0,67.6,0C325,246.1,325,224.9,325,203.4z M82.3,123c0,48.6,0,96.7,0,144.8c8.1,0,15.8,0,23.5,0c0-48.4,0-96.5,0-144.8
	C97.8,123,90.2,123,82.3,123z M406.3,123c0,48.7,0,96.7,0,144.7c8.1,0,15.9,0,23.4,0c0-48.5,0-96.5,0-144.7
	C421.8,123,414.2,123,406.3,123z M240.7,267.9c0-18.4,0-36.4,0-53.5c-18.1-3.5-35.7-6.9-53.5-10.4c0,20.8,0,42.2,0,63.9
	C205.1,267.9,222.7,267.9,240.7,267.9z M65.6,268c0-37.8,0-75.1,0-112.8c-0.7,0.8-1.1,1.1-1.3,1.5c-8.7,15.1-17.4,30.2-26,45.5
	c-1.1,1.9-1.7,4.3-1.7,6.5c-0.1,18.4-0.1,36.8-0.1,55.2c0,1.3,0.3,2.7,0.5,4.1C46.6,268,55.9,268,65.6,268z M446.4,267.9
	c9.9,0,19.2,0,29.2,0c0-2.2,0-4.1,0-6.1c0-17.2,0.2-34.3-0.2-51.5c-0.1-3.5-1.5-7.2-3.2-10.3c-7.7-14-15.8-27.9-23.8-41.8
	c-0.5-0.9-1.1-1.8-2.1-3.3C446.4,193,446.4,230.1,446.4,267.9z M105.7,389.4c0-35.2,0-69.8,0-104.5c-8.1,0-15.8,0-23.5,0
	c0,35.1,0,69.7,0,104.5C90.2,389.4,97.8,389.4,105.7,389.4z M406.3,284.7c0,35,0,69.7,0,104.7c8,0,15.6,0,23.4,0
	c0-35,0-69.7,0-104.7C421.8,284.7,414.2,284.7,406.3,284.7z"/>
</svg>
