<?xml version="1.0" encoding="utf-8"?>
<!-- Generator: Adobe Illustrator 27.0.0, SVG Export Plug-In . SVG Version: 6.00 Build 0)  -->
<svg version="1.1" id="圖層_1" xmlns="http://www.w3.org/2000/svg" xmlns:xlink="http://www.w3.org/1999/xlink" x="0px" y="0px"
	 viewBox="0 0 512 512" style="enable-background:new 0 0 512 512;" xml:space="preserve">
<style type="text/css">
	.st0{fill:#FFFFFF;}
</style>
<path class="st0" d="M0,126c1.7-5.7,3-11.5,5.1-17c11.6-30,43.1-49.8,74.1-46.7c34.3,3.4,61.2,27.9,66.9,60.8
	c7,40.8-20.2,78.9-61.1,85.7c-39.2,6.5-76.9-20.7-84-60.6c-0.1-0.8-0.6-1.5-1-2.2C0,139.3,0,132.7,0,126z M73.6,194.2
	c32.3,0,58.5-26.1,58.5-58.3c0-32.2-26.3-58.5-58.4-58.5c-32,0-58.6,26.5-58.6,58.5C15,167.9,41.4,194.2,73.6,194.2z"/>
<path class="st0" d="M512,144c-1,4-1.9,8.1-3.1,12c-9.4,31.7-40.6,54.2-72.6,52.4c-36.1-2-64.4-26.5-70.4-60.9
	c-5.4-30.8,9-61.5,35.9-76.7c5.4-3.1,9.7-2.4,12.2,1.7c2.5,4.2,1,8.2-4.5,11.4c-22,12.6-32.1,36.2-29.1,57.5
	c3.5,25.6,20.4,44.1,44.4,50.1c31.8,8,64.6-13.1,71.1-45.6c6.4-32.1-16.1-64.4-48.1-69c-2.5-0.3-5-0.5-7.4-0.9
	c-4.4-0.8-6.6-3.7-6.2-8.2c0.3-4.1,3.7-7.4,8.3-6.7c8.1,1.3,16.6,2.5,24.1,5.6c24.7,10.3,39.4,29.1,44.5,55.4c0.2,0.9,0.6,1.8,1,2.7
	C512,131.3,512,137.7,512,144z"/>
<path class="st0" d="M256.6,271.9c58.3,0.1,108.1,42.5,117.2,100c10.2,64.6-35.3,126.8-99.6,135.9c-64.8,9.2-124.9-34.7-134.9-99.1
	c-3.7-23.6-0.6-46.4,9.6-68.2c2.9-6.1,6.6-8.1,11.1-6c4.4,2,5.3,6.4,2.6,12.5c-26.6,59.2,5.1,126.4,67.6,143.3
	c57.5,15.6,117.8-22.7,127.9-81.3c10-58.1-27.5-111.4-85.7-120.8c-33.2-5.3-62.5,4.4-87.3,27.3c-0.6,0.6-1.2,1.2-1.8,1.7
	c-4.2,3.9-8.6,4.2-11.9,0.8c-3.2-3.4-3.1-7.9,1.2-11.4c9.1-7.3,18-14.9,28-20.7C217.8,276,236.7,271.7,256.6,271.9z"/>
<path class="st0" d="M186.5,390.3c-0.1,35.3,28,66.6,61.7,69.8c40.5,3.8,72.1-23.8,77.7-59.1c2.1-13.6,0.4-26.9-5.4-39.5
	c-1.5-3.3-1.9-6.8,1-9.1c2-1.5,5.5-2.7,7.6-2c2.4,0.9,4.7,3.7,5.7,6.2c12.5,30.7,9.4,60.1-11.2,86c-22.7,28.6-53.1,39.3-88.6,30
	c-34.9-9.2-56.1-33-62.6-68.5c-8.6-47.3,25.3-92,73.6-98.3c22.5-3,42.9,2.8,61.2,15.9c6,4.3,7.5,8.8,4.5,12.8
	c-3.1,4.2-7.2,4.1-13.5-0.5c-34.2-25-82.1-14.8-102.8,21.8C189.5,366.6,186.5,378.1,186.5,390.3z"/>
<path class="st0" d="M256.1,150.2c-41.3-0.3-73.5-33.3-73.1-75c0.4-40.5,33.8-72.5,75.5-72.2c39.6,0.3,72,34.1,71.6,74.5
	C329.6,118.1,296.6,150.5,256.1,150.2z M256.8,135.1c32.1,0,58.3-26.5,58.3-58.7c0-32-26.7-58.5-58.7-58.4
	c-32,0.1-58.4,26.7-58.3,58.8C198,108.9,224.5,135.1,256.8,135.1z"/>
<path class="st0" d="M148.2,275.2c-3.4,2.3-6.5,4.4-9.6,6.6c-3.6,2.5-7.4,3-11.3,0.8c-3.8-2.1-5.6-5.5-5.5-9.9
	c0.4-18.3,0.7-36.6,1.2-54.9c0.2-8.1,8.1-13.8,15.8-11.2c17.5,5.7,34.9,11.7,52.3,17.6c4.1,1.4,6.6,4.4,7.2,8.8
	c0.6,4.4-1.3,7.8-4.8,10.3c-2.9,2.1-5.9,4.2-9.4,6.6c1.7,2.5,3.3,4.7,4.8,7c4.4,6.9,3.2,13.5-3.3,18.4c-4.5,3.4-9.2,6.6-13.9,9.7
	c-7.2,4.8-13.9,3.5-19-3.6C151.4,279.5,149.9,277.5,148.2,275.2z M164.6,271.7c3.8-2.7,7.2-5.1,10.8-7.7c-1.4-2.1-2.6-3.8-3.7-5.4
	c-1.1-1.6-2.3-3.3-3.4-4.9c-3.6-5.4-3-8.8,2.3-12.7c2.2-1.6,4.4-3.2,7.2-5.2c-13.8-4.7-26.5-9-40-13.5c0,14.2,0,27.8,0,41.6
	c2.4-1.6,4.6-3.3,7-4.8c5-3.4,8.8-2.7,12.4,2.1C159.5,264.4,161.7,267.7,164.6,271.7z"/>
<path class="st0" d="M328.7,250c-3.5-2.4-6.4-4.6-9.4-6.7c-3.5-2.5-5.4-5.9-4.8-10.3c0.6-4.5,3.3-7.5,7.7-8.9
	c16.8-5.7,33.6-11.5,50.5-17.1c9.4-3.1,17.1,2.4,17.3,12.3c0.4,17.1,0.7,34.3,1.2,51.4c0.1,5-0.8,9.3-5.5,11.9c-4.8,2.6-9,1-13-2
	c-2.5-1.9-5.1-3.6-8-5.5c-2,2.7-3.6,5.2-5.4,7.5c-4.3,5.6-10.9,6.9-16.8,3.1c-5.5-3.5-10.8-7.2-16-11.1c-5.6-4.2-6.7-10.9-3.1-16.9
	C325,255.3,326.7,252.9,328.7,250z M335.2,235.8c2.8,1.9,4.6,3.2,6.5,4.6c6.3,4.5,6.9,7.8,2.6,14.1c-2.1,3.1-4.3,6.2-6.6,9.6
	c3.7,2.6,7.1,4.9,10.8,7.5c2.7-3.8,5.1-7.3,7.6-10.8c3.2-4.4,7.1-5.1,11.7-2.1c2.6,1.6,5.1,3.4,7.5,5.1c0-13.9,0-27.4,0-41.6
	C361.8,226.8,349.1,231.1,335.2,235.8z"/>
<path class="st0" d="M234.7,234.4c-3.8,0-7.1,0-10.4,0c-4.8,0-8.9-1.2-11.2-5.9c-2.3-4.6-1-8.6,1.9-12.5
	c10.3-13.9,20.5-27.9,30.8-41.8c6-8.1,15.4-8.1,21.4-0.1c10.4,14,20.7,28.2,31.1,42.3c2.8,3.8,3.8,7.7,1.7,12.1
	c-2.1,4.5-6.1,5.9-10.7,5.9c-3.3,0-6.6,0-10.9,0c0,2.9,0.1,5.5,0,8.1c-0.4,8.8-5,13.4-13.8,13.5c-5.5,0.1-11,0.1-16.5,0
	c-8.1-0.1-12.9-4.8-13.3-13C234.6,240.4,234.7,237.8,234.7,234.4z M281.4,219.1c-8.7-11.8-16.6-22.6-24.9-33.9
	c-8.3,11.4-16.3,22.2-24.8,33.8c3.5,0,5.9,0,8.2,0c7.2,0.1,9.9,2.8,10,9.9c0,3.9,0,7.8,0,11.6c4.8,0,8.9,0,13.2,0c0-2.5,0-4.7,0-6.8
	c0-2.2-0.1-4.3,0-6.5c0.3-5,3.2-7.9,8.2-8.2C274.3,219,277.3,219.1,281.4,219.1z"/>
<path class="st0" d="M438.4,94.8c22.1,0,40,17.7,40.1,39.9c0.1,22-18.3,40.4-40.4,40.2c-21.8-0.1-40.1-18.5-39.9-40.3
	C398.3,112.6,416.3,94.8,438.4,94.8z M463.1,134.9c0-13.8-10.9-24.8-24.5-24.9c-14-0.1-25,11-24.9,25c0.1,13.7,11.1,24.8,24.8,24.8
	C452.1,159.7,463.1,148.6,463.1,134.9z"/>
<path class="st0" d="M249,433c-5.3-2.9-10.1-5.2-14.6-8c-4.1-2.6-4.9-7.2-2.5-10.8c2.4-3.5,6.3-3.9,10.6-2c4.4,2,9.1,4,13.8,4.7
	c5,0.7,8.2-2.9,10-7.4c1.8-4.6-0.1-8.3-3.6-11c-2.4-1.9-5.5-3-8.3-4.4c-3.5-1.6-7.2-2.7-10.5-4.6c-15.3-9.1-14.9-30.9,0.6-39.4
	c2.9-1.6,4.6-2.9,4.6-6.6c0-4.2,3-6.5,7.3-6.6c4.1-0.1,7.4,2.7,7.4,7c0,3.3,1.2,4.7,4.1,5.7c2.3,0.8,4.5,2.2,6.5,3.7
	c3.2,2.5,3.8,7.2,1.4,10.3c-2.6,3.3-5.9,4.1-9.7,2.2c-2.7-1.3-5.4-2.8-8.2-3.5c-4-1-8.6,1.6-9.6,5.2c-1.2,4.1,0.6,7.3,4.3,9.1
	c3.7,1.8,7.7,3.1,11.6,4.5c10.8,3.7,17.3,10.8,18.3,22.5c0.9,10.5-5.2,21.2-15.2,26c-2.5,1.2-3.4,2.4-3.4,5.1c0.1,5.9-2.8,9.1-7.6,9
	c-4.6-0.1-7.2-3.2-7.3-8.8C249,434.3,249,433.5,249,433z"/>
<path class="st0" d="M73.2,175.9c-21.8-0.1-40.1-18.6-39.8-40.3c0.3-22.2,18.1-39.8,40.3-39.7c22.1,0,40.1,17.9,40.1,39.9
	C113.8,157.9,95.4,176.1,73.2,175.9z M98.3,135.8c0-13.8-10.9-24.8-24.6-24.9c-13.9,0-24.9,11.1-24.8,25.1
	c0.1,13.7,11.3,24.8,24.8,24.7C87.4,160.7,98.3,149.6,98.3,135.8z"/>
<path class="st0" d="M257.7,36.6c21.8,1,38.7,18.1,39.1,39.6c0.4,21-16.6,39.2-38.2,40.5c-9.6,0.6-18.4-2.3-26.1-8.2
	c-4-3-4.9-7.3-2.5-10.9c2.6-3.8,7.2-4.7,11.3-1.3c10.3,8.2,27.7,6.6,35.7-5.6c5.7-8.7,6.1-17.9,0.8-26.8
	c-5.5-9.2-14.1-13.2-24.6-11.8c-9.9,1.3-16.6,7.1-20.2,16.5c-0.5,1.2-0.7,2.6-1.1,3.8c-1.5,4.1-5.3,6.1-9.1,4.9
	c-4.2-1.2-6.3-4.9-5.5-9.3C220.9,49.8,239,35.7,257.7,36.6z"/>
</svg>
