<?xml version="1.0" encoding="utf-8"?>
<!-- Generator: Adobe Illustrator 27.0.0, SVG Export Plug-In . SVG Version: 6.00 Build 0)  -->
<svg version="1.1" id="圖層_1" xmlns="http://www.w3.org/2000/svg" xmlns:xlink="http://www.w3.org/1999/xlink" x="0px" y="0px"
	 viewBox="0 0 512 512" style="enable-background:new 0 0 512 512;" xml:space="preserve">
<style type="text/css">
	.st0{fill:#FFFFFF;}
</style>
<path class="st0" d="M0,39.7c0.3-0.5,0.8-0.9,0.9-1.4C4.3,16.7,21.1-1.3,41.5,0.1c18.6,1.3,33,18.1,36.7,43.1
	c55.7,0,111.4,0,167.2,0c3.1-20.6,12.1-34.9,28.3-41c21.5-8.1,44.4,8.7,49,36c0.8,4.4,2.1,5.6,5.5,5.5c14.5-0.2,29-0.2,43.5-0.1
	c47.5,0.3,86.2,43.2,91.9,101.9c5.9,60.8-30.2,118-79.4,125.6c-4.5,0.7-9,1.1-13.4,1.1c-36.7,0.1-73.3,0-110.4,0
	c-0.5,1.4-1.1,2.8-1.7,4.2c-7.4,17.9-19,28-35.4,28.2c-16.4,0.1-28.2-9.6-35.6-27.6c-1.5-3.8-3.2-4.9-6.4-4.8
	c-24.3,0.2-48.7,0-73,0.1C71.2,272.5,38.7,308.7,35,354c-3.9,48.7,21.2,92.7,59,101.9c9.8,2.4,20.2,1.8,30.6,2.7
	c2.3-15.8,7.9-28,18.3-36.3c6.8-5.4,14.2-8.1,22.2-7.8c19.1,0.8,31.4,14.7,38.4,43.4c1.7,0,3.5,0,5.3,0c61.5,0,123,0,184.5,0.1
	c3.7,0,5.6-1.2,7.7-5.4c2.9-5.5,6.9-10.6,11.3-14.3c2.9-2.5,4-4.5,4-8.6c-0.1-43.1-0.1-86.2-0.1-129.3c0-1.7-0.1-3.3,0.1-5
	c0.6-5.9,3.6-9.9,7.9-10.5c4.1-0.5,7.6,2.8,9,8.6c0.3,1.2,0.5,2.4,1,4.1c3.1,0,6.3,0,9.4,0c18.8,0,37.7,0.1,56.5-0.1
	c5,0,9.1,1.5,11.9,7c0,2.5,0,5,0,7.5c-4.8,8.6-9.5,17.3-14.5,25.7c-1.8,3-1.7,5.2,0,8.1c5,8.5,9.7,17.2,14.5,25.8c0,2.5,0,5,0,7.5
	c-2.7,5.2-6.5,6.8-11.5,6.7c-20.3-0.2-40.7-0.1-61-0.1c-1.8,0-3.6,0-5.8,0c0,16.3-0.1,31.8,0.2,47.3c0,1.6,2.2,3.6,3.7,4.7
	c10.2,7,15.7,20.2,14.3,34.9c-1.2,12.7-9.3,23.9-19.7,27.7c-12,4.3-24.8-2.4-31-16.6c-1.4-3.2-2.9-4.3-5.7-4.3
	c-63.3,0.1-126.7,0.1-190,0c-3.1,0-4.6,1.2-6,4.7c-7.3,18.1-19.3,27.9-35.5,27.9c-16-0.1-27.9-9.8-35.1-27.7
	c-1.5-3.7-3.1-5.1-6.4-4.9c-17.6,0.7-34.8-1-51.2-10.4c-36.6-20.9-57.9-68.5-53-119.3c4.6-47.9,35.7-88.5,74.6-96.9
	c6.7-1.5,13.6-1.6,20.4-1.7c23.5-0.2,47-0.1,70.9-0.1c2.2-15.8,8.1-28.5,19.2-36.9c7.7-5.8,16.1-7.5,24.9-6.6
	c16.6,1.7,29.2,17.2,34.6,43.4c1.7,0,3.5,0,5.3,0c34.2,0,68.3,0,102.5,0c44.6-0.1,77.9-42.8,76.5-98.2
	c-1.1-44.7-31.7-84.6-67.7-87.1c-18.1-1.2-36.3-0.7-54.5-0.7c-1.5,0-3.5,2-4.2,3.7c-7.5,18.6-19.7,28.8-36.3,28.7
	c-16.1-0.1-28.2-10.1-35.2-28.5c-1.5-4-3.5-4.2-6.3-4.1c-33.3,0.1-66.7,0-100,0c-20.8,0-41.7,0-62.5-0.1c-2.5,0-4.2,0.5-5.5,3.8
	c-7.9,19.7-23.2,31.1-38.5,29C18.2,95.1,5.8,81.7,0.9,59.3c-0.2-0.8-0.6-1.5-0.9-2.2C0,51.3,0,45.5,0,39.7z M434,364
	c17.5,0,34.8,0,52.7,0c-2.8-5.1-5.1-9.6-7.7-13.9c-3.4-5.5-3.6-10.7-0.1-16.4c2.7-4.3,5-9,7.8-14.1c-18,0-35.2,0-52.7,0
	C434,334.6,434,349.1,434,364z M284.8,76.1c12.1-0.1,22-12.2,22.1-27.1c0.1-14.9-10.2-27.7-22.3-27.7c-12.3,0.1-22,12.5-21.9,27.9
	C262.9,64.4,272.6,76.2,284.8,76.1z M164.8,436c-12.2-0.4-22.4,11.2-22.8,26c-0.4,15.6,9.4,28.5,21.8,28.8
	c11.7,0.3,21.9-11.8,22.3-26.3C186.5,448.9,177.2,436.4,164.8,436z M61.1,48.6c0-15-9.9-27.3-21.9-27.3C27.1,21.3,16.9,34,17,49.1
	c0.1,15,9.9,27.1,22.1,27.1C51.6,76.3,61.2,64.2,61.1,48.6z M245.3,255.9c-0.1-15.5-9.9-27.4-22.4-27.2c-11.9,0.1-22,12.9-21.8,27.6
	c0.2,14.9,10.2,27.3,22.1,27.3C235.6,283.5,245.3,271.3,245.3,255.9z M425.2,480.1c5.5-0.1,9.8-5.5,9.8-12.3
	c0-6.8-4.8-12.7-10.3-12.5c-5.3,0.2-9.8,5.9-9.8,12.5C415,474.8,419.5,480.2,425.2,480.1z"/>
</svg>
