<?xml version="1.0" encoding="utf-8"?>
<!-- Generator: Adobe Illustrator 27.0.0, SVG Export Plug-In . SVG Version: 6.00 Build 0)  -->
<svg version="1.1" id="圖層_1" xmlns="http://www.w3.org/2000/svg" xmlns:xlink="http://www.w3.org/1999/xlink" x="0px" y="0px"
	 viewBox="0 0 512 512" style="enable-background:new 0 0 512 512;" xml:space="preserve">
<style type="text/css">
	.st0{fill:#FFFFFF;}
</style>
<path class="st0" d="M404,512c-98.7,0-197.4,0-296,0c-1.1-0.4-2.1-0.8-3.2-1c-24.6-5-43.7-27.4-43.7-52.1c0-124.3,0-248.6,0.2-373
	c0-32.2,24.4-55.9,56.6-55.9c7.6,0,15.2,0,23,0c0.2-3.3,0.1-6.1,0.6-8.9c2-11.2,9.3-17.6,19.6-21.1c63.7,0,127.3,0,191,0
	c0.5,0.3,1,0.8,1.6,1c11.3,4.2,17.1,12,17.7,24c0.1,1.6,0.2,3.2,0.2,5c8.6,0,16.6,0,24.5,0c2.7,0,5.4,0,8,0.5
	c28.9,5.2,47,26.9,47,56.3c0,57.6,0,115.3,0,172.9c0,65-0.1,129.9-0.1,194.9c0,20-7.5,36.6-24.3,47.7
	C419.9,506.7,411.6,508.8,404,512z M140.6,60c-6.9,0-13.6,0.3-20.2-0.1c-16-1-29,9.8-29,28.5c0.1,122-0.2,243.9-0.4,365.9
	c0,17.4,10.3,27.7,27.6,27.7c19.3,0,38.7,0,58,0c72.2,0,144.3,0,216.4,0c8.8,0,16.3-2.6,22.1-9.5c4.5-5.5,5.4-11.9,5.4-18.7
	c0.1-75.1,0.3-150.3,0.4-225.4c0.1-47.3,0.1-94.6,0.1-142c0-13.6-7.9-24-21-25.7c-9.3-1.2-18.8-0.2-28.5-0.2
	c-0.1,2.3-0.2,4.4-0.4,6.5c-1,12.9-11.5,22.9-24.5,23c-60.3,0.1-120.6,0.1-181,0c-11.2,0-21-7.7-23.6-18.6
	C141.2,67.8,141.1,64.2,140.6,60z M340.9,30.3c-56.7,0-112.9,0-169.2,0c0,10,0,19.7,0,29.4c56.6,0,112.8,0,169.2,0
	C340.9,49.8,340.9,40.2,340.9,30.3z"/>
<path class="st0" d="M314,400c-17.1,0-34.3,0-51.5,0c-9.7,0-16.4-6-16.5-14.8c-0.1-9,6.6-15.1,16.7-15.1c34.6,0,69.3,0,103.9,0
	c9.8,0,16.4,5.9,16.4,14.8c0.1,9.2-6.5,15.1-16.6,15.1C349,400,331.5,400,314,400z"/>
<path class="st0" d="M314.5,170c17.2,0,34.3,0,51.5,0c10,0,17,6.3,16.9,15.1c-0.1,8.7-7,14.9-16.6,14.9c-34.7,0-69.3,0-104,0
	c-9.6,0-16.3-6.3-16.2-15.1c0.1-8.8,6.7-14.8,16.5-14.9C279.9,170,297.2,170,314.5,170z"/>
<path class="st0" d="M314.5,300c-17.3,0-34.7,0-52,0c-9.7,0-16.4-6.1-16.5-14.9c-0.1-8.8,6.6-15.1,16.2-15.1c34.7,0,69.3,0,104,0
	c9.6,0,16.5,6.2,16.6,14.9C383,293.7,376,300,366,300C348.9,300,331.7,300,314.5,300z"/>
<path class="st0" d="M162.4,179.1c11.7-11.7,22.5-22.8,33.6-33.6c2.5-2.4,5.9-4.5,9.3-5.3c6.6-1.6,12.6,1.6,15.7,7.1
	c3.4,6.1,2.7,12.7-2.3,17.9c-6.2,6.5-12.7,12.8-19,19.1c-8.2,8.2-16.5,16.5-24.8,24.7c-8.2,8.1-16.2,8-24.4-0.1
	c-5.6-5.5-11.1-11-16.6-16.6c-6.4-6.5-6.6-15.9-0.7-21.9c6.1-6.1,15.1-5.9,21.9,0.5C157.5,173.4,159.6,176,162.4,179.1z"/>
<path class="st0" d="M162.5,286.5c11.8-11.9,22.9-23.2,34.2-34.2c9-8.8,22.4-5.4,25.7,6.2c1.6,5.4,0.2,10.4-3.7,14.2
	c-15.1,15.3-30.2,30.5-45.6,45.5c-6.1,6-14.3,6.1-20.7,0.2c-6.8-6.3-13.5-12.9-19.8-19.8c-5.6-6-5-15.2,0.7-20.7
	c5.7-5.5,14.7-5.7,20.8-0.2C157,280.4,159.5,283.4,162.5,286.5z"/>
<path class="st0" d="M162.5,386.5c11.6-11.7,22.7-23,34-34c9-8.9,22.3-5.7,25.8,5.9c1.6,5.4,0.4,10.4-3.5,14.3
	c-15.2,15.4-30.4,30.8-45.9,45.9c-5.8,5.7-13.9,5.9-19.9,0.5c-7.1-6.5-14-13.3-20.5-20.4c-5.5-6-4.7-15.3,1.1-20.7
	c5.6-5.3,14.5-5.5,20.4-0.1C156.9,380.2,159.4,383.2,162.5,386.5z"/>
</svg>
