<?xml version="1.0" encoding="utf-8"?>
<!-- Generator: Adobe Illustrator 27.0.0, SVG Export Plug-In . SVG Version: 6.00 Build 0)  -->
<svg version="1.1" id="圖層_1" xmlns="http://www.w3.org/2000/svg" xmlns:xlink="http://www.w3.org/1999/xlink" x="0px" y="0px"
	 viewBox="0 0 512 512" style="enable-background:new 0 0 512 512;" xml:space="preserve">
<style type="text/css">
	.st0{fill:#FFFFFF;}
</style>
<path class="st0" d="M378,0c8.7,3.5,15.8,8.9,17.5,18.7c0.8,4.9,0,10,0.6,14.9c2,16.8-2.6,31.3-11.9,45.4
	c-11.4,17.4-21,35.9-31.4,53.9c-0.8,1.4-1.7,2.7-3.4,3.9c0-29.8,0-59.6,0-89.8c-101,0-201.4,0-302.1,0c0,139.2,0,278.3,0,417.7
	c100.5,0,200.9,0,301.9,0c0-1.8,0-3.6,0-5.4c0-16-0.1-32,0.1-48c0-2,1.8-4.2,3.1-6c0.8-1.1,2.4-1.8,3.7-2.5
	c16.6-9.1,30.1-21.3,37.7-39.1c0.3-0.6,0.7-1.1,1.1-1.6c0.1-0.1,0.3-0.1,1-0.2c0,1.8,0,3.6,0,5.3c0,38.3-0.4,76.7,0.2,115
	c0.2,14.4-4.4,24.5-18.2,29.6c-120,0-240,0-360,0c-9.4-3.6-15.5-10.1-18-20C0,334.7,0,177.3,0,20C2.5,10.2,8.6,3.6,18,0
	C138,0,258,0,378,0z"/>
<path class="st0" d="M512,113c-45.9,79.5-91.9,158.8-137.4,238.5c-7.5,13.1-16.5,23.4-29.5,31.3c-19.8,12-38.7,25.3-58,38.1
	c-4.1,2.7-8.3,4.3-13.1,2.2c-5-2.2-7.3-6.2-7-11.5c1.1-20.3,2.3-40.6,3.5-60.9c0.5-8,0.6-16,1.7-23.9c0.7-5.3,1.8-10.9,4.4-15.5
	c46.3-80.6,93-161,139.1-241.8c6-10.5,14-13.6,24.6-12.2c24.6,3.3,45.1,14.6,61.3,33.2c4.4,5,6.9,11.6,10.3,17.5
	C512,109.7,512,111.3,512,113z M289,339c-0.5,8.7-1.1,16.8-1.4,24.9c0,1.1,1.1,2.6,2.1,3.2c7.4,4.4,14.8,8.7,22.4,12.9
	c1.1,0.6,3,1,3.9,0.5c7-4.4,13.9-9,21.1-13.8C324,352.3,308.4,343.2,289,339z"/>
<path class="st0" d="M198.3,225c-29.3,0-58.6,0.1-88,0c-11.3-0.1-20.8-8.6-22.4-19.6c-1.7-11.7,4.8-22.4,15.8-25.7
	c3.3-1,6.9-1.4,10.3-1.4c56.1-0.1,112.3-0.1,168.4-0.1c13.4,0,22.9,6.7,25.5,17.9c3.5,14.7-7.1,28.7-22.3,28.8
	C256.6,225.1,227.4,225,198.3,225z"/>
<path class="st0" d="M198.3,91.1c29,0,58-0.1,87,0.1c9.2,0,16.3,4.3,20.7,12.5c4.2,7.8,3.8,15.8-0.9,23.2
	c-5.1,8.1-12.8,11.1-22.1,11.1c-54.5,0-108.9,0-163.4,0c-4.2,0-8.4,0.1-12.4-0.6c-12-2.1-20.4-12.6-19.5-24
	c1-12.8,10.5-22.1,23.2-22.2c27.2-0.2,54.3-0.1,81.5-0.1C194.3,91.1,196.3,91.1,198.3,91.1z"/>
<path class="st0" d="M154.5,312.1c-15.1,0-30.3,0.5-45.4-0.1c-15.8-0.6-26-17.2-19.8-31.8c3.5-8.2,9.8-13.7,19-14.1
	c12.6-0.5,25.3-0.5,37.9-0.4c18,0,36-0.2,53.9,0.4c12.4,0.5,21.6,11.2,21.3,23.3c-0.3,12.4-9.4,22.3-22,22.7
	C184.5,312.5,169.5,312.1,154.5,312.1C154.5,312.1,154.5,312.1,154.5,312.1z"/>
<path class="st0" d="M158.5,386.3c4,3.4,7.7,6.5,12.9,8.2c4.4,1.5,7.4,6.9,11,10.6c18.1,1,37.1,2,56.2,3.1c2.2,0.1,4.3,0.4,6.4,0.8
	c4.8,0.8,7.3,4.2,6.9,9.3c-0.3,4.6-3.3,8-8.1,7.6c-9.9-0.8-19.8-2-29.7-3.4c-12-1.6-23.7-1.9-35,3.9c-7.4,3.8-15.3-0.9-17.4-9.7
	c-2.3,2.2-4.2,5.2-7,6.3c-2.6,1-6.4,0.8-9-0.4c-5.6-2.7-4.1-7.6-1.5-13.3c-1.8,1.3-2.6,1.9-3.4,2.5c-0.8,0.8-1.5,1.8-2.3,2.6
	c-4,4-8.9,4.3-13,1c-3.5-2.9-3.9-6.8-0.8-11.6c2.3-3.8,4.8-7.4,7.2-11.1c-0.4-0.3-0.7-0.6-1.1-0.8c-7.8,9.1-15.7,18.2-23.4,27.3
	c-5.2,6.2-10,12.9-15.6,18.9c-2.2,2.4-6.1,4.4-9.3,4.5c-7.2,0.1-10.6-7-6.2-12.6c19.3-25.5,39.5-50.3,63.6-71.5
	c3.9-3.4,9.4-5.5,14.6-7c5.1-1.5,8.8,1.7,10.4,6.9c2.3,7.8-0.7,14.7-3.5,21.7C160.8,382.2,159.6,384.2,158.5,386.3z"/>
</svg>
