<?xml version="1.0" encoding="utf-8"?>
<!-- Generator: Adobe Illustrator 27.0.0, SVG Export Plug-In . SVG Version: 6.00 Build 0)  -->
<svg version="1.1" id="圖層_1" xmlns="http://www.w3.org/2000/svg" xmlns:xlink="http://www.w3.org/1999/xlink" x="0px" y="0px"
	 viewBox="0 0 512 512" style="enable-background:new 0 0 512 512;" xml:space="preserve">
<style type="text/css">
	.st0{fill:#FFFFFF;}
</style>
<path class="st0" d="M512,382c-2.9,10.1-6.5,19.7-14,27.6c-10.2,10.8-22.5,17.1-37.4,17.3c-21.5,0.3-43,0.2-64.5,0
	c-3.8,0-5.5,1.1-7,4.5c-8.7,20.7-17.5,41.3-26.4,61.9c-3.1,7.2-8.4,9.9-14.6,7.6c-4.8-1.8-7.9-7.1-6.4-12c1.5-4.9,3.5-9.7,5.5-14.4
	c8.3-19.4,16.8-38.7,24.8-58.3c3.1-7.7,7.9-11,16.3-10.9c22.5,0.4,45,0.2,67.5,0.1c17.5-0.1,29.5-8.7,33.5-24.2
	c0.9-3.3,1-6.9,1-10.4c0.1-44.3,0.1-88.7,0-133c0-12.8-5.3-21.1-16.1-23.3c-13.1-2.6-25.3-1.4-34.6,10.5
	c-14.5,18.7-29.7,36.8-44.2,55.5c-4.4,5.7-9.4,8.1-16.6,7.9c-14.3-0.4-28.6-0.1-43-0.1c-12.9,0-16.1,3.2-16,16.2c0,1.3,0,2.6,0,4.5
	c1.8,0.1,3.4,0.3,5,0.3c27,0,54-0.1,81,0.1c3.6,0,5.8-1.3,7.8-4.1c8.2-11.1,16.5-22.2,24.8-33.2c2.9-3.9,6.8-6.1,11.7-5
	c4.4,1,7.9,4,8,8.5c0,3.5-1.4,7.6-3.4,10.5c-8.1,11.4-16.8,22.4-25,33.7c-1.7,2.4-2.8,5.6-2.9,8.5c-0.3,10.3-0.1,20.7-0.1,31
	c0,10.4-4.1,14.4-14.6,14.4c-11.5,0-23,0-34.5,0c-13,0-19.6,4.8-23.7,17.1c-11,33.1-22,66.2-33.1,99.3c-0.8,2.4-1.6,4.8-2.9,6.9
	c-2.5,4-7.5,5.6-11.8,4.1c-4.7-1.6-7.5-5.3-7.3-10.1c0.1-2.1,0.5-4.3,1.2-6.3c11.2-33.7,22.4-67.4,33.8-101.1
	c6.9-20.5,22-31.3,43.6-31.4c9,0,18,0,27.3,0c0-7,0-13.8,0-20.8c-99,0-198.1,0-297.5,0c0,6.7,0,13.5,0,20.8c8,0,15.9,0.1,23.9,0
	c11.6-0.2,22.5,1.8,32,9.1c7.4,5.7,12.1,13.2,15,21.9c11.3,33.9,22.7,67.7,33.8,101.6c1.1,3.3,1.2,7.3,0.3,10.6
	c-1.1,4.1-5,6.3-9.3,6.3c-4.7,0-8.4-2.3-10.1-6.9c-2.3-6.2-4.4-12.5-6.5-18.8c-9.4-28.2-18.8-56.4-28.2-84.6
	c-4.3-12.9-10.7-17.5-24.4-17.5c-11,0-22,0-33,0c-11.9,0-15.6-3.6-15.6-15.4c0-10,0.2-20-0.1-30c-0.1-2.9-1.2-6.2-2.9-8.5
	c-8.3-11.5-16.9-22.7-25.4-34.1c-4.9-6.6-4.3-13.2,1.3-17c5.3-3.5,11.1-2.2,15.6,3.8c8.3,11,16.5,22.2,25,33.1
	c1.4,1.8,4.2,3.6,6.3,3.6c27.8,0.2,55.7,0.2,83.5,0.1c1,0,2-0.2,3.4-0.3c0-3.6,0.3-7.1-0.1-10.5c-0.9-7.1-4.8-10.2-12.9-10.2
	c-15.5-0.1-31-0.2-46.5,0.1c-6.8,0.1-11.6-2.2-15.8-7.6C102,262.2,87.1,243.7,72,225.2c-9.3-11.4-21.4-14.8-35.4-10.4
	c-8.5,2.6-13.9,9.3-14.8,18.1c-0.2,1.8-0.3,3.7-0.3,5.5c0,44,0.1,88,0,132c0,14.2,5,25.6,18.3,31.6c5.2,2.4,11.5,3.2,17.4,3.3
	c22.2,0.4,44.3,0.4,66.5,0c8.1-0.1,13,2.8,16.1,10.4c9.4,22.9,19.4,45.6,29.1,68.3c3.7,8.8,1,15.4-6.9,17.2
	c-5.2,1.2-9.7-1.4-12.4-7.6c-5.9-13.6-11.7-27.2-17.5-40.8c-3.2-7.5-6.6-14.9-9.6-22.5c-1.1-2.8-2.6-3.6-5.5-3.6
	c-20.7,0.1-41.3,0.1-62,0.1c-27.4,0-48-16.6-54-43.4C0.8,383,0.3,382.5,0,382c0-51,0-102,0-153c2.5-10,6.5-19,14.5-26.1
	c12.2-10.7,26.7-11.7,41.8-10.5c13.9,1.1,24.1,9,32.5,19.3c13.9,17.1,27.6,34.2,41.2,51.5c2.2,2.8,4.4,3.8,7.9,3.8
	c13.5-0.2,27-0.1,40.5-0.1c21.4,0,34.5,12.9,34.9,34.3c0.1,2.5,0,4.9,0,7.8c28.3,0,56.2,0,85,0c0-2.3,0-4.8,0-7.2
	c0.2-20.3,10.9-32.4,31.6-35.3c0.1-1.2,0.4-2.4,0.4-3.7c-0.1-21.7,0.1-43.3-0.5-65c-0.5-18-18.7-36.5-36.7-36.9
	c-24.8-0.5-49.6-0.5-74.4,0c-18,0.4-36,18.9-36.8,36.8c-0.5,11.5-0.4,23-0.5,34.5c-0.1,5.3-1.3,10-6.6,12.4
	c-6.2,2.7-14.4-1.1-14.4-7.7c0-18.9-3.2-38,3.6-56.4c9.1-24.7,32.9-41.4,59.1-41.6c21.8-0.1,43.7-0.1,65.5,0
	c34.8,0.2,63.2,28.5,63.3,63.3c0.1,21.3,0,42.6,0,64.7c8.6,0,17.1,0.1,25.5-0.1c1.4,0,3-1.9,4-3.2c14-17.4,28.2-34.6,41.8-52.3
	c18.2-23.7,49.7-23,67.6-13c10.4,5.8,16.7,15,19.9,26.4c0.4,1.4,0.8,2.8,1.2,4.2C512,280,512,331,512,382z"/>
<path class="st0" d="M0,110c2.6-9.5,5.8-18.5,12.3-26.3c18.9-22.8,52-26.1,74.9-7c21.3,17.8,25.9,47.5,10.8,70.1
	c-11.7,17.6-33.3,27.3-52.6,23.6C21.8,165.9,7.1,151.8,1,128.6c-0.2-0.9-0.7-1.8-1-2.6C0,120.6,0,115.3,0,110z M52.7,149.3
	c17.2,0.5,32-13.3,32.4-30.4c0.5-17.8-13.1-32.5-30.3-33C36.5,85.4,22.1,99,21.7,117.1C21.2,134.6,34.9,148.8,52.7,149.3z"/>
<path class="st0" d="M512,126c-2.9,10.1-6.8,19.5-13.9,27.6c-20.7,23.6-60,23.1-79.8-1.3c-18.2-22.5-17.5-50.3,2-71.7
	c20.6-22.7,59.2-21.4,78.8,2.3c6.7,8.1,10.3,17.2,12.9,27.1C512,115.3,512,120.6,512,126z M490.4,118.3
	c0.5-17.2-13.3-31.9-30.4-32.4c-17.8-0.5-32.5,13.1-33,30.3c-0.5,18.3,13.1,32.7,31.2,33.1C475.6,149.7,489.8,136.1,490.4,118.3z"/>
<path class="st0" d="M309.4,64.1c0.3,29.1-24,53.6-53.2,53.7c-29.1,0.1-53.4-24-53.6-53.3c-0.2-28.8,23.6-53.3,52.2-53.5
	C285.1,10.7,309.1,34.1,309.4,64.1z M255.7,96.1c17.7,0.1,32.4-14.4,32.3-31.8c-0.1-17.4-14.4-31.6-31.9-31.7
	c-17.5,0-31.8,14-32,31.5C223.8,81.3,238.4,95.9,255.7,96.1z"/>
<path class="st0" d="M245.5,181.5c6.6,0,12.4-0.1,18.2,0.1c1.1,0.1,3,1.6,3,2.6c0.3,6.1,0.1,12.2,0.1,18.5c-7.4,0-14.3,0-21.4,0
	C245.5,195.7,245.5,188.8,245.5,181.5z"/>
<path class="st0" d="M266.6,352.4c0,49.8,0,99.3,0,149.1c-7.1,0-14,0-21.1,0c0-49.8,0-99.3,0-149.1
	C252.5,352.4,259.4,352.4,266.6,352.4z"/>
</svg>
