<?xml version="1.0" encoding="utf-8"?>
<!-- Generator: Adobe Illustrator 27.0.0, SVG Export Plug-In . SVG Version: 6.00 Build 0)  -->
<svg version="1.1" id="圖層_1" xmlns="http://www.w3.org/2000/svg" xmlns:xlink="http://www.w3.org/1999/xlink" x="0px" y="0px"
	 viewBox="0 0 512 512" style="enable-background:new 0 0 512 512;" xml:space="preserve">
<style type="text/css">
	.st0{fill:#FFFFFF;}
</style>
<path class="st0" d="M365,512c-72.7,0-145.3,0-218,0c-1.1-0.3-2.2-0.7-3.4-0.8c-25.7-2.7-49.5-10.9-71.1-25.2
	c-33.3-22.1-55.8-52.3-66.5-90.8C3.3,385.3,2,375,0,365c0-72.7,0-145.3,0-218c0.3-1.3,0.7-2.5,0.9-3.8C3.6,117.7,11.8,94,26,72.6
	c22.1-33.3,52.3-55.8,90.8-66.5C126.7,3.3,136.9,2,147,0c72.7,0,145.3,0,218,0c1.1,0.3,2.2,0.7,3.4,0.8
	c25.7,2.7,49.5,10.9,71.1,25.2c33.3,22.1,55.8,52.3,66.5,90.8c2.7,9.8,4.1,20.1,6.1,30.1c0,72.7,0,145.3,0,218
	c-0.3,1.3-0.7,2.5-0.9,3.8c-2.8,25.5-11,49.2-25.1,70.6c-22.1,33.3-52.3,55.8-90.8,66.5C385.3,508.6,375.1,510,365,512z M255.8,464
	c31.2,0,62.3,0.1,93.5,0c13.2,0,26.3-1.6,38.8-6.1c47.1-17.1,75.9-58,75.9-108.2c0.1-62.5,0.1-125,0-187.5c0-12.7-1.6-25.2-5.8-37.3
	c-16.8-47.4-57.7-76.7-108-76.9c-62.8-0.2-125.6-0.1-188.5,0c-20.3,0-39.7,4.4-57.2,15C67,85.7,48.3,119.3,48.1,162.8
	c-0.3,58.5-0.1,117,0,175.5c0,8,0.1,16,0.8,24c2.9,31.6,17.1,57.4,41.7,77.2c21.2,17.1,45.8,24.5,72.8,24.5
	C194.2,464,225,464,255.8,464z"/>
<path class="st0" d="M384,256c0,70.7-57.3,128-128,128c-70.7,0-128-57.3-128-128c0-70.7,57.3-128,128-128
	C326.7,128,384,185.3,384,256z M256.2,336c43.8-0.3,79.9-36.5,79.7-80.1c-0.1-43.8-36.3-79.8-80-79.9c-43.9,0-80.4,36.7-80,80.4
	C176.4,300.2,212.7,336.3,256.2,336z"/>
<path class="st0" d="M393.8,135.6c-9.2,0.2-17.3-7.7-17.4-17c-0.2-9.2,7.8-17.3,17-17.4c9.1-0.2,17.2,7.8,17.4,17
	C411,127.3,403.1,135.4,393.8,135.6z"/>
</svg>
