<?xml version="1.0" encoding="utf-8"?>
<!-- Generator: Adobe Illustrator 27.0.0, SVG Export Plug-In . SVG Version: 6.00 Build 0)  -->
<svg version="1.1" id="圖層_1" xmlns="http://www.w3.org/2000/svg" xmlns:xlink="http://www.w3.org/1999/xlink" x="0px" y="0px"
	 viewBox="0 0 512 512" style="enable-background:new 0 0 512 512;" xml:space="preserve">
<style type="text/css">
	.st0{fill:#FFFFFF;}
</style>
<path class="st0" d="M0,251c3.9-5.1,7.4-10.5,11.8-15.1c36.5-38.9,73.1-77.6,109.7-116.4c5.1-5.4,10.8-9.1,18.4-8
	c7.7,1.1,13.2,5.4,15.9,12.7c2.8,7.6,0.7,14.4-4.7,20.2c-10.2,11-20.5,21.8-30.8,32.7c-24,25.4-48.1,50.9-72.1,76.3
	c-0.7,0.7-1.3,1.5-2.3,2.6c1.4,1.5,2.7,2.9,4,4.4c33.5,35.5,67,71,100.5,106.5c5.6,5.9,8.2,12.5,5.5,20.5
	c-2.5,7.5-7.9,11.9-15.6,13.1c-7.4,1.2-13.2-2-18.2-7.3c-11.1-11.8-22.2-23.5-33.3-35.3c-25.7-27.3-51.5-54.5-77.1-81.8
	C7.4,271.5,3.9,266.1,0,261C0,257.7,0,254.3,0,251z"/>
<path class="st0" d="M512,261c-3.9,5.1-7.4,10.5-11.8,15.1c-36.5,38.9-73.1,77.6-109.7,116.4c-5,5.4-10.8,9.1-18.4,8.1
	c-7.7-1-13.2-5.4-15.9-12.7c-2.8-7.6-0.7-14.4,4.7-20.2c10.4-11.1,20.8-22.1,31.2-33.1c23.9-25.3,47.8-50.6,71.7-75.9
	c0.7-0.7,1.3-1.5,2.3-2.6c-1.4-1.5-2.7-2.9-4-4.4c-33.5-35.5-67-71-100.5-106.5c-5.6-5.9-8.2-12.5-5.5-20.5
	c2.5-7.4,7.9-11.8,15.5-13.1c7.4-1.2,13.2,2,18.2,7.2c28.1,29.8,56.2,59.6,84.4,89.4c9.4,9.9,18.9,19.8,28.1,29.9
	c3.6,4,6.5,8.6,9.7,12.9C512,254.3,512,257.7,512,261z"/>
<path class="st0" d="M208.7,438c1.7-11.5,3.7-25,5.8-38.4c4.5-29.4,9-58.8,13.5-88.2s8.9-58.8,13.4-88.2
	c4.5-29.7,9.1-59.5,13.6-89.2c3.3-21.7,6.6-43.4,10-65.1c1.6-10.2,11-17.4,20.6-16.3c11,1.3,18.7,10,17.3,21
	c-2.2,17.5-5,34.9-7.7,52.3c-4.5,29.4-9,58.8-13.5,88.2c-4.5,29.4-9,58.8-13.5,88.2c-4.5,29.6-9,59.1-13.6,88.7
	c-2.7,17.6-5.2,35.2-8.1,52.7c-1.6,9.9-11.2,17-20.6,15.9C215.8,458.3,208.5,450.1,208.7,438z"/>
</svg>
