<?xml version="1.0" encoding="utf-8"?>
<!-- Generator: Adobe Illustrator 27.0.0, SVG Export Plug-In . SVG Version: 6.00 Build 0)  -->
<svg version="1.1" id="圖層_1" xmlns="http://www.w3.org/2000/svg" xmlns:xlink="http://www.w3.org/1999/xlink" x="0px" y="0px"
	 viewBox="0 0 512 512" style="enable-background:new 0 0 512 512;" xml:space="preserve">
<style type="text/css">
	.st0{fill:#FFFFFF;}
</style>
<path class="st0" d="M0,141.3c7.2-7.6,14.1-15.5,21.5-22.8C49,91.2,76.6,64.1,104.3,37.1c3.4-3.3,7.6-6.1,11.8-7.8
	C139,19.8,162,10.8,185,1.6c9.5-3.8,14.9-0.5,16.4,10.4c2.2,16.2,6.9,30.9,17.7,42.7c21.2,22.9,69.1,21.9,84.2-17.9
	c3.2-8.3,4.9-17.4,6.6-26.3c1.5-7.9,6.8-12.5,13.7-9.8c25.2,9.7,50.4,19.7,75.5,29.8c2.3,0.9,4.3,2.7,6.2,4.5
	c34,33.3,68,66.6,102,99.9c1.8,1.8,3.2,4.2,4.7,6.3c0,2.2,0,4.4,0,6.6c-2.3,3.1-4.4,6.4-7,9.3c-25.2,28.3-50.5,56.5-75.9,84.7
	c-2.7,2.9-3.8,5.9-3.8,10.1c0.1,80.9,0.1,161.8,0.1,242.6c0,2.6,0,5.2-0.3,7.7c-0.7,5.7-4.1,9.2-9.3,9.6c-1.5,0.1-3,0.1-4.5,0.1
	c-103.5,0-206.9,0-310.4,0c-11.2,0-14.2-3.3-14.2-15.6c0-81.4,0-162.9,0.1-244.3c0-4.2-1-7.1-3.7-10.1c-26-28.8-51.8-57.7-77.7-86.6
	c-1.8-2-3.5-4.2-5.3-6.3C0,146.4,0,143.9,0,141.3z M182.5,26.3c-20.4,8.2-40.8,16.3-61,24.5c-1.5,0.6-2.8,1.9-4,3.1
	c-30.1,29.6-60.1,59.3-90.2,88.9c-0.8,0.8-2.1,1.1-3.7,2c21.8,23.2,42.3,45.1,62.6,66.6c0-14.2,0-29.4,0-44.7c0-2.5,0.2-5.2,0.9-7.6
	c1.7-5.1,5.2-7.4,10.1-7c4.7,0.4,7.8,3.2,8.7,8.3c0.5,2.8,0.7,5.8,0.7,8.8c0,103.9,0,207.8,0,311.6c0,2.5,0,5,0,7.8
	c99.7,0,198.9,0,298.3,0c0-2.9,0-5.2,0-7.6c0-105.2,0-210.3,0-315.5c0-8.6,3.7-13.5,10-13.4c6.4,0,10,4.9,10,13.5
	c0,14.5,0,29.1,0,43.6c0,1.3,0.2,2.6,0.4,3.9c-0.3-0.6-0.6-1.1-1-1.7c20.6-21.9,41.2-43.8,62-65.8c-2.2-2.2-4-4.1-5.9-5.9
	c-24.4-24.2-49.1-48.1-73.2-72.7c-10.4-10.7-21.5-19-35.3-23.6c-14.6-4.9-28.8-11.2-43.2-16.9c-10.7,40.7-34.3,65.2-72.8,65.4
	C217.1,92,193.2,67.3,182.5,26.3z"/>
</svg>
