<?xml version="1.0" encoding="utf-8"?>
<!-- Generator: Adobe Illustrator 27.0.0, SVG Export Plug-In . SVG Version: 6.00 Build 0)  -->
<svg version="1.1" id="圖層_1" xmlns="http://www.w3.org/2000/svg" xmlns:xlink="http://www.w3.org/1999/xlink" x="0px" y="0px"
	 viewBox="0 0 512 512" style="enable-background:new 0 0 512 512;" xml:space="preserve">
<style type="text/css">
	.st0{fill:#FFFFFF;}
</style>
<path class="st0" d="M136.3,0c6.5,0,12.9,0,19.4,0c0.9,0.2,1.8,0.4,2.8,0.6c5.9,0.8,11.9,1.3,17.7,2.6c30.6,6.6,56.5,21.4,77.6,44.5
	c19,20.8,31.1,45.1,35.9,72.9c0.9,5.2,1.5,10.5,2.3,15.7c0,6.5,0,12.9,0,19.4c-0.8,5.2-1.3,10.5-2.3,15.7
	c-7.6,41.1-29,73.3-63.6,96.5c-20.7,13.9-43.7,21.6-68.6,23.6c-17.6,1.4-34.8-0.4-51.8-5.2c-14.9-4.3-28.7-10.8-41.5-19.5
	c-18.2-12.4-33-28.1-44.2-47.2C9.8,202,3.4,183.1,1,162.9c-1.9-15.9-1.2-31.6,2.1-47.2C9.7,85.5,24.2,59.9,46.8,39
	c21-19.5,45.5-31.8,73.8-36.7C125.8,1.4,131.1,0.8,136.3,0z M36.6,67.3c19.8,26,42.1,48.9,66.8,69.4c24.7,20.5,51.4,38.2,80.7,52.4
	c3.6-8.2,7.1-16.2,10.5-24.1c-0.5-0.4-0.6-0.6-0.8-0.7c-0.5-0.2-1.1-0.4-1.6-0.6c-21.9-6.4-36.2-20.9-42.6-42.4
	c-4.6-15.7-7.6-31.8-11.1-47.8c-4.3-20-10.3-39.2-21.8-56.3c-1.1-1.6-1.9-2.1-3.9-1.6c-23.1,6-43.2,17.3-60.4,33.9
	C46.9,55,42,61.3,36.6,67.3z M30.1,78.1c-9.8,16.9-15.6,34.6-17.7,53.7c-1.2,11.7-0.8,23.3,0.8,34.9c0.1,0.9,0.8,2,1.5,2.6
	c14.1,11.1,29.5,19.6,46.8,24.5c17.2,4.9,34.9,5.9,52.5,7.5c14.4,1.3,28.6,3.4,42.2,8.6c3.9,1.5,7.7,3.1,11.8,4.8
	c3.4-5.1,6.8-10.1,10.3-15.3C119.6,170.1,70.9,129.1,30.1,78.1z M198.2,153.4c0.2-0.5,0.4-0.9,0.6-1.4c5-16.8,8.3-33.9,9.3-51.3
	c0.8-13,1.1-26,0.5-39c-0.5-11.7-2.4-23.4-3.8-35c-0.1-0.8-0.9-1.9-1.6-2.3c-21.8-10.4-44.8-14.3-68.8-12.4c-2,0.2-4,0.5-6.4,0.8
	c0.8,1.4,1.4,2.3,1.9,3.3c2.9,5.6,6.1,11.1,8.6,16.9c7.8,17.5,11.2,36.3,14.9,55c2.3,11.9,4.6,23.8,9.2,35.1
	C169.1,139.4,181.2,149.2,198.2,153.4z M18,186.4C18,186.3,17.9,186.4,18,186.4c0.1,0.5,0.2,0.9,0.4,1.4
	c13.7,39.3,39.8,67,78.3,82.9c1,0.4,2.6,0.2,3.6-0.3c17.2-8.6,32.9-19.3,46.8-32.5c4.6-4.3,8.9-9,13.2-13.6c0-0.4-0.1-0.7-0.1-1.1
	c-7.2-2.3-14.3-4.9-21.5-6.7c-16.7-4.2-34-4.4-51-6.2c-17.2-1.9-33.8-5.6-49.4-13.1C31.3,194,24.7,190.1,18,186.4z M218.4,32.5
	c-0.2,0.2-0.4,0.3-0.7,0.4c5.3,40.7,3.7,81.1-7.3,120.9c0.6,0.1,1,0.2,1.3,0.1c3.8-0.8,7.7-1.3,11.4-2.3
	c24.7-6.6,42.1-20.3,46.3-47.1c0.8-5.2,1-10.2-1.6-15.4C259.5,72,248.3,57.1,234,44.6C229.1,40.3,223.6,36.5,218.4,32.5z
	 M278.1,120.8c-0.2,0-0.5,0-0.7,0c-0.2,0.4-0.4,0.8-0.6,1.2c-5.3,13.5-14.5,23.7-26.9,31c-12.6,7.4-26.3,11.5-40.9,12.9
	c-1.5,0.1-2.6,0.3-3.3,2c-3.5,8.5-7.2,16.9-10.8,25.4c-0.1,0.2,0,0.5,0,0.8c20.7,9.3,42.2,16.2,64.4,21.1c0.7,0.2,2.1-0.6,2.5-1.3
	c14.5-24.7,20.3-51.4,18.1-80C279.5,129.5,278.7,125.2,278.1,120.8z M115.1,276.6c-0.2-0.1,0.1,0.1,0.3,0.2
	c23.8,5.6,47.4,4.5,70.7-2.6c0.6-0.2,1.3-0.6,1.6-1.1c5.2-8.1,7.6-17.2,2-26.7c-3.8-6.5-9.4-11-15.6-15.1c-2.3-1.5-3.5-1.3-5.5,0.7
	c-8.1,8.2-16.1,16.7-25,24.1C134.7,263.5,124.7,269.8,115.1,276.6z M203.4,267.4c20.4-9.9,37-23.5,50.5-41.5
	c-22.6-5.1-44.1-12.4-64.9-21.7c-3.6,5.5-7,10.7-10.5,15.9C195.4,231.2,208.4,244.4,203.4,267.4z"/>
<path class="st0" d="M512,352.9c0,6.6,0,13.1,0,19.7c-0.2,0.9-0.4,1.9-0.6,2.8c-0.7,5.1-1,10.4-2,15.4
	c-7.3,36.6-25.8,66.4-55.2,89.4c-19.1,14.9-40.6,24.4-64.5,28.4c-5.3,0.9-10.6,1.5-16,2.3c-6.6,0-13.1,0-19.7,0
	c-0.8-0.2-1.7-0.4-2.5-0.5c-9-1.6-18.2-2.4-26.9-4.8c-72.6-19.8-121-92.2-106.3-170.8c4.8-25.8,15.7-48.9,33.2-68.5
	c37.7-42.2,84.9-58.6,140.4-48.9c36.7,6.4,66.3,25.6,89.2,54.9c15,19.1,24.6,40.8,28.6,64.8C510.6,342.2,511.2,347.5,512,352.9z
	 M394.1,497.2c-1-1.1-1.6-1.8-2.3-2.5c-10.6-10.4-19.5-22-26.6-35.1c-9.3-17.3-14.5-35.8-15-55.5c-0.3-13.1,1.6-25.9,6.7-38.1
	c0.9-2.1,0.8-3.6-0.9-5.1c-5.4-5.1-10.4-10.6-16.2-15.2c-7.4-5.9-15.9-10-24.9-13.1c-4.1,11.1-6.7,22.2-8,33.8
	c-2.1,19.8-0.2,39.2,4.9,58.4c7.4,27.5,20.8,51.9,38.9,73.7c0.6,0.8,1.8,1.5,2.8,1.6C367.1,501.2,380.4,500.2,394.1,497.2z
	 M232.4,321.6c0.8-0.2,1.1-0.2,1.5-0.3c23.4-6.6,46.9-8.2,70.7-2.5c23.9,5.7,44.5,16.9,60,36.5c1.6,2,3.3,1.8,5.3,1.5
	c9.4-1.5,18.3-4.5,26.6-9.2c6.2-3.5,12.1-7.7,18.2-11.7c-7-8.8-14.6-16-22.9-22.3c-20.6-15.6-43.7-25.1-69-29.8
	c-23.4-4.4-46.7-4.1-70.1-0.2c-0.9,0.1-2.1,0.8-2.6,1.5C242.5,296.2,236.5,308.2,232.4,321.6z M362.2,420.2c3.1-0.6,5.8-1.1,8.5-1.7
	c28.5-6.8,52.5-21.5,73.1-42.1c19.9-20,34.1-43.5,43.9-69.9c0.5-1.2,0.4-3.1-0.2-4.2c-2.8-5.4-5.7-10.8-9-15.8
	c-4-5.8-8.5-11.3-13.1-17.4c-0.5,1.5-0.7,2.1-0.9,2.7c-5.3,20.4-14,39.1-27.5,55.4c-17.9,21.5-39.8,36.1-68,40.2
	c-0.8,0.1-1.9,1-2.2,1.8C360.1,385.5,359.1,402.5,362.2,420.2z M364.6,430.3c0.1,0.6,0.2,1,0.3,1.4c3.6,12.4,9.2,23.8,16.3,34.6
	c1.1,1.7,2.4,1.4,3.7,1.1c24.7-4.1,46.4-14.8,65.9-30.3c21.2-17,37.4-38,49.5-62.1c0.7-1.3,1.1-3,1-4.4c-0.5-10.3-0.6-20.6-1.8-30.8
	c-0.8-7-3.2-13.8-4.8-20.7c-0.3,0-0.5,0-0.8,0c-11.8,27.7-28.3,52.1-50.8,72.2C420.7,411.4,394.9,425.1,364.6,430.3z M336.8,498
	c-36.6-51.7-52.3-106.7-32.2-168.6c-12.6-3-25.3-4.4-38.3-3.3c-2,0.2-3,0.8-3.7,2.7c-8.6,23.1-10.3,46.9-6.8,71.1
	c4,27.1,14.1,52,29.1,74.9c0.7,1.1,1.8,2,2.8,2.8c11,7.4,22.9,13,35.5,16.9C327.6,495.8,332,496.7,336.8,498z M260.6,271.5
	c62.8-5.8,118.2,8.2,161.7,56.4c9.1-9.2,16.3-19.8,22.2-31.5c1-1.9,0.7-3-0.6-4.5c-16.3-19.6-36.7-33.2-60.4-42.3
	c-25-9.6-51-12.8-77.7-11.4c-1.1,0.1-2.3,0.4-3.2,1c-7.2,4.3-14.5,8.4-21.3,13.2C273.6,257.8,266.9,264.3,260.6,271.5z M261.2,454.1
	c-18-40.9-23.6-82.7-9.3-126.7c-7.3,2-13.8,3.8-20.4,5.5c-1.9,0.5-2.7,1.4-3,3.2c-0.8,6.5-2.1,13-2.4,19.5
	c-1.1,24.1,3.5,47.1,14.4,68.7C246,435.2,252.9,445.1,261.2,454.1z M334.5,228.1c45.5,4.7,84.8,20.6,116,55.3c2-7.7,3.9-14.8,5.7-22
	c0.1-0.5-0.5-1.4-1-1.8c-12.6-11.2-27-19.8-42.7-25.9c-12.9-5-26.4-7.8-40.2-8.6C359.8,224.4,347.5,225.1,334.5,228.1z M389.6,477.2
	c1.7,1.9,3,3.5,4.5,5c3.3,3.4,6.8,6.6,10,10c1.4,1.4,2.5,1.5,4.3,0.8c37.3-13.4,64.2-38,81-73.8c2-4.3,3.6-8.9,5.4-13.3
	C468,441.8,434.7,467.7,389.6,477.2z"/>
</svg>
