<?xml version="1.0" encoding="utf-8"?>
<!-- Generator: Adobe Illustrator 27.0.0, SVG Export Plug-In . SVG Version: 6.00 Build 0)  -->
<svg version="1.1" id="圖層_1" xmlns="http://www.w3.org/2000/svg" xmlns:xlink="http://www.w3.org/1999/xlink" x="0px" y="0px"
	 viewBox="0 0 512 512" style="enable-background:new 0 0 512 512;" xml:space="preserve">
<style type="text/css">
	.st0{fill:#FFFFFF;}
</style>
<path class="st0" d="M288,512c-21.3,0-42.7,0-64,0c-0.5-0.3-1-0.8-1.6-1c-14.6-4.8-22.3-15.2-22.5-30.5c-0.1-4.2-0.2-8.3,0-12.5
	c0.2-3.1-0.8-4.5-4-5.6c-11.1-3.9-22.1-8.2-33-12.6c-4.9-2-9.9-6.8-14.2-6.1c-4.3,0.8-7.7,6.8-11.5,10.5
	c-13.4,13.2-31.5,13.3-45,0.1c-11.7-11.4-23.2-23-34.6-34.6c-13.2-13.4-13.1-31.5,0.1-45c3-3.1,6-6.2,9.2-9.2c1.9-1.7,2.1-3,1-5.5
	c-6.4-14.8-12.6-29.6-18.5-44.5c-1.1-2.7-2.2-3.6-4.9-3.5c-5,0.1-10,0.1-15,0c-12.1-0.4-20.7-6.4-26.4-16.9C1.9,292.9,1,290.4,0,288
	c0-21.3,0-42.7,0-64c0.4-0.7,0.8-1.4,1.1-2.1c4.5-13.7,15.1-21.6,29.4-22c4.5-0.1,9-0.2,13.5,0c3.1,0.1,4.5-0.8,5.6-4
	c3.8-11,8.1-21.8,12.4-32.6c2-5,7-10.3,6.2-14.6c-0.8-4.5-7-8-10.8-11.9c-12.6-12.9-12.9-31-0.4-43.9c11.8-12.2,23.8-24.2,36.1-36
	c12.9-12.5,31-12.1,43.9,0.4c2.9,2.8,5.9,5.5,8.4,8.5c2.4,2.9,4.4,3.1,7.9,1.4c11.1-5.4,22.4-10.2,33.7-15
	c4.1-1.7,10.1-1.8,12.1-4.7c2.2-3.2,1-9,0.8-13.6c-0.3-8.3,1.4-15.8,6.6-22.5c4.6-5.9,11-8.9,17.6-11.5c21.3,0,42.7,0,64,0
	c0.7,0.4,1.4,0.8,2.1,1.1c13.8,4.6,21.7,15.3,22,29.9c0.1,4.3,0.2,8.7,0,13c-0.1,3.1,0.8,4.5,4,5.6c11.1,3.9,22.1,8.2,33,12.6
	c4.9,2,9.9,6.8,14.2,6.1c4.3-0.8,7.8-6.8,11.5-10.5c13.4-13.2,31.5-13.3,45-0.1c11.6,11.4,23.2,23,34.6,34.6
	c13.2,13.4,13.1,31.6-0.1,45c-3,3.1-6,6.2-9.2,9.2c-1.9,1.7-2.1,3-1,5.5c6.4,14.8,12.6,29.6,18.5,44.6c1.1,2.7,2.2,3.6,4.9,3.5
	c5-0.1,10-0.1,15,0.1c12.1,0.4,20.7,6.4,26.4,16.9c1.2,2.3,2.1,4.8,3.1,7.2c0,21.3,0,42.7,0,64c-0.6,1.3-1.3,2.6-1.8,4
	c-4.5,12.1-14.9,19.7-27.7,20.1c-4.8,0.1-9.7,0.2-14.5,0c-3.1-0.1-4.4,0.9-5.6,4c-5.7,14.7-11.8,29.2-18.2,43.6
	c-1.3,2.9-1,4.4,1.2,6.3c3.1,2.8,6,5.8,8.9,8.8c13.2,13.4,13.3,31.6,0.1,45c-11.5,11.6-23,23.2-34.6,34.6
	c-13.4,13.2-31.5,13.1-45-0.1c-3.1-3-6.2-6-9.2-9.2c-1.7-1.9-3.1-2.1-5.5-1c-14.8,6.4-29.6,12.6-44.5,18.5c-2.7,1.1-3.6,2.2-3.5,4.9
	c0.1,5,0.1,10,0,15c-0.4,12.5-7.9,23-19.6,27.5C290.9,510.6,289.5,511.4,288,512z M20,255.6c0,7.8,0,15.7,0,23.5
	c0,8.9,4,12.9,12.8,12.9c7.2,0,14.3,0,21.5,0c7.2,0,10.4,2.2,12.1,9.2c5,20.2,12.8,39.1,23.6,56.9c3.6,5.8,3,9.8-1.9,14.8
	c-5.2,5.4-10.7,10.6-15.9,15.9c-5.7,5.8-5.7,11.1,0.1,16.9c11.3,11.4,22.6,22.7,33.9,33.9c5.8,5.7,11.1,5.7,16.9,0
	c5.6-5.5,11-11.1,16.7-16.6c4.1-4,8.4-4.6,13.2-1.7c18.3,11.2,37.9,19.2,58.7,24.4c5.9,1.5,8.2,4.8,8.3,10.8c0.1,7.8,0,15.7,0,23.5
	c0.1,7.3,4.2,11.6,11.4,11.7c16.5,0.1,33,0.1,49.5,0c7-0.1,11-4.5,11.1-11.5c0.1-7.5,0-15,0-22.5c0-7.6,2.2-10.7,9.5-12.5
	c20-4.9,38.8-12.7,56.4-23.4c6-3.7,10-3.1,15.2,2c5.2,5.1,10.3,10.4,15.6,15.5c6,5.9,11.3,5.9,17.3,0c11.2-11.2,22.4-22.4,33.6-33.6
	c5.9-6,5.9-11.2,0-17.3c-5.4-5.5-10.9-10.8-16.2-16.3c-4-4.1-4.8-8.6-2-13.2c11.4-18.4,19.4-38.2,24.6-59.1c1.4-5.6,4.8-8,10.5-8
	c7.8-0.1,15.7,0,23.5,0c7.6-0.1,11.9-4.1,11.9-11.7c0.1-16.3,0.1-32.7,0-49c-0.1-7.2-4.4-11.3-11.7-11.4c-7.3-0.1-14.7,0-22,0
	c-7.9,0-11-2.2-12.8-9.7c-4.8-20.1-12.8-38.8-23.4-56.4c-3.5-5.9-3-9.9,1.9-14.8c5.3-5.4,10.6-10.6,15.9-15.9
	c5.7-5.9,5.7-11.2,0-16.9c-11.3-11.4-22.6-22.7-33.9-33.9c-5.8-5.7-11.1-5.7-16.9,0c-5.5,5.4-10.8,10.9-16.3,16.2
	c-4.4,4.3-8.7,5-13.6,2c-18.3-11.3-37.9-19.2-58.7-24.4c-5.9-1.5-8.2-4.8-8.3-10.8c-0.1-8,0.1-16,0-24c-0.1-6.7-4.2-11.1-10.9-11.2
	c-16.7-0.2-33.3-0.2-50,0c-6.9,0.1-11.1,4.5-11.1,11.4c-0.1,7.7,0,15.3,0,23c0,6.9-2.3,10.1-9,11.8c-20.3,5-39.4,13-57.3,23.8
	c-5.7,3.4-9.6,2.8-14.4-1.8c-5.4-5.2-10.6-10.6-15.9-15.9c-6.1-5.9-11.3-5.9-17.3,0C94.8,83.6,83.6,94.8,72.4,106
	c-6,6-5.9,11.2,0,17.3c5.4,5.5,10.9,10.8,16.2,16.3c4.2,4.3,4.8,8.5,1.7,13.6c-11.1,18.2-19.1,37.6-24.2,58.2
	c-1.5,6.2-4.8,8.5-11.2,8.5c-7.3,0.1-14.7,0-22,0c-9.1,0-12.9,3.9-13,13.2C20,240.6,20,248.1,20,255.6z"/>
<path class="st0" d="M239.5,248.2c1.6-2.2,2.5-3.8,3.8-5.1c16.5-16.5,32.9-33.1,49.5-49.5c14-13.8,34.5-14.1,48-1.1
	c13.6,13.1,14,34.4,0.3,48.4c-25.8,26.3-51.8,52.3-78.1,78.1c-14.2,13.9-34.1,13.5-48.3-0.5c-14.6-14.4-29.1-28.8-43.5-43.5
	c-13.6-13.8-13.6-34.7-0.4-48c13.3-13.4,33.9-13.5,48,0C225.4,233.4,231.8,240.3,239.5,248.2z M195.1,236.1c-3.7,1.8-7,2.8-9.4,4.8
	c-6.4,5.4-6.2,13.9,0.4,20.6c13.6,13.7,27.3,27.4,41,41c8.4,8.4,15.5,8.4,24-0.1c24.5-24.5,49-49,73.5-73.5c1.2-1.2,2.4-2.3,3.4-3.7
	c6.2-8.4,1.9-19.6-8.3-21.6c-5.7-1.1-9.9,1.4-13.8,5.3c-19.3,19.3-38.6,38.7-57.9,57.9c-6.5,6.5-11.4,6.4-17.9-0.1
	c-8.1-8.1-16.1-16.4-24.5-24.3C202.7,239.8,198.7,238.2,195.1,236.1z"/>
<path class="st0" d="M416.9,255.8c-0.9,25.5-6.6,49.5-17.9,72.2c-3.5,7-8.6,9.6-14.2,7c-6-2.7-7.5-8.5-3.9-15.7
	c10.6-21.3,15.8-43.8,15.1-67.5c-2.1-67.7-52.5-124.2-119-134.1c-29-4.3-56.6,0.2-82.9,13c-1.8,0.9-3.6,1.8-5.5,2.2
	c-5.2,1.1-9.7-1.4-11.6-6.3c-1.9-4.8,0.1-9.9,5.2-12.6c13.6-7.1,28-12.1,43.1-15.1C311,82.1,395,137.6,412.7,223.2
	C414.9,233.9,415.5,244.9,416.9,255.8z"/>
<path class="st0" d="M255.6,416.6c-78.6-0.7-145.8-58.3-157.7-135.8c-5.3-34.1,0-66.6,15.4-97.4c2.9-5.8,7.4-8.4,12.2-7.1
	c6.8,1.8,9,8.3,6.2,15.7c-4.7,12.4-10,24.7-12.8,37.6c-12.7,59.4,17.8,122.6,72,150.2c42.4,21.6,85.3,21.5,128.2,1.1
	c7.1-3.4,12.7-2.2,15.6,3.3c2.7,5.2,0.9,10.9-4.8,13.9c-15,7.9-30.8,13.3-47.5,15.9C273.5,415.2,264.5,415.7,255.6,416.6z"/>
<path class="st0" d="M150,140c5.7,0,10.1,4.4,10,10.1c-0.1,5.6-4.7,10-10.3,9.8c-5.5-0.1-9.6-4.4-9.6-9.9
	C140,144.2,144.2,140,150,140z"/>
<path class="st0" d="M372,362.3c-0.1,5.7-4.5,9.9-10.3,9.7c-5.5-0.1-9.6-4.5-9.6-9.9c0-5.6,4.5-10.1,10.1-10
	C367.9,352.1,372.1,356.5,372,362.3z"/>
</svg>
