<?xml version="1.0" encoding="utf-8"?>
<!-- Generator: Adobe Illustrator 27.0.0, SVG Export Plug-In . SVG Version: 6.00 Build 0)  -->
<svg version="1.1" id="_圖層_1" xmlns="http://www.w3.org/2000/svg" xmlns:xlink="http://www.w3.org/1999/xlink" x="0px" y="0px"
	 viewBox="0 0 897.7 566" style="enable-background:new 0 0 897.7 566;" xml:space="preserve">
<style type="text/css">
	.st0{fill:none;stroke:#FFFFFF;stroke-miterlimit:10;}
	.st1{fill:#FFFFFF;stroke:#FFFFFF;stroke-width:0.75;stroke-miterlimit:10;}
	.st2{font-family:'MingLiU';}
	.st3{font-size:34px;}
	.st4{font-size:30px;}
</style>
<line class="st0" x1="446.5" y1="121" x2="446.5" y2="178.7"/>
<line class="st0" x1="556.5" y1="98.3" x2="556.5" y2="121"/>
<line class="st0" x1="339.5" y1="98.3" x2="339.5" y2="121"/>
<line class="st0" x1="339.5" y1="121" x2="556.5" y2="121"/>
<line class="st0" x1="339.5" y1="178.7" x2="558.5" y2="178.7"/>
<line class="st0" x1="120.1" y1="292.7" x2="408.1" y2="292.7"/>
<line class="st0" x1="558.5" y1="202.2" x2="558.5" y2="178.7"/>
<line class="st0" x1="339.5" y1="202.2" x2="339.5" y2="178.7"/>
<line class="st0" x1="339.5" y1="265.2" x2="339.5" y2="293.2"/>
<line class="st0" x1="339.5" y1="293.2" x2="339.5" y2="326.2"/>
<line class="st0" x1="408.1" y1="293" x2="408.1" y2="472.2"/>
<line class="st0" x1="195.9" y1="293" x2="195.9" y2="472.2"/>
<line class="st0" x1="120.1" y1="293" x2="120.1" y2="326.2"/>
<line class="st0" x1="488" y1="292.7" x2="775.8" y2="292.7"/>
<line class="st0" x1="556.5" y1="293.2" x2="556.5" y2="265.2"/>
<line class="st0" x1="556.5" y1="326.2" x2="556.5" y2="293.2"/>
<line class="st0" x1="488" y1="472.2" x2="488" y2="293"/>
<line class="st0" x1="700" y1="472.2" x2="700" y2="293"/>
<line class="st0" x1="775.8" y1="326.2" x2="775.8" y2="293"/>
<g>
	<path class="st0" d="M281.9,31.7h115c11,0,20,9,20,20v16c0,11-9,20-20,20H282c-11,0-20-9-20-20v-16
		C261.9,40.7,270.9,31.7,281.9,31.7z"/>
	<text transform="matrix(1 0 0 1 305.549 72.532)" class="st1 st2 st3">會長</text>
</g>
<g>
	<path class="st0" d="M501,31.7h115c11,0,20,9,20,20v16c0,11-9,20-20,20H501c-11,0-20-9-20-20v-16C481,40.6,490,31.7,501,31.7z"/>
	<text transform="matrix(1 0 0 1 507.359 72.482)" class="st1 st2 st3">副會長</text>
</g>
<g>
	<path class="st0" d="M282,209.2h115c11,0,20,9,20,20v16c0,11-9,20-20,20H282c-11,0-20-9-20-20v-16C262,218.2,271,209.2,282,209.2z"
		/>
	<text transform="matrix(1 0 0 1 279.629 248.4521)" class="st1 st2 st4">行政執秘</text>
</g>
<g>
	<path class="st0" d="M27.4,338.3h115c11,0,20,9,20,20v16c0,11-9,20-20,20h-115c-11,0-20-9-20-20v-16
		C7.4,347.3,16.3,338.3,27.4,338.3z"/>
	<text transform="matrix(1 0 0 1 39.9676 377.8524)" class="st1 st2 st4">財務長</text>
</g>
<g>
	<path class="st0" d="M71.2,478.1h115c11,0,20,9,20,20v16c0,11-9,20-20,20h-115c-11,0-20-9-20-20v-16
		C51.2,487,60.1,478.1,71.2,478.1z"/>
	<text transform="matrix(1 0 0 1 83.7694 517.6195)" class="st1 st2 st4">文書長</text>
</g>
<g>
	<path class="st0" d="M249.6,338.3h115c11,0,20,9,20,20v16c0,11-9,20-20,20h-115c-11,0-20-9-20-20v-16
		C229.6,347.3,238.6,338.3,249.6,338.3z"/>
	<text transform="matrix(1 0 0 1 261.9152 377.8624)" class="st1 st2 st4">美宣長</text>
</g>
<g>
	<path class="st0" d="M281.9,478.1h115c11,0,20,9,20,20v16c0,11-9,20-20,20h-115c-11,0-20-9-20-20v-16
		C261.9,487,270.9,478.1,281.9,478.1z"/>
	<text transform="matrix(1 0 0 1 294.2987 517.5195)" class="st1 st2 st4">資訊長</text>
</g>
<g>
	<path class="st0" d="M536.5,338.2h115c11,0,20,9,20,20v16c0,11-9,20-20,20h-115c-11,0-20-9-20-20v-16
		C516.5,347.2,525.5,338.2,536.5,338.2z"/>
	<text transform="matrix(1 0 0 1 549.1702 377.7592)" class="st1 st2 st4">活動長</text>
</g>
<g>
	<path class="st0" d="M755.3,338.3h115c11,0,20,9,20,20v16c0,11-9,20-20,20h-115c-11,0-20-9-20-20v-16
		C735.3,347.3,744.2,338.3,755.3,338.3z"/>
	<text transform="matrix(1 0 0 1 768.0929 377.8524)" class="st1 st2 st4">體育長</text>
</g>
<g>
	<path class="st0" d="M696,478.1h115c11,0,20,9,20,20v16c0,11-9,20-20,20H696c-11,0-20-9-20-20v-16C676,487,685,478.1,696,478.1z"/>
	<text transform="matrix(1 0 0 1 708.6633 517.5195)" class="st1 st2 st4">攝影長</text>
</g>
<g>
	<path class="st0" d="M497,478.3h115c11,0,20,9,20,20v16c0,11-9,20-20,20H497c-11,0-20-9-20-20v-16C477,487.3,485.9,478.3,497,478.3
		z"/>
	<text transform="matrix(1 0 0 1 509.2583 517.787)" class="st1 st2 st4">公關長</text>
</g>
<g>
	<path class="st0" d="M501,209.2h115c11,0,20,9,20,20v16c0,11-9,20-20,20H501c-11,0-20-9-20-20v-16C481,218.2,490,209.2,501,209.2z"
		/>
	<text transform="matrix(1 0 0 1 498.719 248.4321)" class="st1 st2 st4">活動執秘</text>
</g>
</svg>
