<?xml version="1.0" encoding="utf-8"?>
<!-- Generator: Adobe Illustrator 27.0.0, SVG Export Plug-In . SVG Version: 6.00 Build 0)  -->
<svg version="1.1" id="圖層_1" xmlns="http://www.w3.org/2000/svg" xmlns:xlink="http://www.w3.org/1999/xlink" x="0px" y="0px"
	 viewBox="0 0 512 512" style="enable-background:new 0 0 512 512;" xml:space="preserve">
<style type="text/css">
	.st0{fill:#FFFFFF;}
</style>
<path class="st0" d="M512,173c-2.7,5.4-7.1,7.1-13.1,7.1c-28.3-0.2-56.7-0.1-85-0.2c-3.2,0-5,0.9-7,3.5
	c-12.5,16.6-28.1,28.7-48.9,33c-4.4,0.9-9,1.4-13.4,1c-4.3-0.4-7,0.9-10,3.8c-31.4,31.6-62.9,63-94.3,94.4c-7.8,7.8-12.7,7.8-20.6,0
	C158.4,254.4,97.2,193.1,35.9,131.8c-8.5-8.5-8.5-12.4-0.1-20.8c35-35,70-70,105-105c2.2-2.2,4.8-4,7.2-6.1c2,0,4,0,6,0
	c2.4,2,5.1,3.8,7.3,6c9.3,9.1,18.5,18.2,27.5,27.6c2.5,2.6,4.5,2.9,7.8,1.7c13.5-5.1,27.1-10,40.7-14.9c14.2-5.1,28.7-6.3,43.7-3.7
	c13.3,2.4,25.2,8.2,37,14.2c17.3,8.9,34.3,18.3,51.4,27.5c7.7,4.1,15.9,6.4,24.7,6.6c0.4-2.2,0.5-4,1.1-5.8
	c1.4-4.5,5.4-6.9,11.5-6.9c8.4-0.1,16.9,0,25.4,0c0.1-1.9,0.2-3,0.2-4.2c0.2-11.4,3-14.2,14.2-14.2c17.1,0,34.3,0.2,51.5-0.1
	c5.9-0.1,10.6,1.3,14.1,6.2C512,84.3,512,128.7,512,173z M207.8,52.4c12.8,12.8,24.6,24.7,36.6,36.5c1,1,2.5,1.6,3.9,2
	c12.8,4.1,25.6,8.1,38.5,12.2c9.7,3.1,19.3,6,29,9.2c6.2,2.1,9,7.1,7.4,12.7c-1.7,5.8-7,8.4-13.6,6.5c-1.1-0.3-2.2-0.7-3.3-1.1
	c-28.2-8.9-56.3-17.8-84.6-26.7c-8.8-2.8-17.6,0.5-22.3,7.9c-4.8,7.6-4.2,17.4,2.6,23.8c3.9,3.6,8.8,6.7,13.8,8.4
	c24.4,8.7,49,16.7,73.5,25.3c3.7,1.3,7.3,3.9,9.9,6.9c15.5,17.5,34.9,24.4,57.4,19.8c16.5-3.3,27.9-14.8,37-28.5
	c0.8-1.1,0.9-2.8,0.9-4.3c0-24.5,0-49,0.1-73.5c0-3.2-1.1-4.4-4.2-4.6c-11.8-0.7-22.7-4.5-33.1-10c-21.4-11.3-42.9-22.7-64.6-33.5
	c-12.4-6.2-26-8-39.4-4.3C238.1,41.2,223.5,47,207.8,52.4z M92,157.9c34,34,67.8,67.8,101.7,101.7c10.7-7.4,23-11.5,36.5-11.4
	c13.5,0.1,25.8,4.1,36.1,11.3c7.8-7.8,15.3-15.3,22.9-22.9c-9.3-14-13.2-29.7-10.4-47c0.2-1-0.5-3-1.3-3.2
	c-10.4-3.7-20.9-7.2-31.6-10.8c-0.6,1.6-1,2.7-1.4,3.8c-9.6,26.6-35.1,41.9-63.1,37.6c-24.6-3.7-44.8-24.8-47.6-48.5
	c-3.4-29.5,14.4-53.7,37.6-61.3c5.6-1.8,9.6-4.3,13.1-9.2c3.3-4.5,8.4-7.8,13.2-11c3.2-2.1,7.2-3,10.6-4.3
	c-6.8-6.8-13.6-13.6-20.6-20.6c-24.5,15.5-49.4,15.3-73.4,0.2c-7.8,7.8-15.2,15.1-22.6,22.6C107.2,109.2,107.1,133.9,92,157.9z
	 M491.7,159.9c0-35.5,0-70.6,0-105.6c-13.1,0-25.8,0-38.5,0c0,35.4,0,70.4,0,105.6C466.1,159.9,478.7,159.9,491.7,159.9z
	 M175.9,127.2c-15.1,6.6-23.1,20.6-22,37.7c1.2,17,15.4,30.7,34.1,32.7c15.9,1.7,33.2-10,37.7-25.3c0.7-2.4,0.3-3.6-2.2-4.4
	c-5.1-1.5-10.1-3.3-15.1-5.1c-12.9-4.5-23.1-12.3-28.9-25.1C178,134.5,177.1,130.9,175.9,127.2z M415.2,73.1c0,29.2,0,57.9,0,86.7
	c5.8,0,11.2,0,16.8,0c0-29,0-57.7,0-86.7C426.4,73.1,421,73.1,415.2,73.1z M76.7,143.4c8.6-13.8,8.3-33.8,0.2-43.3
	c-7.3,7.3-14.6,14.7-21.7,21.7C62.1,128.7,69.3,136,76.7,143.4z M251.5,274.5c-10.3-8.2-33.8-7.9-42.6-0.1
	c7.3,7.3,14.6,14.7,21.3,21.4C237,288.9,244.3,281.7,251.5,274.5z M129.6,47c10.4,8.4,33.6,8.3,42.8,0.1
	c-7.2-7.2-14.4-14.5-21.4-21.6C144,32.5,136.8,39.8,129.6,47z M303.4,222.3c4.1-3.8,7.7-7.1,11.3-10.5c-5.4-2.9-10.7-5.7-17.5-9.3
	C299.6,210.1,301.5,216.4,303.4,222.3z"/>
<path class="st0" d="M0,354c3.1-5.2,7.7-7,13.8-6.9c27.8,0.2,55.7,0,83.5,0.2c3.6,0,5.9-0.9,8.2-4c12.4-16.1,27.7-28.8,48.3-32.1
	c28-4.5,52.2,3.9,72.1,24.4c2.1,2.2,4.8,4.1,7.6,5.1c22.3,7.7,44.6,15.3,67,22.7c15.3,5,27.3,13.6,33.5,29.6
	c12.8-3.5,25.5-7.1,38.3-10.5c15.2-4,30.4-8.6,45.8-11.6c16.3-3.2,31.8,5.2,39.8,19.7c8.2,15,6.6,31.8-4.5,44.6
	c-6.3,7.3-14,12.6-23.2,15.9c-52.1,18.6-104.1,37.4-156.1,56c-5.6,2-11.4,3.2-17.1,4.9c-7,0-14,0-21,0
	c-18.6-3.2-35.1-11.8-51.5-20.3c-13.3-6.8-26.2-14.3-39.3-21.5c-8.5-4.7-17.4-7.7-27.2-7.9c-1.9,10.7-4.2,12.6-15,12.6
	c-7.6,0-15.2,0-22.9,0c-0.1,1.7-0.2,2.9-0.2,4c-0.2,11.7-3.3,14.7-14.9,14.7c-17,0-34-0.1-50.9,0.1c-6,0.1-10.7-1.6-13.9-6.8
	C0,442.7,0,398.3,0,354z M117.5,442c16.5,0.6,30.5,6.6,44.2,14.2c18.6,10.3,37.6,19.9,56.7,29.4c11.4,5.6,23.7,8,36.4,5.5
	c7-1.3,13.8-3.6,20.5-6c49.5-17.6,98.9-35.3,148.3-53c6.6-2.4,12.2-6.1,16.1-12c8.1-12.3-0.1-28.6-14.8-29.3
	c-3.8-0.2-7.7,0.2-11.3,1.2c-25,6.8-49.9,13.8-74.9,20.9c-1.7,0.5-3.7,2.2-4.4,3.9c-8.6,23-28.6,32.9-52,25.5
	c-18.5-5.9-37.1-11.7-55.6-17.5c-10.3-3.2-20.6-6.5-30.8-9.9c-6.1-2-8.7-7.4-6.8-13c1.8-5.3,7-7.8,12.9-6.2c1,0.3,1.9,0.6,2.9,0.9
	c28.3,9,56.7,18,85,26.9c8.2,2.6,15.5,0.8,21.3-5.8c5.1-5.8,6-14.1,2.5-21c-3.8-7.5-10.6-11.1-18.2-13.7
	c-24.5-8.3-49.1-16.5-73.6-25.1c-3.2-1.1-6.4-3.6-8.6-6.2c-14.6-16.9-33-24-54.8-20.8c-18,2.7-30.1,14.6-39.9,29.1
	c-0.9,1.4-0.9,3.5-0.9,5.3c-0.1,16,0,32,0,48C117.5,422.6,117.5,432,117.5,442z M20.3,367.9c0,35.1,0,70,0,105c13,0,25.7,0,38.7,0
	c0-35.1,0-70,0-105C45.9,367.9,33.2,367.9,20.3,367.9z M96.9,367.9c-5.8,0-11.2,0-16.8,0c0,29,0,57.7,0,86.5c5.8,0,11.2,0,16.8,0
	C96.9,425.6,96.9,397,96.9,367.9z"/>
<path class="st0" d="M359.2,133.3c0.1,5.6-4.4,10.3-9.9,10.3c-5.4,0-10.2-4.8-10.2-10.2c0-5.2,4.6-9.8,9.8-10.1
	C354.3,123.1,359.1,127.8,359.2,133.3z"/>
<path class="st0" d="M152.8,393.6c0.1-5.7,4.5-9.8,10.3-9.7c5.4,0.2,9.7,4.6,9.7,9.9c0,5.4-4.8,10.1-10.2,10.1
	C157.1,403.9,152.7,399.3,152.8,393.6z"/>
</svg>
