<?xml version="1.0" encoding="utf-8"?>
<!-- Generator: Adobe Illustrator 27.0.0, SVG Export Plug-In . SVG Version: 6.00 Build 0)  -->
<svg version="1.1" id="圖層_1" xmlns="http://www.w3.org/2000/svg" xmlns:xlink="http://www.w3.org/1999/xlink" x="0px" y="0px"
	 viewBox="0 0 512 512" style="enable-background:new 0 0 512 512;" xml:space="preserve">
<style type="text/css">
	.st0{fill:#FFFFFF;}
</style>
<path class="st0" d="M313.9,112.1c4.5,1.3,8.8,2,12.5,3.8c6,2.9,10,1.7,14.7-3.1c13.7-13.8,28-27,42.1-40.4c2.9-2.8,5.8-5.7,10.5-4
	c4.7,1.7,5.4,5.6,5.9,10c3.6,29.1,7.3,58.1,11.1,87.2c0.6,4.5,0.5,8.7-3.6,11.5c32,55.6,31,110.5-2.9,165.7
	c4.8,4.6,9.8,9.5,14.9,14.1c0.9,0.8,2.7,1,4.1,0.8c8.5-1.3,15.6,0.9,21.8,7.1c18.3,18.5,36.8,36.8,55.2,55.3
	c15.8,16,15.6,37.4,0,53.8c-9.2,9.6-19.3,16.3-33.2,15c-9-0.8-16.8-4.3-23.1-10.6c-19.2-19.1-38.4-38.3-57.5-57.4
	c-5.4-5.4-7.6-11.8-5.8-19.5c0.4-1.6,0.1-4-0.9-5.1c-4.6-5.2-9.5-10.1-13-13.8c-18,7.9-34.7,15.3-52.6,23.1c0,8.5,0,18.9,0,29.3
	c0,26.2-17,43.2-43.4,43.2c-58.2,0-116.3-0.5-174.5,0.5c-11,0.2-17.5-3.3-24.4-10.4c-21.2-21.8-42.7-43.2-64.4-64.5
	c-5.1-5-7.2-10-7.2-17.3c0.3-87.9,0.2-175.7,0.2-263.6c0-18.6,0.4-37.2-0.1-55.7c-0.8-25.9,19.7-43.1,43.2-43
	c75.9,0.4,151.7,0.1,227.6,0.2c26,0,43,17,43.1,43C313.9,82.1,313.9,97,313.9,112.1z M297.3,406.6c-89.1,9.2-159.1-57.9-165.4-136.1
	c-3.4-42.5,8.8-80.3,37.7-112c34.2-37.4,77-53.4,127.9-49.3c0-1.8,0-3.5,0-5.2c0-12.2-0.6-24.3,0.1-36.4c1-16.4-11.6-27.3-26.9-27.2
	c-75.8,0.5-151.7,0.5-227.5,0C28.4,40.3,16,50.2,16.1,67.5C16.3,171,16.2,274.5,16.2,378c0,1.8,0,3.6,0,5.2c1.2,0.3,1.5,0.4,1.9,0.4
	c16.3,0,32.6,0,48.9,0.1c15.5,0.1,27.2,11.9,27.2,27.5c0,14.9,0,29.9,0,44.8c0,1.8,0,3.7,0,5.7c16.2,0,31.6,0,47.1,0
	c43.9,0,87.8,0,131.7,0c12.1,0,23.2-8.3,24.1-19.5C298,430.5,297.3,418.7,297.3,406.6z M386.9,178.1c-3.2,8.4-6,16.2-9.2,23.9
	c-1.4,3.3-1.1,6.1,0.4,9.3c9.3,20.6,12.6,41.9,8.8,64.4c-9.6,57.5-64.4,99.1-125.9,88.6c-59.8-10.1-97.9-64.4-88.8-124.6
	c8.9-59,68.5-100.7,127-88.7c9.6,1.9,18.9,5.2,28.7,7.9c0.6-1.8,1.4-4,1.9-5.5c-5-2.9-10.6-4.7-13.8-8.5c-4.4-5.2,1.3-9.5,4.6-13.6
	c-55.5-18.7-124.4,2.9-157.7,64.4c-31.9,58.8-13.6,132.6,42.1,171.8c54.3,38.3,129.1,29.2,174.6-21C425,296.5,423.1,224,386.9,178.1
	z M338.5,137.6c12.1,5.7,12.5,6.5,7.8,18.8c-15.7,41.6-31.4,83.2-47.1,124.7c-4,10.6-8.1,21.2-12.4,32.3c9.4,0,18.1-0.2,26.7,0.1
	c3.9,0.1,5.4-1.4,6.7-4.8c14.2-38,28.6-76,43-114c4-10.5,8-21,12-31.5c2.9-7.5,5.8-9,13.6-6.7c1.4,0.4,2.7,0.8,4.4,1.3
	c-2.7-21.7-5.4-42.6-8.2-64.7C368.9,108.5,353.9,122.8,338.5,137.6z M495.8,444.7c-1.2-2.6-2.4-7.9-5.6-11.2
	c-18.9-19.6-38.3-38.7-57.6-57.9c-2.7-2.7-5-2.6-7.8,0.4c-8.4,8.8-16.9,17.4-25.7,25.8c-3.8,3.6-3.3,5.9,0.1,9.3
	c18.1,17.9,36.1,36,54.1,54c6.8,6.8,14.9,10.6,23.9,6C486.8,466.3,494.6,459.1,495.8,444.7z M367.7,229.3c-1,2.3-1.7,3.8-2.3,5.4
	c-10.9,28.8-21.8,57.6-32.7,86.4c-2.9,7.6-4,8.4-12.2,8.4c-14.4,0-28.8,0-43.2,0c-7.2,0-8.7-1-11.1-7.6
	c-4.6-12.6-9.3-25.2-14.3-38.7c-1.1,2.1-1.8,3.4-2.4,4.8c-5.9,14.2-11.6,28.5-17.7,42.7c-1.7,3.9-0.9,5.6,2.7,7.6
	c46.5,25.7,106.5,6.5,129-41.7C373.7,275.1,375.1,252.8,367.7,229.3z M188.9,273.8c1-2.2,1.7-3.6,2.3-5.1
	c9.4-22.9,18.7-45.8,28.1-68.7c4.2-10.2,4.3-10.3,15.1-9.2c1.2,0.1,2.4,0,3.6,0c9.9,0,19.8,0,29.7,0c14.8,0.1,14.5-2,20.3,14
	c3.4,9.4,7.2,18.8,11.3,29.5c7.8-20.5,15.1-39.7,22.3-58.7c-25.1-14.4-66.7-14.8-97.3,7.8C192.8,206.6,182.3,246,188.9,273.8z
	 M228.7,221.4c-0.8,1-1.1,1.4-1.3,1.7c-9.7,23.7-19.4,47.4-29.1,71.1c-0.4,1-0.8,2.5-0.3,3.3c4.8,9.6,10.9,18.2,19.1,26.1
	c1-2.3,1.7-3.8,2.4-5.4c6.4-15.5,12.4-31.2,19.4-46.5c3.6-8,4.2-14.9,0.4-23C235.1,240.2,232.3,231,228.7,221.4z M274.8,298.3
	c5.3-13.8,10.2-26.6,15-39.4c0.5-1.3,0.2-3.1-0.3-4.5c-5.5-14.7-11.2-29.4-16.9-44.1c-0.5-1.3-1.8-3.1-2.8-3.1
	c-9.3-0.2-18.5-0.1-28.3-0.1C252.7,237.7,263.6,267.5,274.8,298.3z M29.7,401.2c16,16,31.9,32,47.9,48c0-13,0.1-26.2-0.1-39.5
	c-0.1-4.6-4.6-8.4-9.6-8.4C55.1,401.1,42.2,401.2,29.7,401.2z M394.5,356.5c-5.2,5.2-10.5,10.4-15.6,15.4c3.9,4,8.3,8.4,12.4,12.6
	c5.3-5.1,10.6-10.3,16.1-15.5C403,364.6,398.5,360.3,394.5,356.5z"/>
<path class="st0" d="M133.7,62.7c27.1,0,54.1,0,81.2,0c1.6,0,3.2-0.2,4.7,0.1c4,0.8,6.5,3.4,6.7,7.5c0.3,3.9-1.7,6.8-5.4,7.9
	c-2.1,0.7-4.4,0.8-6.6,0.8c-53.4,0-106.9,0-160.3,0c-1.2,0-2.4,0.1-3.6,0c-5.5-0.5-8.7-3.7-8.5-8.5c0.2-4.7,3.6-7.8,9.2-7.8
	C78.6,62.6,106.2,62.7,133.7,62.7z"/>
<path class="st0" d="M100.4,329.3c0,6.8,0.1,13.5,0,20.3c-0.1,5.6-3,8.8-8.6,8.8c-13.9,0.1-27.7,0.1-41.6,0
	c-5.3-0.1-8.4-3.1-8.5-8.5c-0.2-14-0.2-28.1,0-42.1c0.1-5.3,3.2-8.3,8.6-8.4c13.9-0.2,27.7-0.2,41.6,0c5.6,0.1,8.4,3.4,8.4,9.1
	C100.5,315.4,100.4,322.4,100.4,329.3z M58,341.6c9,0,17.5,0,25.9,0c0-8.8,0-17.2,0-25.6c-8.9,0-17.3,0-25.9,0
	C58,324.7,58,332.9,58,341.6z"/>
<path class="st0" d="M100.4,243.7c0,6.8,0.1,13.5,0,20.3c-0.1,6-3,8.9-9,9c-13.5,0.1-27.1,0.1-40.6,0c-5.8,0-8.9-2.8-9-8.5
	c-0.2-13.9-0.2-27.8,0-41.7c0.1-5.7,3-8.7,8.8-8.8c13.7-0.2,27.4-0.2,41.1,0c5.9,0.1,8.7,3.3,8.7,9.3
	C100.5,230.2,100.4,237,100.4,243.7z M58.2,230.5c0,8.5,0,17,0,25.8c8.6,0,17.2,0,25.7,0c0-8.8,0-17.2,0-25.8
	C75.2,230.5,66.9,230.5,58.2,230.5z"/>
<path class="st0" d="M100.4,159.3c0,6.8,0.1,13.5,0,20.3c-0.1,6.1-2.9,9-8.9,9c-13.7,0.1-27.4,0.1-41.1,0c-5.4,0-8.5-2.8-8.6-8.2
	c-0.2-14.1-0.2-28.1,0-42.2c0.1-5.3,2.9-8.2,8.1-8.2c14-0.2,28.1-0.2,42.2,0c5.7,0.1,8.3,3.2,8.3,9.1
	C100.5,145.8,100.4,152.6,100.4,159.3z M84.1,146.3c-8.7,0-17.3,0-25.9,0c0,8.7,0,17.3,0,25.7c8.9,0,17.3,0,25.9,0
	C84.1,163.3,84.1,155,84.1,146.3z"/>
<path class="st0" d="M111.4,107.5c-20.1,0-40.2,0-60.3,0c-6.5,0-10.2-4-9-9.7c1-4.7,4.4-6.3,8.8-6.3c14.7,0,29.5,0,44.2,0
	c25.1,0,50.3,0,75.4,0.1c2.5,0,5.9,0,7.3,1.5c2,2.1,3.6,5.7,3.3,8.4c-0.4,4.2-4,6-8.4,6c-17.3-0.1-34.7,0-52,0
	C117.6,107.5,114.5,107.5,111.4,107.5z"/>
</svg>
