<?xml version="1.0" encoding="utf-8"?>
<!-- Generator: Adobe Illustrator 27.0.0, SVG Export Plug-In . SVG Version: 6.00 Build 0)  -->
<svg version="1.1" id="圖層_1" xmlns="http://www.w3.org/2000/svg" xmlns:xlink="http://www.w3.org/1999/xlink" x="0px" y="0px"
	 viewBox="0 0 512 512" style="enable-background:new 0 0 512 512;" xml:space="preserve">
<style type="text/css">
	.st0{fill:#FFFFFF;}
</style>
<path class="st0" d="M316,0c10.3,4.6,13.1,12.8,12.9,23.4c-0.4,17.8,0,35.7-0.2,53.5c0,2.8-0.9,6.3-2.7,8c-1.6,1.5-5.7,2.1-7.6,1.1
	c-2.3-1.3-4.6-4.6-4.8-7.2c-0.6-7.3-0.2-14.7-0.2-22c0-11.8-0.2-23.7,0.1-35.5c0.1-5-1.3-6.6-6.4-6.5c-49,0.2-98,0.1-147,0.1
	c-46,0-92,0-138,0c-6.9,0-6.9,0-6.9,7c0,137.7,0,275.3,0,413c0,7,0,7,6.9,7c63.2,0,126.3,0,189.5,0c1.6,0,3.3,0,5.4,0
	c0-37.7,0-75,0-113c-1.9,0-3.9,0-5.8,0c-47.8,0-95.7,0-143.5,0c-7.1,0-10.7-3.2-9.2-8.9c0.6-2.3,3.3-4.5,5.6-5.9
	c1.5-0.9,3.9-0.4,5.9-0.4c47,0,94,0,141,0c2,0,3.9,0,6.2,0c0-13,0-25.4,0-38.7c-1.8,0-3.7,0-5.6,0c-48.2,0-96.3,0-144.5,0
	c-6.3,0-9.2-2.6-8.8-8c0.3-4.3,2.5-6.7,7-6.9c1.7-0.1,3.3,0,5,0c46.8,0,93.7,0,140.5,0c2,0,4,0,6.8,0c0-3.7,0-7.1,0-10.5
	c0-4.7-0.1-9.3,0-14c0.2-11.1,7.6-18.4,18.7-18.4c23.8,0,47.7,0,71.5,0c1.8,0,3.6,0,5.9,0c0-6.6,0-12.7,0-18.8c0-12.5-0.1-25,0-37.5
	c0-6.2,2.9-9.1,8.2-8.8c4.9,0.3,7.2,3.2,7.2,9.5c0,16.5,0,33,0,49.5c0,1.8,0,3.6,0,6.2c5.9,0,11.5,0,17.1,0c5,0,10,0,15,0
	c12.5,0,19.5,6.8,19.5,19.4c0.1,19,0,38,0,57c0,1.8,0,3.6,0,6.1c8.8,0,17.1-0.1,25.4,0c9,0.1,15.5,4.5,17.8,11.9
	c0.9,3,1.1,6.2,1.1,9.4c0.1,23.5,0,47,0,70.5c0,2,0,4,0,6.8c2,0,3.8,0,5.5,0c19.5,0,39,0.4,58.5-0.1c10.8-0.3,18.8,2.8,23.4,13
	c0,29.3,0,58.7,0,88c-2.5,6.1-6.9,10.5-13,13c-7.3,0-14.7,0-22,0c-0.2-0.4-0.4-0.9-0.7-1.2c-2.9-2.6-3.9-5.7-2.3-9.4
	c1.5-3.6,4.4-4.6,8.1-4.4s7.3,0.3,11-0.1c1.4-0.2,3.7-1.7,3.8-2.8c0.4-4.9,0.2-9.8,0.2-14.6c-24.4,0-48.1,0-72,0
	c0,5.9,0,11.5,0,17.6c5.4,0,10.5-0.1,15.6,0c6.1,0.1,9.5,5.9,6.5,11.2c-0.8,1.4-2,2.5-3,3.8c-71.3,0-142.7,0-214,0
	c-8.3-4-13.3-10.1-12.9-19.9c0.2-3.5,0-7,0-10.5c0-8.1,0-16.2,0-24.7c-2.6,0-4.6,0-6.6,0c-62.8,0-125.6-0.2-188.4,0.1
	c-10.6,0.1-18-3.3-22.2-13.1C0,300.3,0,156.7,0,13C2.5,6.8,6.8,2.5,13,0C114,0,215,0,316,0z M364.9,275.3c-0.7-0.3-1.3-0.6-1.9-0.8
	c-21.4-5.2-34.8-18.3-40.1-39.8c-0.3-1.1-2.5-2.4-3.9-2.4c-8.2-0.2-16.3-0.1-24.5-0.1c-6.4,0-12.9,0-19.1,0
	c-6.4,24.2-16.6,34.8-39.8,42.2c-1.4,0.4-2.9,3-2.9,4.6c-0.1,57-0.1,114-0.2,170.9c0,3.3,1,4.5,4.3,5.3c11.8,2.7,21.8,8.8,28.5,18.9
	c4.6,6.9,7.6,14.8,11.5,22.6c14.2,0,29.5,0,44.7,0c0-30.7,0-61.1,0-91.5c-26.7,8.8-45.2,4.9-58.6-12c-12.1-15.4-13.3-36.3-3-52.8
	c5.1-8.2,12.1-14.2,20.9-17.9c13.6-5.7,27.2-4.6,41.1,2.2c0-3.7-0.2-6.5,0-9.2c0.5-7.5,6.2-14,13.5-15.3c2.9-0.5,6-0.5,9-0.5
	c6.8-0.1,13.5,0,20.4,0C364.9,291,364.9,283.2,364.9,275.3z M321.8,364.3c0-5.5,0.3-11-0.1-16.5c-0.2-2.2-1.3-4.9-2.9-6.3
	c-11.9-10.9-30.6-10-42,1.6c-11.4,11.7-11.8,29.9-0.7,42c10.8,12,29.6,13.4,42,3.2c2.7-2.2,3.9-4.5,3.8-8.1
	C321.6,375,321.8,369.7,321.8,364.3z M409,413.8c-24,0-47.9,0-71.6,0c0,5.9,0,11.5,0,16.9c24.1,0,47.8,0,71.6,0
	C409,425,409,419.5,409,413.8z M337.2,463.7c24.2,0,47.9,0,71.6,0c0-5.9,0-11.4,0-17.2c-24,0-47.7,0-71.6,0
	C337.2,452.3,337.2,457.9,337.2,463.7z M496.6,463.8c0-6.1,0-11.7,0-17.3c-24.1,0-47.8,0-71.7,0c0,5.9,0,11.5,0,17.3
	C449,463.8,472.7,463.8,496.6,463.8z M337,479.4c0,4.3,0.2,8.2-0.1,12c-0.4,4.4,1.4,5.8,5.7,5.7c21-0.2,41.9-0.1,62.9-0.1
	c1.1,0,2.2-0.2,3.5-0.3c0-5.9,0-11.4,0-17.3C385,479.4,361.3,479.4,337,479.4z M424.9,430.7c24.1,0,47.9,0,72.1,0
	c0-3.8-0.3-7.3,0.1-10.7c0.5-5-1.2-6.7-6.4-6.6c-20.3,0.2-40.6,0.1-60.9,0.1c-1.6,0-3.2,0.2-4.9,0.3
	C424.9,419.7,424.9,425.1,424.9,430.7z M337.2,364.9c24.1,0,47.8,0,71.7,0c0-5.8,0-11.1,0-16.8c-24,0-47.7,0-71.7,0
	C337.2,353.7,337.2,359.1,337.2,364.9z M408.8,397.9c0-6,0-11.5,0-16.8c-24.1,0-47.8,0-71.5,0c0,5.8,0,11.2,0,16.8
	C361.2,397.9,384.8,397.9,408.8,397.9z M409.1,332c0-4.8,0.2-9.5-0.2-14c-0.1-1.1-2.2-2.9-3.4-2.9c-21.6-0.2-43.3-0.2-65,0
	c-1.2,0-3.4,2.1-3.5,3.3c-0.4,4.4-0.2,8.9-0.2,13.6C361.2,332,384.9,332,409.1,332z M365.1,259c0-8,0.2-15.7-0.2-23.3
	c0-1.2-2.3-3.3-3.6-3.4c-7.6-0.3-15.2-0.2-22.9-0.2C340.4,245.1,351.6,256.5,365.1,259z M258.9,232.2c-7.8,0-15.5-0.1-23.3,0.1
	c-1,0-2.8,1.7-2.8,2.7c-0.2,7.9-0.1,15.9-0.1,23.8C245.5,257.1,258.3,244,258.9,232.2z M232.6,470c0,8.1-0.1,15.9,0.1,23.7
	c0,1.1,2.1,3.1,3.3,3.2c7.6,0.3,15.2,0.1,22.9,0.1C258.4,485.3,246.9,473.4,232.6,470z"/>
<path class="st0" d="M405.1,113.6c24.2-24.2,48.2-48.2,72.7-72.7c-6.1,0-12.1,0.1-18.1,0c-5-0.1-7.8-2.6-8.1-7c-0.3-4.5,2.3-8,6.9-8
	c13-0.2,26-0.2,39,0c4.6,0.1,7.4,3,7.4,7.7c0.1,12.8,0.1,25.7,0,38.5c0,4.5-3,7-7.4,7c-4.4,0-7.4-2.5-7.5-6.9
	c-0.2-6.3,0-12.7,0-20.3c-1.9,1.8-3.2,2.8-4.4,4c-23.9,23.9-47.8,47.8-71.8,71.8c-6.6,6.6-9.6,6.6-16.2,0
	c-12.2-12.2-24.5-24.5-37.7-37.7c-1.3,1.8-2.1,3.5-3.4,4.8c-26.2,26.3-52.5,52.6-78.8,78.9c-1.1,1.1-2.1,2.2-3.2,3.1
	c-3.8,3.2-8.2,3.1-11.2,0c-2.9-3.1-2.8-7.1,0.5-10.8c0.8-0.9,1.6-1.7,2.5-2.5c28.8-28.8,57.5-57.5,86.2-86.2c6.6-6.7,9.5-6.7,16.1,0
	C380.9,89.4,393.1,101.7,405.1,113.6z"/>
<path class="st0" d="M100.2,64.4c6.6,3.2,12.6,5.7,18,9c4.4,2.7,5,7.1,2.2,10.7c-2.8,3.7-6.8,4.2-11,1.7c-2.6-1.6-5.4-3-8.7-4.8
	c-0.3,2.2-0.6,3.5-0.6,4.7c-0.1,5,0.5,10.1-0.1,15c-1.2,10.4,0.6,17.2,12.3,21.5c12.6,4.6,18.2,16.5,17.2,29.9
	c-1.1,15.3-8.8,26.9-23.4,32.5c-4.6,1.8-6.6,3.5-6.2,8.6c0.5,6.1-2.8,9.7-7.5,9.6c-4.7-0.1-7.4-3.7-7.5-9.8c0-1.8,0-3.6,0-4.1
	c-8.1-3.3-15.5-5.9-22.6-9.3c-5.6-2.7-6.7-6.7-4.3-10.9c2.5-4.4,6.6-4.9,12.1-2.1c4.5,2.3,9.3,4.1,14.8,6.5c0-15.7,0.1-30-0.1-44.3
	c0-1.1-1.5-2.3-2.6-3.1c-2.2-1.4-4.7-2.5-7-3.8c-10.7-5.9-16.2-14.9-15.1-27c1.1-12.6,7.6-22.1,19.6-26.6c4.5-1.7,5.6-3.9,5.3-8.2
	c-0.3-5.5,2.7-8.7,7.3-8.8c4.7-0.1,7.6,3.2,7.8,8.9C100.3,61.9,100.2,63.8,100.2,64.4z M100.5,170.2c10-3.8,15.2-13.4,13.5-23.6
	c-1.1-6.9-6.9-12.3-13.5-12.7C100.5,145.9,100.5,157.8,100.5,170.2z M84.8,83.4c-5.1,1-8.7,5.9-9.3,12.7c-0.6,6.3,2.1,10.2,9.3,13
	C84.8,100.5,84.8,91.9,84.8,83.4z"/>
<path class="st0" d="M114,382.8c-15.8,0-31.6,0-47.4,0c-6.1,0-9-3-8.6-8.4c0.3-3.6,2.1-5.9,5.7-6.6c1.9-0.4,4-0.4,6-0.4
	c29.8,0,59.6,0,89.4,0c0.5,0,1,0,1.5,0c7.3,0.1,10.6,2.5,10.5,7.7c-0.1,5.3-3.4,7.7-10.5,7.8C144.9,382.8,129.4,382.8,114,382.8z"/>
<path class="st0" d="M214.6,83.8c-14,0-27.9,0.1-41.9,0c-5.6,0-8.4-2.3-8.8-6.7c-0.4-5.4,2.5-8.6,8.4-8.7c8.5-0.2,17-0.1,25.4-0.1
	c18.6,0,37.3,0,55.9,0c1.5,0,3-0.1,4.5,0.1c4.5,0.5,7.7,3.8,7.7,7.7c0,3.9-3.3,7.3-7.8,7.6c-4.8,0.3-9.6,0.1-14.5,0.1
	C233.9,83.8,224.3,83.8,214.6,83.8z"/>
<path class="st0" d="M196.7,137.4c-8,0-16,0.1-23.9,0c-6.3-0.1-8.9-2.5-8.9-7.6c0-5.1,2.9-7.7,8.9-7.7c16-0.1,31.9-0.1,47.9,0
	c5.9,0,9.1,2.8,9.1,7.6c0,4.7-3.3,7.6-9.1,7.7C212.7,137.5,204.7,137.4,196.7,137.4z"/>
</svg>
