<?xml version="1.0" encoding="utf-8"?>
<!-- Generator: Adobe Illustrator 27.0.0, SVG Export Plug-In . SVG Version: 6.00 Build 0)  -->
<svg version="1.1" id="圖層_1" xmlns="http://www.w3.org/2000/svg" xmlns:xlink="http://www.w3.org/1999/xlink" x="0px" y="0px"
	 viewBox="0 0 512 512" style="enable-background:new 0 0 512 512;" xml:space="preserve">
<style type="text/css">
	.st0{fill:#FFFFFF;}
</style>
<g>
	<path class="st0" d="M198.8,0c2.1,0.5,4.3,0.9,6.4,1.5c17.5,4.5,29.2,15,34.6,32c0.5,1.4,0.9,2.8,1.4,4.5c10.4,0,20.8,0,31.1,0
		c9.6,0,17.2,3.9,22.1,12c1.6,2.7,3.5,3.1,6.1,3c18.4-0.1,36.8-0.1,55.2,0c20.3,0,33.2,12.6,33.2,32.4c0,53.8,0,107.7,0,161.5
		c0,1.8,0,3.6,0,5.9c38.8-1.3,71.2,11.6,96.1,40.4c18.2,21,27.2,45.5,26.8,73.1c-0.5,32.1-13,59.2-36.9,81.1
		c-24,21.9-53,31-85.7,30.2c-0.3,3.6-0.1,6.8-0.8,9.8c-2.5,11.5-9.6,19.2-20.9,23.2c-1.1,0.4-2.1,0.9-3.2,1.3
		c-113.2,0-226.4,0-339.7,0C9,506.9,0.1,496.8,0.1,479.7C0.2,348.2,0.3,216.8,0,85.3C0,66.4,14.6,52.7,33.1,53
		c18.6,0.4,37.2,0,55.7,0.1c2.8,0,4.4-0.7,6-3.2c4.8-7.8,12.3-11.8,21.7-11.9c9.2-0.1,18.4-0.2,27.6,0.1c3.6,0.1,4.8-1,5.8-4.4
		c5.1-16.6,16.3-27.3,33.4-31.9c2.4-0.6,4.9-1.2,7.3-1.9C193.4,0,196.1,0,198.8,0z M306,434.3c-0.8-1.3-1.2-2-1.7-2.7
		c-34.8-47.9-28.9-108.7,14.4-149.3c1.7-1.6,2.7-4.5,2.7-6.9c0.2-53.8,0.1-107.6,0.1-161.4c0-1.6-0.1-3.2-0.2-5.1
		c-8.3,0-16.1-0.1-23.9,0.1c-1.4,0-3.2,1.1-4,2.2c-5.5,7.3-12.9,10.6-22,10.6c-51.3,0-102.6,0-153.9,0c-8.9,0-16.1-3.4-21.6-10.4
		c-0.8-1.1-2.2-2.4-3.4-2.4c-8.1-0.2-16.2-0.1-24.4-0.1c0,108.8,0,217,0,325.4C147.3,434.3,226.2,434.3,306,434.3z M90.6,68.9
		c-21,0-41.4-0.2-61.8,0.1c-6.3,0.1-11.4,5.4-12.2,11.6c-0.3,2.3-0.3,4.7-0.3,7c0,130,0,260,0,390c0,2.2,0,4.3,0.2,6.5
		c0.6,5.9,5,10.7,10.8,11.9c1.8,0.4,3.7,0.3,5.6,0.3c107.8,0,215.5,0,323.3,0c1,0,2,0,3.1,0c7.1-0.4,12.9-5.8,13.5-12.7
		c0.2-2.6,0-5.3,0-8.1c-1.4-0.5-2.7-0.9-4-1.2c-15.9-3.9-30.1-11.1-43.2-20.7c-2.5-1.8-6-3.1-9.1-3.1c-84.2-0.2-168.5-0.1-252.7-0.1
		c-9.6,0-11.7-2-11.7-11.4c0-32.8,0-65.7,0-98.5c0-77.8,0-155.7,0-233.5c0-12.1,1.6-13.6,13.7-13.6c8.2,0,16.3,0,24.8,0
		C90.6,85,90.6,77.2,90.6,68.9z M495.9,365.1c-0.2-53.6-44.5-97.3-98.5-97c-55.8,0.2-99.6,43.5-99.4,98.1
		c0.1,52.7,45.3,96.1,99.8,95.8C451.8,461.6,496.1,417.9,495.9,365.1z M194.1,106.1c25.7,0,51.5,0,77.2,0c7.4,0,10.6-3.1,10.7-10.3
		c0.1-10.2,0.1-20.3,0-30.5c0-9.2-2.7-11.8-12.3-11.8c-11.3,0-22.5,0-33.8,0c-7.9,0-9.8-1.8-10.7-9.5C223.5,27,210.8,15.7,194,15.9
		C178.4,16,165.2,28,164,43.1c-0.7,8.5-2.6,10.3-11.5,10.3c-10.9,0-21.8,0-32.7,0c-10,0-12.9,2.8-12.9,12.4c0,9.5,0,19,0,28.5
		c0,8.7,3.2,11.7,12,11.7C144,106.1,169,106.1,194.1,106.1z M372.8,253.9c0-0.2,0.1-1.1,0.1-1.9c0-56.1,0-112.3,0-168.4
		c0-9-5.7-14.7-14.9-14.8c-18.9-0.2-37.8-0.1-56.7-0.1c-0.8,0-1.6,0.2-2.6,0.3c0,8.1,0,15.9,0,24c9.1,0,17.8,0,26.5,0
		c10.4,0,12.7,2.2,12.7,12.3c0,52.1,0,104.3,0,156.4c0,1.9,0,3.9,0,5.6C349.6,262.9,361,258.4,372.8,253.9z"/>
	<path class="st0" d="M226,156c16.9,0,33.7,0,50.6,0c6.1,0,9.8,3,9.7,7.8c0,4.7-3.8,7.9-9.8,7.9c-33.7,0-67.4,0-101.1,0
		c-6.1,0-9.6-3.1-9.6-8s3.5-7.7,9.7-7.8C192.3,156,209.2,156,226,156z"/>
	<path class="st0" d="M216.9,291c-14,0-27.9,0-41.9,0c-6.6,0-10.1-2.8-10-8c0.1-4.9,3.4-7.7,9.8-7.7c28.2,0,56.5,0,84.7,0
		c6.2,0,9.7,3,9.8,7.8c0,5.1-3.4,7.8-10.1,7.8C245.1,291,231,291,216.9,291z"/>
	<path class="st0" d="M237.5,367c0-14-0.1-28,0-42c0-4.7,3.3-7.9,7.4-8c4.5-0.1,7.9,3,8.3,7.8c0.2,1.7,0.1,3.3,0.1,5
		c0,25.2,0,50.3,0,75.5c0,1.2,0.1,2.3,0,3.5c-0.3,5-3.4,8.1-7.8,8.1c-4.7,0.1-8-3.2-8-8.4C237.4,394.7,237.5,380.9,237.5,367
		C237.5,367,237.5,367,237.5,367z"/>
	<path class="st0" d="M191.7,374c0-10.8,0-21.6,0-32.5c0-5.4,3-8.9,7.5-8.9c4.9,0,8.6,3.3,8.6,8.6c0.1,22.1,0.1,44.3,0,66.4
		c0,5.2-3.6,8.4-8.2,8.3c-4.7-0.1-7.8-3.3-7.8-8.5C191.6,396.3,191.7,385.1,191.7,374z"/>
	<path class="st0" d="M205.2,215c10.4,0,20.7,0,31.1,0c5.7,0,9.3,3,9.4,7.6c0.1,4.5-3.7,8.1-9.1,8.1c-20.9,0.1-41.8,0.1-62.8,0
		c-5.7,0-9-3.2-9-8.1c0-4.8,3.4-7.7,9.2-7.7C184.5,215,194.8,215,205.2,215z"/>
	<path class="st0" d="M114.1,166.1c5.1-7.6,9.6-14.4,14.1-21.3c3.5-5.2,8.1-6.7,12.4-3.9c4,2.6,4.5,7.3,1.2,12.3
		c-6.4,9.6-12.7,19.3-19.2,28.9c-4.5,6.6-9.5,6.9-14.8,0.9c-3.7-4.2-7.3-8.3-10.9-12.6c-3.8-4.5-3.6-9.4,0.2-12.3
		c4-3.1,8.4-2.2,12.4,2.5C110.9,162.2,112.3,163.9,114.1,166.1z"/>
	<path class="st0" d="M114.1,224.9c4.6-6.9,8.9-13.3,13.1-19.7c3.4-5.1,7.7-6.4,11.9-3.6c4,2.6,4.5,7.1,1.4,11.8
		c-6.1,9.2-12.2,18.5-18.3,27.6c-4.5,6.7-9.6,6.9-14.8,0.9c-3.6-4.2-7.2-8.5-10.7-12.8c-4.1-5.1-4.1-9.6,0.1-12.7
		c3.9-3,8.6-1.9,12.7,3C111,221.2,112.3,222.8,114.1,224.9z"/>
	<path class="st0" d="M113.8,285.5c5-7.5,9.7-14.5,14.4-21.6c2.1-3.1,5.1-5.1,8.6-3.8c2.5,1,5,3.4,6.1,5.8c0.8,1.6-0.2,4.6-1.3,6.4
		c-6.5,10.2-13.1,20.2-19.9,30.1c-3.8,5.6-9,5.8-13.5,0.7c-3.9-4.4-7.6-9-11.3-13.5c-3-3.8-2.5-8.2,1-11c3.5-2.7,8-2.1,11.3,1.5
		C110.6,281.7,111.9,283.4,113.8,285.5z"/>
	<path class="st0" d="M115.9,387c0,7.1,0,14.3,0,21.4c0,5.5-2.8,8.6-7.6,8.7c-5,0.1-8.4-3-8.4-8.6c-0.1-14.5-0.1-28.9,0-43.4
		c0.1-5.6,3.8-9.3,8.6-9.1c4.7,0.2,7.4,3.7,7.4,9.5C116,372.7,115.9,379.9,115.9,387z"/>
	<path class="st0" d="M161.9,393.9c0,4.7,0.1,9.3,0,14c-0.2,5.1-3.6,8.3-8.3,8.1c-4.5-0.1-7.7-3.3-7.8-8.2c-0.1-9.3-0.1-18.6,0-28
		c0.1-4.8,3.4-8.1,7.8-8.2c4.6-0.1,8.1,3.2,8.3,8.2C162,384.5,161.9,389.2,161.9,393.9z"/>
	<path class="st0" d="M405.5,420.3c-0.9,9.8-3.3,13.5-8.6,13.4c-5.2-0.1-7.4-3.4-8-11.7c-5-2.6-10.1-4.7-14.4-7.7
		c-7.7-5.4-11.6-13.3-12.8-22.4c-0.7-5.4,2.3-9.4,6.9-9.9c5-0.5,8.2,2.2,9.2,7.8c1.6,8.8,8.1,15.2,16.4,16.2
		c9.2,1,17.2-3.4,20.6-11.4c4.2-9.6-1.6-19.5-12.2-20.6c-4-0.5-8.2,0-12.2-0.5c-15.9-2-27.4-13.2-28.8-27.8
		c-1.5-15.8,7.7-30.3,22.7-35.1c3.4-1.1,5-2.2,4.8-6c-0.3-5.1,2.7-8.2,7.2-8.5c4.8-0.3,8.7,2.7,8.6,7.8c-0.1,4.4,1.7,5.8,5.7,7.2
		c12.3,4.2,21.1,16,21.5,27.8c0.2,5.7-2.2,8.9-6.9,9.3c-4.9,0.5-7.9-2-9.1-7.5c-2.7-12.5-11.6-18.3-24.2-15.8
		c-8.2,1.6-14.1,8.7-14.1,16.7c0.1,8.4,4.7,13.3,14.1,14.9c2.2,0.4,4.4,0.5,6.6,0.4c17-0.4,30.3,9.5,33.4,25
		c3.1,15.4-6.2,31.4-21.3,36.9C409,419.3,407.3,419.8,405.5,420.3z"/>
</g>
</svg>
