<?xml version="1.0" encoding="utf-8"?>
<!-- Generator: Adobe Illustrator 27.0.0, SVG Export Plug-In . SVG Version: 6.00 Build 0)  -->
<svg version="1.1" id="圖層_1" xmlns="http://www.w3.org/2000/svg" xmlns:xlink="http://www.w3.org/1999/xlink" x="0px" y="0px"
	 viewBox="0 0 512 512" style="enable-background:new 0 0 512 512;" xml:space="preserve">
<style type="text/css">
	.st0{fill:#FFFFFF;}
</style>
<path class="st0" d="M367,358.1c30.8-16,61-31.6,91.2-47.3c7.8-4.1,16-6,24.7-4.2c13.4,2.8,23.6,13.3,25.7,26
	c2.3,13.9-3.4,26.9-15.6,34.2c-19.2,11.4-38.7,22.4-58,33.6c-34.1,19.7-68.2,39.4-102.2,59.1c-13.5,7.8-27.9,9.5-43.2,7.2
	c-31.2-4.7-62.4-9.1-93.7-13.6c-3.9-0.6-7.7-1.2-11.6-1.8c-4.5-0.8-8.8-0.9-12.7,3.3c1.3,2.2,2.8,4.5,4.2,6.9
	c2.4,4.1,2.2,7.9-2.1,10.6c-20.3,13-40.7,25.9-61.2,38.6c-4.3,2.7-7.4,1.3-10.9-4.1c-10.6-16.8-21.2-33.6-31.9-50.4
	c-21.4-33.7-42.7-67.5-64-101.2c-4.5-7.1-3.9-9.7,3.3-14.2c18.7-11.9,37.4-23.7,56.2-35.6c6.6-4.2,9.4-3.5,13.6,2.9
	c3.5,5.5,7.4,10.9,10.4,16.7c2.3,4.3,4.6,5.1,9.2,3.4c26.5-9.4,53.2-18.5,79.8-27.8c14.1-5,28-5,42.2-0.2
	c42.1,14.2,84.3,28.2,126.5,42.3C355.2,345.3,362,350,367,358.1z M164.1,442.8c7.6-7.9,16.5-6.7,25.5-4.7c2.8,0.6,5.6,0.8,8.4,1.2
	c28.4,4.1,56.9,8,85.3,12.4c15.8,2.5,30.6,2.9,45.2-5.7c51.7-30.4,103.8-60.1,155.7-90.1c2.6-1.5,5.1-3.4,6.9-5.7
	c5.5-6.8,5.3-16.9-0.1-23.7c-5.7-7.1-15.8-8.9-25.2-4.1c-30.4,15.7-60.8,31.5-91.2,47.2c-2.5,1.3-3.5,2.6-3.6,5.6
	c-0.4,20.9-22.3,37-42.3,30.6c-31.5-10.1-62.8-21-94.2-31.5c-4.2-1.4-6.8-4-5.6-8.7c1.2-4.4,5-5.9,10.3-4.2
	c7.1,2.3,14.1,4.7,21.2,7.1c24,8,48,16.2,72.1,24c12.4,4,26-7,24.8-19.9c-0.8-8.7-6-14-14.2-16.7c-42-14-84-28.1-125.9-42.3
	c-12.3-4.2-24.1-3.9-36.4,0.5c-25,9-50.2,17.4-75.3,26.1c-1.6,0.5-3.1,1.3-5,2.1C121.8,375.9,142.7,409,164.1,442.8z M69.4,319
	c-17,10.8-33.4,21.1-50,31.7c30.7,48.6,61.1,96.5,91.6,144.8c16.9-10.7,33.3-21.1,50-31.7C130.4,415.4,100.1,367.5,69.4,319z"/>
<path class="st0" d="M231.3,90.9c-1.8-1.5-4.3-3.3-6.3-5.5c-8.1-8.8-8.1-20.6,0.2-29.3c5.9-6.2,12-12.1,18.1-18.1
	c9.9-9.7,21.9-10,31.4,0c4.2,4.4,7.2,4.8,12.5,1.8c6.6-3.7,13.9-6.2,21.1-8.6c3.6-1.2,4.6-2.7,4.6-6.3c0-4,0.3-8.3,1.8-12
	c3.2-8.4,9.8-12.8,18.9-13c9.1-0.1,18.1-0.1,27.2,0c11.9,0.1,20.8,8.9,21,20.9c0.1,2.8,0,5.7,0,7.8c10.5,4.7,20.5,9.2,30.6,13.4
	c1.3,0.5,3.9-0.7,5.1-1.9c4.7-4.8,9.7-8.9,16.8-9.2c6.4-0.3,11.8,1.9,16.3,6.4c6.2,6.1,12.4,12.2,18.5,18.5c8.8,9.1,9,21.5-0.4,30.3
	c-4.8,4.5-5,7.7-2,13.3c4.3,7.9,7,16.6,10.6,25.4c2.6,0,5.6-0.1,8.6,0c11.3,0.2,20.3,9,20.5,20.3c0.2,8.5,0.1,17.1,0,25.6
	c0,14-8.4,22.9-22.4,22.8c-5.7-0.1-8.3,1.4-9.9,7.2c-1.9,6.9-5,13.6-8.4,20c-2.2,4.1-2.2,6.7,1.5,9.9c7.1,6.2,11.3,14.6,6.8,23.3
	c-7.2,13.8-18.3,24.9-32.2,32.1c-7.6,4-15.6,0.8-21.8-5.4c-1.9-1.9-3.4-4.1-4.4-5.2c-11.3,4.4-21.4,8.3-31.3,12.4
	c-1.2,0.5-2.4,2.3-2.6,3.6c-0.5,3.1,0.1,6.4-0.5,9.6c-1.8,10-9.9,17-20.6,17.4c-8.9,0.3-17.8,0.3-26.6,0
	c-12.8-0.4-21.4-9.4-21.2-22.5c0.1-5.7-1.2-8.6-7.1-9.8c-4.4-0.8-8.7-3-12.9-4.9s-8.3-4-13.8-6.8c-1.6,2-3.1,4.6-5.3,6.7
	c-8.6,8.2-20.6,8.3-29.2,0.1c-6.4-6.1-12.7-12.4-18.9-18.8c-8.9-9.2-8.9-21.1,0-30.4c1.8-1.9,4-3.5,5.3-4.6
	c-4.4-11.3-8.3-21.5-12.4-31.6c-0.4-1.1-2.2-2-3.5-2.2c-2.6-0.4-5.3-0.1-8-0.4C196,192,188.4,184,188,172.7c-0.3-9-0.3-18.1,0-27.2
	c0.4-12.3,9.5-21,21.8-20.6c6,0.2,8.8-1.3,10.6-7.6C222.9,108.6,227.3,100.4,231.3,90.9z M232.3,247.2c1,2,1.6,4,2.9,5.3
	c6,6.3,12.2,12.4,18.5,18.5c3.5,3.4,7.4,3.2,10.9-0.1c3-2.8,5.9-5.7,8.7-8.6c3.1-3.3,6.4-3.9,10.4-1.4c11.3,7.2,23.6,12.2,36.6,15.2
	c4.4,1,6.3,3.6,6.3,7.9c0,4.3-0.1,8.5,0.1,12.8c0.2,4.6,2.6,7.5,7.2,7.6c8.9,0.2,17.8,0.2,26.6,0c4.9-0.1,7.3-3.2,7.3-8
	c0-3.9,0.1-7.8,0-11.7c-0.2-4.8,2.2-7,6.7-8.7c12.2-4.6,24.3-9.6,36.2-15.1c4.2-1.9,7.3-1.9,10.5,1.3c2.9,2.9,5.7,5.8,8.7,8.6
	c3.5,3.3,7.3,3.7,10.8,0.2c6.3-6,12.4-12.2,18.5-18.4c3.5-3.6,3.2-7.3-0.2-10.8c-2.7-2.8-5.4-5.6-8.3-8.3c-3.7-3.5-4-7.2-1.4-11.4
	c6.9-11.1,11.9-23,14.7-35.7c1-4.4,3.6-6.7,8.3-6.7c4.3,0,8.5,0.1,12.8-0.1c4.9-0.2,7.5-2.9,7.5-7.8c0.1-8.5,0.1-17.1,0-25.6
	c-0.1-4.8-2.9-7.5-7.7-7.6c-4.1-0.1-8.2-0.2-12.3,0c-4.7,0.2-7.5-2.1-8.5-6.4c-3-13.1-8.1-25.3-15.1-36.7c-2.3-3.7-2-7,1.1-10.1
	c3-3,6.1-6,9-9.1c3.4-3.6,3.4-7.3,0-10.8c-6.1-6.2-12.2-12.4-18.5-18.4c-3.3-3.2-7-3.1-10.4,0.1c-3.1,2.9-6.1,5.9-9.1,9
	c-3,3.1-6.4,3.6-10.1,1.3c-11.6-7.2-23.9-12.3-37.2-15.4c-4.2-1-6.2-3.7-6-8.1c0.1-4.1,0.1-8.2,0-12.3c-0.2-5.1-2.9-7.8-8-7.8
	c-8.3-0.1-16.7-0.1-25.1,0c-5.3,0.1-7.8,2.5-8.1,7.8c-0.2,4.1-0.2,8.2-0.1,12.3c0.1,4.6-2.1,7.4-6.5,8.4c-12.9,2.9-25,8-36.2,14.9
	c-4.1,2.5-7.7,2.1-11-1.4c-2.8-3-5.7-5.8-8.7-8.7c-3.4-3.2-7-3.4-10.4-0.1c-6.2,6.1-12.4,12.2-18.5,18.5c-3.4,3.5-3.4,7.3,0,10.8
	c2.8,3,5.7,5.9,8.6,8.7c3.5,3.3,3.8,6.8,1.2,10.9c-7.1,11.2-12,23.3-15,36.2c-1,4.5-3.8,6.6-8.4,6.5c-3.9-0.1-7.8-0.1-11.7,0
	c-5.5,0.1-8.2,2.5-8.4,8.1c-0.2,8.3-0.2,16.7,0,25c0.1,5.3,2.6,7.6,8,7.9c4.1,0.2,8.2,0.1,12.3,0.1c4.5,0,6.7,2.3,8.3,6.6
	c4.5,12,9.4,24,14.8,35.7c2.1,4.6,2.4,7.9-1.4,11.4c-2.9,2.7-5.7,5.4-8.3,8.3C234.3,243.3,233.5,245.3,232.3,247.2z"/>
<path class="st0" d="M430.8,159.2c-0.1,46.2-37.6,83.6-83.7,83.6c-46.1,0-83.5-37.9-83.5-84.5c0-45.4,38.2-82.8,84.2-82.6
	C393.9,75.9,430.9,113.1,430.8,159.2z M404.1,198.9c19.7-26.3,17.7-68.3-12.2-93.4c-28.7-24.1-72.4-20.6-97.2,7.9
	c-24,27.6-20,66.9-3.8,85.3c9.2-8.7,20.3-11.6,32.7-11.2c15.3,0.4,30.6,0.4,45.8,0C382.4,187.1,394.1,189.5,404.1,198.9z
	 M394.8,209.4c-4.6-4.9-10.2-7.8-16.8-7.9c-20.4-0.2-40.8-0.2-61.2,0c-6.8,0.1-12.5,3-17.1,8.1C325.8,236.3,372.3,233.9,394.8,209.4
	z"/>
<path class="st0" d="M312.4,148.1c-0.1-19.5,15.1-35,34.4-35.1c19.7-0.1,35.4,15.2,35.7,34.7c0.2,19.2-15.9,35.4-35.2,35.3
	C328.1,183,312.5,167.4,312.4,148.1z M347.2,126.8c-11.7,0-20.9,9.1-21,20.9c-0.1,12,9.1,21.2,21.2,21.2c11.6,0.1,20.9-9.3,21-21
	C368.5,136.1,359.2,126.8,347.2,126.8z"/>
</svg>
