<?xml version="1.0" encoding="utf-8"?>
<!-- Generator: Adobe Illustrator 27.0.0, SVG Export Plug-In . SVG Version: 6.00 Build 0)  -->
<svg version="1.1" id="圖層_1" xmlns="http://www.w3.org/2000/svg" xmlns:xlink="http://www.w3.org/1999/xlink" x="0px" y="0px"
	 viewBox="0 0 512 512" style="enable-background:new 0 0 512 512;" xml:space="preserve">
<style type="text/css">
	.st0{fill:#FFFFFF;}
</style>
<path class="st0" d="M0,452c0-89.3,0-178.7,0-268c0.4-0.7,0.8-1.4,1.1-2.2c5.6-12.2,15-18.8,28.5-19.1c6.2-0.2,12.3,0,18.5,0
	c3.8,0,7.5,0,11.7,0c0-6.3-0.1-11.7,0-17.2c0.1-6.3-0.5-12.8,0.6-18.9c2.5-14.2,14.7-24.2,29.3-24.5c10.1-0.2,20.2,0,30.9,0
	c0-2.5,0-4.2,0-6c0-8.2-0.2-16.3,0.1-24.5c0.7-18,13.6-30.4,31.6-30.4c34.8,0,69.7,0,104.5,0c13.5,0,23.2,6.2,29.2,18.1
	c5.3,10.5,10.6,21.1,15.6,31.8c1.5,3.1,3.1,4.4,6.7,4.3c13.5-0.2,27-0.1,40.5-0.1c43.3,0,86.7,0,130,0c18.9,0,32.1,13.3,32.1,32.1
	c0,64.3,0,128.7,0,193c0,12.8-7.2,24.1-18.9,28.5c-4.4,1.6-9.4,2.1-14.1,2.3c-9.1,0.4-18.2,0.1-27.9,0.1c0,11,0.1,21.2,0,31.5
	c-0.2,9.6-4.5,17.3-12,23.1c-5.4,4.2-11.6,6.3-18.5,6.3c-9.9-0.1-19.8,0-30.3,0c0,11.2,0.4,21.7-0.1,32.2
	c-0.8,16.3-13.9,28.8-30.1,28.8c-109.8,0.1-219.7,0.1-329.5,0c-9.5,0-17.5-3.9-23.5-11.3C3.7,458.7,2,455.2,0,452z M358.8,247.2
	c-2.2,0-4.2,0-6.2,0c-55.5,0-111-0.2-166.5,0.1c-15.8,0.1-26.6-6.5-33.1-20.8c-4.5-9.8-9.6-19.4-14.2-29.1c-1.5-3.3-3.3-4.5-7.1-4.5
	c-32.3,0.2-64.7,0.1-97,0.1c-1.8,0-3.5,0-5.4,0c0,83.5,0,166.2,0,249.4c109.9,0,219.6,0,329.4,0
	C358.8,377.2,358.8,312.5,358.8,247.2z M419.7,381.6c0-65,0-129.7,0-195.1c-1.9,0-3.6,0-5.4,0c-13.5,0-27,0-40.5,0
	c-42.5,0-85-0.1-127.4,0.1c-15.1,0.1-25.7-6.4-32.1-20.1c-4.8-10.1-9.9-19.9-14.6-30c-1.5-3.3-3.4-4.6-7.1-4.5
	c-32.5,0.2-65,0.1-97.5,0.1c-1.6,0-3.2,0-4.8,0c0,10.6,0,20.3,0,30.7c2,0,3.8,0,5.6,0c13.2,0,26.3,0,39.5,0
	c13.4,0.1,23.1,6.2,29.1,18.2c5.2,10.6,10.6,21.1,15.6,31.8c1.6,3.4,3.5,4.4,7.2,4.4c56.5-0.1,112.9-0.1,169.4-0.1
	c2.6,0,5.4,0,7.9,0.6c15.7,3.4,24.8,15.3,24.8,32.7c0,41.7,0,83.3,0,124.9c0,2.1,0,4.2,0,6.4C399.9,381.6,409.7,381.6,419.7,381.6z
	 M450.1,320.7c10.4,0,20.3,0,30.5,0c0-65,0-129.7,0-195c-2.4,0-4.5,0-6.7,0c-55.3,0-110.6-0.1-166,0.1c-15.4,0-26.4-6.2-33-20.4
	c-4.6-10.1-9.9-19.9-14.7-30c-1.5-3.2-3.2-4.3-6.8-4.3c-32.5,0.2-65,0.1-97.5,0.1c-1.6,0-3.2,0-4.8,0c0,10.6,0,20.5,0,30.8
	c14.9,0,29.3,0.1,43.8,0c14.4-0.2,24.4,6.3,30.6,19.1c4.9,10.2,10.2,20.2,14.9,30.5c1.6,3.6,3.6,4.7,7.5,4.7c56-0.1,112,0.3,168-0.3
	c18.3-0.2,34.6,12.8,34.3,34.3c-0.7,41.5-0.2,83-0.2,124.5C450.1,316.5,450.1,318.5,450.1,320.7z"/>
<path class="st0" d="M282.1,397c-0.3,2.6-0.3,5.3-1,7.9c-1.9,7.3-7.9,11.5-15.6,11.2c-6.7-0.3-12.6-5.2-13.7-12.2
	c-0.7-4.4-0.8-9-0.2-13.4c1-8,7.8-13.6,15.4-13.3c7.8,0.3,14.1,6.7,14.7,14.9c0.1,1.6,0,3.3,0,5C282,397,282,397,282.1,397z"/>
<path class="st0" d="M294.2,396.3c1.3-4.2,1.8-8.8,4-12.5c3.1-5.2,8.4-7.6,14.5-6.5c6.2,1.1,10.9,4.7,12.1,11
	c0.9,4.6,1.1,9.6,0.6,14.3c-0.9,8.4-7.5,13.6-15.8,13.4c-7.6-0.2-13.7-6.3-14.4-14.4c-0.1-1.6,0-3.3,0-5
	C294.9,396.5,294.6,396.4,294.2,396.3z"/>
</svg>
