<?xml version="1.0" encoding="utf-8"?>
<!-- Generator: Adobe Illustrator 27.0.0, SVG Export Plug-In . SVG Version: 6.00 Build 0)  -->
<svg version="1.1" id="圖層_1" xmlns="http://www.w3.org/2000/svg" xmlns:xlink="http://www.w3.org/1999/xlink" x="0px" y="0px"
	 viewBox="0 0 512 512" style="enable-background:new 0 0 512 512;" xml:space="preserve">
<style type="text/css">
	.st0{fill:#FFFFFF;}
</style>
<path class="st0" d="M228.7,147.7c63.2,0,126.4,0,189.6,0c19.5,0,33.2,9.5,38,26.4c1.2,4.1,1.7,8.6,1.7,12.9
	c0.1,77.4,0.1,154.9,0.1,232.3c0,23.9-15.2,39.4-39.2,39.4c-126.5,0.1-253.1-0.1-379.7,0.2c-25.3,0-39.3-20.3-39.2-39.5
	c0.6-77.2,0.7-154.5,0-231.7c-0.2-20.9,15.1-40.4,40.3-40.2C103.1,148.2,165.9,147.7,228.7,147.7z M229,440.3c63,0,126,0,189,0
	c14.4,0,21.2-6.6,21.2-20.7c0-77.6,0-155.3,0-233c0-13.7-7-20.5-20.9-20.5c-126.2,0-252.4,0-378.6,0c-13.8,0-21.1,7.3-21.1,21.1
	c0,77.3,0,154.6,0,231.8c0,14.3,7.1,21.3,21.4,21.3C103,440.3,166,440.3,229,440.3z"/>
<path class="st0" d="M493.4,111.5c-140.2,0-279.9,0-420.1,0c-0.1,3.1-0.1,6.1-0.4,9c-0.7,5.4-4.6,9-9.3,9c-4.8-0.1-9.1-3.8-9.1-9.2
	c0-17.3-0.6-34.7,1-51.8c1.5-17,16.2-29.3,33.3-30.4c2.7-0.2,5.3-0.2,8-0.2c124.5,0,248.9-0.1,373.4,0.1c6.4,0,13,0.7,19,2.7
	c14.1,4.9,23,18.5,23,33.5c0,79.5,0.1,159.1,0,238.6c0,15.3-7.7,26.3-21.4,32.9c-5.6,2.7-10.9,1.2-13.3-3.5
	c-2.5-5-0.7-10.1,5.2-13.1c7.4-3.7,11.2-9.7,11.2-17.8c0.1-65.8,0-131.7,0-197.5C493.7,113.3,493.5,112.6,493.4,111.5z M493.7,92.6
	c0-4.8,0-9.1,0-13.5c0-16.2-6.5-22.7-22.9-22.7c-125,0-250,0-375,0c-2.1,0-4.2-0.1-6.3,0.1c-7.2,0.5-14.8,5.9-15.7,12.8
	c-1,7.6-0.2,15.3-0.2,23.3C213.6,92.6,353.2,92.6,493.7,92.6z"/>
<path class="st0" d="M118.4,403.9c-11.4,0-22.8,0.1-34.2,0c-8.2-0.1-11.5-3.3-11.6-11.3c-0.1-10.8-0.1-21.7,0-32.5
	c0.1-7.7,3.6-11.1,11.3-11.1c23.2,0,46.4,0,69.6,0c7.3,0,10.9,3.5,11,10.8c0.1,11.2,0.1,22.5,0,33.7c-0.1,7-3.6,10.4-10.7,10.5
	C142,404,130.2,403.9,118.4,403.9z M91.7,385.2c18.2,0,35.9,0,53.6,0c0-6,0-11.8,0-17.5c-18.1,0-35.7,0-53.6,0
	C91.7,373.6,91.7,379.2,91.7,385.2z"/>
<path class="st0" d="M384,385.5c-11.6,0-23.2,0-34.8,0c-7,0-10.7-3.2-10.9-8.9c-0.1-6,3.8-9.5,10.9-9.5c23,0,46,0,69,0
	c6.9,0,11.3,3.7,11.3,9.3c0,5.7-4.2,9-11.4,9.1C406.8,385.6,395.4,385.5,384,385.5z"/>
</svg>
