<?xml version="1.0" encoding="utf-8"?>
<!-- Generator: Adobe Illustrator 27.0.0, SVG Export Plug-In . SVG Version: 6.00 Build 0)  -->
<svg version="1.1" id="_圖層_1" xmlns="http://www.w3.org/2000/svg" xmlns:xlink="http://www.w3.org/1999/xlink" x="0px" y="0px"
	 viewBox="0 0 504.5 504.5" style="enable-background:new 0 0 504.5 504.5;" xml:space="preserve">
<style type="text/css">
	.st0{fill:none;stroke:#DEE337;stroke-miterlimit:10;}
	.st1{fill:none;stroke:#FFFFFF;stroke-miterlimit:10;}
	.st2{enable-background:new    ;}
	.st3{fill:#FFFFFF;}
</style>
<circle class="st0" cx="252.3" cy="252.3" r="251.8"/>
<circle class="st1" cx="252.3" cy="252.3" r="223.6"/>
<g class="st2">
	<path class="st3" d="M228.3,218.8H125.7v46.8c9.8-2.8,21.1-6.6,33.9-11.4l1.8,7.5c-15.3,5.8-29.7,10.6-43.2,14.4l-2.9-7.9
		c1.6-0.8,2.4-2,2.4-3.5v-45.8h-20v-7.3h23.9v-61.7h97.8v7.3h-89.8v13.2h81.9v7.4h-81.9v13.2h81.9v7.2h-81.9v13.5h98.7V218.8z
		 M227.6,268.9l-4.4,7.2c-16.2-3.9-30.3-9.3-42.3-16.4c-12-7.1-21.1-17.5-27.4-31.1l6.9-3.1c5.4,10.4,11.3,18,17.7,22.9
		c10.3-5.4,20.8-12.8,31.3-22.3l5.7,5.1c-7.1,7-17.1,14.3-30,22C197.2,260.3,211.4,265.5,227.6,268.9z"/>
	<path class="st3" d="M350.1,170.2h-13V232h11.4v7.3h-70.7V232h15v-61.8h-12.7v-7.3h12.7v-17h8v17h28.3v-17h7.9v17h13V170.2z
		 M308.6,248.5c-5.7,9.8-13.1,19.1-22.2,27.9l-6.4-5.4c9.1-8.6,16.5-17.6,22.2-27L308.6,248.5z M329.2,185.2v-15h-28.3v15H329.2z
		 M329.2,208.3v-15.6h-28.3v15.6H329.2z M329.2,232v-16.3h-28.3V232H329.2z M339.1,262.9l-6.4,5.1c-3.4-6.3-7.8-12.5-13.2-18.4
		l5.6-5C330.5,250.3,335.1,256.4,339.1,262.9z M402.2,267.1c0,3.3-1.2,5.8-3.6,7.5c-2.4,1.7-6.9,2.6-13.7,2.6c-2.6,0-5.2-0.1-8-0.4
		l-2.9-8.2c5.1,0.4,9.4,0.7,12.8,0.7c5,0,7.5-1.3,7.5-4v-36.2h-30.8c-1.7,18.6-7.3,34.6-16.8,48.3l-6.7-5.2
		c6.2-7.7,10.5-16.6,13-26.7c2.5-10.1,3.8-24.2,3.8-42.4v-53.9h45.3V267.1z M394.4,221.7V193h-29.9c0.3,8.9,0.1,18.5-0.4,28.7H394.4
		z M394.4,185.5v-28.6h-29.7v28.6H394.4z"/>
</g>
<g class="st2">
	<path class="st3" d="M133,368.4c-3.2,0.6-6.9,1-11.2,1.4l-0.4-1.2c1.6-0.1,3.4-0.2,5.4-0.5v-3.2h-4.7v-1.2h4.7V361h-5.1v-1.2h3.1
		c-0.4-1.2-0.8-2.3-1.2-3.2h-1.9v-1.1h3.5v-6h1.2v6h2.1v-6h1.2v6h3.1v1.1H131c-0.4,1.1-0.8,2.2-1.3,3.2h2.9v1.2h-4.6v2.7h4.1v1.2
		h-4.1v3c1.5-0.2,3.2-0.4,4.9-0.8V368.4z M124.2,354l-1.1,0.5c-0.4-1.3-0.9-2.5-1.5-3.7l1-0.5C123.3,351.5,123.8,352.7,124.2,354z
		 M129.7,356.6H125c0.4,1,0.8,2,1.1,3.2h2.3C129,358.5,129.4,357.5,129.7,356.6z M133.7,350.7c-0.5,1.5-1.2,2.8-1.9,3.9l-1-0.6
		c0.9-1.5,1.5-2.7,1.8-3.7L133.7,350.7z M142.3,355.9h-2.2v12.3c0,0.6-0.1,1-0.4,1.3s-0.6,0.5-0.9,0.7s-1,0.2-2.1,0.2
		c-0.5,0-1.1,0-1.5-0.1l-0.5-1.2c0.8,0,1.9,0.1,3.1,0.1c0.7,0,1-0.3,1-1v-12.2h-5.2v-1.2h5.2v-5.2h1.2v5.2h2.2V355.9z M137.2,364
		l-1.2,0.6c-0.6-1.9-1.4-3.8-2.4-5.7l1-0.6C135.5,359.7,136.4,361.6,137.2,364z"/>
	<path class="st3" d="M171.2,368.2l-0.9,1c-4-2.7-6.9-5.9-8.7-9.5h-0.2v10.7h-1.3v-10.7H160c-1.9,3.9-4.9,7.1-9,9.5l-0.9-1
		c4-2.2,6.8-5.1,8.4-8.4h-8.2v-1.2h9.7v-4.7h-8.4v-1.2h8.4v-3.2h1.3v3.2h8.3v1.2h-8.3v4.7h9.6v1.2h-8
		C164.7,363.1,167.5,365.9,171.2,368.2z"/>
	<path class="st3" d="M200.1,368l-0.7,1.1c-4.1-1.9-7.2-4.6-9.5-8.1v9.3l-1.2,0v-9.2c-2.2,2.9-5.3,5.6-9.2,8l-0.8-1
		c4.8-3,8.1-6,9.9-9.2V353h-9.4v-1.2h9.4v-2.4h1.2v2.4h9.7v1.2h-9.7v5.9c1.1,2,2.5,3.8,4.3,5.4S198,367.1,200.1,368z M186.6,360.3
		l-0.9,1c-0.8-1.1-1.6-2.1-2.5-2.8c-0.6,1.2-1.7,2.5-3.1,3.8l-1-0.9c2.2-1.8,3.7-4.2,4.5-7.1l1.2,0.3c-0.2,0.8-0.5,1.8-1,2.8
		C185,358.4,185.9,359.4,186.6,360.3z M199,361.1l-0.6,1.1c-1-1.2-2.2-2.4-3.5-3.6c-0.6,1.3-1.2,2.3-1.8,2.9l-1-0.8
		c1.3-1.6,2.3-3.7,2.9-6.4l1.2,0.2c-0.2,1.1-0.5,2-0.8,2.8C196.9,358.7,198.1,360,199,361.1z"/>
	<path class="st3" d="M215.4,365.2c-1.8,1.5-4.1,2.8-6.8,3.8l-0.8-1.1c3.1-1.1,5.3-2.3,6.6-3.5L215.4,365.2z M228,363.4l-1.1,0.7
		c-0.4-0.6-0.8-1.2-1.4-1.9c-3.1,0.3-5.3,0.5-6.5,0.6v6.1c0,0.4-0.1,0.6-0.4,0.9s-0.5,0.4-0.8,0.5s-0.8,0.1-1.6,0.1
		c-0.4,0-0.8,0-1.2,0l-0.5-1.3c0.4,0,0.9,0,1.4,0c0.8,0,1.3,0,1.5-0.1s0.3-0.2,0.3-0.6V363c-3.5,0.2-6.2,0.4-7.9,0.4l-0.4-1.1
		c2.9-1.1,5.8-2.3,8.6-3.9c-2.8,0.2-5.2,0.3-7.4,0.3l-0.3-0.9c3.6-1.3,6.5-3,8.7-5l1.2,0.7c-1.7,1.4-3.6,2.7-6,3.9
		c0.8,0,1.5-0.1,2.2-0.1s1.4-0.1,2.1-0.1c1.3-0.1,2.1-0.2,2.2-0.3c1-0.6,2-1.3,3-2.1l1.1,0.8c-2.6,2-6.4,4.1-11.6,6.4
		c3.9-0.1,7.6-0.4,11.2-0.9c-0.4-0.4-1-1-1.8-1.7l1.1-0.7C225.6,360.3,227,361.9,228,363.4z M220.7,350c-2.2,2-5.6,3.6-10.1,4.8
		l-1-1.1c4.5-1,7.8-2.4,10-4.4L220.7,350z M228.6,368l-0.8,1c-1.7-1.4-3.7-2.7-6-3.8l0.8-1C224.9,365.3,226.9,366.6,228.6,368z"/>
	<path class="st3" d="M257.7,354.1l-0.5,1.1c-2.6-0.6-4.7-1.3-6.3-2.1v0.9h-7.8v-0.9c-1.7,0.9-3.7,1.7-6,2.3l-0.6-1.1
		c4.3-1.1,7.7-2.8,10.3-5.2l1.4,0.4c-0.2,0.2-0.3,0.3-0.4,0.4C250.3,351.9,253.6,353.3,257.7,354.1z M255.3,361.4h-16.7v-5.9h16.7
		V361.4z M254.3,370.4H253v-1h-12v1h-1.3v-7.6h14.5V370.4z M246.4,360.2v-3.6h-6.5v3.6H246.4z M253,365.5v-1.6h-12v1.6H253z
		 M253,368.2v-1.6h-12v1.6H253z M244.4,359l-0.9,0.7c-0.5-0.7-1.1-1.4-1.8-2l0.9-0.6C243.2,357.6,243.8,358.2,244.4,359z
		 M250.3,352.9c-1.2-0.6-2.4-1.3-3.4-2.1c-1,0.8-2.1,1.5-3.2,2.1H250.3z M254.1,360.2v-3.6h-6.5v3.6H254.1z M252.3,357.6
		c-0.6,0.8-1.2,1.5-1.8,2.1l-0.9-0.7c0.6-0.5,1.2-1.1,1.7-1.9L252.3,357.6z"/>
	<path class="st3" d="M273.7,369.9h-1.2v-2.1h-5.2v2.5h-1.2v-17h2.2c0.6-1.1,1.2-2.4,1.7-4.1l1.2,0.2c-0.3,0.8-0.8,2.1-1.6,3.9h4.1
		V369.9z M272.5,359.7v-5.2h-5.2v5.2H272.5z M272.5,366.6v-5.7h-5.2v5.7H272.5z M285.7,353.4c-0.1,3.6-0.3,6.9-0.5,10
		s-0.5,4.9-0.8,5.4s-0.6,0.9-1,1.2s-1.2,0.3-2.3,0.3c-0.5,0-1.1,0-1.9,0l-0.4-1.2c0.7,0,1.4,0,2.1,0c0.7,0,1.2,0,1.4,0
		s0.4-0.1,0.6-0.3s0.4-0.4,0.5-0.6s0.2-1.2,0.4-2.8s0.3-3.3,0.4-5.3s0.2-3.8,0.2-5.6h-6.3c-0.8,1.7-1.8,3.2-2.9,4.7l-1-0.7
		c2.1-2.8,3.6-5.8,4.5-9.2l1.2,0.3c-0.4,1.3-0.8,2.5-1.3,3.7H285.7z M281.3,364.2l-1,0.7c-0.8-1.8-1.9-3.6-3.5-5.6l1-0.7
		C279.3,360.3,280.4,362.2,281.3,364.2z"/>
	<path class="st3" d="M298.5,365.8c-0.9,1.2-2.1,2.4-3.5,3.4l-0.9-0.9c1.2-0.8,2.3-1.9,3.4-3.2L298.5,365.8z M307.4,358.7h-13.2
		v-1.1h6.1c-0.2-0.6-0.5-1.1-0.7-1.5h-4v-6.1h10.3v6.1H301c0.2,0.4,0.4,0.9,0.6,1.5h5.7V358.7z M305.7,364.3h-4.2v4.4
		c0,0.6-0.2,1-0.5,1.3s-0.9,0.4-1.7,0.4h-0.9l-0.4-1.1c0.8,0,1.4,0,1.8,0s0.6-0.3,0.6-0.7v-4.2h-4.4v-4.2h9.9V364.3z M304.7,352.3
		v-1.2h-7.8v1.2H304.7z M304.7,354.9v-1.4h-7.8v1.4H304.7z M304.5,363.1v-1.9h-7.4v1.9H304.5z M306.1,368.3l-1.1,0.7
		c-0.6-1.1-1.2-2.2-2.1-3.2l1-0.7C304.8,366,305.5,367.1,306.1,368.3z M315.3,363.6c-2,2.7-4.7,5-7.9,6.8l-0.8-1
		c3.6-2,6.2-4.2,7.8-6.7L315.3,363.6z M314.7,350.1c-1.8,2.1-4.1,3.9-6.9,5.4l-0.8-1c3.3-1.6,5.5-3.4,6.8-5.2L314.7,350.1z
		 M314.9,356.6c-1.6,2.1-4,4-7.2,5.7l-0.7-1.1c3.2-1.7,5.5-3.5,7-5.5L314.9,356.6z"/>
	<path class="st3" d="M343.9,363.4h-21v-1h6.5c-0.2-0.4-0.5-1-1-1.6h-4.4v-1h8.6c-0.2-0.3-0.3-0.5-0.5-0.7l1.1-0.5
		c0.4,0.4,0.7,0.8,0.9,1.2h8.6v1h-4.6c-0.4,0.8-0.7,1.3-0.9,1.6h6.6V363.4z M329.8,354c-0.4,2.9-2.2,4.6-5.4,5.1l-0.5-1
		c2-0.2,3.4-0.9,4.1-2.1c-1.7,0.3-3.3,0.5-4.7,0.6l-0.3-0.8c1.2-0.5,2.5-1.4,3.8-2.6c-1.2,0.1-2.3,0.2-3.5,0.3l-0.3-0.7
		c1.3-0.8,2.5-1.9,3.5-3.1l1,0.5c-0.8,0.9-1.7,1.7-2.7,2.4c1,0,2-0.1,2.9-0.3l0.9-1.1l0.9,0.5c-1.4,1.7-2.8,2.9-4.2,3.8
		c0.9-0.1,1.9-0.2,3-0.4c0.2-0.4,0.3-0.8,0.4-1.2L329.8,354z M341.1,370.5h-1.2v-0.9H327v0.9h-1.2v-6.2h15.3V370.5z M339.9,366.4v-1
		H327v1H339.9z M339.9,368.5v-1.2H327v1.2H339.9z M336.9,360.7h-6.9c0.3,0.6,0.6,1.1,0.9,1.6h5.1C336.3,362,336.6,361.4,336.9,360.7
		z M336.8,358.2l-0.9,0.5c-0.3-0.5-0.5-0.8-0.7-1.1c-1.2,0.4-2.7,0.8-4.5,1.1l-0.3-0.9c0.2-0.1,0.4-0.3,0.4-0.6v-6.6h2.2
		c-0.1-0.3-0.3-0.6-0.6-0.9l1.1-0.5c0.4,0.5,0.7,1,0.9,1.4h2.1v4.9H335C335.7,356.5,336.3,357.3,336.8,358.2z M335.3,352.6v-1h-3.6
		v1H335.3z M335.3,354.7v-1.1h-3.6v1.1H335.3z M334.5,356.7c-0.1-0.2-0.3-0.4-0.6-0.7l0.6-0.4h-2.8v1.8
		C332.7,357.3,333.7,357,334.5,356.7z M343.4,350.9c0,0.2-0.5,1.1-1.6,2.7c1,0.9,1.5,1.9,1.5,2.9c0,1.4-1,2.1-3,2l-0.3-1.1
		c0.2,0,0.4,0,0.7,0c0.5,0,0.9-0.1,1.2-0.2s0.4-0.4,0.4-0.8c0-1-0.6-1.9-1.9-2.8c0.7-0.9,1.3-1.8,1.8-2.8h-3.2v7.9h-1.1V350h5.5
		V350.9z"/>
</g>
</svg>
